<svg width="276" height="329" viewBox="0 0 276 329" fill="none" xmlns="http://www.w3.org/2000/svg">
<path d="M130.079 21.8305C132.925 16.4321 135.943 11.3135 142.18 9.44298C146.353 8.19343 150.584 8.73224 154.281 11.0345C158.655 13.7572 161.444 18.4048 162.408 23.4001C163.774 30.4866 161.549 35.8163 157.69 41.615C163.755 50.1488 167.737 58.46 171.376 68.187L176.696 83.4902C182.369 102.719 187.145 119.205 184.738 139.656C184.919 142.28 184.432 145.099 186.39 146.923L192.503 147.152C193.802 143.315 194.585 139.612 198.357 137.635C200.812 138.328 203.104 138.912 205.645 139.174C208.443 137.394 208.901 136.671 212.13 137.036C213.648 138.637 214.489 140.038 215.415 142.032C216.819 142.15 218.194 142.187 219.608 142.193C222.444 145.29 220.62 147.316 222.358 150.342C224.765 154.55 227.124 150.841 226.656 160.142C225.825 176.536 213.18 195.021 201.27 205.57C197.784 208.663 193.84 210.95 189.723 213.089C195.187 223.242 197.192 231.42 199.513 242.569C199.981 244.804 200.172 247.954 201.872 249.585C205.272 249.029 206.284 248.265 209.255 250.252C209.78 251.996 209.818 254.204 210.487 255.792C215.32 267.299 216.934 262.527 210.229 275.093L209.427 276.589C212.168 278.273 215.3 280.276 216.953 283.102C218.118 285.102 218.634 287.401 217.784 289.628C215.186 296.48 202.015 300.569 195.721 303.232C194.976 305.922 193.935 308.653 192.474 311.043C188.205 318.012 169.39 320.596 161.74 322.253C144.548 325.972 118.799 333.153 102.916 322.942C85.1233 324.471 67.4257 324.626 49.9764 320.018C43.7875 318.381 39.7026 314.76 36.6072 309.241C35.8451 307.882 9.6492 300.541 2.71342 292.631C0.999057 290.676 -0.213876 288.22 0.0315789 285.562C0.511983 280.358 4.44213 277.151 8.24907 274.177C6.71617 270.446 5.16607 266.672 4.05627 262.79C-7.97772 220.676 12.5221 183.425 21.006 143.398C28.1796 109.552 28.1147 76.9119 45.5162 45.8996C44.3987 44.4619 43.3482 42.9735 42.3644 41.4393C39.2089 36.5185 38.2156 30.5124 39.6224 24.8359C40.9242 19.4967 44.2746 14.7326 49.0787 11.9841C52.8703 9.78215 57.3974 9.26627 61.5902 10.5617C68.1898 12.5802 71.055 17.6052 74.1686 23.2348C93.5376 17.0377 110.414 16.796 130.079 21.8305Z" fill="#4D2809"/>
<path d="M6.07617 215.333C6.40185 210.971 7.80007 204.463 8.8201 200.181C14.6126 175.868 24.6878 153.301 27.6877 128.29C29.7841 110.805 32.4449 92.7256 37.0875 75.7334C39.0865 68.4129 41.9346 60.9185 45.5638 54.2695C46.0318 53.4221 49.432 47.3444 50.2724 45.9917C47.7319 42.0443 43.9211 36.5312 43.1475 31.4729C42.5172 28.0376 42.9374 22.898 45.5638 20.2365C63.7676 1.7417 65.9357 22.9592 73.2039 28.9843C88.5806 18.6431 117.653 20.9778 134.262 27.5647C136.535 28.8821 139.152 30.4994 141.463 31.6515L148.111 36.2418L152.294 40.5006C168.673 63.0459 185.082 108.714 180.87 137.277C178.396 154.022 166.677 163.087 166.076 168.03L167.556 168.416C172.331 165.044 176.629 164.043 181.596 168.373L182.952 172.631C185.168 179.191 189.274 185.214 195.674 188.291C197.02 188.925 198.405 189.46 199.828 189.891C202.798 190.584 206.962 189.471 209.341 190.563C195.54 212.93 180.01 207.553 173.774 213.767C175.025 215.155 175.264 215.25 177.174 215.3C179.943 215.371 182.933 214.632 185.664 214.148C191.911 225.127 195.081 233.533 195.74 246.325C191.395 247.78 188.262 249.3 184.852 252.497C186.438 253.792 186.753 254.102 188.749 254.418L189.389 255.429C188.319 256.08 187.288 256.598 186.447 257.543L184.919 257.473L183.745 256.914C169.409 260.55 130.843 273.352 119.496 273.721L113.155 270.717C112.553 276.039 110.891 284.284 113.881 288.948C115.829 290.132 117.672 290.764 118.589 292.915C115.953 293.906 114.883 293.264 112.19 292.604C111.598 294.105 111.283 295.328 111.035 296.924C110.748 298.796 110.27 299.767 109.229 301.334C109.44 304.475 109.506 307.169 108.838 310.288C104.034 313.336 99.6786 315.475 94.0627 316.645C82.2675 319.102 64.0828 319.393 53.7011 312.301C49.0404 309.12 46.7482 305.337 45.7167 299.827L46.1369 295.506C45.4302 286.972 46.0032 277.953 45.9936 269.366L44.5515 271.397C43.6155 271.752 42.6413 272.098 41.6481 272.181C37.2786 272.542 31.1814 267.398 28.2388 264.58C17.0691 253.888 8.9118 238.371 8.62814 222.699C8.57847 219.762 7.41806 217.851 6.07617 215.333Z" fill="#FF9A43"/>
<path d="M48.2955 221.998L53.1473 218.236L52.6124 220.8L52.8321 222.125C54.5704 223.648 56.2035 224.699 58.2474 225.775C73.0511 231.771 85.1234 230.232 100.319 227.341C102.114 225.673 104.597 224.437 106.689 223.135L107.654 223.171C113.355 237.839 107.682 282.065 109.229 301.335C109.44 304.476 109.506 307.17 108.838 310.289C104.034 313.337 99.6787 315.477 94.0628 316.646C82.2676 319.103 64.0829 319.394 53.7012 312.302C49.0405 309.121 46.7483 305.338 45.7168 299.828L46.137 295.507C45.4303 286.973 46.0033 277.954 45.9937 269.367C46.0893 259.067 45.8983 248.749 45.8314 238.447L46.5 226.699L48.2955 221.998Z" fill="#F8EDDB"/>
<path d="M48.2955 221.998L53.1473 218.236L52.6124 220.8L52.8321 222.125C54.5704 223.648 56.2035 224.699 58.2474 225.775L57.7603 228.746C57.4929 241.178 54.79 294.313 60.6447 300.837C65.229 305.936 74.2449 306.025 80.5198 305.947C85.639 305.884 93.0791 305.609 96.6511 301.397C102.697 294.267 100.586 240.403 99.7933 228.691L100.319 227.341C102.114 225.673 104.597 224.437 106.689 223.135L107.654 223.171C113.355 237.839 107.682 282.065 109.229 301.335C109.44 304.476 109.506 307.17 108.838 310.289C104.034 313.337 99.6787 315.477 94.0628 316.646C82.2676 319.103 64.0829 319.394 53.7012 312.302C49.0405 309.121 46.7483 305.338 45.7168 299.828L46.137 295.507C45.4303 286.973 46.0033 277.954 45.9937 269.367C46.0893 259.067 45.8983 248.749 45.8314 238.447L46.5 226.699L48.2955 221.998Z" fill="#E4CBAF"/>
<path d="M48.2955 221.998L53.1473 218.236L52.6124 220.8C51.2753 224.615 50.1865 228.329 49.7472 232.362C48.4387 244.483 46.9011 295.063 51.6574 304.165C53.7967 308.251 59.3267 310.673 63.6341 311.709C64.7993 311.991 65.9931 312.175 67.1869 312.333C73.8629 314.015 80.0327 314.17 86.8615 313.424C91.188 312.94 96.2978 312.223 100.309 310.523C104.865 308.592 107.453 305.946 109.229 301.335C109.44 304.476 109.506 307.17 108.838 310.289C104.034 313.337 99.6787 315.477 94.0628 316.646C82.2676 319.103 64.0829 319.394 53.7012 312.302C49.0405 309.121 46.7483 305.338 45.7168 299.828L46.137 295.507C45.4303 286.973 46.0033 277.954 45.9937 269.367C46.0893 259.067 45.8983 248.749 45.8314 238.447L46.5 226.699L48.2955 221.998Z" fill="#69675C"/>
<path d="M67.1875 312.332C70.7022 310.82 82.5452 310.966 86.1172 312.363C86.356 312.458 86.5756 312.604 86.8048 312.724L86.8621 313.423C80.0333 314.169 73.8635 314.014 67.1875 312.332Z" fill="#F8F3EF"/>
<path d="M58.2488 225.773C73.0525 231.77 85.1248 230.231 100.32 227.34L99.7947 228.69C85.1152 235.255 72.5272 231.958 57.7617 228.744L58.2488 225.773Z" fill="#FAEACB"/>
<path d="M56.0134 190.969C55.4021 187.758 56.3954 180.378 58.2291 177.632C61.2185 173.151 67.7991 171.172 72.8323 170.519C80.4156 169.535 92.5547 169.358 98.7627 174.632C101.552 177.001 102.392 180.408 102.487 183.946C102.631 189.46 100.893 195.648 101.714 200.985C102.936 208.941 109.832 215.297 111.647 223.796C114.369 236.583 113.251 251.028 113.213 264.097C121.131 256.613 131.293 238.985 142.83 239.103C150.996 239.187 160.423 243.535 168.13 246.1C168.951 242.434 169.582 238.601 171.272 235.218L172.437 235.244C172.8 238.324 170.117 246.393 172.027 247.82C174.137 249.395 177.643 250.305 180.135 251.258C181.597 251.658 183.363 252.378 184.853 252.497C186.439 253.793 186.754 254.103 188.75 254.418L189.39 255.43C188.32 256.081 187.289 256.598 186.448 257.543L184.92 257.473L183.746 256.915C169.41 260.55 130.844 273.353 119.497 273.721L113.156 270.718C112.554 276.04 110.892 284.284 113.882 288.949C115.83 290.133 117.673 290.765 118.59 292.915C115.954 293.907 114.884 293.264 112.191 292.605C111.599 294.106 111.284 295.329 111.035 296.925C110.749 298.796 110.271 299.768 109.23 301.335C107.683 282.064 113.356 237.839 107.654 223.171L106.69 223.135C104.598 224.437 102.115 225.673 100.32 227.341C85.1242 230.232 73.052 231.771 58.2483 225.774C56.2044 224.699 54.5712 223.648 52.833 222.125L52.6133 220.8L53.1481 218.236C56.5769 212.436 59.5281 206.683 62.2309 200.513L61.677 194.423C60.1393 192.023 59.5854 190.466 59.4612 187.613C58.0477 188.601 56.7488 189.337 56.0134 190.969Z" fill="#8F4C0E"/>
<path d="M94.3884 192.382C96.0884 191.237 97.2059 189.841 99.2784 190.186C99.0301 192.429 97.9508 193.749 96.6615 195.551C98.3233 206.43 104.541 213.206 107.654 223.171L106.69 223.135C104.598 224.437 102.115 225.673 100.32 227.341C85.1242 230.232 73.052 231.771 58.2483 225.774C56.2044 224.699 54.5712 223.648 52.833 222.125L52.6133 220.8L53.1481 218.236C56.5769 212.436 59.5281 206.683 62.2309 200.513L61.677 194.423C63.1669 194.136 64.7332 193.427 66.1849 192.931C75.6497 193.956 85.0764 195.231 94.3884 192.382Z" fill="#D1D9DB"/>
<path d="M67.7885 217.774C85.4957 215.478 90.7295 218.803 106.689 223.134C104.597 224.436 102.114 225.672 100.319 227.34C85.1233 230.231 73.051 231.77 58.2473 225.773C56.2034 224.697 54.5703 223.647 52.832 222.124C56.6428 220.376 60.8069 219.335 64.8183 218.137L67.7885 217.774Z" fill="#F8F4ED"/>
<path d="M66.1857 192.931C75.6505 193.956 85.0771 195.232 94.3892 192.383C94.5229 195.449 95.1628 198.798 93.3099 201.411L91.0368 202.029C84.0839 198.615 73.5972 203.755 66.5296 200.099C64.2088 198.902 63.9031 197.78 63.1008 195.52L62.2317 200.513L61.6777 194.423C63.1677 194.137 64.734 193.427 66.1857 192.931Z" fill="#BDC1BD"/>
<path d="M64.8184 218.137C65.0094 216.84 65.2099 215.544 65.4201 214.249C65.9836 210.78 66.2892 206.245 69.355 204.033L70.4819 204.897C71.1505 209.306 69.355 213.72 67.7886 217.774L64.8184 218.137Z" fill="#F8F3EF"/>
<path d="M94.3875 192.382C96.0875 191.237 97.205 189.841 99.2775 190.186C99.0292 192.429 97.9499 193.749 96.6606 195.551C96.6128 195.827 96.5555 196.102 96.5077 196.379C95.9251 199.981 95.8583 201.63 93.9482 205.017L92.3055 205.703C91.847 204.495 91.3217 203.29 91.0352 202.028L93.3082 201.411C95.1611 198.797 94.5212 195.449 94.3875 192.382Z" fill="#B8C4C9"/>
<path d="M139.192 241.834C153.814 244.723 170.337 250.471 183.746 256.914C169.41 260.55 130.844 273.353 119.498 273.721L113.156 270.718C120.74 260.606 130.529 251.02 139.192 241.834Z" fill="#FCD673"/>
<path d="M132.305 258.983C133.661 258.981 135.112 258.931 136.45 259.147C138.895 259.54 139.754 259.972 141.101 261.957L140.404 264.624C137.405 265.028 135.361 265.36 132.429 264.264C131.225 261.759 131.579 261.554 132.305 258.983Z" fill="#E89A2C"/>
<path d="M147.414 251.412C147.796 251.408 148.169 251.4 148.551 251.4C151.798 251.41 153.479 251.856 155.676 254.093L155.561 256.891C153.125 257.35 151.569 257.382 149.19 256.644C147.49 254.456 147.481 254.198 147.414 251.412Z" fill="#E89A2C"/>
<path d="M97.8644 178.295C97.4824 181.758 97.788 185.261 95.5722 187.994C92.8884 188.645 90.2143 189.282 87.5305 189.906C87.3204 190.007 87.1103 190.124 86.8906 190.21C77.2634 193.898 72.2779 189.9 64.0833 186.186L60.9029 188.618L60.3203 187.833C61.5428 186.209 61.8771 184.285 62.3833 182.35L60.6451 179.19C69.0402 181.279 90.3575 182.683 97.8644 178.295Z" fill="#C8761D"/>
<path d="M62.3833 182.351C70.6161 184.275 80.759 187.457 88.562 183.204C89.8418 182.507 90.902 182.279 92.3155 182.016L93.1464 183.373C92.2104 185.418 90.6631 186.016 88.7816 187.017L87.5305 189.907C87.3204 190.008 87.1103 190.124 86.8906 190.21C77.2634 193.899 72.2779 189.901 64.0833 186.186L60.9029 188.619L60.3203 187.833C61.5428 186.209 61.8771 184.285 62.3833 182.351Z" fill="#CB741B"/>
<path d="M60.6445 179.191C63.5766 176.237 68.4762 175.205 72.4684 174.553C80.4242 173.252 91.0733 173.457 97.8639 178.296C90.357 182.684 69.0397 181.281 60.6445 179.191Z" fill="#E48E33"/>
<path d="M60.3205 187.834L60.9031 188.619C62.6031 190.088 64.284 191.727 66.1846 192.931C64.7329 193.427 63.1666 194.137 61.6767 194.424C60.139 192.024 59.5851 190.467 59.4609 187.613L60.3205 187.834Z" fill="#B8C4C9"/>
<path d="M199.828 189.893C202.798 190.585 206.963 189.472 209.341 190.564C195.54 212.931 180.01 207.554 173.774 213.769C175.025 215.157 175.264 215.251 177.174 215.301C179.943 215.373 182.933 214.633 185.664 214.149C191.911 225.128 195.081 233.534 195.74 246.327C191.395 247.782 188.262 249.301 184.852 252.498C183.363 252.379 181.596 251.659 180.134 251.259C182.704 246.742 185.779 244.278 189.914 241.294C190.115 238.278 190.268 235.044 189.657 232.07C187.087 219.533 180.001 226.62 173.038 221.959C170.67 216.18 168.091 208.818 167.852 202.545C167.814 201.492 168.206 201.439 168.884 200.704C169.609 203.084 169.609 203.44 171.644 205.063C173.812 205.522 175.588 205.4 177.709 204.791C184.442 202.861 196.17 197.487 199.417 190.833C199.57 190.525 199.694 190.206 199.828 189.893Z" fill="#C26510"/>
<path d="M8.62891 222.699C8.75689 222.949 8.88966 223.196 9.01382 223.447C11.3242 228.117 11.858 233.185 13.6067 238.063C16.4309 245.939 25.2539 264.508 33.991 267.272C35.0034 267.592 36.1017 267.643 37.1552 267.659C37.838 266.184 37.9546 265.068 38.1036 263.476C40.2048 260.946 42.2601 259.251 44.9247 257.38C44.8961 253.102 43.559 241.798 45.8321 238.446C45.8989 248.748 46.0899 259.066 45.9944 269.366L44.5522 271.397C43.6163 271.752 42.6421 272.097 41.6488 272.181C37.2793 272.542 31.1821 267.397 28.2395 264.58C17.0699 253.888 8.91256 238.371 8.62891 222.699Z" fill="#CE6F17"/>
<path d="M46.5005 226.698C38.7243 218.91 35.3996 209.643 33.1523 199.039L34.2201 197.816C37.6097 198.289 48.0095 213.201 50.3017 216.21L48.6972 218.995L48.1432 221.248L48.2961 221.997L46.5005 226.698Z" fill="#C26510"/>
<path d="M48.1442 221.249C41.0203 215.662 38.7624 210.397 35.9297 201.939C39.8302 208.124 43.7317 213.606 48.6981 218.996L48.1442 221.249Z" fill="#4D2809"/>
<path d="M56.0124 190.969C56.7478 189.338 58.0468 188.602 59.4603 187.613C59.5844 190.467 60.1383 192.024 61.676 194.424L62.23 200.514C59.5271 206.684 56.5759 212.437 53.1472 218.237L48.2954 221.999L48.1426 221.25L48.6965 218.996L50.3011 216.211C52.7652 211.44 56.3276 205.906 57.6169 200.712C58.6389 196.643 58.104 194.554 56.0124 190.969Z" fill="#4C3E14"/>
<path d="M150.547 97.5497C151.272 103.885 156.716 113.574 158.436 120.604C160.976 130.955 160.575 141.676 154.911 150.944C150.91 157.499 143.555 164.516 135.867 166.205C126.899 168.174 116.393 168.307 108.409 163.185C101.379 158.674 97.3392 151.386 95.6392 143.348C92.6307 129.056 95.5723 111.412 103.624 99.1671C107.845 92.7588 114.024 87.5897 121.713 86.1376C133.651 83.8802 140.833 90.4508 149.916 96.7951L150.547 97.5497Z" fill="#A85914"/>
<path d="M136.231 107.041C138.657 105.667 140.787 104.014 143.671 104.385C145.209 105.937 145.495 106.105 145.428 108.304C145.361 110.196 144.234 112.232 142.792 113.442C139.832 115.91 135.935 114.759 133.299 117.75L133.194 118.656L131.704 116.228C130.166 117.361 130.252 118.405 129.775 120.217C126.021 113.504 121.045 117.054 115.706 112.836C114.627 111.294 114.111 110.261 114.025 108.343C113.949 106.514 114.226 106.55 115.468 105.193C118.743 104.752 120.959 105.909 123.844 107.211L136.231 107.041Z" fill="#2A1603"/>
<path d="M136.231 107.041C138.657 105.667 140.787 104.014 143.671 104.385C145.209 105.937 145.495 106.105 145.429 108.304C145.362 110.196 144.235 112.232 142.793 113.442C139.832 115.91 135.935 114.759 133.299 117.75L132.268 115.98L136.231 107.041Z" fill="#3A1A01"/>
<path d="M123.844 107.211L136.231 107.041L132.267 115.981C127.855 114.459 126.241 110.916 123.844 107.211Z" fill="#7B3909"/>
<path d="M129.774 120.218C130.251 118.406 130.165 117.362 131.703 116.229L133.193 118.657L133.002 140.043C136.029 141.971 138.914 143.508 140.805 146.672L140.423 148.016C136.669 147.845 133.852 145.478 130.7 143.494C126.584 146.114 122.19 149.74 117.291 150.401L116.584 149.696C119.936 145.01 124.234 142.617 129.363 140.27C129.372 133.782 128.752 126.603 129.774 120.218Z" fill="#3A1A01"/>
<path d="M60.7132 104.191C60.971 104.196 61.2193 104.197 61.4772 104.206C66.8352 104.39 72.2123 105.643 75.9371 109.863C77.895 112.088 78.8978 114.878 78.5062 117.846C77.9141 122.346 74.5522 124.638 71.2668 127.255C69.4903 127.342 67.7234 127.307 65.9565 127.149C61.9451 126.808 57.9529 125.219 55.4124 121.97C53.7506 119.84 53.0248 117.355 53.3686 114.666C53.9894 109.872 57.2271 107.063 60.7132 104.191Z" fill="#F88C44"/>
<path d="M72.4399 110.875C73.1275 114.115 71.4848 116.26 70.0809 119.034C69.7944 118.242 69.546 117.697 69.4314 116.829C69.1066 114.441 71.1219 112.599 72.4399 110.875Z" fill="#CE6F17"/>
<path d="M63.7691 110.811C63.9696 111.232 64.1989 111.625 64.2371 112.114C64.409 114.644 62.6039 116.281 61.1904 118.177C61.1236 117.963 61.0185 117.758 60.9803 117.535C60.5505 114.705 62.2983 113.057 63.7691 110.811Z" fill="#CE6F17"/>
<path d="M79.843 81.1836C80.6548 81.2342 80.9795 81.2314 81.7244 81.346C84.5992 81.7874 86.8628 83.2853 88.5342 85.6602C90.387 88.2931 90.7404 91.6108 90.1387 94.7127C89.155 99.8437 86.6527 102.086 82.6223 104.891C79.1171 104.364 75.9081 103.193 73.8165 100.182C72.0114 97.5787 71.5433 94.4615 72.2119 91.3921C73.3198 86.3356 75.803 83.953 79.843 81.1836Z" fill="#1F1302"/>
<path d="M165.618 101.539C166.726 101.55 167.824 101.634 168.923 101.79C171.673 102.21 173.65 103.536 175.217 105.837C176.974 108.424 177.547 111.422 176.84 114.472C176.076 117.774 174.519 119.202 171.75 120.984C171.444 120.99 171.129 120.999 170.823 121C167.261 121.008 164.587 120.595 162.027 117.868C160.146 115.869 159.458 113.737 159.639 111.013C159.935 106.321 162.256 104.322 165.618 101.539Z" fill="#E48E33"/>
<path d="M149.916 96.7953C148.263 92.4315 146.84 88.1249 148.703 83.4974C149.486 81.5294 151.1 79.5443 153.096 78.7371C154.615 78.1219 155.436 78.59 156.964 78.9358C160.737 81.924 162.408 86.2802 162.857 90.9612C163.096 93.3724 162.838 96.3998 161.281 98.3878C160.183 99.7998 158.913 100.087 157.213 100.123C154.739 100.174 152.428 99.0718 150.546 97.55L149.916 96.7953Z" fill="#1F1302"/>
<path d="M140.118 171.614C142.028 171.303 142.248 171.205 143.976 172.022C143.508 174.517 142.907 175.093 140.767 176.543C133.318 181.566 123.652 181.31 115.238 179.923C112.726 178.806 110.826 178.396 109.24 176.03C112.659 173.033 133.7 172.888 140.118 171.614Z" fill="#C26510"/>
<path d="M51.3437 24.9314C59.0512 22.0339 62.5372 26.6796 61.735 34.2352C59.863 36.1506 58.3635 37.6657 56.2528 39.3203L54.0848 38.7232C50.2358 32.8232 49.1184 32.0313 51.3437 24.9314Z" fill="#4D2809"/>
<path d="M51.3437 24.9316C54.2853 26.5136 56.5393 27.2893 58.268 30.0607C57.9242 34.1933 55.5174 35.0064 54.0848 38.7235C50.2358 32.8235 49.1184 32.0315 51.3437 24.9316Z" fill="#A85914"/>
<path d="M85.7642 60.1973L87.512 62.384L87.1204 64.6633C84.5704 67.5474 80.5304 68.6852 77.0348 70.123C75.6882 69.2546 75.6021 69.1972 75.0195 67.7136C76.7291 64.8964 82.2877 63.0479 85.0861 60.7619C85.3153 60.5765 85.5349 60.3855 85.7642 60.1973Z" fill="#4D2809"/>
<path d="M142.953 59.3203C143.23 59.3958 143.517 59.4579 143.794 59.5467C147.776 60.8364 153.937 63.2963 155.713 67.0287C152.619 67.3583 148.426 66.7516 145.818 64.9471C143.402 63.2705 143.345 62.0028 142.953 59.3203Z" fill="#4D2809"/>
<path d="M183.745 256.914L184.92 257.473L186.448 257.543C186.697 266.529 188.521 275.564 183.201 283.274L183.659 284.759L184.424 285.038C186.429 289.794 186.811 297.557 185.13 302.464C184.509 304.27 182.762 305.146 181.186 306.015C167.882 306.244 137.338 316.566 122.41 319.871C119.049 318.338 115.954 316.569 112.802 314.666C111.828 307.534 112.86 299.878 112.191 292.605C114.884 293.264 115.954 293.907 118.59 292.915C117.673 290.765 115.83 290.132 113.881 288.949C110.892 284.284 112.554 276.039 113.156 270.717L119.497 273.721C130.844 273.352 169.41 260.55 183.745 256.914Z" fill="#F7B13C"/>
<path d="M183.745 256.914L184.92 257.473C176.649 265.444 134.272 269.063 125.82 275.993C124.063 277.431 123.948 280.514 123.938 282.595C123.919 285.86 124.034 289.334 124.464 292.572L125.638 296.707L126.441 298.366L126.097 299.28C124.273 304.258 125.352 313.603 122.907 317.286L122.41 319.871C119.049 318.338 115.954 316.569 112.802 314.666C111.828 307.534 112.86 299.878 112.191 292.605C114.884 293.264 115.954 293.907 118.59 292.915C117.673 290.765 115.83 290.132 113.881 288.949C110.892 284.284 112.554 276.039 113.156 270.717L119.497 273.721C130.844 273.352 169.41 260.55 183.745 256.914Z" fill="#F9CF6D"/>
<path d="M112.803 314.666C112.879 310.76 112.23 303.287 114.99 300.335C115.525 299.768 115.62 299.797 116.384 299.847C117.836 299.942 118.629 300.555 119.832 301.291C121.112 300.515 121.523 299.914 122.239 298.607L122.965 299.443C122.936 299.703 122.898 299.963 122.869 300.224C122.201 305.949 123.385 311.58 122.908 317.286L122.411 319.871C119.049 318.337 115.955 316.568 112.803 314.666Z" fill="#E89A2C"/>
<path d="M113.881 288.948C110.892 284.283 112.554 276.039 113.156 270.717L119.497 273.72C123.174 277.563 123.232 279.12 123.117 284.476C123.069 286.599 123.232 288.583 122.21 290.508C118.819 288.887 117.606 288.064 113.881 288.948Z" fill="#E89A2C"/>
<path d="M124.463 292.573C125.122 289.513 124.835 288.18 127.634 286.338C130.165 286.531 130.241 286.331 132.075 288.291C132.266 290.39 132.591 291.718 130.862 293.36C129.487 294.676 127.376 295.916 125.638 296.708L124.463 292.573Z" fill="#E89A2C"/>
<path d="M170.584 273.93C171.788 274.352 172.972 275.086 174.118 275.669C175.302 277.545 176.028 278.384 176.019 280.68C175.999 284.258 173.831 286.677 171.406 289.02C170.517 288.62 169.486 288.192 168.731 287.563C166.611 285.793 166.439 284.334 165.99 281.786C166.783 278.344 168.34 276.502 170.584 273.93Z" fill="#E48E33"/>
<path d="M148.036 278.814C148.246 278.903 148.456 278.977 148.647 279.08C151.35 280.489 152.162 281.792 153.06 284.525C152.735 287.871 151.044 290.026 149.191 292.69L145.171 291.391C144.024 289.917 143.346 289.325 143.28 287.373C143.155 283.892 145.839 281.18 148.036 278.814Z" fill="#E48E33"/>
<path d="M138.541 297.855C139.314 298.183 139.572 298.258 140.336 298.794C142.695 300.437 143.135 301.526 143.784 304.14C143.115 307.458 141.444 308.999 139.142 311.273C136.688 309.84 135.494 309.095 134.357 306.44C134.491 302.868 136.516 300.629 138.541 297.855Z" fill="#E48E33"/>
<path d="M159.963 293.203C162.962 294.782 164.07 295.811 165.379 298.834C165.149 301.94 163.774 303.563 161.998 305.976C161.129 305.77 160.097 305.59 159.295 305.17C157.117 304.039 156.678 303.066 155.904 300.831C156.315 297.493 157.948 295.735 159.963 293.203Z" fill="#DF8027"/>
<path d="M8.24907 274.178C18.1771 289.517 28.1519 295.43 45.7168 299.827C46.7483 305.337 49.0404 309.12 53.7012 312.301C64.0829 319.394 82.2676 319.102 94.0628 316.645C99.6787 315.476 104.034 313.336 108.838 310.288C109.506 307.169 109.44 304.475 109.229 301.334C110.271 299.768 110.748 298.796 111.035 296.925C111.283 295.328 111.598 294.106 112.19 292.605C112.859 299.878 111.827 307.534 112.801 314.667C115.953 316.569 119.048 318.338 122.41 319.871C137.337 316.566 167.881 306.245 181.185 306.015C182.952 306.634 184.709 307.34 186.543 307.76C190.717 303.06 187.632 297.817 190.612 293.42C199.637 290.477 204.107 283.894 209.427 276.59C212.168 278.274 215.3 280.276 216.953 283.103C218.118 285.103 218.634 287.402 217.784 289.629C215.186 296.48 202.015 300.57 195.721 303.233C194.976 305.923 193.935 308.654 192.474 311.044C188.205 318.013 169.39 320.597 161.74 322.254C144.548 325.973 118.799 333.154 102.916 322.943C85.1233 324.472 67.4257 324.627 49.9764 320.018C43.7875 318.382 39.7026 314.76 36.6072 309.241C35.8451 307.883 9.6492 300.541 2.71342 292.631C0.999057 290.677 -0.213876 288.221 0.0315789 285.563C0.511983 280.359 4.44213 277.152 8.24907 274.178Z" fill="#E4CBAF"/>
<path d="M109.23 301.335C110.271 299.768 110.748 298.797 111.035 296.925C111.283 295.329 111.598 294.106 112.19 292.605C112.859 299.879 111.827 307.535 112.801 314.667C115.953 316.569 119.048 318.339 122.41 319.872C137.337 316.567 167.881 306.245 181.185 306.016C182.952 306.635 184.709 307.341 186.543 307.76C165.866 314.479 142.772 320.576 121.349 324.095C117.118 322.204 111.101 320.431 109.449 315.594C108.886 313.942 108.895 312.021 108.838 310.289C109.506 307.17 109.44 304.476 109.23 301.335Z" fill="#A85914"/>
<path d="M182.953 172.631C186.85 165.947 181.415 158.346 186.573 152.225L188.034 152.685C189.19 155.096 190.345 157.454 191.711 159.756C195.646 154.037 192.724 145.42 198.874 140.232L200.995 140.225C202.628 143.627 202.255 147.969 202.379 151.695L203.143 151.529C204.452 147.936 205.655 142.952 208.244 140.178L210.039 140.577C212.962 145.986 208.855 154.541 207.89 160.288C211.033 155.335 213.057 149.524 216.992 145.196L218.434 145.009C219.475 148.499 215.349 158.16 217.651 159.487C219.303 157.897 220.889 156.425 222.78 155.118C224.26 157.401 223.592 161.187 223.019 163.756C221.28 171.596 209.523 188.765 209.342 190.563C206.964 189.471 202.8 190.584 199.829 189.891C198.406 189.46 197.021 188.925 195.675 188.291C189.276 185.214 185.169 179.191 182.953 172.631Z" fill="#9F540F"/>
<path d="M200.402 160.266C202.714 160.475 204.71 161.259 206.362 162.919C208.463 165.032 209.371 167.431 209.275 170.404C209.122 174.881 207.25 177.141 204.156 180.011C202.437 179.456 200.66 178.894 199.304 177.652C196.983 175.533 195.713 172.881 195.703 169.74C195.675 165.431 197.671 163.237 200.402 160.266Z" fill="#7B3909"/>
<path d="M6.07712 215.334C7.41901 217.852 8.57943 219.763 8.62909 222.7C8.91275 238.372 17.0701 253.889 28.2397 264.581C31.1823 267.398 37.2795 272.543 41.649 272.182C42.6423 272.099 43.6164 271.753 44.5524 271.398L45.9946 269.367C46.0041 277.954 45.4311 286.973 46.1379 295.507C32.9282 292.883 21.8655 287.265 14.2382 275.849C2.77063 258.683 2.36474 235.008 6.07712 215.334Z" fill="#C26510"/>
<path d="M189.39 255.43C191.09 253.784 192.293 251.965 194.69 251.65C195.263 253.941 194.289 256.522 193.745 258.77C193.363 258.714 192.981 258.649 192.599 258.601C191.004 258.405 191.634 258.387 190.125 258.768C192.675 261.323 197.04 261.37 200.583 261.38C202.035 261.384 203.057 261.237 204.432 260.829L204.404 263.16L205.722 263.979L210.459 260.476L211.691 260.94C212.598 265.116 207.976 272.111 205.941 275.903C202.083 280.968 198.014 285.342 192.417 288.499L189.59 290.809C189.8 292.044 189.848 292.365 190.612 293.419C187.632 297.817 190.717 303.059 186.544 307.76C184.71 307.34 182.952 306.634 181.186 306.015C182.761 305.146 184.509 304.27 185.13 302.464C186.811 297.557 186.429 289.794 184.423 285.038L183.659 284.76L183.201 283.274C188.521 275.564 186.696 266.529 186.448 257.543C187.289 256.598 188.32 256.08 189.39 255.43Z" fill="#8B470F"/>
<path d="M189.896 274.738C189.963 278.216 189.724 281.361 191.854 284.32C192.016 285.658 192.045 287.214 192.417 288.499L189.59 290.809C189.8 292.044 189.848 292.365 190.612 293.419C187.632 297.817 190.717 303.059 186.544 307.76C184.71 307.34 182.952 306.634 181.186 306.015C182.761 305.146 184.509 304.27 185.13 302.464C186.811 297.557 186.429 289.794 184.423 285.038C187.642 281.749 189.351 279.428 189.896 274.738Z" fill="#9F540F"/>
<path d="M198.444 273.531C201.634 273.554 203.276 274.172 205.941 275.902C202.082 280.967 198.014 285.342 192.417 288.498C192.044 287.213 192.016 285.658 191.854 284.32C194.833 280.966 197.078 277.836 198.444 273.531Z" fill="#9F540F"/>
<path d="M189.897 274.738C189.295 271.698 188.646 269.31 189.591 266.256C190.508 268.957 191.033 270.504 193.325 272.27C194.94 272.703 196.372 273.223 198.053 272.863L198.445 273.531C197.079 277.836 194.834 280.967 191.855 284.32C189.725 281.36 189.963 278.215 189.897 274.738Z" fill="#7B3909"/>
<path d="M189.59 266.256C192.589 266.486 194.346 266.526 196.667 268.547C197.25 269.96 197.928 271.32 198.052 272.863C196.371 273.223 194.938 272.703 193.324 272.27C191.032 270.504 190.507 268.957 189.59 266.256Z" fill="#713609"/>
<path d="M134.264 27.5642C135.572 21.6203 134.942 18.1564 140.959 14.3676C147.568 10.2043 154.397 14.3456 157.262 20.5876C159.182 24.7747 159.363 29.5551 157.759 33.875C156.603 36.9454 154.836 38.5532 152.296 40.5001L148.112 36.2413L141.465 31.6511C139.154 30.499 136.537 28.8816 134.264 27.5642Z" fill="#CE6F17"/>
<path d="M141.465 31.6527C142.907 28.2317 143.977 24.4057 146.918 22.431C150.061 21.9486 150.28 22.2515 153.25 23.8058C152.782 28.7552 152.295 29.5539 150.099 34.0305L148.112 36.2429L141.465 31.6527Z" fill="#4D2809"/>
<path d="M153.251 23.8047C152.783 28.7542 152.296 29.5528 150.099 34.0294C147.415 31.8303 146.193 31.2208 145.982 27.7482C147.816 25.1536 150.118 24.8517 153.251 23.8047Z" fill="#9F540F"/>
<path d="M188.75 254.419C190.297 252.278 191.271 250.692 193.793 249.717C195.865 250.822 195.693 251.063 196.381 253.288C196.84 254.789 197.193 256.311 197.537 257.844C199.924 255.764 202.532 252.788 205.693 252.142C206.982 253.622 207.088 253.932 206.935 255.933C206.791 257.724 205.54 259.458 204.432 260.83C203.057 261.238 202.035 261.385 200.583 261.381C197.04 261.371 192.675 261.324 190.125 258.769C191.634 258.388 191.004 258.406 192.599 258.602C192.981 258.65 193.363 258.715 193.745 258.771C194.289 256.522 195.264 253.942 194.691 251.651C192.293 251.966 191.09 253.785 189.39 255.431L188.75 254.419Z" fill="#8F4C0E"/>
<path d="M184.738 139.656C184.92 142.28 184.433 145.1 186.391 146.923L192.503 147.153C190.45 151.048 187.46 148.844 183.783 150.945C181.978 153.925 181.93 156.867 181.625 160.248C179.925 162.182 179.753 161.994 177.327 162.314L176.229 161.184C179.304 154.58 182.742 147.952 184.461 140.837L184.738 139.656Z" fill="#F8F3EF"/>
<path d="M171.798 67.3656C164.33 40.9952 178.226 13.2854 203.822 3.49918C229.418 -6.28703 258.242 5.08686 270.267 29.7148C282.291 54.3427 273.533 84.0787 250.086 98.2517C226.629 112.425 196.239 106.347 180.041 84.244L178.073 82.7842L176.698 83.4912L171.378 68.1881L171.798 67.3656Z" fill="#DC4E29"/>
<path d="M171.797 67.3652C173.516 73.4381 176.305 79.1537 180.04 84.2436L178.072 82.7839L176.697 83.4909L171.377 68.1877L171.797 67.3652Z" fill="#F8EDDB"/>
<path d="M195.531 18.9604C208.396 11.5969 218.635 6.86142 234.126 11.2453C245.062 14.3396 254.278 21.7528 259.636 31.7798C265.262 42.2672 266.379 54.5965 262.721 65.9255C260.763 72.1971 258.452 76.1893 254.698 81.5228C252.597 79.3686 245.071 71.3488 243.18 69.8814L239.847 66.021C235.807 61.6858 231.624 57.3774 227.526 53.0861C225.282 51.1869 225.215 50.8879 223.744 48.2647C221.872 47.3934 212.302 37.0407 209.533 34.5177L208.473 32.9491C203.821 28.2795 199.886 23.8707 195.531 18.9604Z" fill="#F8F3EF"/>
<path d="M208.473 32.9492L208.711 32.0942C209.705 28.4249 209.848 20.4585 213.907 19.657C219.198 18.61 229.742 19.8079 235.75 19.6971C236.151 30.9755 237.24 31.6194 243.715 40.9681C243.572 49.9194 243.715 61.1242 243.18 69.8816L239.847 66.0211C235.807 61.6859 231.624 57.3775 227.526 53.0862C225.282 51.1871 225.215 50.8881 223.744 48.2648C221.872 47.3935 212.303 37.0408 209.533 34.5178L208.473 32.9492Z" fill="#2A3233"/>
<path d="M239.741 41.5977L240.027 44.9049L239.846 66.0211C235.806 61.6859 231.623 57.3775 227.525 53.0862L228.375 45.2594L228.929 42.3218C231.46 43.2666 237.124 42.4441 239.741 41.5977Z" fill="#F8EDDB"/>
<path d="M239.742 41.5977L240.029 44.9049L228.377 45.2594L228.931 42.3218C231.462 43.2666 237.125 42.4441 239.742 41.5977Z" fill="#6F8D9F"/>
<path d="M209.533 34.5176L213.544 31.069C219.944 30.833 225.512 30.7002 231.958 30.8406C229.571 35.6038 227.384 40.901 222.962 44.0249L221.987 44.3258C223 46.0425 223.468 46.3759 223.745 48.2646C221.873 47.3933 212.303 37.0406 209.533 34.5176Z" fill="#F8EDDB"/>
<path d="M209.533 34.517L213.544 31.0684L222.962 44.0242L221.987 44.3252C223 46.0419 223.468 46.3753 223.745 48.264C221.873 47.3927 212.303 37.04 209.533 34.517Z" fill="#6F8D9F"/>
<path d="M228.93 42.321L233.342 31.1973C235.673 34.4893 237.697 38.1138 239.741 41.5968C237.124 42.4432 231.461 43.2658 228.93 42.321Z" fill="#F8F3EF"/>
<path d="M212.941 22.5787C218.118 22.5434 226.083 20.8115 230.868 22.9399C232.692 23.7519 232.664 25.3339 233.18 27.0859C228.853 26.9741 217.468 28.9631 214.107 26.2214C213.085 25.3883 213.161 23.8388 212.941 22.5787Z" fill="#F8EDDB"/>
<path d="M189.647 25.6348C193.009 29.0873 201.061 36.7508 202.971 40.5577C205.769 41.9553 204.91 40.9647 205.97 44.1344C209.752 47.4493 221.442 58.2797 223.658 62.2318L226.752 64.8513L227.526 65.6212L235.09 73.6411C236.828 75.482 238.643 77.2894 240.247 79.2516L242.712 81.6485L248.614 87.8476C243.294 91.2179 238.242 93.9109 232.091 95.3821C221.27 97.9624 209.857 96.0107 200.507 89.9769C190.679 83.6136 183.84 73.5341 181.567 62.0407C178.702 47.968 182.064 37.2676 189.647 25.6348Z" fill="#F8F3EF"/>
<path d="M202.971 40.5566C205.769 41.9543 204.91 40.9636 205.97 44.1333C209.752 47.4483 221.442 58.2786 223.658 62.2307L226.752 64.8502L227.526 65.6202L235.09 73.64C236.829 75.4809 238.643 77.2883 240.248 79.2505L242.712 81.6474L240.821 84.3299C232.196 88.0012 212.398 85.7371 202.809 84.993C202.446 71.374 202.369 54.0399 202.971 40.5566Z" fill="#2A3233"/>
<path d="M205.971 44.1348C209.753 47.4497 221.443 58.28 223.659 62.2322C223.382 66.3448 223.086 70.4278 223.162 74.5518C217.26 74.3541 211.568 73.9538 205.713 73.138L205.971 44.1348Z" fill="#F8F4ED"/>
<path d="M205.713 73.1367C211.567 73.9526 217.26 74.3528 223.162 74.5506C223.544 77.02 223.888 78.8189 223.057 81.2139C221.93 82.0756 220.812 82.815 219.456 83.2544C214.662 84.7992 211.443 83.0882 207.288 80.9425C205.321 78.1941 205.741 76.4278 205.713 73.1367Z" fill="#B8C4C9"/>
<path d="M226.752 64.8516L227.526 65.6215L235.09 73.6414C236.828 75.4823 238.643 77.2897 240.247 79.2519C236.532 82.8878 231.47 82.6662 226.59 83.0235C226.504 76.9658 226.561 70.9073 226.752 64.8516Z" fill="#B8C4C9"/>
<path d="M227.527 65.6211L235.091 73.641C233.038 73.8053 231.08 73.8024 229.017 73.7135C226.973 71.3721 227.603 68.6657 227.527 65.6211Z" fill="#F8EDDB"/>
<path d="M79.8649 88.4455C81.2784 87.557 83.1332 87.8751 84.1704 89.182C85.2086 90.4898 85.0968 92.3689 83.9116 93.5449C83.0195 94.4295 81.7006 94.7257 80.5163 94.3072C79.331 93.8888 78.4906 92.8294 78.3521 91.5808C78.2136 90.3322 78.801 89.1142 79.8649 88.4455Z" fill="#F8F3EF"/>
<path d="M153.865 85.4455C155.278 84.557 157.133 84.8751 158.17 86.182C159.209 87.4898 159.097 89.3689 157.912 90.5449C157.02 91.4295 155.701 91.7257 154.516 91.3072C153.331 90.8888 152.491 89.8294 152.352 88.5808C152.214 87.3322 152.801 86.1142 153.865 85.4455Z" fill="#F8F3EF"/>
</svg>
