<svg width="158" height="239" viewBox="0 0 158 239" fill="none" xmlns="http://www.w3.org/2000/svg">
<path d="M76.306 0C77.2925 0.267567 77.942 0.474126 78.7262 1.13094C80.7068 2.6518 81.6477 5.39958 82.091 7.78912C87.9821 1.19029 95.2546 3.78954 90.2189 12.3213C97.8706 13.9687 102.488 15.4189 109.216 19.3316C111.358 15.6638 114.007 13.2469 118.248 12.1027C121.511 11.2318 124.986 11.7101 127.893 13.4299C131.312 15.4315 133.644 18.3046 134.601 22.1587C136.269 28.8913 133.659 33.4822 128.564 37.5419C132.053 43.155 134.768 47.9208 136.92 54.2707C137.94 57.2754 138.52 60.3599 139.719 63.4177C140.805 66.184 142.259 68.4061 143.498 71.0248C146.469 77.3544 147.233 84.496 145.671 91.311C144.56 96.0604 142.853 99.6223 139.988 103.557C139.175 104.673 138.03 106.007 137.3 107.08L137.453 107.237C139.016 108.819 140.949 110.059 142.553 111.674C150.39 119.563 157.874 129.014 157.686 140.746C157.56 148.619 155.47 154.372 148.641 158.669C152.189 173.483 152.965 186.906 144.923 200.576C143.269 203.391 138.739 208.465 136.086 210.4C136.062 215.769 135.359 213.982 137.448 219.279C140.654 219.64 148.639 221.666 151.378 223.089C163.242 229.256 142.03 233.476 138.998 234.113C126.475 236.74 113.34 237.795 100.725 238.423C83.742 239.293 66.7225 239.179 49.7525 238.08C39.3738 237.418 29.0513 236.51 18.6898 234.567C15.5375 233.975 -9.33171 229.735 3.79924 222.948C6.80945 221.391 16.018 219.354 19.4677 219C19.9157 215.093 19.5 213.125 18.973 209.314C14.7878 205.412 11.947 202.02 9.27535 196.897C2.67083 184.233 4.11193 167.392 8.44951 154.136C5.38293 150.562 3.2662 143.672 3.10024 139.029C2.65259 126.504 8.41917 115.378 16.5364 106.297C13.1659 101.623 10.8131 96.2938 9.62982 90.6538C7.44594 79.7411 10.6201 69.746 13.9749 59.4906C15.8401 53.7881 18.2819 47.0394 21.6249 42.0223C18.9488 40.5956 16.6754 38.9749 15.1545 36.2635C13.1321 32.7223 12.6095 28.5196 13.703 24.591C17.4067 11.4943 33.5513 10.6113 39.9015 22.3715C47.47 17.0993 54.8204 14.281 63.8542 12.5841C57.064 4.65971 66.4741 1.57854 71.9773 7.41313C71.9711 3.90326 72.6638 1.1205 76.306 0Z" fill="#EC8221"/>
<path d="M75.593 2.29273C76.4533 2.11899 76.675 2.16922 77.403 2.64683C77.6827 2.83167 77.9573 3.02398 78.2267 3.22357C78.6427 4.00854 79.2213 4.7998 79.5559 5.56603C80.5572 7.56284 80.4273 11.741 81.1499 12.3918C81.9328 12.1408 82.2546 10.7466 82.9171 10.0187C83.3042 10.2911 83.6842 10.4243 84.1372 10.2024C86.0959 9.24284 87.6713 7.61837 89.7237 6.7719C89.861 6.71521 89.9968 6.42261 90.0576 6.30474C90.8672 10.7952 86.1745 13.262 86.3554 14.7043C87.2449 15.0481 88.9236 14.3316 89.8484 14.4135C97.9366 15.13 105.745 19.4936 112.248 23.7624C112.709 23.3085 113.085 22.8954 113.513 22.4173C114.718 23.3702 115.61 24.1835 117.018 24.7936C116.564 25.4205 116.476 25.7541 116.221 26.4664C118.179 28.1463 120.664 30.8317 122.417 32.7763C122.803 32.5059 123.65 32.1361 124.106 31.9191L124.249 31.9109C124.796 32.8159 125.363 33.4199 126.057 34.2171C126.639 34.8051 127.044 35.2333 127.571 35.8701L126.208 37.3498C132.117 45.8624 135.438 55.4524 138.282 65.2277C138.784 66.9506 140.739 69.8876 141.545 71.6619C148.158 86.2078 142.699 100.677 130.881 110.289C128.702 110.623 128.848 111.963 127.178 113.057C120.218 104.788 111.882 99.2465 101.615 95.9473C97.8151 94.8333 94.8266 94.1748 90.8288 93.931C91.2831 94.739 91.3253 94.8487 91.5299 95.7527C91.1686 96.104 91.0524 96.3948 90.5086 96.2742C89.3011 94.973 81.3722 95.847 79.5138 96.4946C79.5138 96.4946 78.9415 96.2401 78.8909 96.2175C78.3887 95.4858 78.554 95.1904 78.8314 94.4096C75.9523 94.711 73.0751 95.5722 70.3699 96.5474C69.8117 96.7487 69.0401 97.0519 68.4818 97.1869C66.2286 98.1144 63.4237 99.2677 61.3022 100.452C51.6297 105.96 44.0336 114.491 39.6806 124.735C39.1354 126.044 38.622 127.347 38.0657 128.654C38.6609 128.476 38.6899 128.452 39.2497 128.652C39.5101 128.904 39.7275 129.058 39.8366 129.398C40.4484 129.662 41.1789 129.954 41.7648 130.247C43.513 131.631 44.6089 133.11 44.9785 135.391C45.2441 137.032 44.6009 137.929 43.8431 139.375L44.0079 139.663C46.743 142.264 47.486 145.159 46.1292 148.663C46.7989 150.623 45.4656 151.419 45.2989 152.889C44.679 158.365 45.125 159.459 40.737 163.36L40.6049 163.345C40.586 163.66 40.5774 163.913 40.5183 164.227C39.8202 164.208 39.9458 163.723 38.8567 163.822L37.9976 161.456L35.0613 162.458L35.0968 160.483L34.8149 160.261L33.7774 160.659C30.2106 162.222 24.861 161.564 21.2564 160.43C8.53015 156.423 3.61958 144.479 5.42328 132.066C5.66551 130.398 5.96196 129.282 6.47676 127.697C7.48696 123.49 10.9573 116.957 13.4896 113.447C15.1856 110.753 15.71 110.037 17.9589 107.798C19.0138 108.75 21.5417 110.025 22.9125 110.832C21.6802 108.736 18.4173 105.703 16.8694 103.216C11.2471 94.1823 9.89433 84.9267 11.9328 74.6578C12.0427 72.9503 13.0564 69.742 13.4938 67.9605C15.7136 58.921 19.4232 49.3147 24.3216 41.3515C24.0318 40.6795 23.4761 40.5575 22.7913 40.2587C17.2672 37.5895 13.9285 32.2972 15.1899 26.1002C15.8299 22.908 17.6991 20.0951 20.3942 18.268C21.6243 18.733 25.7299 17.7678 27.9816 18.1483C29.8913 18.4711 32.3252 19.7245 33.7359 19.636C34.2086 19.324 34.0687 19.4006 34.358 18.8209C36.2537 20.4269 37.0179 21.5181 38.297 23.5711C37.4257 24.1392 35.3553 25.1858 36.1415 26.3142C36.3059 26.3837 36.4704 26.4532 36.6349 26.5226C37.9032 25.8222 40.5059 24.271 41.5615 23.6019C49.6818 18.4565 58.6645 14.6623 68.3664 14.1433C66.8174 12.8331 61.0622 8.08636 64.4538 6.13713C66.2524 5.98694 67.7021 6.62867 69.1841 7.59964C70.1847 8.34912 70.7163 8.76921 71.6059 9.6354C72.6329 8.72495 72.7249 9.26107 73.937 9.37065L74.1821 9.11204C73.889 6.91281 73.8049 3.9094 75.593 2.29273Z" fill="#FF9825"/>
<path d="M68.478 97.1868C68.2033 96.8017 67.6291 96.3068 67.2892 95.9438C62.1469 90.4875 62.0655 82.0116 65.1947 75.5076C69.5229 66.6941 78.3597 61.8956 88.2196 63.4526C100.611 65.4093 109.689 79.9485 104.151 91.6523C103.464 93.1035 102.244 94.5143 101.612 95.9473C97.8113 94.8333 94.8228 94.1748 90.825 93.9309C91.2792 94.7389 91.3215 94.8487 91.5261 95.7527C91.1648 96.1039 91.0486 96.3947 90.5048 96.2742C89.2973 94.973 81.3684 95.847 79.51 96.4945C79.51 96.4945 78.9376 96.24 78.8871 96.2175C78.3849 95.4857 78.5502 95.1903 78.8276 94.4095C75.9485 94.7109 73.0712 95.5721 70.3661 96.5474C69.8079 96.7487 69.0362 97.0519 68.478 97.1868Z" fill="#EC8221"/>
<path d="M84.718 79.9416C81.6715 79.187 74.2324 76.3729 76.3676 72.183C77.662 69.6429 85.0998 69.0357 87.5967 69.4047C88.2183 69.4966 90.7696 69.9357 90.9987 69.8843C91.2847 69.4281 91.3549 69.2495 91.7695 68.9258C92.8023 69.1065 93.1864 70.2225 93.9555 71.1649C94.757 72.331 94.6594 73.0514 94.2838 74.3879C92.6451 77.2998 89.7967 78.711 86.7571 79.9298C86.9808 83.6398 86.8909 85.9348 86.6086 89.6397C87.8285 90.582 90.0278 92.6549 90.8291 93.9322C91.2834 94.7402 91.3257 94.8499 91.5303 95.7539C91.169 96.1052 91.0528 96.396 90.509 96.2755C89.3015 94.9743 81.3726 95.8483 79.5141 96.4958C79.5141 96.4958 78.9418 96.2413 78.8912 96.2188C78.389 95.487 78.5543 95.1916 78.8317 94.4108C79.789 94.2566 82.7417 90.9432 84.6505 89.7237C84.8825 86.0449 84.8599 83.6045 84.718 79.9416Z" fill="#622D02"/>
<path d="M93.9531 71.166C94.7546 72.3321 94.657 73.0524 94.2814 74.3889C92.8259 74.0527 93.0757 72.0955 93.9531 71.166Z" fill="#832B03"/>
<path d="M85.4219 70.634C86.8678 70.4031 91.7041 69.7998 92.1152 71.9692C91.0488 72.9887 86.3979 72.0745 84.7515 71.9722C84.1218 71.9024 83.7715 71.9186 83.3789 71.5007L83.5467 71.2189C84.2178 70.7943 84.6532 70.7681 85.4219 70.634Z" fill="#BC600F"/>
<path d="M84.7515 71.9729C84.1218 71.9031 83.7715 71.9194 83.3789 71.5015L83.5467 71.2196C84.2178 70.7951 84.6532 70.7689 85.4219 70.6348C85.7064 70.9746 85.7021 70.9453 85.8198 71.3687C85.5167 71.9522 85.3973 71.8783 84.7515 71.9729Z" fill="#BC600F"/>
<path d="M85.4459 91.2363C86.0313 91.3753 87.7647 93.2643 88.2834 93.7969L85.3108 93.824C84.1824 93.8067 83.4761 93.8538 82.3477 93.9609C83.3741 93.141 84.4591 92.1223 85.4459 91.2363Z" fill="#E83C29"/>
<path d="M33.7774 160.659C30.2106 162.222 24.861 161.564 21.2564 160.43C8.53015 156.423 3.61958 144.479 5.42328 132.066C5.66551 130.398 5.96196 129.282 6.47676 127.697C6.25442 136.24 6.80851 143.576 13.1468 150.026C17.7146 154.674 22.6736 156.253 29.0608 155.517C28.4818 154.426 27.7823 153.257 27.468 152.078C27.058 150.54 27.4575 148.768 27.3062 147.219C27.1031 145.142 26.1564 143.181 26.9568 141.1C27.565 139.375 28.0831 137.535 28.6155 135.781C28.7325 135.384 29.3446 134.423 29.5953 133.765L30.5337 133.311L29.7588 132.155C31.3602 131.646 32.3548 131.353 34.0042 131.018C36.2177 130.784 38.2368 130.763 40.3147 131.694C40.957 131.318 41.2981 130.821 41.7648 130.247C43.513 131.631 44.6089 133.11 44.9785 135.391C45.2441 137.032 44.6009 137.929 43.8431 139.375L44.0079 139.663C46.743 142.264 47.486 145.159 46.1292 148.663C46.7989 150.623 45.4656 151.419 45.2989 152.889C44.679 158.365 45.125 159.459 40.737 163.36L40.6049 163.345C40.586 163.66 40.5774 163.913 40.5183 164.227C39.8202 164.208 39.9458 163.723 38.8567 163.822L37.9976 161.456L35.0613 162.458L35.0968 160.483L34.8149 160.261L33.7774 160.659Z" fill="#EC8221"/>
<path d="M43.6877 142.162C43.2752 141.084 42.9491 140.385 44.0015 139.662C46.7367 142.263 47.4796 145.158 46.1229 148.662C46.7926 150.622 45.4592 151.417 45.2926 152.888C44.6727 158.364 45.1187 159.458 40.7307 163.359L40.5986 163.344C40.5797 163.659 40.571 163.912 40.512 164.226C39.8138 164.207 39.9395 163.722 38.8504 163.821L37.9912 161.455L35.055 162.457L35.0905 160.482L34.8086 160.26C34.976 160.187 36.5002 159.847 37.0334 159.65C38.8822 158.982 41.5472 157.81 42.356 155.826C43.3206 153.46 42.4134 152.046 40.328 151.136C39.5587 151.038 38.3986 150.695 38.0428 149.977C38.2852 149.41 38.227 149.582 38.9043 149.206C39.6809 149.07 40.0423 149.199 40.9104 148.894C43.876 147.857 43.8956 145.264 44.0203 142.689L43.6877 142.162Z" fill="#832B03"/>
<path d="M46.1302 148.664C46.7998 150.624 45.4665 151.419 45.2999 152.89C44.6799 158.365 45.1259 159.46 40.738 163.36L40.6058 163.345C40.5418 162.823 39.9159 161.162 39.707 160.57C39.88 160.501 40.0514 160.426 40.221 160.347C43.6729 158.74 45.3765 154.982 43.6815 151.439C44.8753 150.451 45.4302 150.027 46.1302 148.664Z" fill="#CF2E19"/>
<path d="M44.0262 142.689C45.539 145.463 44.8288 147.953 42.5952 150.014C41.1438 149.587 40.4358 149.344 38.9102 149.206C39.6867 149.07 40.0482 149.2 40.9163 148.895C43.8819 147.857 43.9015 145.264 44.0262 142.689Z" fill="#D36B10"/>
<path d="M40.3322 151.137C42.4176 152.047 43.3248 153.461 42.3602 155.827C41.5515 157.811 38.8864 158.983 37.0376 159.651C36.5044 159.848 34.9803 160.188 34.8128 160.261L33.7753 160.659C33.2346 160.221 32.2952 159.595 31.7031 159.172C32.0589 159.127 32.4132 159.068 32.7649 158.998C36.8087 158.206 41.3659 156.021 40.3322 151.137Z" fill="#D36B10"/>
<path d="M41.7665 130.248C43.5146 131.632 44.6106 133.111 44.9801 135.392C45.2457 137.033 44.6026 137.93 43.8447 139.376L44.0095 139.664C42.9571 140.387 43.2832 141.087 43.6957 142.164C42.8188 140.994 42.517 140.753 41.2323 140.143C41.6706 139.505 42.1035 139.122 42.1337 138.456C42.616 138.119 42.8466 137.658 43.1721 137.156C43.1427 135.828 43.1297 135.221 42.6029 134.006L42.4971 133.797C41.8848 132.567 41.472 132.393 40.3164 131.695C40.9587 131.319 41.2998 130.822 41.7665 130.248Z" fill="#9A4B07"/>
<path d="M39.3111 137.854C40.3126 137.852 41.2063 138.072 42.1316 138.455C42.1014 139.122 41.6685 139.505 41.2302 140.143C40.1551 139.768 38.2571 139.657 37.5586 138.797L37.632 138.472C38.1656 138.034 38.6298 138.004 39.3111 137.854Z" fill="#622D02"/>
<path d="M29.7578 132.157C31.3592 131.648 32.3539 131.354 34.0032 131.02L34.8241 131.117L34.8746 131.313C34.2027 132.051 31.5836 132.914 30.5327 133.312L29.7578 132.157Z" fill="#FECC8F"/>
<path d="M42.5983 134.006C43.1251 135.221 43.1382 135.828 43.1675 137.156C42.8421 137.658 42.6114 138.119 42.1291 138.455C41.2038 138.072 40.3102 137.852 39.3086 137.854C40.8479 137.532 41.3315 137.167 42.3105 136.055L42.5983 134.006Z" fill="#BC600F"/>
<path d="M22.9113 110.832C21.679 108.737 18.4161 105.703 16.8682 103.216C11.2459 94.1826 9.89313 84.927 11.9316 74.6582C12.7394 85.3092 13.5548 93.1613 19.6218 102.359C21.0544 104.531 22.7581 106.724 24.5216 108.643C25.7158 109.943 27.8002 111.483 28.639 112.998C28.8165 113.318 28.7621 113.352 28.6239 113.665C25.9235 115.497 20.9778 112.461 18.0208 112.46C16.6508 112.46 14.7483 113.56 13.4884 113.447C15.1844 110.753 15.7088 110.037 17.9577 107.798C19.0126 108.75 21.5405 110.025 22.9113 110.832Z" fill="#EC8221"/>
<path d="M38.0682 128.654C38.6635 128.477 38.6925 128.452 39.2522 128.653C39.5127 128.905 39.73 129.059 39.8391 129.399C40.4509 129.662 41.1814 129.954 41.7673 130.248C41.3006 130.821 40.9596 131.319 40.3173 131.695C38.2393 130.763 36.2203 130.785 34.0067 131.018C32.3574 131.353 31.3627 131.647 29.7613 132.156L30.5363 133.311L29.5978 133.765C28.4822 134.15 25.6733 135.345 24.639 134.695C24.2189 134.506 24.3907 134.646 24.133 134.23C24.0935 132.136 30.006 129.899 31.6438 129.407C32.4646 129.265 33.2865 129.129 34.109 128.996C35.1738 128.847 37.6392 129.009 38.0682 128.654Z" fill="#622D02"/>
<path d="M24.6367 134.694C26.3033 133.626 27.9488 132.91 29.759 132.154L30.5339 133.31L29.5955 133.764C28.4799 134.149 25.671 135.344 24.6367 134.694Z" fill="#FECC8F"/>
<path d="M113.511 22.418C114.716 23.3709 115.608 24.1842 117.016 24.7942C116.562 25.4212 116.474 25.7548 116.219 26.4671C114.928 25.4656 113.671 24.5653 112.246 23.7631C112.707 23.3092 113.083 22.8961 113.511 22.418Z" fill="#BC600F"/>
<path d="M75.5898 2.29273C76.4502 2.11899 76.6718 2.16922 77.3998 2.64683C77.6795 2.83167 77.9541 3.02398 78.2235 3.22357C78.6395 4.00854 79.2181 4.7998 79.5527 5.56603L79.1464 5.86426C78.2996 5.78088 77.0145 4.80643 76.3817 4.24328C75.5703 3.52131 75.6409 3.37327 75.5898 2.29273Z" fill="#FECC8F"/>
<path d="M74.1816 9.11133C74.4373 10.0636 74.7276 11.1078 74.588 12.0861L74.4144 12.3487C73.2222 12.3022 72.3804 10.4203 71.6055 9.63469C72.6324 8.72424 72.7244 9.26036 73.9366 9.36994L74.1816 9.11133Z" fill="#832B03"/>
<path d="M124.107 31.9202L124.25 31.9121C124.797 32.8171 125.364 33.421 126.059 34.2183C125.406 34.3923 124.912 34.4266 124.534 34.9731C123.933 34.2464 123.123 33.604 122.418 32.7775C122.804 32.5071 123.651 32.1372 124.107 31.9202Z" fill="#BC600F"/>
<path d="M126.057 34.2168C126.639 34.8048 127.043 35.233 127.57 35.8698L126.207 37.3495L124.531 34.9716C124.909 34.4252 125.403 34.3909 126.057 34.2168Z" fill="#9A4B07"/>
<path d="M64.4531 6.13896C66.2517 5.98877 67.7014 6.6305 69.1835 7.60147C68.9132 7.85925 68.8658 7.87268 68.5554 8.08538C67.4705 8.25397 64.9528 7.11275 64.4531 6.13896Z" fill="#FECC8F"/>
<path d="M31.971 127.783C32.3848 127.931 33.1665 128.161 33.4706 128.425C33.7398 128.977 33.5333 128.796 34.1008 128.997C33.2783 129.129 32.4564 129.265 31.6355 129.408C31.2128 128.488 31.3887 128.496 31.971 127.783Z" fill="#D36B10"/>
<path d="M22.7891 40.2586C23.1931 39.7433 23.3738 39.4056 23.9719 39.1543L24.3608 39.2143C24.9147 40.1591 24.4162 40.3985 24.3194 41.3514C24.0296 40.6793 23.4738 40.5573 22.7891 40.2586Z" fill="#BC600F"/>
<path d="M31.9766 127.783C32.3256 127.196 32.5116 126.709 33.102 126.422C33.8507 126.715 33.5284 127.722 33.4762 128.424C33.1721 128.161 32.3904 127.93 31.9766 127.783Z" fill="#EC8221"/>
<path d="M38.4788 76.4298C42.4155 76.0782 47.3214 78.3752 48.0717 82.3715C49.094 87.8173 45.0497 90.3997 40.6103 91.3098C38.1567 91.5308 35.6875 91.2861 33.574 89.9022C32.053 88.9256 30.9997 87.3671 30.661 85.5916C29.7111 80.5536 33.9817 77.2718 38.4788 76.4298Z" fill="#FECC8F"/>
<path d="M124.34 72.0997C133.763 70.8731 138.087 84.4446 126.868 86.6306C115.975 88.0803 113.161 74.3034 124.34 72.0997Z" fill="#FECC8F"/>
<path d="M54.4642 60.8185C63.5532 60.2089 64.2713 72.6977 56.8313 75.2641C47.7684 76.6664 47.0006 62.8229 54.4642 60.8185Z" fill="#622D02"/>
<path d="M53.5952 63.2528C56.1233 63.2004 56.4813 65.5812 54.6771 67.164C51.6562 67.489 51.8184 64.3862 53.5952 63.2528Z" fill="#F1F0F0"/>
<path d="M108.328 57.8451C114.163 56.9305 117.101 64.5293 114.825 69.0385C113.839 70.9921 112.892 71.4523 110.904 72.1436C103.15 73.521 100.984 60.5637 108.328 57.8451Z" fill="#622D02"/>
<path d="M108.126 60.4355C110.276 60.8082 110.33 63.5681 108.352 64.2606C105.964 63.5794 106.075 61.5892 108.126 60.4355Z" fill="#F1F0F0"/>
<path d="M21.1299 28.3585C21.6824 24.8923 24.2937 23.4923 27.569 24.1075C30.8461 24.7228 32.3234 27.3884 33.6722 30.1443C31.7322 31.3145 27.15 36.5913 26.8189 36.7093C26.2247 36.5367 26.1556 36.3653 25.7298 35.869C22.3786 34.1363 21.0868 32.0736 21.1299 28.3585Z" fill="#9A4B07"/>
<path d="M21.1289 28.3585C21.6813 24.8923 24.2926 23.4923 27.568 24.1075C30.8451 24.7228 32.3224 27.3884 33.6711 30.1443C31.7311 31.3145 27.149 36.5913 26.8179 36.7093C26.2237 36.5367 26.1545 36.3653 25.7288 35.869C27.3664 33.2507 29.0578 31.437 31.4126 29.4863C30.039 27.8839 29.4968 26.9255 27.6174 25.7999C24.3634 23.851 23.5165 27.8816 21.1289 28.3585Z" fill="#622D02"/>
<path d="M61.0478 50.1055C61.6461 50.2863 62.2264 50.6436 62.1449 51.3399C61.5027 56.823 53.7156 58.1694 49.6517 58.1739C48.9468 57.8904 48.7902 57.7402 48.5039 57.0838C48.6286 55.9518 49.1202 55.8464 50.2232 55.6954C53.4221 55.3015 56.3957 54.7441 58.775 52.3854C59.5389 51.6281 60.1966 50.7591 61.0478 50.1055Z" fill="#9A4B07"/>
<path d="M108.053 53.9975C106.359 53.5227 101.359 51.5793 101.395 49.0323C101.397 48.5024 102.544 47.6505 102.966 47.9239C105.33 49.4532 105.575 50.5997 108.418 51.3759C109.298 51.5813 109.963 51.7421 110.862 51.8498C110.535 52.9557 109.967 52.261 110.087 54.2283C109.313 54.252 108.805 54.1333 108.053 53.9975Z" fill="#9A4B07"/>
<path d="M110.862 51.8501C111.88 51.8071 114.283 51.5479 114.711 52.7423C114.211 54.2325 111.322 54.1925 110.087 54.2285C109.966 52.2612 110.535 52.956 110.862 51.8501Z" fill="#BC600F"/>
<path d="M90.8295 93.9316C94.8273 94.1755 97.8158 94.834 101.616 95.948C111.882 99.2472 120.219 104.789 127.179 113.058C127.474 113.474 127.953 114.107 128.2 114.525C131.725 119.891 133.219 121.703 135.499 127.972C137.669 127.897 139.77 127.809 141.867 128.52C142.761 128.822 145.495 129.858 144.399 131.169C143.808 131.113 142.91 130.697 142.278 130.503C139.149 129.54 137.54 129.387 134.438 130.168C133.912 130.528 133.541 130.72 132.983 131.014C132.15 131.556 131.612 131.995 131.103 132.89C130.331 134.336 130.185 134.659 130.291 136.305C129.379 135.952 129.256 135.553 128.587 134.679L128.321 134.732C128.222 136.604 128.542 137.572 129.822 139.007C129.964 139.168 130.112 139.326 130.263 139.48C127.995 142.26 128.109 142.85 128.175 146.308C128.084 149.597 128.669 150.181 129.512 153.205C130.359 156.247 129.891 158.201 132.823 160.313C133.186 160.574 133.97 161.134 134.098 161.552C120.623 202.202 65.7489 208.348 43.8913 170.54C43.2403 169.413 42.7311 168.045 42.1773 166.858C41.669 165.767 41.0856 164.507 40.7377 163.36C45.1257 159.46 44.6797 158.365 45.2996 152.89C45.4663 151.419 46.7996 150.624 46.1299 148.664C47.4867 145.159 46.7437 142.265 44.0086 139.664L43.8438 139.375C44.6016 137.93 45.2448 137.033 44.9791 135.392C44.6096 133.111 43.5137 131.632 41.7655 130.248C41.1796 129.954 40.4491 129.662 39.8373 129.399C39.7282 129.059 39.5108 128.905 39.2504 128.653C38.6906 128.452 38.6616 128.477 38.0664 128.655C38.6227 127.348 39.1361 126.045 39.6813 124.735C44.0343 114.492 51.6304 105.961 61.3028 100.453C63.4244 99.2684 66.2293 98.1151 68.4825 97.1875C69.0407 97.0526 69.8124 96.7494 70.3706 96.5481C73.0757 95.5729 75.953 94.7116 78.8321 94.4102C78.5547 95.1911 78.3894 95.4865 78.8916 96.2182C78.9422 96.2408 79.5145 96.4952 79.5145 96.4952C81.3729 95.8477 89.3018 94.9737 90.5093 96.2749C91.0531 96.3954 91.1693 96.1047 91.5306 95.7534C91.326 94.8494 91.2837 94.7396 90.8295 93.9316Z" fill="#E83C29"/>
<path d="M90.8242 93.9316C94.8221 94.1755 97.8106 94.834 101.611 95.948C111.877 99.2472 120.214 104.789 127.174 113.058C127.469 113.474 127.948 114.107 128.195 114.525C131.72 119.891 133.214 121.703 135.493 127.972C137.664 127.897 139.764 127.809 141.862 128.52C142.755 128.822 145.489 129.858 144.393 131.169C143.803 131.113 142.905 130.697 142.273 130.503C139.144 129.54 137.534 129.387 134.432 130.168C133.907 130.528 133.535 130.72 132.978 131.014C132.144 131.556 131.607 131.995 131.098 132.89C130.326 134.336 130.18 134.659 130.286 136.305C129.374 135.952 129.251 135.553 128.581 134.679L128.316 134.732C128.43 134.027 128.628 133.339 128.908 132.683C129.695 130.848 131.073 129.548 132.917 128.817L133.401 128.703L133.578 128.335C132.691 124.893 129.004 118.773 126.879 115.783C124.662 112.663 122.377 110.58 119.607 108.089C110.995 100.347 102.715 97.5048 91.5254 95.7534C91.3208 94.8494 91.2785 94.7396 90.8242 93.9316Z" fill="#832B03"/>
<path d="M128.32 134.731C128.435 134.027 128.632 133.339 128.912 132.682C129.7 130.847 131.078 129.547 132.921 128.816L132.931 129.06C131.747 129.788 129.406 130.948 129.834 132.648L130.104 132.913C131.147 132.783 132.933 129.647 134.437 130.168C133.911 130.527 133.54 130.72 132.983 131.013C132.149 131.555 131.611 131.994 131.102 132.89C130.33 134.335 130.184 134.658 130.29 136.305C129.378 135.952 129.255 135.552 128.586 134.678L128.32 134.731Z" fill="#9A4B07"/>
<path d="M68.4825 97.1855C69.0407 97.0506 69.8124 96.7473 70.3706 96.5461C73.0757 95.5708 75.953 94.7096 78.8321 94.4082C78.5547 95.189 78.3894 95.4844 78.8916 96.2162C60.0078 99.7229 46.1687 111.207 39.8373 129.397C39.7282 129.057 39.5108 128.903 39.2504 128.651C38.6906 128.45 38.6616 128.475 38.0664 128.652C38.6227 127.346 39.1361 126.043 39.6813 124.733C44.0343 114.49 51.6304 105.959 61.3028 100.451C63.4244 99.2664 66.2293 98.113 68.4825 97.1855Z" fill="#832B03"/>
<path d="M91.5259 95.7539C102.715 97.5054 110.996 100.348 119.607 108.09C122.378 110.581 124.662 112.664 126.879 115.784C129.005 118.773 132.692 124.894 133.579 128.335L133.402 128.703C133.113 128.539 132.685 128.262 132.539 127.955C130.457 123.554 128.411 118.885 125.087 115.251C124.231 114.316 123.426 113.343 122.545 112.418C115.429 104.843 106.116 99.6898 95.9173 97.6829C94.5525 97.4039 90.5764 97.1362 89.8906 96.6718L89.9969 96.4316L90.5046 96.2754C91.0484 96.396 91.1646 96.1052 91.5259 95.7539Z" fill="#F95F4E"/>
<path d="M85.2828 106.28C92.2882 105.806 101.916 108.337 107.726 112.132C116.886 118.067 123.326 127.387 125.639 138.053C127.408 146.837 126.086 155.962 121.9 163.883C121.142 165.34 119.944 167.091 119.03 168.485C117.248 166.539 113.275 163.274 111.058 161.176L78.2594 130.019C76.9148 128.759 74.7676 127.168 73.603 125.855C70.1162 121.921 65.7559 118.71 62.1562 115.021C68.2906 109.631 77.2288 106.823 85.2828 106.28Z" fill="#F1F0F0"/>
<path d="M54.6468 123.193C55.7364 123.6 64.8289 132.575 66.2945 133.961L95.2078 161.132L105.19 170.618C107.197 172.536 109.37 174.77 111.486 176.516C107.822 179.613 106.276 180.548 101.969 182.468C90.0648 187.434 76.3083 186.022 65.5493 178.963C56.7211 173.06 50.5766 163.915 48.4486 153.511C46.3215 143.103 48.8263 132.003 54.6468 123.193Z" fill="#F1F0F0"/>
<path d="M148.628 183.828C147.297 184.877 146.851 188.266 145.443 190.563C143.014 194.618 139.66 198.469 136.112 201.579C134.588 202.914 126.837 207.115 125.206 205.084C124.843 203.546 127.675 201.099 126.819 200.104C125.345 200.145 123.258 202.095 121.9 202.783C119.983 203.754 118.068 204.759 116.167 205.76C100.379 214.069 81.9394 214.747 64.6498 211.957C61.0031 211.369 57.327 209.47 53.6752 208.923C52.4292 208.738 49.9708 209.295 48.5882 209.159C38.8617 209.376 29.3147 204.792 22.3775 198.239C15.4734 191.716 11.2864 183.485 11.0573 173.913C11.0057 171.761 11.2358 166.244 12.696 164.757C13.5215 164.619 15.4252 165.874 16.245 166.262C24.01 169.931 30.3658 169.959 38.2702 167.455C41.9152 175.363 43.9814 179.405 50.1273 185.807C72.2269 208.826 111.115 205.775 129.979 180.308C133.577 175.451 135.452 171.968 137.676 166.264C142.53 167.17 144.496 165.04 148.137 165.905C149.188 170.791 149.742 178.926 148.628 183.828Z" fill="#FF9825"/>
<path d="M78.2254 3.22352C78.5207 2.23912 76.7215 2.54813 76.0948 1.10636C76.1311 0.578848 76.0437 0.804636 76.3337 0.393505C76.9072 0.364659 77.9136 1.01684 78.5448 1.30513L78.7283 1.13039C80.7089 2.65125 81.6498 5.39903 82.0931 7.78857C87.9842 1.18974 95.2568 3.78899 90.221 12.3208C97.8727 13.9681 102.49 15.4184 109.218 19.3311C111.36 15.6632 114.01 13.2463 118.25 12.1021C121.513 11.2313 124.988 11.7096 127.895 13.4294C131.314 15.431 133.646 18.3041 134.603 22.1581C136.271 28.8907 133.661 33.4816 128.566 37.5414C132.055 43.1545 134.77 47.9203 136.923 54.2701C137.942 57.2749 138.522 60.3594 139.721 63.4171C140.807 66.1835 142.261 68.4056 143.5 71.0242C146.471 77.3538 147.235 84.4954 145.673 91.3104C144.562 96.0598 142.855 99.6217 139.99 103.557C139.177 104.672 138.032 106.006 137.302 107.079L137.455 107.236C139.018 108.819 140.951 110.058 142.555 111.674C150.392 119.562 157.876 129.013 157.689 140.746C157.563 148.618 155.472 154.371 148.643 158.668C152.191 173.482 152.967 186.905 144.926 200.575C143.271 203.39 138.741 208.465 136.089 210.399C136.064 215.769 135.361 213.982 137.45 219.278C138.212 225.356 136.007 228.678 129.793 229.635C128.525 228.633 126.426 230.086 125.058 230.213C123.979 230.314 124.055 230.134 123.339 229.434L123.345 229.131C124.421 228.472 125.817 228.837 127.102 227.929C127.411 227.398 127.394 227.655 127.267 227.15C129.926 222.019 125.446 220.56 126.794 218.718C127.749 218.508 129.327 220.837 129.666 221.651C130.546 223.758 129.946 225.672 129.147 227.68C130.631 227.45 132.025 227.247 133.253 226.317C137.249 223.287 135.918 218.328 132.466 215.52C131.649 215.265 129.841 214.897 129.447 214.244C129.762 213.453 130.102 213.818 130.509 213.072L130.073 212.719L130.007 212.49C130.208 212.036 133.408 209.92 134.016 209.441C142.704 202.589 147.058 194.609 148.626 183.828C149.74 178.926 149.187 170.791 148.135 165.906C147.844 163.729 147.112 161.771 146.963 159.605C143.165 160.966 140.437 161.075 136.586 159.82C124.891 201.005 71.4173 211.414 45.7947 176.768C42.6542 172.522 40.859 168.696 38.8555 163.822C39.9446 163.723 39.8189 164.208 40.5171 164.227C40.5761 163.913 40.5847 163.66 40.6036 163.345L40.7358 163.36C41.0836 164.507 41.6671 165.767 42.1754 166.857C42.7291 168.044 43.2383 169.412 43.8894 170.539C65.7469 208.347 120.621 202.202 134.096 161.551C133.968 161.133 133.184 160.573 132.821 160.313C129.889 158.201 130.357 156.246 129.51 153.204C128.668 150.18 128.082 149.597 128.173 146.308C128.107 142.849 127.993 142.259 130.261 139.479C130.11 139.325 129.962 139.167 129.82 139.007C128.54 137.571 128.22 136.603 128.319 134.731L128.585 134.678C129.254 135.552 129.377 135.951 130.289 136.304C130.183 134.658 130.329 134.335 131.101 132.889C131.61 131.994 132.148 131.555 132.982 131.013C133.539 130.719 133.91 130.527 134.436 130.167C137.538 129.387 139.148 129.539 142.276 130.502C142.908 130.696 143.806 131.112 144.397 131.169C145.493 129.857 142.759 128.821 141.865 128.519C139.768 127.808 137.667 127.896 135.497 127.971C133.217 121.703 131.723 119.891 128.198 114.524C127.951 114.106 127.472 113.474 127.177 113.057C128.847 111.963 128.701 110.623 130.879 110.289C142.697 100.677 148.157 86.2077 141.543 71.6618C140.738 69.8875 138.783 66.9505 138.28 65.2276C135.437 55.4523 132.116 45.8623 126.207 37.3498L127.57 35.87C127.043 35.2333 126.638 34.805 126.056 34.217C125.362 33.4198 124.794 32.8159 124.247 31.9109L124.105 31.919C123.649 32.136 122.802 32.5059 122.415 32.7762C120.663 30.8317 118.178 28.1462 116.219 26.4664C116.475 25.754 116.563 25.4205 117.017 24.7935C115.609 24.1834 114.717 23.3701 113.512 22.4172C113.084 22.8953 112.708 23.3085 112.247 23.7624C105.744 19.4935 97.9354 15.1299 89.8471 14.4134C88.9223 14.3315 87.2436 15.048 86.3541 14.7042C86.1732 13.2619 90.866 10.7951 90.0564 6.30468C89.9955 6.42255 89.8597 6.71515 89.7225 6.77185C87.6701 7.61831 86.0947 9.24278 84.1359 10.2023C83.683 10.4243 83.303 10.291 82.9158 10.0186C82.2533 10.7466 81.9315 12.1408 81.1486 12.3917C80.4261 11.7409 80.5559 7.56278 79.5546 5.56597C79.2201 4.79974 78.6414 4.00848 78.2254 3.22352Z" fill="#6D2D02"/>
<path d="M139.344 111.545C147.271 118.62 155.219 128.719 155.861 139.754C155.964 141.864 155.763 143.978 155.267 146.032C154.241 146.101 152.341 149.739 150.806 150.65C149.008 151.718 148.741 151.94 146.618 152.489C147.224 150.73 147.747 149.342 147.679 147.442C147.606 145.398 147.879 143.136 147.397 141.128C146.946 139.255 146.235 137.715 146.13 135.755C142.978 131.387 139.901 130.573 134.834 131.146C134.209 131.216 133.498 131.319 132.982 131.014C133.54 130.72 133.911 130.528 134.436 130.168C137.539 129.388 139.148 129.54 142.277 130.503C142.909 130.697 143.807 131.113 144.398 131.17C145.493 129.858 142.759 128.822 141.866 128.52C139.769 127.809 137.668 127.897 135.498 127.972C133.218 121.704 131.724 119.892 128.199 114.525C129.161 113.76 137.623 111.721 139.344 111.545Z" fill="#FE9830"/>
<path d="M132.977 131.014C133.493 131.319 134.204 131.216 134.829 131.147C139.896 130.573 142.973 131.387 146.125 135.755C146.229 137.715 146.941 139.255 147.391 141.128C147.874 143.136 147.6 145.399 147.673 147.443C147.741 149.342 147.219 150.73 146.612 152.489C148.736 151.94 149.003 151.718 150.8 150.65C152.336 149.739 154.236 146.102 155.262 146.032C153.882 152.577 149.734 157.021 143.21 158.495C142.897 158.479 142.617 158.439 142.306 158.397L142.253 158.193L143.184 157.285C143.402 157.069 143.319 157.197 143.374 156.869C143.014 156.658 142.023 156.753 141.537 156.766C139.39 156.817 137.011 156.398 135.547 154.662C134.327 153.217 134.594 152.066 134.917 150.377C135.744 149.944 137.183 149.717 137.402 148.832L137.104 148.356C134.705 148.124 133.944 147.983 132.027 146.412C130.822 143.731 131.472 143.718 131.417 141.314L131.412 141.171C133.11 139.6 133.882 139.61 135.976 138.794C136.553 138.569 136.643 138.55 136.842 138.091C136.523 137.585 136.565 137.728 135.902 137.436C133.972 137.516 133.697 137.501 132.027 138.401C131.105 137.634 130.789 137.362 130.285 136.306C130.178 134.659 130.324 134.336 131.097 132.891C131.606 131.995 132.143 131.556 132.977 131.014Z" fill="#EC8221"/>
<path d="M131.097 132.889C131.337 134.22 131.291 135.884 132.5 136.695C133.597 137.433 134.821 137.239 135.902 137.434C133.972 137.514 133.697 137.499 132.027 138.399C131.105 137.632 130.789 137.36 130.285 136.304C130.178 134.658 130.324 134.334 131.097 132.889Z" fill="#D36B10"/>
<path d="M110.812 20.4491C112.8 17.1465 114.637 15.1116 118.542 14.1728C123.106 13.0753 127.597 14.3379 130.446 18.2005C133.399 22.2026 133.926 27.58 131.326 31.901C130.396 33.4477 128.921 34.6766 127.569 35.8684C127.042 35.2316 126.637 34.8034 126.056 34.2154C125.361 33.4182 124.794 32.8143 124.247 31.9093L124.104 31.9174C123.648 32.1344 122.801 32.5042 122.415 32.7746C120.662 30.83 118.177 28.1446 116.219 26.4648C116.474 25.7524 116.562 25.4189 117.016 24.7919C115.608 24.1818 114.717 23.3685 113.512 22.4156C112.499 21.5541 111.938 21.1656 110.812 20.4491Z" fill="#FE9830"/>
<path d="M117.02 24.7953C118.149 23.3683 119.131 21.9698 120.867 21.2472C123.791 20.0283 126.001 21.1298 127.137 23.9684C128.422 27.1769 127.081 30.1342 124.251 31.9127L124.108 31.9208C123.652 32.1378 122.805 32.5077 122.418 32.7781C120.666 30.8335 118.181 28.148 116.223 26.4682C116.478 25.7558 116.566 25.4223 117.02 24.7953Z" fill="#9A4B07"/>
<path d="M117.02 24.7953C118.149 23.3683 119.131 21.9698 120.867 21.2472C123.791 20.0283 126.001 21.1298 127.137 23.9684C125.897 24.2474 124.617 22.861 122.924 22.4031C114.176 25.314 121.989 28.3105 124.108 31.9208C123.652 32.1378 122.805 32.5077 122.418 32.7781C120.666 30.8335 118.181 28.148 116.223 26.4682C116.478 25.7558 116.566 25.4223 117.02 24.7953Z" fill="#622D02"/>
<path d="M136.016 108.645C137.235 109.366 138.332 110.533 139.342 111.546C137.621 111.722 129.159 113.761 128.197 114.526C127.95 114.108 127.471 113.475 127.176 113.059C128.845 111.965 128.699 110.625 130.878 110.291C130.487 110.697 130.149 110.939 130.066 111.474L130.255 111.697C131.676 111.66 134.496 109.344 136.016 108.645Z" fill="#EC8221"/>
<path d="M128.17 146.309C128.639 147.903 129.35 149.399 130.879 150.247C131.079 150.36 131.283 150.465 131.49 150.564C130.179 154.906 131.27 156.458 134.81 158.964L134.092 161.552C133.964 161.134 133.18 160.574 132.817 160.314C129.886 158.202 130.353 156.247 129.506 153.205C128.664 150.181 128.078 149.598 128.17 146.309Z" fill="#CF2E19"/>
<path d="M134.92 150.377C134.597 152.066 134.33 153.217 135.55 154.662C137.014 156.398 139.393 156.817 141.54 156.766C142.026 156.753 143.018 156.658 143.377 156.869C143.323 157.197 143.405 157.069 143.187 157.285L142.257 158.193L142.31 158.397C142.62 158.439 142.9 158.479 143.213 158.495C141.839 158.759 139.76 158.543 138.383 158.28C134.588 157.699 129.953 152.63 134.92 150.377Z" fill="#D36B10"/>
<path d="M140.222 156.939C141.269 156.884 141.911 156.849 142.952 156.932L143.186 157.285L142.256 158.194L142.309 158.398C142.619 158.439 142.899 158.479 143.212 158.496C141.838 158.759 139.759 158.544 138.383 158.28L139.459 158.225C140.006 157.856 139.946 157.645 140.222 156.939Z" fill="#BC600F"/>
<path d="M131.42 141.172L131.425 141.314C131.48 143.718 130.83 143.731 132.035 146.412C133.952 147.984 134.713 148.125 137.112 148.357C135.134 148.415 134.83 148.397 133.108 149.303C129.721 147.533 128.746 144.139 131.42 141.172Z" fill="#D36B10"/>
<path d="M82.918 10.0193C83.0582 9.81457 83.2016 9.61215 83.3482 9.41189C84.5917 7.72029 87.8834 4.55342 90.0585 6.30537C89.9977 6.42324 89.8619 6.71583 89.7246 6.77253C87.6722 7.619 86.0968 9.24346 84.1381 10.203C83.6851 10.425 83.3051 10.2917 82.918 10.0193Z" fill="#FECC8F"/>
<path d="M134.108 211.574C134.035 212.773 133.937 214.039 133.902 215.233C133.429 214.817 133.081 214.402 132.486 214.296C132.153 214.656 132.327 215.072 132.464 215.52C131.647 215.264 129.84 214.896 129.445 214.243C129.76 213.453 130.1 213.817 130.508 213.071L130.072 212.718C131.616 213.079 132.773 212.31 134.108 211.574Z" fill="#BC600F"/>
<path d="M58.0959 216.309C72.6643 220.279 83.7599 220.223 98.3922 217.507C98.6185 220.639 98.684 225.252 101.386 227.326C104.317 229.576 110.181 230.995 113.847 230.867C117.088 230.755 120.541 230.698 123.816 230.695C125.573 230.695 127.646 229.695 129.791 229.636C136.005 228.679 138.21 225.357 137.448 219.279C140.654 219.641 148.639 221.667 151.378 223.089C163.242 229.256 142.03 233.477 138.998 234.113C126.475 236.741 113.34 237.795 100.725 238.423C83.742 239.294 66.7225 239.179 49.7525 238.08C39.3738 237.419 29.0513 236.51 18.6898 234.567C15.5375 233.976 -9.33171 229.735 3.79924 222.948C6.80945 221.391 16.018 219.354 19.4677 219.001C18.8526 225.987 22.116 230.637 29.9605 231.515C32.8402 231.837 35.908 231.782 38.8029 232.043C42.3281 231.704 46.835 231.864 50.1998 231.424C53.7142 230.965 57.4624 227.109 57.2964 223.459C57.1943 219.987 57.058 219.623 58.0959 216.309Z" fill="#FFDCA8"/>
<path d="M76.3044 0C77.2909 0.267567 77.9403 0.474126 78.7245 1.13094L78.541 1.30568C77.9098 1.01739 76.9034 0.365208 76.3299 0.394054C76.04 0.805185 76.1273 0.579397 76.091 1.10691C76.7177 2.54868 78.517 2.23967 78.2217 3.22407C77.9522 3.02447 77.6777 2.83216 77.398 2.64732C76.67 2.16971 76.4483 2.11948 75.588 2.29322C73.7999 3.90989 73.8839 6.91331 74.1771 9.11253L73.932 9.37114C72.7199 9.26156 72.6278 8.72544 71.6009 9.63589C70.7112 8.7697 70.1797 8.34962 69.1791 7.60013C67.6971 6.62916 66.2473 5.98743 64.4488 6.13763C61.0572 8.08685 66.8124 12.8336 68.3614 14.1437C58.6595 14.6628 49.6768 18.457 41.5565 23.6024C40.5009 24.2715 37.8982 25.8227 36.6299 26.5231C36.4654 26.4537 36.3009 26.3842 36.1364 26.3147C35.3502 25.1863 37.4207 24.1397 38.292 23.5716C37.0129 21.5186 36.2487 20.4274 34.353 18.8214C34.0637 19.4011 34.2036 19.3245 33.7309 19.6365C32.3201 19.725 29.8862 18.4716 27.9766 18.1488C25.7249 17.7683 21.6193 18.7335 20.3892 18.2685C17.694 20.0955 15.8248 22.9085 15.1848 26.1007C13.9235 32.2977 17.2621 37.59 22.7863 40.2592C23.4711 40.558 24.0268 40.68 24.3166 41.352C19.4181 49.3152 15.7086 58.9214 13.4887 67.961C13.0514 69.7425 12.0377 72.9508 11.9278 74.6583C9.8893 84.9272 11.242 94.1828 16.8644 103.216C18.4123 105.703 21.6751 108.737 22.9075 110.832C21.5367 110.026 19.0088 108.75 17.9538 107.798C15.705 110.037 15.1805 110.754 13.4846 113.447C10.9522 116.957 7.48193 123.49 6.47173 127.698C5.95693 129.283 5.66048 130.398 5.41825 132.066C3.61455 144.48 8.52512 156.424 21.2514 160.431C24.8559 161.565 30.2056 162.223 33.7723 160.66L34.8099 160.262L35.0918 160.484L35.0563 162.458C29.0888 164.421 22.5842 163.924 16.9856 161.072C14.0971 159.62 12.4363 158.01 10.0468 156.011C3.9914 173.809 5.18398 196.597 21.4861 208.679C20.9917 209.51 21.0527 209.548 21.1996 210.645C21.3439 212.416 21.5365 214.316 21.5163 216.104C21.4686 220.325 20.4864 224.005 24.0407 227.143C25.4145 228.357 30.3823 230.37 31.7816 229.088C33.7064 224.498 31.4993 222.54 32.123 220.834C32.6726 220.433 32.376 220.527 33.0362 220.516C34.5499 221.476 34.4919 225.637 34.2445 227.245C34.6683 228.228 35.4814 229.388 35.6818 229.97C37.2695 230.215 40.8691 230.51 42.2452 229.692C44.7343 228.209 42.5863 222.129 42.9956 220.691L43.2851 220.559C43.8947 220.768 44.3807 221.434 44.7643 221.935C46.4328 224.113 45.476 227.243 44.8099 229.575C45.0009 229.605 45.1926 229.632 45.3846 229.655C49.8794 230.2 54.6971 228.48 55.2454 223.44C55.225 221.834 52.6946 218.032 51.7782 216.583C52.265 215.917 53.1066 214.639 53.3165 213.86C53.4186 213.589 53.694 213.061 54.0467 213.117C56.1828 213.458 58.2417 214.269 60.3357 214.8C79.2093 219.586 97.9117 217.442 115.566 209.533C113.456 211.409 111.615 212.457 109.185 213.797C109.29 214.904 109.394 215.105 109.918 216.136C108.533 217.678 105.823 219.534 106.122 221.759C106.821 222.084 106.848 221.033 106.983 223.089C107.167 225.89 110.952 227.076 112.14 228.577C113.938 228.805 115.156 228.836 116.934 228.523C120.468 224.627 116.479 221.151 117.288 219.773C118.671 219.48 119.238 220.497 119.623 221.646C120.483 224.206 120.362 226.097 119.164 228.483C121.408 228.786 125.689 229.072 127.263 227.15C127.39 227.656 127.407 227.399 127.099 227.929C125.814 228.838 124.418 228.473 123.342 229.131L123.335 229.435C124.051 230.134 123.975 230.315 125.054 230.214C126.422 230.086 128.521 228.634 129.789 229.635C127.644 229.695 125.572 230.695 123.814 230.695C120.54 230.698 117.086 230.754 113.846 230.867C110.179 230.995 104.315 229.575 101.384 227.326C98.6823 225.252 98.6169 220.638 98.3905 217.507C83.7583 220.222 72.6627 220.279 58.0943 216.308C57.0564 219.622 57.1927 219.987 57.2948 223.458C57.4607 227.109 53.7126 230.965 50.1982 231.424C46.8333 231.863 42.3265 231.704 38.8013 232.042C35.9063 231.782 32.8386 231.837 29.9589 231.515C22.1143 230.636 18.851 225.986 19.4661 219C19.914 215.093 19.4984 213.125 18.9713 209.314C14.7861 205.412 11.9453 202.02 9.27369 196.897C2.66917 184.233 4.11028 167.392 8.44786 154.136C5.38128 150.562 3.26455 143.672 3.09859 139.029C2.65094 126.504 8.41752 115.378 16.5348 106.297C13.1643 101.623 10.8115 96.2938 9.62817 90.6538C7.44429 79.7411 10.6185 69.746 13.9732 59.4906C15.8384 53.7881 18.2803 47.0394 21.6232 42.0223C18.9471 40.5956 16.6737 38.9749 15.1529 36.2635C13.1305 32.7223 12.6079 28.5196 13.7013 24.591C17.405 11.4943 33.5497 10.6113 39.8999 22.3715C47.4683 17.0993 54.8188 14.281 63.8525 12.5841C57.0623 4.65971 66.4725 1.57854 71.9756 7.41313C71.9695 3.90326 72.6622 1.1205 76.3044 0Z" fill="#622D02"/>
<path d="M100.059 217.04C103.829 216.103 105.692 215.485 109.191 213.797C109.296 214.904 109.4 215.105 109.924 216.136C108.539 217.678 105.83 219.534 106.128 221.759C106.828 222.084 106.855 221.033 106.989 223.089C107.173 225.89 110.958 227.076 112.146 228.578C108.965 228.518 105.088 227.547 102.499 225.557C100.176 223.772 100.382 220.005 100.059 217.04Z" fill="#D36B10"/>
<path d="M20.3945 18.2677C24.6958 15.1335 30.3679 15.1948 34.3583 18.8206C34.069 19.4003 34.2089 19.3237 33.7362 19.6357C32.3254 19.7242 29.8915 18.4708 27.9819 18.148C25.7302 17.7675 21.6246 18.7327 20.3945 18.2677Z" fill="#FECC8F"/>
<path d="M53.3195 213.859C54.2475 214.872 54.908 215.146 56.1727 215.688C55.9132 216.576 55.1265 219.101 55.1537 219.875C55.2055 221.346 55.4064 221.787 55.2484 223.44C55.228 221.833 52.6976 218.032 51.7812 216.583C52.268 215.917 53.1096 214.639 53.3195 213.859Z" fill="#D36B10"/>
<path d="M34.2493 227.246C34.6731 228.229 35.4861 229.39 35.6866 229.972C35.0807 229.905 34.138 229.676 33.5156 229.547C33.7797 228.867 34.0304 227.961 34.2493 227.246Z" fill="#EC8221"/>
<path d="M21.1992 210.643L21.3486 210.689C22.2331 210.976 22.8968 211.518 23.5948 211.539C23.9982 211.311 23.9664 211.322 24.1844 210.906C25.2254 211.342 26.1118 212.159 26.8953 212.952L27.1158 215.319C25.4101 217.609 24.0032 219.707 24.4152 222.779C24.6715 224.692 25.8525 226.126 27.3344 227.277C28.8433 228.447 30.4014 228.281 31.7812 229.085C30.3819 230.367 25.4141 228.354 24.0403 227.141C20.486 224.003 21.4681 220.322 21.5159 216.102C21.5361 214.313 21.3435 212.413 21.1992 210.643Z" fill="#D36B10"/>
<path d="M21.4892 208.678C22.3634 209.404 23.2989 210.215 24.1879 210.907C23.9698 211.324 24.0017 211.312 23.5983 211.541C22.9003 211.519 22.2366 210.977 21.3521 210.69L21.2027 210.644C21.0558 209.546 20.9948 209.508 21.4892 208.678Z" fill="#9A4B07"/>
</svg>
