<svg width="64" height="88" viewBox="0 0 64 88" fill="none" xmlns="http://www.w3.org/2000/svg">
<path d="M23.0928 0.0361061C26.6319 -0.370942 26.9716 2.79472 27.5627 2.95088C28.2461 3.13142 30.23 2.88254 31.0622 2.88692C32.4685 2.8942 33.8806 2.91701 35.277 3.09782C38.3581 3.49682 42.4137 4.7038 44.9216 6.62622C45.2904 6.30381 45.6521 5.99702 46.0347 5.69146C48.3232 3.86353 51.61 3.9524 53.4037 6.44146C54.2416 7.58677 54.5768 9.02396 54.3321 10.4218C54.0104 12.2303 52.9615 13.5693 51.4967 14.6041C52.7829 16.7098 54.1077 22.5967 54.405 25.1455C55.0351 30.3593 57.1514 33.7548 59.2455 38.677C65.3391 53.0625 67.2273 79.6148 48.1382 84.909C46.6183 85.331 45.3767 85.6521 44.0116 86.3653C41.5666 87.6023 39.8668 88.4024 37.1235 87.7892C35.8758 87.5102 35.603 87.9664 33.9723 87.268C32.586 86.7662 31.6681 86.6267 31.1464 85.1117C27.0726 85.4547 19.9296 84.8458 16.132 83.4623C13.615 84.1615 10.9746 85.3669 8.3786 85.517C7.81686 85.5301 7.18416 85.2862 6.63909 85.2608C5.39158 85.2038 4.45708 85.0292 3.30975 84.5081C-0.913986 82.5894 2.57213 78.0454 5.58994 77.0405C1.06177 72.4693 0.980272 65.009 3.44038 59.4037C1.8988 58.2749 1.04247 57.0914 0.498286 55.2816C-1.3336 49.1892 2.23077 44.367 5.58099 39.6604C6.71129 38.0724 7.49112 36.7127 8.41614 35.0025C7.99952 34.6913 7.6486 34.3282 7.28987 33.9564C2.90681 29.4125 3.43065 22.7516 5.8247 17.3617C8.32113 11.7416 13.1921 7.53124 18.8583 5.30738C19.1293 2.40353 20.2209 0.79802 23.0928 0.0361061Z" fill="#522700"/>
<path d="M16.6173 37.2206C12.7548 36.4106 8.92236 35.4167 6.72859 31.7244C1.92663 23.642 7.51895 13.0604 14.7394 8.48587C23.1616 3.14998 35.8703 1.7392 44.5075 7.44566C44.2429 7.97774 44.03 8.37594 44.0399 8.97821L44.1479 9.07138C44.5156 8.87407 45.0822 7.95405 45.3764 7.59366C46.7799 5.87407 48.467 4.96203 50.6712 5.59351C53.21 6.32097 53.8271 8.85618 53.1288 11.1638C52.5438 13.0309 51.2035 13.6851 49.6112 14.5701C49.3535 14.716 49.4049 14.604 49.4111 14.904C49.7627 15.1988 50.1953 14.9809 50.6167 14.9081C50.9446 15.3154 51.2281 16.1591 51.4115 16.6667C51.9852 18.2216 52.4404 19.8176 52.7735 21.4412C53.2978 24.0862 53.5348 26.5795 54.2815 29.2148C55.1672 32.3402 56.6703 34.9444 57.9168 37.9188C62.3293 48.4481 64.7066 62.3747 59.9762 73.1775C58.4916 77.36 55.3644 80.8401 51.2821 82.7122C49.3166 83.6132 47.729 84.008 45.3615 84.7484C44.0383 85.1625 38.8528 88.512 37.3395 86.5583C36.9636 86.0731 37.8321 84.2211 38.0196 83.4702C36.6381 84.4659 36.3646 85.159 36.4688 86.8636C31.8318 86.8416 35.1492 83.4974 34.9536 82.7771C33.6456 83.1052 33.1443 84.9247 33.1236 86.1003L32.1829 85.3423L31.8617 84.2597C32.5631 82.2306 33.1512 81.2962 35.1364 80.2347C35.9484 79.8005 37.8149 79.4228 38.16 79.1584C37.7335 78.9003 37.2409 78.823 36.7528 78.7135C36.0609 77.9327 35.572 76.8391 35.2215 75.8658L34.9851 75.2246C34.7033 75.2747 34.6234 75.2543 34.4024 75.4918C34.2802 76.7061 34.9806 77.8188 35.7321 78.7363C35.7852 78.8017 35.8405 78.8653 35.8976 78.9272C35.6318 79.042 35.1483 79.2324 34.9077 79.3569C33.7882 79.9706 32.9784 80.5505 32.2022 81.5796C32.0984 81.7173 31.783 82.1499 31.6727 82.2543C31.4853 82.6403 31.1888 83.5886 30.9755 84.0992C27.1184 84.5536 19.4229 83.8123 15.9248 82.3279L15.8402 82.3718C14.2043 83.2044 9.30021 84.9028 7.29304 84.4238C7.11372 84.3808 6.92265 84.201 6.85352 84.0106C6.55041 83.1763 7.44569 81.8051 7.8303 81.0006C6.43461 81.9095 5.91823 82.456 5.8384 84.1861C5.18604 84.1571 4.33989 84.1615 3.96037 83.507C3.31784 82.399 4.81661 81.2147 4.99883 80.4071C3.76131 80.3893 3.0922 82.592 2.83445 83.4877C2.51792 82.878 2.44572 82.6341 2.25131 81.9823C2.79304 79.4137 4.10232 78.7298 6.32179 77.6524C6.96195 78.1574 8.95087 79.4155 9.72982 78.9469C7.25699 77.524 5.29755 75.8553 4.07503 73.2175C2.27605 69.336 2.36027 64.9736 3.82737 61L4.17943 59.8958C5.83507 60.3275 6.34285 60.4909 8.01287 60.0836C8.25649 59.9338 8.58232 59.7705 8.84015 59.6321C10.6896 58.1597 11.0677 56.1703 11.2775 53.9125C11.4253 52.3213 11.4033 51.0094 10.0215 49.9484C9.74763 49.8423 9.61858 49.7321 9.3825 49.5634C8.89683 49.3981 8.50827 49.2995 8.01488 49.1777L7.41385 49.2688C7.5972 49.608 7.54062 49.5357 7.53763 49.9587L7.56983 50.0257C9.11352 50.2038 9.69534 50.4976 10.5175 51.9088C10.5182 52.2807 10.5074 52.7142 10.5483 53.0784C9.52181 52.8162 9.1137 52.5486 8.13972 52.863L8.04497 52.9714C8.59907 53.413 10.6105 53.4767 10.6541 54.5253C10.7311 56.3772 8.40747 55.7378 7.5836 56.0704L7.55106 56.1849C8.03971 56.6768 9.07781 56.6184 9.83396 56.755C9.20204 58.8505 7.14917 59.9408 5.09524 59.133C2.82191 58.238 1.68607 56.5 1.13022 54.1958C-0.112561 49.0436 3.36688 44.3981 6.17537 40.4466C6.98432 39.3084 7.71985 38.1125 8.4516 36.9192L9.21485 35.5746C11.1383 36.6524 13.9829 37.7739 16.353 37.4406C16.4886 37.4215 16.5229 37.3355 16.6173 37.2206Z" fill="#FF9A43"/>
<ellipse cx="16.4543" cy="24.1899" rx="11.782" ry="13.4422" transform="rotate(9.62596 16.4543 24.1899)" fill="#E58230"/>
<path d="M10.0188 49.9466C10.4495 49.3913 10.7261 48.6426 11.0598 48.0107C12.4458 45.3865 14.3575 43.317 16.8041 41.6343C23.3065 37.1621 31.3924 37.3071 37.7591 42.0372C40.0543 43.7158 41.9109 45.9231 43.1716 48.472C43.5968 49.3263 43.9215 50.1974 44.3313 51.0583C43.2586 51.683 42.962 51.8554 42.4187 53.0801C42.173 53.6341 42.375 53.5196 41.9563 53.8771C42.3484 55.6198 41.381 55.8877 42.2423 57.5896L42.3294 58.0689C42.9571 58.4589 42.5743 59.0543 42.8249 59.5431C43.19 60.2552 44.1838 60.9345 44.8891 61.3238C45.0869 61.4044 45.4284 61.5245 45.5829 61.6507L45.5602 61.7081C45.141 62.7954 44.9006 64.1037 44.4064 65.1875C42.1706 70.0917 39.5055 72.6123 34.9824 75.2227C34.7005 75.2729 34.6207 75.2524 34.3997 75.4899C34.2774 76.7043 34.9779 77.817 35.7293 78.7344C35.7825 78.7998 35.8378 78.8635 35.8949 78.9253C35.6291 79.0402 35.1456 79.2305 34.905 79.355C33.7854 79.9687 32.9757 80.5487 32.1995 81.5777C32.0957 81.7155 31.7803 82.148 31.6699 82.2524C31.4825 82.6384 31.1861 83.5868 30.9727 84.0973C27.1157 84.5518 19.4202 83.8105 15.9221 82.3261L15.8375 82.3699C14.2016 83.2025 9.29748 84.9009 7.29031 84.4219C7.11099 84.3789 6.91992 84.1991 6.85079 84.0087C6.54768 83.1744 7.44296 81.8032 7.82757 80.9987C6.43188 81.9076 5.9155 82.4542 5.83567 84.1842C5.18331 84.1552 4.33716 84.1596 3.95764 83.5052C3.31511 82.3971 4.81388 81.2128 4.9961 80.4052C3.75858 80.3874 3.08947 82.5901 2.83172 83.4859C2.51519 82.8761 2.44299 82.6323 2.24858 81.9804C2.79031 79.4119 4.09959 78.7279 6.31906 77.6505C6.95922 78.1555 8.94814 79.4136 9.72709 78.9451C7.25425 77.5221 5.29481 75.8534 4.0723 73.2156C2.27332 69.3341 2.35754 64.9718 3.82464 60.9981L4.1767 59.8939C5.83233 60.3256 6.34011 60.4891 8.01013 60.0817C8.25376 59.932 8.57959 59.7686 8.83742 59.6303C10.6869 58.1578 11.065 56.1685 11.2747 53.9106C11.4225 52.3194 11.4005 51.0075 10.0188 49.9466Z" fill="#EC2A12"/>
<path d="M3.82464 60.9993L4.1767 59.895C5.83233 60.3267 6.34011 60.4902 8.01013 60.0829C8.15892 60.5301 8.31289 61.223 8.31833 61.697C8.67083 63.136 9.09745 64.5435 9.69752 65.9008C10.2614 66.8352 10.8603 67.875 11.489 68.7585C14.312 72.7259 18.1437 75.3766 22.8765 76.5491C25.7879 77.2512 28.8319 77.1844 31.7098 76.3555C32.2056 76.2098 34.065 75.5346 34.3997 75.4911C34.2774 76.7054 34.9779 77.8181 35.7293 78.7356C35.7825 78.8009 35.8378 78.8646 35.8949 78.9265C35.6291 79.0413 35.1456 79.2317 34.905 79.3562C33.7854 79.9698 32.9757 80.5498 32.1995 81.5789C32.0957 81.7166 31.7803 82.1491 31.6699 82.2535C31.4825 82.6395 31.1861 83.5879 30.9727 84.0985C27.1157 84.5529 19.4202 83.8116 15.9221 82.3272L15.8375 82.3711C14.2016 83.2036 9.29748 84.9021 7.29031 84.4231C7.11099 84.3801 6.91992 84.2002 6.85079 84.0099C6.54768 83.1756 7.44296 81.8043 7.82757 80.9999C6.43188 81.9087 5.9155 82.4553 5.83567 84.1853C5.18331 84.1564 4.33716 84.1608 3.95764 83.5063C3.31511 82.3983 4.81388 81.2139 4.9961 80.4064C3.75858 80.3886 3.08947 82.5913 2.83172 83.487C2.51519 82.8773 2.44299 82.6334 2.24858 81.9816C2.79031 79.413 4.09959 78.7291 6.31906 77.6517C6.95922 78.1566 8.94814 79.4148 9.72709 78.9462C7.25425 77.5232 5.29481 75.8545 4.0723 73.2168C2.27332 69.3353 2.35754 64.9729 3.82464 60.9993Z" fill="#EE7A19"/>
<path d="M6.31906 77.6499C6.95922 78.1549 8.94814 79.413 9.72709 78.9444C10.7104 79.3665 11.951 79.9529 12.9358 80.3108C18.9212 82.5088 25.361 83.1756 31.6699 82.2518C31.4825 82.6378 31.1861 83.5861 30.9727 84.0967C27.1157 84.5511 19.4202 83.8098 15.9221 82.3254L15.8375 82.3693C14.2016 83.2019 9.29748 84.9003 7.29031 84.4213C7.11099 84.3783 6.91992 84.1985 6.85079 84.0081C6.54768 83.1738 7.44296 81.8026 7.82757 80.9981C6.43188 81.907 5.9155 82.4535 5.83567 84.1836C5.18331 84.1546 4.33716 84.159 3.95764 83.5045C3.31511 82.3965 4.81388 81.2122 4.9961 80.4046C3.75858 80.3868 3.08947 82.5895 2.83172 83.4852C2.51519 82.8755 2.44299 82.6316 2.24858 81.9798C2.79031 79.4112 4.09959 78.7273 6.31906 77.6499Z" fill="#E58230"/>
<path d="M9.69774 65.9004C10.2616 66.8348 10.8605 67.8746 11.4892 68.7581C14.3122 72.7255 18.1439 75.3762 22.8767 76.5487C25.7881 77.2508 28.8321 77.184 31.71 76.355C32.2058 76.2094 34.0652 75.5342 34.3999 75.4906C34.2776 76.705 34.9781 77.8177 35.7296 78.7351C35.7827 78.8005 35.838 78.8642 35.8951 78.926C35.6293 79.0409 35.1458 79.2313 34.9052 79.3557C34.2569 78.6574 34.1716 77.7299 33.7724 76.8004C33.5776 76.7001 33.2399 76.859 33.0097 76.924C31.7861 77.2738 30.544 77.5557 29.2893 77.7683C28.6327 77.8737 27.7427 77.8443 27.0564 77.8478C22.875 77.869 19.4268 76.6276 16.018 74.2473C13.7524 72.6653 10.1368 68.6702 9.69774 65.9004Z" fill="#CB600B"/>
<path d="M3.82492 60.9993L4.17698 59.895C5.83261 60.3267 6.34039 60.4902 8.01041 60.0829C8.1592 60.5301 8.31317 61.223 8.31861 61.697C8.01401 61.4067 7.43385 61.5857 7.06074 61.6309C5.84525 61.7785 4.93295 61.4317 3.82492 60.9993Z" fill="#CB600B"/>
<path d="M17.5911 44.6876C18.9978 43.7193 20.4495 42.8216 22.0585 42.299C28.0079 40.3667 34.4862 42.0342 38.5115 46.9018C40.5701 49.3912 41.0686 50.9457 41.9586 53.8795C42.3506 55.6222 41.3832 55.8901 42.2446 57.592C42.1039 60.9452 41.2026 64.4533 39.0307 67.0983C37.8538 65.9373 36.6593 64.6048 35.5217 63.3881L35.4625 63.3843L35.3513 63.4712C35.1139 63.4573 34.9804 63.3704 34.8224 63.1962C33.1222 61.3216 31.344 59.5143 29.6593 57.628C29.5016 57.4514 29.5387 57.3475 29.5439 57.1328C29.2811 56.9091 28.9423 56.4488 28.734 56.1721L28.6987 56.1944C28.396 56.0281 28.2953 55.9918 28.0986 55.6938L27.7725 55.2855L27.3641 54.9238C27.0566 54.6104 26.5513 54.1282 26.3173 53.7813L25.2034 52.6184L24.9453 52.3615L24.5067 51.9064L24.0457 51.4426L23.8706 51.16L23.4892 50.8508L23.4717 50.679C22.1072 49.4686 20.6861 47.7704 19.3698 46.4514C18.8309 45.9116 18.1916 45.1513 17.5911 44.6876Z" fill="white"/>
<path d="M8.83761 59.6304C8.99974 60.5299 9.07887 61.5995 9.32249 62.4618C11.817 71.2923 20.5624 77.5916 29.7888 76.0143C36.6033 74.8493 42.1473 69.846 44.3047 63.3368C44.5146 62.7034 44.6561 61.9247 44.8893 61.3239C45.0871 61.4045 45.4286 61.5246 45.5831 61.6508L45.5604 61.7082C45.1412 62.7955 44.9008 64.1038 44.4066 65.1876C42.1708 70.0918 39.5057 72.6124 34.9826 75.2228C34.7007 75.273 34.6209 75.2526 34.3999 75.49C34.0652 75.5336 32.2058 76.2088 31.7099 76.3544C28.8321 77.1834 25.7881 77.2502 22.8767 76.5481C18.1439 75.3755 14.3122 72.7249 11.4892 68.7575C10.8605 67.874 10.2615 66.8342 9.69771 65.8998C9.09764 64.5425 8.67101 63.135 8.31852 61.696C8.31308 61.222 8.15911 60.5291 8.01032 60.0818C8.25395 59.9321 8.57977 59.7687 8.83761 59.6304Z" fill="#B21001"/>
<path d="M23.4873 50.8481L23.8687 51.1573L24.0438 51.4399L24.5048 51.9037L24.9435 52.3588L25.2016 52.6157L26.3154 53.7786C26.5494 54.1255 27.0548 54.6077 27.3623 54.9212L27.7706 55.2828L28.0967 55.6911C28.2934 55.9891 28.3941 56.0254 28.6968 56.1918L28.6136 56.2629C28.3301 56.3127 28.1484 56.1951 27.9748 55.972C27.2057 54.9838 23.7053 51.7939 23.4873 50.8481Z" fill="#B21001"/>
<path d="M15.1378 47.1226C16.7411 49.0235 18.7467 50.8368 20.4152 52.7275C22.5 55.0899 21 53.5 24 56.5C25.6299 58.1299 28.0759 60.2424 28.5 61.5C28.8415 62.4934 31.0537 65.0442 32 65.5C33.048 66.0086 30.8593 69.6272 32 69.5C31.9642 71.1357 31.8635 67.9425 33 69.1193C35.3382 71.5626 28.2519 71.5397 30.918 69.1193C32.2342 67.9244 32.4946 65.6386 30.5287 64.8402L30.8592 64.6532L31.7582 64.706L31.8741 64.8209C32.4126 65.2362 36.0486 69.0982 36.5195 69.711C25.1692 78.5123 10.3821 69.3859 11.7014 55.4549C11.9984 52.3194 13.3501 49.6774 15.1378 47.1226Z" fill="white"/>
<path d="M26.5811 59.1919C26.9074 59.5149 27.643 60.3613 27.9475 60.5812C28.237 60.5709 28.3797 60.5539 28.6168 60.8065C29.4319 61.6745 31.643 63.759 31.8757 64.8215L31.7598 64.7067L30.8608 64.6539L30.5303 64.8408C30.3038 64.8259 29.8046 64.7354 29.5595 64.6988C26.37 65.0243 26.4713 63.4934 24.9617 61.5602L24.8981 61.4799C25.8953 60.4571 25.8762 60.0475 26.5811 59.1919Z" fill="white"/>
<path d="M27.9455 60.58C28.2349 60.5697 28.3777 60.5527 28.6148 60.8053C29.4299 61.6733 31.641 63.7578 31.8737 64.8203L31.7578 64.7055C31.5702 64.3551 31.6322 64.3375 31.3339 64.1803C30.5038 63.275 29.4461 62.0147 28.5738 61.2153C28.3816 61.0199 28.2148 60.889 28.004 60.7177L27.9455 60.58Z" fill="#B21001"/>
<path d="M20.7419 52.9233C21.7894 53.2904 24.8033 57.079 25.9114 57.9484C26.0683 58.0716 26.5055 58.732 26.6332 58.9384L26.6034 59.1608C26.4491 58.8446 26.397 58.8181 26.1073 58.6395C25.9648 58.3885 25.7648 58.219 25.5578 58.0152L25.3088 57.7818C25.1027 57.5453 24.8804 57.3233 24.6613 57.0985L24.2529 56.6867L24.1298 56.5511C23.6111 56.0126 23.0866 55.4795 22.5565 54.9522L22.2955 54.6531C22.0484 54.3842 21.7646 54.1087 21.5057 53.8475L21.2956 53.616L20.8823 53.2239L20.7419 52.9233Z" fill="#B21001"/>
<path d="M44.8902 82.3829C50.1113 81.5363 54.1273 79.7497 57.7597 75.7353C58.3384 75.0959 59.3064 73.3861 59.9746 73.1763C58.49 77.3588 55.3627 80.8388 51.2804 82.711C49.315 83.612 47.7274 84.0067 45.3599 84.7472C44.0367 85.1613 38.8512 88.5108 37.3378 86.557C36.962 86.0719 37.8305 84.2199 38.018 83.469C36.6365 84.4647 36.363 85.1578 36.4672 86.8623C31.8302 86.8404 35.1476 83.4962 34.9519 82.7759C33.644 83.104 33.1427 84.9235 33.122 86.0991L32.1813 85.3411L31.8601 84.2585C32.5615 82.2293 33.1495 81.295 35.1348 80.2335C35.9468 79.7993 37.8132 79.4216 38.1584 79.1571C38.2909 79.1491 38.4239 79.1492 38.5565 79.1578C40.6951 79.3018 43.4685 80.7923 44.8902 82.3829Z" fill="#E58230"/>
<path d="M44.9855 50.7834C45.6274 50.6063 47.1903 50.2181 47.6494 50.8553C47.5156 51.3083 46.7219 51.3508 46.2895 51.4166C51.4636 55.7397 47.5826 59.771 47.8207 60.7227L47.9655 60.7823C50.7892 60.3207 52.1992 59.2857 54.1263 57.1535C54.663 56.5597 55.0643 55.9522 55.63 55.3573C55.4436 56.0998 55.0121 56.9921 54.6893 57.6939C51.8916 60.8233 49.9124 62.0638 45.5839 61.6512C45.4294 61.5251 45.088 61.405 44.8901 61.3244C44.1848 60.935 43.191 60.2558 42.8259 59.5437C42.5753 59.0549 42.9581 58.4595 42.3304 58.0695L42.2433 57.5901C41.382 55.8883 42.3494 55.6204 41.9573 53.8777C42.376 53.5201 42.174 53.6347 42.4197 53.0807C42.963 51.856 43.2597 51.6836 44.3323 51.0589C44.5426 51.0093 44.7856 50.8787 44.9855 50.7834Z" fill="#E58230"/>
<path d="M44.9855 50.7834C45.6274 50.6063 47.1903 50.2181 47.6494 50.8553C47.5156 51.3083 46.7219 51.3508 46.2895 51.4166C44.8934 51.684 42.761 52.4625 42.9618 54.2641C43.4594 54.4936 44.7017 53.8014 45.285 54.4988L45.2149 54.6389C44.2708 54.9161 43.862 54.7967 42.864 55.2486C42.5565 58.2785 43.4766 56.9724 45.4902 57.5464L45.5884 57.6821C45.4747 58.345 44.0933 58.1879 43.5849 58.0971L43.1162 58.012C43.5755 59.22 43.941 59.8471 45.2052 60.4612C45.8611 60.7799 47.2947 61.0022 47.9655 60.7823C50.7892 60.3207 52.1992 59.2857 54.1263 57.1535C54.663 56.5597 55.0643 55.9522 55.63 55.3573C55.4436 56.0998 55.0121 56.9921 54.6893 57.6939C51.8916 60.8233 49.9124 62.0638 45.5839 61.6512C45.4294 61.5251 45.088 61.405 44.8901 61.3244C44.1848 60.935 43.191 60.2558 42.8259 59.5437C42.5753 59.0549 42.9581 58.4595 42.3304 58.0695L42.2433 57.5901C41.382 55.8883 42.3494 55.6204 41.9573 53.8777C42.376 53.5201 42.174 53.6347 42.4197 53.0807C42.963 51.856 43.2597 51.6836 44.3323 51.0589C44.5426 51.0093 44.7856 50.8787 44.9855 50.7834Z" fill="#522700"/>
<path d="M7.5687 50.0259C9.11239 50.204 9.69421 50.4978 10.5164 51.9089C10.517 52.2809 10.5062 52.7143 10.5472 53.0785C9.52068 52.8163 9.11256 52.5487 8.13859 52.8631L8.04384 52.9716C8.59794 53.4131 10.6094 53.4768 10.653 54.5254C10.7299 56.3773 8.40634 55.738 7.58247 56.0705L7.54993 56.185C8.03858 56.6769 9.07668 56.6186 9.83283 56.7552C9.20091 58.8506 7.14804 59.9409 5.09411 59.1332C5.10376 58.6274 4.74311 58.0729 4.59651 57.5766C3.93634 55.3411 4.54642 52.6762 6.21986 51.0418C6.57253 50.6972 7.3835 50.3445 7.5687 50.0259Z" fill="#E58230"/>
<path d="M9.38208 49.5621C9.96996 48.4259 10.5679 47.2214 11.275 46.16C13.566 42.7211 17.232 39.8501 21.181 38.5881C25.9864 37.0479 31.2073 37.4842 35.6903 39.8005C39.9939 42.0329 43.5108 46.159 44.9868 50.7834C44.7868 50.8786 44.5439 51.0093 44.3336 51.0588C43.9238 50.1979 43.5991 49.3269 43.1739 48.4726C41.9133 45.9237 40.0566 43.7163 37.7614 42.0377C31.3947 37.3077 23.3088 37.1626 16.8065 41.6348C14.3598 43.3176 12.4481 45.387 11.0621 48.0113C10.7284 48.6431 10.4518 49.3918 10.0211 49.9471C9.74721 49.841 9.61816 49.7308 9.38208 49.5621Z" fill="#B21001"/>
<path d="M54.6895 57.6934C54.7037 57.7854 54.7661 58.1953 54.733 58.2669C53.3267 61.2961 50.1996 63.8053 46.7196 63.4677C46.4242 63.439 46.0999 63.3665 45.8336 63.496C45.3835 64.2185 44.8191 65.9747 44.3127 66.9505C42.5433 70.3602 38.8494 74.4545 35.2199 75.8639L34.9836 75.2227C39.5066 72.6123 42.1718 70.0917 44.4076 65.1875C44.9017 64.1037 45.1421 62.7954 45.5614 61.7081L45.584 61.6507C49.9125 62.0633 51.8918 60.8228 54.6895 57.6934Z" fill="#E58230"/>
<path d="M7.27842 49.2173L7.41327 49.2669C7.59662 49.606 7.54003 49.5337 7.53705 49.9568C7.40853 49.9506 7.28027 49.9412 7.15218 49.9289C6.84592 49.8974 6.71555 49.8442 6.52167 49.6084L6.53904 49.4375C6.75275 49.231 6.97005 49.2491 7.27842 49.2173Z" fill="#5F2E03"/>
<path d="M7.27573 49.2171C7.46418 48.8959 7.36803 48.1277 7.33969 47.7402C7.70052 48.2642 7.9359 48.5481 8.01161 49.1755L7.41058 49.2666L7.27573 49.2171Z" fill="#854B0B"/>
<path d="M41.3855 25.4903C42.8504 25.4847 44.6364 26.0616 45.0325 27.6557C45.1759 28.2316 45.0782 28.8412 44.7621 29.3436C44.1475 30.3241 43.1495 30.6051 42.0978 30.8315C37.2691 30.9508 36.6414 26.079 41.3855 25.4903Z" fill="#FFB977"/>
<path d="M43.1588 27.4272C43.2781 27.4671 43.3204 27.5313 43.4102 27.6228C43.3589 28.0919 42.5236 28.7464 42.1429 29.1005C41.9595 29.0193 42.0109 29.0354 41.8735 28.8554C41.9081 28.333 42.6863 27.8598 43.1588 27.4272Z" fill="#EE7A19"/>
<path d="M41.6423 26.7471C41.6913 26.7661 41.7809 26.8361 41.829 26.87L41.8129 27.0632C41.4188 27.6559 41.0025 28.0299 40.3987 28.3981L40.225 28.2951C40.2357 27.7439 41.2209 27.0396 41.6423 26.7471Z" fill="#EE7A19"/>
<path d="M10.0776 16.4028C11.1538 16.3431 11.1926 16.9004 11.4648 17.7538C11.2393 18.5947 10.7269 19.813 10.4159 20.6585C9.45338 23.2752 9.39925 24.7943 9.60234 27.482C11.9184 27.4387 13.9229 28.493 14.8122 30.8145C14.9023 31.0498 14.8982 31.2093 14.7869 31.4311L14.6569 31.4598C13.954 31.3086 13.6508 30.4186 12.9788 29.7177C12.3212 29.0657 11.2038 28.2797 10.2364 28.2858C8.78733 28.2949 8.483 29.8612 7.59956 30.6083C7.55245 30.6482 7.45648 30.5876 7.39621 30.5655C6.74806 29.4772 8.13954 28.3129 8.91516 27.7503C8.48169 25.7182 8.86989 22.8221 9.44987 20.8286C9.52663 20.5127 10.2615 19.1732 10.1752 18.9126C9.80158 17.7837 9.36363 17.7039 10.0776 16.4028Z" fill="#522700"/>
<path d="M48.4676 10.5983C47.922 10.566 47.3208 10.8497 46.6728 10.9186C46.1577 9.90203 49.7008 6.48742 50.9813 8.5996C51.6669 10.5654 50.7959 12.3366 48.9813 13.1514C48.9123 13.1823 48.8441 13.1764 48.7726 13.175C48.5116 12.818 48.7664 12.5859 48.8593 12.1957C48.554 11.9993 48.3875 12.0559 48.008 12.0819L47.8895 11.9372C47.9468 11.6569 48.3643 11.3978 48.6138 10.9872C48.6112 10.7098 48.6493 10.8136 48.4676 10.5983Z" fill="#CB600B"/>
<path d="M48.4676 10.5983C47.922 10.566 47.3208 10.8497 46.6728 10.9186C46.1577 9.90203 49.7008 6.48742 50.9813 8.5996C50.7398 8.71461 50.5428 8.69531 50.2785 8.68013C49.162 8.616 48.7128 8.97473 47.9395 9.70648L47.9063 9.84194C48.0903 9.95616 48.1185 9.9416 48.3454 9.93449C48.1347 10.0699 48.0887 10.0767 48.0049 10.2973L48.085 10.4878C48.221 10.5317 48.3266 10.5656 48.4676 10.5983Z" fill="#522700"/>
<path d="M48.3464 9.93359C48.6773 10.0257 48.9894 10.0755 49.2298 10.3148C49.3813 10.7828 49.0826 11.0671 48.9765 11.523C48.9557 11.6122 49.2868 11.8159 49.1904 12.1367C49.0353 12.1811 49.0203 12.2007 48.8602 12.1948C48.555 11.9984 48.3885 12.055 48.009 12.081L47.8905 11.9363C47.9478 11.656 48.3653 11.3969 48.6148 10.9863C48.6122 10.7089 48.6503 10.8127 48.4686 10.5974C48.3276 10.5647 48.222 10.5308 48.086 10.4869L48.0058 10.2964C48.0897 10.0758 48.1357 10.069 48.3464 9.93359Z" fill="#5F2E03"/>
<path d="M36.1955 21.361C37.2047 21.2757 38.0381 21.4688 38.8682 22.065C39.3707 22.4258 40.2081 23.37 39.6624 23.9704C38.9225 24.1537 38.6915 23.3654 37.6582 22.961C37.4941 22.8939 36.8685 22.7336 36.6656 22.6764C35.8367 22.9134 34.8433 23.4479 34.2649 23.5691C33.9403 23.4946 34.0469 23.5677 33.8632 23.3004C33.6654 22.2266 35.396 21.614 36.1955 21.361Z" fill="#100F0D"/>
<path d="M38.2288 17.6396C40.3928 17.9199 37.2713 20.9291 33.5286 19.7665C33.086 19.5722 32.742 19.32 32.7786 18.7808C33.3239 18.057 34.1481 18.7275 34.9621 18.7729C36.2253 18.8434 37.1757 18.2272 38.2288 17.6396Z" fill="#100F0D"/>
<path d="M17.8492 18.0165C18.4125 17.9815 19.2276 18.0036 19.81 18.0021C20.9274 18.8345 20.9619 19.5373 19.6627 20.181C17.9299 20.4503 15.9007 19.8337 17.8492 18.0165Z" fill="#522700"/>
<path d="M23.1045 1.00028C25.1066 0.871357 25.6802 1.40491 26.4238 3.13739C25.096 3.43479 23.6482 3.70684 22.3629 4.11425C21.4763 4.36674 20.5948 4.63668 19.7189 4.92391C20.2046 2.83779 20.939 1.53544 23.1045 1.00028Z" fill="#EE7A19"/>
</svg>
