<svg width="265" height="333" viewBox="0 0 265 333" fill="none" xmlns="http://www.w3.org/2000/svg">
<path d="M53.9336 46.5472C39.9131 23.2376 68.7755 -2.3208 82.4522 27.2719C99.5672 21.4798 114.495 22.9195 131.419 27.5184C141.266 0.252808 173.891 23.443 156.471 46.7641L162.889 59.0102C166.795 67.6052 169.622 76.5469 172.545 85.5125C179.507 111.45 187.654 136.255 173.099 161.376C172.382 162.603 171.647 163.817 170.892 165.018L171.609 165.896C174.073 165.707 174.713 165.826 176.747 164.308L177.817 159.701C178.352 157.364 178.753 156.398 180.539 154.785C182.42 154.38 184.264 154.057 186.174 153.815C188.074 150.108 189.278 145.235 192.334 142.385C194.11 142.196 195.199 142.465 196.928 142.927C199.707 143.669 200.777 143.58 203.279 142.092C203.68 141.849 204.081 141.599 204.463 141.34C206.832 141.771 207.185 141.878 208.503 143.859C209.019 144.626 209.458 145.466 209.907 146.27L213.613 146.354C216.029 148.885 215.103 153.806 217.195 155.232C219.143 156.567 220.308 157.713 220.805 160.089C222.944 170.195 213.183 187.355 207.558 195.342C201.379 204.11 194.999 210.557 185.419 215.342C192.286 229.066 192.706 235.746 196.173 250.041C199.191 250.921 201.006 249.966 203.652 251.85C204.186 253.881 204.397 255.658 204.473 257.752C206.393 260.526 208.542 262.97 208.714 266.457C207.472 270.349 205.562 273.786 203.633 277.365C206.775 280.219 210.48 282.993 210.662 287.607C210.786 290.714 209.143 293.518 206.928 295.573C200.605 301.416 191.092 303.65 182.926 305.377L180.93 307.923C182.258 309.2 183.834 310.57 184.903 312.072C186.126 313.78 186.556 315.89 186.221 317.957C185.83 320.386 184.178 322.385 182.248 323.817C169.383 333.362 145.229 333.312 129.671 331.443C120.608 330.354 109.462 328.479 103.531 320.895C92.9485 321.301 82.2994 321.29 71.7935 319.697C59.1196 317.772 13.8776 304.186 5.22464 296.28C2.49311 293.778 0.353645 290.558 0.353645 286.734C0.344095 282.366 4.76609 278.52 7.62178 275.549C5.33914 270.219 3.51499 264.703 2.17788 259.062C-6.51333 220.863 12.9894 184.796 22.3778 148.915C25.1284 138.399 26.5515 127.603 28.4999 116.922C33.1607 91.3417 40.0754 68.6292 53.9336 46.5472Z" fill="#4D2809"/>
<path d="M7.75391 211.426C11.4883 190.086 20.5615 170.022 26.12 149.144C30.9432 131.054 32.8248 112.227 37.3136 94.032C39.8064 83.9258 49.5387 53.3415 58.2203 48.5143C58.44 48.3911 58.6692 48.2917 58.8984 48.1799C59.3186 45.2882 55.4505 40.139 54.228 37.2244C52.8909 34.0289 52.7668 30.3662 54.2567 27.1984C56.1 23.2902 61.1428 19.2464 65.3356 18.0054C67.2267 17.4437 69.1654 17.4647 70.9228 18.4306C76.2521 21.3653 78.2578 27.4563 80.0438 32.8405C94.5992 26.9806 107.187 26.1333 122.411 29.8838C125.954 30.756 130.902 32.4803 134.474 31.8986C135.085 29.0976 135.601 25.6422 137.291 23.2807C138.934 20.9727 141.417 19.3706 144.263 19.0706C147.702 18.7076 151.159 20.2657 153.614 22.6215C156.479 25.3681 158.083 29.4291 157.978 33.3812C157.825 39.0472 155.189 42.3678 151.359 46.0954C167.147 68.6943 183.164 121.435 174.835 147.768C173.011 153.525 170.175 159.242 166.478 164.033C165.351 165.495 161.837 168.514 161.292 170.011C161.063 170.654 161.13 171.369 161.054 172.049C165.351 170.508 170.929 168.534 175.37 170.345C177.271 171.122 177.729 173.48 178.512 175.313C180.871 182.68 184.606 188.507 191.692 192.099C192.523 192.518 193.326 192.788 194.204 193.065C188.445 198.472 180.556 207.531 172.104 207.515C169.869 207.512 167.319 206.946 165.733 205.249C164.129 203.514 162.878 201.135 161.665 199.11C163.374 206.638 165.218 214.094 168.236 221.229C169.745 222.29 170.595 223.243 172.467 223.35C170.7 228.136 172.132 232.9 170.671 237.483C169.563 242.946 168.608 248.471 166.708 253.728L163.986 257.901L160.385 255.926C149.172 250.012 135.983 251.696 123.997 253.554C122.354 244.302 118.18 234.891 111.523 228.143C105.296 221.835 99.0021 220.061 90.349 220.036C84.4276 210.328 77.7898 202.455 73.4251 191.739L70.1206 193.321C72.0498 197.553 73.874 201.9 76.1566 205.953C65.4693 207.661 59.0511 212.003 52.1555 220.347L50.6083 223.218C44.6486 218.802 41.2008 212.182 35.9383 207.009C35.5276 211.388 41.8884 219.341 44.5531 222.779C50.2072 227.728 57.6568 231.915 62.7474 237.148C62.0502 239.556 61.1619 240.941 59.586 242.881C53.5117 253.522 49.7965 263.333 48.765 275.669C39.1569 274.481 31.3443 271.302 24.3436 264.503C10.9725 251.51 7.87807 229.305 7.75391 211.426Z" fill="#DF8027"/>
<path d="M38.7188 219.653C38.5182 219.47 38.2986 219.31 38.1171 219.105C32.0237 212.042 32.8642 202.142 32.8833 193.502L34.0007 193.919C33.9911 195.001 34.0103 196.081 34.0485 197.162C34.1822 200.239 49.0336 217.421 52.1567 220.347L50.6095 223.218C44.6498 218.802 41.202 212.182 35.9395 207.009C35.5288 211.388 41.8897 219.341 44.5543 222.779C42.5487 222.23 40.5144 220.709 38.7188 219.653Z" fill="#CE6F17"/>
<path d="M38.7188 219.652C40.5143 220.709 42.5486 222.23 44.5543 222.779C50.2083 227.728 57.658 231.915 62.7485 237.148C62.0513 239.555 61.1631 240.941 59.5872 242.881C51.9657 236.294 43.9812 228.269 38.7188 219.652Z" fill="#C26510"/>
<path d="M166.919 237.96L170.673 237.482C169.565 242.946 168.61 248.47 166.709 253.727L163.987 257.901L160.387 255.926C162.545 249.879 165.859 244.374 166.919 237.96Z" fill="#B35D0C"/>
<path d="M168.236 221.229C169.745 222.29 170.595 223.242 172.467 223.349C170.7 228.135 172.133 232.9 170.671 237.482L166.918 237.96C168.628 232.017 168.666 227.327 168.236 221.229Z" fill="#CE6F17"/>
<path d="M70.1207 193.32C68.9555 190.262 67.8381 187.893 68.3539 184.551L69.7004 183.893C72.2027 185.811 72.5943 188.831 73.4253 191.738L70.1207 193.32Z" fill="#A85914"/>
<path d="M147.54 107.101C150.854 114.942 153.949 121.954 154.76 130.569C155.696 140.425 153.901 151.85 147.359 159.64C141.752 166.308 132.584 170.088 124.036 170.835C116.319 171.508 108.573 170.093 102.604 164.878C95.5361 158.693 92.0214 148.914 91.5057 139.72C90.7512 125.974 95.3547 109.883 104.667 99.5324C109.347 94.324 115.211 90.9146 122.355 90.7034C130.941 90.4484 137.264 95.0692 143.214 100.65C144.684 100.024 144.742 99.7865 145.601 98.4127C146.671 100.202 148.533 102.554 149.011 104.541L147.54 107.101Z" fill="#A85914"/>
<path d="M145.601 98.4121C146.67 100.201 148.533 102.553 149.01 104.54L147.539 107.101L143.213 100.649C144.684 100.024 144.741 99.7858 145.601 98.4121Z" fill="#DF8027"/>
<path d="M124.494 119.652L128.41 120.739L128.076 143.772C131.285 145.84 134.37 147.496 136.166 151.011L135.927 151.921C131.801 150.486 125.688 146.846 121.582 149.052C120.875 149.432 120.197 149.899 119.538 150.354L118.086 146.777L124.323 143.245C124.294 135.383 124.437 127.514 124.494 119.652Z" fill="#3A1A01"/>
<path d="M118.984 119.492C118.134 119.547 117.379 119.618 116.567 119.347C113.96 118.485 112.174 116.788 110.799 114.493C110.512 112.09 110.293 112.094 111.868 110.068C114.715 109 116.768 109.806 119.538 110.607C121.152 113.062 122.699 115.399 123.893 118.099L118.984 119.492Z" fill="#3A1A01"/>
<path d="M133.958 110.353C136.671 109.358 137.282 108.836 140.147 109.593C141.188 111.281 141.523 111.534 141.036 113.585C140.587 115.469 139.097 117.189 137.464 118.179C135.592 119.311 133.233 119.29 131.112 119.393L129.594 117.341C130.778 114.839 132.392 112.629 133.958 110.353Z" fill="#3A1A01"/>
<path d="M119.537 110.608L133.959 110.354C132.392 112.63 130.778 114.84 129.594 117.342C126.939 118.605 126.748 118.726 123.892 118.099C122.698 115.399 121.151 113.063 119.537 110.608Z" fill="#8B470F"/>
<path d="M118.086 146.777L119.537 150.354C117.408 152.268 116.51 153.389 113.587 154.06L112.689 152.736C113.711 149.612 115.526 148.577 118.086 146.777Z" fill="#2A1603"/>
<path d="M123.892 118.099C126.747 118.726 126.938 118.605 129.593 117.342L131.112 119.394L128.409 120.74L124.493 119.653L118.982 119.493L123.892 118.099Z" fill="#4D2809"/>
<path d="M62.5288 106.422C64.2193 106.592 65.8907 106.879 67.543 107.281C71.2487 108.158 74.4863 110.444 76.3869 113.782C77.9054 116.449 78.2589 119.438 77.1701 122.332C75.6897 126.279 72.5666 127.911 69.0519 129.689C67.5811 129.58 66.1103 129.416 64.6395 129.198C60.9815 128.633 57.1516 127.001 55.06 123.784C53.7038 121.684 53.3409 119.18 53.8853 116.755C55.0409 111.635 58.4888 109.202 62.5288 106.422Z" fill="#F88C44"/>
<path d="M63.3875 112.906L64.2949 113.707C64.7247 116.03 62.8813 118.243 61.7543 120.306L61.0189 119.596C60.761 116.799 62.079 115.295 63.3875 112.906Z" fill="#F77830"/>
<path d="M70.8849 114.961C70.9804 115.262 71.1428 115.548 71.1905 115.864C71.4866 118.036 70.8848 118.371 69.4618 119.773C68.755 119.456 69.1657 119.728 68.5449 118.584L70.8849 114.961Z" fill="#CE6F17"/>
<path d="M76.3955 87.0346C79.0029 85.701 80.5406 84.8021 83.5013 85.2768C85.2778 86.3678 86.6722 87.284 88.038 88.8832C88.229 89.4267 88.4295 89.9713 88.611 90.5225C89.7953 94.2797 90.034 99.1317 87.9997 102.662C86.7581 104.83 84.5137 106.305 82.0592 106.736C79.6906 107.131 77.2552 106.565 75.2972 105.165C73.1483 103.612 71.8398 101.571 71.6297 98.9063C71.2476 94.2195 73.6735 90.5387 76.3955 87.0346Z" fill="#1F1302"/>
<path d="M76.3965 87.0346C79.0038 85.701 80.5416 84.8021 83.5023 85.2768C85.2788 86.3678 86.6732 87.284 88.0389 88.8832L85.0878 90.2874C84.8968 89.0121 83.9034 88.0071 82.6332 87.8017C81.3534 87.5963 80.1022 88.2393 79.5196 89.3895L76.3965 87.0346Z" fill="#22201C"/>
<path d="M79.5194 89.3894C80.102 88.2392 81.3532 87.5962 82.633 87.8016C83.9032 88.007 84.8966 89.012 85.0876 90.2873C85.2691 91.5493 84.6291 92.7893 83.483 93.3625C82.3465 93.9366 80.9712 93.714 80.0639 92.8113C79.1661 91.9085 78.9464 90.5291 79.5194 89.3894Z" fill="#F8F3EF"/>
<path d="M162.181 107.203C163.165 107.114 164.13 107.152 165.104 107.373C167.597 107.947 170.023 109.954 171.341 112.107C172.993 114.783 173.193 117.958 172.42 120.96C171.522 124.446 168.972 125.641 166.03 127.222C162.458 126.865 159.574 125.537 157.32 122.659C155.63 120.502 155.276 118.085 155.706 115.422C156.365 111.298 159.096 109.595 162.181 107.203Z" fill="#F88C44"/>
<path d="M145.602 98.4122C145.611 94.4419 145.621 88.6575 148.543 85.5747C149.67 84.3835 150.157 84.5468 151.685 84.2383C155.2 85.42 157.177 87.7099 158.772 91.021C160.262 94.1047 161.408 98.3606 159.937 101.671C158.992 103.802 157.435 104.914 155.2 105.445C153.099 105.945 150.959 105.268 149.011 104.541C148.534 102.554 146.671 100.202 145.602 98.4122Z" fill="#1F1302"/>
<path d="M137.817 174.822C139.488 174.492 139.612 174.416 141.14 175.137C140.52 176.668 139.87 177.443 138.495 178.399C129.708 184.51 119.269 183.583 109.365 181.691C107.207 180.816 105.707 180.636 104.408 178.66C107.331 175.689 131.666 175.608 137.817 174.822Z" fill="#C26510"/>
<path d="M61.2777 28.4411C68.6222 25.6783 71.3059 30.4712 70.4177 37.3914C68.5266 39.9478 67.629 40.843 64.7733 41.9846L62.4141 40.5487C59.845 35.4884 59.5585 33.808 61.2777 28.4411Z" fill="#4D2809"/>
<path d="M62.4141 40.549C59.845 35.4887 59.5585 33.8083 61.2777 28.4414C64.353 30.716 65.8333 31.0303 67.2182 34.1456C66.1103 37.108 64.6108 38.2783 62.4141 40.549Z" fill="#B35D0C"/>
<path d="M146.576 27.8574C147.922 28.1708 149.193 28.8118 150.463 29.3582L150.749 30.688L147.464 33.2902C146.652 35.4492 148.925 38.0869 148.992 41.099C147.569 41.4964 145.85 40.9557 144.627 40.1685C143.109 39.1988 142.507 38.0773 142.335 36.3138C141.982 32.7371 144.417 30.3498 146.576 27.8574Z" fill="#4D2809"/>
<path d="M142.725 65.4102C146.059 66.4772 150.5 68.151 153.155 70.4599C154.549 71.678 154.272 72.167 154.416 74.0146C151.092 73.6611 146.259 72.874 143.967 70.2794C142.353 68.4614 142.649 67.7201 142.725 65.4102Z" fill="#4D2809"/>
<path d="M86.9015 65.5215C88.3532 66.0717 88.2195 66.2599 89.0408 67.4846L88.3245 69.0409C85.3256 71.6049 82.4223 72.673 78.7643 73.976L76.9688 72.5411C78.2486 69.103 83.6638 67.1904 86.9015 65.5215Z" fill="#713609"/>
<path d="M48.5273 151.861C48.8903 152.071 49.2628 152.263 49.6066 152.488C52.9971 154.676 55.5662 159.361 56.3685 163.185C53.6847 163.577 52.7202 162.473 50.6954 161.039C48.7279 157.802 48.5751 155.504 48.5273 151.861Z" fill="#CB741B"/>
<path d="M123.997 253.552C135.983 251.694 149.173 250.011 160.385 255.924L163.986 257.9C166.832 259.48 169.726 260.885 172.047 263.207C172.811 264.226 173.479 265.379 174.578 266.036C176.249 267.218 178.026 268.357 179.582 269.674C182.982 274.346 184.425 279.434 186.669 284.669C186.277 286.191 186.039 287.195 186.22 288.786L186.43 292.172L187.796 292.293C185.485 296.362 184.491 300.993 182.925 305.377L180.929 307.923C173.145 318.345 164.186 324.495 151.092 326.486C139.46 328.255 126.155 325.763 116.643 318.622C113.596 316.335 110.215 313.428 108.295 310.077L105.726 306.039L105.258 304.403L108.696 304.254C105.535 297.952 104.16 292.48 103.797 285.443C103.826 281.661 103.806 277.923 105.268 274.368C109.088 265.071 117.197 261.232 125.945 257.568C124.885 256.217 124.006 255.786 122.469 255.147C122.287 255.071 122.106 255.001 121.924 254.927L123.997 253.552Z" fill="#F8EDDB"/>
<path d="M183.595 289.08L186.432 292.171L187.798 292.293C185.486 296.361 184.493 300.993 182.927 305.377L180.931 307.923C173.147 318.344 164.188 324.494 151.094 326.485C139.461 328.254 126.157 325.762 116.644 318.621C113.598 316.335 110.217 313.427 108.297 310.077L105.728 306.039L105.26 304.402L108.698 304.253L112.318 308.621C125.765 307.944 141.113 324.935 154.036 311.598C155.048 310.554 155.63 309.371 156.137 308.032C166.509 304.692 173.729 301.982 182.487 295.294C182.573 293.258 183.184 291.088 183.595 289.08Z" fill="#F2C58E"/>
<path d="M183.595 289.08L186.432 292.171L187.798 292.293C185.486 296.361 184.493 300.993 182.927 305.377L180.931 307.923C173.147 318.344 164.188 324.494 151.094 326.485C139.461 328.254 126.157 325.762 116.644 318.621C113.598 316.335 110.217 313.427 108.297 310.077L105.728 306.039L105.26 304.402L108.698 304.253L112.318 308.621C116.959 313.991 122.27 317.897 128.965 320.301C139.786 324.181 153.014 323.601 163.348 318.473C173.08 313.643 179.04 305.404 182.487 295.294C182.573 293.258 183.184 291.088 183.595 289.08Z" fill="#8F4C0E"/>
<path d="M103.797 285.443C112.841 297.7 122.813 305.161 138.208 307.544C144.12 308.458 150.185 308.421 156.135 308.033C155.629 309.372 155.046 310.555 154.034 311.599C141.112 324.936 125.764 307.945 112.316 308.622L108.696 304.254C105.535 297.952 104.16 292.481 103.797 285.443Z" fill="#F2CF9C"/>
<path d="M123.996 253.552C135.983 251.694 149.172 250.011 160.385 255.924L163.986 257.9C166.832 259.48 169.725 260.885 172.046 263.207C172.81 264.226 173.479 265.379 174.577 266.036C176.249 267.218 178.025 268.357 179.582 269.674C182.982 274.346 184.424 279.434 186.669 284.669C186.277 286.191 186.038 287.195 186.22 288.786L186.43 292.172L183.593 289.08C183.565 287.365 183.288 285.753 182.896 284.085C180.823 275.336 174.291 268.407 166.784 263.832C154.129 256.118 140.242 254.129 125.945 257.568C124.885 256.217 124.006 255.786 122.468 255.147C122.287 255.071 122.105 255.001 121.924 254.927L123.996 253.552Z" fill="#8F4C0E"/>
<path d="M164.989 276.929C165.218 277.466 165.457 278.002 165.648 278.555C166.833 281.978 166.804 285.45 164.989 288.668C162.745 292.644 158.313 294.776 154.035 295.834C145.792 297.873 135.63 296.547 128.372 292.056C124.933 289.927 122.001 286.824 121.256 282.715C120.597 279.028 121.867 274.766 124.055 271.78C127.13 267.584 133.386 265.591 138.39 265.043C147.234 264.072 155.161 266.928 162.029 272.377L164.989 276.929Z" fill="#E89A2C"/>
<path d="M138.705 268.141C142.716 267.513 146.413 267.255 150.032 269.494C153.748 271.008 156.737 272.445 159.889 274.946L160.729 276.218C162.744 278.573 162.955 280.804 163.451 283.751C163.126 284.268 162.792 284.787 162.448 285.29C159.583 289.383 155.237 291.258 150.414 291.955C143.089 293.014 134.111 291.006 128.266 286.315C126.366 284.787 124.341 282.273 124.207 279.735C124.102 277.878 124.455 277.573 125.592 276.257C129.546 271.148 132.726 269.821 138.705 268.141Z" fill="#F7B13C"/>
<path d="M138.705 268.141L140.873 269.457C140.768 270.888 141.026 271.034 139.908 272.12C136.9 275.026 129.622 276.192 125.592 276.257C129.546 271.148 132.726 269.821 138.705 268.141Z" fill="#F9CF6D"/>
<path d="M150.033 269.494C153.748 271.007 156.738 272.445 159.89 274.946L160.73 276.218C160.577 276.219 160.424 276.236 160.272 276.22C156.222 275.805 152.373 272.579 150.033 269.494Z" fill="#F9CF6D"/>
<path d="M162.028 272.377L164.989 276.929C164.091 279.246 163.69 281.278 163.451 283.751C162.954 280.805 162.744 278.573 160.729 276.218L159.889 274.947L162.028 272.377Z" fill="#E48E33"/>
<path d="M78.164 235.37C79.3388 233.229 79.9882 230.874 82.3377 230.033L85.1647 230.918L87.3232 229.74C87.8294 227.884 88.3451 226.186 89.1474 224.441C92.4042 222.809 94.8778 222.407 98.3734 223.653C105.097 226.048 109.987 231.69 113.941 237.347L111.124 237.884C109.615 244.761 111.21 253.527 111.716 260.594C105.546 266.066 100.685 271.89 99.9588 280.444C99.9397 280.624 99.9588 280.807 99.9588 280.987L100.178 289.063L92.5187 291.812C89.9209 293.573 81.7741 293.539 78.6892 292.983C63.3602 290.214 62.2332 273.469 55.1465 263.056C55.0128 262.852 54.8601 262.654 54.7168 262.452C57.1331 255.495 60.0652 249.078 64.0384 242.867C67.1806 243.51 70.189 244.239 73.4076 244.136L78.3837 236.513L78.164 235.37Z" fill="#F9AD68"/>
<path d="M78.3819 236.514C81.6578 234.393 84.8669 231.509 88.8686 232.061C89.9192 233.399 90.4063 233.736 90.1867 235.549C89.5563 240.606 83.5966 247.763 79.5088 250.557C77.5796 251.875 76.0992 252.405 73.7975 252.059C72.4986 250.585 72.2216 250.426 72.2885 248.362C72.3363 246.891 72.8997 245.504 73.4059 244.137L78.3819 236.514Z" fill="#F2C58E"/>
<path d="M92.5176 291.813C93.6923 286.962 96.4812 284.307 99.9577 280.988L100.177 289.064L92.5176 291.813Z" fill="#E09E4D"/>
<path d="M7.62166 275.549C17.096 290.202 28.2896 298.879 45.6625 302.582C50.6671 303.65 55.9869 304.348 61.087 304.628C70.399 312.164 80.179 315.653 92.2321 314.27C97.7334 313.64 103.082 311.861 108.296 310.078C110.216 313.428 113.597 316.336 116.644 318.622C126.156 325.763 139.461 328.255 151.094 326.486C164.188 324.495 173.146 318.345 180.93 307.923C182.258 309.2 183.834 310.57 184.903 312.072C186.126 313.78 186.556 315.89 186.221 317.957C185.83 320.386 184.177 322.385 182.248 323.817C169.383 333.362 145.229 333.312 129.671 331.443C120.607 330.354 109.462 328.479 103.531 320.896C92.9484 321.302 82.2993 321.29 71.7934 319.697C59.1195 317.772 13.8775 304.186 5.22452 296.28C2.493 293.778 0.353531 290.558 0.353531 286.734C0.34398 282.366 4.76598 278.52 7.62166 275.549Z" fill="#E4CBAF"/>
<path d="M7.75376 211.426C7.87792 229.304 10.9724 251.51 24.3435 264.503C31.3442 271.302 39.1568 274.48 48.7649 275.669C49.4716 284.386 51.3627 291.903 55.9566 299.369C52.0026 298.985 48.039 298.525 44.1423 297.719C31.7168 295.144 20.1125 287.705 13.2359 276.965C1.23056 258.21 3.29354 232.325 7.75376 211.426Z" fill="#C26510"/>
<path d="M178.514 175.312C178.686 174.975 178.867 174.645 179.029 174.304C181.092 169.928 178.027 158.909 182.697 156.474C183.9 158.335 185.247 162.165 187.138 162.918C192.19 158.015 187.405 149.125 195.409 144.23L196.565 144.719C197.482 150.235 196.412 156.265 195.896 161.806C197.949 156.276 199.353 150.893 202.983 146.158L204.635 145.443C205.705 149.528 203.384 154.791 205.017 158.321L206.478 157.908C207.596 155.431 208.646 150.931 211.13 149.965C214.043 154.565 209.64 159.822 211.34 164.344L215.332 159.151L216.459 159.272C218.484 167.378 213.498 177.547 209.554 184.492C208.532 186.284 207.271 187.858 206.02 189.483C205.38 190.306 204.778 191.153 204.148 191.98L204.072 193.012C200.643 193.387 197.653 193.613 194.206 193.064C193.327 192.787 192.525 192.517 191.694 192.097C184.607 188.505 180.873 182.679 178.514 175.312Z" fill="#9F540F"/>
<path d="M194.951 165.301C197.405 165.616 199.669 165.882 201.502 167.702C203.031 169.222 203.747 171.285 203.623 173.424C203.365 177.614 201.073 180.387 198.198 183.117C196.326 182.561 194.779 181.991 193.308 180.656C191.426 178.951 190.529 176.563 190.557 174.049C190.596 170.014 192.229 167.951 194.951 165.301Z" fill="#7B3909"/>
<path d="M194.206 193.064C197.653 193.614 200.643 193.387 204.072 193.012C198.246 203.231 190.777 209.599 179.411 212.671C176.47 213.465 171.694 213.776 169.555 215.973L169.842 217C173.977 217.633 177.826 216.96 181.923 216.389C185.743 224.301 192.935 236.028 190.07 245.047C188.838 248.93 181.36 252.735 177.74 254.507C177.616 254.569 177.473 254.574 177.339 254.607C175.648 257.526 174.025 260.477 172.048 263.207C169.727 260.886 166.833 259.48 163.987 257.9L166.709 253.727C168.609 248.469 169.565 242.945 170.672 237.481C172.134 232.899 170.701 228.135 172.468 223.349C170.596 223.242 169.746 222.289 168.237 221.228C165.219 214.093 163.376 206.637 161.666 199.108C162.879 201.134 164.13 203.513 165.735 205.248C167.32 206.945 169.87 207.51 172.105 207.514C180.558 207.53 188.446 198.471 194.206 193.064Z" fill="#C26510"/>
<path d="M172.467 223.35C177.978 225.609 182.343 228.822 184.893 234.377C186.192 237.186 186.679 240.573 185.476 243.501C184.148 246.755 181.369 248.426 178.188 249.565C177.396 249.848 176.632 250.027 175.81 250.204L178.905 251.288C177.634 252.719 177.338 252.727 177.338 254.608C175.648 257.527 174.024 260.478 172.047 263.208C169.726 260.887 166.832 259.481 163.986 257.901L166.708 253.728C168.609 248.47 169.564 242.946 170.672 237.482C172.133 232.9 170.701 228.136 172.467 223.35Z" fill="#CB741B"/>
<path d="M166.708 253.726L168.513 254.234C170.901 252.494 172.974 251.146 175.81 250.203L178.905 251.286C177.634 252.717 177.338 252.726 177.338 254.607C175.648 257.526 174.024 260.477 172.047 263.207C169.726 260.885 166.832 259.48 163.986 257.9L166.708 253.726Z" fill="#CE6F17"/>
<path d="M54.7158 262.453C54.8591 262.655 55.0118 262.852 55.1455 263.057C62.2322 273.47 63.3592 290.214 78.6882 292.984C81.7731 293.54 89.9199 293.573 92.5177 291.813L100.177 289.064C101.285 293.991 102.25 300.215 105.259 304.404L105.727 306.04C97.4365 310.298 88.0003 311.671 78.8602 309.591C70.4173 307.759 63.0727 302.579 58.5074 295.237C52.309 285.216 52.1753 273.666 54.7158 262.453Z" fill="#E48E33"/>
<path d="M174.578 266.036C177.95 261.064 181.397 255.374 186.727 252.313L189.028 252.164C191.426 254.485 190.786 256.572 192.448 259.208C195.284 257.019 196.115 254.463 199.716 253.575L201.616 254.624C201.702 258.218 198.169 261.12 198.713 264.161L200.566 264.475L204.081 261.855L205.637 262.676C206.43 267.397 203.708 270.964 201.043 274.675C196.87 280.481 192.744 285.61 186.22 288.786C186.039 287.194 186.278 286.19 186.669 284.668C184.425 279.433 182.983 274.345 179.583 269.674C178.026 268.357 176.25 267.218 174.578 266.036Z" fill="#8F4C0E"/>
<path d="M179.582 269.675C182.228 267.921 185.007 265.84 188.369 266.503C190.661 266.955 191.043 267.727 192.514 269.423C193.45 273.241 193.297 276.159 191.196 279.582C189.983 281.564 188.378 283.117 186.669 284.67C184.424 279.435 182.982 274.347 179.582 269.675Z" fill="#713609"/>
<path d="M76.1577 205.953C79.9589 211.027 85.7849 217.355 86.1097 223.892L84.7725 225.475C81.2579 224.871 78.5932 218.892 75.9189 219.597C75.3555 224.074 80.2932 226.791 75.9572 230.591C74.6774 230.296 74.0279 230.447 73.1874 229.397C71.7262 227.58 70.4464 226.184 68.5553 224.815L67.2373 225.678C66.9508 227.748 66.8839 229.627 66.9699 231.712C62.395 232.549 54.487 225.868 50.6094 223.218L52.1566 220.347C59.0523 212.003 65.4704 207.66 76.1577 205.953Z" fill="#9F540F"/>
<path d="M203.632 277.365C206.774 280.22 210.48 282.994 210.661 287.607C210.785 290.715 209.143 293.519 206.927 295.573C200.604 301.416 191.092 303.651 182.926 305.378C184.492 300.994 185.485 296.363 187.797 292.294C195.304 289.312 199.009 283.591 203.632 277.365Z" fill="#E4CBAF"/>
<path d="M111.716 260.595C111.21 253.528 109.615 244.762 111.124 237.884L113.941 237.348C116.931 242.992 119.156 248.739 120.608 254.969C117.647 256.835 114.619 258.639 111.716 260.595Z" fill="#E09E4D"/>
<path d="M64.0371 242.867C65.527 240.808 67.0551 238.434 68.8793 236.666C71.5153 234.104 74.8868 235.09 78.1628 235.37L78.3824 236.513L73.4064 244.136C70.1878 244.239 67.1793 243.51 64.0371 242.867Z" fill="#E09E4D"/>
<path d="M162.889 59.0109C163.433 41.8736 166.241 25.9542 179.44 13.732C188.886 4.97271 201.55 -0.483063 214.472 0.0337609C228.617 0.599305 241.071 6.29491 250.632 16.8024C260.144 27.4465 265.063 41.4236 264.318 55.6845C263.583 70.1699 257.126 84.4116 246.324 94.1568C236.611 102.984 223.718 107.477 210.623 106.603C194.635 105.516 182.84 97.1689 172.544 85.5131C169.622 76.5475 166.795 67.6058 162.889 59.0109Z" fill="#DC4E29"/>
<path d="M187.787 19.3902C190.834 17.4624 196.173 13.8828 199.42 12.8463C242.723 -0.974154 269.418 47.1296 244.557 81.901C242.265 79.3866 237.021 73.3557 234.615 71.5607L232.427 68.5983L226.181 61.6274L201.722 34.5949L199.248 32.9423C195.743 28.7867 190.977 23.5611 187.787 19.3902Z" fill="#F8F3EF"/>
<path d="M201.721 34.596C212.446 21.6458 219.237 22.4521 228.425 36.3929C224.48 43.3715 232.407 51.2748 226.18 61.6285L201.721 34.596Z" fill="#F8DCB5"/>
<path d="M210.508 31.7871C211.09 32.5905 211.367 33.4924 211.73 34.4095L210.078 35.6667C208.846 35.8329 208.874 35.7507 207.805 35.34L210.508 31.7871Z" fill="#F8F4ED"/>
<path d="M199.248 32.9432C222.781 1.16959 245.579 48.918 234.615 71.5617L232.427 68.5993L226.181 61.6284C232.408 51.2747 224.481 43.3714 228.426 36.3928C219.238 22.452 212.447 21.6457 201.722 34.5959L199.248 32.9432Z" fill="#6B3E0F"/>
<path d="M228.426 36.3926C234.491 48.44 236.726 55.4654 232.428 68.599L226.182 61.6281C232.409 51.2744 224.482 43.3711 228.426 36.3926Z" fill="#F2C58E"/>
<path d="M181.819 25.9629C186.212 30.856 190.386 35.9946 195.581 40.0069L197.453 42.8499L199.965 45.7751C207.501 53.3163 214.798 61.0964 221.846 69.1038L227.491 75.7155L230.279 78.1067C232.123 80.6201 236.43 85.2734 238.627 87.7992C193.318 116.936 155.239 64.9463 181.819 25.9629Z" fill="#F8F3EF"/>
<path d="M195.58 40.0059L197.452 42.8489L199.964 45.7741C207.499 53.3153 214.796 61.0953 221.845 69.1027L227.489 75.7145L230.278 78.1056C222.466 85.4233 211.31 87.9119 201.836 82.1762C196.125 78.6511 192.065 72.9708 190.595 66.4193C188.408 57.1193 190.556 47.9741 195.58 40.0059Z" fill="#6B3E0F"/>
<path d="M199.963 45.7754C207.499 53.3166 214.796 61.0967 221.844 69.1041C221.338 69.6161 221.166 69.8358 220.641 70.2533C206.773 81.2107 203.087 65.0832 193.88 64.3342L193.736 63.6302C193.966 62.6529 193.985 62.2898 194.625 61.4664C198.34 56.622 197.327 52.1559 199.963 45.7754Z" fill="#F8DCB5"/>
<path d="M193.881 64.334C203.088 65.0829 206.774 81.2105 220.642 70.2531C221.167 69.8356 221.339 69.6159 221.846 69.1038L227.49 75.7156C224.415 78.3666 220.776 80.5991 216.736 81.329C211.76 82.226 206.106 81.2372 201.98 78.2786C197.042 74.7364 194.893 70.1012 193.881 64.334Z" fill="#F2C58E"/>
<path d="M197.452 42.8496L199.964 45.7748C197.328 52.1553 198.34 56.6214 194.625 61.4658C193.985 62.2892 193.966 62.6523 193.737 63.6296C191.569 56.9472 194.969 48.8241 197.452 42.8496Z" fill="#E4CBAF"/>
<path d="M150.922 89.715C152.335 88.8265 154.19 89.1447 155.227 90.4515C156.265 91.7594 156.153 93.6385 154.968 94.8145C154.076 95.6991 152.757 95.9952 151.573 95.5768C150.388 95.1583 149.547 94.0989 149.409 92.8503C149.27 91.6017 149.858 90.3837 150.922 89.715Z" fill="#F8F3EF"/>
</svg>
