<svg width="210" height="256" viewBox="0 0 210 256" fill="none" xmlns="http://www.w3.org/2000/svg">
<path d="M100.111 0.0834306C105.433 -0.643067 107.188 3.49526 108.351 7.81957C110.334 5.22103 111.203 4.87776 114.285 4.18295C118.346 6.53259 117.674 7.09032 117.329 11.2094C117.647 11.5209 119.611 11.7832 120.147 11.8743C126.583 12.9705 133.045 14.8168 138.835 17.9455C143.554 4.82311 160.733 2.84155 168.862 13.5337C171.912 17.5003 173.254 22.5201 172.589 27.4798C171.679 33.942 168.52 37.3125 163.592 41.0304C167.556 48.525 169.791 54.5836 171.533 62.928C172.078 65.5375 172.643 69.0805 173.286 71.5419C174.248 74.188 175.971 76.7032 177.095 79.2735C184.381 95.9347 179.612 115.231 164.344 125.685C172.405 132.244 177.473 138.538 183.538 146.84C185.634 149.709 187.91 151.927 189.513 155.266C191.825 160.081 192.285 166.666 190.445 171.692C187.996 178.381 183.918 181.093 177.888 183.967C177.75 187.829 177.128 191.659 176.037 195.368L176.131 195.411C179.077 196.833 180.756 198.52 182.747 201.115C184.858 200.118 187.001 199.255 189.327 198.957C193.758 198.412 198.223 199.659 201.728 202.426C214.84 212.729 208.683 233.582 199.766 244.471C192.652 253.157 184.32 257.641 172.993 255.448C169.599 254.789 166.432 253.646 163.067 252.888C153.753 250.73 144.128 249.387 134.594 248.787C131.679 248.604 126.236 251.104 123.191 251.869C118.979 252.927 115.118 253.894 110.748 254.411C101.37 255.093 94.1177 254.574 84.9525 252.08C81.9227 251.389 77.701 248.854 74.6334 249.017C65.2782 249.518 55.7433 250.62 46.6079 252.723C41.6951 253.853 38.0334 255.412 32.9544 255.887C18.2557 257.262 8.52991 245.871 3.15948 233.518C-0.120388 225.95 -1.36035 217.982 1.95013 210.12C3.77159 205.794 6.89546 202.059 11.3579 200.233C17.1965 197.907 20.651 198.732 26.1147 200.968C27.9323 198.58 29.4126 196.929 32.1581 195.652C31.1717 192.22 30.8132 187.772 30.4337 184.137C16.9251 179.784 13.5869 164.599 20.5847 153.055C21.6296 151.331 23.2943 149.797 24.4534 148.142C28.4269 142.468 32.2752 136.721 37.1977 131.799C39.2095 129.777 41.2871 128.01 43.3839 126.08C37.4633 121.347 32.7197 116.669 29.802 109.284C26.0306 99.7378 26.6862 90.2132 30.1802 80.6509C31.0927 78.1539 33.8026 73.9937 34.2726 71.7463C35.1874 67.3701 35.8964 63.0568 37.0025 58.6781C38.52 52.6707 40.745 47.7292 43.157 42.1126C39.5023 40.5069 36.1568 37.1888 34.5966 33.5202C29.0466 20.4701 39.2998 6.20975 53.5023 7.50385C60.4143 8.13368 65.1437 12.2569 67.8371 18.4883C74.5689 14.2722 81.0881 13.8561 88.2472 11.7446C86.96 5.06489 91.7219 4.88006 96.4641 7.42923C96.3904 4.18272 96.8694 1.48499 100.111 0.0834306Z" fill="#482604"/>
<path d="M98.8623 103.734C101.095 103.366 104.849 103.434 107.142 103.507C121.585 104.033 135.542 108.857 147.227 117.362C157.103 124.498 164.971 134.06 170.072 145.124C166.072 146.56 162.385 150.396 162.679 154.86C164.13 156.109 164.091 157.952 162.488 159.097C160.133 164.711 161.554 166.179 164.05 170.433C164.14 170.587 164.518 176.158 164.699 177.221C165.901 177.526 167.679 180.183 169.356 180.911C171.633 181.903 173.364 181.992 175.778 182.093C174.184 203.153 165.57 221.251 149.499 235.079C135.519 247.285 117.256 253.427 98.7408 252.148C80.2062 250.566 63.0595 241.685 51.0739 227.458C39.4383 213.869 33.9904 199.868 32.373 182.176C33.215 182.134 34.5603 182.008 35.3378 182.176C39.6787 180.853 43.8932 178.307 43.6671 172.932C43.6436 172.376 43.1842 171.586 43.0978 170.785C43.4508 170.16 44.0145 170.022 44.7033 169.722C47.0389 164.734 46.8986 165.331 45.9453 160.365L44.4103 157.747C46.2144 153.53 45.2082 149.713 41.5151 146.846C40.7627 146.262 39.8107 146.119 39.1175 145.38L39.1889 144.935C40.835 140.379 45.8661 133.18 49.0033 129.456C61.6488 114.728 79.5313 105.503 98.8623 103.734Z" fill="#E93010"/>
<path d="M57.7491 137.725L61.5827 141.569L62.6472 142.671L63.4867 143.511C66.6512 146.901 69.8612 150.248 73.116 153.551C74.161 154.623 77.1905 157.599 77.9243 158.574C83.1728 163.527 88.5125 169.435 93.688 174.597L104.334 185.435C105.722 186.849 108.618 189.65 109.761 191.072C110.188 191.49 110.69 191.921 110.988 192.429C112.003 193.069 118.987 200.311 119.976 201.462C120.415 201.88 121.662 203.285 121.952 203.459C122.869 204.178 123.244 204.633 124 205.501C124.808 206.173 125.359 206.552 125.864 207.491C131.566 212.844 137.589 219.277 143.229 224.852C131.547 234.597 119.93 239.711 104.637 239.867C83.3425 240.085 64.8338 228.804 53.5876 210.981C46.9357 200.44 44.1698 189.329 44.1016 176.939C44.1718 174.34 44.3987 172.285 44.7048 169.722C47.0404 164.735 46.9001 165.332 45.9467 160.365C46.6927 159.093 47.8537 154.897 48.5675 153.215C51.015 147.446 53.8879 142.641 57.7491 137.725Z" fill="#F1EFEE"/>
<path d="M77.4907 158.93L77.9238 158.574C83.1723 163.527 88.512 169.435 93.6875 174.597L104.333 185.434C105.722 186.849 108.617 189.65 109.761 191.071C106.968 192.203 102.014 192.904 98.9187 193.448C98.0579 183.06 89.4626 195.583 88.1999 196.194C86.3621 196.947 82.6522 198.139 80.6649 198.32C78.3465 198.846 74.6015 200.189 72.7926 200.394C72.1104 199.907 71.4595 199.452 70.8147 198.915C69.545 196.614 69.4552 181.46 69.3335 178.052C62.3865 173.311 66.0121 164.974 71.8397 161.164C73.8723 159.835 75.1358 159.44 77.4907 158.93Z" fill="#F7C78C"/>
<path d="M93.6879 174.598L104.334 185.435C105.722 186.85 108.618 189.651 109.761 191.072C106.969 192.204 102.015 192.905 98.9192 193.449C98.0583 183.061 89.463 195.584 88.2003 196.195C86.3625 196.948 82.6527 198.14 80.6653 198.321C80.7356 195.897 83.6563 195.621 84.1323 193.516C83.3539 192.59 78.9104 192.379 76.7109 190.668L76.7199 190.381C79.2208 189.497 81.3714 190.997 83.4131 191.956C83.6719 192.076 85.4654 192.237 85.8686 192.271L86.4858 191.917C87.7397 191.192 88.8403 190.824 89.1898 189.516C87.793 189.162 84.8987 189.472 84.1226 188.622C85.6801 186.779 88.258 188.834 90.7612 187.996L90.9663 187.927C91.3961 186.815 93.1671 185.406 94.1131 184.643C94.4624 185.295 94.5081 185.387 95.1521 185.741C96.1346 185.842 97.2538 186.042 98.0459 185.433C98.5518 183.821 96.8334 184.145 96.5126 182.82C95.993 181.619 93.4052 179.19 92.2755 178.4C91.7724 178.368 91.9564 178.416 91.5091 178.014C92.5318 177.059 93.0677 175.833 93.6879 174.598Z" fill="#F8BE59"/>
<path d="M103.315 187.254C104.031 187.465 104.053 187.688 104.021 188.296C103.539 189.004 103.337 189.059 102.571 189.419C102.381 189.346 102.118 189.196 101.93 189.098C102.112 188.303 102.686 187.917 103.315 187.254Z" fill="#FBAF55"/>
<path d="M91.5087 178.014C91.956 178.415 91.7721 178.367 92.2751 178.399C91.4579 178.891 90.8127 179.382 89.8633 179.015C90.3671 178.356 90.6428 178.397 91.5087 178.014Z" fill="#F8BE59"/>
<path d="M86.9375 179.998C87.2063 180.168 87.3707 180.395 87.5795 180.636L87.5241 181.176C86.5189 182.685 82.9275 184.319 81.2042 185.089C80.9186 184.983 80.745 184.811 80.5078 184.62C80.5843 182.767 84.0005 182.664 85.2718 182.039C85.4891 181.934 86.216 180.687 86.8036 180.124L86.9375 179.998Z" fill="#F8BE59"/>
<path d="M70.6035 168.815C71.7693 165.507 73.501 164.051 77.0671 163.658L77.4097 163.81C75.4546 165.938 73.3237 164.776 71.4111 169.279L70.6035 168.815Z" fill="#F8BE59"/>
<path d="M82.8255 165.877C83.9892 166.136 85.0068 167.937 84.9997 169.17C83.7866 169.053 83.3536 169.124 82.5931 168.249C82.375 167.436 82.6322 166.706 82.8255 165.877Z" fill="#F8BE59"/>
<path d="M77.6512 171.176L78.2438 171.44L78.4271 172.012C78.2213 173.167 77.3132 174.012 76.4453 174.726L76.0079 174.615L75.9082 174.122C76.274 173.052 77.0044 172.11 77.6512 171.176Z" fill="#F8BE59"/>
<path d="M83.2244 176.523C83.9114 176.67 83.668 176.53 84.1387 177.065L84.0735 177.644C83.4923 178.585 83.18 178.781 82.2969 179.472C81.7169 179.366 81.9404 179.508 81.5996 179.038C81.7757 178.197 82.6655 177.233 83.2244 176.523Z" fill="#F8BE59"/>
<path d="M71.4137 169.28C71.3797 170.249 71.5297 171.806 70.6131 172.297L70.2542 171.898C69.9249 170.635 70.2372 170.114 70.6062 168.816L71.4137 169.28Z" fill="#F8BE59"/>
<path d="M78.3226 177.152C78.5738 177.214 78.8036 177.341 79.0424 177.451L79.1958 178.016C78.9437 178.92 78.76 179.067 78.1297 179.775C77.3504 179.38 77.4306 179.561 77.0391 178.897C77.1093 178.167 77.7745 177.68 78.3226 177.152Z" fill="#F8BE59"/>
<path d="M77.8543 181.375C79.0779 182.388 77.7025 183.628 76.8906 184.321C75.4436 183.49 77.1083 182.059 77.8543 181.375Z" fill="#F8BE59"/>
<path d="M73.3792 173.732C74.7626 174.681 73.5783 176.1 72.8213 176.991C71.6564 175.925 72.6279 174.894 73.3792 173.732Z" fill="#F8BE59"/>
<path d="M72.4943 177.271L72.7228 177.506C73.2015 178.863 73.1079 179.958 72.886 181.363C72.7288 181.246 72.4613 180.952 72.3122 180.801C71.9118 179.462 71.9765 178.567 72.4943 177.271Z" fill="#F8BE59"/>
<path d="M72.5342 182C73.0889 182.377 73.235 182.599 73.6398 183.109C73.7263 184.067 73.7502 183.734 73.1867 184.654C72.4713 184.523 72.717 184.664 72.2495 184.14C72.0371 183.371 72.3037 182.769 72.5342 182Z" fill="#F8BE59"/>
<path d="M78.3966 162.732C79.1238 162.859 79.263 163.008 79.8225 163.447C80.2042 164.273 80.1513 163.913 80.0287 164.81C79.2033 164.576 79.0272 164.551 78.3466 164.007C78.0715 163.244 78.0779 163.577 78.3966 162.732Z" fill="#FBAF55"/>
<path d="M73.1267 193.953C74.1919 194.58 74.7505 194.901 74.9374 196.194C74.1724 196.173 74.0761 196.167 73.4277 195.765C72.9862 195.117 73.0821 194.725 73.1267 193.953Z" fill="#F8BE59"/>
<path d="M78.795 194.979C79.2538 194.887 79.3128 194.944 79.769 195.123L79.8758 195.518C79.3674 196.03 79.606 195.872 78.6933 195.987C78.1323 196.051 77.779 196.164 77.2988 195.897C77.6922 195.325 78.0708 195.305 78.795 194.979Z" fill="#F8BE59"/>
<path d="M78.1851 166.115C78.6641 166.253 78.6363 166.26 78.9665 166.653C78.9084 167.484 78.7172 167.504 78.1966 168.303C77.6717 168.101 77.8586 168.225 77.5069 167.78C77.4853 167.096 77.8166 166.715 78.1851 166.115Z" fill="#F8BE59"/>
<path d="M88.2002 196.194C89.4629 195.583 98.0582 183.06 98.9191 193.448C102.014 192.904 106.968 192.204 109.761 191.072C110.188 191.489 110.69 191.921 110.987 192.429C109.482 192.918 103.255 194.346 102.572 195.179C102.406 196.314 102.188 196.502 102.6 197.427C104.325 198.791 106.544 196.936 105.233 200.894C106.56 202.472 109.984 200.945 107.479 205.98C108.766 206.66 109.889 207.273 110.353 208.733C111.222 211.47 105.974 213.261 104.113 213.728C99.7537 214.818 94.3711 214.476 90.3336 212.538C89.6096 213.023 88.8801 213.5 88.1451 213.966C86.8866 220.85 84.4968 226.937 77.6908 229.975C76.8364 229.589 76.2238 229.403 75.6799 228.643C75.3375 227.371 75.5956 226.981 74.8686 225.977C68.659 225.993 72.0616 223.883 70.914 222.014C69.3035 221.073 67.1676 222.891 67.628 219.018L68.0519 217.801C66.8117 217.718 64.857 217.489 64.3073 216.217C64.1631 214.756 65.6019 213.854 65.0377 212.637C63.2743 212.304 62.8757 211.342 62.084 209.898C62.9533 207.983 63.6334 207.039 65.7061 206.201C71.9872 203.661 76.7921 204.001 82.8702 206.256L85.5546 204.796C85.9649 203.551 86.8788 199.785 86.8696 198.511C87.7874 197.742 87.9812 197.308 88.2002 196.194Z" fill="#FDBC2F"/>
<path d="M104.154 200.652C105.27 199.844 104.659 199.272 105.163 199.178C105.146 199.665 105.148 200.03 105.045 200.514L105.233 200.895C106.56 202.473 109.984 200.946 107.479 205.981C108.766 206.661 109.889 207.274 110.353 208.734C111.222 211.471 105.974 213.262 104.113 213.728C99.7537 214.819 94.3711 214.477 90.3336 212.539C89.6096 213.023 88.8802 213.501 88.1452 213.967C86.8867 220.851 84.4968 226.938 77.6909 229.976C76.8365 229.59 76.2239 229.404 75.6799 228.644C75.3376 227.372 75.5956 226.982 74.8687 225.978C68.659 225.994 72.0617 223.884 70.914 222.015C69.3035 221.074 67.1677 222.892 67.6281 219.019L67.9091 219.852C68.1192 219.854 68.3729 219.873 68.5743 219.841C69.7242 220.913 71.3487 220.541 73.0942 220.493C72.7546 221.852 72.4476 223.154 71.9985 224.483C73.9034 224.431 74.8459 224.332 76.7279 224.017C76.718 224.807 76.5736 227.505 76.9134 228.022C79.294 228.821 82.6944 223.416 83.6792 221.687C83.6434 219.57 85.0826 213.928 86.272 212.11C86.2042 212.213 89.5479 210.087 89.8898 209.866C90.8647 210.277 90.4516 210.459 91.3666 211.331C94.6501 212.165 98.0553 212.413 101.425 212.064C103.022 211.894 109.306 210.714 108.882 208.606C108.018 207.494 106.304 206.946 104.973 206.691C105.771 205.761 106.746 204.397 107.504 203.391C106.401 202.927 104.624 202.464 103.879 201.814C103.749 201.127 103.728 201.416 104.154 200.652Z" fill="#E58311"/>
<path d="M83.6784 221.686C83.6426 219.569 85.0818 213.927 86.2712 212.109C86.2034 212.212 89.5471 210.086 89.889 209.865C88.8497 211.948 88.5802 212.003 86.3219 212.359C85.9934 215.904 86.1033 218.839 83.6784 221.686Z" fill="#F9AC17"/>
<path d="M88.2002 196.194C89.4629 195.583 98.0582 183.06 98.9191 193.448C102.014 192.904 106.968 192.204 109.761 191.072C110.188 191.489 110.69 191.921 110.987 192.429C109.482 192.918 103.255 194.346 102.572 195.179C102.372 194.488 102.058 194.449 101.465 194.35L101.105 194.683C99.7734 194.966 98.7882 194.906 97.4371 194.895C97.4649 193.29 97.7343 190.957 95.6122 190.909C94.4533 191.365 92.933 193.092 92.0747 194.045C90.6045 195.825 89.5632 197.046 88.7802 199.248C87.0535 202.302 88.9986 205.197 85.6022 206.332C84.9425 206.552 83.9464 207.314 83.371 207.753C79.0889 206.148 73.3993 204.959 68.9839 206.756C67.1279 207.287 65.8597 207.59 64.3285 208.841C63.7113 209.633 63.7785 209.319 63.7558 210.224C64.3702 211.434 66.358 211.684 67.5906 211.939C67.0007 212.887 65.8956 214.435 65.7454 215.463C66.093 216.522 66.6494 216.341 67.6829 216.306L68.0519 217.801C66.8117 217.718 64.857 217.489 64.3073 216.217C64.1631 214.756 65.6019 213.854 65.0377 212.637C63.2743 212.304 62.8757 211.342 62.084 209.898C62.9533 207.983 63.6334 207.039 65.7061 206.201C71.9872 203.661 76.7921 204.001 82.8702 206.256L85.5546 204.796C85.9649 203.551 86.8788 199.785 86.8696 198.511C87.7874 197.742 87.9812 197.308 88.2002 196.194Z" fill="#D8890F"/>
<path d="M101.105 194.683L101.465 194.35C102.058 194.448 102.372 194.487 102.572 195.179C102.406 196.313 102.188 196.501 102.6 197.426C104.325 198.79 106.544 196.935 105.233 200.894L105.045 200.512C105.148 200.028 105.146 199.663 105.163 199.176C104.659 199.27 105.27 199.842 104.154 200.65C104.454 199.796 104.582 199.594 104.128 198.857C103.398 198.386 101.963 198.418 101.039 198.361C101.137 197.415 101.49 195.427 101.105 194.683Z" fill="#D46E06"/>
<path d="M92.0738 194.045C91.883 195.514 90.6543 199.39 88.7793 199.248C89.5623 197.046 90.6036 195.824 92.0738 194.045Z" fill="#F8BE59"/>
<path d="M68.9855 206.756L69.3731 207.291C68.7267 208.294 65.4947 209.098 64.3301 208.841C65.8614 207.589 67.1295 207.286 68.9855 206.756Z" fill="#FDC647"/>
<path d="M67.6838 216.306C68.6764 216.267 68.6296 216.104 69.2957 216.563C69.6052 217.415 68.9081 218.901 68.5751 219.84C68.3738 219.872 68.12 219.854 67.91 219.851L67.6289 219.018L68.0528 217.801L67.6838 216.306Z" fill="#D46E06"/>
<path d="M77.1469 211.566C78.8687 210.859 82.5223 209.509 84.3085 210.035L84.7383 210.446C84.7186 211.435 84.2357 211.83 83.5921 212.698C82.6351 213.934 80.916 215.809 79.5004 216.457C78.6984 216.829 77.4821 217.162 76.6153 216.879C75.9983 216.68 75.4886 216.239 75.2025 215.658C74.89 215.017 74.8523 214.278 75.0978 213.61C75.4537 212.618 76.2151 211.984 77.1469 211.566Z" fill="#F9AC17"/>
<path d="M77.1445 211.566C78.8664 210.859 82.52 209.509 84.3062 210.035L84.736 210.446C84.7163 211.435 84.2334 211.83 83.5898 212.698C83.1436 212.335 83.0444 212.333 82.4706 212.241L82.0392 211.718C79.9782 211.249 79.1755 213.224 77.1445 211.566Z" fill="#FE9324"/>
<path d="M82.4706 212.24C83.0444 212.332 83.1436 212.334 83.5898 212.697C82.6327 213.932 80.9136 215.808 79.498 216.456C79.5943 215.411 81.6396 213.384 82.4706 212.24Z" fill="#D46E06"/>
<path d="M92.226 202.986C96.0275 198.759 101.431 202.97 96.9289 206.338C95.4927 207.376 91.3342 208.696 89.6295 207.801C88.4502 206.168 91.0058 204.04 92.226 202.986Z" fill="#F9AC17"/>
<path d="M92.226 202.987C93.2122 202.585 93.1757 202.417 94.0684 202.573C94.0365 204.029 91.0127 205.193 91.7107 206.286C93.7357 206.771 95.6578 205.522 96.9289 206.339C95.4927 207.377 91.3342 208.697 89.6295 207.802C88.4502 206.169 91.0058 204.041 92.226 202.987Z" fill="#FE9324"/>
<path d="M62.6486 142.67L63.4881 143.51C66.6526 146.9 69.8626 150.247 73.1174 153.55C74.1624 154.622 77.1919 157.598 77.9257 158.573L77.4927 158.929C75.1378 159.439 73.8742 159.834 71.8416 161.163C66.0141 164.973 62.3885 173.31 69.3354 178.052C69.4571 181.459 69.5469 196.613 70.8166 198.914L69.9694 199.119C69.6364 199.052 69.273 198.921 69.0045 198.708C66.4065 196.653 63.2458 193.713 60.8073 191.608C53.0133 184.88 53.1415 183.424 52.82 173.427C52.7862 172.378 52.7642 169.326 52.6792 168.24C52.6166 167.439 51.1691 164.72 51.0205 163.46C50.3041 157.391 52.2274 153.378 55.4268 148.636C55.8176 147.189 58.1679 145.24 59.8501 145.293L59.7663 145.034C60.0101 144.344 60.6165 144.057 61.2787 143.543C61.8351 143.359 62.1818 143.03 62.6486 142.67Z" fill="#E58311"/>
<path d="M64.0917 146.265C63.6024 145.112 62.9356 144.776 63.4858 143.512C66.6503 146.902 69.8603 150.249 73.1151 153.552C74.16 154.624 77.1896 157.599 77.9234 158.575L77.4903 158.931C75.5862 156.752 71.9985 153.842 69.9363 151.624C69.8401 151.521 69.0059 151.532 68.7944 151.526L68.7276 151.808L69.2842 151.935C68.6408 152.386 66.6937 152.618 65.9497 153.081C64.5601 153.946 64.2614 154.824 62.5391 155.134C62.5671 154.259 62.9423 153.879 63.5466 153.352L64.2276 152.458C65.525 151.682 66.5424 150.549 67.5051 149.411C66.3594 147.963 65.5502 147.288 64.0917 146.265Z" fill="#FE9324"/>
<path d="M67.5054 149.41C68.1851 150.066 68.2464 149.925 68.4452 150.712C67.7107 151.852 64.7379 153.09 63.5469 153.351L64.2279 152.457C65.5252 151.681 66.5426 150.548 67.5054 149.41Z" fill="#FBAF55"/>
<path d="M62.6456 142.67L63.4851 143.51C62.9349 144.774 63.6017 145.111 64.0911 146.264C65.5496 147.287 66.3587 147.962 67.5045 149.409C66.5417 150.547 65.5243 151.68 64.227 152.456L63.5443 151.642C63.8947 151.107 64.7622 150.056 65.187 149.506C64.5693 148.774 64.0674 147.924 63.5558 147.112C59.3089 144.792 58.6446 145.824 55.4238 148.636C55.8146 147.189 58.165 145.24 59.8471 145.293L59.7633 145.034C60.0071 144.344 60.6136 144.057 61.2758 143.543C61.8321 143.359 62.1788 143.03 62.6456 142.67Z" fill="#D46E06"/>
<path d="M62.646 142.67L63.4855 143.51C62.9353 144.774 63.6021 145.111 64.0914 146.264C63.4572 146.184 62.7454 145.971 62.1443 145.739C60.6525 145.164 60.7613 144.734 61.2761 143.543C61.8325 143.359 62.1792 143.03 62.646 142.67Z" fill="#E58311"/>
<path d="M63.5448 151.645L64.2274 152.459L63.5464 153.353C62.942 153.88 62.5668 154.26 62.5388 155.135C61.9712 155.96 61.2518 156.944 60.7772 157.807L60.293 157.18C61.2838 154.504 61.7942 153.887 63.5448 151.645Z" fill="#B45E0B"/>
<path d="M60.293 157.178L60.7773 157.805C60.6864 158.457 60.4753 158.838 60.212 159.438L59.9433 159.467C59.7302 158.717 60.063 157.952 60.293 157.178Z" fill="#BD680D"/>
<path d="M54.0195 169.658C55.4133 169.826 57.4743 172.214 58.0731 173.451C56.5111 173.362 55.4321 171.233 54.0195 169.658Z" fill="#D46E06"/>
<path d="M61.5844 141.57L62.6489 142.672C62.1821 143.033 61.8354 143.362 61.279 143.545C60.6168 144.059 60.0104 144.346 59.7665 145.037L59.8504 145.296C58.1682 145.242 55.8179 147.191 55.4271 148.638C52.2276 153.38 50.3044 157.393 51.0208 163.462C51.1693 164.723 52.6168 167.441 52.6795 168.243C52.7645 169.329 52.7865 172.38 52.8203 173.43C53.1417 183.427 53.0136 184.883 60.8076 191.61C63.2461 193.716 66.4067 196.655 69.0048 198.71C69.2732 198.924 69.6367 199.055 69.9697 199.121L70.8169 198.917C71.4617 199.454 72.1126 199.909 72.7948 200.395C74.6037 200.191 78.3487 198.848 80.6671 198.322C82.6544 198.141 86.3643 196.949 88.2021 196.196C87.9831 197.309 87.7893 197.743 86.8715 198.513C83.7146 199.482 74.3392 202.513 71.4449 201.734C67.1571 200.577 56.4089 190.368 53.578 186.779C50.1267 182.24 51.835 174.093 50.782 169.409C47.8361 156.308 50.1283 149.385 61.5844 141.57Z" fill="#BD680D"/>
<path d="M119.977 201.463C120.416 201.881 121.663 203.286 121.953 203.461C120.891 204.953 118.999 208.898 117.341 209.15C116.499 208.698 116.725 208.967 116.402 208.184C116.48 206.253 118.815 203.167 119.977 201.463Z" fill="#E58311"/>
<path d="M124 205.5C124.808 206.173 125.359 206.552 125.864 207.491C124.82 208.666 123.315 210.751 121.866 210.917C119.147 209.465 122.802 207.11 123.883 205.661L124 205.5Z" fill="#E58311"/>
<path d="M115.224 211.564C118.908 211.449 120.213 212.659 121.283 216.198C123.178 214.781 123.97 214.425 126.113 213.679C130.453 215.031 133.647 218.948 131.193 223.743C131.016 224.089 129.645 225.295 129.276 225.589C125.474 228.611 121.721 231.726 117.777 234.562C116.038 235.816 114.428 236.335 112.249 235.919C110.296 235.547 108.85 234.342 107.76 232.718C107.149 231.141 107.047 230.137 106.866 228.491C103.099 230.42 97.9641 232.953 94.0106 234.183C93.5493 234.02 92.9976 233.811 92.5599 233.616C88.71 231.901 91.2307 222.884 93.9426 221.389C97.3141 219.529 101.186 217.665 104.738 216.145C107.999 214.751 111.934 212.613 115.224 211.564Z" fill="#E58311"/>
<path d="M116.964 212.834C118.596 213.814 120.795 215.36 119.659 217.452C119.072 217.849 118.961 217.941 118.279 218.113C117.057 217.828 116.278 216.992 115.37 216.166L115.678 217.282L116.316 219.093L116.174 219.387L115.564 220.037C111.351 224.863 107.272 226.902 101.509 229.38C100.248 229.922 97.7357 231.097 96.4723 231.311L96.5222 231.003L95.8313 230.5L95.507 230.62C94.7048 231.173 94.5792 231.217 93.629 231.444L93.19 232.296C91.8082 229.469 91.2195 229.357 92.6415 226.005L92.6775 225.855C92.9645 224.602 93.371 224.009 93.9992 222.907C97.8629 220.811 101.713 219.158 105.716 217.36C108.3 216.198 110.79 214.836 113.461 213.895C114.809 213.38 115.498 213.015 116.964 212.834Z" fill="#FDBC2F"/>
<path d="M93.9992 222.909C97.8629 220.812 101.713 219.159 105.716 217.361C108.3 216.2 110.79 214.838 113.461 213.896L113.632 214.723C111.603 215.917 108.136 217.327 105.862 218.365C102.779 219.77 100.097 221.377 97.1458 222.822C97.1075 223.246 97.1582 224.08 97.0374 224.392C96.8767 227.017 96.9215 228.091 95.8313 230.502L95.507 230.622C94.7048 231.175 94.5792 231.219 93.629 231.446L93.19 232.298C91.8082 229.471 91.2195 229.359 92.6415 226.006L92.6775 225.857C92.9645 224.603 93.371 224.011 93.9992 222.909Z" fill="#F8BE59"/>
<path d="M93.5566 225.755C94.0553 224.481 94.5398 223.294 96.0286 223.197C96.8256 223.666 96.5811 223.487 97.0373 224.391C96.8766 227.016 96.9214 228.09 95.8312 230.501L95.507 230.621C94.7047 231.174 94.5791 231.218 93.6289 231.445C92.7371 229.707 93.0503 228.318 93.2186 226.364L93.5566 225.755Z" fill="#FBAF55"/>
<path d="M93.5566 225.755C94.0554 224.481 94.5398 223.294 96.0287 223.197C96.8256 223.666 96.5811 223.487 97.0374 224.391C96.8766 227.016 96.9214 228.09 95.8312 230.501L95.507 230.621C94.9008 228.614 97.1184 226.694 95.9706 225.301C95.2207 225.03 94.3385 225.473 93.5566 225.755Z" fill="#FE9324"/>
<path d="M96.5225 231.003C96.6876 230.305 97.2088 228.987 97.8657 228.705C103.665 226.202 109.821 222.386 115.564 220.037C111.351 224.864 107.272 226.903 101.509 229.38C100.248 229.922 97.736 231.098 96.4727 231.311L96.5225 231.003Z" fill="#F9AC17"/>
<path d="M115.679 217.283L116.317 219.095L116.175 219.389C116.102 219.283 116.012 219.152 115.906 219.001C112.955 219.12 100.169 226.697 98.6167 226.213L98.4238 225.846L98.6169 225.457C100.22 224.399 114.234 217.536 115.679 217.283Z" fill="#F9AC17"/>
<path d="M116.965 212.834C118.597 213.814 120.796 215.36 119.659 217.452C119.072 217.849 118.961 217.941 118.279 218.113C117.057 217.828 116.279 216.992 115.37 216.166C115.301 215.447 115.279 215.298 115.422 214.568C115.998 213.971 115.793 214.145 116.703 213.959C116.978 213.569 116.936 213.332 116.965 212.834Z" fill="#FBAF55"/>
<path d="M116.965 212.834C118.597 213.814 120.795 215.36 119.659 217.452C118.504 216.581 118.826 215.312 116.703 213.959C116.978 213.569 116.936 213.332 116.965 212.834Z" fill="#F9AC17"/>
<path d="M125.521 215.021C129.096 215.368 129.953 218.303 131.161 221.189C129.072 224.865 120.544 229.852 117.133 232.897C115.642 234.229 114.29 234.44 112.331 234.529C111.592 234.167 110.765 233.795 110.093 233.333C109.005 231.767 108.171 230.968 108.53 229.049C108.573 228.821 108.624 228.594 108.682 228.369C110.673 226.211 119.315 219.18 121.997 217.446C123.146 216.684 124.331 215.474 125.521 215.021Z" fill="#FDBC2F"/>
<path d="M125.798 220.115L126.157 220.735C125.656 221.548 117.168 227.952 115.852 228.519L115.482 228.352C115.965 226.834 123.269 222.147 124.64 220.522C124.763 220.377 125.558 220.173 125.798 220.115Z" fill="#F9AC17"/>
<path d="M125.617 215.908L125.776 216.069C126.953 217.245 128.567 217.398 129.282 219.341C129.57 220.124 129.701 221.669 129.137 222.303C128.689 221.132 127.047 220.969 126.512 219.963C125.707 218.45 126.548 217.803 125.459 216.296L125.617 215.908Z" fill="#FBAF55"/>
<path d="M125.458 216.297C126.547 217.803 125.706 218.451 126.511 219.964C127.046 220.97 128.688 221.133 129.136 222.304C127.413 222.738 127.074 221.991 126.158 220.735L125.798 220.115L125.533 219.606C125.258 218.269 125.095 217.61 125.458 216.297Z" fill="#D46E06"/>
<path d="M121.998 217.446C123.146 216.684 124.332 215.474 125.522 215.021L125.617 215.908L125.459 216.296C125.096 217.609 125.259 218.268 125.534 219.605C124.865 218.803 124.897 218.296 124.787 217.24C123.88 217.269 122.789 217.68 121.998 217.446Z" fill="#F8BE59"/>
<path d="M113.309 233.584C111.703 232.913 109.089 231.458 109.679 229.256C109.806 228.799 110.113 228.415 110.529 228.188C112.405 227.169 114.543 229.008 115.374 230.601C115.485 231.582 115.536 231.832 115.294 232.783C114.574 233.609 114.478 233.609 113.309 233.584Z" fill="#FBAF55"/>
<path d="M115.374 230.602C115.485 231.582 115.536 231.832 115.294 232.783C114.574 233.61 114.478 233.609 113.309 233.584C113.618 232.218 114.308 231.43 115.374 230.602Z" fill="#E58311"/>
<path d="M95.8326 230.502L96.5236 231.005L96.4737 231.312C95.7339 231.767 94.6683 232.543 93.8511 232.619C93.6887 232.543 93.32 232.389 93.1914 232.298L93.6304 231.446C94.5806 231.218 94.7062 231.175 95.5084 230.621L95.8326 230.502Z" fill="#FDC647"/>
<path d="M66.9277 128.657C79.2555 120.897 87.1358 116.809 102.206 116.08C126.879 114.887 150.765 129.411 160.181 152.438C160.612 153.515 161.107 154.628 161.57 155.699L162.682 154.859C164.132 156.109 164.093 157.951 162.49 159.097C160.135 164.711 161.556 166.178 164.052 170.433C164.142 170.587 164.521 176.157 164.701 177.22C164.036 193.645 161.126 201.654 152.091 215.421C147.636 210.767 142.214 205.589 138.08 200.841L136.514 199.254L136.238 199.158C135.873 198.623 134.722 197.566 134.208 197.066C133.189 195.968 132.35 195.364 131.321 194.081C130.735 193.463 130.07 192.836 129.456 192.237C128.626 191.376 127.728 190.49 127.008 189.544C125.929 188.83 125.739 188.595 124.94 187.571C123.41 185.996 116.485 179.429 115.716 177.932C115.632 177.788 114.438 176.878 114.111 176.573C108.575 171.2 102.848 165.221 97.4319 159.696L96.4696 158.734L92.3721 154.4C89.8847 151.97 85.3822 147.411 83.2712 144.842C81.7553 143.567 80.9234 142.734 79.5647 141.282C78.6823 140.563 76.898 138.546 76.0468 137.629C75.5566 137.068 75.1355 136.54 74.5406 136.088C71.9152 133.796 69.4817 130.803 66.9277 128.657Z" fill="#F1EFEE"/>
<path d="M122.999 135.141C118.521 123.717 126.308 120.111 129.191 133.518C130.447 132.502 130.388 132.324 131.961 131.664L132.562 131.304C132.762 132.743 133.694 133.943 133.959 135.307C134.199 136.541 133.429 139.055 133.854 140.194L134.182 140.416C134.907 139.963 134.647 140.051 135.036 139.081C135.417 139.89 136.033 142.784 136.376 143.957C136.574 144.805 137.306 148.659 137.207 149.279L137.186 149.41C137.38 151.206 137.527 152.981 137.237 154.78C138.353 157.06 138.258 156.897 137.75 159.393C138.087 163.8 135.959 166.027 136.145 167.322L136.455 167.524C137.258 167.219 137.469 166.279 138.074 166.135C138.268 166.883 137.896 167.322 137.537 168.188L137.716 168.486C140.438 168.091 140.533 160.578 141.614 159.827C142.099 160.385 142.069 160.551 142.682 160.668C143.399 159.818 143.168 157.11 143.555 156.141C143.91 155.255 145.159 153.43 145.702 152.56L146.319 152.699C146.763 153.682 147.477 154.256 148.127 155.09C149.752 150.569 150.907 149.424 154.764 146.629C155.747 149.98 156.437 153.217 154.641 156.55C154.476 156.852 154.302 157.149 154.118 157.439C155.495 157.449 156.898 157.788 157.816 156.787L158.083 156.863C158.4 160.068 156.042 162.766 154.497 165.292C154.13 165.891 155.657 166.399 155.431 167.083C155.165 168.346 153.974 170.229 153.34 171.342L152.98 172.403L153.081 172.575C153.389 173.11 153.395 173.099 153.399 173.726C152.829 174.311 152.706 174.41 152.015 174.849C151.404 176.036 150.971 176.927 150.176 178.022C149.465 179 147.239 180.929 146.807 181.746C147.101 182.139 147.168 182.182 147.556 182.488C147.448 183.769 145.061 186.185 144.026 187.057C139.865 190.566 136.578 188.52 135.22 189.438C133.721 190.455 132.665 192.775 131.32 194.081C130.734 193.463 130.069 192.837 129.455 192.237C128.625 191.376 127.727 190.49 127.006 189.544C125.928 188.83 125.738 188.596 124.939 187.572C125.494 186.557 126.349 180.837 126.598 179.292L126.552 178.984C122.237 176.105 120.968 171.852 121.599 166.929C120.157 165.003 121.741 163.728 121.763 161.382C121.753 159.412 121.608 159.024 123.322 157.919C122.163 156.099 120.736 152.766 121.401 150.594L122.272 150.275C122.049 148.623 119.727 145.065 120.229 142.761L121.072 142.355C121.249 140.623 117.112 135.923 119.273 133.844C120.393 133.616 122.012 134.587 122.999 135.141Z" fill="#E58311"/>
<path d="M131.178 178.891L131.698 178.809C132.1 179.814 130.599 182.997 132.786 187.286C131.804 189.157 130.707 190.558 129.454 192.239C128.625 191.378 127.727 190.491 127.006 189.545C127.921 186.588 128.555 184.478 129.096 181.438C129.512 179.642 129.485 179.667 131.178 178.891Z" fill="#F1EFEE"/>
<path d="M121.763 161.383C121.972 162.306 123.072 165.817 122.994 166.23L122.842 166.283C122.452 166.423 121.895 166.623 121.6 166.93C120.157 165.004 121.742 163.729 121.763 161.383Z" fill="#F2E7D3"/>
<path d="M136.376 143.957C136.574 144.805 137.306 148.659 137.206 149.279L137.186 149.411L135.775 148.918C135.026 147.621 136.057 146.133 136.376 143.957Z" fill="#F2E7D3"/>
<path d="M137.751 159.394C137.354 158.264 137.557 158.636 136.488 157.826C136.152 156.964 136.84 155.773 137.238 154.781C138.353 157.061 138.259 156.898 137.751 159.394Z" fill="#F7C78C"/>
<path d="M152.013 174.85C151.517 174.469 151.333 174.409 151.182 173.844C151.398 173.064 152.666 172.049 153.339 171.344L152.979 172.405L153.079 172.577C153.387 173.112 153.393 173.1 153.398 173.727C152.827 174.313 152.704 174.411 152.013 174.85Z" fill="#F2E7D3"/>
<path d="M128.847 135.937C129.517 135.08 130.129 134.13 131.098 133.664L131.675 133.633C132.859 134.729 131.903 139.034 131.617 140.58C131.291 141.517 131.229 141.735 130.659 142.536L130.782 142.773C130.239 144.807 129.057 144.944 127.501 143.77C127.227 143.296 127.24 143.242 127.167 142.688C126.943 143.195 127.085 143.021 126.578 143.314C125.301 143.414 124.042 143.031 123.431 141.837C122.201 140.693 119.646 137.424 120.708 135.783C121.628 135.568 121.573 135.723 122.613 136.043C122.752 135.553 122.919 135.052 123.073 134.566L123.426 134.397C123.959 134.62 124.038 134.686 124.508 135.031L124.649 135.05L124.825 135.066C126.121 135.179 126.188 134.962 127.242 134.08L127.584 135.363L128.847 135.937Z" fill="#D46E06"/>
<path d="M123.431 141.837C122.201 140.693 119.646 137.424 120.708 135.783C121.628 135.568 121.573 135.724 122.613 136.043C124.002 136.905 125.864 138.697 126.535 140.193C126.735 140.966 127.012 141.923 127.167 142.688C126.943 143.195 127.085 143.021 126.578 143.315C125.301 143.414 124.042 143.031 123.431 141.837Z" fill="#FDC647"/>
<path d="M126.536 140.191C126.736 140.964 127.013 141.922 127.167 142.687C126.944 143.194 127.086 143.02 126.579 143.313C125.302 143.413 124.043 143.03 123.432 141.836C125.394 141.827 125.324 141.73 126.536 140.191Z" fill="#F9AC17"/>
<path d="M128.849 135.937C129.519 135.08 130.131 134.13 131.1 133.664L131.677 133.633C132.861 134.729 131.905 139.034 131.619 140.58C130.796 140.845 129.107 141.463 128.32 141.475C127.961 139.777 128.452 137.64 128.849 135.937Z" fill="#F8BE59"/>
<path d="M124.65 135.05L124.827 135.067C126.123 135.179 126.189 134.962 127.244 134.08L127.586 135.363C127.144 136.466 127.514 136.849 126.559 137.606L126.108 137.466C125.51 136.605 125.117 135.988 124.65 135.05Z" fill="#FBAF55"/>
<path d="M128.318 141.474C129.106 141.462 130.795 140.845 131.617 140.58C131.292 141.517 131.229 141.735 130.66 142.536C130.085 143.034 129.815 143.37 129.08 143.132C128.67 142.442 128.586 142.214 128.318 141.474Z" fill="#F9AC17"/>
<path d="M130.239 166.517C131.281 163.294 132.235 161.544 135.307 159.482C135.538 159.326 135.78 159.321 136.05 159.335C137.665 160.94 134.95 164.853 134.47 166.375C133.783 167.826 132.152 169.319 130.486 168.487C130.048 167.943 130.195 167.234 130.239 166.517Z" fill="#F8BE59"/>
<path d="M134.47 166.375C133.783 167.826 132.152 169.319 130.486 168.487C130.048 167.943 130.195 167.234 130.239 166.517L130.464 167.186C131.679 167.59 133.211 166.834 134.47 166.375Z" fill="#F9AC17"/>
<path d="M132.689 142.333C133.168 141.904 133.273 141.747 133.891 141.596C135.631 142.48 134.082 147.437 133.577 148.834C133.353 150.057 131.263 151.527 130.258 152.302C130.127 151.613 129.785 150.053 129.74 149.421L129.717 148.418C129.821 145.71 130.908 144.19 132.689 142.333Z" fill="#F8BE59"/>
<path d="M132.689 142.336C133.032 143.68 131.447 147.584 130.349 148.366L129.717 148.421C129.821 145.713 130.908 144.193 132.689 142.336Z" fill="#FDC647"/>
<path d="M133.577 148.834C133.354 150.057 131.263 151.527 130.258 152.302C130.127 151.613 129.786 150.053 129.74 149.421C131.098 149.523 132.206 149.111 133.577 148.834Z" fill="#F9AC17"/>
<path d="M145.775 171.104C147.152 168.81 148.671 168.124 151.055 167.049C151.697 166.76 152.502 166.48 153.192 166.696C154.298 168.622 150.814 171.171 149.872 172.418C149.315 173.348 146.125 174.709 145.082 172.98C145.014 172.236 145.393 171.756 145.775 171.104Z" fill="#F8BE59"/>
<path d="M149.872 172.419C149.315 173.349 146.125 174.71 145.082 172.981C145.014 172.237 145.393 171.758 145.775 171.105C147.55 172.901 147.482 171.813 149.872 172.419Z" fill="#FBAF55"/>
<path d="M142.83 177.135C143.979 176.152 149.314 173.291 150.267 175.192L150.03 175.84C148.545 177.87 148.001 178.623 145.705 179.812C144.517 180.435 141.644 182.113 140.865 180.402C141.071 179.564 141.125 179.431 141.544 178.687L142.83 177.135Z" fill="#F8BE59"/>
<path d="M142.83 177.135C143.979 176.152 149.314 173.291 150.267 175.192L150.03 175.84C147.331 175.87 145.089 178.334 142.83 177.135Z" fill="#FDC647"/>
<path d="M141.544 178.686C142.883 179.914 143.85 179.067 145.705 179.811C144.517 180.433 141.644 182.111 140.865 180.401C141.071 179.563 141.125 179.429 141.544 178.686Z" fill="#F9AC17"/>
<path d="M129.381 175.709C129.629 173.011 133.241 167.797 135.874 168.699C136.105 169.896 134.939 172.091 134.574 173.17L134.544 173.264C134.089 175.255 132.417 177.053 130.391 177.45C129.565 177.234 129.825 177.427 129.391 176.759C129.363 176.428 129.293 176.013 129.381 175.709Z" fill="#F8BE59"/>
<path d="M129.381 175.709C132.226 175.81 131.912 174.713 134.544 173.264C134.089 175.254 132.417 177.052 130.391 177.45C129.565 177.234 129.825 177.427 129.391 176.758C129.363 176.428 129.293 176.012 129.381 175.709Z" fill="#F9AC17"/>
<path d="M134.014 151.439C134.488 150.736 135.06 150.499 135.86 150.391C136.328 154.48 135.087 154.787 134.426 157.604C133.831 158.883 131.864 160.867 130.575 159.402C130.42 158.495 130.443 158.357 130.61 157.448L130.778 156.614C130.797 156.417 130.828 156.222 130.869 156.029C131.362 153.698 132.064 152.708 134.014 151.439Z" fill="#F8BE59"/>
<path d="M130.777 156.616C130.797 156.42 130.827 156.224 130.868 156.031C131.361 153.701 132.063 152.71 134.013 151.441C134.472 152.129 134.351 151.879 134.228 152.864C132.755 153.996 132.707 155.381 130.777 156.616Z" fill="#FDC647"/>
<path d="M130.61 157.451C131.908 158.886 132.684 157.807 134.426 157.607C133.831 158.886 131.864 160.87 130.575 159.405C130.42 158.498 130.443 158.36 130.61 157.451Z" fill="#F9AC17"/>
<path d="M123.851 149.303C123.016 147.798 121.45 145.627 122.168 143.915L122.735 143.725C124.855 144.066 126.661 146.29 127.901 147.882C128.286 148.966 128.74 149.917 128.42 151.032C126.941 152.704 124.731 150.644 123.851 149.303Z" fill="#F8BE59"/>
<path d="M127.901 147.883C128.286 148.967 128.74 149.918 128.42 151.033C126.941 152.704 124.731 150.645 123.852 149.304C124.67 149.816 125.124 150.15 126.049 150.419C127.478 150.036 126.793 148.976 127.901 147.883Z" fill="#F9AC17"/>
<path d="M124.525 157.147C123.568 155.978 122.355 153.677 123.293 152.25C125.73 151.453 128.042 154.719 128.788 156.713C129.054 157.937 128.989 158.693 128.953 159.926L127.88 160.272C126.02 159.563 125.537 158.904 124.525 157.147Z" fill="#F8BE59"/>
<path d="M128.786 156.713C129.053 157.937 128.987 158.692 128.951 159.925L127.878 160.272C126.018 159.562 125.535 158.903 124.523 157.146C126.304 157.367 126.322 158.318 127.537 158.35C128.343 157.852 128.257 157.661 128.786 156.713Z" fill="#F9AC17"/>
<path d="M142.412 182.164C143.576 182.043 144.72 181.785 145.36 182.858C145.25 184.931 141.601 186.74 139.886 187.358C138.685 187.312 137.299 187.445 136.086 187.528C137.588 184.109 138.557 183.011 142.412 182.164Z" fill="#F8BE59"/>
<path d="M123.5 159.371C125.226 160.156 125.82 160.531 127.156 161.844C127.6 162.586 128.174 163.463 128.447 164.264L128.437 164.505C129.181 165.594 129.456 167.206 128.581 168.296C126.472 169.24 125.301 166.758 124.488 165.167C123.616 163.031 123.604 161.63 123.5 159.371Z" fill="#FDC647"/>
<path d="M128.437 164.506C129.181 165.594 129.456 167.206 128.581 168.297C126.472 169.24 125.301 166.758 124.488 165.167C125.713 165.539 126.152 166.444 127.405 166.065C127.834 165.53 128.181 165.153 128.437 164.506Z" fill="#F9AC17"/>
<path d="M123.768 173.257C123.163 172.01 122.332 169.287 123.573 168.27C125.618 168.008 126.994 171.039 127.645 172.582C128.28 173.983 128.281 175.321 127.678 176.763L127.012 177.337C124.984 176.382 124.619 175.197 123.768 173.257Z" fill="#F8BE59"/>
<path d="M127.645 172.584C128.279 173.985 128.28 175.323 127.678 176.765L127.012 177.339C124.984 176.384 124.619 175.199 123.768 173.259C124.644 173.755 125.1 174.421 125.988 174.717L126.425 174.439C126.805 173.624 126.913 173.44 127.502 172.749L127.645 172.584Z" fill="#FDBC2F"/>
<path d="M149.712 157.097C149.725 154.602 150.822 150.25 153.419 149.342C155.912 150.001 153.12 156.066 152.564 157.593C151.801 158.411 150.656 159.391 149.653 158.494C149.519 157.869 149.573 157.729 149.712 157.097Z" fill="#F8BE59"/>
<path d="M149.712 157.1C150.869 157.456 151.46 157.326 152.564 157.596C151.801 158.413 150.656 159.394 149.653 158.496C149.519 157.871 149.573 157.731 149.712 157.1Z" fill="#FBAF55"/>
<path d="M135.021 175.887C137.754 177.248 136.868 181.469 136.51 183.891L134.451 186.102C133.82 185.728 133.144 184.084 132.996 183.349C132.451 180.651 133.651 178.125 135.021 175.887Z" fill="#FDBC2F"/>
<path d="M154.562 159.027C155.438 158.915 155.597 158.724 156.184 159.117C156.526 160.981 152.811 164.8 151.19 165.564C150.184 165.746 149.219 166.079 148.244 166.389C148.449 165.392 148.605 164.347 149.064 163.447L149.818 162.343C150.922 160.552 152.563 159.539 154.562 159.027Z" fill="#FDBC2F"/>
<path d="M149.818 162.343C150.922 160.552 152.563 159.539 154.562 159.027C154.255 160.469 151.39 162.715 150.189 162.561L149.818 162.343Z" fill="#FDC647"/>
<path d="M148.244 166.389C148.449 165.392 148.605 164.347 149.064 163.447C149.53 163.973 150.592 165.211 151.19 165.564C150.184 165.746 149.219 166.079 148.244 166.389Z" fill="#FBAF55"/>
<path d="M141.168 167.61C140.89 166.251 141.114 163.909 142.288 163.018C145.168 162.644 145.242 167.14 144.962 169.057C144.883 169.92 144.564 171.133 143.882 171.723C141.906 172.086 141.446 169.018 141.168 167.61Z" fill="#F8BE59"/>
<path d="M141.168 167.611C142.305 169.653 142.778 169.48 144.962 169.058C144.882 169.921 144.564 171.134 143.882 171.724C141.906 172.087 141.446 169.019 141.168 167.611Z" fill="#F9AC17"/>
<path d="M144.693 161.27C144.658 159.414 144.411 156.363 145.737 154.937C148.367 154.356 148.195 160.817 148.061 162.383L147.86 162.627C147.653 163.426 147.596 163.915 147.022 164.509L146.483 164.59C146.201 164.349 145.99 164.199 145.777 163.889C145.116 162.778 144.992 162.523 144.693 161.27Z" fill="#FDC647"/>
<path d="M144.693 161.27C145.446 161.568 145.748 161.389 146.441 161.896C147.16 162.424 147.204 162.392 148.062 162.383L147.86 162.627C147.653 163.426 147.596 163.915 147.023 164.509L146.483 164.59C146.201 164.349 145.99 164.199 145.778 163.889C145.117 162.778 144.993 162.523 144.693 161.27Z" fill="#F9AC17"/>
<path d="M145.777 163.89C146.483 162.728 146.674 162.824 147.86 162.627C147.653 163.426 147.596 163.915 147.022 164.51L146.482 164.59C146.201 164.349 145.99 164.2 145.777 163.89Z" fill="#F9AC17"/>
<path d="M137.625 172.59C137.945 171.548 138.216 170.338 139.081 169.665C140.677 169.612 141.026 172.404 141.167 173.678C141.324 174.946 141.156 175.55 140.921 176.783C140.314 177.922 139.961 178.815 138.683 179.283C137.905 179.017 137.825 178.096 138.001 177.375C137.447 175.325 137.479 174.641 137.625 172.59Z" fill="#FDBC2F"/>
<path d="M137.625 172.59C137.946 171.548 138.216 170.338 139.081 169.665C140.677 169.612 141.026 172.404 141.168 173.678C140.979 173.975 141.046 173.869 140.694 174.062C139.758 173.38 139.057 173.451 137.954 173.295L137.625 172.59Z" fill="#F8BE59"/>
<path d="M138 177.376C138.785 177.334 139.224 176.776 140.92 176.783C140.313 177.922 139.96 178.815 138.682 179.284C137.904 179.017 137.824 178.097 138 177.376Z" fill="#F9AC17"/>
<path d="M124.511 135.031C123.97 133.224 121.633 128.249 124.208 126.836C126.644 127.182 127.25 132.06 127.244 134.08C126.19 134.961 126.123 135.178 124.827 135.066L124.651 135.05L124.511 135.031Z" fill="#FDC647"/>
<path d="M128.952 159.924L129.933 161.113L129.811 161.524L129.689 161.283C129.597 161.63 128.653 163.912 128.447 164.264C128.174 163.462 127.6 162.585 127.156 161.843C127.518 161.327 127.657 160.858 127.879 160.271L128.952 159.924Z" fill="#D46E06"/>
<path d="M129.374 152.68L130.009 153.211C130.209 154.046 130.061 154.024 129.79 154.968C129.355 154.669 129.297 154.539 128.979 154.104C128.889 153.404 128.996 153.292 129.374 152.68Z" fill="#FE9324"/>
<path d="M74.541 136.09C80.8963 134.607 90.4539 134.544 96.6328 136.573C105.611 139.52 116.701 146.91 119.186 156.663C120.574 162.107 117.271 163.868 116.112 168.534C115.662 170.667 116.057 175.503 115.717 177.934C115.632 177.79 114.439 176.88 114.111 176.575C108.575 171.202 102.848 165.223 97.4323 159.698L96.47 158.736L92.3726 154.402C89.8852 151.972 85.3827 147.414 83.2716 144.844C81.7557 143.569 80.9238 142.736 79.5652 141.284C78.6828 140.565 76.8985 138.548 76.0473 137.631C75.5571 137.07 75.1359 136.542 74.541 136.09Z" fill="#BD680D"/>
<path d="M104.005 152.515C106.733 150.931 109.06 151.274 111.932 151.808C115.561 152.484 116.762 155.713 117.401 156.008C118.565 162.741 115.882 162.59 114.413 168.206C113.998 169.791 114.226 174.635 114.11 176.573C108.574 171.2 102.847 165.221 97.4309 159.697L96.4685 158.735L92.3711 154.4C93.9513 153.677 98.9295 153.602 100.631 153.765C101.409 153.84 102.161 154.048 102.916 153.88L104.005 152.515Z" fill="#F7C78C"/>
<path d="M96.4688 158.736C98.4255 156.815 101.368 158.256 104.065 158.405C102.787 159.131 101.533 160.047 100.13 160.205C99.062 159.606 98.6547 159.319 97.4311 159.698L96.4688 158.736Z" fill="#F8BE59"/>
<path d="M106.557 155.029C109.578 154.722 115.621 156.101 113.694 160.391C113.47 160.109 112.761 158.77 112.55 158.432C110.226 154.714 108.891 156.793 106.959 156.347C106.462 155.79 106.612 155.93 106.557 155.029Z" fill="#F8BE59"/>
<path d="M108.668 162.695C110.603 162.95 110.883 164.459 110.402 166.05C109.062 165.701 108.591 163.951 108.668 162.695Z" fill="#F8BE59"/>
<path d="M104.884 157.201C105.651 157.299 106.139 157.295 106.447 158.008L106.151 158.74C105.468 158.795 105.081 158.887 104.46 158.57C104.352 157.84 104.436 157.989 104.884 157.201Z" fill="#F8BE59"/>
<path d="M76.0449 137.631C82.653 136.376 85.7355 136.568 91.5937 140.467C95.2213 142.882 96.5441 144.038 99.1918 147.443L100.139 146.912C101.011 148.45 102.228 150.745 103.449 151.959C103.571 152.08 103.923 152.398 104.005 152.516L102.915 153.881C102.16 154.049 101.408 153.841 100.63 153.766C98.9287 153.603 93.9504 153.678 92.3702 154.401C89.8828 151.971 85.3803 147.413 83.2693 144.844C81.7533 143.568 80.9215 142.735 79.5628 141.284C78.6804 140.565 76.8961 138.547 76.0449 137.631Z" fill="#E58311"/>
<path d="M79.5645 141.283C80.3311 140.846 82.4287 141.443 83.3825 141.645C85.2814 142.455 86.5851 143.191 88.3915 144.216C89.4766 145.06 90.4066 145.814 91.4417 146.719C89.4874 147.333 85.4687 144.332 83.2709 144.844C81.755 143.568 80.9231 142.735 79.5645 141.283Z" fill="#FBAF55"/>
<path d="M100.141 146.912C101.012 148.45 102.23 150.746 103.451 151.959C103.573 152.081 103.924 152.398 104.006 152.517L102.917 153.882C101.445 153.158 102.279 152.81 101.758 151.419C101.198 149.925 99.8179 148.943 99.1934 147.443L100.141 146.912Z" fill="#D46E06"/>
<path d="M83.3828 141.646C85.1189 140.288 87.6419 142.279 88.9108 143.608L88.3918 144.217C86.5855 143.193 85.2817 142.456 83.3828 141.646Z" fill="#D46E06"/>
<path d="M88.3906 144.216L88.9096 143.607C90.2275 144.42 92.7048 146.711 93.2224 148.041L93.0883 148.477C92.3712 148.326 92.2185 147.228 91.4408 146.719C90.4057 145.814 89.4758 145.06 88.3906 144.216Z" fill="#B45E0B"/>
<path d="M100.141 146.911C98.2122 143.223 91.9187 138.948 88.0036 137.519L87.9102 137.221C88.8125 137.01 89.7181 137.226 91.1996 137.441C101.636 138.956 113.144 145.66 117.41 155.69C117.427 155.73 117.403 155.957 117.402 156.008C116.762 155.713 115.562 152.484 111.933 151.809C109.061 151.275 106.734 150.931 104.006 152.515C103.924 152.397 103.573 152.08 103.451 151.958C102.23 150.744 101.012 148.449 100.141 146.911Z" fill="#E78822"/>
<path d="M103.535 145.232L103.961 145.256C104.563 146.347 108.975 146.986 108.328 149.733C107.495 150.313 107.206 150.168 106.094 150.281C105.165 150.193 105.597 150.698 104.648 150.521L104.634 150.79L104.579 150.669C104.974 150.174 105.057 150.091 105.232 149.487C104.583 148.67 103.058 146.831 102.588 146.024C103.016 145.793 103.217 145.599 103.535 145.232Z" fill="#E58311"/>
<path d="M134.207 197.067C141.589 188.418 147.983 187.458 158.097 184.877C154.81 187.462 152.514 189.625 148.944 191.818C148.317 192.101 146.994 192.656 146.456 192.985L145.693 193.288L145.694 193.611C146.399 194.211 146.341 193.97 146.4 194.695C143.868 195.106 137.496 196.615 136.237 199.159C135.872 198.624 134.721 197.568 134.207 197.067Z" fill="#EB9B16"/>
<path d="M146.456 192.985C146.994 192.656 148.317 192.101 148.944 191.818L149.43 192.5C149.807 192.555 150.864 192.666 151.146 192.794C152.149 193.015 153.154 193.221 154.163 193.414C148.434 196.682 144.433 200.665 138.079 200.842L136.513 199.256L136.236 199.159C137.495 196.615 143.868 195.106 146.4 194.695C146.341 193.97 146.398 194.211 145.693 193.612L145.693 193.288L146.456 192.985Z" fill="#FBAF55"/>
<path d="M146.4 194.695L147.647 194.877L147.84 195.244C146.862 197.334 141.442 199.118 139.251 199.49C138.428 199.627 137.487 199.262 136.513 199.255L136.236 199.159C137.495 196.615 143.868 195.106 146.4 194.695Z" fill="#F9AC17"/>
<path d="M146.455 192.985C146.994 192.656 148.317 192.101 148.944 191.818L149.43 192.5C149.807 192.555 150.864 192.666 151.146 192.794C150.274 193.019 147.425 193.196 146.455 192.985Z" fill="#F2E7D3"/>
<path d="M162.68 154.859C164.13 156.109 164.091 157.951 162.488 159.097C162.165 158.209 161.816 156.659 161.568 155.699L162.68 154.859Z" fill="#DF2604"/>
<path d="M131.961 131.665C131.876 130.4 131.204 129.736 131.27 127.906C131.89 128.677 132.283 130.317 132.562 131.305L131.961 131.665Z" fill="#F7C78C"/>
<path d="M145.703 152.56C145.75 151.746 145.724 150.537 146.113 149.887C146.519 150.471 146.355 151.941 146.32 152.699L145.703 152.56Z" fill="#F7C78C"/>
<path d="M35.3398 182.177C39.6807 180.854 43.8952 178.308 43.6691 172.933C43.6457 172.377 43.1862 171.587 43.0999 170.786C43.4528 170.161 44.0165 170.023 44.7053 169.723C44.3993 172.285 44.1724 174.34 44.1021 176.939L44.0521 177.141C43.8142 178.124 43.9198 179.523 43.5878 179.826C41.9989 180.115 41.3778 182.919 39.3246 183.311C39.7498 182.351 42.7323 181.213 42.4978 179.05C41.4193 179.047 38.4086 182.824 35.3398 182.177Z" fill="#DF2604"/>
<path d="M89.5028 13.981C90.4746 14.8845 91.8497 16.4472 93.2781 15.6231C93.5362 13.9472 89.3784 11.3859 89.8803 9.58362C91.4637 3.89816 97.8824 12.5078 99.2001 12.7828C100.282 10.9533 96.9889 3.10186 100.671 2.1818C106.373 0.757048 105.771 11.7576 107.649 12.7909C108.744 12.2242 111.451 4.81386 114.354 6.53849C117.273 8.27184 112.972 13.0402 113.343 14.9756L113.795 15.0808C114.668 14.8367 115.242 14.1814 115.901 13.5548C122.626 13.6806 134.259 17.813 139.975 21.0834C140.079 20.5252 140.432 19.6189 140.635 19.0476C144.519 10.771 152.327 6.05745 161.256 10.331C165.097 12.1358 168.056 15.4018 169.475 19.4012C171.939 26.4432 169.35 35.116 162.592 38.7372C161.85 39.0265 160.863 39.3184 160.378 39.9445C164.53 47.5718 167.393 54.2678 169.253 62.747C169.926 65.8181 170.151 69.1034 171.1 72.0955C173.609 77.8826 176.62 82.4028 177.574 88.9043C179.358 97.4333 177.373 106.635 172.608 113.868C168.991 119.356 165.257 122.177 160.097 125.929C159.007 124.84 157.873 123.735 156.807 122.629C146.876 112.866 137.218 108.082 124.304 103.785C121.018 102.955 117.736 102.493 114.396 101.944C110.701 101.336 108.382 98.7153 105.117 97.0219C104.984 95.1478 104.922 93.653 104.927 91.7754C110.334 90.5321 117.399 87.4258 116.102 80.5726C115.799 78.9699 114.187 77.2994 112.701 76.4942C107.202 73.5133 95.8606 73.6578 92.3202 79.5343C90.0066 83.3748 93.7142 88.3971 97.3214 89.8053C99.216 90.6972 100.953 91.1828 102.888 91.7724L102.996 96.8593C101.319 97.9116 97.7102 100.29 96.437 101.724C91.9133 102.713 87.8894 103.111 83.402 104.479C69.9473 109.06 62.312 113.323 51.8802 123.05C51.1464 123.833 49.1455 126.048 48.3864 126.526L47.8925 126.392C43.4518 122.817 40.5795 121.629 36.7781 116.612C30.9452 108.915 28.6456 100.633 29.7411 91.1192C31.2933 83.5091 33.3091 79.5322 36.3758 72.6661C36.9879 71.2955 38.0194 64.3109 38.4864 62.2161C40.265 54.2375 42.9521 48.2159 46.3904 40.9353C45.8053 40.6368 44.995 40.4189 44.3539 40.2182C40.1897 38.3544 37.1748 34.6928 36.0791 30.2895C35.2812 26.578 35.1081 24.1411 36.444 20.4423C37.9509 16.3793 40.9993 13.0744 44.9277 11.2451C53.8962 7.05122 61.8645 11.142 65.8552 19.6944C66.0437 20.0324 66.6409 21.1467 66.8425 21.3541C73.9929 17.6986 81.4705 14.9063 89.5028 13.981Z" fill="#FF9B34"/>
<path d="M83.4023 104.479C83.1485 102.864 82.569 101.142 82.1144 99.5549C79.621 90.3839 83.4025 79.5824 91.7625 74.7573C108.093 65.3314 128.377 76.9253 126.136 96.1954C125.805 99.0367 125.028 101.083 124.304 103.785C121.018 102.955 117.736 102.493 114.396 101.944C110.701 101.336 108.382 98.7152 105.117 97.0218C104.984 95.1477 104.923 93.6529 104.927 91.7754C110.334 90.532 117.4 87.4258 116.103 80.5725C115.8 78.9698 114.187 77.2994 112.701 76.4941C107.202 73.5133 95.8609 73.6577 92.3205 79.5342C90.0069 83.3747 93.7144 88.397 97.3217 89.8053C99.2162 90.6971 100.953 91.1827 102.889 91.7724L102.996 96.8592C101.319 97.9115 97.7104 100.29 96.4372 101.724C91.9136 102.713 87.8896 103.111 83.4023 104.479Z" fill="#E58311"/>
<path d="M36.0784 30.2888C35.2805 26.5773 35.1073 24.1404 36.4432 20.4416C37.9502 16.3786 40.9985 13.0738 44.927 11.2444C53.8955 7.05053 61.8637 11.1413 65.8544 19.6937C66.0429 20.0317 66.6402 21.146 66.8418 21.3534C65.9564 21.8347 65.0616 22.2987 64.1585 22.7458C62.6166 23.8194 61.0307 24.7912 59.4939 25.871C56.1762 29.2096 53.6727 30.8564 50.4276 34.8769C50.097 34.5194 49.9776 34.4604 49.5649 34.1918C49.1211 34.5305 48.9438 34.6285 48.3863 34.6854C47.2975 35.9095 46.0006 37.7983 45.008 39.1634C44.822 39.5542 44.6831 39.9454 44.3532 40.2175C40.1889 38.3537 37.1741 34.6921 36.0784 30.2888Z" fill="#FE9324"/>
<path d="M48.3855 34.685C46.7121 33.2852 45.7259 32.6481 44.7376 30.6403C43.7595 28.6353 43.6288 26.3211 44.3751 24.2187C45.083 22.2769 46.6237 20.6801 48.498 19.8283C50.2642 19.0099 52.2846 18.9337 54.1072 19.6166C56.0824 20.3633 57.8619 22.1595 58.7447 24.0619L59.4931 25.8706C56.1754 29.2091 53.6719 30.8559 50.4268 34.8765C50.0961 34.519 49.9767 34.4599 49.5641 34.1913C49.1203 34.53 48.943 34.628 48.3855 34.685Z" fill="#482604"/>
<path d="M50.3362 21.2466C52.5256 21.0921 56.4239 22.0374 56.6763 24.4828C56.8692 26.3528 52.1623 29.9141 50.8016 31.4945L49.6786 33.0543C46.7671 33.2205 41.8846 23.8165 50.3362 21.2466Z" fill="#D46E06"/>
<path d="M36.0781 30.2891C37.5284 31.8523 38.6838 33.3629 40.0502 34.8699C41.2183 36.1584 43.6095 38.0112 45.0078 39.1636C44.8218 39.5544 44.6829 39.9457 44.3529 40.2178C40.1887 38.354 37.1738 34.6924 36.0781 30.2891Z" fill="#E58311"/>
<path d="M58.7461 24.0628C60.2822 23.2339 61.8025 22.2438 63.3625 21.4707C63.5896 21.8475 63.9037 22.4114 64.159 22.7462C62.6172 23.8199 61.0312 24.7916 59.4944 25.8715L58.7461 24.0628Z" fill="#D46E06"/>
<path d="M65.8557 19.6953C66.0442 20.0333 66.6415 21.1476 66.8431 21.355C65.9577 21.8362 65.0629 22.3003 64.1598 22.7473C63.9045 22.4126 63.5904 21.8486 63.3633 21.4718C64.327 20.6053 64.6565 20.273 65.8557 19.6953Z" fill="#B45E0B"/>
<path d="M140.635 19.0474C144.519 10.7708 152.327 6.05728 161.256 10.3309C165.097 12.1356 168.056 15.4016 169.475 19.4011C171.939 26.4431 169.35 35.1158 162.592 38.737C161.159 37.7509 159.256 35.0731 157.969 33.6208C157.426 33.827 156.892 34.0056 156.39 34.2947C153.441 30.6053 150.878 28.4726 147.296 25.5655L147.814 23.2712C145.624 23.0055 142.023 19.6334 140.635 19.0474Z" fill="#FE9324"/>
<path d="M147.813 23.2722C148.733 21.2438 150.013 19.7683 152.154 18.9667C154.117 18.239 156.291 18.338 158.18 19.2413C159.959 20.0906 161.322 21.6213 161.96 23.4876C162.653 25.5205 162.486 27.7487 161.497 29.6554C160.492 31.612 159.567 32.2161 157.968 33.6218C157.425 33.828 156.891 34.0066 156.389 34.2957C153.44 30.6063 150.877 28.4736 147.295 25.5665L147.813 23.2722Z" fill="#482604"/>
<path d="M154.788 20.2922C158.142 20.0849 160.032 23.496 160.878 26.1908C160.466 27.846 159.727 29.4021 158.704 30.7672C158.175 31.4625 157.753 31.9394 156.92 32.0549L156.551 31.5743C153.855 28.6084 152.264 27.224 149.221 24.6882C150.795 21.6051 151.503 21.0816 154.788 20.2922Z" fill="#D46E06"/>
<path d="M177.574 88.9043C179.358 97.4333 177.373 106.635 172.607 113.868C168.991 119.356 165.257 122.177 160.097 125.929C159.007 124.84 157.873 123.735 156.807 122.629C157.312 122.428 157.928 121.996 158.406 121.715C168.477 115.793 176.121 105.375 176.288 93.4013C176.314 91.5373 176.299 90.2893 177.574 88.9043Z" fill="#E58311"/>
<path d="M29.7411 91.1191C30.1925 92.4155 30.7158 92.2693 30.9493 93.1928C31.5075 95.4017 31.2515 98.3917 31.8859 100.505C34.7237 109.956 41.2121 117.806 49.8571 122.532C50.2373 122.74 51.4263 122.964 51.8802 123.05C51.1464 123.833 49.1455 126.048 48.3864 126.526L47.8925 126.391C43.4518 122.817 40.5795 121.629 36.7781 116.612C30.9452 108.915 28.6456 100.633 29.7411 91.1191Z" fill="#E58311"/>
<path d="M140.635 19.0469C142.023 19.6328 145.623 23.005 147.813 23.2706L147.296 25.5649C145.018 24.1702 142.508 21.948 139.975 21.0826C140.078 20.5244 140.432 19.6182 140.635 19.0469Z" fill="#D46E06"/>
<path d="M48.3867 34.687C48.9442 34.6301 49.1214 34.532 49.5653 34.1934C49.9779 34.462 50.0973 34.521 50.4279 34.8785C48.8296 37.0807 47.8386 38.7303 46.39 40.9362C45.8049 40.6377 44.9946 40.4198 44.3535 40.2191C44.6835 39.947 44.8224 39.5557 45.0084 39.1649C46.001 37.7999 47.2979 35.9111 48.3867 34.687Z" fill="#B45E0B"/>
<path d="M157.97 33.6211C159.256 35.0734 161.16 37.7512 162.593 38.7373C161.851 39.0267 160.864 39.3185 160.379 39.9447C159.819 38.5771 157.406 35.5664 156.391 34.295C156.893 34.0059 157.427 33.8273 157.97 33.6211Z" fill="#B45E0B"/>
<path d="M53.9849 82.7832C56.067 82.848 58.793 83.7175 60.4494 84.987C62.403 86.5027 63.6665 88.7391 63.957 91.1946C64.2511 93.621 63.5483 96.0629 62.0092 97.9616C59.8288 100.609 57.441 101.144 54.2951 101.468C52.1962 101.482 49.8364 100.928 48.1017 99.7363C46.1211 98.3581 44.7714 96.2473 44.3517 93.8712C43.2162 87.3872 48.2133 83.7166 53.9849 82.7832Z" fill="#FBAF55"/>
<path d="M152.324 82.7431C164.629 81.8499 168.32 98.7527 155.248 101.279C147.117 101.86 141.144 96.2389 144.91 87.804C146.28 84.7364 149.241 83.6375 152.324 82.7431Z" fill="#FBAF55"/>
<path d="M73.348 66.7209C82.7496 66.3095 83.8637 81.7939 76.3142 85.0597C75.7133 85.3196 74.6777 85.5019 74.0167 85.6314C63.9362 85.603 63.6262 68.32 73.348 66.7209Z" fill="#482604"/>
<path d="M73.4722 69.6052C77.2094 69.5193 76.7318 72.7904 74.5579 74.9848C71.6948 74.7664 70.5697 71.5355 73.4722 69.6052Z" fill="#F1EFEE"/>
<path d="M132.59 66.664C144.002 66.0027 143.473 84.3318 135.497 85.2275C125.041 86.9129 122.905 69.713 132.59 66.664Z" fill="#482604"/>
<path d="M132.132 69.6203C135.622 69.5062 136.054 72.5685 133.728 74.5464C130.574 74.8102 129.732 71.456 132.132 69.6203Z" fill="#F1EFEE"/>
<path d="M135.525 59.0097C136.08 58.9481 136.261 59.0264 136.815 59.1543C137.358 59.7146 137.242 59.4358 137.267 60.1915C136.186 62.5427 130.457 65.1755 128.183 66.1463C127.467 66.1759 127.357 66.1068 126.701 65.803C126.333 65.1491 126.396 65.4487 126.502 64.6586C127.53 63.097 133.591 60.0393 135.525 59.0097Z" fill="#612E02"/>
<path d="M71.083 58.9473C72.9073 59.1599 80.7378 63.2169 81.2992 64.5425C81.4264 65.2981 81.1582 65.6598 80.805 66.3282C80.4315 66.2809 80.0622 66.2024 79.7018 66.0935C77.3928 65.407 71.8334 62.6032 70.6203 60.3948C70.573 59.5119 70.5638 59.7957 71.083 58.9473Z" fill="#612E02"/>
<path d="M175.667 197.434C178.244 199.117 178.852 199.789 180.923 202.134C177.692 204.809 176.323 205.909 174.174 209.442C174.741 209.95 174.832 209.996 175.545 210.269C179.607 205.629 184.433 201.376 190.737 201.013C200.74 200.435 206.796 210.037 207.045 219.022C207.155 222.992 205.831 227.63 204.666 231.274C201.11 239.786 195.436 248.392 186.632 252.116C180.89 254.545 172.202 254.224 166.955 250.699C166.737 251.103 166.686 251.156 166.377 251.503C165.539 251.668 164.566 251.076 163.754 250.697C159.473 249.161 141.106 246.41 136.623 246.835C140.439 244.171 143.7 242.589 147.71 239.496C161.384 228.916 171.206 214.138 175.667 197.434Z" fill="#FE9324"/>
<path d="M175.667 197.434C178.244 199.117 178.852 199.789 180.923 202.134C177.692 204.809 176.323 205.909 174.174 209.442C174.741 209.95 174.832 209.996 175.545 210.269C173.21 213.555 172.859 214.597 171.01 217.729L170.944 217.927C170.216 220.021 168.817 221.991 168.027 224.048C165.784 229.885 163.553 237.274 166.347 243.276C170.407 251.96 180.622 252.417 188.251 248.631C194.809 245.377 199.308 239.85 202.431 233.347C203.219 231.706 203.021 231.655 204.666 231.274C201.11 239.786 195.436 248.392 186.632 252.116C180.89 254.545 172.202 254.224 166.955 250.699C166.737 251.103 166.686 251.156 166.377 251.503C165.539 251.668 164.566 251.076 163.754 250.697C159.473 249.161 141.106 246.41 136.623 246.835C140.439 244.171 143.7 242.589 147.71 239.496C161.384 228.916 171.206 214.138 175.667 197.434Z" fill="#E58311"/>
<path d="M174.174 209.443C174.742 209.951 174.833 209.997 175.546 210.27C173.211 213.556 172.86 214.598 171.011 217.73C170.238 216.091 173.054 210.78 174.174 209.443Z" fill="#B45E0B"/>
<path d="M163.652 249.697C162.319 248.99 159.876 245.808 160.213 244.274L160.548 244.244C161.314 244.781 163.359 247.626 164.267 248.676C164.074 248.96 163.752 249.392 163.652 249.697Z" fill="#B45E0B"/>
<path d="M163.654 249.698C163.754 249.392 164.076 248.961 164.269 248.676L166.956 250.701C166.739 251.105 166.687 251.158 166.378 251.505C165.541 251.67 164.567 251.078 163.756 250.699L163.922 250.194L163.654 249.698Z" fill="#7B3F06"/>
<path d="M186.616 223.263C198.806 222.285 197.287 242.216 184.25 245.701C171.361 247.159 174.194 225.364 186.616 223.263Z" fill="#D46E06"/>
<path d="M195.648 209.682C196.18 209.689 196.911 209.803 197.396 210.04C198.278 210.465 198.952 211.229 199.262 212.157C200.253 215.119 197.973 219.498 195.005 220.494C188.452 220.813 190.919 212.258 195.648 209.682Z" fill="#D46E06"/>
<path d="M185.345 209.646C191.3 210.705 189.239 217.926 185.18 219.6C178.843 219.717 181.239 212.319 185.345 209.646Z" fill="#D46E06"/>
<path d="M201.198 218.898C201.715 218.933 202.913 218.986 203.344 219.185C206.964 220.855 203.727 226.579 201.368 227.615C195.304 228.944 196.967 220.033 201.198 218.898Z" fill="#D46E06"/>
<path d="M27.9159 202.08C29.6862 199.775 30.4536 199.12 32.8391 197.439C36.8412 215.189 50.0938 233.411 65.4782 243.146C67.5396 244.453 69.7536 245.7 71.7801 247.022C66.5971 246.62 50.2396 249.321 45.2458 250.657C42.8899 251.525 43.7905 251.084 41.8073 250.836C36.6066 254.205 28.1848 254.487 22.5354 252.154C14.4493 248.813 8.94773 241.045 5.6405 233.232C3.70166 229.206 2.23602 223.39 2.36758 218.807C2.62374 209.884 8.70203 200.59 18.5291 201.047C24.7491 201.336 29.4086 205.627 33.3867 210.091L34.6994 209.386C32.7146 205.981 31.0827 204.489 27.9159 202.08Z" fill="#FE9324"/>
<path d="M27.916 202.08C29.6864 199.775 30.4537 199.12 32.8392 197.439C36.8413 215.189 50.094 233.411 65.4783 243.146C67.5398 244.453 69.7537 245.7 71.7803 247.022C66.5972 246.62 50.2398 249.321 45.2459 250.657C42.8901 251.525 43.7906 251.084 41.8074 250.836C36.6067 254.205 28.1849 254.487 22.5355 252.154C14.4494 248.813 8.94786 241.045 5.64062 233.232L5.98826 232.697C6.80791 233.255 7.33598 235.108 7.94895 235.953C11.3953 240.701 14.8983 245.888 20.2825 248.616C24.4344 250.717 29.9095 251.727 34.4141 250.251C37.676 249.181 40.3643 246.832 41.8637 243.746C44.4482 238.517 43.4848 230.974 41.4497 225.689C40.6123 223.514 39.0252 220.913 38.3134 218.794L38.2553 218.617C38.0363 218.015 37.0409 216.121 36.7098 215.455C35.9367 213.882 34.3787 211.62 33.3868 210.091L34.6995 209.386C32.7147 205.981 31.0829 204.489 27.916 202.08Z" fill="#E58311"/>
<path d="M41.8066 250.835C41.873 250.738 45.0509 248.295 45.7422 247.639C46.8306 246.603 48.107 243.951 48.5807 243.586L48.6638 244.068C48.2666 245.629 46.176 248.787 45.1517 250.112L45.2451 250.656C42.8893 251.524 43.7898 251.083 41.8066 250.835Z" fill="#7B3F06"/>
<path d="M34.6994 209.387C36.3354 211.251 36.745 212.431 37.6865 214.707L36.7097 215.455C35.9366 213.883 34.3786 211.621 33.3867 210.092L34.6994 209.387Z" fill="#B45E0B"/>
<path d="M37.6858 214.707C38.1381 215.802 38.9863 217.527 38.2545 218.617C38.0355 218.016 37.0401 216.121 36.709 215.456L37.6858 214.707Z" fill="#BD680D"/>
<path d="M20.0061 223.252C31.2815 222.864 39.0243 241.169 27.2996 245.711C16.7091 248.009 7.64806 226.735 20.0061 223.252Z" fill="#D46E06"/>
<path d="M12.4284 209.689C17.043 210.587 20.5659 218.497 15.6885 220.541C15.1705 220.55 13.9664 220.575 13.5055 220.353C9.75685 218.539 7.61421 211.621 12.4284 209.689Z" fill="#D46E06"/>
<path d="M22.3302 209.625C26.7604 210.137 29.8946 217.671 25.0114 219.801C20.8354 219.765 18.9925 214.5 20.8196 211.101C21.0343 210.702 21.9552 209.946 22.3302 209.625Z" fill="#D46E06"/>
<path d="M5.9055 218.919C7.07242 218.857 8.09937 219.029 9.25124 219.181C11.1045 221.92 13.3731 225.364 9.93715 227.812C7.62209 227.899 6.66547 227.11 5.35548 225.22C3.92747 223.162 3.58209 220.393 5.9055 218.919Z" fill="#D46E06"/>
<path d="M175.336 144.596C176.14 144.738 179.93 145.919 179.925 145.92C180.705 146.544 181.795 148.317 182.101 149.259C183.046 150.297 184.354 151.377 185.195 152.416C188.821 156.897 190.429 164.281 188.568 169.879C187.475 173.994 184.588 177.766 180.974 180.023C180.229 180.489 179.073 181.114 178.195 180.951C178.081 180.563 177.974 180.175 177.873 179.782C177.155 179.628 175.647 179.732 174.865 179.773C171.782 179.938 168.555 178.77 167.025 175.892C166.175 174.531 165.726 171.691 167.345 170.669C167.536 170.393 167.819 169.851 167.995 169.539C165.969 168.816 165.111 168.205 164.097 166.405C162.446 161.836 164.462 159.852 167.817 157.164L167.712 156.054C167.008 156.28 166.72 156.429 165.985 156.248C165.331 155.808 165.145 154.74 164.909 153.942C165.671 149.432 168.312 147.544 172.61 146.729L174.457 146.393C175.14 145.792 175.016 145.611 175.336 144.596Z" fill="#FE9324"/>
<path d="M167.023 175.892C169.287 176.921 168.946 179.077 173.971 179.277C180.522 179.821 183.833 178.983 186.899 172.673C187.233 171.987 187.947 170.359 188.567 169.879C187.474 173.994 184.586 177.766 180.973 180.023C180.228 180.489 179.072 181.114 178.194 180.951C178.08 180.563 177.972 180.175 177.872 179.782C177.154 179.628 175.646 179.732 174.863 179.773C171.781 179.938 168.554 178.77 167.023 175.892Z" fill="#D46E06"/>
<path d="M175.335 144.596C176.14 144.738 179.929 145.919 179.925 145.92C180.705 146.544 181.794 148.317 182.101 149.259C178.088 147.115 177.137 146.77 172.609 146.729L174.457 146.393C175.14 145.792 175.016 145.611 175.335 144.596Z" fill="#7B3F06"/>
<path d="M168.762 169.309C170.034 169.199 172.802 168.694 173.74 169.569C172.761 171.004 168.959 170.981 167.346 170.669C167.537 170.393 167.819 169.851 167.995 169.539L168.762 169.309Z" fill="#B45E0B"/>
<path d="M167.711 156.055C169.73 155.306 170.831 155.366 172.821 156.039L173.049 156.341C172.099 157.02 169.119 157.042 167.816 157.165L167.711 156.055Z" fill="#B45E0B"/>
<path d="M164.096 166.406C165.943 167.061 167.568 167.722 168.76 169.311L167.993 169.54C165.968 168.817 165.109 168.206 164.096 166.406Z" fill="#FE9324"/>
<path d="M39.7408 170.542C42.5347 171.458 41.5536 174.452 40.6184 176.34C38.8102 179.991 34.3935 179.83 30.9558 179.961C30.4524 179.979 30.1156 180.861 29.3363 181.113C27.8861 180.739 26.8615 180.103 25.7082 179.185C21.4805 175.738 20.087 172.338 19.3538 166.896C17.8588 155.797 29.3978 141.274 40.8859 149.023C42.9404 150.408 43.5799 154.12 42.4858 156.229C42.3708 156.452 41.3747 156.39 41.1006 156.397C40.3956 156.756 40.6484 156.563 40.1504 157.294C41.0794 157.971 42.0789 158.646 42.8043 159.546C45.9057 163.396 44.7057 167.959 40.0328 169.667L39.7408 170.542Z" fill="#FE9324"/>
<path d="M39.7428 170.542C38.6138 171.182 34.7226 170.999 34.2852 169.515C35.3556 168.719 38.5089 169.495 40.0349 169.667L39.7428 170.542Z" fill="#B45E0B"/>
<path d="M40.151 157.295C38.5568 156.972 36.6416 157.4 35.3066 156.703L35.3624 156.384C37.0437 155.344 39.3855 155.509 41.1012 156.398C40.3963 156.757 40.6491 156.564 40.151 157.295Z" fill="#B45E0B"/>
<path d="M98.528 77.4018C100.814 76.0443 105.781 76.2925 108.385 77.0163C110.299 77.5481 111.021 78.1492 112.575 78.656C114.985 80.4648 113.474 83.8744 112.398 86.213C112.152 86.7473 110.746 87.0054 110.32 87.3641C108.834 89.0508 108.64 89.2871 106.143 89.4363C102.057 89.6806 98.7576 88.9555 95.5187 86.2925C94.1787 85.191 93.9569 83.0377 93.873 81.3174C94.0223 79.9317 94.0457 79.7549 95.2498 79.0279C95.9901 78.5402 97.5519 77.9552 98.528 77.4018Z" fill="#612E02"/>
<path d="M98.5262 77.4018C100.812 76.0443 105.779 76.2925 108.384 77.0163C110.297 77.5481 111.019 78.1492 112.573 78.656L112.866 79.3841C112.469 80.1884 111.853 80.7801 111.007 81.0377C108.41 81.8288 99.6176 81.6384 97.2884 81.145L96.4375 80.7987C96.1977 80.5636 95.4666 79.3705 95.248 79.0279C95.9883 78.5402 97.5502 77.9552 98.5262 77.4018Z" fill="#8E440E"/>
<path d="M98.5262 77.4011C99.8114 77.3721 101.555 77.23 101.875 78.8036C101.266 80.2364 98.7439 81.1881 97.2884 81.1442L96.4375 80.798C96.1977 80.5629 95.4666 79.3698 95.248 79.0272C95.9883 78.5395 97.5502 77.9544 98.5262 77.4011Z" fill="#B45E0B"/>
<path d="M93.873 81.3168C94.0223 79.9311 94.0457 79.7543 95.2498 79.0273C95.4684 79.3699 96.1995 80.563 96.4392 80.7981C95.588 81.1338 94.7036 81.6229 93.873 81.3168Z" fill="#7B3F06"/>
<path d="M109.019 82.1523C109.876 82.3071 110.432 83.128 110.324 83.9693L109.964 83.8496C109.168 83.9991 108.551 84.2664 107.953 83.6761C108.065 82.9998 108.52 82.6653 109.019 82.1523Z" fill="#482604"/>
<path d="M28.4531 146.719C30.9371 141.434 39.8968 131.897 44.4487 128.152C44.6165 128.963 44.8051 130.05 45.0948 130.796C41.6779 135.593 39.3912 139.345 36.801 144.617C33.2656 144.489 31.4278 145.125 28.4531 146.719Z" fill="#FE9324"/>
<path d="M160.996 126.367C166.793 129.631 176.585 140.153 179.924 145.92C179.928 145.919 176.138 144.738 175.334 144.595C174.344 144.554 173.305 144.491 172.319 144.515C169.2 138.716 166.177 133.293 162.129 128.075C161.744 127.578 161.276 126.924 160.996 126.367Z" fill="#FE9324"/>
<path d="M103.588 98.4959C104.473 98.4222 107.876 100.651 108.87 101.249C107.333 101.321 105.565 101.285 104.007 101.287C102.38 101.278 100.473 101.398 98.8262 101.462C100.579 100.454 102.041 99.8153 103.588 98.4959Z" fill="#E58311"/>
<path d="M47.891 126.391L48.3849 126.525C47.3257 127.978 46.2282 129.402 45.0934 130.796C44.8036 130.05 44.6151 128.963 44.4473 128.152C45.1986 127.609 46.8759 126.98 47.891 126.391Z" fill="#D46E06"/>
</svg>
