<svg width="280" height="332" viewBox="0 0 280 332" fill="none" xmlns="http://www.w3.org/2000/svg">
<path d="M133.281 23.8379C135.807 18.8244 138.21 14.2695 143.754 12.035C147.362 10.581 151.089 10.6202 154.63 12.2347C159.21 14.323 162.45 18.4881 163.984 23.214C166.499 30.9635 164.184 36.5655 160.714 43.4743C164.624 48.8489 167.897 54.405 170.774 60.3862C181.773 83.2544 194.509 119.02 188.277 144.246C186.412 151.797 181.95 156.913 179.536 163.877C181.487 164.68 182.635 164.236 184.695 163.932C186.996 161.287 186.291 159.846 187.198 156.783C189.308 149.651 192.795 154.64 195.581 152.18C199.419 148.793 197.861 142.798 203.379 139.555C206.471 139.207 207.45 139.996 210.142 141.372C211.552 140.559 212.97 139.56 214.625 139.406C215.704 139.305 216.184 140.102 216.96 140.744L218.676 143.865C218.952 143.934 219.232 143.991 219.505 144.071C223.71 145.306 226.355 148.804 228.312 152.587C231.759 159.25 230.437 167.234 228.191 174.066C223.208 189.222 211.414 206.097 196.879 213.393C196.038 213.822 195.183 214.223 194.315 214.596C197.042 220.943 200.099 227.311 202.192 233.897L207.571 228.222C209.808 225.734 211.696 222.982 215.091 222.216C216.32 222.869 216.725 222.731 217.199 224.137C217.949 226.36 216.895 229.741 216.452 232L217.768 232.332L218.608 231.477C222.733 227.322 231.003 220.584 237.246 220.808C238.549 220.855 239.54 221.422 240.653 222.034C242.209 224.409 242.493 225.313 241.866 228.245C240.429 234.972 235.903 240.539 232.059 246.084C235.108 248.963 241.144 246.262 241.766 251.826C238.981 256.577 232.654 262.634 227.156 263.937C226.548 264.081 226.34 264.1 225.769 264.179L225.072 265.745C227.855 272.296 237.629 272.59 235.549 278.488C233.976 279.795 232.447 281.155 230.701 282.229C233.91 285.129 238.494 288.232 238.568 292.97C238.615 295.989 236.776 298.122 234.67 300.053C232.638 301.916 230.325 303.472 228.057 305.027C224.655 306.665 211.877 307.802 210.867 309.539C210.307 311.899 210.292 313.484 207.873 314.689C206.79 315.229 205.457 315.506 204.287 315.809C199.457 316.436 192.279 316.462 187.936 318.23C184.641 318.401 181.449 317.708 178.213 317.155C177.322 318.107 176.934 319.18 176.397 320.353C174.208 321.803 173.637 321.983 171.017 322.19C168.508 320.596 165.028 318.238 161.892 318.791C156.552 319.735 151.795 324.278 146.298 325.454C140.141 326.769 133.986 323.099 128.062 323.726C123.186 324.242 117.679 328.209 112.692 329.404C98.3735 332.835 81.9643 330.303 67.6143 327.918C56.2632 326.032 23.6186 321.965 16.6914 312.28C15.9808 308.46 17.9082 306.364 18.6847 302.653C12.6391 300.118 5.30691 297.103 1.58593 291.355C0.188649 289.198 -0.406378 286.675 0.295605 284.162C1.5735 279.587 5.92959 276.866 9.74035 274.568C8.34594 271.398 7.07951 268.175 5.94201 264.904C-2.3557 240.398 2.44546 210.87 11.024 187.029C16.2205 172.588 22.8536 158.471 26.4628 143.525C29.0024 133.012 30.0673 122.099 31.6231 111.402C35.0748 87.6536 40.2188 67.9111 50.6903 46.301C49.506 44.7525 48.4277 43.1246 47.4641 41.429C44.7335 36.5225 44.3104 30.3846 45.9073 25.0444C47.4316 19.9469 51.0695 15.2678 55.9156 12.9511C59.775 11.1064 64.026 10.7492 68.0546 12.2662C74.0037 14.5074 76.7124 19.24 79.102 24.6986C97.6687 18.7241 114.575 19.3422 133.281 23.8379Z" fill="#FF9A43"/>
<path d="M133.281 23.8379C135.807 18.8244 138.21 14.2695 143.754 12.035C147.362 10.581 151.089 10.6202 154.63 12.2347C159.21 14.323 162.45 18.4881 163.984 23.214C166.499 30.9635 164.184 36.5655 160.714 43.4743C164.624 48.8489 167.897 54.405 170.774 60.3862C181.773 83.2544 194.509 119.02 188.277 144.246C186.412 151.797 181.95 156.913 179.536 163.877C181.487 164.68 182.635 164.236 184.695 163.932C186.996 161.287 186.291 159.846 187.198 156.783C189.308 149.651 192.795 154.64 195.581 152.18C199.419 148.793 197.861 142.798 203.379 139.555C206.471 139.207 207.45 139.996 210.142 141.372C211.552 140.559 212.97 139.56 214.625 139.406C215.704 139.305 216.184 140.102 216.96 140.744L213.591 141.519C214.387 142.451 213.885 142.162 215.106 142.375C213.729 143.605 212.055 144.859 210.968 146.337C210.618 144.433 210.786 144.359 209.24 143.239L207.079 144.35L205.316 142.843C203.274 143.299 203.038 143.463 201.887 145.251C199.175 149.463 198.475 155.778 197.534 160.599C195.339 158.721 193.736 155.949 190.853 155.654C187.57 160.42 190.984 167.768 187.17 171.268C186.235 163.514 174.632 171.316 170.491 168.3C170.597 166.741 173.558 162.952 174.746 161.644C201.051 132.67 174.564 69.8151 155.076 41.8235L151.986 38.8582C149.588 36.6553 147.331 35.4583 144.561 33.7808L136.686 29.5573C118.887 22.3352 101.144 22.4393 82.1792 27.9982C80.7151 28.4281 79.7466 29.8726 78.9558 31.1049C73.3505 28.3192 70.7107 11.1198 60.8409 14.8598C50.3885 18.8187 46.1384 27.7585 50.506 38.307C51.4477 40.5816 56.4895 47.2621 56.2871 47.5067C47.4488 58.167 44.4107 69.2725 40.7222 82.5618C34.899 103.54 35.3298 126.287 29.713 147.269C21.6665 173.131 11.4242 189.912 7.49308 217.742L8.42141 217.849L8.90372 217.477C11.8444 227.835 15.3677 253.879 24.7275 259.289C25.9213 259.978 27.1371 260.145 28.48 260.324L31.3213 258.932C31.7883 252.786 24.163 245.881 27.1161 235.051C29.5143 226.257 38.9352 220.236 46.2874 215.923L47.8862 214.944C47.4745 211.923 45.6198 209.427 44.4174 206.671C43.6323 204.87 42.745 203.207 43.5205 201.361L44.1929 202.817C46.3218 203.95 48.2042 204.788 50.5594 205.326C54.4504 208.387 57.4513 210.947 62.54 211.503L64.07 211.066L64.0566 210.566C64.5943 209 65.2915 207.685 66.218 206.303C70.6868 199.641 76.5137 200.427 83.4476 199.035L84.5641 198.805C82.312 195.544 78.464 190.653 78.825 186.445C78.8479 186.187 78.9367 185.94 78.9931 185.687C83.6262 188.856 96.2341 204.837 99.2044 209.744L98.8072 213.767C107.966 213.84 119.069 220.044 125.41 226.442C130.873 231.954 133.63 237.368 134.902 244.979C134.948 245.252 135.002 245.524 135.048 245.796C135.076 245.959 135.1 246.124 135.127 246.287C134.39 251.766 132.972 257.766 128.097 261.147C127.848 261.32 127.587 261.475 127.331 261.64L125.93 265.19C126.361 275.479 124.992 286.014 123.775 296.225L123.865 297.671C124.783 299.491 125.452 302.267 126.531 303.831C134.446 302.111 142.645 301.527 150.632 299.789C150.368 300.118 150.109 300.45 149.841 300.776C145.211 306.389 134.347 310.555 133.62 318.34L134.452 320.815C137.218 321.496 138.756 320.855 141.17 319.362C148.524 314.82 154.246 307.973 161.376 303.095C172.303 308.233 179.589 310.349 191.425 306.342C195.274 313.362 198.193 312.276 204.287 315.809C199.457 316.436 192.279 316.462 187.936 318.23C184.641 318.401 181.449 317.708 178.213 317.155C177.322 318.107 176.934 319.18 176.397 320.353C174.208 321.803 173.637 321.983 171.017 322.19C168.508 320.596 165.028 318.238 161.892 318.791C156.552 319.735 151.795 324.278 146.298 325.454C140.141 326.769 133.986 323.099 128.062 323.726C123.186 324.242 117.679 328.209 112.692 329.404C98.3735 332.835 81.9643 330.303 67.6143 327.918C56.2632 326.032 23.6186 321.965 16.6914 312.28C15.9808 308.46 17.9082 306.364 18.6847 302.653C12.6391 300.118 5.30691 297.103 1.58593 291.355C0.188649 289.198 -0.406378 286.675 0.295605 284.162C1.5735 279.587 5.92959 276.866 9.74035 274.568C8.34594 271.398 7.07951 268.175 5.94201 264.904C-2.3557 240.398 2.44546 210.87 11.024 187.029C16.2205 172.588 22.8536 158.471 26.4628 143.525C29.0024 133.012 30.0673 122.099 31.6231 111.402C35.0748 87.6536 40.2188 67.9111 50.6903 46.301C49.506 44.7525 48.4277 43.1246 47.4641 41.429C44.7335 36.5225 44.3104 30.3846 45.9073 25.0444C47.4316 19.9469 51.0695 15.2678 55.9156 12.9511C59.775 11.1064 64.026 10.7492 68.0546 12.2662C74.0037 14.5074 76.7124 19.24 79.102 24.6986C97.6687 18.7241 114.575 19.3422 133.281 23.8379Z" fill="#6B3E0F"/>
<path d="M9.74035 274.568C14.1394 281.238 18.8174 286.761 25.0379 291.789C24.7934 297.593 23.6005 304.92 27.6987 309.645C33.5333 316.37 82.6424 324.871 93.1301 325.186C102.587 325.469 116.454 322.301 123.431 315.525C125.396 313.617 126.953 311.031 127.004 308.22C127.03 306.761 126.77 305.266 126.531 303.831C134.446 302.112 142.645 301.527 150.632 299.79C150.368 300.118 150.109 300.451 149.841 300.776C145.211 306.39 134.347 310.555 133.62 318.341L134.452 320.815C137.218 321.496 138.756 320.855 141.17 319.363C148.524 314.82 154.246 307.974 161.376 303.096C172.303 308.234 179.589 310.35 191.425 306.342C195.274 313.363 198.193 312.276 204.287 315.809C199.457 316.437 192.279 316.463 187.936 318.231C184.641 318.402 181.449 317.708 178.213 317.155C177.322 318.108 176.934 319.18 176.397 320.354C174.208 321.804 173.637 321.983 171.017 322.191C168.508 320.596 165.028 318.239 161.892 318.792C156.552 319.735 151.795 324.279 146.298 325.454C140.141 326.769 133.986 323.099 128.062 323.727C123.186 324.243 117.679 328.209 112.692 329.404C98.3735 332.836 81.9643 330.303 67.6143 327.919C56.2632 326.033 23.6186 321.965 16.6914 312.28C15.9808 308.461 17.9082 306.365 18.6847 302.654C12.6391 300.118 5.30691 297.103 1.58593 291.355C0.188649 289.198 -0.406378 286.675 0.295605 284.163C1.5735 279.588 5.92959 276.867 9.74035 274.568Z" fill="#E4CBAF"/>
<path d="M178.215 317.155C178.829 314.663 179.259 313.518 181.182 311.784C183.79 311.122 183.906 311.364 186.239 312.425C187.584 314.487 187.801 315.79 187.938 318.23C184.643 318.401 181.451 317.708 178.215 317.155Z" fill="#E89A2C"/>
<path d="M114.244 247.668C114.392 245.167 113.525 242.6 112.58 240.299C107.327 227.505 93.2189 221.891 81.418 216.893L81.46 215.587C84.628 213.51 89.4091 212.821 93.1072 213.488C94.9524 213.82 96.406 213.999 98.277 213.827C98.4537 213.81 98.6313 213.788 98.808 213.768C107.967 213.841 119.07 220.045 125.411 226.444C130.874 231.956 133.631 237.369 134.903 244.98C134.949 245.254 135.003 245.525 135.048 245.797C135.077 245.96 135.101 246.125 135.128 246.288C130.767 248.57 122.088 252.939 117.163 251.666C116.573 251.514 116.3 251.314 115.739 251.012L114.244 247.668Z" fill="#E48E33"/>
<path d="M103.742 222.14C105.373 222.027 107.022 221.897 108.657 221.903C111.652 221.913 112.951 222.529 115.015 224.554C113.028 224.709 110.825 225.021 108.839 224.878C106.006 224.675 105.497 224.311 103.742 222.14Z" fill="#F7B13C"/>
<path d="M115.439 231.437C116.202 231.125 115.759 231.246 116.954 231.217C118.633 231.178 119.689 232.841 120.883 233.973C118.801 234.266 117.392 234.544 115.389 233.653L115.439 231.437Z" fill="#E09E4D"/>
<path d="M104.682 304.303C105.078 294.653 104.121 282.549 106.644 273.368C107.989 268.475 121.191 268.121 125.447 265.509C125.611 265.407 125.769 265.295 125.93 265.189C126.361 275.479 124.991 286.013 123.775 296.225L123.864 297.671L123.14 305.632L119.981 304.671C116.179 307.124 111.334 312.141 107.069 312.648C105.046 310.904 105.085 310.016 104.884 307.432C104.809 306.39 104.742 305.347 104.682 304.303Z" fill="#DF8027"/>
<path d="M7.49461 217.742L8.42293 217.849L8.90525 217.477C11.8459 227.835 15.3692 253.879 24.729 259.289C25.9228 259.978 27.1387 260.145 28.4815 260.324L31.3228 258.932C28.5063 267.604 27.2657 278.227 26.5599 287.347C21.3996 282.994 17.2097 278.436 13.971 272.482C5.7707 257.41 2.69248 234.348 7.49461 217.742Z" fill="#C26510"/>
<path d="M136.688 29.5576C139.099 23.5076 136.901 21.0983 143.572 16.3466C145.616 14.8745 148.175 14.3089 150.649 14.7828C161.881 16.8415 165.337 33.8766 155.077 41.8238L151.987 38.8585C149.589 36.6556 147.332 35.4586 144.562 33.7811L136.688 29.5576Z" fill="#CE6F17"/>
<path d="M144.562 33.7815C146.108 30.0644 146.902 27.1507 149.847 24.4844C152.565 23.8596 151.286 23.722 153.812 24.9162L154.52 26.8727C153.343 28.5321 152.606 28.7623 150.853 29.7338C150.601 35.2355 154.509 32.7526 151.987 38.859C149.589 36.656 147.332 35.459 144.562 33.7815Z" fill="#4D2809"/>
<path d="M114.243 247.667L115.738 251.011C116.3 251.313 116.573 251.513 117.162 251.665C122.087 252.938 130.766 248.569 135.127 246.287C134.391 251.766 132.972 257.766 128.098 261.147C127.848 261.32 127.587 261.476 127.331 261.64C123.458 262.882 117.916 265.079 114.152 263.374C112.67 259.944 114.231 251.715 114.243 247.667Z" fill="#C8761D"/>
<path d="M84.5641 198.805L94.09 208.914C92.6927 208.809 89.0214 208.068 87.861 208.448C83.5145 209.868 83.7971 212.783 79.568 208.353C74.3724 208.441 69.1606 209.647 64.0566 210.566C64.5943 209 65.2916 207.684 66.218 206.303C70.6868 199.641 76.5137 200.427 83.4476 199.035L84.5641 198.805Z" fill="#A85914"/>
<path d="M104.682 304.303C104.742 305.347 104.809 306.39 104.884 307.432C105.085 310.016 105.045 310.904 107.069 312.648C111.334 312.141 116.179 307.124 119.981 304.671L123.14 305.632C123.058 308.36 122.938 310.556 120.922 312.586C116.663 316.874 108.715 318.563 103.156 320.397C103.663 315.27 103.365 309.222 104.682 304.303Z" fill="#CB741B"/>
<path d="M44.1934 202.818C46.3222 203.951 48.2047 204.789 50.5599 205.327C54.4509 208.388 57.4518 210.948 62.5404 211.504C59.1795 212.191 55.7202 212.661 52.8063 214.585C50.6946 210.334 47.1455 206.508 44.1934 202.818Z" fill="#C26510"/>
<path d="M62.5414 211.503L64.0714 211.066C65.9634 211.477 67.5727 211.465 68.9929 212.831L68.4294 214.216C63.3159 216.268 57.5396 215.913 52.1501 215.552L52.0098 215.047L52.8072 214.584C55.7212 212.66 59.1805 212.19 62.5414 211.503Z" fill="#4D2809"/>
<path d="M65.6837 220.312C68.0113 219.813 71.0092 220.171 73.3759 220.448C85.3086 221.844 97.6616 227.345 105.204 236.976C108.722 241.468 111.286 247.035 110.819 252.867C110.239 260.112 103.795 261.241 101.858 267.155C100.777 270.457 102.319 274.855 101.984 278.279C101.696 281.231 100.198 283.875 100.072 287.019C99.7829 294.251 100.94 301.758 99.9834 308.929C99.4419 312.986 98.0265 316.061 94.72 318.519C88.3477 319.231 80.9898 316.849 74.7742 315.461C67.0695 315.109 40.3188 309.236 33.935 305.651C25.0681 300.671 38.9606 262.632 36.5395 254.334C35.7296 251.558 33.7622 249.095 33.0267 246.161C32.1022 242.468 32.3658 238.3 34.4326 235.075C35.977 232.668 36.9425 230.456 39.037 228.384C46.0358 221.463 56.3297 220.295 65.6837 220.312Z" fill="#E4CBAF"/>
<path d="M88.4935 276C89.4773 277.678 89.5929 279.666 89.887 281.558C89.1449 284.591 87.3761 285.887 85.1451 287.876L83.4316 283.741C84.2482 280.154 86.081 278.727 88.4935 276Z" fill="#EBAC51"/>
<path d="M73.519 232.689C75.2783 233.066 75.9649 233.563 77.2705 234.786C77.2056 238.084 75.8275 239.645 74.1847 242.377C72.1628 241.469 71.924 241.255 70.6738 239.423C70.7063 236.538 71.9498 234.985 73.519 232.689Z" fill="#EBAC51"/>
<path d="M57.1108 250.684C58.9789 251.161 59.7238 251.702 61.1288 252.932C61.6025 255.75 60.825 256.804 59.7611 259.407C57.9598 259.12 57.3247 258.334 56.0516 257.123C55.6103 254.153 55.9485 253.499 57.1108 250.684Z" fill="#EBAC51"/>
<path d="M79.9574 254.713L82.6068 257.627C82.8493 260.804 81.8972 262.083 80.5028 264.866C79.4742 263.873 78.6136 262.732 77.712 261.625C77.6136 258.546 78.5763 257.316 79.9574 254.713Z" fill="#EBAC51"/>
<path d="M66.647 273.975C67.7673 273.578 69.0147 273.814 69.9115 274.593C70.8093 275.373 71.2171 276.575 70.9802 277.74C70.7443 278.904 69.8991 279.852 68.7683 280.22C67.0529 280.777 65.2077 279.852 64.627 278.144C64.0473 276.435 64.947 274.578 66.647 273.975Z" fill="#E09E4D"/>
<path d="M91.868 244.953C93.1621 245.48 93.8526 246.065 94.9528 246.917C95.3425 249.927 94.4801 251.29 93.3789 253.982C91.5422 253.355 90.9272 252.886 89.7601 251.337C89.3943 248.772 90.6435 247.127 91.868 244.953Z" fill="#E09E4D"/>
<path d="M47.3098 237.587C48.8226 236.917 50.5962 237.54 51.3565 239.012C52.1167 240.482 51.5991 242.29 50.177 243.137C49.178 243.731 47.9326 243.722 46.9421 243.115C45.9517 242.507 45.3796 241.4 45.456 240.24C45.5334 239.08 46.2478 238.058 47.3098 237.587Z" fill="#E48E33"/>
<path d="M85.2284 301.684C86.7976 301.159 88.5005 301.978 89.0697 303.532C89.6399 305.086 88.8692 306.812 87.3325 307.426C86.2981 307.838 85.1215 307.656 84.2609 306.951C83.3994 306.245 82.9897 305.127 83.1912 304.032C83.3927 302.937 84.1721 302.038 85.2284 301.684Z" fill="#F7B13C"/>
<path d="M45.1449 288.42C46.6721 288.513 47.8783 289.75 47.9357 291.28C47.992 292.808 46.8793 294.131 45.3636 294.338C44.2414 294.49 43.1297 293.992 42.4965 293.053C41.8633 292.113 41.8184 290.896 42.3809 289.913C42.9425 288.929 44.0141 288.351 45.1449 288.42Z" fill="#E09E4D"/>
<path d="M47.5466 263.135L50.4567 265.003C51.4442 267.659 50.7194 268.527 49.8732 271.168L46.92 269.367C45.9764 266.625 46.6555 265.828 47.5466 263.135Z" fill="#E09E4D"/>
<path d="M216.453 232.001L217.769 232.332L218.61 231.477C222.735 227.322 231.005 220.585 237.247 220.808C238.551 220.855 239.541 221.422 240.655 222.035C242.211 224.41 242.494 225.313 241.868 228.245C240.43 234.973 235.904 240.539 232.06 246.085C235.11 248.963 241.146 246.262 241.767 251.826C238.982 256.577 232.655 262.635 227.158 263.938C226.549 264.082 226.341 264.1 225.771 264.179L225.074 265.745C227.857 272.297 237.63 272.591 235.55 278.488C233.978 279.796 232.449 281.155 230.703 282.229C233.911 285.129 238.495 288.232 238.57 292.97C238.617 295.989 236.777 298.122 234.671 300.053C232.64 301.916 230.327 303.472 228.058 305.027C224.656 306.665 211.878 307.803 210.869 309.539C210.308 311.899 210.293 313.484 207.875 314.689C206.792 315.229 205.458 315.506 204.288 315.809C198.194 312.276 195.275 313.363 191.426 306.342C179.59 310.349 172.305 308.233 161.378 303.096C154.247 307.974 148.525 314.82 141.171 319.363C138.758 320.855 137.22 321.496 134.453 320.815L133.621 318.341C134.348 310.555 145.212 306.39 149.842 300.776C150.111 300.451 150.369 300.118 150.633 299.789C154.052 298.416 156.837 297.135 159.784 294.864C160.713 292.951 156.803 287.582 156.62 284.818C156.403 281.522 157.863 277.49 158.725 274.306C160.208 271.501 162.421 267.569 165.173 265.91C166.511 265.104 166.768 265.388 168.284 265.728C170.247 268.024 170.315 270.441 170.699 273.321C169.856 278.599 167.158 283.415 166.744 288.657C170.536 288.403 176.96 281.47 179.962 278.702C177.769 278.626 176.501 278.48 174.592 277.362C173.415 275.474 172.862 273.931 172.988 271.671C173.482 262.728 182.58 251.698 188.978 245.973L186.892 243.834L187.337 243.074C189.696 240.446 191.066 238.905 194.697 238.156C195.579 237.973 196.094 237.785 196.865 237.33L196.995 231.665C197.722 234.511 198.055 236.92 200.363 238.938L202.194 233.897L207.573 228.222C209.81 225.735 211.698 222.982 215.092 222.216C216.321 222.87 216.726 222.731 217.2 224.137C217.951 226.36 216.896 229.741 216.453 232.001Z" fill="#CB741B"/>
<path d="M191.426 306.343C191.615 306.27 191.811 306.214 191.994 306.127C194.216 305.077 195.169 304.771 195.932 302.437L193.481 297.948L193.429 298.075C201.498 292.714 206.806 300.402 213.311 299.984C215.158 299.866 215.887 300.839 217.39 301.874C218.624 301.943 219.909 302.026 221.138 301.87C223.668 301.549 225.107 300.002 226.655 298.139C226.687 300.756 227.065 302.608 228.058 305.028C224.656 306.666 211.878 307.804 210.868 309.54C210.308 311.9 210.292 313.485 207.874 314.69C206.791 315.23 205.458 315.507 204.288 315.81C198.193 312.277 195.275 313.363 191.426 306.343Z" fill="#D7BA9E"/>
<path d="M226.655 298.139C226.687 300.756 227.066 302.608 228.058 305.028C224.656 306.666 211.878 307.804 210.869 309.54L208.4 308.141L207.193 306.492C209.446 303.772 214.015 303.006 217.39 301.874C218.624 301.943 219.909 302.026 221.138 301.87C223.668 301.549 225.107 300.002 226.655 298.139Z" fill="#E4CBAF"/>
<path d="M208.399 308.139C207.489 309.146 206.375 309.973 205.333 310.843C202.828 311.189 202.756 311.156 200.559 309.896L200.494 308.005C202.877 306.246 204.369 306.578 207.193 306.49L208.399 308.139Z" fill="#CB741B"/>
<path d="M226.655 298.137C222.129 294.99 215.456 297.844 211.693 294.501C214.773 289.808 225.513 284.801 230.702 282.229C233.91 285.129 238.495 288.232 238.569 292.97C238.616 295.989 236.777 298.122 234.671 300.053C232.639 301.916 230.326 303.472 228.058 305.027C227.065 302.606 226.687 300.755 226.655 298.137Z" fill="#E4CBAF"/>
<path d="M202.194 233.897L207.573 228.223L212.153 229.212C214.067 236.077 209.835 247.785 206.841 254.02C205.038 253.987 202.226 254.237 200.578 253.5C198.885 252.744 198.488 249.67 197.969 247.963L201.094 241.338L200.363 238.938L202.194 233.897Z" fill="#F9CF6D"/>
<path d="M202.192 233.897L207.571 228.223L212.151 229.212C207.847 232.811 204.551 236.965 201.092 241.338L200.361 238.938L202.192 233.897Z" fill="#C26510"/>
<path d="M196.994 231.666C197.721 234.512 198.055 236.921 200.362 238.939L201.093 241.339L197.968 247.964L196.181 258.291C193.457 261.831 192.146 261.53 191.789 267.056L188.534 265.655C187.908 261.962 191.773 257.995 192.145 254.215C192.449 251.129 190.83 248.276 188.977 245.974L186.891 243.835L187.336 243.074C189.695 240.446 191.065 238.905 194.697 238.156C195.578 237.974 196.093 237.786 196.865 237.331L196.994 231.666Z" fill="#9F540F"/>
<path d="M207.571 228.223C209.808 225.735 211.696 222.983 215.091 222.217C216.32 222.87 216.725 222.732 217.199 224.138C217.949 226.361 216.895 229.742 216.452 232.001L214.635 233.332C215.416 235.224 217.356 235.782 217.519 237.746C217.958 243.053 214.445 243.74 217.667 249.625C216.794 251.281 214.573 251.817 212.838 252.359C210.871 252.972 208.877 253.714 206.84 254.02C209.833 247.786 214.065 236.077 212.151 229.213L207.571 228.223Z" fill="#B35D0C"/>
<path d="M158.725 274.306C160.207 271.501 162.421 267.569 165.172 265.911C166.51 265.104 166.767 265.388 168.283 265.728C170.247 268.025 170.314 270.442 170.698 273.321L170.141 273.977C168.805 275.569 167.711 277.025 166.72 278.853C165.665 280.796 164.478 281.823 162.706 283.095C161.326 282.946 161.214 283.242 160.278 282.044C158.933 280.326 159.039 277.812 158.855 275.732L158.769 274.841C158.752 274.663 158.74 274.485 158.725 274.306Z" fill="#F7B13C"/>
<path d="M196.181 258.289L199.11 260.417C198.547 263.031 198.301 263.775 195.955 265.365C194.681 266.229 193.295 266.805 191.789 267.055C192.146 261.529 193.457 261.829 196.181 258.289Z" fill="#713609"/>
<path d="M202.581 265.943C208.123 265.363 213.886 264.688 218.745 267.971C219.579 268.535 219.424 269.393 219.595 270.342C217.868 273.178 215.176 274.238 212.332 275.728C207.663 275.829 201.706 276.486 197.288 274.766C195.726 274.159 195.848 273.931 195.186 272.393C196.433 269.068 199.677 267.7 202.581 265.943Z" fill="#F7B13C"/>
<path d="M187.929 282.873C191.923 282.773 198.156 281.821 201.287 284.747C201.942 285.36 202.482 286.039 203.04 286.736C203.148 286.872 203.259 287.005 203.369 287.139C203.449 287.283 203.581 287.406 203.61 287.567C203.955 289.479 203.609 289.945 202.508 291.356C199.763 292.449 197.01 292.864 194.066 292.799C190.278 292.716 184.453 291.493 181.888 288.641C180.857 287.495 181.02 287.35 181.104 285.83C183.409 284.09 185.089 283.383 187.929 282.873Z" fill="#E89A2C"/>
<path d="M187.928 282.873C191.921 282.773 198.155 281.821 201.286 284.747C201.941 285.36 202.481 286.039 203.038 286.736C203.146 286.872 203.258 287.005 203.368 287.139C200.223 287.454 196.937 287.891 193.776 287.906C191.011 287.921 189.775 287.429 187.816 285.566L187.928 282.873Z" fill="#F7B13C"/>
<path d="M228.029 250.896L237.383 250.809C232.667 254.904 228.343 259.356 222.33 261.401C221.733 261.427 221.137 261.448 220.54 261.462C217.04 261.553 214.118 261.691 211.461 259.156L211.939 257.316C217.188 252.783 221.242 251.682 228.029 250.896Z" fill="#F9CF6D"/>
<path d="M167.362 294.111L168.341 296.538C175.411 301.49 181.207 296.775 188.441 298.296C189.693 299.98 190.13 300.342 190.311 302.491C184.906 304.364 180.313 304.937 174.609 304.251C170.69 303.781 167.79 303.125 165.284 299.88C164.925 296.789 165.613 296.565 167.362 294.111Z" fill="#E89A2C"/>
<path d="M223.895 273.274C225.826 273.254 227.204 273.788 228.965 274.466L229.55 276.16C227.719 279.459 224.618 281.241 221.596 283.36C218.846 283.017 216.801 282.704 214.44 281.191L214.381 279.76C217.144 277.055 220.595 275.238 223.895 273.274Z" fill="#F9CF6D"/>
<path d="M215.108 142.375C213.886 142.162 214.389 142.451 213.593 141.519L216.961 140.744L218.678 143.865C218.954 143.934 219.234 143.991 219.507 144.071C223.712 145.306 226.357 148.804 228.314 152.587C231.76 159.25 230.439 167.234 228.192 174.066C223.21 189.222 211.415 206.097 196.881 213.393C196.04 213.822 195.185 214.223 194.317 214.596C197.043 220.943 200.101 227.311 202.194 233.897L200.363 238.938C198.056 236.92 197.722 234.511 196.996 231.665C196.442 226.073 193.118 220.856 190.512 215.97C186.899 216.175 182.617 216.656 179.346 214.897C194.254 210.441 203.984 205.724 213.698 193.05C211.093 191.655 205.762 191.973 202.715 191.803C201.014 190.98 199.461 190.042 197.946 188.916C191.382 184.034 188.323 179.405 187.172 171.268C190.985 167.768 187.572 160.42 190.854 155.654C193.738 155.949 195.34 158.721 197.535 160.599C198.477 155.778 199.177 149.463 201.888 145.251C203.039 143.463 203.275 143.299 205.317 142.843L207.08 144.35L209.242 143.239C210.788 144.359 210.62 144.433 210.969 146.337C212.056 144.859 213.73 143.605 215.108 142.375Z" fill="#9F540F"/>
<path d="M215.108 142.375C213.886 142.162 214.389 142.451 213.593 141.519L216.961 140.744L218.678 143.865C218.954 143.934 219.234 143.991 219.507 144.071C223.712 145.306 226.357 148.804 228.314 152.587C231.76 159.25 230.439 167.234 228.192 174.066C223.21 189.222 211.415 206.097 196.881 213.393C196.04 213.822 195.185 214.223 194.317 214.596C197.043 220.943 200.101 227.311 202.194 233.897L200.363 238.938C198.056 236.92 197.722 234.511 196.996 231.665C196.442 226.073 193.118 220.856 190.512 215.97C186.899 216.175 182.617 216.656 179.346 214.897C194.254 210.441 203.984 205.724 213.698 193.05C219.634 184.157 225.993 172.607 227.647 161.882C228.023 159.44 228.085 158.821 226.621 156.887C224.868 158.65 223.109 160.276 221.156 161.816C219.778 158.788 223.329 154.237 222.848 150.615C222.635 149.02 222.284 149.157 221.111 148.217C218.604 149.339 217.552 153.846 216.503 156.374L214.916 156.577C213.466 153.117 216.192 146.892 215.108 142.375Z" fill="#4D2809"/>
<path d="M207.08 144.351L209.241 143.24C210.788 144.36 210.619 144.433 210.969 146.338C210.057 148.868 209.55 151.702 207.276 153.184C205.851 150.438 206.7 147.311 207.08 144.351Z" fill="#4D2809"/>
<path d="M205.79 161.914C207.597 162.632 209.636 163.632 211.072 164.948C213.207 166.905 214.571 169.503 214.526 172.437C214.459 176.647 212.125 179.081 209.27 181.751C206.773 181.582 204.721 181.211 202.793 179.491C200.825 177.731 199.786 175.652 199.821 172.99C199.887 168.038 202.512 165.173 205.79 161.914Z" fill="#7B3909"/>
<path d="M133.096 262.232L136.77 263.516L137.181 268.026C138.717 269.626 139.528 269.663 141.625 270.242L140.69 271.305C137.75 271.237 136.844 267.427 133.993 266.025L131.822 267.176C131.105 271.565 130.454 275.967 129.871 280.377C129.34 284.71 128.977 291.579 132.164 295.098C133.392 296.453 134.982 296.728 136.735 296.621C139.935 296.425 151.968 293.539 153.499 291.48L153.038 290.505C152.837 290.076 152.655 289.638 152.435 289.219C152.232 288.83 151.984 288.465 151.793 288.069C149.944 284.229 153.235 277.048 154.507 273.153C152.303 272.185 142.123 279.246 137.089 278.891C134.8 277.846 134.152 276.988 132.958 274.798L133.636 273.595L136.44 274.319L135.898 276.6L137.436 277.57C145.206 277.686 148.348 271.821 154.07 267.714C155.033 268.788 154.738 268.313 155.367 269.584C155.514 269.878 155.647 270.177 155.787 270.474C159.23 267.93 161.633 261.246 163.617 257.397L165.418 256.851C167.173 257.376 169.668 258.4 171.498 258.156C178.813 257.178 174.082 244.376 176.709 240.438C178.278 242.614 179.367 245.04 180.546 247.441C183.262 247.524 184.825 245.503 186.891 243.835L188.978 245.974C182.58 251.699 173.481 262.729 172.987 271.671C172.862 273.932 173.415 275.474 174.591 277.362C176.5 278.481 177.768 278.627 179.962 278.702C176.959 281.471 170.535 288.404 166.743 288.658C167.157 283.416 169.855 278.599 170.698 273.321C170.314 270.442 170.247 268.025 168.283 265.728C166.767 265.388 166.51 265.105 165.172 265.911C162.421 267.569 160.207 271.501 158.725 274.306C157.862 277.49 156.402 281.523 156.62 284.818C156.802 287.583 160.712 292.952 159.783 294.864C156.836 297.135 154.051 298.416 150.632 299.79C142.646 301.528 134.446 302.112 126.532 303.832C125.452 302.268 124.784 299.492 123.865 297.672L123.775 296.226L125.733 297.815C127.333 296.426 127.047 295.261 127.312 293.207L127.585 295.293C129.586 289.044 128.477 280.928 129.155 274.301C129.567 270.287 129.8 264.947 133.096 262.232Z" fill="#8F4C0E"/>
<path d="M123.775 296.226L125.733 297.815C127.333 296.426 127.047 295.261 127.312 293.207L127.585 295.293L128.126 297.515C137.117 301.356 153.219 290.088 159.783 294.864C156.836 297.135 154.051 298.416 150.632 299.79C142.646 301.528 134.446 302.112 126.532 303.832C125.452 302.268 124.784 299.492 123.865 297.672L123.775 296.226Z" fill="#4D2809"/>
<path d="M202.713 191.803C205.761 191.973 211.091 191.655 213.697 193.05C203.983 205.724 194.252 210.441 179.345 214.897C182.616 216.656 186.898 216.175 190.511 215.97C193.117 220.856 196.44 226.073 196.994 231.665L196.865 237.33C196.093 237.785 195.578 237.973 194.697 238.155C191.065 238.904 189.695 240.445 187.336 243.073C187.322 239.163 187.08 235.088 187.596 231.216C187.946 233.56 188.619 235.886 189.185 238.188L191.264 238.031C193.264 236.727 194.286 235.395 195.052 233.098C196.112 229.919 193.386 225.884 191.959 223.108L177.556 223.208C176.168 219.086 172.452 210.855 173.279 206.67C173.333 206.394 173.674 205.273 173.863 205.161C177.014 203.288 188.553 204.636 196.199 199.572C198.797 197.852 202.074 194.929 202.713 191.803Z" fill="#C26510"/>
<path d="M99.2059 209.744C113.791 213.024 126.606 218.714 134.821 231.94C138.552 237.947 140.794 244.79 138.987 251.84C137.989 255.735 136.159 259.556 133.097 262.231C129.801 264.946 129.568 270.286 129.156 274.3C128.478 280.927 129.587 289.043 127.586 295.292L127.313 293.206C127.048 295.26 127.334 296.425 125.734 297.814L123.776 296.225C124.993 286.013 126.363 275.479 125.932 265.189L127.332 261.64C127.588 261.475 127.85 261.319 128.099 261.147C132.974 257.766 134.392 251.765 135.128 246.287C135.102 246.123 135.078 245.959 135.049 245.796C135.003 245.523 134.95 245.252 134.904 244.979C133.632 237.368 130.874 231.954 125.411 226.442C119.071 220.043 107.968 213.84 98.8086 213.767L99.2059 209.744Z" fill="#7B3909"/>
<path d="M46.2888 215.924C42.2889 210.502 40.226 204.554 39.1582 197.931L40.8162 196.234C43.8323 196.803 48.389 202.988 50.5608 205.327C48.2056 204.789 46.3232 203.951 44.1943 202.818L43.5219 201.362C42.7464 203.208 43.6337 204.871 44.4188 206.672C45.6212 209.428 47.4759 211.924 47.8876 214.945L46.2888 215.924Z" fill="#CE6F17"/>
<path d="M158.421 100.188C158.073 101.021 164.102 114.239 164.71 116.511C167.747 127.859 167.92 142.327 161.799 152.747C157.313 160.384 148.868 165.075 140.447 167.11C132.662 168.991 124.057 168.168 117.171 163.901C110.319 159.654 106.084 152.635 104.256 144.895C100.973 130.993 103.941 113.414 111.532 101.336C115.735 94.6482 121.781 88.9994 129.713 87.3506C140.763 85.0531 146.396 90.3675 154.889 96.1185C156.787 97.4072 157.404 98.1323 158.421 100.188Z" fill="#A85914"/>
<path d="M141.95 114.873L143.449 115.799C139.793 120.505 141.471 134.827 141.49 141.087C144.927 142.879 148.412 145.092 150.06 148.711L149.155 150.298C129.381 139.019 136.261 151.82 125.643 151.861L124.928 150.579C127.134 145.822 132.909 143.166 137.422 141.038C137.525 133.311 138.797 122.907 135.958 115.778L136.587 115.273C138.436 115.643 140.13 115.207 141.95 114.873Z" fill="#3A1A01"/>
<path d="M131.803 107.179L132.347 107.224C139.452 107.747 150.133 102.334 154.763 104.917C155.453 106.638 155.248 107.525 154.948 109.291C153.303 111.663 151.554 114.705 148.559 115.415C146.956 115.796 145.093 115.763 143.45 115.799L141.951 114.873C140.131 115.208 138.438 115.643 136.589 115.274C135.426 112.242 133.659 109.805 131.803 107.179Z" fill="#8B470F"/>
<path d="M141.951 114.874C142.583 112.992 143.367 111.153 144.42 109.462C146.154 106.676 147.88 105.635 150.901 104.986C153.395 106.27 153.569 106.8 154.948 109.291C153.303 111.663 151.553 114.706 148.558 115.415C146.956 115.797 145.092 115.763 143.45 115.799L141.951 114.874Z" fill="#2A1603"/>
<path d="M135.958 115.779C133.464 116.304 131.304 116.66 128.803 115.936C125.726 115.044 124.387 113.332 122.844 110.646C122.735 108.18 122.515 108.076 124.17 106.071C126.996 105.069 129.132 106.207 131.802 107.18C133.658 109.806 135.425 112.243 136.588 115.274L135.958 115.779Z" fill="#3A1A01"/>
<path d="M69.8063 104.006C71.3135 103.961 72.7213 104.068 74.2055 104.366C78.4508 105.216 82.4 107.724 84.7257 111.426C86.3674 114.039 86.951 117.088 86.0073 120.062C84.697 124.192 81.8833 125.851 78.2349 127.593C75.8062 127.633 73.2972 127.614 70.898 127.204C67.2878 126.588 63.8648 124.368 61.8916 121.268C60.4628 119.025 60.0092 116.49 60.6777 113.905C61.947 108.996 65.7587 106.446 69.8063 104.006Z" fill="#F88C44"/>
<path d="M78.5026 112.227L79.6334 113.128C80.2169 115.732 78.8541 117.03 77.5819 119.251L76.7987 118.75C76.2199 116.005 77.3536 114.663 78.5026 112.227Z" fill="#CE6F17"/>
<path d="M70.6444 111.395C71.9624 111.909 71.7428 112.004 72.3626 113.178L69.8995 117.534C68.6789 116.959 68.8986 116.909 68.3828 115.759L70.6444 111.395Z" fill="#CE6F17"/>
<path d="M87.2575 81.8841C90.7703 81.8162 93.5858 82.8193 96.0385 85.4302C98.2074 87.7391 98.7843 90.9882 98.471 94.048C97.9095 99.5267 95.538 102.054 91.5763 105.403C88.2622 105.282 85.1936 104.531 82.7371 102.148C80.5977 100.073 79.6751 97.1403 79.8766 94.2056C80.2873 88.2521 82.9358 85.4436 87.2575 81.8841Z" fill="#1F1302"/>
<path d="M154.889 96.1173C153.906 91.3542 153.182 85.9987 156.098 81.6644C156.663 80.8257 157.479 80.2592 158.269 79.6611C160.731 79.5952 161.784 79.7299 163.69 81.4351C166.613 84.0489 168.86 89.0423 168.685 92.983C168.584 95.2585 167.754 97.3487 165.998 98.7998C164.367 100.147 161.755 100.81 159.677 100.449C159.256 100.376 158.84 100.275 158.421 100.187C157.404 98.1312 156.787 97.4061 154.889 96.1173Z" fill="#1C0F02"/>
<path d="M158.499 82.8846C159.658 82.2388 161.122 82.6611 161.761 83.8246C162.4 84.9873 161.971 86.4489 160.805 87.0832C159.647 87.7118 158.199 87.2867 157.564 86.1318C156.93 84.9768 157.347 83.5256 158.499 82.8846Z" fill="#F8F3EF"/>
<path d="M87.77 88.2181C89.4644 87.1399 91.604 87.8449 92.5377 89.7875C93.4715 91.7286 92.8447 94.1688 91.1406 95.2279C89.4476 96.2774 87.3317 95.5677 86.4035 93.6394C85.4768 91.7111 86.0867 89.2883 87.77 88.2181Z" fill="#F8F3EF"/>
<path d="M147.641 172.384C149.363 172.028 149.35 171.895 150.832 172.801C149.938 174.586 149.107 175.437 147.449 176.579C139.242 182.236 128.042 181.469 118.743 179.825C116.881 179.003 115.465 178.052 113.859 176.807L113.914 175.299C120.701 173.144 137.99 174.021 147.641 172.384Z" fill="#C26510"/>
<path d="M59.2574 25.1055C70.1635 26.5241 69.8015 37.0449 61.626 40.5137L59.5401 39.0024C55.3139 33.5504 53.7609 30.5221 59.2574 25.1055Z" fill="#9F540F"/>
<path d="M59.2578 25.1055C70.1638 26.5241 69.8019 37.0449 61.6264 40.5137L59.5405 39.0024C66.1983 28.0125 64.2405 35.6569 59.2578 25.1055Z" fill="#4D2809"/>
<path d="M92.4543 62.0684C94.1218 62.5661 93.9432 62.7906 94.8916 64.1404C94.7999 64.4356 94.7264 64.7366 94.6166 65.0251C93.3148 68.4193 87.5528 70.3997 84.4145 71.6301C83.5912 71.1286 83.0496 70.4656 82.3906 69.7701C84.019 66.6969 89.4611 64.2856 92.4543 62.0684Z" fill="#4D2809"/>
<path d="M47.4844 151.42L48.7193 151.032C50.0688 152.811 51.212 154.531 53.1184 155.741L54.4612 154.793C54.1346 153.287 53.7373 151.891 53.9665 150.342L56.4363 154.401L59.5776 154.548C60.4085 156.323 60.7533 158.047 61.1363 159.951L60.1564 161.177C55.3361 160.025 50.6094 155.146 47.4844 151.42Z" fill="#CB741B"/>
<path d="M148.699 61.0625C151.38 61.5019 154.845 62.6369 157.245 63.9208C159.929 65.3566 160.27 66.0941 161.093 68.8196C158.367 68.7375 155.993 68.405 153.501 67.2118C150.409 65.7311 149.622 64.0966 148.699 61.0625Z" fill="#4D2809"/>
<path d="M171.206 105.754L173.13 107.037C172.787 109.771 172.532 112.516 172.366 115.267C170.339 114.862 169.552 114.374 167.961 113.052C167.969 110.163 169.738 108.2 171.206 105.754Z" fill="#F77830"/>
<path d="M219.966 0.508616C248.715 -3.49605 275.261 16.5846 279.236 45.3443C283.211 74.1039 263.108 100.636 234.352 104.583C205.636 108.525 179.156 88.4517 175.187 59.7322C171.217 31.0136 191.259 4.50755 219.966 0.508616Z" fill="#DC4E29"/>
<path d="M200.455 18.6015C205.056 15.6849 208.697 13.2279 213.91 11.4386C246.724 0.175477 276.014 31.9759 266.913 64.1508C264.996 70.9268 262.69 75.1808 258.476 80.9585C253.311 75.3327 247.417 69.1556 242.556 63.3731L239.6 60.0506L233.929 54.3636L231.919 52.8962C230.272 51.5158 227.357 48.0031 225.816 46.2539C222.883 43.1014 218.891 40.0932 219.525 35.6901L222.976 34.1846C220.493 31.1161 221.08 30.9374 217.609 29.5283C215.55 30.7187 215.565 30.7435 213.989 32.3236C209.61 29.6163 204.292 22.6262 200.455 18.6015Z" fill="#F8F3EF"/>
<path d="M227.594 30.1482C229.864 26.304 231.737 22.3605 235.297 19.7525L237.87 19.1172C243.605 23.2069 241.055 35.7712 238.007 41.1754C236.028 43.5226 233.734 45.7465 232.889 48.5952C232.701 47.3753 232.271 47.0496 231.827 45.8478C231.233 44.2763 231.373 42.5224 232.21 41.0655C232.367 40.841 232.524 40.6165 232.681 40.392L231.652 38.66L230.157 37.2767C228.674 34.1987 228.15 33.4497 227.594 30.1482Z" fill="#DF8027"/>
<path d="M230.158 37.276C230.63 33.3955 231.534 28.5415 234.672 25.9746L236.086 26.5917C236.822 31.2288 234.108 34.7138 231.653 38.6592L230.158 37.276Z" fill="#FAEACB"/>
<path d="M232.889 48.5943C233.735 45.7456 236.029 43.5216 238.008 41.1744L243.465 40.3223L245.971 42.2444C246.164 45.095 243.614 47.3199 244.789 48.3851C249.926 53.0441 247.685 55.9578 242.557 63.372L239.601 60.0495L233.929 54.3625L231.92 52.8951L232.629 49.8773L232.889 48.5943Z" fill="#CE6F17"/>
<path d="M232.89 48.5943C233.735 45.7456 236.029 43.5216 238.008 41.1744L243.465 40.3223C241.891 44.9402 239.003 51.3657 232.629 49.8773L232.89 48.5943Z" fill="#FCD673"/>
<path d="M233.93 54.3641C237.032 52.7898 239.335 51.0712 242.573 51.6682L243.453 53.0964C242.611 56.4228 241.665 57.3676 239.601 60.0511L233.93 54.3641Z" fill="#F9CF6D"/>
<path d="M224.867 37.1562C224.384 31.4415 219.193 26.024 222.904 20.3848L224.387 21.108C226.959 24.4181 226.957 26.109 227.595 30.148C228.15 33.4496 228.675 34.1986 230.158 37.2766L231.653 38.6599L232.682 40.3918C232.525 40.6163 232.368 40.8409 232.211 41.0654C231.374 42.5222 231.233 44.2761 231.828 45.8476C232.272 47.0494 232.701 47.3751 232.89 48.5951L232.629 49.8781L231.92 52.8959C230.273 51.5155 227.358 48.0028 225.817 46.2536C222.884 43.1011 218.892 40.0928 219.526 35.6898L222.977 34.1842L224.867 37.1562Z" fill="#C8761D"/>
<path d="M222.977 34.1836L224.867 37.1555C225.976 41.3675 226.033 41.9034 225.817 46.253C222.884 43.1004 218.892 40.0922 219.526 35.6892L222.977 34.1836Z" fill="#F9CF6D"/>
<path d="M247.037 30.2676L248.937 32.2413C249.11 35.4244 247.272 37.291 245.48 39.7233C244.333 39.0794 243.637 38.2397 242.773 37.2624C243.208 33.9943 244.951 32.7199 247.037 30.2676Z" fill="#CB741B"/>
<path d="M194.998 24.9512C196.4 26.6898 204.014 34.8463 205.691 36.1197C213.884 42.3436 211.156 45.756 214.821 52.0696L215.738 51.5766C218.945 51.4715 218.887 51.1372 221.801 54.0032C224.804 56.956 229.293 60.9005 231.345 64.4007C232.209 64.8029 232.88 64.9835 233.477 65.7506L238.674 71.7719C238.67 73.6797 238.73 73.9663 239.71 75.5989C245.216 76.6221 248.657 82.4151 252.429 87.098C246.703 90.6699 242.563 93.2531 235.957 94.8771C225.655 97.4546 214.747 95.6518 205.82 89.898C195.999 83.5738 189.15 73.5498 186.827 62.1004C183.79 47.4813 187.224 37.0129 194.998 24.9512Z" fill="#F8F3EF"/>
<path d="M215.739 51.5761C218.946 51.471 218.888 51.1366 221.802 54.0026C224.804 56.9555 229.294 60.8999 231.346 64.4002C232.21 64.8024 232.881 64.9829 233.477 65.75L238.675 71.7714C238.671 73.6791 238.73 73.9657 239.711 75.5984C236.536 79.111 234.118 78.7633 230.083 80.2325C224.776 82.1651 228.132 88.0203 222.479 90.3569L220.734 89.3844L220.349 87.149C225.071 75.3375 213.638 76.9635 210.554 65.9268C209.126 60.8187 208.082 56.0011 212.511 52.391L214.822 52.069L215.739 51.5761Z" fill="#C8761D"/>
<path d="M233.477 65.75L238.675 71.7713C237.022 73.3361 234.502 75.4922 232.175 75.7798C230.496 75.9871 230.425 75.5047 229.133 74.578L228.861 72.0273C229.791 69.1194 231.224 67.7428 233.477 65.75Z" fill="#FCD673"/>
<path d="M214.821 52.0692L215.738 51.5762C216.753 56.1559 220.91 59.3056 221.205 62.2251C216.292 59.7709 214.938 56.9976 212.51 52.3911L214.821 52.0692Z" fill="#FAEACB"/>
<path d="M213.98 63.4961C216.411 64.1954 219.845 64.993 221.736 66.7795C223.866 68.7923 223.411 70.6265 223.349 73.3023C220.819 73.6367 220.423 73.3425 218.189 72.3155C215.778 69.6741 215.01 66.8196 213.98 63.4961Z" fill="#F9CF6D"/>
</svg>
