<svg width="157" height="256" viewBox="0 0 157 256" fill="none" xmlns="http://www.w3.org/2000/svg">
<path d="M75.3437 6.68082C75.8008 3.01694 77.8444 -2.26741 82.8879 1.04883C84.6525 2.21007 84.9801 5.20952 85.0764 7.25534C90.8216 2.18615 98.0295 5.02085 92.7661 11.5657C100.835 13.0562 106.082 15.0743 113.1 19.3347C116.347 13.114 123.212 10.6888 129.811 12.5249C133.324 13.878 136.062 16.1708 137.605 19.6717C139.222 23.4183 139.291 27.6519 137.799 31.4497C136.42 34.9213 134.281 37.0918 131.203 39.0727C135.664 47.7175 138.705 57.9788 141.863 67.2517C146.139 79.8019 144.355 92.5688 135.975 103.082C143.218 111.892 150.953 120.532 154.397 131.662C157.572 141.922 156.799 154.044 147.958 161.276C147.457 161.682 146.944 162.069 146.415 162.438C148.482 178.465 146.708 188.2 138.34 201.051C137.396 202.502 136.475 212.576 135.073 215.059C134.528 216.024 132.425 222.472 132.504 223.338C132.626 227.814 131.574 230.483 129.816 234.462C135.196 235.586 141.051 236.492 145.85 239.539C146.981 240.257 148.313 241.623 148.532 242.99C148.657 243.77 148.331 244.748 147.82 245.302C142.894 250.643 127.483 252.81 120.748 253.714C105.453 255.766 89.6494 256.214 74.2886 255.909C59.3952 255.615 44.2033 254.708 29.5413 252.088C23.4276 250.887 16.5821 249.75 11.3721 246.169C9.23545 244.702 8.89119 242.063 10.7822 240.482C15.4206 236.602 27.85 234.035 33.5939 233.833C34.4892 232.782 35.4107 231.756 36.3576 230.751C35.0507 228.879 33.6156 227.039 32.3676 225.126C29.2208 220.314 26.7728 215.078 25.0966 209.579C24.2412 206.783 23.7552 203.522 22.9723 201.028C22.6995 200.158 20.1023 196.431 19.3038 194.686C15.0914 185.48 14.0588 175.44 15.3085 165.439C-1.41814 159.934 -2.82889 141.966 3.41403 127.883C7.78359 118.025 13.8462 110.766 21.1758 103.002C18.5073 99.7337 16.4471 96.0128 15.0932 92.0164C13.4427 87.0113 12.9309 81.7008 13.5955 76.4728C14.3773 69.9488 16.6126 65.1089 18.7491 59.0908C21.2319 52.0978 23.3795 45.9886 26.6915 39.3303C24.6106 38.1422 22.8552 36.7059 21.4515 34.7462C19.1589 31.4924 18.2694 27.4539 18.9825 23.5379C19.6495 19.747 21.8038 16.3797 24.966 14.185C32.0039 9.29602 40.3651 12.1606 44.9342 18.9201C51.9686 14.1341 59.2823 11.802 67.603 10.6466C65.6238 8.15902 64.9719 4.2734 69.1986 3.87711C71.6556 3.64669 73.5845 5.16632 75.3437 6.68082ZM91.0319 231.302C90.4121 228.468 89.8967 223.943 89.5836 221.09C83.0147 222.329 77.3579 222.172 70.7771 221.804C70.4428 223.516 68.9547 230.025 70.3596 231.177C72.9374 231.312 75.7923 231.157 78.4128 231.153C82.6197 231.153 86.8266 231.202 91.0319 231.302Z" fill="#FF9B34"/>
<path d="M32.0169 133.061C33.2645 131.564 34.203 129.027 35.24 127.341C37.333 123.939 39.8852 120.617 42.7315 117.846C52.4226 108.34 65.5207 103.116 79.0942 103.345C94.3755 103.523 108.737 110.676 118.085 122.766C119.13 124.133 120.099 125.516 121.048 126.934C121.775 128.021 123.496 131.936 124.299 132.522C122.626 134.144 121.764 134.136 120.462 136.502C118.117 138.43 118.556 143.23 120.217 145.555C118.527 149.632 119.402 152.304 122.684 155.139C121.091 159.772 123.874 162.251 127.501 164.353C127.193 165.478 126.865 166.801 126.515 167.897C125.314 171.652 123.66 175.249 121.59 178.607C114.419 190.086 103.012 198.273 89.8426 201.393C76.7258 204.457 62.9312 202.205 51.4704 195.129C40.4416 188.25 32.012 177.264 29.0781 164.534C32.2489 162.676 34.9932 159.489 33.1659 155.66C36.6371 152.976 37.2561 150.068 35.6883 146.046C35.8546 145.515 36.3178 144.784 36.5699 144.233C37.416 142.387 36.7748 141.258 36.4038 139.428C35.6857 136.444 34.5595 134.765 32.0169 133.061Z" fill="#62A133"/>
<path d="M75.4426 112.716C97.3876 111.194 116.421 127.728 117.984 149.67C119.546 171.612 103.046 190.676 81.1075 192.277C59.1117 193.883 39.9887 177.333 38.4227 155.335C36.8565 133.336 53.4417 114.243 75.4426 112.716Z" fill="#F2F2F1"/>
<path d="M98.9595 131.639C102.376 131.884 105.058 133.996 105.172 137.634C105.198 138.429 105.069 139.642 104.628 140.318C103.099 142.658 101.219 144.827 99.4749 147.021L89.3736 159.693L81.3885 169.743C78.9832 172.766 76.7127 176.893 72.5143 176.737C69.2222 176.615 66.9039 173.584 64.7492 171.424L57.745 164.388C55.2961 162.003 51.3488 159.004 51.1691 155.693C51.0773 154.02 51.6958 152.385 52.8724 151.194C53.9795 150.046 55.5038 149.395 57.0983 149.391C58.2012 149.386 59.2823 149.697 60.2144 150.287C61.6006 151.146 63.8801 153.549 65.1363 154.799L72.2091 161.844L87.4034 142.761C89.889 139.628 92.6299 135.951 95.3387 133.046C96.1624 132.164 97.7745 131.812 98.9595 131.639Z" fill="#62A133"/>
<path d="M129.206 165.034C135.039 166.636 139.323 166.201 144.741 163.457C145.028 166.23 145.327 169.183 145.369 171.969C145.5 180.871 143.087 191.067 137.88 198.378L136.28 200.427C135.559 207.101 133.96 212.962 131.678 219.226C131.121 219.754 130.633 219.801 130.039 220.262C130.365 221.452 130.492 222.12 130.677 223.343C130.712 225.851 130.46 227.935 129.573 230.313C128.326 233.91 126.499 236.359 124.023 239.321C117.855 246.706 105.729 250.858 97.6829 244.008C94.229 241.068 93.6124 235.053 92.8497 230.806C92.0822 226.537 91.3243 221.908 91.1541 217.487C90.5568 216.699 90.6307 216.569 89.7219 216.895C89.656 217.641 89.7042 218.6 89.3349 219.163C88.8901 219.461 88.5802 219.416 88.0439 219.44C87.4225 219.708 84.2786 219.992 83.5111 220.04C75.2397 220.602 66.9304 219.925 58.8589 218.028C58.7167 218.818 59.5336 219.229 60.1332 219.682C62.9114 220.792 65.9493 221.288 68.9068 221.67C67.8794 226.585 67.9116 228.091 68.3264 233.017C69.1474 242.767 58.4458 247.469 50.1768 246.706C46.4071 246.358 49.3216 239.977 49.1012 239.015C48.6668 238.955 48.5026 239.087 48.161 239.386C46.0447 241.231 46.2638 244.476 47.2887 246.695C44.8747 246.72 43.2333 246.598 40.8617 246.011L40.741 245.847C37.9477 241.961 40.8582 239.421 40.6466 238.074C39.6987 237.464 38.885 238.47 38.5907 239.304C37.8654 241.361 37.6594 243.398 38.572 245.447C36.7541 244.949 35.087 244.278 34.1466 242.497C32.2251 238.862 34.9645 234.005 37.9898 231.85C38.1814 231.714 38.6197 231.919 38.8572 231.988C38.7758 231.187 38.397 230.672 37.9917 229.987C36.5121 227.81 34.9173 225.662 33.4973 223.47C29.461 217.237 27.2498 210.997 25.5608 203.808C25.1669 202.811 25.1244 202.435 25.9749 201.852C17.5401 191.179 15.9126 179.095 17.112 166.031C21.0612 166.596 23.5587 166.458 27.315 165.329C28.914 170.906 30.73 175.381 33.907 180.323C41.4485 192.101 53.376 200.385 67.0459 203.339C78.6121 205.847 90.6853 204.394 101.325 199.214C104.038 197.882 106.59 196.236 109.123 194.59C118.809 187.149 124.169 179.938 128.279 168.42C128.596 167.293 128.904 166.164 129.206 165.034Z" fill="#F2821D"/>
<path d="M129.2 165.034C135.033 166.636 139.317 166.201 144.735 163.457C145.022 166.23 145.321 169.183 145.362 171.969C145.494 180.871 143.081 191.067 137.873 198.378L136.274 200.427C135.553 207.101 133.954 212.962 131.672 219.226C130.961 217.646 130.359 216.347 129.371 214.918C132.342 212.479 133.573 203.396 134.001 199.511C134.147 198.195 133.536 195.807 134.619 195.041C135.102 195.014 136.09 195.003 136.361 194.519C140.611 186.902 142.556 179.153 142.103 170.427C137.175 172.229 135.125 172.292 129.908 171.831C126.494 180.193 124.304 183.984 118.024 190.593C119.113 191.081 119.569 191.335 120.577 191.973C119.543 192.029 118.509 192.581 117.693 192.621C114.684 192.769 111.885 194.058 109.117 194.59C118.803 187.149 124.162 179.938 128.273 168.42C128.589 167.293 128.898 166.164 129.2 165.034Z" fill="#ED7C1B"/>
<path d="M136.243 200.412C136.235 200.1 136.238 199.787 136.252 199.477C136.284 198.745 136.358 198.482 136.864 198.023C137.524 197.987 137.196 197.926 137.842 198.363L136.243 200.412Z" fill="#A94E00"/>
<path d="M104.346 214.745C108.479 211.551 112.761 209.804 118.081 210.483C121.904 210.939 125.385 212.908 127.746 215.949C128.751 217.242 129.525 218.7 130.029 220.257C130.355 221.447 130.482 222.115 130.666 223.339C130.702 225.847 130.45 227.931 129.563 230.309C128.967 229.736 129.061 226.736 128.77 225.354C128.197 222.654 126.559 220.302 124.229 218.825C115 212.94 104.669 220.032 100.184 228.451C99.4453 229.837 98.2924 233.448 96.8136 233.705C96.1665 233.316 96.1231 232.892 95.9112 232.128C94.6973 227.743 97.8412 223.542 99.9238 219.939C100.33 219.234 101.001 218.501 101.422 217.77L101.56 217.526C102.364 216.546 103.415 215.604 104.346 214.745Z" fill="#FE8F21"/>
<path d="M103.117 213.875C109.972 207.205 121.213 206.375 128.076 213.441C128.529 213.91 128.961 214.4 129.369 214.909C130.356 216.338 130.958 217.637 131.67 219.217C131.112 219.745 130.624 219.792 130.03 220.253C129.526 218.695 128.752 217.237 127.747 215.945C125.386 212.904 121.905 210.935 118.082 210.479C112.763 209.8 108.48 211.547 104.347 214.74L103.117 213.875Z" fill="#532B01"/>
<path d="M88.0391 219.432C88.3843 219.035 88.5754 219.048 89.0603 218.945C89.6769 217.506 89.6672 211.44 91.3403 210.576C92.5767 210.958 91.6519 214.239 91.3147 215.125L91.1493 217.479C90.552 216.691 90.6258 216.561 89.717 216.887C89.6512 217.633 89.6993 218.592 89.33 219.155C88.8852 219.452 88.5754 219.408 88.0391 219.432Z" fill="#ED7C1B"/>
<path d="M89.7192 216.889C89.7079 215.922 89.9151 213.909 90.7324 213.297L91.0021 213.424C91.3489 214.098 91.2944 214.341 91.3168 215.127L91.1515 217.481C90.5541 216.693 90.628 216.563 89.7192 216.889Z" fill="#A94E00"/>
<path d="M42.2305 231.336C43.4611 231.421 46.3455 231.675 47.2276 232.478L47.2859 232.807C46.1619 234.042 42.1138 233.147 40.7578 232.457C41.5375 232.145 41.7458 232.01 42.2305 231.336Z" fill="#ED7C1B"/>
<path d="M60.1056 219.668C59.0856 219.554 54.6501 218.271 54.5195 217.11C55.372 216.771 57.8533 217.709 58.8313 218.014C58.689 218.804 59.506 219.215 60.1056 219.668Z" fill="#C76109"/>
<path d="M37.9609 229.977C39.2582 230.046 41.0072 230.821 42.2224 231.322C41.7377 231.997 41.5294 232.131 40.7497 232.443C40.0066 232.34 39.4887 232.327 38.8264 231.977C38.745 231.176 38.3662 230.661 37.9609 229.977Z" fill="#C76109"/>
<path d="M103.099 213.877L104.329 214.742C103.398 215.601 102.348 216.544 101.543 217.524C100.96 217.072 101.033 217.263 100.84 216.671C101.052 215.531 102.219 214.696 103.099 213.877Z" fill="#A94E00"/>
<path d="M27.3844 203.477C27.9528 204.05 28.6507 204.615 28.8881 205.347L28.8141 205.704C27.8544 206.103 26.5907 204.864 26.2383 204.111C26.9127 203.937 26.8788 203.957 27.3844 203.477Z" fill="#C76109"/>
<path d="M25.9656 201.838C26.4605 202.366 26.9401 202.907 27.4038 203.463C26.8982 203.943 26.9321 203.924 26.2577 204.097L25.5515 203.794C25.1576 202.796 25.1151 202.421 25.9656 201.838Z" fill="#A94E00"/>
<path d="M19.63 172.418C22.0998 173.035 24.1557 172.842 26.6273 172.477C36.4416 198.544 64.7155 213.814 91.8359 206.382C90.5417 208.376 89.9621 209.542 89.0147 211.703C88.5234 212.835 88.2761 213.708 87.9245 214.897C83.3771 215.789 78.7415 216.152 74.1115 215.981C57.7931 215.496 40.9497 210.569 29.1771 198.555C22.405 191.643 19.2651 182.065 19.63 172.418Z" fill="#FE8F21"/>
<path d="M111.427 228.107C124.022 227.119 122.984 241.073 111.153 243.892C108.792 244.221 106.504 244.308 104.386 242.945C103.221 242.193 102.413 240.999 102.151 239.637C101.034 234.136 106.302 229.078 111.427 228.107Z" fill="#A94E00"/>
<path d="M120.937 219.076C125.08 219.478 123.24 224.728 119.879 225.873C115.071 225.851 117.551 220.072 120.937 219.076Z" fill="#A94E00"/>
<path d="M113.023 218.637C116.885 219.077 115.104 223.919 111.851 225.064C111.43 225.048 111.019 225.048 110.645 224.848C110.123 224.571 109.751 224.077 109.63 223.499C109.179 221.411 110.918 219.078 113.023 218.637Z" fill="#A94E00"/>
<path d="M124.883 225.344C129.373 225.129 127.689 229.456 125.089 230.895C121.107 231.363 122.091 226.991 124.883 225.344Z" fill="#A94E00"/>
<path d="M75.3437 6.68082C75.8008 3.01694 77.8444 -2.26741 82.8879 1.04883C84.6525 2.21007 84.9801 5.20952 85.0764 7.25534C90.8216 2.18615 98.0295 5.02085 92.7661 11.5657C100.835 13.0562 106.082 15.0743 113.1 19.3347C116.347 13.114 123.212 10.6888 129.811 12.5249C129.671 13.1208 129.504 13.756 129.43 14.3596C126.333 13.2629 123.314 13.4715 120.349 14.9033C119.22 15.441 118.189 16.165 117.299 17.0449C115.963 18.3061 115.519 18.8934 114.555 20.4707C115.324 21.0794 116.082 21.6528 116.797 22.328C116.283 23.1826 115.893 22.9179 114.905 22.8104C107.245 17.354 100.385 14.6562 91.1524 13.1842C90.5004 13.474 89.4278 14.0537 88.7503 13.7221C88.7133 12.2632 92.8399 10.4635 92.7388 7.29516L92.416 7.6216C89.9529 7.34204 86.5778 9.37999 85.8199 9.02048C84.6268 9.84468 84.4117 11.4536 83.3551 11.8085C82.4575 10.6244 84.8677 1.99138 80.2064 1.96874C75.9336 1.94786 77.6068 10.6384 76.775 11.4905C75.9593 10.7755 75.109 9.10735 74.0635 8.04614L73.9235 7.90629L73.6549 8.06364C72.9424 8.00616 68.7573 6.52779 68.288 6.07708C66.584 8.63286 71.4591 11.5114 71.3714 13.1344C70.5493 13.2255 69.8054 12.7839 69.0968 12.3923C58.7743 13.2775 51.4019 16.661 43.0034 22.4727C42.1429 22.3621 41.9661 22.4724 41.3348 21.8627C40.9884 22.1361 40.5674 22.4438 40.2573 22.7463C39.3657 23.4828 38.8528 23.988 38.0426 24.8205L38.8007 26.2368C36.3992 28.6904 34.0062 31.1475 32.138 34.0512L30.7907 33.0491L30.685 33.0168C30.0349 34.1169 29.417 35.0095 28.684 36.0603L28.6839 36.1733C29.366 36.562 29.5113 36.7581 29.7211 37.5643L29.2796 38.5862C25.2666 46.1728 22.8239 53.1796 19.9947 61.2395C18.5399 65.384 16.0033 71.2628 15.6409 75.6502C13.5451 87.0474 17.8731 96.1949 24.92 104.717C24.2655 105.071 24.117 105.132 23.3989 105.324C22.9167 104.84 23.0479 104.823 22.487 104.695C21.3043 105.151 20.4343 106.474 19.56 107.46C12.5963 115.249 6.36239 123.477 3.29954 133.665C2.91658 134.939 2.21153 137.886 2.16464 139.23C2.89651 163.243 28.8311 163.513 29.6967 155.311L29.1608 154.998C29.5509 154.64 30.182 154.214 30.624 153.896C31.0492 154.119 31.4845 154.407 31.9572 154.237C34.6381 153.265 34.806 149.725 34.1978 147.496C32.9911 144.972 31.9484 144.442 29.4443 143.356C29.7316 142.971 30.3623 142.446 30.7318 142.125L30.7223 142.049C33.1318 141.314 33.3943 140.79 34.2481 138.571C34.0146 137.977 33.9653 137.841 33.6212 137.312C31.6892 133.518 26.6448 132.475 22.7857 132.414C21.8603 132.438 20.5462 131.628 19.3365 131.246C20.9343 130.817 21.9498 130.645 23.6083 130.648C24.8734 130.949 25.2511 130.615 26.5517 130.781C27.5838 131.088 28.6116 131.408 29.6352 131.742L30.2496 130.321C38.0253 114.839 50.3552 104.84 67.4129 101.242C75.7477 99.7099 80.9033 99.7724 89.2898 101.222C106.074 105.047 118.293 114.704 126.135 130.041L126.771 131.429C126.985 131.354 128.371 130.883 128.481 130.82C130.118 129.682 128.444 129.422 130.37 127.583C131.123 128.536 131.275 129.1 131.582 130.278C132.301 130.262 133.078 130.187 133.754 130.381C135.556 130.635 137.407 130.828 139 131.787C137.912 132.291 136.884 132.408 135.696 132.449C132.9 131.958 130.786 132.158 128.08 132.875L128.021 132.672C127.685 132.736 127.51 132.775 127.192 132.882L126.919 132.974C125.991 132.573 125.826 132.476 124.814 132.526L124.292 132.523C123.489 131.937 121.768 128.022 121.041 126.935C120.092 125.517 119.123 124.134 118.078 122.767C108.73 110.677 94.3685 103.524 79.0872 103.346C65.5137 103.118 52.4156 108.341 42.7245 117.847C39.8782 120.619 37.326 123.94 35.233 127.342C34.196 129.028 33.2575 131.565 32.0099 133.062C34.5525 134.766 35.6787 136.445 36.3968 139.429C36.7679 141.259 37.409 142.388 36.563 144.235C36.3109 144.785 35.8476 145.516 35.6813 146.047C37.2491 150.07 36.6301 152.978 33.1589 155.661C34.9862 159.49 32.2419 162.678 29.0712 164.535C32.0051 177.265 40.4346 188.252 51.4634 195.13C62.9242 202.207 76.7188 204.458 89.8357 201.394C103.006 198.274 114.412 190.087 121.583 178.608C123.653 175.25 125.307 171.654 126.508 167.898C127.288 167.96 127.609 167.954 128.26 168.413C124.149 179.931 118.789 187.142 109.104 194.583C106.57 196.229 104.019 197.875 101.305 199.207C90.6658 204.387 78.5927 205.84 67.0264 203.332C53.3565 200.378 41.429 192.094 33.8876 180.316C30.7106 175.374 28.8945 170.899 27.2956 165.322C23.5392 166.451 21.0417 166.589 17.0926 166.024C15.8931 179.088 17.5206 191.172 25.9555 201.845C25.1049 202.428 25.1475 202.804 25.5414 203.801C27.2304 210.99 29.4416 217.23 33.4778 223.463C34.8979 225.655 36.4926 227.803 37.9723 229.98C38.3776 230.665 38.7563 231.18 38.8377 231.981C38.6003 231.912 38.1619 231.707 37.9704 231.843C34.9451 233.998 32.2056 238.855 34.1271 242.49C35.0676 244.271 36.7346 244.942 38.5526 245.44C37.6399 243.391 37.8459 241.354 38.5712 239.297C38.8655 238.463 39.6793 237.457 40.6271 238.067C40.8388 239.414 37.9283 241.954 40.7215 245.84L40.8423 246.004C43.2139 246.591 44.8552 246.713 47.2692 246.688C46.2443 244.469 46.0253 241.224 48.1416 239.379C48.4831 239.08 48.6474 238.948 49.0817 239.008C49.3022 239.97 46.3877 246.351 50.1574 246.699C58.4263 247.462 69.1279 242.76 68.3069 233.01C67.8922 228.084 67.8599 226.578 68.8874 221.663C65.9299 221.281 62.8919 220.785 60.1138 219.675C59.5142 219.222 58.6972 218.811 58.8395 218.021C66.911 219.918 75.2202 220.595 83.4916 220.033C84.2591 219.985 87.4031 219.701 88.0245 219.433C88.5608 219.409 88.8707 219.454 89.3154 219.156C89.6847 218.593 89.6366 217.634 89.7024 216.888C90.6112 216.562 90.5374 216.692 91.1347 217.48C91.3049 221.901 92.0628 226.53 92.8303 230.799C93.593 235.046 94.2096 241.061 97.6634 244.001C105.71 250.851 117.836 246.699 124.003 239.314C126.479 236.352 128.306 233.903 129.554 230.306C130.44 227.928 130.692 225.844 130.657 223.336L132.504 223.338C132.626 227.814 131.574 230.483 129.816 234.462C135.196 235.586 141.051 236.492 145.85 239.539C146.981 240.257 148.313 241.623 148.532 242.99C148.657 243.77 148.331 244.748 147.82 245.302C142.894 250.643 127.483 252.81 120.748 253.714C105.453 255.766 89.6494 256.214 74.2886 255.909C59.3952 255.615 44.2033 254.708 29.5413 252.088C23.4276 250.887 16.5821 249.75 11.3721 246.169C9.23545 244.702 8.89119 242.063 10.7822 240.482C15.4206 236.602 27.85 234.035 33.5939 233.833C34.4892 232.782 35.4107 231.756 36.3576 230.751C35.0507 228.879 33.6156 227.039 32.3676 225.126C29.2208 220.314 26.7728 215.078 25.0966 209.579C24.2412 206.783 23.7552 203.522 22.9723 201.028C22.6995 200.158 20.1023 196.431 19.3038 194.686C15.0914 185.48 14.0588 175.44 15.3085 165.439C-1.41814 159.934 -2.82889 141.966 3.41403 127.883C7.78359 118.025 13.8462 110.766 21.1758 103.002C18.5073 99.7337 16.4471 96.0128 15.0932 92.0164C13.4427 87.0113 12.9309 81.7008 13.5955 76.4728C14.3773 69.9488 16.6126 65.1089 18.7492 59.0908C21.2319 52.0978 23.3795 45.9886 26.6915 39.3303C24.6106 38.1422 22.8552 36.7059 21.4515 34.7462C19.1589 31.4924 18.2694 27.4539 18.9825 23.5379C19.6495 19.747 21.8038 16.3797 24.966 14.185C32.0039 9.29602 40.3651 12.1606 44.9342 18.9201C51.9686 14.1341 59.2823 11.802 67.603 10.6466C65.6238 8.15902 64.9719 4.2734 69.1986 3.87711C71.6556 3.64669 73.5845 5.16632 75.3437 6.68082ZM91.0319 231.302C90.4121 228.468 89.8967 223.943 89.5836 221.09C83.0147 222.329 77.3579 222.172 70.7771 221.804C70.4428 223.516 68.9547 230.025 70.3597 231.177C72.9374 231.312 75.7923 231.157 78.4128 231.153C82.6197 231.153 86.8266 231.202 91.0319 231.302Z" fill="#532B01"/>
<path d="M70.3717 231.18C72.9495 231.315 75.8044 231.161 78.4249 231.156C82.6318 231.156 86.8387 231.206 91.044 231.306C91.4582 234.194 91.9705 237.072 92.8761 239.845C95.3312 247.35 103.258 250.234 110.58 249.111C118.981 247.823 125.765 241.666 129.828 234.466C135.208 235.59 141.063 236.495 145.862 239.543C146.993 240.261 148.325 241.627 148.544 242.993C148.669 243.774 148.343 244.752 147.832 245.306C142.906 250.646 127.495 252.814 120.76 253.718C105.465 255.77 89.6615 256.218 74.3007 255.913C59.4072 255.619 44.2154 254.712 29.5533 252.091C23.4397 250.89 16.5942 249.753 11.3842 246.173C9.24749 244.705 8.90323 242.067 10.7942 240.485C15.4326 236.606 27.8621 234.038 33.6059 233.836C31.5105 237.256 30.2831 242.183 33.8469 245.137C38.2782 248.808 46.6099 248.613 52.0778 248.623C56.9223 248.631 63.2033 246.696 66.5747 243.071C70.0595 239.202 70.356 236.301 70.1707 231.379L70.3717 231.18Z" fill="#FED39D"/>
<path d="M24.8175 16.7091C26.1626 17.5091 28.0351 15.686 29.333 15.4904C30.724 15.2571 32.1571 15.452 33.5499 15.5183C35.8436 15.6277 37.6317 17.2404 39.7989 16.0514C41.5027 17.2742 42.2649 18.2345 43.4194 19.9955C42.5562 20.6688 42.0587 21.0239 41.3408 21.8526C40.9945 22.1261 40.5735 22.4337 40.2634 22.7363C39.3718 23.4728 38.8589 23.9779 38.0487 24.8105L38.8067 26.2267C36.4053 28.6804 34.0123 31.1374 32.1441 34.0412L30.7968 33.0391L30.6911 33.0068C30.041 34.1068 29.4231 34.9994 28.6901 36.0502C24.8214 35.853 25.7205 34.3512 22.7603 33.1672C19.1864 27.8515 20.3046 21.0711 24.8175 16.7091Z" fill="#FE8F21"/>
<path d="M26.8766 25.4415C27.5139 20.877 32.8198 19.8398 36.036 22.5156C36.991 23.3101 37.3552 23.8271 38.0548 24.8255L38.8128 26.2418C36.4114 28.6954 34.0184 31.1525 32.1502 34.0562L30.8029 33.0541L30.6972 33.0218C27.3302 31.4598 26.5248 28.9238 26.8766 25.4415Z" fill="#A94E00"/>
<path d="M26.8789 25.4415C27.5162 20.877 32.822 19.8398 36.0382 22.5156C36.9933 23.3101 37.3575 23.8271 38.0571 24.8255L38.8151 26.2418C36.4136 28.6954 34.0207 31.1525 32.1525 34.0562L30.8051 33.0541C32.4413 30.3064 34.46 28.2028 36.5978 25.8596C33.2702 21.1153 30.5033 22.2055 27.0528 25.4033C26.9948 25.416 26.9369 25.4286 26.8789 25.4415Z" fill="#532B01"/>
<path d="M32.0171 133.059C31.6284 132.853 31.6433 132.88 31.3984 132.518C31.427 131.344 32.6032 129.746 33.1557 128.691C37.4384 120.501 43.9511 113.69 51.941 109.045C63.8139 102.076 77.964 100.091 91.2961 103.525C104.636 106.996 116.207 115.895 122.915 127.855C123.49 128.879 125.11 131.429 124.821 132.523L124.299 132.52C123.497 131.935 121.775 128.02 121.048 126.932C120.099 125.514 119.131 124.131 118.085 122.764C108.737 110.674 94.3758 103.521 79.0944 103.343C65.5209 103.115 52.4228 108.338 42.7317 117.845C39.8855 120.616 37.3332 123.937 35.2402 127.339C34.2033 129.025 33.2647 131.562 32.0171 133.059Z" fill="#7FB84F"/>
<path d="M29.6994 155.319C32.6715 156.239 32.3242 159.356 30.4855 161.211C27.4916 164.229 22.0024 164.962 18.0161 164.241C13.0182 163.377 8.57785 160.538 5.69404 156.366C2.33398 151.491 1.11687 145.038 2.16731 139.238C2.89918 163.251 28.8338 163.521 29.6994 155.319Z" fill="#ED7C1B"/>
<path d="M24.8008 16.7248C26.4367 15.2365 28.4598 14.2409 30.6371 13.853C34.0589 13.2392 36.9854 14.121 39.7822 16.0671C37.615 17.2561 35.8269 15.6434 33.5331 15.534C32.1404 15.4677 30.7073 15.2728 29.3163 15.5061C28.0184 15.7017 26.1459 17.5248 24.8008 16.7248Z" fill="#FEB76F"/>
<path d="M85.8008 9.0105C87.2925 7.41701 90.9133 4.9802 92.7197 7.28518L92.3969 7.61162C89.9338 7.33207 86.5587 9.37002 85.8008 9.0105Z" fill="#FEB76F"/>
<path d="M34.2445 138.578C34.7124 140.707 34.641 141.65 33.2975 143.427C32.3358 142.804 31.8622 142.496 30.7282 142.132L30.7188 142.056C33.1282 141.321 33.3908 140.797 34.2445 138.578Z" fill="#ED7C1B"/>
<path d="M22.7578 33.1797C25.7181 34.3637 24.8189 35.8655 28.6876 36.0627L28.6874 36.1758C28.321 36.6978 28.0156 37.1339 27.6881 37.68C25.5456 36.6043 24.0416 35.1929 22.7578 33.1797Z" fill="#ED7C1B"/>
<path d="M36.3943 139.438C36.7653 141.268 37.4065 142.397 36.5604 144.243C36.3084 144.794 35.8451 145.525 35.6788 146.056C35.3388 145.558 34.9559 145.056 34.5977 144.569C36.2446 142.793 36.3456 141.716 36.3943 139.438Z" fill="#508D26"/>
<path d="M68.2773 6.08203C70.1835 4.90023 72.6546 6.4242 73.9128 7.91124L73.6442 8.06859C72.9318 8.01111 68.7467 6.53274 68.2773 6.08203Z" fill="#FEB76F"/>
<path d="M130.365 127.578C131.118 128.531 131.27 129.095 131.577 130.273C132.297 130.257 133.074 130.182 133.75 130.376C131.823 130.459 130.387 130.47 128.477 130.815C130.113 129.676 128.44 129.417 130.365 127.578Z" fill="#ED7C1B"/>
<path d="M28.6791 36.1797C29.3612 36.5684 29.5065 36.7645 29.7163 37.5707L29.2748 38.5926C28.9829 38.2944 28.101 37.8994 27.6797 37.6839C28.0072 37.1378 28.3126 36.7017 28.6791 36.1797Z" fill="#A94E00"/>
<path d="M67.429 101.24C66.3548 100.186 64.981 99.4353 63.8709 98.3821C56.6164 91.4996 57.6216 79.5026 64.2346 72.5239C71.5648 64.7883 84.4615 64.3675 92.1736 71.7511C96.0064 75.3834 98.2351 80.3915 98.3683 85.6698C98.4791 90.2698 96.7402 94.7219 93.5417 98.0301C91.8862 99.7103 91.0352 99.9741 89.3059 101.22C80.9193 99.7707 75.7638 99.7082 67.429 101.24Z" fill="#ED7C1B"/>
<path d="M77.4331 83.3924C73.7895 82.6699 68.3634 79.369 70.0873 75.1358C72.2482 69.8284 91.5568 70.4176 86.4651 79.1924C85.1549 81.4498 81.7813 82.7492 79.413 83.4849L79.3776 89.9602L79.7983 90.9103C79.5703 91.6089 79.4563 92.5056 78.761 92.7925L78.5218 92.4765C78.1252 92.3858 77.4669 91.6157 76.9113 91.2104L77.4444 90.141C77.4524 87.8914 77.4476 85.6418 77.4331 83.3924Z" fill="#532B01"/>
<path d="M77.4511 90.1387C77.8637 89.5955 77.61 89.8074 78.27 89.5195C78.8737 89.5402 78.893 89.6168 79.3843 89.9579L79.805 90.908C79.577 91.6066 79.463 92.5032 78.7677 92.7902L78.5285 92.4742C78.1319 92.3835 77.4735 91.6134 76.918 91.2081L77.4511 90.1387Z" fill="#532B01"/>
<path d="M74.9923 73.792C77.7856 73.0574 80.9343 73.0586 83.6367 74.1467C84.4251 74.3985 85.3901 74.6323 85.175 75.6622C83.8599 76.9721 72.7039 76.743 71.7064 75.7765C71.3887 74.3248 73.9862 74.0045 74.9923 73.792Z" fill="#7D3A00"/>
<path d="M74.9732 73.792C77.7664 73.0574 80.9152 73.0586 83.6175 74.1467C82.6124 75.835 79.8843 75.1355 78.1389 75.2529C77.2992 75.3094 75.7306 75.1203 75.075 74.6304C74.9089 74.5063 74.9732 74.0146 74.9732 73.792Z" fill="#A94E00"/>
<path d="M78.5329 92.4661C75.5466 94.8788 71.9723 96.1265 69.125 91.916C68.9639 91.678 69.2581 91.2686 69.4037 91.0801C71.2141 90.7108 73.3258 95.2803 76.9224 91.2C77.4779 91.6053 78.1363 92.3754 78.5329 92.4661Z" fill="#532B01"/>
<path d="M79.8381 90.8984C83.316 95.4703 86.6526 90.0577 87.8697 91.3891C88.3562 94.1399 81.9688 96.0092 78.8008 92.7806C79.496 92.4937 79.6101 91.5971 79.8381 90.8984Z" fill="#532B01"/>
<path d="M129.814 12.5195C133.327 13.8727 136.065 16.1654 137.608 19.6663C139.225 23.4129 139.294 27.6465 137.803 31.4443C136.423 34.916 134.284 37.0864 131.206 39.0673C135.667 47.7121 138.708 57.9734 141.867 67.2463C146.142 79.7965 144.359 92.5634 135.978 103.077C143.222 111.886 150.956 120.527 154.401 131.656C157.575 141.917 156.803 154.038 147.962 161.271C147.461 161.677 146.947 162.064 146.419 162.433C148.485 178.46 146.711 188.195 138.344 201.045C137.4 202.497 136.478 212.571 135.076 215.053C134.532 216.018 132.428 222.467 132.507 223.332L130.66 223.331C130.476 222.107 130.349 221.439 130.023 220.249C130.617 219.789 131.105 219.742 131.662 219.214C133.944 212.95 135.543 207.089 136.264 200.414L137.864 198.365C143.071 191.055 145.484 180.858 145.352 171.956C145.311 169.171 145.012 166.218 144.725 163.445C139.307 166.189 135.023 166.624 129.19 165.021C128.888 166.152 128.579 167.281 128.263 168.408C127.613 167.949 127.292 167.955 126.511 167.892C126.861 166.797 127.189 165.474 127.497 164.349C123.87 162.247 121.087 159.768 122.68 155.135C119.398 152.299 118.523 149.628 120.214 145.551C118.552 143.226 118.114 138.426 120.458 136.498C121.76 134.132 122.622 134.14 124.295 132.518L124.817 132.521C125.829 132.471 125.994 132.568 126.922 132.969L127.195 132.876C127.513 132.769 127.688 132.73 128.024 132.666L128.083 132.87C125.8 133.766 123.486 134.838 122.298 137.166L121.848 138.153C122.805 140.056 123.383 141.379 125.837 141.432C126.341 141.4 126.897 141.352 127.396 141.336L127.399 142.665C127.062 142.76 126.479 142.905 126.168 143.015C124.71 143.507 123.035 144.366 122.308 145.8C121.9 146.313 121.828 146.572 121.566 147.187C122.451 149.737 122.642 150.817 125.328 152.195C125.676 152.373 126.571 152.727 126.813 152.886L126.633 153.019C126.844 153.523 126.956 153.823 127.113 154.345L125.962 154.795C127.253 157.699 129.471 159.236 132.501 159.679C143.597 161.304 152.424 152.24 153.058 141.509C153.172 139.581 153.145 137.14 153.463 135.361C151.987 125.716 143.228 114.718 137.154 107.441C136.661 106.816 135.221 104.988 134.631 104.556L134.371 104.681C133.66 104.368 133.26 104.69 132.615 104.357C133.663 103.136 134.663 101.875 135.612 100.575C141.653 92.306 143.141 84.05 141.597 74.0681C140.579 68.2742 139.204 65.3733 137.414 59.9215C134.728 51.7369 132.605 45.8493 128.632 38.2282C129.149 37.9568 129.67 37.6925 130.193 37.4353C129.803 36.8431 129.665 36.6581 129.175 36.1488L129.207 36.0721C128.991 35.5411 127.639 33.6022 127.242 33.0102L127.142 32.9902C126.717 33.2285 126.062 33.5609 125.725 33.8731C125.376 33.2385 124.772 32.5265 124.315 31.9433C122.512 29.7893 121.27 28.4776 119.271 26.5758L119.976 25.0469C118.969 24.2726 117.932 22.9635 116.8 22.3226C116.086 21.6474 115.328 21.074 114.559 20.4653C115.522 18.888 115.967 18.3007 117.303 17.0396C118.192 16.1596 119.223 15.4356 120.352 14.8979C123.318 13.4661 126.336 13.2575 129.434 14.3542C129.508 13.7506 129.675 13.1154 129.814 12.5195Z" fill="#532B01"/>
<path d="M117.303 17.0428C118.192 16.1629 119.223 15.4389 120.352 14.9011C123.318 13.4693 126.336 13.2608 129.434 14.3574L130.649 14.8957C136.659 18.0481 138.975 26.3162 135.413 32.0368C133.517 32.8456 132.35 36.0178 129.207 36.0753C128.991 35.5443 127.639 33.6054 127.242 33.0134L127.142 32.9935C126.717 33.2318 126.062 33.5642 125.725 33.8763C125.376 33.2417 124.772 32.5298 124.315 31.9466C122.512 29.7925 121.27 28.4808 119.271 26.579L119.976 25.0501C118.969 24.2758 117.932 22.9667 116.8 22.3259C116.086 21.6507 115.328 21.0773 114.559 20.4686C115.522 18.8913 115.967 18.3039 117.303 17.0428Z" fill="#FE8F21"/>
<path d="M119.982 25.0624C122.33 21.3735 125.777 19.4623 129.695 22.4561C130.498 23.3882 130.763 23.7853 131.089 24.9793C131.251 28.6592 130.668 31.0934 127.248 33.0257L127.148 33.0058C126.723 33.2441 126.068 33.5765 125.731 33.8886C125.382 33.2541 124.778 32.5421 124.321 31.9589C122.518 29.8049 121.276 28.4932 119.277 26.5914L119.982 25.0624Z" fill="#A94E00"/>
<path d="M119.982 25.0624C122.33 21.3735 125.777 19.4623 129.695 22.4561L128.508 23.3134C125.405 21.7081 123.011 23.4417 121.381 26.1139C122.667 27.4389 124.515 29.2331 125.531 30.6907C126 31.3032 126.872 32.3401 127.148 33.0058C126.723 33.2441 126.068 33.5765 125.731 33.8886C125.382 33.2541 124.778 32.5421 124.321 31.9589C122.518 29.8049 121.276 28.4932 119.277 26.5914L119.982 25.0624Z" fill="#532B01"/>
<path d="M129.663 22.4395C130.466 23.3716 130.731 23.7686 131.057 24.9626L130.737 25.1039C130.254 25.0569 128.994 23.7555 128.477 23.2967L129.663 22.4395Z" fill="#532B01"/>
<path d="M117.32 17.0428C118.21 16.1629 119.241 15.4389 120.37 14.9011C123.335 13.4693 126.354 13.2608 129.451 14.3574L130.667 14.8957C128.401 15.8491 125.708 15.2724 123.319 15.6516C121.895 15.8779 118.616 17.7512 117.32 17.0428Z" fill="#FEB76F"/>
<path d="M153.453 135.357C154.885 142.145 154.601 149.489 150.736 155.47C147.986 159.706 143.655 162.664 138.71 163.684C134.795 164.485 130.44 164.072 126.97 161.978C124.486 160.482 122.357 156.352 125.952 154.791C127.243 157.696 129.461 159.233 132.491 159.676C143.588 161.301 152.414 152.237 153.048 141.506C153.162 139.577 153.135 137.137 153.453 135.357Z" fill="#ED7C1B"/>
<path d="M121.565 147.197C122.449 149.747 122.64 150.828 125.327 152.205C125.675 152.384 126.569 152.737 126.812 152.896L126.632 153.029C125.559 153.284 125.179 153.451 124.174 153.882C121.332 152.17 120.967 150.291 121.565 147.197Z" fill="#ED7C1B"/>
<path d="M120.221 145.551C118.559 143.226 118.121 138.426 120.465 136.498C119.333 139.395 119.261 141.452 121.39 143.942L120.221 145.551Z" fill="#508D26"/>
<path d="M122.804 142.776C121.326 141.188 121.296 140.154 121.853 138.158C122.81 140.061 123.388 141.384 125.842 141.437C124.739 141.665 123.767 142.224 122.804 142.776Z" fill="#ED7C1B"/>
<path d="M129.192 36.0776C132.335 36.0201 133.502 32.8479 135.398 32.0391C134.337 34.2808 132.349 36.2604 130.178 37.4408C129.788 36.8486 129.65 36.6636 129.16 36.1543L129.192 36.0776Z" fill="#ED7C1B"/>
<path d="M141.583 74.0781C143.128 84.0599 141.639 92.316 135.598 100.585C134.65 101.885 133.649 103.146 132.601 104.367C133.246 104.7 133.646 104.378 134.357 104.691L134.617 104.566C135.207 104.998 136.647 106.826 137.14 107.451C135.749 108.011 130.21 110.28 128.932 109.641L128.85 109.019C128.042 108.696 127.278 110.062 126.477 108.924C126.494 108.179 127.565 106.804 128.092 106.286C135.289 99.2058 140.224 90.5046 141.172 80.3346C141.336 78.5837 141.13 75.6888 141.583 74.0781Z" fill="#ED7C1B"/>
<path d="M134.382 104.684C133.629 105.428 132.169 106.81 131.097 106.868L130.957 106.647C131.291 105.76 131.988 105.111 132.625 104.359C133.271 104.693 133.671 104.37 134.382 104.684Z" fill="#C76109"/>
<path d="M15.6512 75.6582C15.9696 78.0944 16.0981 80.6001 16.4663 83.0128C17.624 90.6005 21.2888 97.4669 26.243 103.248C27.6722 104.916 29.5734 106.325 30.7664 108.183C31.0273 108.598 30.9051 109.099 30.7328 109.524C29.7412 110.191 29.1613 109.147 28.4415 109.459L28.3937 109.974C26.7517 110.623 21.1345 108.12 19.5704 107.469C20.4447 106.482 21.3147 105.159 22.4974 104.703C23.0583 104.831 22.9271 104.848 23.4093 105.332C24.1273 105.14 24.2759 105.079 24.9303 104.725C17.8835 96.2029 13.5555 87.0554 15.6512 75.6582Z" fill="#ED7C1B"/>
<path d="M24.9195 104.719C25.5403 105.373 26.1042 105.847 26.415 106.68L26.3815 107.079C25.5041 107.331 23.9604 105.961 23.3984 105.326C24.1165 105.134 24.265 105.072 24.9195 104.719Z" fill="#C76109"/>
<path d="M23.8808 130.593C24.2634 129.104 26.2505 124.393 27.7446 123.979L27.9854 124.12C28.3664 125.104 27.7123 126.874 27.5647 128.062L27.7478 128.204L28.2125 127.828C28.5321 128.058 29.5855 129.606 30.1032 130.173L30.2429 130.324L29.6285 131.745C28.6049 131.411 27.5771 131.091 26.5449 130.785C25.2443 130.619 24.8667 130.953 23.6016 130.651L23.8808 130.593Z" fill="#ED7C1B"/>
<path d="M23.8808 130.595C25.8526 130.744 24.8119 129.801 25.9895 128.804L26.3246 128.799C27.0066 129.535 26.788 129.817 26.5449 130.787C25.2443 130.621 24.8667 130.955 23.6016 130.654L23.8808 130.595Z" fill="#A94E00"/>
<path d="M16.8789 132.275C17.894 131.728 18.2225 131.592 19.3212 131.238C20.5309 131.62 21.845 132.43 22.7703 132.406C26.6294 132.467 31.6739 133.51 33.6058 137.305C32.649 137.334 29.7573 134.772 28.2851 134.304C25.0364 133.271 18.294 134.195 16.9524 133.584L18.351 133.143C17.8672 133.006 17.2866 132.566 16.8789 132.275Z" fill="#FEB76F"/>
<path d="M16.8789 132.275C17.894 131.728 18.2225 131.592 19.3212 131.238C20.5309 131.62 21.845 132.43 22.7703 132.406C21.318 132.551 19.7272 132.668 18.351 133.143C17.8672 133.006 17.2866 132.566 16.8789 132.275Z" fill="#7D3A00"/>
<path d="M128.063 132.874C130.768 132.157 132.883 131.957 135.678 132.448C137.173 132.66 138.161 132.941 139.608 133.417C138.707 133.916 135.118 133.322 133.766 133.375C131.558 133.461 129.961 133.637 127.793 134.095C125.922 134.491 123.58 137.221 122.277 137.17C123.466 134.842 125.779 133.77 128.063 132.874Z" fill="#FEB76F"/>
<path d="M126.117 130.044C126.705 130.016 127.27 130.035 127.814 129.819C127.983 128.431 126.883 125.127 127.702 124.074L128.047 124.059C129.219 124.802 129.765 126.321 130.351 127.586C128.426 129.425 130.099 129.684 128.463 130.823C128.352 130.886 126.967 131.357 126.753 131.432L126.117 130.044Z" fill="#ED7C1B"/>
<path d="M34.2004 147.498C34.8086 149.727 34.6406 153.267 31.9598 154.239C31.4871 154.409 31.0518 154.122 30.6266 153.898C30.0554 153.752 29.4859 153.6 28.918 153.441C32.5312 152.084 33.3532 151.206 34.2004 147.498Z" fill="#ED7C1B"/>
<path d="M127.137 33L127.236 33.0199C127.633 33.6119 128.985 35.5508 129.201 36.0818L129.169 36.1586C129.659 36.6679 129.797 36.8529 130.187 37.4451C129.664 37.7023 129.144 37.9666 128.627 38.2379L128.567 38.1427C127.87 36.7175 126.681 35.1648 125.719 33.8828C126.056 33.5707 126.711 33.2383 127.137 33Z" fill="#ED7C1B"/>
<path d="M129.176 36.1602C129.666 36.6695 129.804 36.8545 130.194 37.4466C129.67 37.7039 129.15 37.9682 128.633 38.2395L128.574 38.1443C128.524 37.103 128.331 36.7756 129.176 36.1602Z" fill="#A94E00"/>
<path d="M116.809 22.3203C117.941 22.9611 118.979 24.2703 119.986 25.0445L119.281 26.5735C118.796 25.9168 115.713 23.4612 114.918 22.8027C115.905 22.9102 116.296 23.1749 116.809 22.3203Z" fill="#C76109"/>
<path d="M30.6809 33.0195L30.7865 33.0518L32.1338 34.0539L29.717 37.567C29.5071 36.7608 29.3618 36.5648 28.6797 36.176L28.6799 36.063C29.4129 35.0122 30.0307 34.1196 30.6809 33.0195Z" fill="#C76109"/>
<path d="M29.1495 155.006C28.0875 154.83 26.4813 154.747 25.8398 153.918L25.9397 153.66C26.9348 153.247 27.8258 153.392 28.9041 153.446C29.4721 153.605 30.0416 153.758 30.6127 153.904C30.1707 154.222 29.5397 154.647 29.1495 155.006Z" fill="#A94E00"/>
<path d="M29.4351 143.365C28.5634 143.158 26.98 143.034 26.6016 142.228C27.4025 141.437 29.6954 141.894 30.7131 142.058L30.7226 142.134C30.3531 142.455 29.7224 142.98 29.4351 143.365Z" fill="#7D3A00"/>
<path d="M38.0391 24.8145C38.8493 23.9819 39.3621 23.4768 40.2538 22.7402C40.367 23.2525 40.4564 23.9016 40.7458 24.3103C40.1027 24.9569 39.4532 25.5971 38.7971 26.2307L38.0391 24.8145Z" fill="#ED7C1B"/>
<path d="M138.984 131.777C139.981 132.252 140.567 132.417 141.147 133.382L141.039 133.638C140.498 133.803 140.158 133.602 139.609 133.409C138.162 132.933 137.175 132.652 135.68 132.44C136.868 132.399 137.896 132.282 138.984 131.777Z" fill="#ED7C1B"/>
<path d="M126.817 152.893C127.754 152.885 129.153 152.754 129.853 153.396C129.533 154.216 127.933 154.239 127.117 154.353C126.959 153.831 126.847 153.531 126.637 153.027L126.817 152.893Z" fill="#A94E00"/>
<path d="M40.2383 22.743C40.5483 22.4405 40.9694 22.1328 41.3157 21.8594C41.9471 22.4691 42.1238 22.3587 42.9843 22.4694C42.3151 23.0278 41.4175 23.8146 40.7303 24.313C40.4409 23.9044 40.3515 23.2552 40.2383 22.743Z" fill="#C76109"/>
<path d="M16.9808 133.586C16.8181 133.643 16.6545 133.699 16.4902 133.751C15.8839 133.939 15.8735 133.932 15.4528 133.717L15.4414 133.375C15.8207 132.762 16.2626 132.618 16.9072 132.277C17.3149 132.568 17.8955 133.009 18.3793 133.145L16.9808 133.586Z" fill="#C76109"/>
<path d="M127.398 141.338C128.113 141.37 128.598 141.311 129.192 141.69L129.343 141.982C128.84 142.682 128.241 142.584 127.402 142.667L127.398 141.338Z" fill="#7D3A00"/>
<path d="M120.033 74.1602C130.59 73.9724 132.229 86.9726 120.856 87.98C118.806 88.0858 116.444 87.4469 114.853 86.1381C113.467 85.0123 112.592 83.3761 112.426 81.5981C112.03 77.0211 115.911 74.4871 120.033 74.1602Z" fill="#FEB76F"/>
<path d="M35.9877 74.137C39.948 73.7783 44.1791 76.0144 44.7822 80.2188C45.0325 81.9271 44.5746 83.6635 43.5145 85.0262C42.031 86.9219 40.0152 87.6347 37.7451 87.9553C33.7286 88.2887 29.1908 86.1555 28.7131 81.756C28.5381 80.0521 29.0553 78.3492 30.1483 77.0305C31.6918 75.1399 33.6562 74.391 35.9877 74.137Z" fill="#FEB76F"/>
<path d="M51.8565 59.8257C60.0696 58.8741 61.4599 72.8533 53.6648 75.1574C45.0593 75.6304 44.6471 62.3479 51.8565 59.8257Z" fill="#532B01"/>
<path d="M52.1851 62.3641C52.4162 62.332 52.6493 62.3167 52.8826 62.3185C55.0267 62.3452 55.3122 64.9114 53.5684 66.365C50.8144 66.5156 50.2413 64.1294 52.1851 62.3641Z" fill="#F2F2F1"/>
<path d="M103.205 59.8376C111.736 58.976 112.913 72.7253 105.761 75.0429C97.6907 76.732 95.6081 62.4676 103.205 59.8376Z" fill="#532B01"/>
<path d="M103.696 62.1797C106.371 62.7359 106.559 65.2599 104.23 66.5425C103.397 66.3526 102.809 66.1363 102.349 65.3472C102.074 64.8811 102.005 64.3217 102.158 63.8026C102.416 62.895 102.92 62.6116 103.696 62.1797Z" fill="#F2F2F1"/>
<path d="M53.6285 47.1511C54.937 47.0483 56.8941 47.1079 57.2912 48.6577C56.9787 49.6269 55.9805 49.476 55.1068 49.4559C53.3234 49.4151 52.4157 49.317 50.794 50.2398L50.6194 50.3412C49.9198 50.864 48.9354 52.1548 48.0507 51.3386C47.7944 49.104 51.8552 47.5426 53.6285 47.1511Z" fill="#532B01"/>
<path d="M101.919 47.1579C104.199 47.0052 106.85 47.7561 108.356 49.5498C108.905 50.2059 109.565 51.1993 108.719 51.836C108.285 51.7856 108.227 51.7168 107.898 51.4336C106.317 50.0244 104.933 49.047 102.71 49.4448C101.758 49.6153 100.517 49.7704 99.918 48.8751C100.048 47.8429 101.039 47.3978 101.919 47.1579Z" fill="#532B01"/>
</svg>
