<svg width="206" height="256" viewBox="0 0 206 256" fill="none" xmlns="http://www.w3.org/2000/svg">
<path d="M76.5981 7.99844C76.5923 7.2921 76.6094 6.40346 76.5964 5.71874C76.4879 0.0689179 81.5582 -1.99916 85.3298 2.2932C86.6877 3.83896 87.1501 5.01326 87.7967 6.98398C89.8781 3.10631 93.9536 -0.799827 98.096 3.23833C99.0776 6.06944 98.9134 7.55786 97.6011 10.1908C103.484 9.82044 112.805 12.303 118.07 14.8861C121.035 7.92226 126.024 3.20431 134.2 4.56648C141.964 5.86017 146.814 14.6047 145.116 21.9946C144.326 25.437 142.629 29.095 139.531 31.1033C145.69 37.5091 150.313 49.4445 154.442 57.2409C157.468 62.9485 161.123 66.8512 162.942 73.5027C164.36 78.6937 165.069 88.1821 162.559 92.753L162.683 92.8153C165.223 94.0519 168.238 94.8958 170.872 96.4137C180.253 101.823 187.864 110.372 191.596 120.592C191.782 121.102 192.034 121.804 192.131 122.318C210.184 123.992 211.596 158.216 189.105 161.722C187.558 163.591 186.45 165.895 184.956 167.877C179.236 175.468 169.314 182.578 159.901 184.322C174.537 191.52 172.365 210.92 167.187 223.416C166.348 225.44 165.405 227.426 164.482 229.409C166.81 231.686 167.407 233.111 168.069 236.351L168.218 236.37C170.701 236.753 179.463 239.449 180.056 242.299C180.756 245.676 172.62 248.149 169.652 248.922C157.789 251.96 145.93 253.357 133.679 254.252C96.2603 256.986 57.9287 256.894 20.7811 251.136C14.9709 250.009 8.12957 248.945 2.89647 246.052C-6.37658 240.93 9.25981 236.877 12.9274 236.152L13.3761 235.987L13.5478 235.565C12.4492 228.232 13.8829 214.549 18.3122 208.358C21.3122 204.164 24.2855 204.059 28.9851 203.338C29.4805 202.654 27.8697 198.342 27.5973 197.238C24.0651 182.923 25.6991 166.233 30.0313 152.245C28.2884 147.787 28.4949 139.89 29.0269 135.138C29.6932 129.184 32.3746 123.086 34.8679 117.715C33.8078 116.997 33.1922 116.294 32.3284 115.406C21.0174 103.767 22.3483 87.6249 25.2319 72.9243C26.4369 66.7811 27.5132 60.5385 29.5182 54.5444C30.1036 52.7941 30.7807 50.9582 31.2865 49.1753L31.0644 48.8235C28.3475 48.1176 24.826 45.1616 23.2952 42.746C20.9697 39.1058 20.1946 34.6877 21.1428 30.4734C24.1053 17.3396 40.4628 14.0082 47.8086 26.07C51.8622 21.5358 62.6913 16.0831 68.7645 15.0006C66.5723 12.6849 64.245 8.58794 68.6643 6.80103C71.3348 5.72131 74.1249 6.87292 76.5981 7.99844ZM83.8681 223.23L83.2251 223.399C82.9815 223.874 82.1408 228.915 81.8678 230.064C91.8534 230.049 101.702 229.946 111.666 230.657C114.384 230.851 118.074 230.762 120.572 231.044L121.183 230.937C121.741 229.595 120.291 220.2 119.989 218.291C118.775 218.092 116.873 217.521 115.589 217.204C113.477 217.97 111.386 218.946 109.247 219.71C103.277 221.899 96.997 223.125 90.642 223.341C88.6984 223.42 85.7571 223.531 83.8681 223.23Z" fill="#F0801E"/>
<path d="M73.1295 15.7672C71.6028 14.3811 68.8276 12.7861 68.289 10.7679C68.1898 10.3555 68.2779 9.7487 68.5561 9.41362C71.3671 6.02873 75.3917 9.91646 77.8587 11.6824C78.3637 12.0438 78.6142 12.0746 79.1276 11.9833C80.3607 9.76668 75.9729 3.61102 80.8386 2.06055C86.4823 2.51525 86.0982 12.0671 87.0688 12.8862C88.6711 11.7226 90.6568 1.95056 95.3772 3.75331C98.6552 5.00507 95.3344 10.5376 94.4453 12.7681L95.2976 12.5802C103.605 10.6823 116.063 15.9245 123.333 19.7114L125.507 21.0644C128.39 23.1671 130.914 25.0165 133.559 27.4139C133.971 27.1366 134.27 26.6258 134.578 26.1996L134.854 25.8795C135.014 26.5084 135.176 26.5982 135.645 27.0891L135.269 28.7416C135.911 29.9947 137.566 31.7987 138.514 32.9604C139.84 34.5701 141.072 36.256 142.202 38.0091C146.081 44.0559 148.931 50.6564 152.074 57.1035C153.79 60.6262 156.193 63.8793 158.166 67.4338C162.298 74.8738 162.992 83.0699 161.038 91.2628C160.954 91.6127 160.77 91.958 160.559 92.245C161.23 92.4055 161.9 92.5739 162.568 92.75L162.692 92.8122C165.232 94.0488 168.247 94.8927 170.881 96.4107C180.262 101.82 187.873 110.369 191.605 120.589C191.791 121.099 192.044 121.801 192.14 122.315C191.365 122.594 190.815 122.888 190.017 122.78C189.795 121.341 188.785 119.058 188.128 117.717C185.01 111.196 180.333 105.545 174.506 101.266C165.071 94.309 153.26 91.3842 141.668 93.1351C129.8 94.9325 119.153 101.422 112.117 111.146C110.561 113.284 102.054 127.927 105.038 129.503C108.99 131.589 113.508 135.74 110.257 140.425C111.088 141.761 111.471 142.276 111.941 143.775C112.454 145.663 112.652 146.894 111.946 148.816C111.216 150.698 109.911 151.203 110.257 152.204L110.107 152.73L109.56 152.175C108.991 152.395 109.248 152.222 108.858 152.827C108.674 152.687 108.232 152.123 108.058 151.913C107.891 152.55 107.851 153.179 107.73 153.822C106.591 159.871 99.7345 158.338 95.4814 159.719C93.8468 160.25 92.5874 161.449 91.177 162.386C79.1856 170.352 61.7192 171.39 49.3837 163.688C48.0142 162.833 42.2997 158.064 42.1396 158.03L41.7523 159.018L41.4994 159.054C39.2979 156.825 35.953 150.409 35.0402 147.36C32.2666 138.094 33.4894 131.702 37.5735 123.399C40.3049 123.148 48.1319 123.857 50.0611 123.029L50.1294 122.577C49.3631 121.165 41.23 115.843 38.8884 113.5C30.9238 105.531 26.084 95.2907 25.7104 84.082C25.7459 82.1609 26.472 78.3836 26.7904 76.3423C28.4419 65.7535 30.8179 57.2208 34.3396 47.1799C33.9185 46.4993 34.2033 46.6874 33.5367 46.4892C33.0638 46.8307 33.0014 46.8624 32.4692 47.1074C29.5708 46.3564 27.4693 44.4761 25.5688 42.2992C25.481 42.1746 25.3961 42.0482 25.3139 41.9198C15.7556 26.971 36.2596 10.9416 46.6005 27.7413C46.6982 28.5292 46.63 28.4639 47.3847 29.1253C55.4151 22.0269 62.6905 18.202 73.1295 15.7672Z" fill="#FF9B34"/>
<path d="M104.526 120.959C104.974 119.391 106.182 117.09 106.978 115.623C117.711 95.8315 138.751 86.9326 160.534 92.2546C161.206 92.4151 161.876 92.5835 162.544 92.7596L162.668 92.8219C165.208 94.0584 168.223 94.9024 170.857 96.4203C180.238 101.83 187.849 110.378 191.581 120.598C191.767 121.109 192.019 121.811 192.116 122.325C191.341 122.603 190.791 122.897 189.993 122.79C189.77 121.351 188.76 119.068 188.103 117.727C184.986 111.205 180.308 105.555 174.482 101.276C165.047 94.3186 153.235 91.3938 141.644 93.1448C129.776 94.9422 119.128 101.432 112.092 111.156C110.537 113.294 102.03 127.937 105.014 129.512C108.965 131.599 113.483 135.75 110.233 140.434C111.063 141.771 111.447 142.285 111.916 143.785C111.415 143.895 111.201 143.922 110.727 144.151L110.669 145.536C110.432 144.754 110.061 143.953 109.738 143.196C107.294 139.382 103.825 140.815 101.114 139.697L101.158 139.379C103.024 138.364 104.876 138.648 106.871 138.821C107.436 138.498 108.858 136.514 108.952 135.715L108.865 135.555C105.305 129.163 98.0711 130.164 92.8596 134.053C90.6227 135.722 88.9397 138.378 87.3256 140.643C87.6269 139.111 87.8165 138.397 88.3361 136.925C82.0112 136.595 76.2496 135.824 70.2843 133.638C67.1443 132.488 63.7621 131.499 60.7617 130.033C66.3834 129.84 71.5234 132.211 76.8089 133.536C80.7432 134.523 84.9216 134.937 88.9688 135.051C93.3676 130.548 95.7387 129.517 102.03 128.902C102.499 127.624 102.773 126.57 103.118 125.248C103.533 123.687 103.978 122.466 104.526 120.959Z" fill="#553F09"/>
<path d="M108.96 135.717C109.035 136.667 109.235 137.997 108.945 138.851C108.221 139.441 107.766 139.104 106.879 138.823C107.445 138.5 108.866 136.516 108.96 135.717Z" fill="#F0801E"/>
<path d="M30.0246 32.6055C31.5249 32.9896 32.8299 29.9086 35.7345 30.6844C43.7652 32.83 36.9227 37.2054 35.9194 42.2366L35.8081 42.2734C31.6862 40.1601 28.6218 37.8764 30.0246 32.6055Z" fill="#A94F05"/>
<path d="M30.0391 32.6014C31.0878 29.0409 34.012 28.0258 37.3841 29.2148C40.0112 30.1413 41.4213 32.2659 42.7287 34.5976C40.8318 36.2531 37.7712 40.7982 36.6709 43.1211L35.9338 42.2325C36.9371 37.2013 43.7796 32.8259 35.7489 30.6804C32.8443 29.9045 31.5393 32.9855 30.0391 32.6014Z" fill="#613302"/>
<path d="M109.762 143.197C110.085 143.954 110.456 144.755 110.692 145.538L110.751 144.152C111.224 143.924 111.439 143.897 111.94 143.786C112.453 145.674 112.651 146.905 111.945 148.827C111.215 150.709 109.91 151.214 110.256 152.215L110.107 152.741L109.559 152.186C108.99 152.406 109.247 152.233 108.857 152.838C108.673 152.698 108.231 152.134 108.057 151.924C106.362 150.533 103.517 151.127 102.082 150.102L102.116 149.766C102.827 149.222 103.394 149.247 104.274 149.159C105.047 148.95 105.967 149.018 106.786 149.026L106.992 148.892C109.296 147.385 109.214 145.83 109.762 143.197Z" fill="#613302"/>
<path d="M109.769 143.197C110.092 143.954 110.463 144.755 110.7 145.538C110.393 146.957 110.173 148.723 109.204 149.749C108.175 150.168 108.178 149.998 107.281 149.243C106.334 149.219 105.211 149.22 104.281 149.159C105.055 148.95 105.975 149.018 106.793 149.026L106.999 148.892C109.304 147.385 109.221 145.83 109.769 143.197Z" fill="#F0801E"/>
<path d="M103.115 125.234C100.947 124.373 94.4112 125.585 93.9609 123.626C94.6433 122.93 97.8962 122.691 99.0455 122.38C100.418 122.008 103.327 120.63 104.524 120.945C103.975 122.452 103.53 123.673 103.115 125.234Z" fill="#F0801E"/>
<path d="M25.5586 42.2988C26.0315 42.0748 26.26 41.8315 26.6822 42.0894C29.6655 43.9129 29.7723 45.0531 33.4465 45.3168C34.1306 44.4953 34.9754 43.4226 35.7105 42.6859L35.8121 42.2723L35.9234 42.2355L36.6605 43.1241C36.1752 44.4392 35.4943 46.5721 34.3294 47.1796C33.9083 46.499 34.1931 46.6871 33.5266 46.4889C33.0537 46.8304 32.9912 46.8621 32.459 47.1071C29.5607 46.356 27.4592 44.4758 25.5586 42.2988Z" fill="#F0801E"/>
<path d="M134.581 26.199L134.857 25.8789C135.017 26.5078 135.18 26.5976 135.648 27.0885L135.272 28.741C134.773 28.5093 134.012 27.7978 133.562 27.4133C133.974 27.136 134.273 26.6253 134.581 26.199Z" fill="#BF620B"/>
<path d="M46.5784 27.7402C46.6762 28.5281 46.6079 28.4628 47.3627 29.1242C46.7567 29.7088 46.4126 30.1487 45.623 30.4261L45.3594 30.2134C45.4865 29.237 46.0315 28.5852 46.5784 27.7402Z" fill="#6C3603"/>
<path d="M58.7252 85.9305C64.0619 85.3385 67.3989 88.3897 68.4971 93.3846C67.0966 98.3865 64.9394 100.862 59.5474 101.416C57.2822 101.517 55.109 101.318 53.1663 100.051C51.5753 99.0278 50.4688 97.4018 50.1012 95.5464C49.0557 90.0877 54.0461 86.8682 58.7252 85.9305Z" fill="#FED59C"/>
<path d="M95.1906 79.5814C95.3062 79.4005 95.4232 79.221 95.5422 79.0428C99.497 73.1362 105.822 75.5869 111.042 74.3984C112.156 76.2547 113.496 77.736 112.698 80.0981C111.831 82.6639 109.014 84.3819 106.743 85.5429C106.906 88.0542 107.145 90.7614 107.08 93.2593C109.899 96.136 111.72 95.749 114.729 93.5159C115.336 92.7492 115.053 92.874 115.839 92.715C116.392 93.1586 116.2 92.877 116.36 93.6323C116.159 94.271 116.089 94.3051 115.626 94.8162C114.192 96.6579 112.948 96.9763 110.745 97.5021C109.132 97.0636 107.765 96.5032 106.269 95.774C104.147 97.8404 101.769 99.8402 98.5026 99.2473C97.1824 99.0076 94.8335 97.9734 94.064 96.8621C93.9816 96.0881 93.9119 96.4467 94.3043 95.753C94.4336 95.6942 94.563 95.6351 94.6923 95.5763C96.3489 96.3235 97.5953 97.0805 99.3166 97.602L99.6219 97.5055C102.411 96.6175 103.839 95.9043 105.203 93.2668C105.06 90.4013 104.965 88.7284 104.604 85.8785C99.6733 85.0838 97.1032 84.5473 95.1906 79.5814Z" fill="#613302"/>
<path d="M114.719 93.5197C115.326 92.753 115.042 92.8777 115.829 92.7188C116.381 93.1623 116.19 92.8807 116.35 93.6361C116.148 94.2748 116.078 94.3088 115.615 94.82C115.252 94.5945 114.948 93.9286 114.719 93.5197Z" fill="#6C3603"/>
<path d="M100.641 77.4325C101.172 77.1828 102.383 76.6136 102.912 76.4279C104.259 75.9548 108.646 75.7519 109.838 76.2398L110.003 76.6436C108.851 77.9291 103.24 77.6234 101.279 78.047L100.641 77.4325Z" fill="#BF620B"/>
<path d="M101.276 78.0383C100.241 78.4134 98.1628 79.4632 97.4023 78.3886L97.67 77.9076C98.6107 77.2314 99.518 77.243 100.638 77.4238L101.276 78.0383Z" fill="#A94F05"/>
<path d="M141.499 71.8129C145.396 71.3676 149.845 72.4253 151.131 76.6494C151.668 78.4555 151.469 80.401 150.575 82.0602C149.295 84.385 147.288 85.3186 144.876 86.0209C141.187 86.8515 136.811 85.6907 135.276 81.9234C134.6 80.2181 134.647 78.3109 135.407 76.641C136.615 73.9316 138.896 72.8012 141.499 71.8129Z" fill="#FED59C"/>
<path d="M72.1996 68.7788C80.8123 68.1548 84.2463 81.6355 74.4573 84.9945C73.0459 85.0919 72.4947 85.0223 71.1494 84.4444C69.2461 83.6388 67.7555 82.0894 67.0241 80.1565C65.1162 75.1326 67.1681 70.5952 72.1996 68.7788Z" fill="#613302"/>
<path d="M70.7307 71.8998C73.0975 71.826 74.0043 74.7121 71.4931 76.3362C68.3869 76.0792 68.6446 73.6384 70.7307 71.8998Z" fill="#F1F1F1"/>
<path d="M125.449 59.8184C133.861 59.8894 135.113 73.3684 127.595 75.1624C125.685 75.2094 124.669 75.2738 122.964 74.0784C119.49 71.642 118.994 65.6002 121.253 62.2286C122.304 60.6601 123.656 60.1194 125.449 59.8184Z" fill="#613302"/>
<path d="M123.24 63.3667C124.192 62.9108 125.333 63.3173 125.782 64.2723C126.231 65.2273 125.816 66.3652 124.857 66.8071C123.909 67.2444 122.785 66.8347 122.341 65.8895C121.897 64.9444 122.298 63.818 123.24 63.3667Z" fill="#F1F1F1"/>
<path d="M71.5859 54.0781C72.7617 54.1851 73.6027 54.2912 74.4038 55.2991L74.3144 55.6851C71.4451 57.7536 70.1561 54.9024 66.5439 59.447C66.0025 60.1927 66.0952 60.3177 65.3212 60.6168L64.8997 60.3694C64.1758 58.3559 66.4557 55.8849 68.1231 54.9903C69.4132 54.2981 70.1473 54.2031 71.5859 54.0781Z" fill="#613302"/>
<path d="M122.087 45.6687C124.442 45.4222 129.39 46.6847 128.703 49.6956L128.225 49.9273C127.499 49.8445 127.349 49.6179 126.798 49.1148L126.608 48.9402C122.875 46.753 121.083 49.0464 119.294 48.0133C119.109 46.5127 120.97 46.0755 122.087 45.6687Z" fill="#613302"/>
<path d="M110.251 140.424C113.502 135.739 108.983 131.589 105.032 129.502C102.048 127.927 110.555 113.284 112.11 111.146C119.147 101.422 129.794 94.9321 141.662 93.1347C153.253 91.3838 165.065 94.3086 174.5 101.266C180.326 105.545 185.004 111.195 188.122 117.717C188.778 119.058 189.788 121.341 190.011 122.78C183.542 124.348 184.345 128.093 182.246 129.13C182.616 130.786 183.144 133.449 183.652 134.975C183.014 137.012 182.177 138.898 182.712 140.966C182.911 141.73 183.183 142.833 183.138 143.596C183.938 143.947 184.469 144.118 184.769 144.985L184.405 145.672C184.035 146.683 183.874 147.76 183.673 148.821C183.414 149.73 183.23 150.873 183.487 151.791L183.337 151.985L184.148 155.111C185.331 155.865 187.21 157.1 188.44 157.758C178.216 180.351 152.496 189.946 130.148 180.052C122.885 176.835 112.612 168.481 109.634 161.028C109.44 160.725 109.293 160.434 109.124 160.118C109.194 159.151 109.912 158.2 110.43 157.258C111.057 155.282 111.271 154.872 110.838 152.86L110.251 152.204C109.905 151.203 111.21 150.698 111.94 148.816C112.646 146.894 112.448 145.662 111.935 143.775C111.465 142.275 111.081 141.761 110.251 140.424Z" fill="#F1F1F1"/>
<path d="M110.251 140.424C113.502 135.739 108.983 131.589 105.032 129.502C102.048 127.927 110.555 113.284 112.11 111.146C119.147 101.422 129.794 94.9321 141.662 93.1347C153.253 91.3838 165.065 94.3086 174.5 101.266C180.326 105.545 185.004 111.195 188.122 117.717C188.778 119.058 189.788 121.341 190.011 122.78C183.542 124.348 184.345 128.093 182.246 129.13C179.502 117.032 168.461 106.096 156.358 103.502C151.323 102.423 144.848 102.385 139.839 103.592C130.811 105.843 123.049 111.591 118.263 119.57C113.234 128.13 111.748 138.316 114.12 147.956C115.198 152.24 117.452 156.529 120.045 160.082C128.636 171.853 143.205 176.762 157.272 173.201C167.952 170.497 176.99 162.012 181.107 151.849C181.379 151.167 181.854 150.079 181.978 149.389C182.731 150.46 182.849 150.758 183.337 151.985L184.148 155.111C185.331 155.865 187.21 157.1 188.44 157.758C178.216 180.351 152.496 189.946 130.148 180.052C122.885 176.835 112.612 168.481 109.634 161.028C109.44 160.725 109.293 160.434 109.124 160.118C109.194 159.151 109.912 158.2 110.43 157.258C111.057 155.282 111.271 154.872 110.838 152.86L110.251 152.204C109.905 151.203 111.21 150.698 111.94 148.816C112.646 146.894 112.448 145.662 111.935 143.775C111.465 142.275 111.081 141.761 110.251 140.424Z" fill="#63A436"/>
<path d="M111.946 148.816C112.583 150.214 112.24 152.184 110.844 152.861L110.257 152.205C109.91 151.204 111.215 150.699 111.946 148.816Z" fill="#549728"/>
<path d="M109.632 161.028C109.437 160.726 109.29 160.435 109.121 160.118C109.191 159.152 109.91 158.2 110.427 157.258C111.225 158.698 111.094 160.067 109.632 161.028Z" fill="#548F2A"/>
<path d="M183.121 143.598C183.921 143.948 184.452 144.119 184.751 144.986L184.387 145.674C184.017 146.684 183.857 147.762 183.656 148.822C183.397 149.731 183.213 150.874 183.47 151.792L183.32 151.986C182.832 150.759 182.714 150.461 181.961 149.39C182.552 147.066 182.935 146.037 183.121 143.598Z" fill="#549728"/>
<path d="M165.537 119.277C168.978 119.328 172.748 123.078 171.156 126.628C170.101 128.983 167.82 131.48 166.156 133.532L159.696 141.593L151.879 151.494C150.417 153.345 148.569 155.811 146.955 157.472C145.845 158.635 144.297 159.278 142.69 159.244C139.163 159.162 132.962 151.318 130.284 148.43C128.089 146.232 124.808 143.569 124.511 140.48C124.348 138.899 124.848 137.322 125.893 136.125C127.56 134.234 130.793 133.615 132.68 135.188C136.184 138.108 139.591 142.05 142.79 145.313C143.637 144.12 144.544 142.928 145.484 141.794C151.168 134.93 156.413 127.579 162.43 121.019C163.237 120.138 164.446 119.697 165.537 119.277Z" fill="#63A436"/>
<path d="M81.8678 230.068C91.8534 230.053 101.702 229.951 111.666 230.661C114.384 230.856 118.074 230.766 120.572 231.048L121.244 231.294C121.55 232.101 121.497 233.691 121.472 234.547C121.342 239.002 122.645 242.363 126.998 244.144C131.066 245.819 136.283 246.951 140.722 246.972C148.124 247.007 155.626 247.056 162.736 244.736C166.757 243.423 167.848 240.217 168.069 236.355L168.218 236.374C170.701 236.757 179.463 239.453 180.056 242.303C180.756 245.68 172.62 248.154 169.652 248.926C157.789 251.964 145.93 253.362 133.679 254.256C96.2603 256.991 57.9288 256.899 20.7811 251.141C14.9709 250.013 8.12957 248.95 2.89647 246.057C-6.37658 240.934 9.25981 236.881 12.9274 236.156C13.5829 236.284 14.164 237.585 14.2761 238.214C15.7019 246.219 30.2861 246.838 36.0692 243.149C47.1623 249.281 61.0946 252.255 72.4432 244.617C77.6282 241.124 79.8786 235.715 81.8678 230.068Z" fill="#FED59C"/>
<path d="M131.795 194.667C140.153 189.152 147.535 186.651 157.657 188.808C159.518 189.204 162.715 190.573 164.339 190.537C171.101 198.794 169.637 209.495 166.453 218.925C165.953 220.879 163.993 226.617 162.572 228.411C162.332 228.71 161.459 228.274 160.706 228.969C167.204 233.221 168.48 241.061 159.814 243.631C160.661 240.203 161.465 235.859 157.886 233.655L157.327 233.604L157.184 233.876C158.609 237.408 159.3 238.211 158.13 241.93C156.12 241.93 151.582 242.907 149.682 242.758C150.219 240.494 150.135 234.327 146.853 234.53C146.583 235.908 149.033 238.108 147.715 242.43L147.64 242.666C146.769 242.439 145.317 242.539 144.403 242.574C138.512 242.8 130.287 241.095 130.245 233.715C130.188 224.771 129.881 215.842 129.488 206.908C129.369 204.199 130.633 197.025 131.795 194.667Z" fill="#FD9223"/>
<path d="M160.713 228.96C160.272 228.789 159.898 228.712 159.442 228.603L159.281 228.265C161.398 225.956 163.126 223.431 164.614 220.679C165.271 219.466 165.217 219.361 166.46 218.916C165.96 220.87 164 226.608 162.579 228.402C162.339 228.701 161.466 228.265 160.713 228.96Z" fill="#F0801E"/>
<path d="M76.5925 7.99844C76.5868 7.2921 76.6039 6.40346 76.5908 5.71874C76.4823 0.0689179 81.5526 -1.99916 85.3242 2.2932C86.6821 3.83896 87.1445 5.01326 87.7912 6.98398C89.8726 3.10631 93.9481 -0.799827 98.0905 3.23833C99.072 6.06944 98.9079 7.55786 97.5956 10.1908C103.478 9.82044 112.8 12.303 118.065 14.8861C121.029 7.92226 126.019 3.20431 134.194 4.56648C141.959 5.86017 146.808 14.6047 145.111 21.9946C144.32 25.437 142.623 29.095 139.525 31.1033C145.684 37.5091 150.307 49.4445 154.437 57.2409C157.463 62.9485 161.117 66.8512 162.936 73.5027C164.355 78.6937 165.063 88.1821 162.553 92.753C161.885 92.5769 161.216 92.4085 160.544 92.248C160.756 91.9611 160.94 91.6157 161.023 91.2659C162.977 83.073 162.283 74.8768 158.152 67.4369C156.179 63.8823 153.776 60.6292 152.06 57.1066C148.916 50.6595 146.066 44.0589 142.187 38.0122C141.057 36.2591 139.825 34.5732 138.499 32.9634C137.552 31.8018 135.896 29.9977 135.254 28.7447L135.63 27.0922C135.161 26.6013 134.999 26.5114 134.839 25.8826L134.563 26.2027C134.255 26.6289 133.956 27.1397 133.544 27.417C130.899 25.0196 128.376 23.1702 125.493 21.0674L123.319 19.7145C116.049 15.9275 103.59 10.6853 95.2829 12.5833L94.4306 12.7712C95.3197 10.5407 98.6404 5.00812 95.3625 3.75636C90.6421 1.95362 88.6563 11.7257 87.054 12.8893C86.0834 12.0702 86.4675 2.5183 80.8238 2.0636C75.9581 3.61407 80.346 9.76973 79.1128 11.9863C78.5995 12.0777 78.3489 12.0469 77.8439 11.6855C75.3769 9.91951 71.3524 6.03179 68.5413 9.41667C68.2631 9.75176 68.175 10.3586 68.2743 10.7709C68.8129 12.7891 71.588 14.3841 73.1147 15.7703C62.6757 18.2051 55.4004 22.0299 47.3699 29.1283C46.6152 28.4669 46.6835 28.5322 46.5857 27.7444C36.2449 10.9447 15.7408 26.974 25.2991 41.9228C25.3813 42.0512 25.4663 42.1777 25.554 42.3022C27.4546 44.4792 29.5561 46.3594 32.4544 47.1105C32.9866 46.8655 33.0491 46.8338 33.522 46.4923C34.1885 46.6904 33.9037 46.5023 34.3248 47.183C30.8031 57.2238 28.4271 65.7565 26.7756 76.3454C26.4572 78.3867 25.7312 82.164 25.6956 84.0851C23.6915 96.6044 27.8265 111.323 38.9782 118.4C38.4726 118.914 38.3256 119.182 37.6573 119.294C37.4641 119.238 36.7379 118.95 36.6382 119.133C29.0457 133.036 27.6863 149.121 37.3691 162.497C37.8422 163.15 38.5832 163.781 38.6258 164.508L38.3151 164.723C35.5295 163.299 32.7812 158.011 31.3897 155.433C30.2508 158.316 29.537 163.466 29.0004 166.568C26.665 180.067 27.4479 194.268 33.1334 206.873C34.4173 209.721 37.3188 215.518 39.171 218.026L39.1434 218.456L38.7816 218.514C35.481 216.087 32.1086 209.383 30.3628 205.735C22.5328 205.187 19.9366 207.787 17.3739 215.18C15.0822 221.794 11.8171 247.165 25.3817 242.109C26.5447 240.457 26.8237 240.082 27.159 238.067L27.3899 237.91C29.3864 239.62 26.9063 241.469 27.2782 243.061C28.3244 243.838 32.3902 243.179 33.5399 242.415L33.8521 241.927C33.6632 241.242 32.6701 240.735 32.0981 240.264C29.3063 237.966 26.6374 234.416 25.321 231.093C27.0465 232.931 28.5914 234.823 30.4449 236.49C46.5763 250.997 76.2134 253.169 80.6049 226.197C80.9781 223.906 81.3241 221.398 81.8731 219.147C81.9917 219.138 82.1102 219.128 82.2288 219.119C84.2188 221.894 80.8865 221.021 85.8765 221.71C84.6951 221.76 83.7919 221.685 82.7207 222.173L82.5716 222.436C82.9871 223.035 83.0359 223.02 83.8625 223.23L83.2195 223.399C82.976 223.874 82.1353 228.915 81.8622 230.064C79.8731 235.711 77.6227 241.12 72.4377 244.612C61.089 252.251 47.1568 249.277 36.0636 243.144C30.2806 246.833 15.6963 246.215 14.2706 238.21C14.1585 237.581 13.5773 236.28 12.9219 236.152L13.3706 235.987L13.5422 235.565C12.4436 228.232 13.8773 214.549 18.3067 208.358C21.3067 204.164 24.2799 204.059 28.9796 203.338C29.475 202.654 27.8641 198.342 27.5917 197.238C24.0595 182.923 25.6935 166.233 30.0257 152.245C28.2829 147.787 28.4894 139.89 29.0213 135.138C29.6877 129.184 32.369 123.086 34.8623 117.715C33.8023 116.997 33.1867 116.294 32.3228 115.406C21.0118 103.767 22.3428 87.6249 25.2264 72.9243C26.4313 66.7811 27.5076 60.5385 29.5126 54.5444C30.0981 52.7941 30.7751 50.9582 31.281 49.1753L31.0588 48.8235C28.3419 48.1176 24.8205 45.1616 23.2896 42.746C20.9641 39.1058 20.1891 34.6877 21.1372 30.4734C24.0998 17.3396 40.4573 14.0082 47.803 26.07C51.8566 21.5358 62.6858 16.0831 68.7589 15.0006C66.5667 12.6849 64.2395 8.58794 68.6588 6.80103C71.3293 5.72131 74.1194 6.87292 76.5925 7.99844Z" fill="#613302"/>
<path d="M119.961 15.8817C121.619 11.9927 123.454 8.94393 127.552 7.2685C133.726 4.74465 140.204 8.23888 142.5 14.2893C143.73 17.5905 143.611 21.2435 142.168 24.4572C141.274 26.3982 139.992 28.1359 138.403 29.5637L135.64 27.0959C135.171 26.6051 135.009 26.5152 134.849 25.8863L134.573 26.2064C134.265 26.6327 133.966 27.1434 133.554 27.4208C130.909 25.0234 128.385 23.174 125.502 21.0712L123.328 19.7183C123.619 19.3305 123.814 18.7676 124.009 18.3026C122.4 17.1555 121.687 16.762 119.961 15.8817Z" fill="#FD9223"/>
<path d="M126.161 19.9703C126.739 18.5385 127.203 17.2947 128.277 16.1501C131.094 13.1504 134.472 12.8778 136.932 16.4844C137.768 17.8951 137.926 19.7573 137.523 21.3296C137.077 23.0716 136.141 24.6493 134.827 25.8766L134.551 26.1967C134.243 26.623 133.944 27.1337 133.532 27.4111C130.887 25.0137 128.363 23.1643 125.48 21.0615C125.78 20.6747 125.926 20.3909 126.161 19.9703Z" fill="#A94F05"/>
<path d="M126.161 19.9703C126.739 18.5385 127.203 17.2947 128.277 16.1501C131.094 13.1504 134.472 12.8778 136.932 16.4844C135.89 16.7595 133.713 15.8352 132.341 15.5253C123.157 19.8372 132.029 22.3734 134.551 26.1967C134.243 26.623 133.944 27.1337 133.532 27.4111C130.887 25.0137 128.363 23.1643 125.48 21.0615C125.78 20.6747 125.926 20.3909 126.161 19.9703Z" fill="#6C3603"/>
<path d="M124.001 18.2988C125.034 18.9403 125.291 19.1408 126.175 19.9762C125.94 20.3969 125.794 20.6806 125.494 21.0675L123.32 19.7145C123.611 19.3268 123.806 18.7638 124.001 18.2988Z" fill="#BF620B"/>
<path d="M192.112 122.318C210.166 123.993 211.578 158.216 189.087 161.722C187.539 163.591 186.431 165.895 184.937 167.877C179.218 175.468 169.295 182.578 159.882 184.322C174.519 191.521 172.347 210.92 167.169 223.416C166.33 225.44 165.386 227.426 164.464 229.409C166.792 231.686 167.389 233.111 168.05 236.351C167.83 240.213 166.738 243.418 162.718 244.732C155.607 247.052 148.105 247.002 140.703 246.968C136.264 246.947 131.048 245.815 126.98 244.139C122.627 242.359 121.323 238.998 121.453 234.543C121.478 233.687 121.532 232.097 121.226 231.29L120.554 231.044L121.164 230.937C121.723 229.595 120.272 220.2 119.971 218.291C118.757 218.092 116.854 217.521 115.57 217.204C113.458 217.97 111.367 218.946 109.229 219.71C103.259 221.899 96.9785 223.125 90.6235 223.341C88.6799 223.42 85.7386 223.531 83.8495 223.23C83.0229 223.02 82.9741 223.035 82.5586 222.436L82.7077 222.173C83.7789 221.685 84.6821 221.76 85.8635 221.71C100.019 221.19 117.829 217.251 127.063 205.54C125.293 209.719 121.371 213.644 117.439 215.835C118.816 216.042 123.328 216.731 123.545 218.306C122.544 218.931 122.469 218.434 122.116 219.164C122.581 222.44 123.057 225.628 123.351 228.943C123.612 231.898 123.198 235.05 123.797 237.881C124.031 238.985 124.952 240.656 125.974 241.283C130.418 244.013 139.052 245.323 144.246 245.102C144.534 245.089 145.798 244.773 146.034 244.711C146.902 243.868 147.035 243.724 147.636 242.667L147.711 242.432C149.029 238.11 146.579 235.91 146.849 234.532C150.131 234.329 150.215 240.495 149.678 242.759C151.578 242.909 156.116 241.931 158.126 241.931C159.296 238.212 158.605 237.41 157.18 233.877L157.323 233.605L157.882 233.657C161.462 235.861 160.657 240.204 159.81 243.632C168.476 241.062 167.201 233.222 160.702 228.971C161.455 228.275 162.328 228.712 162.568 228.412C163.989 226.619 165.949 220.88 166.45 218.927C169.634 209.497 171.097 198.796 164.335 190.538C162.621 188.183 159.339 186.19 156.711 185.054C151.206 186.013 147.039 185.183 141.712 185.805C140.408 185.957 138.207 187.036 136.935 187.622C137.687 186.877 138.72 186.038 139.542 185.337C123.883 180.94 115.384 175.226 107.066 160.965C106.446 161.435 106.248 161.531 105.538 161.859C103.71 162.205 103.756 162.248 102.105 161.293C106.35 159.469 109.559 158.252 108.83 152.83C109.22 152.226 108.963 152.398 109.532 152.178L110.08 152.733L110.229 152.207L110.817 152.863C111.25 154.875 111.036 155.286 110.408 157.261C109.891 158.204 109.173 159.155 109.102 160.122C109.271 160.438 109.418 160.729 109.613 161.032C112.591 168.485 122.863 176.839 130.127 180.055C152.474 189.95 178.195 180.354 188.419 157.761C187.188 157.104 185.31 155.869 184.126 155.114L183.315 151.988L183.465 151.794C183.208 150.877 183.392 149.734 183.651 148.824C183.853 147.764 184.013 146.686 184.383 145.676L184.747 144.988C184.447 144.121 183.917 143.951 183.116 143.6C183.161 142.837 182.89 141.734 182.691 140.969C182.156 138.901 182.992 137.015 183.63 134.978C183.123 133.453 182.594 130.79 182.224 129.133C184.323 128.097 183.521 124.352 189.99 122.783C190.788 122.891 191.338 122.597 192.112 122.318Z" fill="#613302"/>
<path d="M184.492 130.98C185.057 128.743 185.71 126.867 187.843 125.632C189.589 124.601 192.895 124.401 194.772 125.053C206.07 128.98 206.008 148.554 197.817 155.426C195.255 157.577 192.919 158.742 189.78 159.843C190.486 158.255 190.858 157.336 191.391 155.675C192.341 155.619 193.259 155.625 194.141 155.264L194.427 154.921L194.361 154.56C190.426 153.276 187.19 153.83 185.498 149.031C185.224 148.825 184.935 148.578 184.668 148.36C184.235 147.504 184.368 146.666 184.392 145.678L184.755 144.99C185.128 143.899 184.963 144.067 185.77 143.178C185.136 142.098 184.764 141.559 184 140.564C184.31 139.205 184.548 138.593 185.072 137.288C187.847 132.271 192.683 134.625 193.452 133.424C192.427 131.857 190.496 132.154 188.962 132.624C186.056 133.511 185.703 133.861 184.492 130.98Z" fill="#FD9223"/>
<path d="M185.775 143.178C186.436 143.594 187.05 143.475 187.831 143.333C187.968 143.783 188.069 144.334 188.379 144.653C186.53 146.025 185.58 146.585 185.503 149.031C185.229 148.825 184.94 148.577 184.673 148.359C184.241 147.503 184.373 146.665 184.397 145.677L184.761 144.99C185.133 143.899 184.968 144.067 185.775 143.178Z" fill="#6C3603"/>
<path d="M185.072 137.277C185.932 138.445 185.763 139.15 185.767 140.609C186.683 142.03 187.475 142.106 188.222 143.088L187.826 143.323C187.045 143.464 186.431 143.584 185.77 143.167C185.136 142.087 184.764 141.548 184 140.553C184.31 139.194 184.548 138.582 185.072 137.277Z" fill="#F0801E"/>
<path d="M188.236 143.1C189.517 142.873 192.455 142.818 193.408 143.695C192.663 144.369 189.883 144.283 188.388 144.654C188.077 144.335 187.977 143.784 187.84 143.334L188.236 143.1Z" fill="#613302"/>
<path d="M149.705 242.764C151.605 242.913 156.144 241.936 158.153 241.936C157.761 242.986 157.359 243.468 156.285 243.921C154.93 244.493 150.334 245.725 149.281 244.407C149.397 243.707 149.482 243.442 149.705 242.764Z" fill="#F0801E"/>
<path d="M183.32 151.981L183.47 151.787C183.213 150.869 183.397 149.726 183.656 148.816C184.153 152.428 185.997 153.964 189.26 155.039L188.424 157.754C187.193 157.096 185.315 155.861 184.131 155.106L183.32 151.981Z" fill="#548F2A"/>
<path d="M53.6797 171.839C54.5003 171.951 55.4352 172.191 56.2365 172.41C70.1756 176.223 86.0718 174.111 96.5068 163.469C96.7432 163.228 96.5913 162.424 96.5359 162.116L96.5085 161.968C97.0892 161.519 101.212 161.282 102.139 161.298C103.789 162.252 103.743 162.21 105.571 161.864C104.204 163.029 101.184 163.039 99.3891 163.129C96.0272 167.893 88.2407 172.56 82.6761 174.227C72.2816 177.341 63.293 176.723 53.6797 171.839Z" fill="#613302"/>
<path d="M39.0006 118.398C40.4458 119.47 41.2606 120.074 42.555 121.356C40.2429 120.59 39.527 119.981 37.6797 119.292C38.3479 119.18 38.4949 118.912 39.0006 118.398Z" fill="#6C3603"/>
<path d="M33.7534 164.236C36.4425 165.165 38.1529 168.148 41.3656 168.672C42.199 168.288 42.0248 168.041 42.6253 167.065C44.1387 166.851 47.2755 171.024 48.452 172.047C61.9727 183.809 83.3444 182.875 96.9752 171.768C97.8613 171.046 99.902 168.981 100.797 168.703C102.603 168.14 104.134 168.26 106.034 167.544C111.431 177.063 121.514 185.016 132.039 188.005C130.725 193.393 128.031 197.489 124.123 201.3C115.201 209.852 103.601 215.065 91.2814 216.056C88.9148 216.25 86.2004 216.171 83.8021 216.139C82.2227 215.951 80.9119 215.921 79.2324 215.681C79.2516 218.259 78.9732 220.834 78.4023 223.348C72.6125 248.535 46.6186 246.166 30.986 232.153C29.3283 230.674 27.7825 229.076 26.3615 227.368C25.8289 226.729 25.2721 226.057 24.765 225.4C23.8947 224.274 23.5102 225.61 22.3468 225.34C21.8668 224.585 21.7222 223.149 21.7705 222.257C22.0226 217.605 22.6667 214.521 26.0146 211.288C30.5302 215.837 36.077 219.61 40.4525 224.379C40.8064 224.766 40.9231 224.796 41.3887 224.809C41.9692 223.911 41.7779 222.676 41.8196 221.651C42.1164 214.38 37.9117 208.318 35.589 201.533C34.1923 197.54 33.1836 193.423 32.5774 189.236C31.3034 179.87 32.3174 173.354 33.7534 164.236Z" fill="#FD9223"/>
</svg>
