<svg width="162" height="256" viewBox="0 0 162 256" fill="none" xmlns="http://www.w3.org/2000/svg">
<path d="M78.8223 0C83.5363 1.16167 84.2194 3.99027 85.4968 8.23133C92.3443 0.820375 99.5069 5.90901 93.4545 13.412C99.5333 14.6325 104.687 16.0981 110.06 19.1785C111.045 19.7428 113.144 21.044 114.062 21.3092C114.354 21.1292 114.324 21.1631 114.441 20.8572C115.553 18.0982 118.185 15.8219 120.814 14.5915C132.002 9.35668 141.718 21.1992 137.779 31.8842C136.692 34.8321 134.493 37.6873 131.632 38.9996C132.277 40.4906 133.318 42.3352 134.058 43.8508C135.141 46.1067 136.129 48.4071 137.021 50.7456C139.175 56.2666 140.572 61.9434 142.364 67.5293C144.112 72.9851 145.252 74.835 145.72 80.6625C146.083 83.3662 146.064 84.9785 145.888 87.6926C144.971 97.2001 142.232 102.02 135.964 108.998C137.584 110.519 139.193 111.818 140.767 113.442C148.74 121.658 155.717 131.518 156.133 143.358C156.324 148.747 154.511 155.066 150.691 158.934C149.451 160.191 147.724 161.52 146.31 162.598C148.169 174.616 148.121 187.268 143.328 198.631C142.633 200.279 139.472 205.403 139.6 205.995C140.01 207.888 141.286 212.142 141.861 214.41C143.179 219.61 143.055 224.211 143.896 229.14C148.175 232.823 148.444 232.731 150.421 237.799C152.599 238.176 163.046 241.213 160.804 244.877C159.499 247.013 154.423 248.833 151.869 249.509C140.9 252.415 129.171 253.878 117.847 254.759C105.318 255.649 92.76 256.06 80.2 255.993C61.0969 255.987 41.9076 255.187 22.9902 252.352C17.0872 251.467 8.0015 249.884 2.76807 247.018C-5.6928 242.386 7.58735 238.426 11.3982 237.727C11.7052 237.094 12.0003 235.908 12.3654 235.133C13.6279 232.449 15.773 230.815 18.1173 229.115C18.5648 220.874 19.4199 213.695 22.5675 205.911C21.6053 204.299 20.4272 202.396 19.6109 200.742C15.0352 191.469 13.7927 180.091 14.9928 169.888C15.3143 167.154 15.2289 165.294 16.1185 162.61C14.6048 161.217 13.0588 160.229 11.6263 158.641C4.13584 150.338 5.17122 138.519 9.84092 129.141C13.7998 121.191 19.1874 115.285 25.6184 109.334C18.0447 102.659 14.5462 91.1107 15.5271 81.2946C15.9596 76.9678 17.1359 73.1092 18.3282 68.975C20.8377 60.2719 23.1784 50.5042 27.7285 42.6523C20.9533 38.9599 17.3612 32.5841 19.6182 24.8851C20.5796 21.4811 22.8974 18.622 26.0287 16.9772C32.9728 13.3154 40.5993 16.8105 44.0092 23.5211C50.937 18.7343 58.7724 15.2807 67.12 13.9425C65.652 12.7986 64.3683 11.023 64.0347 9.15611C63.641 6.95148 65.2842 5.50775 67.3529 5.25749C70.311 4.89959 72.8723 6.51622 75.1427 8.20478C74.7459 5.45858 74.7998 3.15613 76.5429 0.914513C77.1804 0.601416 78.1386 0.264289 78.8223 0ZM49.2561 234.179C52.9201 233.656 56.8389 233.784 60.5586 233.579C77.8629 232.741 95.2002 232.863 112.491 233.941C111.426 230.641 109.715 227.868 107.736 225.039C106.944 223.904 105.737 222.548 105.083 221.392C92.3743 224.958 79.0336 225.665 66.0188 223.465C63.206 222.995 59.8292 222.383 57.164 221.413C55.1769 223.09 49.3658 231.665 49.2561 234.179Z" fill="#643202"/>
<path d="M49.2561 234.169C52.9201 233.645 56.8389 233.773 60.5586 233.569C77.8629 232.73 95.2002 232.853 112.491 233.93C112.864 234.635 113.418 236.906 113.566 237.751C114.296 242.158 117.111 244.836 121.403 246.139C128.846 248.399 138.818 247.986 146.024 245.069C149.206 243.779 150.324 240.979 150.421 237.789C152.599 238.165 163.046 241.202 160.804 244.866C159.499 247.002 154.423 248.823 151.869 249.499C140.9 252.404 129.171 253.868 117.847 254.748C105.318 255.639 92.76 256.049 80.2 255.982C61.0969 255.977 41.9076 255.176 22.9902 252.341C17.0872 251.457 8.0015 249.873 2.76807 247.008C-5.6928 242.375 7.58735 238.415 11.3982 237.716C11.3227 241.875 13.1352 244.404 17.1526 245.629C24.9968 248.02 35.0445 248.618 42.6725 245.195C47.9663 242.817 47.6507 238.943 49.1937 234.352L49.2561 234.169Z" fill="#FED9A5"/>
<path d="M77.563 2.77877C80.7908 -0.300835 83.0878 6.36692 83.5732 8.608C83.8227 9.76736 83.9906 12.2383 84.1688 12.7673C85.0277 12.734 86.1496 10.3026 86.9609 9.50317C88.3764 7.72144 91.0611 5.60506 93.4389 6.71148C94.9755 9.76163 91.0107 13.5073 89.2303 15.8381C89.7958 15.6784 91.0848 15.2871 91.6384 15.3112C96.7502 15.5336 101.864 17.4162 106.507 19.4571C109.578 20.8073 112.55 22.6786 115.431 24.3969C115.57 23.8298 115.84 23.5893 116.217 23.1186C115.964 22.7237 115.988 22.7189 115.889 22.2526C116.782 17.8968 123.269 14.7517 127.562 15.3305C129.092 15.5974 130.074 15.9729 131.436 16.7403C134.227 18.6756 135.971 20.8197 136.55 24.2281C137.547 30.0932 135.23 34.1299 130.781 37.6473C130.326 37.1145 129.848 36.5263 129.363 36.0276C129.014 36.1449 128.282 36.3657 127.978 36.5187C134.353 47.4206 136.229 53.3713 139.86 65.49C142.73 75.0636 146.136 81.5523 143.419 92.279C141.694 99.0939 138.5 104.16 133.287 108.942C132.12 110.013 129.147 112.307 128.305 113.334C130.639 112.58 132.441 111.462 134.532 110.212C143.757 118.483 153.345 129.209 154.235 142.293C154.283 143.002 154.306 143.878 154.216 144.582C153.901 157.046 144.141 165.839 131.69 162.365C128.7 161.531 120.204 160.143 121.369 154.904C121.93 152.378 126.719 153 128.282 151.596L127.917 151.154C125.773 151.166 123.635 151.347 121.521 151.697L121.333 151.558C119.794 150.433 119.635 149.716 118.827 148.001C120.078 143.121 121.111 143.06 125.537 141.452C125.273 140.331 125.257 140.494 124.21 140.233C122.682 140.732 121.3 141.211 119.967 142.119C119.095 140.957 118.865 140.568 118.316 139.23C118.751 137.02 120.038 134.352 122.225 133.408C122.615 133.13 123.152 132.897 123.594 132.684C129.033 130.655 134.586 131.845 139.419 134.773L139.495 134.377C138.086 131.827 132.943 130.075 130.127 129.866L127.898 129.901C126.786 129.997 125.675 130.104 124.565 130.221C119.959 119.44 107.005 108.828 95.8149 105.688C85.9173 102.916 77.7711 102.99 67.88 105.756C55.4728 109.769 45.6434 117.908 39.6818 129.55C39.5633 129.781 39.4464 130.014 39.3309 130.246C38.851 130.326 36.968 129.985 36.368 129.892L34.3981 129.869C31.2799 130.034 24.7007 131.685 23.527 134.94C28.3604 132.161 31.3449 131.412 37.0318 131.897C37.8714 132.05 38.8911 132.15 39.5908 132.579C42.7377 133.965 46.2039 137.164 44.3719 140.931C44.1969 141.288 44.0088 141.637 43.8076 141.98C41.6201 141.022 39.8984 140.154 37.4607 140.111C36.8968 140.375 36.5755 140.442 36.274 140.948L36.3957 141.303L36.7088 141.446C40.9405 141.133 46.7806 145.714 43.6317 150.327C42.1312 152.525 38.1022 150.889 35.5443 151.119L35.3712 151.466C36.3105 153.162 40.6491 151.629 42.428 155.542C40.4978 160.906 37.9161 160.662 32.8038 161.892C30.4043 162.581 28.7041 163.228 26.167 163.226C15.2581 163.216 7.75815 154.099 8.08863 143.428C8.51539 129.656 17.5197 119.728 26.9145 110.667C27.8349 111.303 29.3206 112.151 30.3689 112.505L30.8387 111.747C25.0587 106.466 21.5033 102.983 18.8806 95.0978C17.2848 90.2995 17.1237 85.9515 17.5192 80.9326C17.8678 76.5093 19.1607 73.0162 20.2887 68.8093C22.9104 59.0332 25.772 49.9165 30.4576 40.8746C30.0285 40.6543 29.5979 40.4373 29.1656 40.2235L28.7308 40.5286C26.5287 40.98 23.3007 36.7435 22.4129 35.0354C20.7806 31.9468 20.4717 28.3279 21.5569 25.0073C22.4714 22.1405 24.4038 19.9227 27.0727 18.5442C31.4024 16.786 35.3895 16.8853 39.0201 20.1614C40.7408 21.8152 41.3957 22.6546 42.6204 24.6527C41.9955 25.3005 40.9025 26.2994 40.8096 27.1678L41.0438 27.4209C42.1936 27.412 43.4139 26.1666 44.3486 25.5261C51.9027 20.3492 61.7229 15.8012 71.1038 15.2367C68.5957 12.3161 66.1555 12.2889 66.0518 7.76461C67.772 6.08078 70.8105 7.3665 72.3903 8.68575C74.0502 9.62867 75.9846 12.3254 77.0658 12.7696C78.2467 12.0555 75.2447 6.28213 77.563 2.77877Z" fill="#FF9B34"/>
<path d="M67.8662 105.752C67.2217 104.458 64.7176 102.064 63.6236 100.453C60.5417 95.9136 59.9885 90.2834 61.0598 84.9778C62.2188 79.4385 65.4999 74.573 70.2011 71.4224C74.9988 68.2666 80.7769 67.3575 86.366 68.5321C91.7083 69.6393 96.3689 72.8751 99.2733 77.4937C103.712 84.4104 103.97 93.2742 99.5226 100.24C98.3922 102.011 96.1832 103.668 95.8011 105.684C85.9035 102.912 77.7573 102.985 67.8662 105.752Z" fill="#EC7D1C"/>
<path d="M80.579 73.0343C83.3256 72.9281 86.3374 73.4143 89.0278 73.8594C93.3741 79.263 87.2253 82.9134 82.5271 84.1532C82.4234 87.1181 82.2346 89.8754 82.6412 92.8299C86.924 96.3511 91.681 95.0029 94.5207 90.6235C94.7528 90.2653 95.1004 90.252 95.4634 90.2642C96.2075 91.2247 95.5746 92.5256 94.8718 93.335C93.1592 95.2923 90.731 96.4782 88.1344 96.6255C85.7536 96.7657 84.0275 96.4595 82.2459 94.8548C81.9517 94.4259 82.1365 94.5933 81.6554 94.3526C81.2434 94.591 81.0019 94.8802 80.6355 95.1734C78.3879 96.9727 73.7046 97.377 71.3349 95.6978C69.9633 94.7259 67.1798 92.8209 67.4121 90.9311C67.9 90.4245 67.6167 90.5824 68.2798 90.4166C68.8504 90.6226 69.7969 91.9269 70.2168 92.4463C72.9206 95.7912 77.5263 95.5093 80.5513 92.781C80.8732 90.0903 80.7802 87.0119 80.7565 84.2729C77.9124 83.3493 73.1424 81.2931 72.7611 77.8186C72.6587 76.9447 72.9099 76.0659 73.459 75.3784C75.0668 73.3871 78.2312 73.2116 80.579 73.0343Z" fill="#643202"/>
<path d="M79.0781 74.7968C80.873 74.0923 86.6992 74.1431 87.8408 75.6609C87.1331 76.9039 82.8584 76.1459 81.3924 76.1803C80.8388 76.1222 80.2864 76.0527 79.7358 75.9715C79.1436 75.4884 79.3312 75.662 79.0781 74.7968Z" fill="#EC7D1C"/>
<path d="M81.3753 76.191C80.0796 76.2657 75.4427 77.2409 74.7617 76.2882C75.3287 75.036 77.9049 73.9013 79.061 74.8075C79.3141 75.6727 79.1265 75.4991 79.7187 75.9822C80.2693 76.0634 80.8217 76.1329 81.3753 76.191Z" fill="#AE5002"/>
<path d="M116.227 23.1165C115.974 22.7217 115.999 22.7169 115.9 22.2506C116.792 17.8948 123.28 14.7497 127.572 15.3285C129.102 15.5953 130.084 15.9709 131.446 16.7383C134.237 18.6736 135.981 20.8177 136.56 24.226C137.557 30.0912 135.24 34.1278 130.791 37.6453C130.337 37.1125 129.859 36.5243 129.374 36.0255C129.024 36.1428 128.293 36.3636 127.989 36.5167C127.49 36.0868 126.42 34.7942 126.206 34.1498C123.994 31.6741 122.363 30.0308 119.912 27.7545C119.52 27.3532 117.997 26.2389 117.288 25.5812C116.86 25.3495 115.888 24.6837 115.441 24.3949C115.58 23.8277 115.851 23.5872 116.227 23.1165Z" fill="#FE9323"/>
<path d="M120.659 26.7009C123.047 22.5475 128.863 19.1925 130.743 25.583C131.291 26.8273 131.121 28.3749 130.624 29.6114C129.977 31.2042 128.831 32.5445 127.356 33.4318L127.235 33.3575C126.989 33.5416 126.406 34.0012 126.173 34.1426C123.961 31.6669 122.33 30.0236 119.879 27.7473C120.142 27.414 120.405 27.0447 120.659 26.7009Z" fill="#AE5002"/>
<path d="M120.659 26.7009C123.047 22.5475 128.863 19.1925 130.743 25.583C129.921 25.4477 129.864 25.1081 129.22 24.6985C125.917 22.592 123.827 24.6529 122.182 27.4982C123.099 28.4123 127.064 32.2411 127.235 33.3575C126.989 33.5416 126.406 34.0012 126.173 34.1426C123.961 31.6669 122.33 30.0236 119.879 27.7473C120.142 27.414 120.405 27.0447 120.659 26.7009Z" fill="#643202"/>
<path d="M117.951 24.5195C118.96 24.9335 120.064 25.8233 120.686 26.7106C120.432 27.0545 120.168 27.4237 119.906 27.7571C119.513 27.3557 117.99 26.2415 117.281 25.5838L117.951 24.5195Z" fill="#EC7D1C"/>
<path d="M127.261 33.3594L127.382 33.4337C127.98 34.1206 129.038 35.2211 129.366 36.0202C129.017 36.1375 128.285 36.3583 127.982 36.5114C127.483 36.0815 126.413 34.7888 126.199 34.1445C126.432 34.0031 127.015 33.5435 127.261 33.3594Z" fill="#EC7D1C"/>
<path d="M116.227 23.1191C116.813 23.5744 117.39 24.0412 117.958 24.5196L117.288 25.5838C116.86 25.3521 115.888 24.6863 115.441 24.3975C115.58 23.8303 115.851 23.5898 116.227 23.1191Z" fill="#AE5002"/>
<path d="M127.55 15.3203C129.08 15.5872 130.062 15.9627 131.424 16.7301C130.548 17.3412 128.016 16.5643 127.441 15.7297L127.55 15.3203Z" fill="#FEBE79"/>
<path d="M154.195 144.58C153.879 157.044 144.12 165.837 131.668 162.363C128.679 161.53 120.183 160.141 121.347 154.902C121.908 152.377 126.698 152.998 128.26 151.594C127.831 153.47 126.631 153.787 126.688 155.339C126.858 156.304 128.26 157.459 129.042 157.883C136.477 161.914 146.92 157.148 151.048 150.39C152.183 148.534 153.096 146.471 154.195 144.58Z" fill="#EC7D1C"/>
<path d="M27.1497 28.4667L27.3667 28.8641C28.5428 28.3087 28.5589 27.0241 30.9234 25.9805C33.7715 27.2693 34.6392 27.9307 36.3817 30.5052C34.8569 32.0416 32.1669 34.4729 31.8402 36.6525L31.76 36.651C28.4084 34.401 26.2992 33.0134 27.1497 28.4667Z" fill="#AE5002"/>
<path d="M125.55 141.443C126.128 141.36 126.589 141.517 127.166 141.647C122.712 145.208 125.269 148.035 127.93 151.145C125.786 151.157 123.647 151.338 121.533 151.688L121.345 151.549C119.807 150.424 119.648 149.707 118.84 147.992C120.091 143.112 121.124 143.051 125.55 141.443Z" fill="#EC7D1C"/>
<path d="M36.684 141.435C40.9157 141.122 46.7559 145.703 43.6069 150.315C42.1064 152.514 38.0774 150.878 35.5195 151.108C35.9409 150.901 35.7998 150.958 36.0645 150.68C39.4079 147.173 39.4093 145.462 36.684 141.435Z" fill="#EC7D1C"/>
<path d="M118.32 139.219C118.756 137.009 120.042 134.342 122.229 133.397C122.987 133.632 123.13 133.604 123.868 133.32L124.326 133.51C124.092 134.935 122.473 136.442 123.848 138.432C124.253 139.019 125.495 139.986 126.164 140.233C125.612 140.22 124.734 140.168 124.214 140.223C122.686 140.722 121.304 141.201 119.972 142.109C119.1 140.947 118.87 140.558 118.32 139.219Z" fill="#EC7D1C"/>
<path d="M27.1211 28.4768C27.8094 25.9296 28.8293 25.3703 31.2651 24.7598C34.3962 25.5459 35.5709 26.36 37.284 29.2008C37.6118 29.7496 37.9333 30.3023 38.2485 30.8584C35.3646 33.4243 34.6962 34.96 32.371 37.4674L31.8116 36.6626C32.1383 34.483 34.8284 32.0517 36.3532 30.5153C34.6106 27.9408 33.7429 27.2794 30.8949 25.9906C28.5303 27.0342 28.5143 28.3188 27.3381 28.8742L27.1211 28.4768Z" fill="#643202"/>
<path d="M39.5716 132.58C42.7184 133.966 46.1846 137.165 44.3526 140.932C44.1777 141.289 43.9895 141.638 43.7883 141.981C41.6009 141.023 39.8791 140.155 37.4414 140.112C38.0823 139.983 39.8459 138.853 40.2688 138.385C41.8754 136.604 39.5744 134.154 39.5716 132.58Z" fill="#EC7D1C"/>
<path d="M27.0781 18.5354C31.4078 16.7771 35.395 16.8765 39.0255 20.1526C38.2331 20.512 35.6368 19.9788 34.8849 19.6915C32.7053 18.8586 28.9072 19.5486 27.0781 18.5354Z" fill="#FEBE79"/>
<path d="M123.602 132.691C129.041 130.662 134.594 131.852 139.427 134.78L139.578 135.047C139.157 135.457 137.939 134.826 137.31 134.575C132.521 132.666 130.066 132.165 124.983 133.013C124.248 133.135 124.091 133.086 123.602 132.691Z" fill="#FEBE79"/>
<path d="M23.5195 134.94C28.3529 132.161 31.3374 131.412 37.0243 131.897C36.8944 132.019 36.7645 132.142 36.6348 132.264C34.4907 132.489 32.41 132.672 30.3549 133.192C28.6953 133.613 25.1272 135.283 23.9658 135.36L23.5195 134.94Z" fill="#FEBE79"/>
<path d="M127.908 129.898L127.876 129.742C127.578 128.386 126.766 127.083 127.297 125.914L127.633 125.68C129.19 126.138 129.265 129.078 130.138 129.863L127.908 129.898Z" fill="#EC7D1C"/>
<path d="M34.3984 129.876L34.4787 129.605C35.0483 127.628 34.6206 127.674 35.9928 125.795L36.1427 125.585C36.1735 125.544 36.2042 125.502 36.235 125.461C36.2608 126.791 36.2432 128.613 36.3683 129.9L34.3984 129.876Z" fill="#EC7D1C"/>
<path d="M31.7505 36.6602L31.8308 36.6617L32.3901 37.4665C32.0837 38.3339 31.7488 38.6465 31.1616 39.3307L30.5195 38.5447C30.9341 37.5836 31.0792 37.4394 31.7505 36.6602Z" fill="#EC7D1C"/>
<path d="M29.1602 40.2184C29.152 39.4182 29.9335 38.995 30.5163 38.5391L31.1584 39.3251L30.4522 40.8694C30.0231 40.6492 29.5925 40.4322 29.1602 40.2184Z" fill="#EC7D1C"/>
<path d="M126.149 140.235C126.766 140.357 126.889 140.332 127.297 140.761C127.383 141.375 127.429 141.089 127.143 141.647C126.566 141.517 126.105 141.36 125.526 141.444C125.263 140.322 125.247 140.485 124.199 140.224C124.719 140.169 125.597 140.221 126.149 140.235Z" fill="#AE5002"/>
<path d="M30.8291 111.74C31.4358 112.085 31.7461 112.241 32.2838 112.695L32.199 113.176L32.402 112.807L32.4773 112.885L32.4236 113.214C31.6205 113.275 31.2215 112.855 30.3594 112.498L30.8291 111.74Z" fill="#EC7D1C"/>
<path d="M39.4454 77.0018C49.2609 76.1531 52.9581 88.777 41.5735 91.2933C39.1108 91.3745 37.1327 91.3405 34.9933 89.9469C31.7871 87.8586 30.6799 83.7828 32.9885 80.5882C34.6147 78.3379 36.789 77.4448 39.4454 77.0018Z" fill="#FEBE79"/>
<path d="M120.288 76.0574C124.333 75.7384 128.917 76.6584 130.262 81.1107C130.747 82.7108 130.564 84.4394 129.756 85.9027C128.598 87.9841 126.52 89.0642 124.307 89.6768C113.124 91.9111 109.847 78.3398 120.288 76.0574Z" fill="#FEBE79"/>
<path d="M54.7767 63.6335C63.1696 62.8199 64.2361 76.8975 56.1959 78.4326C47.0664 78.5178 47.2672 65.3113 54.7767 63.6335Z" fill="#643202"/>
<path d="M54.1507 66C56.8879 66.5068 56.6675 68.7938 54.658 70.2468C51.8245 69.4227 51.9647 67.5582 54.1507 66Z" fill="#EEEEED"/>
<path d="M106.608 62.867C113.477 62.5086 116.769 74.8917 107.993 77.7789C99.9002 78.1451 97.8634 64.9112 106.608 62.867Z" fill="#643202"/>
<path d="M104.776 65.7191C104.936 65.6998 105.096 65.6836 105.257 65.6702C107.687 65.4813 107.884 68.0036 106.321 69.46C103.801 69.7424 103.046 67.4567 104.776 65.7191Z" fill="#EEEEED"/>
<path d="M103.637 48.7444C106.706 48.5698 111.374 49.2912 111.745 53.1656C111.528 53.7974 111.724 53.5725 111.154 53.8799C110.551 53.7699 110.767 53.8457 110.27 53.3792C107.046 49.078 104.794 51.634 101.961 51.1493L101.762 50.8595C101.995 49.9197 102.889 49.2707 103.637 48.7444Z" fill="#643202"/>
<path d="M55.4388 49.6926C56.284 49.6307 57.2888 49.6739 58.1518 49.688C58.9295 50.1192 59.7097 50.4366 59.9737 51.2926C59.3005 52.2673 55.7844 51.1543 53.1998 52.913C52.3193 53.6708 51.6855 54.7384 50.7497 55.1398L50.4366 54.9596C49.797 52.1595 53.2795 50.3564 55.4388 49.6926Z" fill="#643202"/>
<path d="M67.8805 105.752C77.7716 102.985 85.9179 102.912 95.8154 105.684C107.005 108.823 119.96 119.435 124.565 130.217C123.933 130.709 123.844 130.785 123.064 130.943C117.019 133.584 117.985 136.703 116.452 137.577C116.711 139.75 117.063 141.696 117.375 143.835C117.675 145.893 117.033 149.198 118.175 151.208C121.219 153.233 119.044 154.728 120.067 157.859C120.963 160.601 123.483 161.943 126.07 162.729C126.806 162.846 127.209 162.82 127.723 163.336C128.418 163.044 129.125 163.365 129.818 163.669C135.225 166.047 139.364 165.258 144.713 163.303C144.883 166.596 145.594 169.856 145.693 173.413C146.1 187.872 143.349 197.46 134.877 208.9L135.691 209.515C136.652 208.795 137.125 208.169 137.905 207.25C139.343 211.573 140.719 216.603 141.383 221.117C141.819 224.081 141.689 227.543 142.495 230.435C143.974 231.736 145.399 232.607 146.646 234.189C149.932 238.351 148.717 241.861 144.214 244.078C144.277 241.841 144.27 236.221 140.965 236.021L140.719 236.34C140.971 238.176 144.071 241.226 142.17 243.608C140.738 245.404 137.456 245.351 135.387 245.467C135.651 243.937 135.761 242.898 135.433 241.347C135.135 239.952 133.994 237.709 132.346 237.811C131.813 238.661 135.064 242.904 133.744 244.369C131.138 247.257 121.676 244.684 118.91 243.041C115.071 240.762 115.414 235.087 113.583 231.513C111.768 227.688 109.635 223.906 106.782 220.801C109.324 219.487 110.809 218.91 112.798 216.841C109.252 217.909 106.219 219.254 102.47 220.23C88.1109 223.843 73.0744 223.787 58.7421 220.072C55.0181 219.109 51.4306 217.394 48.2284 216.528C50.4657 218.458 52.3699 219.548 55.0749 220.696C50.5471 226.561 47.8448 231.088 46.2081 238.284C45.1175 243.079 39.9752 244.858 35.7179 245.255C33.5169 245.551 31.1487 245.931 28.9683 245.454C25.6875 245.32 27.8567 240.269 28.7501 238.825C28.9983 238.426 29.0252 238.218 28.8659 237.822C27.9749 237.673 27.3092 238.004 26.8127 238.76C25.3215 241.037 25.2619 242.936 25.6818 245.49C23.6907 245.11 20.351 245.36 19.1849 243.519C17.5451 240.93 20.4319 238.225 20.9141 236.032L20.7321 235.82C19.6042 236.048 18.3568 237.448 17.7914 238.428C16.6274 240.447 16.9736 242.088 17.5426 244.237C15.8956 243.173 14.6038 242.277 13.4873 240.653C12.906 234.89 15.2159 233.879 19.2854 230.573C19.9442 228.641 20.0054 226.567 20.2373 224.546C20.6255 221.166 21.0176 216.868 22.0561 213.646C22.5919 211.477 23.1365 209.638 23.7891 207.494C24.4665 208.159 25.389 208.914 26.1229 209.548C26.4752 209.267 26.6171 209.072 26.9134 208.738C25.2356 206.312 23.424 203.985 22.0469 201.357C15.5741 189.005 15.6025 176.766 17.6116 163.383C22.4148 164.848 25.9922 165.994 31.1311 164.412C32.5525 163.975 33.996 163.149 35.5202 163.14C36.2029 162.712 36.5561 162.779 37.3659 162.757C40.3601 162.029 42.0308 160.436 43.6624 157.906C43.9027 157.167 43.9621 156.407 44.0609 155.633C43.9247 154.69 43.5094 154.014 43.6448 153.11C44.0431 152.439 44.1761 152.402 44.8422 151.944L45.0617 151.738C46.8585 147.929 45.1851 145.731 46.8648 140.797C46.3168 139.338 46.6471 137.717 45.7964 135.773C44.7878 133.469 43.0714 132.158 40.8039 131.163C39.9326 131.032 39.7616 130.818 39.3314 130.242C39.447 130.009 39.5639 129.777 39.6823 129.546C45.644 117.904 55.4734 109.764 67.8805 105.752Z" fill="#EC7D1C"/>
<path d="M67.8694 105.752C77.7605 102.985 85.9068 102.912 95.8044 105.684C106.994 108.823 119.949 119.435 124.554 130.217C123.922 130.709 123.833 130.785 123.053 130.943C117.008 133.584 117.974 136.703 116.441 137.577C116.7 139.75 117.052 141.696 117.364 143.835C117.664 145.893 117.022 149.198 118.164 151.208C118.213 152.985 118.258 154.525 118.169 156.303C117.025 166.168 112.025 175.589 104.21 181.784C96.5803 187.773 86.8655 190.451 77.2447 189.213C67.6077 188.008 58.8506 183.004 52.9183 175.315C49.8265 171.312 47.5808 166.722 46.3177 161.824C45.9316 160.35 45.7227 158.822 45.3578 157.428C44.5771 158.188 44.5602 158.464 44.3763 159.546C44.1526 158.425 44.3589 158.676 43.6513 157.906C43.8916 157.167 43.951 156.407 44.0498 155.633C43.9136 154.69 43.4983 154.014 43.6338 153.11C44.032 152.439 44.165 152.402 44.8311 151.944L45.0506 151.738C46.8474 147.929 45.174 145.731 46.8537 140.797C46.3057 139.338 46.636 137.717 45.7853 135.773C44.7767 133.469 43.0603 132.158 40.7928 131.163C39.9215 131.032 39.7505 130.818 39.3203 130.242C39.4359 130.009 39.5528 129.777 39.6712 129.546C45.6329 117.904 55.4623 109.764 67.8694 105.752Z" fill="#EEEEED"/>
<path d="M67.8694 105.752C77.7605 102.985 85.9068 102.912 95.8044 105.684C106.994 108.823 119.949 119.435 124.554 130.217C123.922 130.709 123.833 130.785 123.053 130.943C117.008 133.584 117.974 136.703 116.441 137.577C112.514 128.594 104.646 121.214 95.5541 117.628C86.4802 113.963 76.3135 114.103 67.3445 118.018C57.5059 122.288 50.0821 130.587 46.8537 140.797C46.3057 139.338 46.636 137.717 45.7853 135.773C44.7767 133.469 43.0603 132.158 40.7928 131.163C39.9215 131.032 39.7505 130.818 39.3203 130.242C39.4359 130.009 39.5528 129.777 39.6712 129.546C45.6329 117.904 55.4623 109.764 67.8694 105.752Z" fill="#60A433"/>
<path d="M67.8694 105.752C77.7605 102.985 85.9068 102.912 95.8044 105.684C106.994 108.823 119.949 119.435 124.554 130.217C123.922 130.709 123.833 130.785 123.053 130.943C121.745 129.059 120.565 126.84 119.177 124.849C115.126 119.111 109.814 114.378 103.648 111.014C92.9378 105.185 80.3358 103.9 68.6694 107.448C55.733 111.329 47.0862 119.48 40.7928 131.163C39.9215 131.032 39.7505 130.818 39.3203 130.242C39.4359 130.009 39.5528 129.777 39.6712 129.546C45.6329 117.904 55.4623 109.764 67.8694 105.752Z" fill="#3A5008"/>
<path d="M44.8257 151.946L45.0452 151.74C45.0742 153.848 45.1241 155.342 45.3524 157.43C44.5717 158.19 44.5548 158.466 44.3709 159.548C44.1472 158.427 44.3535 158.678 43.6459 157.908C43.8862 157.169 43.9456 156.409 44.0444 155.635C43.9082 154.692 43.4929 154.016 43.6284 153.111C44.0266 152.441 44.1596 152.404 44.8257 151.946Z" fill="#51971F"/>
<path d="M101.329 133.923C103.537 133.797 105.34 134.164 106.885 135.879C107.897 136.995 108.41 138.476 108.305 139.979C108.104 143.035 104.397 146.257 102.353 148.488L94.1329 157.525L84.7523 167.886C81.6009 171.362 77.1298 177.764 72.1367 173.48C69.0678 170.848 65.3523 166.049 62.5803 162.902C60.9678 161.008 59.1419 159.313 57.5916 157.296C54.3918 153.177 57.8483 146.85 63.0896 147.787C66.1907 148.342 69.2111 152.753 71.2971 155.042C72.7021 156.583 74.6632 158.766 75.8062 160.417C83.5438 152.274 90.8491 143.24 98.7831 135.249C99.4617 134.565 100.42 134.203 101.329 133.923Z" fill="#60A433"/>
<path d="M118.169 151.221C121.212 153.246 119.037 154.74 120.061 157.872C120.957 160.614 123.476 161.955 126.064 162.742C125.847 163.982 125.717 164.404 125.29 165.595C124.4 168.116 123.564 170.627 122.4 173.036C117.11 183.919 107.728 192.267 96.3025 196.253C85.147 200.097 72.9194 199.333 62.3286 194.131C53.2404 189.672 45.8437 182.385 41.2493 173.364C40.0091 170.875 38.7965 167.484 37.887 164.834L37.3594 162.77C40.3536 162.041 42.0243 160.448 43.6559 157.919C44.3635 158.688 44.1572 158.437 44.3808 159.558C44.5648 158.476 44.5816 158.2 45.3624 157.441C45.7272 158.834 45.9362 160.363 46.3223 161.836C47.5854 166.734 49.8311 171.324 52.9229 175.328C58.8551 183.017 67.6123 188.02 77.2493 189.225C86.8701 190.463 96.5849 187.785 104.214 181.796C112.029 175.601 117.029 166.18 118.174 156.315C118.263 154.538 118.217 152.997 118.169 151.221Z" fill="#60A433"/>
<path d="M118.16 151.221C121.204 153.246 119.029 154.74 120.052 157.872C120.948 160.614 123.468 161.955 126.055 162.742C125.838 163.982 125.708 164.404 125.281 165.595C121.881 163.759 118.876 162.568 119.09 158.165C119.106 157.815 118.878 157.406 118.915 156.929L119.447 157.501C119.216 156.557 119.195 156.066 119.126 155.101C119.015 155.217 118.924 156.228 118.892 156.468L118.732 156.426C118.473 154.577 119.273 154.228 119.441 152.719L119.265 152.501L118.862 152.609C118.244 153.658 118.893 155.318 118.482 156.49L118.165 156.315C118.254 154.538 118.209 152.997 118.16 151.221Z" fill="#4D851F"/>
<path d="M43.6559 157.9C44.3635 158.67 44.1572 158.419 44.3808 159.54C43.0994 162.151 41.2858 165.063 37.887 164.815L37.3594 162.751C40.3536 162.022 42.0243 160.43 43.6559 157.9Z" fill="#4D851F"/>
<path d="M22.0561 213.646C28.5497 213.037 35.2711 222.814 36.3813 228.566C36.4818 230.671 36.1116 231.553 37.4091 233.418C39.7482 236.776 40.1372 238.547 37.4845 241.884C35.8616 243.928 31.4136 245.478 28.9683 245.455C25.6875 245.321 27.8567 240.27 28.7501 238.826C28.9983 238.427 29.0252 238.218 28.8659 237.823C27.9749 237.674 27.3092 238.004 26.8127 238.761C25.3215 241.038 25.2619 242.937 25.6818 245.491C23.6907 245.111 20.351 245.361 19.1849 243.519C17.5451 240.931 20.4319 238.226 20.9141 236.033L20.7321 235.821C19.6042 236.048 18.3568 237.449 17.7914 238.429C16.6274 240.448 16.9736 242.089 17.5426 244.238C15.8956 243.174 14.6038 242.278 13.4873 240.654C12.906 234.891 15.2159 233.88 19.2854 230.573C19.9442 228.642 20.0054 226.568 20.2373 224.546C20.6255 221.167 21.0176 216.869 22.0561 213.646Z" fill="#FE9323"/>
<path d="M126.07 162.74C126.805 162.857 127.208 162.831 127.722 163.347C126.817 167.381 125.911 169.898 124.103 173.666C118.666 185.017 108.945 193.745 97.0754 197.933C85.4169 202.019 72.6042 201.243 61.5245 195.778C50.9646 190.609 42.6531 181.764 38.1485 170.903C37.0451 168.306 36.4443 165.81 35.5195 163.151C36.2023 162.723 36.5555 162.79 37.3653 162.768L37.8929 164.832C38.8024 167.482 40.015 170.873 41.2552 173.362C45.8496 182.383 53.2463 189.671 62.3345 194.129C72.9253 199.331 85.1529 200.095 96.3084 196.252C107.733 192.265 117.116 183.917 122.406 173.034C123.57 170.625 124.406 168.114 125.296 165.593C125.723 164.402 125.853 163.981 126.07 162.74Z" fill="#3A5008"/>
<path d="M26.9116 208.74C28.1918 209.751 29.4217 211.367 30.5442 212.62C28.9649 211.846 27.1244 211.077 26.1211 209.55C26.4734 209.269 26.6153 209.075 26.9116 208.74Z" fill="#AE5002"/>
<path d="M134.889 208.9L135.703 209.515C134.501 210.555 133.821 211.141 132.447 211.921L132.281 211.869C133.116 210.851 133.93 209.798 134.889 208.9Z" fill="#AE5002"/>
<path d="M33.3014 169.635L33.429 169.664C33.8437 170.04 34.6347 172.019 34.9272 172.713C40.9486 187.014 51.7532 198.159 66.7733 203.126C78.955 207.053 92.1954 206.001 103.604 200.199C116.191 193.849 125.162 182.783 129.568 169.48C134.053 171.329 137.715 171.422 142.3 169.808C143.036 177.93 141.544 186.099 137.985 193.437C133.559 201.573 125.851 209.197 117.158 212.528C116.539 212.371 116.696 212.345 116.208 211.669C115.495 211.422 112.327 213.214 111.357 213.567C108.601 214.57 105.858 215.604 103.023 216.379C93.2541 218.943 83.1082 219.759 73.0545 218.788C64.2446 217.934 56.3232 216.253 48.2813 212.574C46.7309 211.863 44.6351 211.781 43.0864 211.057C27.0902 203.576 18.1665 187.366 19.8911 169.878C24.7878 171.582 28.4752 171.204 33.3014 169.635Z" fill="#FE9323"/>
</svg>
