<svg width="148" height="239" viewBox="0 0 148 239" fill="none" xmlns="http://www.w3.org/2000/svg">
<path d="M64.4447 7.14531C64.3755 5.09339 64.2294 2.52106 65.7302 0.986634C68.7542 -2.10465 72.7073 2.8045 73.4414 5.61072C73.5859 6.16293 73.8527 6.95774 74.064 7.4457C79.7828 0.305137 86.3281 3.61611 81.6315 11.8026C87.2452 12.3273 94.6558 15.2631 99.5079 18.0714C100.747 14.8079 103.528 12.144 106.675 10.6703C112.679 7.85877 119.303 11.0798 121.897 17.0269C123.433 20.5303 123.488 24.5053 122.052 28.0503C121.019 30.643 119.512 32.3328 117.429 34.1171C119.251 37.2946 121.156 40.3233 122.668 43.6699C125.328 49.5306 127.238 55.6601 129.307 61.7414C129.603 62.6105 130.182 63.8216 130.629 64.6424C138.127 78.416 137.475 93.3168 127.03 105.707C137.294 115.38 147.257 126.926 147.754 141.822C147.983 148.696 144.869 157.23 138.296 160.31C141.459 174.996 142.141 189.052 133.628 202.277C131.659 205.378 129.189 208.128 126.318 210.419C126.097 212.467 125.945 214.26 125.968 216.331C126.573 217.334 127.139 218.251 127.39 219.409C140.647 221.518 155.528 227.819 132.71 233.551C120.93 236.221 108.879 237.674 96.7946 238.298C70.6609 239.614 44.4648 239.373 18.6087 235.004C-4.59121 231.083 -7.41356 223.758 17.6298 219.2L17.7851 218.107C18.1501 215.587 17.5811 211.647 17.1157 209.101C6.02594 199.41 2.11774 183.493 4.0494 169.379C4.55916 165.653 5.07391 161.513 6.11456 157.897C-4.08064 144.575 1.74809 126.024 10.3093 113.47C11.7494 111.358 13.3844 109.413 14.9497 107.397C8.69851 100.065 5.86937 89.6948 6.92342 80.2789C8.3279 67.7314 13.0362 51.8274 18.4703 40.5927C14.4759 38.1161 11.6348 35.5087 10.527 30.662C9.6938 26.9514 10.3869 23.0616 12.4503 19.867C14.2314 17.0688 17.0574 14.9585 20.3169 14.2515C23.5401 13.5363 26.9158 14.1726 29.6574 16.0122C32.0493 17.5873 33.7232 19.5214 35.0308 22.0493C41.3064 17.0921 49.3257 14.1979 57.028 12.4109C55.8767 11.1436 54.6064 9.55848 54.6514 7.73625C54.6666 6.86202 55.0469 6.03396 55.7 5.4527C58.2194 3.19109 62.371 5.21509 64.4447 7.14531Z" fill="#5B3200"/>
<path d="M62.3676 7.7582C62.7966 8.11977 63.3948 8.6434 63.8302 8.9869C64.5543 9.55831 66.06 11.7466 66.8443 11.8118L67.1433 11.5391C67.1859 10.8046 66.6343 9.06567 66.4918 8.23244C66.1373 6.16131 65.7394 4.07952 66.9483 2.2368L67.0663 2.05859C67.567 3.39673 70.0906 5.34583 71.2071 6.14371L71.7036 6.20489C72.1954 7.39969 72.7421 11.3647 73.289 11.8712C73.9955 11.499 74.377 10.0472 74.8146 9.56428C76.4725 9.66307 77.8059 7.92736 79.2446 7.17306C79.9474 6.80455 80.887 6.46832 81.4262 5.97697L81.4465 6.1563C81.8964 10.3191 77.7275 12.7749 78.2016 14.1249C78.9898 14.4934 79.9308 13.4946 80.1481 13.5151C87.5543 14.215 96.0324 17.6548 102.221 21.7138C102.765 21.2573 102.832 21.1373 103.215 20.5324C104.178 21.1483 105.638 22.1297 106.416 22.9546C106.262 23.4708 106.109 23.8929 106.059 24.431C108.1 26.2121 109.824 27.6805 111.681 29.6753C112.35 30.5071 113.041 31.3206 113.754 32.1151L114.831 33.5885C121.3 43.328 123.857 50.8524 127.457 61.8865C128.168 64.0663 129.929 67.2778 130.893 69.4771C133.703 75.7622 134.485 82.7665 133.129 89.5163C131.797 96.1071 128.43 101.999 123.662 106.705C122.947 107.41 121.3 109.242 120.488 109.677L120.556 110.353C121.621 110.893 124.89 107.832 125.739 107.036C126.83 108.055 128.554 109.562 129.536 110.6C137.652 118.758 146.05 130.27 145.961 142.352C145.948 143.151 145.897 143.948 145.805 144.743C145.661 144.906 143.963 148.244 143.742 148.875C142.98 151.056 137.292 155.055 135.293 153.822C135.298 153.112 136.426 151.708 136.548 150.773C136.661 149.908 136.241 148.702 136.262 148.031C136.397 143.989 137.279 143.514 134.77 140.097L135.088 138.351C134.314 136.333 133.179 135.547 131.555 134.183C127.499 131.686 123.014 134.146 121.331 133.539L121.002 133.786L120.356 134.573L119.621 135.597C119.202 135.258 118.679 134.738 118.274 134.359C117.99 135.077 117.662 135.832 117.473 136.577C117.131 137.999 117.295 138.401 117.751 139.787C117.276 141.576 117.463 142.103 117.941 143.892L117.605 144.757L117.578 145.03C117.15 145.748 117.086 146.215 117.092 147.059C116.929 146.213 116.766 145.364 116.576 144.525C112.113 124.8 92.915 111.5 72.8674 115.45C63.1264 117.336 54.5549 123.064 49.0864 131.343C46.6494 134.987 44.852 139.019 43.7715 143.266C43.4346 144.633 43.1872 146.565 42.8367 147.782C42.7731 148.476 42.7078 149.525 42.5961 150.182C42.5741 151.178 42.5647 152.202 42.5199 153.194C41.7591 154.524 40.5109 155.386 40.4068 156.687L40.3367 156.712C39.9187 158.794 39.5434 159.43 38.1271 161.025L38.043 161.012C37.8264 160.376 37.5134 160.168 36.987 159.775L35.599 160.839C35.6092 161.33 35.6009 162.111 35.6644 162.573C35.1586 162.9 35.261 162.729 35.1204 163.212C34.6018 163.322 34.4016 163.31 33.8776 163.228C33.4972 163.443 33.5229 163.423 33.2972 163.799L33.0123 163.79C32.2315 164.114 31.6136 164.342 30.8107 164.61C30.6881 163.799 30.676 163.431 30.1071 162.912C25.6359 164.029 21.236 164.224 16.7837 162.803C11.7644 161.251 7.57989 157.745 5.17124 153.075C1.66964 146.226 2.01668 137.493 4.30492 130.312C4.82887 126.578 9.4641 117.841 11.6954 114.7C12.8043 112.992 14.8281 110.256 16.2136 108.82C17.1954 109.611 19.9347 111.745 21.0709 111.933L21.2341 111.722C21.0735 111.247 19.3074 109.642 18.7851 109.112C9.64392 99.8402 6.71663 87.0329 9.60453 74.303C9.7674 72.5536 11.0439 67.9298 11.4958 66.0982C13.878 56.4428 16.47 48.5955 21.0094 39.7514C20.6995 39.3761 19.9742 39.142 19.4945 38.9399C11.1267 34.9922 9.22795 23.3783 16.8064 17.8963C17.9296 18.2975 20.7025 17.7213 22.083 17.5854C24.8093 17.3169 27.9408 19.8915 29.8327 18.97C29.958 18.9095 30.0819 18.8465 30.2049 18.7815C31.7841 20.1813 32.6491 21.2695 33.5211 23.1751C32.6891 23.9066 31.7389 24.6699 31.9294 25.9319C32.709 25.999 37.2362 22.5744 38.5623 21.7757C43.8616 18.5251 49.6282 16.107 55.6609 14.6056C56.5221 14.3971 60.6159 14.0358 60.7691 13.9667C60.8485 13.8555 60.9279 13.7442 61.0075 13.6328C59.5738 12.0922 57.6252 10.7875 56.7782 8.79675C56.606 8.39224 56.5566 7.46232 56.5402 7.23973C58.4068 7.38097 59.8773 7.84649 61.6914 8.17933C61.8703 8.2121 62.243 7.88168 62.3676 7.7582Z" fill="#FF9825"/>
<path d="M63.7432 105.954C63.4035 105.161 62.0484 104.272 61.3842 103.564C53.8828 95.575 53.6468 83.3876 60.4157 74.9109C63.9413 70.5592 69.0587 67.7955 74.6311 67.2337C79.9493 66.6638 85.3664 67.8883 89.5487 71.3271C93.7901 74.8556 96.4749 79.9096 97.0244 85.3994C97.7862 93.6698 95.3531 98.2713 90.3257 104.333C86.5021 103.438 82.5815 103.025 78.6554 103.103C77.1219 103.243 75.5876 103.374 74.0526 103.495C73.3315 103.568 70.8136 103.876 70.1881 104.171C67.7827 104.656 66.0777 105.188 63.7432 105.954Z" fill="#EF811E"/>
<path d="M70.7648 80.2357C67.3278 77.0952 68.8343 74.1653 72.9307 73.2389C76.4042 72.4535 79.3388 72.3765 82.8615 72.9797C82.9371 72.9918 83.3848 72.4551 83.4589 72.3629C84.7165 72.2055 85.8974 75.4682 85.9024 76.5268C85.9181 79.7564 81.4083 81.8082 79.0064 82.917C79.0605 84.7498 79.0368 86.3732 78.9875 88.2083C82.1071 91.051 85.7933 91.8657 89.0652 88.6522C90.1537 87.5833 90.4323 85.0447 91.4511 84.6378C92.2576 84.8938 92.4309 86.1094 92.2027 86.8145C91.3289 89.5127 89.5093 91.1216 86.947 92.1459C85.6516 97.9997 81.7017 103.156 75.0496 101.682C70.5106 100.676 68.5612 97.0715 66.8109 93.174C64.8586 92.3774 60.4897 89.5802 61.5231 86.3829C61.5777 86.2142 61.7075 86.206 61.8802 86.1264C63.3975 86.482 63.1047 87.6282 63.7298 88.6663C64.5327 89.9994 66.4358 91.0828 67.9136 91.4922C69.9779 92.0865 72.1956 91.8107 74.0516 90.7289C75.3508 89.9844 76.0664 89.2199 77.0325 88.0953C77.0786 86.3895 77.0786 84.6825 77.0321 82.9767C76.5866 82.849 75.3876 82.5304 75.0094 82.3598C73.1696 81.7745 72.3039 81.3545 70.7648 80.2357Z" fill="#623101"/>
<path d="M70.7656 80.2354C71.2407 79.6136 71.0365 79.7116 71.6809 79.4259C72.9977 79.4088 74.962 81.0378 75.0102 82.3595C73.1704 81.7742 72.3047 81.3542 70.7656 80.2354Z" fill="#482500"/>
<path d="M73.8846 94.7102C75.2021 94.6296 75.5008 94.927 76.6801 95.5578C79.2029 94.0445 81.0469 95.8065 82.5057 97.6922C81.4606 98.8228 80.9985 99.1366 79.5872 99.747C75.4466 100.813 72.8284 99.5422 70.3438 96.1944C71.7106 95.3276 72.3093 95.059 73.8846 94.7102Z" fill="#E7542D"/>
<path d="M76.6459 73.8714C78.2368 73.7295 83.1786 72.8762 83.7056 75.0504C82.7752 76.5824 78.082 75.4337 76.1136 75.498L76.0674 75.3501L75.5773 75.0065L75.5234 74.6938C75.8527 74.2234 76.0603 74.2026 76.6212 73.9726L76.6459 73.8714Z" fill="#B25606"/>
<path d="M76.0674 75.3502L75.5773 75.0065L75.5234 74.6939C75.8527 74.2235 76.0603 74.2027 76.6212 73.9727C77.2251 74.0534 77.0383 73.9423 77.4246 74.3258C77.4695 74.8795 77.5029 74.6621 77.1704 75.1909C76.7274 75.4009 76.5759 75.3581 76.0674 75.3502Z" fill="#D46B0C"/>
<path d="M74.4692 73.9808C75.4266 73.8329 75.6878 73.7761 76.6454 73.8702L76.6207 73.9714C76.0598 74.2015 75.8522 74.2223 75.523 74.6926L75.5769 75.0053L76.0669 75.349L76.1131 75.4968L75.5827 75.6902C73.9795 75.8458 72.6578 76.3181 71.0499 75.849L70.9688 75.6313C71.867 74.6198 73.2 74.4384 74.4692 73.9808Z" fill="#763801"/>
<path d="M74.0561 103.495C75.5911 103.374 77.1254 103.243 78.6588 103.104C78.6143 103.681 78.5118 104.112 78.7547 104.62C79.3846 105.009 80.0854 104.538 80.7435 104.954C94.3745 105.738 105.294 110.508 114.504 120.836C116.446 123.053 118.168 125.453 119.647 128.002C120.158 128.865 121.011 130.536 121.484 131.257L120.644 131.929L119.721 132.52L120.176 132.596C120.417 133.186 120.478 133.412 121.003 133.785L120.357 134.573L119.623 135.596C119.203 135.257 118.68 134.738 118.275 134.358C117.991 135.076 117.663 135.832 117.474 136.576C117.132 137.998 117.297 138.4 117.752 139.787C117.277 141.575 117.464 142.103 117.942 143.891L117.606 144.757L117.579 145.029C117.151 145.748 117.087 146.214 117.093 147.058C116.93 146.213 116.767 145.364 116.577 144.524C112.114 124.799 92.9161 111.5 72.8685 115.45C63.1275 117.335 54.556 123.064 49.0876 131.343C46.6505 134.986 44.8531 139.018 43.7726 143.265C43.4357 144.632 43.1883 146.564 42.8378 147.782C42.654 147.538 42.3003 145.804 42.1084 145.212C41.4463 142.878 42.5767 143.443 41.6503 141.075C42.117 138.379 41.6132 136.928 39.7885 134.939C39.2099 134.37 38.7766 134.126 38.0929 133.693L37.3867 133.359C36.8769 133.046 36.5738 133.322 35.7578 132.581C41.7012 119.522 50.3266 111.191 63.7467 105.954C66.0811 105.188 67.7862 104.656 70.1916 104.171C70.8171 103.876 73.335 103.568 74.0561 103.495Z" fill="#63A736"/>
<path d="M74.0561 103.495C75.5911 103.374 77.1254 103.243 78.6588 103.104C78.6143 103.681 78.5118 104.112 78.7547 104.62C79.3846 105.009 80.0854 104.538 80.7435 104.954C94.3745 105.738 105.294 110.508 114.504 120.836C116.446 123.053 118.168 125.453 119.647 128.002C120.158 128.865 121.011 130.536 121.484 131.257L120.644 131.929C115.821 121.437 106.058 112.932 95.286 108.942C84.1638 104.736 71.8159 105.19 61.0325 110.202C49.6335 115.465 43.7481 122.94 38.0929 133.693L37.3867 133.359C36.8769 133.046 36.5738 133.322 35.7578 132.581C41.7012 119.522 50.3266 111.191 63.7467 105.954C66.0811 105.188 67.7862 104.656 70.1916 104.171C70.8171 103.876 73.335 103.568 74.0561 103.495Z" fill="#86BD57"/>
<path d="M70.1916 104.173C70.8171 103.878 73.335 103.57 74.0561 103.496C74.1127 103.896 74.2919 104.981 74.2662 105.302C73.0643 105.494 71.7643 105.675 70.5767 105.903C59.1255 108.141 48.0468 115.634 41.6708 125.34C40.1579 127.643 38.3172 130.765 37.3867 133.36C36.8769 133.047 36.5738 133.323 35.7578 132.582C41.7012 119.524 50.3266 111.192 63.7467 105.955C66.0811 105.19 67.7862 104.657 70.1916 104.173Z" fill="#424404"/>
<path d="M74.0547 103.495C75.5898 103.374 77.124 103.243 78.6575 103.104C78.6129 103.681 78.5104 104.112 78.7534 104.62C79.3832 105.009 80.0841 104.538 80.7422 104.954C78.6024 104.988 76.3928 105.045 74.2649 105.301C74.2905 104.98 74.1113 103.895 74.0547 103.495Z" fill="#454905"/>
<path d="M119.72 132.521L120.175 132.597C120.415 133.188 120.477 133.414 121.001 133.787L120.356 134.575L119.621 135.598C119.202 135.259 118.679 134.739 118.273 134.36C118.822 133.467 118.987 133.277 119.72 132.521Z" fill="#482500"/>
<path d="M4.30492 130.312C3.97595 138.288 3.70913 145.855 9.43617 152.393C12.3296 155.695 17.3664 157.832 21.7469 157.995C23.2397 158.037 24.732 157.892 26.1881 157.56C25.6759 156.531 24.8375 155.061 24.6104 153.95C24.4679 153.253 25.0107 151.85 24.9412 151.004C24.5827 146.649 23.234 145.327 25.931 141.36C25.5376 139.095 26.1045 138.556 27.4541 136.871C27.6373 136.676 28.0757 136.441 28.3277 136.291C28.1829 135.952 28.0334 135.341 27.928 134.965C29.8293 134.506 30.9788 134.182 32.9647 134.248C34.9767 134.346 37.7449 134.79 38.9309 136.64L39.1684 136.705C39.5698 136.327 39.6546 135.528 39.7874 134.94C41.6121 136.929 42.1158 138.38 41.6492 141.076C42.5756 143.444 41.4452 142.879 42.1073 145.213C42.2992 145.805 42.6529 147.539 42.8367 147.783C42.7731 148.477 42.7078 149.526 42.5961 150.183C42.5741 151.179 42.5647 152.202 42.5199 153.195C41.7591 154.525 40.5109 155.387 40.4068 156.688L40.3367 156.712C39.9187 158.794 39.5434 159.43 38.1271 161.025L38.043 161.012C37.8264 160.376 37.5134 160.168 36.987 159.776L35.599 160.84C35.6092 161.33 35.6009 162.111 35.6644 162.573C35.1586 162.901 35.261 162.73 35.1204 163.212C34.6018 163.322 34.4016 163.311 33.8777 163.228C33.4972 163.443 33.5229 163.424 33.2972 163.8L33.0123 163.79C32.2315 164.115 31.6136 164.342 30.8107 164.61C30.6881 163.8 30.676 163.432 30.1071 162.912C25.6359 164.029 21.236 164.224 16.7837 162.804C11.7644 161.251 7.57989 157.745 5.17124 153.075C1.66964 146.227 2.01668 137.494 4.30492 130.312Z" fill="#EF811E"/>
<path d="M39.7851 134.939C41.6097 136.928 42.1135 138.379 41.6469 141.075C42.5732 143.443 41.4428 142.878 42.105 145.212C42.2969 145.804 42.6505 147.538 42.8344 147.782C42.7708 148.476 42.7054 149.525 42.5937 150.182C42.5718 151.178 42.5624 152.201 42.5175 153.194C41.7568 154.524 40.5086 155.386 40.4044 156.687L40.3344 156.711C39.9163 158.794 39.541 159.43 38.1248 161.024L38.0407 161.011C37.824 160.375 37.5111 160.167 36.9847 159.775L35.5967 160.839L35.3692 160.915C35.3863 160.58 35.0007 159.279 34.8906 158.873L35.9939 157.731C37.0061 156.174 36.9572 155.404 36.7821 153.609C36.1907 153.254 35.4417 153.388 34.9505 152.873C34.9266 152.327 34.8998 152.532 35.2068 152.012C35.78 151.922 36.5459 151.974 37.1412 151.988C39.6261 150.485 40.4333 149.102 40.6356 146.158C38.5616 142.416 35.8491 143.364 34.9626 142.076C35.1248 141.496 35.0388 141.696 35.5427 141.248C36.3669 141.106 37.1903 140.959 38.0129 140.807C39.6758 138.91 38.8821 138.771 38.9286 136.639L39.1661 136.704C39.5675 136.326 39.6522 135.527 39.7851 134.939Z" fill="#5B3300"/>
<path d="M36.7821 153.609C39.1506 155.099 38.9233 157.191 37.4366 159.233L36.9847 159.775L35.5967 160.839L35.3692 160.915C35.3863 160.581 35.0007 159.28 34.8906 158.873L35.9939 157.732C37.0061 156.174 36.9572 155.404 36.7821 153.609Z" fill="#D46B0C"/>
<path d="M35.9939 157.732C36.6058 158.341 36.6854 159.095 37.4366 159.234L36.9847 159.776L35.5967 160.84L35.3692 160.916C35.3863 160.581 35.0007 159.28 34.8906 158.874L35.9939 157.732Z" fill="#D46B0C"/>
<path d="M40.6358 146.158C41.2597 148.825 41.1504 151.125 38.5412 152.691C37.0569 152.168 36.7555 152.098 35.207 152.013C35.7802 151.922 36.5461 151.974 37.1414 151.989C39.6263 150.486 40.4335 149.102 40.6358 146.158Z" fill="#D46B0C"/>
<path d="M38.9288 136.641L39.1663 136.705C40.2429 138.821 40.5412 139.996 39.2444 142.151C37.6193 141.491 37.2616 141.365 35.543 141.249C36.3672 141.107 37.1905 140.96 38.0131 140.808C39.676 138.912 38.8823 138.773 38.9288 136.641Z" fill="#D46B0C"/>
<path d="M42.5928 150.184C42.5709 151.18 42.5615 152.203 42.5166 153.196C41.7559 154.526 40.5077 155.388 40.4035 156.689L40.3335 156.713C40.2835 155.596 40.122 154.963 39.6094 153.993C41.4055 152.726 41.6448 152.132 42.5928 150.184Z" fill="#528F26"/>
<path d="M40.4453 142.953C40.9825 142.256 41.306 141.891 41.6487 141.076C42.575 143.444 41.4446 142.879 42.1068 145.213C41.4919 144.24 41.1933 143.823 40.4453 142.953Z" fill="#528F26"/>
<path d="M30.153 162.795C29.8695 161.987 29.1123 162.271 28.8008 161.344C29.1799 161.023 30.813 160.91 31.6424 160.647C32.7587 160.297 33.8005 159.743 34.7149 159.013L34.8936 158.873C35.0037 159.28 35.3893 160.581 35.3722 160.915L35.5996 160.839C35.6098 161.33 35.6016 162.111 35.665 162.573C35.1593 162.9 35.2616 162.729 35.121 163.212C34.6024 163.322 34.4022 163.31 33.8783 163.228C33.4978 163.443 33.5235 163.423 33.2978 163.799L33.0129 163.79C32.2322 164.114 31.6143 164.342 30.8114 164.61C30.6887 163.799 30.6766 163.431 30.1078 162.912L30.153 162.795Z" fill="#D46B0C"/>
<path d="M35.5968 160.84C35.6069 161.331 35.5987 162.112 35.6621 162.573C35.1564 162.901 35.2587 162.73 35.1182 163.213C34.5995 163.322 34.3994 163.311 33.8754 163.229C33.495 163.443 33.5206 163.424 33.295 163.8L33.0101 163.791L32.5223 163.69C32.2441 163.188 32.4257 162.724 32.4735 162.012C33.241 161.958 34.6807 161.272 35.3693 160.916L35.5968 160.84Z" fill="#5B3200"/>
<path d="M30.1507 162.796C30.7657 162.685 31.8678 162.241 32.4741 162.012C32.4263 162.724 32.2447 163.188 32.5228 163.69L33.0106 163.791C32.2299 164.115 31.612 164.343 30.8091 164.611C30.6864 163.8 30.6743 163.432 30.1055 162.912L30.1507 162.796Z" fill="#623101"/>
<path d="M27.9258 134.965C29.8271 134.507 30.9765 134.183 32.9625 134.249C32.7066 134.883 29.1976 135.974 28.3254 136.292C28.1807 135.953 28.0312 135.342 27.9258 134.965Z" fill="#FDC582"/>
<path d="M78.6575 103.105C82.5837 103.027 86.5043 103.44 90.3279 104.335C102.997 107.302 113.949 115.225 120.732 126.329C121.516 127.588 122.134 128.773 122.772 130.11L123.129 130.621C123.783 130.16 125.059 130.031 125.871 129.898L127.413 129.859C129 130.063 133.091 130.93 133.666 132.665C133.493 133.109 133.608 132.955 133.082 133.212C132.777 133.908 132.271 133.964 131.555 134.184C127.498 131.687 123.014 134.147 121.331 133.54L121.001 133.787C120.477 133.414 120.415 133.188 120.175 132.597L119.72 132.521L120.643 131.93L121.482 131.259C121.009 130.537 120.157 128.867 119.645 128.003C118.167 125.454 116.445 123.054 114.503 120.838C105.293 110.51 94.3732 105.739 80.7422 104.955C80.0841 104.539 79.3833 105.011 78.7534 104.621C78.5105 104.113 78.613 103.683 78.6575 103.105Z" fill="#424404"/>
<path d="M121.328 133.539C123.535 131.846 125.512 131.751 128.18 131.83C130.259 132.149 131.081 132.362 133.079 133.211C132.774 133.907 132.269 133.964 131.552 134.183C127.496 131.686 123.012 134.146 121.328 133.539Z" fill="#FDC582"/>
<path d="M127.413 129.859C129 130.063 133.092 130.93 133.666 132.665C133.493 133.109 133.608 132.955 133.082 133.212C131.084 132.363 130.262 132.15 128.183 131.83L129.111 131.712C129.335 131.362 129.494 131.16 129.61 130.757L129.381 130.437C128.143 129.745 124.717 130.444 123.345 130.768L123.129 130.621C123.783 130.16 125.059 130.03 125.871 129.898L127.413 129.859Z" fill="#623101"/>
<path d="M121.481 131.258C122.686 131.389 122.351 131.174 123.05 132.021C123.079 132.057 124.514 131.606 124.744 131.579C126.077 131.418 127.799 131.403 129.11 131.711L128.182 131.829C125.514 131.75 123.536 131.845 121.33 133.539L121 133.786C120.476 133.413 120.414 133.187 120.174 132.596L119.719 132.52L120.642 131.929L121.481 131.258Z" fill="#5B3200"/>
<path d="M9.60476 74.3027C9.76746 78.2984 9.75874 82.5353 10.4921 86.5097C12.1766 95.8055 16.6783 104.299 23.6184 110.727C24.5787 111.616 27.311 113.795 27.1202 114.504C26.3541 117.347 17.9327 113.2 16.2467 113.472C13.9967 113.834 13.0513 114.551 11.6956 114.7C12.8045 112.991 14.8283 110.256 16.2138 108.82C17.1957 109.611 19.9349 111.745 21.0711 111.933L21.2343 111.721C21.0737 111.247 19.3076 109.641 18.7853 109.111C9.64414 99.8399 6.71686 87.0327 9.60476 74.3027Z" fill="#EF811E"/>
<path d="M18.0287 26.7565L18.1948 27.1659C19.2192 27.5429 19.6803 25.1835 21.2065 24.9348C24.0517 24.4712 26.0387 26.7008 27.3178 28.8911C25.6828 30.0328 22.8389 33.1846 22.5697 35.1897L22.5658 34.8393L22.4661 34.5989C19.1222 32.8487 17.4704 30.6265 18.0287 26.7565Z" fill="#B25606"/>
<path d="M30.3786 132.531C31.7602 132.352 35.1452 132.736 35.7548 132.583C36.5707 133.324 36.8739 133.048 37.3836 133.361L38.0898 133.695C38.7736 134.128 39.2068 134.371 39.7855 134.941C39.6526 135.529 39.5679 136.328 39.1664 136.705L38.929 136.641C37.7429 134.791 34.9748 134.347 32.9627 134.249C30.9768 134.182 29.8274 134.507 27.9261 134.965C28.0315 135.341 28.1809 135.953 28.3257 136.292C28.0738 136.442 27.6354 136.676 27.4522 136.872C26.3027 137.067 23.6818 137.827 22.8461 137.454L22.6694 137.251L22.3906 136.876C22.621 135.261 26.3665 133.548 27.7982 133.138C28.6631 132.957 29.5234 132.754 30.3786 132.531Z" fill="#5B3200"/>
<path d="M22.6719 137.251C24.6734 136.209 25.831 135.704 27.9286 134.965C28.034 135.341 28.1834 135.953 28.3282 136.292C28.0762 136.442 27.6378 136.676 27.4546 136.871C26.3052 137.066 23.6843 137.827 22.8486 137.454L22.6719 137.251Z" fill="#FDC582"/>
<path d="M18.0273 26.7557C20.1813 20.2824 26.5004 23.5625 28.7681 28.3343C28.9354 28.6872 29.0895 29.0462 29.2301 29.4103C26.8428 30.9039 25.1408 33.4428 23.4831 35.7014L22.5683 35.1889C22.8375 33.1837 25.6814 30.0319 27.3164 28.8902C26.0373 26.7 24.0503 24.4703 21.2051 24.9339C19.679 25.1827 19.2178 27.5421 18.1934 27.165L18.0273 26.7557Z" fill="#623101"/>
<path d="M120.486 109.679L120.554 110.354C121.619 110.894 124.888 107.834 125.737 107.037C126.828 108.056 128.552 109.563 129.534 110.601C125.232 110.94 123.206 111.972 119.101 112.985C118.548 113.122 117.847 113.233 117.379 112.912C117.151 111.672 119.469 110.021 120.486 109.679Z" fill="#EF811E"/>
<path d="M124.562 126.849C125.192 126.283 126.065 125.443 126.763 125.025C127.445 125.813 127.625 126.026 128.122 126.932C127.78 127.85 127.19 128.983 127.41 129.858L125.868 129.897C125.407 129.279 124.86 127.644 124.562 126.849Z" fill="#EF811E"/>
<path d="M122.16 124.715C122.628 124.266 123.05 124.505 123.613 124.668C123.887 125.251 124.405 126.27 124.565 126.851C124.862 127.645 125.409 129.28 125.871 129.898C125.059 130.031 123.782 130.16 123.129 130.621L122.772 130.11C123.271 130.142 123.311 130.16 123.774 130.003C123.606 128.825 122.586 125.934 122.16 124.715Z" fill="#D46B0C"/>
<path d="M103.213 20.5332C104.176 21.1492 105.636 22.1306 106.414 22.9554C106.26 23.4716 106.107 23.8937 106.057 24.4319C105.059 23.7522 103.046 22.4482 102.219 21.7146C102.763 21.2581 102.83 21.1382 103.213 20.5332Z" fill="#D46B0C"/>
<path d="M27.8008 133.136C27.8679 131.719 28.0137 130.789 28.5084 129.471L28.7087 129.414C29.8621 130.447 29.6067 131.976 30.3812 132.529C29.526 132.752 28.6656 132.956 27.8008 133.136Z" fill="#EF811E"/>
<path d="M20.7852 37.3189C21.1061 36.6456 22.0729 35.4774 22.5656 34.8398L22.5695 35.1903L23.4842 35.7028C22.8563 36.612 22.3827 37.3076 21.8445 38.2678C21.4486 37.7403 21.3433 37.7011 20.7852 37.3189Z" fill="#EF811E"/>
<path d="M122.159 124.714C121.872 123.919 121.244 122.627 122.074 122.07L122.498 122.204C123.231 122.848 123.386 123.743 123.612 124.668C123.049 124.504 122.627 124.266 122.159 124.714Z" fill="#EF811E"/>
<path d="M20.784 37.3184C21.3422 37.7006 21.4474 37.7398 21.8434 38.2673L21.0071 39.752C20.6972 39.3767 19.9719 39.1427 19.4922 38.9406C19.7501 38.7433 20.5375 37.6459 20.784 37.3184Z" fill="#B25606"/>
<path d="M33.4966 78.894C44.5873 77.905 46.6365 90.7674 36.318 93.0148C32.4696 93.6999 28.0049 92.1165 26.9071 88.0405C26.453 86.2899 26.7092 84.4309 27.6199 82.8684C29.0006 80.4662 30.9602 79.5635 33.4966 78.894Z" fill="#FDC582"/>
<path d="M114.119 73.2751C117.893 73.1473 121.695 75.2181 122.235 79.2225C122.484 80.9466 122.029 82.6981 120.973 84.0834C119.495 85.9968 117.483 86.6641 115.185 86.9477C103.65 87.0718 104.169 74.1359 114.119 73.2751Z" fill="#FDC582"/>
<path d="M47.0562 65.1102C49.1343 63.5587 52.7295 65.018 53.9527 67.0675C55.1078 68.8702 55.7517 71.3635 55.2255 73.529C52.7888 83.558 41.1686 78.9253 43.6132 69.7699C44.1425 67.7882 45.1037 66.2085 46.9261 65.1231L47.0562 65.1102Z" fill="#482500"/>
<path d="M46.9279 65.1217L47.058 65.1088C47.6095 65.0839 48.0752 65.399 48.3827 65.8327C48.4744 66.4555 48.5206 66.2003 48.231 66.763C47.7295 67.1015 47.9491 67.055 47.3971 67.0196C46.6964 66.4534 46.8636 65.9411 46.9279 65.1217Z" fill="#5B3200"/>
<path d="M47.1796 67.2257C50.1434 66.9884 50.4391 69.6769 48.2863 71.0474C46.2177 71.4454 45.4379 68.9554 47.1796 67.2257Z" fill="#EFEEEE"/>
<path d="M99.4867 60.9677C106.274 60.8454 108.979 72.8957 100.791 75.3317C92.9714 75.6067 91.6788 62.6495 99.4867 60.9677Z" fill="#482500"/>
<path d="M97.9184 63.6246C100.676 63.5458 100.716 66.4554 98.8857 67.4905C96.567 67.6808 96.0643 65.1335 97.9184 63.6246Z" fill="#EFEEEE"/>
<path d="M47.7952 50.4977C49.0625 50.4156 52.1617 50.5137 51.5867 52.5074C49.7257 53.6842 48.3563 50.8753 44.9092 54.254L44.7627 54.3992C44.1777 55.2493 43.9193 56.0981 42.8208 56.1752C41.5566 55.0589 43.7748 52.5524 44.7593 51.8347C45.8167 51.0638 46.5299 50.7397 47.7952 50.4977Z" fill="#623101"/>
<path d="M98.8079 49.0021C96.5752 48.5847 95.8719 49.9296 94.6484 49.6573C94.0228 49.0823 94.0859 48.308 94.7625 47.8097C96.0663 46.8493 97.9695 46.9951 99.5017 47.0724C100.01 47.2929 100.568 47.521 101.062 47.7634C100.963 48.3211 100.907 49.0155 100.601 49.4588L100.334 49.5948C99.886 49.3871 99.2809 49.1798 98.8079 49.0021Z" fill="#623101"/>
<path d="M99.5024 47.0723C100.011 47.2928 100.569 47.5208 101.062 47.7633C100.964 48.321 100.907 49.0154 100.602 49.4586L100.335 49.5947C99.8867 49.387 99.2815 49.1797 98.8086 49.002C98.9184 48.3925 99.0912 47.516 99.5024 47.0723Z" fill="#482500"/>
<path d="M101.06 47.7637C102.043 48.4515 104.089 50.0482 103.702 51.4704C102.476 52.0086 101.298 50.2519 100.332 49.5951L100.599 49.459C100.904 49.0158 100.961 48.3214 101.06 47.7637Z" fill="#623101"/>
<path d="M42.8363 147.781C43.1867 146.564 43.4342 144.632 43.771 143.265C44.8516 139.018 46.6489 134.986 49.086 131.343C54.5544 123.064 63.126 117.335 72.8669 115.45C92.9145 111.499 112.112 124.799 116.575 144.524C116.766 145.363 116.929 146.212 117.092 147.058C117.188 148.39 117.309 149.72 117.456 151.047C118.138 151.757 118.598 152.884 118.922 153.131L119.429 153.9C120.417 154.089 120.275 154.041 120.405 155.143C121.183 157.858 121.813 158.829 124.383 160.27C124.731 160.464 125.083 160.651 125.437 160.832C126.063 160.975 126.823 161.003 127.049 161.673C127.629 161.419 129.442 162.126 130.56 162.117C132.775 162.097 134.478 161.955 136.552 161.117C137.173 163.422 137.499 165.316 137.879 167.674C138.867 173.695 139.022 178.846 138.148 184.902C136.486 194.923 132.439 203.321 124.399 209.731C124.455 210.291 124.586 211.324 124.428 211.854C124.37 212.974 124.3 214.094 124.221 215.214C124.154 215.807 124.145 216.236 123.91 216.787C125.79 219.597 126.794 222.451 124.472 225.501C123.482 226.801 121.432 227.606 119.808 227.438C119.928 226.567 120.394 225.598 120.488 224.832C120.677 223.293 119.637 218.622 117.405 219.208L117.174 219.497C118.1 222.385 119.871 225.082 117.135 227.874C114.809 228.702 112.777 228.767 110.325 228.554C111.68 225.974 111.975 222.147 109.335 219.892C109.109 219.7 108.791 219.792 108.519 219.834C107.357 221.481 111.253 223.264 108.779 227.532C108.583 227.869 108.373 228.197 108.151 228.518C107.095 228.615 105.223 228.778 104.239 228.531C103.799 228.028 101.87 227.232 100.998 226.483C99.3926 225.106 98.6664 223.242 98.3491 221.216C98.0327 219.195 100.285 217.87 101.702 216.239C101.418 215.825 101.274 215.576 101.041 215.13C100.965 214.488 101.289 214.13 101.636 213.549C103.06 212.671 104.213 212.002 105.394 210.785C103.924 211.116 102.019 212.002 100.563 212.564C98.5931 213.303 96.594 213.963 94.5706 214.543C83.2786 217.707 73.0227 218.357 61.4566 216.241C58.7269 215.741 55.3015 215.037 52.6641 214.165C52.1256 214.501 51.9973 215.095 51.899 215.736C51.2914 217.447 50.8262 218.609 50.8538 220.472C50.8688 221.485 50.9633 222.769 50.8322 223.75C50.6067 225.602 50.255 226.649 48.751 227.895C47.3522 229.053 42.747 230.415 41.2187 229.425C41.1519 229.075 41.4411 228.181 41.6179 227.824C42.3704 226.305 41.7611 221.171 39.8677 220.617C39.0628 221.392 39.5881 223.037 39.8875 224.013C40.5043 226.021 39.7692 227.965 38.8446 229.743C36.8921 230.018 35.1004 230.084 33.1408 229.879C32.622 229.028 31.6761 227.748 31.4986 226.873C31.6545 224.867 31.6885 223.679 30.9927 221.811C30.2928 222.021 29.816 221.984 29.4951 222.688C29.866 224.793 30.0068 226.436 29.2236 228.497C28.5321 229.592 28.3876 229.367 27.1011 229.361C22.2786 228.472 19.587 226.405 19.3094 221.295C19.7909 217.697 19.52 214.152 19.2167 210.572C19.8432 211.008 20.6685 211.694 21.3807 211.765C21.9282 211.492 21.7481 211.607 22.058 210.905C17.0312 206.788 13.5181 203.5 10.4454 197.618C5.33252 187.83 4.46329 177.396 6.25307 166.625C6.61803 164.43 7.06483 161.655 7.69597 159.566C8.98197 160.809 10.4136 161.892 11.9598 162.793C17.938 166.234 24.2959 166.342 30.8103 164.609C31.6132 164.341 32.2311 164.113 33.0118 163.789L33.2967 163.799C33.5224 163.422 33.4967 163.442 33.8772 163.227C34.4011 163.309 34.6013 163.321 35.1199 163.211C35.2605 162.728 35.1582 162.899 35.6639 162.572C35.6005 162.11 35.6087 161.329 35.5985 160.838L36.9866 159.774C37.5129 160.167 37.8259 160.375 38.0425 161.011L38.1266 161.024C39.5429 159.429 39.9182 158.793 40.3363 156.711L40.4063 156.687C40.5104 155.386 41.7587 154.524 42.5194 153.193C42.5643 152.201 42.5736 151.177 42.5956 150.181C42.7073 149.524 42.7727 148.475 42.8363 147.781Z" fill="#EF811E"/>
<path d="M42.8379 147.781C43.1883 146.564 43.4358 144.632 43.7727 143.265C44.8532 139.018 46.6505 134.986 49.0876 131.343C54.5561 123.064 63.1276 117.335 72.8686 115.45C92.9161 111.499 112.114 124.799 116.577 144.524C116.767 145.363 116.93 146.212 117.093 147.058C117.19 148.39 117.311 149.72 117.458 151.047C117.881 161.461 114.183 171.622 107.165 179.328C93.459 194.43 70.2409 195.506 55.1982 181.774C47.5185 174.762 42.4193 163.648 42.521 153.193C42.5659 152.201 42.5753 151.177 42.5972 150.181C42.7089 149.524 42.7743 148.475 42.8379 147.781Z" fill="#EFEEEE"/>
<path d="M98.3134 132.957C98.697 132.934 99.081 132.921 99.4653 132.918C101.029 132.905 102.434 133.577 103.523 134.678C104.639 135.787 105.251 137.305 105.218 138.879C105.159 141.877 102.526 144.195 100.666 146.429C98.6014 148.905 96.5577 151.399 94.5349 153.91C90.8142 158.532 87.0461 163.114 83.2314 167.657C80.8844 170.494 77.663 175.961 73.66 175.726C70.7345 175.555 68.4707 172.556 66.5945 170.544L60.9077 164.473C58.319 161.673 54.2872 158.783 54.2242 155.142C54.1877 153.566 54.7887 152.041 55.891 150.914C56.9302 149.822 58.3681 149.2 59.8751 149.189C60.9361 149.191 61.9733 149.502 62.8597 150.085C63.8735 150.756 66.3364 153.462 67.3207 154.501C69.4501 156.767 71.6075 159.008 73.7922 161.221C79.437 153.775 85.7953 146.693 91.6003 139.357C93.4401 137.033 95.4464 133.766 98.3134 132.957Z" fill="#63A736"/>
<path d="M138.148 184.904C137.066 186.171 136.627 188.476 135.811 190.048C132.03 197.329 125.953 204.542 117.587 206.346C117.193 206.432 116.41 206.328 116.099 206.006C114.996 204.718 117.287 202.751 117.227 201.132L117.001 200.976C115.737 201.239 110.204 205.069 108.261 206.083C104.546 208.006 100.658 209.573 96.6477 210.763C84.3973 214.517 71.4537 214.617 58.9494 212.044C55.6943 211.374 52.8494 210.02 49.7203 209.355C48.9182 209.184 45.5391 209.579 44.2817 209.57C38.9923 209.526 34.2219 208.08 29.5347 205.673C16.178 198.815 7.84008 184.313 9.96141 169.266C10.0093 168.925 10.5201 165.632 11.1848 165.947C13.2322 166.92 15.1001 168.384 17.2828 169.107C22.9974 171.161 27.7175 170.696 33.4475 169.229C39.0838 185.661 49.6412 198.484 66.7198 203.583C78.8427 207.219 91.9164 205.854 103.027 199.791C116.268 192.623 123.48 181.609 127.711 167.419C130.879 168.131 133.205 167.111 136.224 166.547C136.752 166.449 137.528 167.319 137.878 167.676C138.866 173.697 139.021 178.847 138.148 184.904Z" fill="#FF9825"/>
<path d="M117.454 151.049C118.135 151.759 118.595 152.886 118.919 153.133L119.426 153.903C120.414 154.092 120.272 154.043 120.403 155.146C121.181 157.861 121.81 158.831 124.38 160.272C124.729 160.466 125.081 160.653 125.434 160.834C125.208 161.667 125.006 162.277 124.969 163.144L124.906 163.121C123.082 174.332 115.478 185.522 106.321 192.11C96.7236 199.081 84.7305 201.908 73.0305 199.958C56.201 197.153 42.4737 185.166 36.8297 169.123C36.3933 167.881 36.0077 166.614 35.6165 165.358C35.5282 164.613 35.3173 163.936 35.1172 163.213C35.2578 162.731 35.1554 162.902 35.6612 162.574C35.5977 162.112 35.606 161.331 35.5958 160.84L36.9838 159.777C37.5102 160.169 37.8232 160.377 38.0398 161.013L38.1239 161.026C39.5402 159.431 39.9155 158.795 40.3335 156.713L40.4036 156.689C40.5077 155.388 41.7559 154.526 42.5167 153.196C42.415 163.651 47.5141 174.764 55.1938 181.776C70.2365 195.508 93.4546 194.433 107.161 179.331C114.178 171.625 117.877 161.463 117.454 151.049Z" fill="#63A736"/>
<path d="M119.426 153.902C120.414 154.091 120.272 154.043 120.402 155.145C121.18 157.86 121.81 158.83 124.38 160.272C124.728 160.466 125.08 160.653 125.434 160.834C125.208 161.666 125.006 162.277 124.969 163.143L124.906 163.121C124.662 162.892 124.167 162.675 123.844 162.52C119.797 160.564 120.565 157.589 119.482 154.082L119.426 153.902Z" fill="#528F26"/>
<path d="M36.9838 159.775C37.5102 160.168 37.8232 160.376 38.0398 161.012L38.1239 161.025C38.3165 161.795 38.5347 162.05 38.9712 162.691C37.3988 164.647 36.6579 164.374 35.6165 165.357C35.5282 164.611 35.3173 163.935 35.1172 163.212C35.2578 162.729 35.1554 162.9 35.6612 162.573C35.5977 162.111 35.606 161.33 35.5958 160.839L36.9838 159.775Z" fill="#528F26"/>
<path d="M36.9857 159.775C37.5121 160.168 37.825 160.376 38.0417 161.012C37.318 161.709 36.6112 162.206 35.663 162.573C35.5996 162.111 35.6078 161.33 35.5977 160.839L36.9857 159.775Z" fill="#482500"/>
<path d="M40.3346 156.712L40.4047 156.688C40.8613 158.694 40.3421 161.135 38.9723 162.691C38.5358 162.05 38.3176 161.795 38.125 161.025C39.5413 159.43 39.9166 158.794 40.3346 156.712Z" fill="#528F26"/>
<path d="M124.909 163.121L124.972 163.144C125.361 164.01 125.61 164.088 126.528 164.214C125.43 168.88 124.247 172.315 122.008 176.636C116.078 188.079 105.809 196.667 93.4978 200.479C82.1724 204.051 69.0084 202.676 58.579 197.088C48.6526 191.768 40.7281 183.112 36.2921 172.743C35.0231 169.776 34.2507 166.845 33.2969 163.801C33.5225 163.425 33.4969 163.444 33.8773 163.229C34.4013 163.312 34.6014 163.323 35.1201 163.213C35.3202 163.936 35.531 164.613 35.6193 165.358C36.0106 166.614 36.3962 167.881 36.8325 169.123C42.4766 185.166 56.2039 197.152 73.0333 199.958C84.7334 201.908 96.7265 199.081 106.323 192.11C115.481 185.522 123.085 174.331 124.909 163.121Z" fill="#424404"/>
<path d="M19.2148 210.574C19.8413 211.01 20.6666 211.696 21.3788 211.767C21.9263 211.494 21.7462 211.609 22.0561 210.907C26.0671 212.489 23.5494 213.384 24.9061 215.252C24.8539 216.177 23.3839 217.505 23.0766 218.208C21.9023 220.892 21.9044 224.094 23.9663 226.327C25.6027 228.099 27.0121 228.353 29.2217 228.499C28.5302 229.594 28.3857 229.37 27.0992 229.363C22.2767 228.474 19.5851 226.408 19.3075 221.297C19.789 217.699 19.5181 214.154 19.2148 210.574Z" fill="#D46B0C"/>
<path d="M48.7629 214.817C48.2678 214.089 47.9289 213.777 48.0339 212.935C48.3577 212.581 48.1613 212.689 48.6539 212.623C49.0381 212.799 49.3676 212.912 49.676 213.198C50.6784 213.5 51.6742 213.822 52.6625 214.166C52.1241 214.502 51.9957 215.096 51.8974 215.737C51.2899 217.448 50.8247 218.61 50.8523 220.473C50.8673 221.486 50.9617 222.77 50.8306 223.751C50.3086 220.923 49.1848 219.157 47.6719 216.823L48.7629 214.817Z" fill="#D46B0C"/>
<path d="M49.678 213.197C50.6804 213.499 51.6762 213.822 52.6645 214.166C52.126 214.502 51.9977 215.096 51.8994 215.736C51.0956 215.152 50.3421 215.11 49.5976 214.34C49.3991 213.712 49.4454 213.937 49.678 213.197Z" fill="#763801"/>
<path d="M121.139 212.948C122.54 212.648 123.133 212.282 124.426 211.855C124.368 212.976 124.298 214.096 124.219 215.216C124.151 215.809 124.143 216.238 123.908 216.788C123.546 216.43 123.189 216.067 122.836 215.7C122.198 215.594 120.77 215.24 120.272 214.851C119.972 213.77 121.023 213.749 121.139 212.948Z" fill="#D46B0C"/>
<path d="M122.837 215.7C122.659 215.073 122.598 215.227 122.791 214.736C123.309 214.662 123.723 214.964 124.22 215.215C124.152 215.808 124.144 216.237 123.908 216.788C123.547 216.429 123.19 216.066 122.837 215.7Z" fill="#763801"/>
<path d="M125.438 160.834C126.064 160.978 126.824 161.005 127.05 161.675L126.529 164.214C125.61 164.088 125.362 164.011 124.973 163.144C125.01 162.277 125.212 161.667 125.438 160.834Z" fill="#454905"/>
<path d="M124.398 209.732C124.454 210.293 124.585 211.326 124.427 211.855C123.134 212.281 122.542 212.648 121.141 212.948C121.175 211.963 123.597 210.351 124.398 209.732Z" fill="#623101"/>
<path d="M29.4957 222.688C29.2866 221.849 29.1078 221.573 29.6965 220.872L30.0581 220.842C30.6233 221.098 30.6513 221.25 30.9933 221.812C30.2934 222.022 29.8166 221.985 29.4957 222.688Z" fill="#623101"/>
<path d="M56.5666 217.248C68.8531 219.815 78.6206 220.323 90.8921 217.379C91.1103 220.494 91.0674 224.954 93.8205 227.125C99.494 231.603 107.225 230.445 113.927 230.516C115.206 230.531 116.867 229.966 118.171 229.806C124.236 229.293 128.863 226.376 127.39 219.409C140.647 221.518 155.528 227.819 132.71 233.551C120.93 236.221 108.879 237.674 96.7946 238.298C70.6609 239.614 44.4648 239.373 18.6087 235.004C-4.59121 231.083 -7.41356 223.758 17.6298 219.2L17.7851 218.107C18.4172 218.259 18.7208 218.255 19.1215 218.749C19.4529 219.627 19.1205 220.226 19.309 221.296C19.5867 226.407 22.2783 228.473 27.1008 229.362L28.0436 229.562C27.2941 229.642 27.1309 229.622 26.3879 229.538C26.1868 229.943 26.1696 230.42 26.1537 230.873C26.5264 230.936 27.2081 231.004 27.4646 231.273C27.9437 231.364 28.703 231.264 29.2642 231.351C30.8753 231.601 32.3166 231.811 33.94 231.971C36.1141 232.187 37.5442 231.787 39.5603 231.722C43.0684 231.609 45.9463 231.785 49.1805 229.922C51.2313 228.994 53.1264 225.243 52.903 223.043C52.6268 220.325 52.4684 220.442 53.2035 217.537C54.066 217.55 55.8556 217.639 56.5666 217.248Z" fill="#FFDCA8"/>
<path d="M17.7841 218.107C18.4162 218.259 18.7198 218.256 19.1204 218.75C19.4518 219.628 19.1195 220.227 19.308 221.297C19.5857 226.407 22.2773 228.474 27.0997 229.363L28.0426 229.563C27.2931 229.642 27.1299 229.623 26.3869 229.539C26.1858 229.944 26.1685 230.42 26.1527 230.874C26.5254 230.937 27.2071 231.005 27.4636 231.274C27.3197 231.281 27.1756 231.279 27.0319 231.269C24.5247 231.095 21.3506 229.673 19.7445 227.718C17.5935 225.102 17.3502 222.409 17.6288 219.2L17.7841 218.107Z" fill="#482500"/>
<path d="M121.329 133.539C123.013 134.146 127.497 131.686 131.553 134.183C133.177 135.547 134.312 136.333 135.087 138.351L134.769 140.098C137.277 143.515 136.396 143.989 136.26 148.031C136.239 148.703 136.659 149.909 136.546 150.774C136.425 151.708 135.296 153.113 135.292 153.823C137.29 155.056 142.978 151.056 143.74 148.875C143.961 148.244 145.659 144.906 145.803 144.743C144.925 151.855 140.662 159.761 132.628 160.065C129.374 160.769 124.809 159.335 122.691 156.675C123.348 156.427 123.624 155.952 124.076 155.389C123.398 153.881 123.59 153.287 124.038 151.813C124.732 151.55 125.276 151.413 125.813 150.911C125.986 150.411 125.983 150.63 125.72 150.057C124.155 150.173 123.884 150.178 122.562 151.022C122.138 150.877 121.695 150.632 121.289 150.428C120.767 150.838 120.415 151.082 120.239 151.75L120.07 151.776C119.704 152.151 119.164 152.685 118.921 153.132C118.596 152.885 118.136 151.758 117.455 151.048C117.308 149.721 117.187 148.391 117.09 147.06C117.084 146.215 117.148 145.749 117.576 145.031L117.604 144.758L117.939 143.893C117.462 142.104 117.274 141.576 117.749 139.788C117.294 138.401 117.129 137.999 117.471 136.577C117.66 135.833 117.988 135.078 118.272 134.359C118.677 134.739 119.2 135.258 119.62 135.597L120.354 134.574L121 133.786L121.329 133.539Z" fill="#EF811E"/>
<path d="M118.272 134.359C118.677 134.739 119.2 135.258 119.62 135.597L120.355 134.574C120.193 136.782 119.407 137.412 121.265 139.295C121.993 139.497 122.547 139.668 123.3 139.757C124.027 139.728 124.421 139.672 125.124 139.907L125.339 140.136C124.721 141.128 122.332 141.492 120.871 142.69C119.699 143.799 119.473 144.353 119.202 145.978C118.027 145.42 117.958 145.654 117.604 144.758L117.94 143.893C117.462 142.104 117.275 141.576 117.749 139.788C117.294 138.401 117.13 137.999 117.472 136.577C117.661 135.833 117.988 135.078 118.272 134.359Z" fill="#5B3200"/>
<path d="M120.356 134.574C120.194 136.782 119.408 137.412 121.266 139.296C121.994 139.497 122.548 139.669 123.301 139.757C122.475 139.911 121.586 140.369 120.811 140.726C119.613 139.72 119.507 139.607 119.156 138.098C119.187 137.012 119.269 136.608 119.621 135.598L120.356 134.574Z" fill="#D46B0C"/>
<path d="M117.748 139.787C118.347 140.733 118.567 141.072 119.325 141.877C118.733 142.523 118.308 143.083 117.939 143.892C117.461 142.103 117.274 141.576 117.748 139.787Z" fill="#528F26"/>
<path d="M117.604 144.758C117.957 145.654 118.026 145.42 119.202 145.978C119.194 148.064 119.539 149.179 121.289 150.428C120.767 150.838 120.415 151.082 120.239 151.75L120.07 151.776C119.704 152.151 119.164 152.685 118.921 153.132C118.596 152.885 118.136 151.758 117.455 151.048C117.308 149.721 117.187 148.391 117.09 147.06C117.084 146.215 117.148 145.749 117.576 145.031L117.604 144.758Z" fill="#623101"/>
<path d="M117.09 147.058C117.084 146.214 117.148 145.748 117.576 145.029C117.578 147.605 117.521 149.247 119.461 151.194C119.66 151.392 119.863 151.586 120.07 151.775C119.704 152.149 119.164 152.684 118.921 153.131C118.596 152.884 118.136 151.757 117.455 151.047C117.308 149.72 117.187 148.39 117.09 147.058Z" fill="#528F26"/>
<path d="M124.076 155.389C126.089 158.517 129.164 158.435 132.428 158.251C131.692 158.951 131.216 159.424 130.388 160.005L132.628 160.065C129.374 160.769 124.809 159.335 122.691 156.675C123.348 156.427 123.624 155.952 124.076 155.389Z" fill="#D46B0C"/>
<path d="M120.872 142.689C120.02 147.001 120.404 149.99 125.721 150.056C124.157 150.173 123.886 150.178 122.564 151.022C122.139 150.876 121.697 150.631 121.29 150.428C119.541 149.178 119.195 148.063 119.203 145.977C119.474 144.352 119.7 143.798 120.872 142.689Z" fill="#D46B0C"/>
<path d="M100.945 18.9509C103.445 14.5337 107.322 10.4802 112.904 11.7943C114.39 12.0629 115.553 12.4343 116.75 13.4167C119.075 15.1171 120.62 17.6787 121.041 20.5281C121.82 25.4884 120.077 29.5963 116.284 32.7925C115.832 33.0044 115.178 33.264 114.828 33.5887L113.751 32.1153C113.039 31.3208 112.347 30.5073 111.678 29.6755C109.822 27.6807 108.098 26.2123 106.056 24.4313C106.107 23.8931 106.259 23.471 106.413 22.9548C105.636 22.13 104.176 21.1486 103.213 20.5326C102.338 19.819 101.918 19.5323 100.945 18.9509Z" fill="#FE942B"/>
<path d="M106.416 22.9555C107.993 19.8372 110.576 17.0191 114.309 18.9315C115.36 19.7691 115.505 20.0191 115.959 21.2956C116.417 24.6779 116.006 26.8143 113.148 28.9484C113.941 29.7839 114.336 30.3167 115.018 31.2561C114.215 31.4874 114.248 31.5058 113.754 32.116C113.041 31.3215 112.35 30.508 111.68 29.6762C109.824 27.6814 108.1 26.213 106.059 24.4319C106.109 23.8938 106.262 23.4717 106.416 22.9555Z" fill="#B25606"/>
<path d="M106.416 22.9555C107.993 19.8372 110.576 17.0191 114.309 18.9315C113.962 19.4819 113.81 19.7631 113.329 20.2224C112.508 19.9531 111.896 19.8017 111.067 20.2272C109.945 20.8035 107.989 22.4399 108.169 23.8229C108.643 24.5136 112.253 27.8506 113.231 28.9292L111.68 29.6762C109.824 27.6814 108.1 26.213 106.059 24.4319C106.109 23.8938 106.262 23.4717 106.416 22.9555Z" fill="#623101"/>
<path d="M114.308 18.9316C115.359 19.7692 115.504 20.0193 115.958 21.2957C114.891 21.4817 114.339 20.874 113.328 20.2225C113.809 19.7633 113.961 19.4821 114.308 18.9316Z" fill="#623101"/>
<path d="M115.018 31.2559C115.429 31.7483 115.901 32.2904 116.287 32.7929C115.835 33.0048 115.181 33.2644 114.831 33.5891L113.754 32.1157C114.248 31.5056 114.216 31.4872 115.018 31.2559Z" fill="#763801"/>
<path d="M112.906 11.7949C114.393 12.0635 115.555 12.4349 116.753 13.4173C115.757 14.0157 113.319 12.9216 112.906 11.7949Z" fill="#FDC582"/>
<path d="M92.5625 216.976C95.8497 216.144 98.5743 215.002 101.633 213.549C101.286 214.13 100.962 214.488 101.039 215.131C101.272 215.576 101.415 215.825 101.699 216.24C100.282 217.87 98.03 219.195 98.3464 221.216C98.6637 223.242 99.3899 225.106 100.995 226.483C101.867 227.232 103.797 228.028 104.236 228.531C101.541 228.512 98.5283 227.892 96.2065 226.477C92.092 223.971 93.5586 221.034 92.5625 216.976Z" fill="#D46B0C"/>
<path d="M16.8047 17.897C21.2207 14.8806 26.1968 15.2094 30.2032 18.7822C30.0802 18.8472 29.9562 18.9102 29.831 18.9707C27.939 19.8922 24.8075 17.3176 22.0812 17.5861C20.7008 17.722 17.9278 18.2982 16.8047 17.897Z" fill="#FDC582"/>
<path d="M74.8125 9.56428C75.9702 7.64069 78.9982 3.94991 81.4241 5.97697C80.885 6.46832 79.9454 6.80455 79.2426 7.17307C77.8039 7.92736 76.4704 9.66307 74.8125 9.56428Z" fill="#FDC582"/>
<path d="M67.0664 2.0591C69.5688 1.41279 71.0127 4.23144 71.7037 6.20539L71.2072 6.14422C70.0907 5.34634 67.5671 3.39724 67.0664 2.0591Z" fill="#FDC582"/>
<path d="M121.29 150.428C121.697 150.631 122.139 150.876 122.563 151.022C122.155 151.708 121.135 153.241 120.948 153.903L120.951 153.805C120.789 154.077 120.631 154.35 120.475 154.625L120.405 155.144C120.275 154.042 120.417 154.09 119.429 153.901L118.922 153.131C119.166 152.684 119.705 152.15 120.071 151.776L120.241 151.75C120.417 151.081 120.768 150.838 121.29 150.428Z" fill="#482500"/>
<path d="M120.071 151.776L120.241 151.75L120.785 152.053C120.993 152.82 120.447 153.405 120.475 154.625L120.405 155.145C120.275 154.042 120.417 154.091 119.429 153.902L118.922 153.132C119.166 152.685 119.705 152.15 120.071 151.776Z" fill="#468322"/>
<path d="M122.692 156.674C121.572 154.511 121.919 152.978 124.038 151.812C123.591 153.286 123.399 153.88 124.077 155.388C123.625 155.951 123.349 156.426 122.692 156.674Z" fill="#D46B0C"/>
<path d="M56.5391 7.23936C58.0004 5.38727 60.8182 6.64131 62.3665 7.75783C62.2419 7.88131 61.8692 8.21173 61.6903 8.17896C59.8762 7.84612 58.4057 7.38059 56.5391 7.23936Z" fill="#FDC582"/>
<path d="M31.4958 226.875C31.6734 227.75 32.6193 229.03 33.1381 229.881C32.1756 229.81 31.6529 229.693 30.7031 229.479C31.1588 228.387 31.2587 228.04 31.4958 226.875Z" fill="#D46B0C"/>
<path d="M53.2031 217.537C53.365 216.854 53.2367 216.887 53.6662 216.538C54.5234 216.48 55.6434 216.974 56.5662 217.248C55.8552 217.639 54.0656 217.55 53.2031 217.537Z" fill="#EFEEEE"/>
</svg>
