<svg width="185" height="278" viewBox="0 0 185 278" fill="none" xmlns="http://www.w3.org/2000/svg">
<path d="M64.3164 0.00168559C70.3637 -0.0900994 74.616 3.57372 76.2743 9.24115C93.7684 7.85612 114.48 10.4094 129.376 20.2683C133.837 14.7405 141.946 10.4197 149.119 12.832C164.53 18.0155 163.446 38.34 149.697 45.3099C150.475 47.0948 151.463 48.8165 152.189 50.635C157.233 62.6659 158.668 75.3934 160.827 88.12C161.467 91.8981 162.031 94.9409 163.074 98.6363C165.527 107.342 169.539 115.158 172.778 123.548C178.113 137.149 181.735 151.359 183.566 165.854C187.606 196.197 183.915 230.004 162.041 253.294C154.026 261.827 145.934 264.476 135.324 268.193C126.474 271.294 117.693 279.048 107.502 276.659C106.069 276.324 104.373 276.422 102.913 276.489C102.438 276.484 100.399 276.334 100.074 276.147C98.0848 274.997 95.0163 274.347 93.1082 273.365C92.3722 272.995 91.702 272.506 91.1226 271.919C89.489 270.233 88.8053 267.905 88.7952 265.603C81.6427 265.975 74.4184 265.495 67.2858 264.81C64.1564 264.508 59.872 263.528 56.9561 263.511C55.1658 263.501 50.4732 265.347 48.5997 265.938C42.8761 267.71 36.6724 270.804 30.5525 270.231C27.8503 269.98 25.0556 269.099 22.2378 269.276C21.3864 269.328 15.0182 266.474 14.1033 265.846C13.2216 265.239 12.4634 264.473 11.8696 263.582C8.16486 257.94 14.3355 249.926 19.0676 247.148C20.5358 246.286 22.0348 245.488 23.4987 244.602C20.9657 242.323 18.2425 239.268 16.3559 236.427C12.5414 230.698 9.71021 224.372 7.9791 217.712C5.22791 207.016 5.35371 192.561 7.49945 181.782C2.4853 176.72 0.564723 171.048 0.0879464 164.059C-0.909731 149.435 6.79599 137 12.2975 124.061C14.2048 119.575 15.667 115.324 17.0907 110.68C9.45691 105.706 4.51703 98.0274 2.03092 89.3659C-1.68679 76.4131 1.75052 60.972 7.95501 49.3759C14.9649 36.2746 26.9914 26.4725 40.0435 19.871C42.8917 18.4306 48.0181 15.9143 51.0705 15.029C51.3413 7.1498 56.1185 0.62936 64.3164 0.00168559Z" fill="#6C3705"/>
<path d="M22.4961 35.6215C39.9597 19.4508 64.8571 11.0684 88.556 11.7862C100.544 12.1493 118.244 15.9984 128.086 22.9107C127.629 23.841 127.144 24.7215 127.436 25.7943L127.714 25.9748C128.797 25.72 129.165 24.7661 129.814 23.8951C134.792 17.2071 143.804 11.9458 151.731 17.284C158.26 21.6808 158.732 31.0385 154.577 37.245C152.738 39.9938 150.219 41.8758 147.347 43.423C146.517 43.8661 145.468 44.2077 144.786 44.7633C144.983 45.555 146.379 45.6159 146.471 45.7786C155.451 61.8051 155.503 80.5154 159.619 97.9706C161.243 104.86 164.586 111.773 167.309 118.339C169.28 123.095 171.12 127.903 172.83 132.758C174.679 137.927 176.434 144.996 177.656 150.329C182.512 171.501 183.734 193.051 178.862 214.358C178.177 217.351 176.7 221.775 175.75 224.785C170.187 239.246 160.856 254.535 146.057 261.002C142.494 262.523 138.849 263.848 135.141 264.973C134.723 265.042 134.615 265.042 134.192 265.059C133.426 264.677 130.361 260.023 129.378 258.747C125.93 254.663 114.793 249.903 109.523 250.444C108.329 249.888 107.363 249.991 106.049 249.986C104.73 247.766 103.637 246.368 102.541 243.883C97.9939 233.566 100.018 224.015 105.852 214.798C106.313 214.069 108.238 211.652 108.183 211.003L107.929 210.939C107.086 211.219 106.298 211.984 105.668 212.62C99.9357 218.414 96.8385 227.417 97.5021 235.511C97.6756 237.631 98.3475 240.056 98.873 242.099C99.6948 244.86 101.103 248 102.923 250.239C96.7122 253.312 92.2089 255.623 89.6288 262.538C79.0169 262.792 68.6809 262.516 58.2099 260.48C57.3791 260.473 55.733 260.519 54.9679 260.807C54.9071 260.626 54.2675 259.688 54.0999 259.358C51.8712 258.587 41.9015 254.749 41.0272 253.039L42.0253 252.741C41.1645 251.82 36.0486 249.74 34.6799 248.982C11.4203 236.099 5.91639 208.609 10.0974 184.138C13.5788 186.462 15.7663 187.646 19.9211 188.664C24.8323 189.873 28.3515 189.265 32.9369 187.638C36.6652 186.314 36.4983 184.913 38.9083 183.687C39.3007 182.862 41.4537 179.455 42.0461 178.773C43.0684 173.781 43.4906 172.164 42.84 167.061C42.5389 166.657 40.1443 161.296 39.4992 160.102C39.2624 159.823 39.0186 159.548 38.768 159.279C34.1725 154.365 29.7665 153.578 23.3517 153.376C22.0673 153.358 20.0071 153.48 18.9392 152.815C16.4058 150.228 15.9538 148.819 16.8957 145.311C15.6548 144.337 15.3234 143.499 14.6092 142.114C13.6305 138.821 14.6088 134.703 17.8304 133.074C18.1386 132.579 18.1915 132.134 18.2757 131.561C18.6154 129.244 20.0747 129.369 21.71 128.27C21.7116 125.894 21.7982 125.03 23.2791 123.247C23.0217 122.768 22.5414 122.559 22.0249 122.363C20.2404 121.689 18.7643 120.143 17.3075 119.323C18.2122 117.645 19.0826 114.191 19.6147 112.249C21.4248 113.093 23.334 113.694 25.2288 114.307C26.146 114.603 27.0008 114.729 27.8442 115.159C28.7513 114.662 29.175 114.076 30.1934 113.737C29.833 113.7 29.7616 113.683 29.4251 113.559C18.2556 109.449 11.7606 104.378 6.67441 93.6198C7.98281 94.4277 8.57562 94.5319 10.041 94.8955C12.4264 94.9776 13.2516 94.6727 15.3468 93.719C15.7906 93.0374 16.9041 91.7231 17.4535 91.0375C18.3914 92.6311 18.9495 93.5775 20.2709 94.9676C25.1291 100.078 34.7687 100.751 39.7449 95.4811C40.6177 94.557 41.76 93.6594 41.7627 92.3368C41.4597 91.7524 41.68 91.949 41.1086 91.6952C39.6779 91.757 38.4148 93.6244 37.3223 94.4865C31.1268 99.3758 21.908 95.9458 19.1011 88.8571C15.6527 80.1481 17.4441 70.4388 19.9396 61.7012C20.8945 59.0731 22.2888 56.6062 23.4237 54.0672C24.2414 52.2378 23.5782 50.9236 22.8313 49.3212C21.3332 46.107 18.9985 47.9582 18.5965 50.5553C18.2944 52.5076 18.803 54.0748 19.8574 55.5984L19.9854 55.7802C16.0841 64.1772 14.1028 73.6954 15.2158 82.9202C15.4298 84.6931 15.7032 86.8676 16.281 88.5412C15.0358 90.8637 13.4928 92.8875 10.5462 92.5051C8.86849 92.2875 7.0988 91.303 6.13262 89.8484C2.54257 84.4445 3.33646 76.5667 4.00372 70.3793C5.50192 59.6777 10.8689 48.1335 18.0647 40.1119C19.314 38.7193 21.0137 36.7424 22.4961 35.6215Z" fill="#FF9A43"/>
<path d="M54.3372 103.654C54.7309 102.518 55.0211 101.845 55.9726 101.079C60.2224 97.6544 64.1786 97.7192 68.1997 101.215C73.0573 99.3826 72.9776 102.795 73.912 102.791C78.7545 102.771 79.7017 101.871 83.5487 107.487C83.579 108.259 83.6329 109.108 83.6329 109.874C86.2399 110.602 85.0004 111.962 87.7473 110.534C90.7416 108.977 93.4261 111.24 95.5835 113.238C96.9695 113.202 97.6567 113.207 99.0141 113.707C101.71 114.702 104.181 117.716 104.203 120.685C104.205 120.997 104.193 121.308 104.173 121.619C104.856 121.833 105.491 121.951 106.013 122.417C106.306 123.266 105.943 123.269 106.508 124.069C108.93 124.981 110.129 125.451 111.367 128.133C112.093 129.718 112.366 131.474 112.155 133.205C114.532 135.622 116.354 140.11 116.467 143.571C116.521 145.275 115.657 149.659 116.478 150.628C113.479 153.054 110.887 154.737 107.219 156.007C106.667 156.722 103.839 157.196 102.884 157.327C94.8475 158.262 86.5414 157.994 80.9804 164.995C80.0493 166.167 79.4868 167.076 79.0388 168.496C78.6504 169.377 78.283 170.244 77.8257 171.093L77.4427 172.646C77.4032 172.993 77.3227 173.87 77.2412 174.16C77.2823 176.061 77.4003 177.217 78.4893 178.843C71.6849 181.139 67.1596 184.517 63.6076 190.929C63.6459 192.914 62.5156 193.423 62.5414 195.025L62.5428 195.22C60.9412 196.358 60.4905 198.888 59.8138 200.685C59.0088 202.822 58.334 204.995 57.3742 207.081L57.0557 206.556C56.0956 204.936 53.5697 203.846 52.0476 202.312C52.004 202 52.0763 202.01 52.2236 201.631L52.0535 201.384C51.9671 201.601 51.7637 202.059 51.4962 202.027C49.45 201.781 47.4772 200.333 45.5546 199.767C42.9293 198.996 39.4157 198.376 36.6783 198.797C36.3172 198.868 36.4374 198.908 35.8795 198.96L35.6676 198.679C36.2217 196.995 36.9263 195.461 37.4939 193.689C36.8905 193.297 36.3354 192.904 35.7493 192.485C36.72 189.913 38.1074 186.245 38.9163 183.68C39.3087 182.855 41.4617 179.448 42.0542 178.766C43.0764 173.774 43.4986 172.157 42.8481 167.055C42.5469 166.65 40.1523 161.29 39.5073 160.096C39.2705 159.816 39.0266 159.542 38.776 159.272C34.1805 154.358 29.7745 153.571 23.3597 153.369C22.0754 153.351 20.0152 153.474 18.9473 152.809C16.4138 150.222 15.9618 148.812 16.9037 145.304C15.6629 144.331 15.3315 143.492 14.6172 142.108C13.6386 138.815 14.6169 134.697 17.8384 133.068C18.1466 132.572 18.1995 132.128 18.2837 131.554C18.6234 129.237 20.0827 129.362 21.718 128.263C21.7197 125.887 21.8062 125.023 23.2871 123.24C23.0298 122.761 22.5495 122.552 22.0329 122.357C20.2484 121.682 18.7723 120.137 17.3155 119.317C18.2202 117.638 19.0906 114.184 19.6228 112.242C21.4329 113.086 23.342 113.687 25.2368 114.3C26.154 114.597 27.0089 114.723 27.8523 115.152C28.7593 114.655 29.1831 114.07 30.2015 113.73C31.4661 113.424 32.2438 113.478 33.4956 113.582L33.6516 113.343C35.8551 109.914 38.9498 109.581 42.5995 110.506C43.4084 107.477 43.7317 107.397 45.7148 105.061C47.2415 103.873 48.5595 103.362 50.4346 103.065C51.8122 103.043 53.0008 103.324 54.3372 103.654Z" fill="#355F18"/>
<path d="M34.397 116.276C36.6639 111.813 41.6563 110.298 44.2694 115.251C45.5776 114.464 46.6314 113.7 48.2318 114.064C49.9995 114.467 50.4264 116.411 50.2511 117.94C55.3728 118.38 53.0562 118.987 54.9225 122.154L54.9431 122.19C53.2183 123.826 51.5847 124.838 51.5327 127.358C51.526 127.826 51.5286 128.295 51.5408 128.763C48.0031 130.384 45.1744 132.837 46.6871 137.278C46.8614 137.79 47.4694 138.421 47.3677 138.942C46.7954 139.953 46.0012 141.422 46.3365 142.661C46.7344 144.133 48.3441 145.846 48.1759 147.425C47.1039 148.81 45.3809 147.601 44.4327 146.698C43.6612 148.645 43.472 148.865 41.9279 150.292C41.3754 150.415 40.789 150.533 40.2428 150.667C38.3347 150.102 37.3857 149.83 36.1485 148.133L35.9776 148.077C35.5163 148.854 35.0687 149.856 34.1899 150.086C32.8562 149.63 32.1713 147.075 31.6266 145.79C30.8336 145.925 30.7531 147.114 30.6268 147.818C29.3733 148.271 28.4285 147.053 28.223 146.006C28.0602 145.174 27.1346 144.763 26.3845 144.409C26.0278 143.581 26.4338 143.03 26.7974 142.242C26.1305 141.942 24.6222 141.387 24.328 140.814C24.1882 139.49 25.1859 137.928 24.9594 136.852C24.2795 136.394 23.7404 136.93 23.1147 137.343C22.6284 138.37 22.5164 138.667 22.2181 139.762L22.7574 141.445C23.0932 142.493 24.4309 142.804 25.387 143.493C25.3016 145.349 25.3167 145.59 26.6576 147.242C27.1861 147.892 28.0831 148.635 28.7884 149.096C31.888 149.3 31.4148 150.361 33.8234 151.984C34.1249 152.188 35.5934 151.442 35.9018 152.198C37.1964 154.142 39.3474 157.815 39.4969 160.099C39.2601 159.819 39.0163 159.544 38.7657 159.275C34.1702 154.361 29.7642 153.574 23.3493 153.372C23.1723 152.692 23.2794 152.608 22.6799 152.264C21.2944 151.474 19.2372 150.79 18.8098 149.041C18.4667 147.636 19.0969 146.269 19.8383 145.115L19.9856 144.889C18.3316 143.882 16.8397 142.474 16.401 140.504C16.1197 139.242 16.3509 137.921 17.0436 136.83C17.4039 136.259 19.399 134.484 19.6971 134.175C19.6013 134.274 19.7837 131.925 19.7987 131.776C20.7443 131.099 21.1192 130.891 22.157 130.372C23.1807 130.478 24.2187 130.572 25.2361 130.721C24.053 129.215 23.6956 128.242 23.9502 126.236C23.9767 126.033 24.0085 125.831 24.0454 125.63C24.8391 124.532 25.6842 123.636 27.0965 123.474C27.4258 122.574 26.7166 121.492 26.8289 120.644C27.2816 117.231 30.8976 114.834 34.0004 116.105C34.1333 116.16 34.2657 116.217 34.397 116.276Z" fill="#4C791E"/>
<path d="M42.9814 123.536C42.0583 123.574 40.0168 123.66 39.2148 123.944C39.0755 124.457 39.0868 124.827 39.0661 125.352C38.2254 126.868 37.307 125.948 36.4567 126.155C35.9424 127.156 35.3167 128.29 34.0501 127.169C33.9337 125.822 35.3681 125.193 35.8277 123.908C33.9907 123.286 34.4757 123.139 33.6139 121.384C33.1949 120.532 33.2518 120.276 33.6031 119.434C34.2487 118.894 34.653 119 35.5306 118.974C36.2609 118.425 35.4031 118.601 35.9272 117.673C37.2762 117.454 36.5593 119.352 38.2254 120.094C38.9113 119.925 38.7156 119.957 39.3015 119.414C40.4788 118.245 42.0736 120.109 42.6848 121.043C42.7165 121.785 42.8808 122.779 42.9814 123.536Z" fill="#6A9323"/>
<path d="M39.2998 119.423C40.477 118.255 42.0719 120.119 42.683 121.053C41.7862 120.755 40.6717 120.611 40.2427 120.029L40.3527 119.562C39.8946 119.302 39.913 119.401 39.2998 119.423Z" fill="#638C21"/>
<path d="M37.2807 127.777C40.2735 128.705 38.2972 130.934 37.4028 131.053L37.1062 130.825C37.471 130.413 37.814 130.189 38.2519 129.862C37.6547 130.222 36.5678 130.875 35.9709 131.237C35.7117 131.394 35.9709 132.16 35.131 132.419C34.4151 132.091 34.0449 131.716 33.4478 131.21C34.0264 130.621 35.6194 129.354 35.8492 129.007C36.3184 128.301 36.5191 128.055 37.2807 127.777Z" fill="#638C21"/>
<path d="M35.8428 129.007C36.312 128.301 36.5127 128.055 37.2743 127.777C37.6751 128.061 38.0801 128.339 38.4892 128.61C38.5879 129.432 37.5074 130.054 36.799 130.243C36.1363 130.116 36.3933 130.275 35.9763 129.794L35.8428 129.007Z" fill="#6A9323"/>
<path d="M41.2731 125.593C42.2295 125.465 42.2797 125.362 42.8742 126.123C43.1794 127.292 42.563 127.883 41.6002 128.37C40.7387 128.024 40.198 127.984 40.0171 127.044C40.2546 126.374 40.7244 126.074 41.2731 125.593Z" fill="#6A9323"/>
<path d="M43.9409 117.838C44.7289 117.945 44.8817 117.912 45.4124 118.375C45.702 119.544 44.7931 119.909 43.8822 120.302C43.5398 120.243 43.1792 120.164 42.8365 120.096C42.3659 119.653 42.5018 119.915 42.3984 119.292C42.7076 118.468 43.1688 118.205 43.9409 117.838Z" fill="#638C21"/>
<path d="M40.029 115.964C40.7783 116.032 41.0104 116.234 41.2347 116.917C41.0333 117.918 40.7786 118.174 39.9282 118.746L39.3064 118.652C38.7638 118.265 38.5977 117.66 38.3325 117.033C38.8515 116.643 39.4672 116.299 40.029 115.964Z" fill="#6A9323"/>
<path d="M43.6751 124.962C45.1244 125.046 46.4584 125.664 46.3414 127.327C45.2622 127.441 44.6557 127.675 43.8428 127.047C43.5319 126.359 43.6436 125.735 43.6751 124.962Z" fill="#638C21"/>
<path d="M31.3666 119.631C32.1551 119.899 32.6135 119.971 32.8804 120.837C32.7822 121.491 32.7853 121.455 32.3356 121.953C31.794 122.055 31.7657 122.086 31.2003 122.015C30.3231 121.253 30.8406 120.495 31.3666 119.631Z" fill="#6A9323"/>
<path d="M44.7988 121.033C45.683 121.027 46.5012 121.085 46.7068 122.091C46.3971 122.66 46.4933 122.483 45.8223 122.843C44.9695 122.893 44.2008 122.708 43.9883 121.795C44.2988 121.227 44.1836 121.41 44.7988 121.033Z" fill="#6A9323"/>
<path d="M29.5317 127.622C30.3829 127.718 30.826 127.611 31.2305 128.403C31.1379 129.016 30.9715 129.152 30.5991 129.643C29.7666 129.628 29.3227 129.716 28.8948 128.955C28.9194 128.357 29.1787 128.114 29.5317 127.622Z" fill="#638C21"/>
<path d="M31.9961 123.874C32.1795 123.899 32.3627 123.927 32.5456 123.956C33.1899 124.065 33.2472 124.038 33.5512 124.457C33.4395 125.035 33.1689 125.236 32.7694 125.674C32.0483 125.502 31.3845 125.492 31.0868 124.781C31.2581 124.308 31.5742 124.168 31.9961 123.874Z" fill="#6A9323"/>
<path d="M30.2015 125.477C30.8223 125.541 31.0503 125.583 31.4178 126.05C31.3925 126.616 31.0689 126.872 30.6913 127.321L30.3854 127.455C29.5637 126.843 29.783 126.178 30.2015 125.477Z" fill="#6A9323"/>
<path d="M41.709 134.408C42.3366 134.505 42.5281 134.497 43.0879 134.821C43.3831 135.424 43.2963 135.219 43.1619 136.013L42.8769 135.983C42.2765 135.925 42.1714 135.984 41.6893 135.592C41.485 134.905 41.5252 135.165 41.709 134.408Z" fill="#46721D"/>
<path d="M39.6359 134.225L40.0248 134.546C40.1422 135.218 39.869 136.03 39.7019 136.717C39.0561 135.989 39.3469 135.028 39.6359 134.225Z" fill="#46721D"/>
<path d="M42.8987 152C44.1062 151.183 44.7566 151.026 45.1265 149.729C45.7178 149.628 45.4121 149.633 46.0851 149.915C46.5176 150.491 48.2167 157.586 48.5316 158.837C49.3595 162.13 49.7934 165.131 51.2151 168.347C51.879 168.29 52.2606 167.792 52.7362 167.327C53.9958 165.442 54.5502 162.749 55.1263 160.521C57.632 160.9 58.1022 164.6 62.9821 164.637C61.7815 168.656 60.1654 173.307 60.3279 177.462L60.5105 177.443L60.5761 177.479C60.3436 178.114 59.9897 179.186 59.7201 179.766C58.6605 181.101 57.7015 184.648 57.1109 186.361L53.9614 195.502C53.4508 197.028 52.2828 199.937 52.046 201.38C51.9597 201.597 51.7562 202.055 51.4888 202.023C49.4426 201.777 47.4698 200.329 45.5472 199.763C42.9218 198.992 39.4082 198.372 36.6708 198.793C36.3097 198.864 36.43 198.904 35.872 198.956L35.6602 198.675C36.2142 196.991 36.9189 195.457 37.4864 193.685C36.883 193.293 36.3279 192.9 35.7418 192.481C36.7126 189.909 38.1 186.241 38.9088 183.676C39.3012 182.851 41.4542 179.444 42.0467 178.762C43.069 173.77 43.4912 172.154 42.8406 167.051C42.9423 161.8 40.5532 156.668 38.3362 152.04C39.9148 152.39 40.5524 152.542 42.1922 152.251L42.8987 152Z" fill="#9FB832"/>
<path d="M42.0461 178.754C42.0222 182.251 39.0022 190.324 37.4859 193.677C36.8824 193.285 36.3273 192.893 35.7413 192.473C36.712 189.902 38.0994 186.234 38.9083 183.669C39.3007 182.843 41.4537 179.436 42.0461 178.754Z" fill="#46721D"/>
<path d="M51.2243 168.348C51.8882 168.29 52.2699 167.792 52.7455 167.327C53.1094 170.409 49.9503 175.101 49.2224 178.023C49.0053 178.894 48.7869 179.699 48.4061 180.517C49.0454 177.319 49.6066 171.095 51.1297 168.592C51.1752 168.518 51.1929 168.429 51.2243 168.348Z" fill="#83A127"/>
<path d="M42.2022 152.248L42.9087 151.998C43.2856 153.515 43.4097 154.062 43.5408 155.586C43.2135 154.845 42.4708 152.503 42.2022 152.248Z" fill="#46721D"/>
<path d="M53.7206 174.856C54.1231 175.264 54.5037 175.712 54.8823 176.145C54.188 178.996 53.5104 180.047 52.3982 182.674C52.0082 183.595 51.4686 185.497 51.102 186.565L50.7488 186.686L50.3611 186.49C50.235 185.965 51.0339 184.459 51.3305 183.68C52.3262 181.066 52.3944 177.181 53.7206 174.856Z" fill="#83A127"/>
<path d="M47.6414 183.124C48.8167 184.315 43.9723 193.645 43.3133 195.386L43.2207 195.634L43.1362 195.544C43.1006 193.377 46.3395 184.67 47.6414 183.124Z" fill="#83A127"/>
<path d="M57.5204 163.031C58.6215 163.986 55.0361 171.354 54.3283 172.491C54.2643 172.405 54.2003 172.319 54.1363 172.232C54.912 169.569 56.5333 165.85 57.5204 163.031Z" fill="#83A127"/>
<path d="M46.4884 168.201C46.9761 168.224 46.9519 168.199 47.3496 168.474C47.643 169.09 47.4541 169.945 47.3776 170.661C46.8202 170.658 47.0519 170.756 46.6571 170.37C46.3729 169.674 46.4702 168.97 46.4884 168.201Z" fill="#83A127"/>
<path d="M63.6701 173.268C65.5355 169.053 69.9691 167.34 73.1932 164.312C73.4162 164.103 73.2709 164.201 73.5912 164.06C73.6978 164.395 73.8052 164.866 73.7621 165.201C73.6318 166.212 75.0941 167.655 75.8617 168.576C73.478 170.202 68.5454 174.819 67.2994 177.272C67.4588 177.516 67.6513 177.841 67.8348 178.056L69.4708 177.214C71.5194 175.55 74.685 174.631 77.2385 174.149C77.2796 176.051 77.3976 177.206 78.4866 178.833C71.6822 181.128 67.157 184.507 63.605 190.918C63.6432 192.904 62.513 193.412 62.5387 195.014L62.5401 195.209C60.9385 196.348 60.4878 198.877 59.8111 200.674C59.0061 202.811 58.3313 204.984 57.3715 207.071L57.053 206.545C56.0929 204.925 53.5671 203.835 52.0449 202.301C52.0013 201.99 52.0736 202 52.2209 201.621L52.0508 201.373C52.2876 199.93 53.4556 197.021 53.9662 195.496L57.1157 186.354C57.7063 184.641 58.6653 181.095 59.7249 179.759C59.9945 179.18 60.3484 178.107 60.5809 177.472C61.5335 176.035 61.5517 173.433 62.8099 172.251C63.108 172.906 63.0723 172.891 63.6701 173.268Z" fill="#8FAA2B"/>
<path d="M69.4783 177.219C71.5269 175.555 74.6926 174.635 77.246 174.154C77.2871 176.055 77.4052 177.21 78.4941 178.837C71.6898 181.133 67.1645 184.511 63.6125 190.923C63.6508 192.908 62.5205 193.417 62.5463 195.018L62.5476 195.214C60.946 196.352 60.4954 198.882 59.8187 200.679C59.0137 202.816 58.3388 204.988 57.3791 207.075L57.0606 206.55C56.1005 204.93 53.5746 203.84 52.0525 202.306C53.8749 201.4 53.7755 198.535 54.5676 197.179C54.8508 197.511 53.4 200.554 53.484 202.104C53.8895 202.701 53.6526 202.6 54.1634 202.771C54.8065 202.388 57.3743 195.675 57.8963 194.5C59.9874 189.74 63.23 185.577 67.3316 182.386C68.881 181.204 70.6867 180.245 72.2314 179.028C72.8616 178.533 73.3525 177.908 74.1077 177.707C72.7514 177.674 71.4882 177.894 70.6175 177.013L70.8056 176.993L70.9533 177.231L71.0095 176.988L70.6038 176.875C70.2662 177.02 70.1405 177.062 69.7917 177.145L69.4783 177.219Z" fill="#83A127"/>
<path d="M60.5737 177.481C61.5263 176.044 61.5445 173.442 62.8027 172.26C63.1008 172.915 63.0651 172.9 63.6629 173.277C63.1687 174.542 61.114 180.04 60.2676 180.51C59.7625 180.264 59.9872 180.451 59.7177 179.768C59.9873 179.188 60.3412 178.115 60.5737 177.481Z" fill="#6A9323"/>
<path d="M67.3102 177.28C67.4695 177.524 67.662 177.849 67.8456 178.065L65.5359 179.484L67.3102 177.28Z" fill="#46721D"/>
<path d="M93.0926 150.591L93.2121 150.437C93.7426 149.765 93.9885 149.416 94.8659 149.312C96.4338 150.1 95.2146 151.484 97.7256 150.782C99.0796 151.368 98.0978 151.94 98.7478 152.644C99.1066 152.599 99.7701 152.489 100.085 152.619C101.49 153.198 102.47 156.003 102.879 157.331C94.8424 158.266 86.5362 157.998 80.9752 164.999C80.0441 166.171 79.4816 167.081 79.0336 168.5C77.7956 167.926 77.5518 167.3 76.5862 166.815C76.9052 166.23 77.0371 164.757 76.7644 164.128C75.8254 163.697 74.7261 162.684 74.6896 161.601C75.3804 159.987 77.1885 160.14 78.0543 158.852C79.2168 157.121 80.2268 158.995 82.0346 158.35C82.6813 158.424 84.3452 156.1 84.6113 156.152C87.6596 156.754 89.566 153.801 90.3861 151.272C91.496 151.092 92.0383 150.955 93.0926 150.591Z" fill="#46721D"/>
<path d="M92.2726 153.418C93.6889 154.12 95.2619 153.519 96.2993 154.748C96.4088 155.404 96.429 155.075 96.1225 155.757C95.88 155.308 95.912 155.249 95.4809 155.008C94.339 154.88 94.1487 155.346 93.1433 155.356C92.6717 154.956 92.6785 154.349 92.3349 153.559L92.2726 153.418Z" fill="#638C21"/>
<path d="M81.6996 160.021C82.2268 160.344 82.3598 160.399 82.7876 160.871C82.9139 161.528 82.887 161.304 82.5097 162.04C81.3527 162.18 81.5464 160.723 81.6996 160.021Z" fill="#507D1E"/>
<path d="M55.1173 160.529C55.3624 159.395 56.1066 154.151 56.7499 153.666C57.0911 153.408 57.2939 153.42 57.6667 153.511C59.1806 155.586 57.7664 155.441 60.3883 157.401C60.2733 159.114 60.0112 160.45 59.7035 162.127C60.5094 160.739 61.0747 159.527 61.5461 157.976C63.7552 158.387 65.019 158.494 67.2506 157.76C67.4114 157.708 68.7242 158.678 68.914 158.814C66.4176 161.267 65.2996 165.091 64.0267 168.34C63.6304 169.352 63.2784 171.348 62.7961 172.266C61.5379 173.448 61.5197 176.05 60.5671 177.486L60.5015 177.451L60.3189 177.47C60.1564 173.315 61.7725 168.663 62.9731 164.645C58.0932 164.608 57.623 160.908 55.1173 160.529Z" fill="#83A127"/>
<path d="M112.147 133.204C114.523 135.62 116.345 140.109 116.458 143.57C116.512 145.274 115.648 149.658 116.47 150.626C113.47 153.053 110.879 154.736 107.211 156.006C107.726 154.983 109.796 153.434 110.473 152.316C111.426 150.739 111.316 148.986 110.958 147.275C114.53 143.346 115.24 139.66 111.342 135.579C111.603 134.784 111.871 133.993 112.147 133.204Z" fill="#CD640E"/>
<path d="M19.6196 112.237C21.4297 113.081 23.3389 113.683 25.2337 114.295C26.1509 114.592 27.0057 114.718 27.8491 115.147C25.4684 116.702 25.1333 118.055 24.706 120.799C24.4644 122.35 24.5508 122.288 23.284 123.235C23.0266 122.756 22.5463 122.547 22.0298 122.352C20.2453 121.677 18.7691 120.132 17.3124 119.312C18.2171 117.633 19.0875 114.179 19.6196 112.237Z" fill="#E58230"/>
<path d="M76.5504 169.695L77.8277 171.091L77.4447 172.644C76.0181 172.59 73.756 173.159 73.1674 172.981L73.2684 172.682C74.4493 171.778 75.4827 170.729 76.5504 169.695Z" fill="#46721D"/>
<path d="M76.7684 164.127C77.041 164.756 76.9092 166.229 76.5902 166.814C75.7847 165.894 75.9893 164.963 76.7684 164.127Z" fill="#638C21"/>
<path d="M70.2507 118.398C72.0673 117.847 73.6817 119.706 74.6387 120.929C76.1628 118.686 78.2976 118.108 80.9954 118.812C83.3835 119.436 83.4896 121.103 84.495 122.994C85.7143 122.589 86.5463 122.352 87.7353 122.824C88.9597 123.311 89.9314 124.278 90.4248 125.501C91.0008 126.92 90.888 127.844 90.3457 129.201C93.2222 129.867 93.4647 130.279 94.0743 133.034C93.6365 134.469 93.4798 134.798 92.4391 135.869C95.3779 137.438 97.7188 140.268 93.8251 142.446C93.7139 142.905 93.9076 143.069 94.14 143.616C93.5304 147.372 93.1666 149.901 89.0337 148.985C88.2405 148.81 88.2624 149.76 88.3012 150.324C88.3955 151.727 87.5281 152.808 86.6878 153.849L86.484 153.898C85.1215 154.245 84.5624 154.201 83.1309 154.204C82.0412 154.714 82.4623 156.186 80.9011 156.486C79.7256 156.109 79.3151 155.4 78.6757 154.42C77.2501 157.357 75.2008 159.46 71.6741 158.103C69.3335 157.321 69.0277 156.345 68.4662 154.117C67.6143 154.765 66.7805 155.435 65.9659 156.129C65.186 156.222 64.6035 156.284 63.832 156.198C59.3251 155.698 60.2976 152.057 59.2697 150.689C56.9284 151.11 54.0202 151.838 52.0789 149.91C50.234 148.077 51.5489 146.804 51.5971 144.851C51.535 144.834 51.4728 144.815 51.4105 144.798L51.1154 144.712C49.8845 144.36 48.5537 143.63 48.2607 142.24C47.9611 140.821 49.2619 139.934 49.9615 138.859C49.8072 136.917 46.509 137.2 49.6156 131.629C51.2918 130.602 52.1569 130.483 54.0564 130.022L53.2817 128.13C53.4875 127.244 53.9008 125.527 54.5799 124.941C55.1252 125.358 54.5772 126.77 55.4829 127.562C56.1106 127.635 55.9031 127.621 56.5562 127.321C56.6913 126.922 57.041 123.573 57.233 122.576C59.7764 120.294 61.9154 120.175 64.668 122.045C67.051 119.549 66.1433 118.67 70.2507 118.398Z" fill="#507D1E"/>
<path d="M62.7178 141.869C63.0526 141.886 62.8987 141.829 63.1702 142.068L63.0744 142.438C62.4622 142.913 61.6331 143.513 61.4874 144.325C61.3411 145.14 62.1563 145.877 62.9157 145.957C65.1369 145.052 63.7553 146.361 64.7393 147.593C66.1705 148.181 66.941 145.342 68.1448 146.346C68.3802 147.051 68.3642 147.149 68.3876 147.908C68.1128 148.292 67.954 148.439 67.5045 148.415C67.1882 148.065 67.1868 148.009 66.7729 147.807C66.306 148.099 66.3978 148.457 66.0726 149.18C64.996 149.065 63.8646 147.403 63.204 147.152C61.2161 146.391 60.1928 145.562 60.9044 143.267C61.1762 142.391 61.902 142.221 62.7178 141.869Z" fill="#46721D"/>
<path d="M78.3714 121.762C79.8957 121.975 81.5007 123.777 82.0767 125.129C82.3478 125.765 82.0733 126.189 81.8258 126.788C79.4983 125.766 76.9388 124.537 78.3714 121.762Z" fill="#6A9323"/>
<path d="M65.3691 125.058C66.6223 124.946 68.2757 125.454 68.0996 126.974C67.6957 127.515 67.6299 127.507 66.9677 127.75C66.3407 127.879 65.6146 128.054 65.0141 127.885C63.9714 127.041 64.5557 125.818 65.3691 125.058Z" fill="#6A9323"/>
<path d="M67.9005 130.456C70.29 130.533 70.8981 133.83 68.166 133.413C67.5812 132.963 66.2361 131.985 66.0771 131.43L66.2819 131.081C66.9652 130.662 67.104 130.657 67.9005 130.456Z" fill="#6A9323"/>
<path d="M86.5517 131.964L86.8565 131.992C87.6531 132.835 87.9983 133.048 87.9748 134.176C87.5824 134.704 87.7019 134.54 86.9879 134.813C84.3202 134.747 84.556 132.83 86.5517 131.964Z" fill="#6A9323"/>
<path d="M83.232 136.511C83.8333 136.517 84.0101 136.759 84.2947 137.208C84.4598 138.431 83.9209 138.998 82.8312 139.422C80.379 138.553 81.6186 137.298 83.232 136.511Z" fill="#6A9323"/>
<path d="M86.5236 136.579C87.945 136.791 89.2266 137.744 88.0528 139.204C87.2276 139.181 86.5893 139.253 85.983 138.734C85.8685 138.293 85.8954 138.271 86.0588 137.838L86.5236 136.579Z" fill="#638C21"/>
<path d="M70.5417 123.874C71.4188 123.889 72.0142 123.832 72.5613 124.571C72.4936 125.309 72.4898 125.102 71.9475 125.791C71.1103 125.805 70.5648 125.952 70.019 125.427C69.9752 124.824 70.262 124.429 70.5417 123.874Z" fill="#638C21"/>
<path d="M75.664 136.248C76.3943 136.436 76.9113 136.417 77.1474 137.172C76.9871 137.654 76.774 137.73 76.3496 138.019C75.6396 137.856 75.0673 137.388 75.1266 136.618L75.664 136.248Z" fill="#638C21"/>
<path d="M58.5741 133.182C58.9491 133.327 58.9479 133.35 59.2942 133.568C59.4352 134.207 59.0389 134.702 58.7095 135.419C58.4875 135.545 58.5574 135.485 58.2152 135.458L58.0468 135.074C58.0949 134.216 58.2384 134 58.5741 133.182Z" fill="#638C21"/>
<path d="M75.763 148.296C76.4151 148.303 76.8656 148.338 77.2011 148.913L76.8943 149.329C76.0999 149.507 76.1335 149.63 75.4724 149.42C75.3944 148.81 75.4479 148.957 75.763 148.296Z" fill="#638C21"/>
<path d="M89.2911 112.501C92.0649 112.146 93.3869 113.196 94.0016 115.843C95.3321 115.587 96.671 115.451 98.0014 115.772C99.4363 116.106 100.664 117.03 101.383 118.315C102.203 119.763 102.37 120.845 101.912 122.399C102.266 122.787 104.012 123.746 104.576 124.077C103.898 124.755 103.404 125.296 102.781 126.014C103.682 125.919 104.583 125.831 105.486 125.75C107.539 126.966 109.339 127.742 109.954 130.429C110.479 132.717 109.391 134.22 108.221 136.052C110.909 137.72 112.62 139.896 111.215 143.443C110.681 144.792 109.598 145.471 108.241 145.929C109.438 149.053 109.196 150.7 106.85 153.032C105.908 153.593 105.13 154.331 104.046 153.965C103.488 153.548 103.313 152.967 103.012 152.315C101.535 151.286 100.526 151.56 100.13 150.117C99.7614 148.768 97.2739 148.478 95.642 147.847C95.9771 146.678 95.994 146.08 95.8912 144.903C98.1985 141 98.6145 138.289 94.9212 135.099C96.8091 131.34 95.9333 130.039 93.0282 127.955C92.9592 127.905 92.8059 125.191 91.8746 123.983C89.8402 121.34 88.9611 121.402 85.8319 120.832C85.4665 120.392 85.2391 119.689 85.0202 119.138C85.0539 118.439 86.6942 117.173 86.6622 116.412C86.5359 113.436 85.2964 112.955 89.2911 112.501Z" fill="#46721D"/>
<path d="M98.8562 128.038C99.2115 127.888 99.4085 128.479 99.6258 128.75C100.247 129.526 101.254 129.019 101.943 129.772C101.876 130.416 101.204 130.938 100.818 131.469C100.286 132.206 100.611 132.522 100.591 133.41C99.7167 133.239 99.2216 132.714 98.5345 132.152C99.0684 131.551 99.6511 131.053 100.247 130.513C99.7925 130.365 99.3462 130.196 98.9067 130.007C98.1909 129.701 97.7446 129.538 97.4684 128.85L97.6284 128.48C98.073 128.171 98.3307 128.155 98.8562 128.038Z" fill="#507D1E"/>
<path d="M105.767 139.501C105.829 139.563 105.964 139.796 106.018 139.881C105.585 142.647 107.473 142.263 107.594 143.937C105.794 143.489 104.381 141.141 105.767 139.501Z" fill="#507D1E"/>
<path d="M61.6061 101.008C62.2582 100.951 62.9142 100.953 63.566 101.015C65.6206 101.217 66.4189 102.276 67.619 103.731C70.7508 102.257 71.8631 102.244 72.961 105.591C74.8653 104.466 77.1217 104.265 79.0732 105.478C80.1489 106.147 81.3505 107.197 81.3791 108.552C81.396 109.399 81.1114 110.306 81.2697 111.122C81.4179 111.846 82.8544 112 83.3058 112.345C84.4224 113.2 84.5453 114.902 84.7339 116.159C84.3398 116.973 83.8834 117.64 83.395 118.397C80.0352 115.844 77.8954 115.575 74.6389 118.419L73.9378 117.866C71.7634 116.142 69.8599 115.865 67.2421 116.711C66.5086 117.204 64.1485 119.428 63.5185 119.215C60.181 118.086 58.4322 118.856 56.1331 121.293C55.7592 119.249 55.6999 118.242 54.2793 116.678L52.0733 116.353C51.8773 115.661 51.6241 114.82 51.2501 114.216C49.2884 111.048 46.3488 112.859 45.072 112.586L44.8893 112.23C44.8167 107.501 48.0753 105.661 52.1898 104.946C52.5806 105.161 54.49 106.254 54.7401 106.146C55.4821 105.822 56.5989 103.555 57.3172 102.974C58.8573 101.729 59.81 101.474 61.6061 101.008Z" fill="#507D1E"/>
<path d="M65.9084 107.028C66.7618 107.094 68.9244 107.714 68.8811 108.808C68.5394 109.207 68.2396 109.213 67.7214 109.337C66.3909 109.683 65.7248 109.91 64.6039 108.978C64.2194 107.883 65.0554 107.474 65.9084 107.028Z" fill="#638C21"/>
<path d="M61.2423 110.112C61.9811 110.279 62.242 110.461 62.6883 111.003C62.8555 111.703 62.8678 111.361 62.6144 112.064C62.1273 112.578 61.9574 112.569 61.2443 112.777C60.5991 112.687 60.2327 112.439 59.8677 111.908C59.6525 110.685 60.1613 110.395 61.2423 110.112Z" fill="#638C21"/>
<path d="M60.8456 104.835C62.7045 104.877 64.1365 105.713 62.5082 107.458C61.6454 107.201 60.7568 107.094 60.3435 106.224C60.2787 105.631 60.5332 105.357 60.8456 104.835Z" fill="#638C21"/>
<path d="M70.4017 108.733C71.334 108.673 71.9198 108.591 72.3543 109.483C72.3157 110.124 72.1146 110.256 71.6919 110.746C70.8054 110.631 70.2934 110.717 69.8387 109.919C69.8751 109.321 70.034 109.205 70.4017 108.733Z" fill="#6A9323"/>
<path d="M63.8691 104.675C64.6792 104.658 65.0621 104.56 65.5613 105.238C65.5898 105.854 65.512 105.907 65.2603 106.464C64.4351 106.469 64.1621 106.563 63.6104 106.052C63.5286 105.48 63.6776 105.219 63.8691 104.675Z" fill="#638C21"/>
<path d="M75.8125 110.478C77.3402 110.681 77.5935 111.754 77.7098 113.092C76.3718 112.19 75.6601 112.135 75.8125 110.478Z" fill="#46721D"/>
<path d="M56.1196 109.24C56.5925 109.521 57.0517 109.695 57.2481 110.175C56.979 110.68 56.9601 110.543 56.2434 110.813C55.6731 110.537 55.265 110.304 55.0429 109.757C55.4097 109.305 55.4175 109.43 56.1196 109.24Z" fill="#638C21"/>
<path d="M51.1863 161.321C51.1219 160.361 50.5795 158.868 50.2851 157.909C49.7868 156.289 48.5253 151.42 48.6754 149.876L48.9134 149.711C50.5611 150.484 50.8036 152.505 54.4838 153.665C54.427 155.221 54.0195 157.404 53.5961 158.915C53.3832 159.674 53.0371 160.249 52.8679 161.084C52.3613 160.926 51.7307 161.175 51.1863 161.321Z" fill="#46721D"/>
<path d="M70.1097 159.994C71.2667 160.557 71.6702 160.25 72.4688 160.69C72.8152 161.304 72.6374 161.981 72.6044 162.805C71.9108 163.447 69.2876 165.579 68.6064 165.973C67.5356 166.517 67.236 166.822 66.3344 167.608C67.106 165.358 68.6206 161.892 70.1097 159.994Z" fill="#46721D"/>
<path d="M51.1934 161.323C51.7378 161.177 52.3684 160.928 52.875 161.086C52.585 162.334 52.2722 163.575 51.9371 164.811C51.7212 163.764 51.4679 162.325 51.1934 161.323Z" fill="#CD640E"/>
<path d="M22.4934 35.6091C23.8076 35.5991 26.7293 33.4765 28.4098 32.9402C45.5917 27.4598 63.91 36.7851 67.426 54.9863C68.7695 61.9416 68.7165 64.6057 67.5413 71.5322C65.7017 82.3763 61.4818 91.8864 53.5698 99.6832C52.7537 100.488 50.13 102.114 49.8709 102.889L50.4238 103.059C48.5487 103.356 47.2307 103.867 45.7041 105.055C43.721 107.391 43.3977 107.471 42.5888 110.501C38.9391 109.575 35.8443 109.909 33.6408 113.337L33.4849 113.576C32.2331 113.473 31.4553 113.418 30.1907 113.724C29.8303 113.688 29.7589 113.671 29.4224 113.547C18.253 109.436 11.758 104.365 6.67173 93.6074C7.98012 94.4153 8.57294 94.5195 10.0383 94.8831C12.4237 94.9651 13.2489 94.6603 15.3441 93.7066C15.7879 93.025 16.9014 91.7107 17.4508 91.0251C18.3887 92.6186 18.9468 93.5651 20.2682 94.9552C25.1264 100.065 34.766 100.738 39.7423 95.4687C40.615 94.5446 41.7573 93.647 41.76 92.3244C41.457 91.74 41.6773 91.9366 41.1059 91.6828C39.6752 91.7446 38.4121 93.6119 37.3196 94.4741C31.1241 99.3634 21.9053 95.9334 19.0984 88.8447C15.65 80.1357 17.4414 70.4264 19.9369 61.6888C20.8918 59.0607 22.2861 56.5938 23.421 54.0548C24.2387 52.2254 23.5755 50.9112 22.8286 49.3088C21.3305 46.0946 18.9958 47.9458 18.5938 50.5429C18.2917 52.4952 18.8003 54.0624 19.8547 55.586L19.9827 55.7678C16.0814 64.1648 14.1001 73.683 15.2131 82.9078C15.4272 84.6807 15.7005 86.8552 16.2783 88.5287C15.0331 90.8513 13.4901 92.8751 10.5435 92.4927C8.86581 92.2751 7.09612 91.2905 6.12993 89.836C2.53988 84.4321 3.33378 76.5543 4.00103 70.3669C5.49923 59.6653 10.8662 48.1211 18.062 40.0995C19.3113 38.7069 21.0111 36.73 22.4934 35.6091Z" fill="#E58230"/>
<path d="M6.67731 93.6123C7.98571 94.4202 8.57852 94.5244 10.0439 94.888C11.7499 103.954 30.8243 109.072 38.6063 107.051C39.7418 106.756 45.405 105.022 45.7097 105.06C43.7266 107.396 43.4032 107.476 42.5944 110.506C38.9447 109.58 35.8499 109.914 33.6464 113.342L33.4905 113.581C32.2387 113.478 31.4609 113.423 30.1963 113.729C29.8359 113.693 29.7645 113.676 29.428 113.552C18.2585 109.441 11.7635 104.37 6.67731 93.6123Z" fill="#EC7C18"/>
<path d="M47.2042 52.5429C48.7918 52.5037 50.1216 52.4141 51.595 53.2375C53.2028 54.1115 54.3405 56.1759 53.1229 57.8345C52.0543 59.2899 50.4293 59.5902 48.7707 59.8278C41.1812 60.752 39.485 53.414 47.2042 52.5429Z" fill="#6C3705"/>
<path d="M38.9012 183.679C38.0923 186.244 36.7049 189.912 35.7341 192.484C35.2205 193.285 35.0699 193.594 34.6971 194.473C34.0638 194.378 30.6257 195.805 29.5253 196.074C27.1901 196.647 24.8249 196.792 22.5434 197.415C15.9665 199.207 17.1271 205.654 18.0633 210.905C19.688 220.018 23.715 229.125 29.502 236.381C39.1086 247.811 51.6882 253.705 66.5015 255.042C76.1845 255.916 87.2875 254.042 95.2921 248.041C97.271 246.559 97.0891 243.88 98.8659 242.091C99.6877 244.852 101.096 247.993 102.916 250.231C96.7051 253.304 92.2018 255.615 89.6217 262.53C79.0098 262.784 68.6738 262.508 58.2028 260.472C57.372 260.465 55.7259 260.511 54.9608 260.799C54.9 260.619 54.2604 259.681 54.0928 259.35C51.864 258.579 41.8943 254.741 41.0201 253.032L42.0181 252.733C41.1574 251.812 36.0415 249.732 34.6728 248.975C11.4132 236.091 5.90927 208.601 10.0903 184.131C13.5717 186.455 15.7592 187.639 19.914 188.656C24.8252 189.865 28.3444 189.257 32.9297 187.63C36.6581 186.306 36.4912 184.905 38.9012 183.679Z" fill="#E58230"/>
<path d="M54.1092 259.344C55.3802 259.709 56.9483 260.208 58.2191 260.465C57.3884 260.459 55.7423 260.504 54.9772 260.792C54.9164 260.612 54.2768 259.674 54.1092 259.344Z" fill="#7B3D07"/>
<path d="M116.484 150.63C117.559 149.554 122.023 144.884 123.059 144.488L123.397 144.585C123.79 145.933 121.572 148.385 120.747 149.412C116.282 154.97 109.552 159.133 102.449 160.169C102.582 160.677 104.853 162.715 105.591 163.842C110.201 170.88 110.164 181.35 105.773 188.487C104.178 191.079 103.046 191.387 101.431 193.302C112.983 194.816 124.706 192.381 134.7 186.394C138.036 184.427 140.673 182.224 143.851 180.153C143.876 181.077 142.96 182.046 142.33 182.719C134.048 191.608 121.43 196.386 109.35 196.568C100.219 196.704 89.6896 195.244 82.6415 188.772C80.2903 186.613 78.9149 184.279 78.2015 181.205C78.4459 180.702 78.4556 179.465 78.4949 178.846C77.4059 177.219 77.2879 176.064 77.2468 174.162C77.3283 173.872 77.4088 172.995 77.4483 172.648L77.8313 171.095C78.2886 170.247 78.656 169.379 79.0444 168.498C79.4924 167.079 80.0549 166.169 80.986 164.997C86.547 157.996 94.8531 158.264 102.89 157.329C103.845 157.198 106.672 156.725 107.225 156.009C110.893 154.739 113.485 153.057 116.484 150.63Z" fill="#E58230"/>
<path d="M116.484 150.63C117.559 149.554 122.023 144.884 123.059 144.488L123.397 144.585C123.79 145.933 121.572 148.385 120.747 149.412C116.282 154.97 109.552 159.133 102.449 160.169C94.8936 161.14 88.0139 160.228 82.5556 167.128C82.2441 167.522 82.2272 167.582 82.3098 168.032C83.5257 168.65 86.8653 167.52 88.5798 169.078L88.6875 169.457C88.4838 169.724 88.0594 169.999 87.7141 169.977C83.2209 169.682 79.9479 169.251 79.7386 175.014C79.7111 175.772 80.336 176.943 80.7452 177.697L80.9439 177.813C83.0491 179.009 87.6686 179.9 88.5697 180.843C88.2817 182.726 82.2693 180.552 81.1275 180.718C81.2336 183.223 82.8234 185.101 84.5901 186.743C88.8122 190.672 95.7912 192.869 101.431 193.302C112.983 194.816 124.706 192.381 134.7 186.394C138.036 184.427 140.673 182.224 143.851 180.153C143.876 181.077 142.96 182.046 142.33 182.719C134.048 191.608 121.43 196.386 109.35 196.568C100.219 196.704 89.6896 195.244 82.6415 188.772C80.2903 186.613 78.9149 184.279 78.2015 181.205C78.4459 180.702 78.4556 179.465 78.4949 178.846C77.4059 177.219 77.2879 176.064 77.2468 174.162C77.3283 173.872 77.4088 172.995 77.4483 172.648L77.8313 171.095C78.2886 170.247 78.656 169.379 79.0444 168.498C79.4924 167.079 80.0549 166.169 80.986 164.997C86.547 157.996 94.8531 158.264 102.89 157.329C103.845 157.198 106.672 156.725 107.225 156.009C110.893 154.739 113.485 153.057 116.484 150.63Z" fill="#6C3705"/>
<path d="M143.837 180.151C144.618 178.925 147.195 176.406 148.345 175.372C147.773 181.768 142.452 188.048 137.727 192.044C127.668 200.551 116.328 203.924 103.241 202.836C94.6064 202.121 87.5483 199.621 81.7212 192.87C79.6303 195.032 79.0374 196.051 76.4936 197.629C73.8511 199.269 70.0448 198.286 68.3893 199.793C63.6724 204.089 64.6962 212.311 57.7884 214.989C56.0798 215.651 54.7925 216.075 52.8355 216.077C48.0186 216.079 41.5374 214.218 38.0388 210.774C36.5667 209.324 35.7736 207.621 35.0939 205.728C35.3314 205.137 35.5936 204.426 35.859 203.859C32.3338 200.637 33.2702 198.426 34.7035 194.475C35.0764 193.596 35.227 193.287 35.7406 192.486C36.3267 192.905 36.8818 193.297 37.4852 193.69C36.9177 195.462 36.213 196.996 35.6589 198.68L35.8708 198.961C36.4288 198.909 36.3085 198.869 36.6696 198.798C39.407 198.377 42.9206 198.997 45.546 199.768C47.4686 200.334 49.4413 201.782 51.4876 202.028C51.755 202.06 51.9584 201.602 52.0448 201.385L52.2149 201.632C52.0676 202.011 51.9953 202.001 52.0389 202.313C53.561 203.847 56.0869 204.936 57.047 206.557L57.3655 207.082C58.3253 204.995 59.0001 202.823 59.8051 200.686C60.4818 198.889 60.9325 196.359 62.5341 195.221L62.5327 195.025C62.507 193.424 63.6372 192.915 63.599 190.93C67.151 184.518 71.6762 181.14 78.4806 178.844C78.4413 179.464 78.4316 180.7 78.1872 181.204C78.9006 184.277 80.276 186.611 82.6272 188.771C89.6753 195.243 100.204 196.703 109.336 196.566C121.416 196.384 134.034 191.607 142.316 182.718C142.946 182.044 143.862 181.076 143.837 180.151Z" fill="#E58230"/>
<path d="M63.599 190.933C67.151 184.522 71.6762 181.144 78.4806 178.848C78.4413 179.468 78.4316 180.704 78.1872 181.208C75.3326 182.087 74.1702 182.952 71.6026 184.485C73.9043 184.249 76.2195 184.087 78.1746 185.559C80.5221 187.328 79.9663 190.469 78.0646 192.335C74.7496 195.588 71.4034 195.851 67.2407 194.266C64.0899 197.011 63.9957 195.215 62.3236 200.1C60.3637 205.826 59.696 211.485 51.9308 210.239C46.6324 209.732 39.814 207.236 35.859 203.862C32.3338 200.641 33.2702 198.43 34.7035 194.479C35.0764 193.599 35.227 193.291 35.7406 192.49C36.3267 192.909 36.8818 193.301 37.4852 193.694C36.9177 195.465 36.213 197 35.6589 198.684L35.8708 198.965C36.4288 198.913 36.3085 198.872 36.6696 198.802C39.407 198.381 42.9206 199 45.546 199.772C47.4686 200.338 49.4413 201.786 51.4876 202.032C51.755 202.064 51.9584 201.606 52.0448 201.389L52.2149 201.636C52.0676 202.015 51.9953 202.005 52.0389 202.316C53.561 203.851 56.0869 204.94 57.047 206.56L57.3655 207.086C58.3253 204.999 59.0001 202.827 59.8051 200.69C60.4818 198.893 60.9325 196.363 62.5341 195.225L62.5327 195.029C62.507 193.428 63.6372 192.919 63.599 190.933Z" fill="#355F18"/>
<path d="M35.7785 200.166C35.6207 199.612 35.5005 199.218 35.6636 198.669L35.8755 198.95C36.4335 198.898 36.3132 198.858 36.6743 198.787C39.4117 198.366 42.9253 198.986 45.5507 199.757C47.4733 200.323 49.446 201.771 51.4923 202.017C51.7597 202.049 51.9631 201.591 52.0495 201.374L52.2196 201.622C52.0723 202 52 201.99 52.0436 202.302C53.5657 203.836 56.0916 204.926 57.0517 206.546L57.3702 207.071C56.8582 207.556 56.8833 207.529 56.2038 207.747C50.9474 209.075 38.1802 205.156 35.7785 200.166Z" fill="#83A127"/>
<path d="M35.7785 200.166C35.6207 199.612 35.5005 199.218 35.6636 198.669L35.8755 198.95C36.4335 198.898 36.3132 198.858 36.6743 198.787C39.4117 198.366 42.9253 198.986 45.5507 199.757C47.4733 200.323 49.446 201.771 51.4923 202.017C51.7597 202.049 51.9631 201.591 52.0495 201.374L52.2196 201.622C52.0723 202 52 201.99 52.0436 202.302C53.5657 203.836 56.0916 204.926 57.0517 206.546L57.3702 207.071C56.8582 207.556 56.8833 207.529 56.2038 207.747C54.5026 205.35 49.7864 202.932 47.019 201.93C45.2837 201.302 37.2949 198.966 35.7785 200.166Z" fill="#638C21"/>
<path d="M66.4204 190.372C67.0504 188.831 68.3522 187.28 69.9291 186.714C72.3486 185.847 76.3515 185.426 77.9489 187.851C78.1425 188.708 77.8689 189.382 77.3904 190.095C74.2637 194.753 70.3166 192.523 66.276 192.309C65.409 193.267 63.6852 194.207 62.5339 195.224L62.5325 195.029C62.5068 193.427 63.637 192.919 63.5988 190.933C64.5419 191.305 65.6793 191.065 66.4204 190.372Z" fill="#46721D"/>
<path d="M66.4204 190.366C68.5253 189.955 72.732 187.398 74.3989 188.187L74.3224 188.495C71.852 189.628 68.4199 189.584 66.276 192.303C65.409 193.261 63.6852 194.201 62.5339 195.218L62.5325 195.022C62.5068 193.421 63.637 192.912 63.5988 190.927C64.5419 191.299 65.6793 191.058 66.4204 190.366Z" fill="#6A9323"/>
<path d="M129.374 258.735C145.671 255.806 159.161 245.102 169.56 232.6C171.061 230.797 174.109 225.475 175.746 224.772C170.184 239.234 160.852 254.523 146.053 260.99C142.49 262.51 138.845 263.836 135.137 264.961C134.719 265.03 134.611 265.03 134.189 265.047C133.422 264.664 130.357 260.011 129.374 258.735Z" fill="#E58230"/>
<path d="M115.368 71.9066C120.747 71.6636 127.659 73.7332 128.817 79.7863C129.166 81.5359 128.787 83.3519 127.766 84.8156C125.771 87.717 122.891 88.5862 119.654 89.1634C116.257 89.4576 112.715 89.0918 109.901 87.0794C101.563 81.1156 106.912 72.9929 115.368 71.9066Z" fill="#FFB977"/>
<path d="M117.306 76.0146C117.975 76.1285 117.729 75.9693 118.125 76.4075C118.249 77.9578 114.979 80.1194 113.822 80.8536C113.323 80.8915 113.54 80.952 113.14 80.698C112.717 78.9961 116.082 76.7259 117.306 76.0146Z" fill="#EC7C18"/>
<path d="M122.453 78.2281C122.657 78.2222 122.745 78.264 122.95 78.312C123.679 79.8466 119.833 82.5332 118.721 83.3079C116.852 81.7688 121.349 79.0077 122.453 78.2281Z" fill="#EC7C18"/>
<path d="M142.279 37.2625C141.086 35.4779 139.714 36.8262 138.574 36.2842C138.616 35.3251 141.954 33.4219 141.56 31.7922C140.286 30.7354 136.75 32.7014 135.052 32.7336C133.432 29.7929 144.163 16.5175 150.265 23.6302C151.711 26.5104 152.581 28.3997 151.474 31.5717C150.021 35.7345 148.39 37.9429 144.279 39.7497C143.55 40.0708 143.025 40.4642 142.159 40.3691C141.696 39.9475 141.853 40.197 141.681 39.5893C142.008 38.2449 142.717 38.2779 142.279 37.2625Z" fill="#BA580B"/>
<path d="M142.279 37.2625C141.086 35.4779 139.714 36.8262 138.574 36.2842C138.616 35.3251 141.954 33.4219 141.56 31.7922C140.286 30.7354 136.75 32.7014 135.052 32.7336C133.432 29.7929 144.163 16.5175 150.265 23.6302C149.465 24.0051 148.222 23.741 147.259 23.6184C143.158 23.0958 139.992 26.9599 137.829 29.9649C139.944 29.6419 143.921 29.0204 143.604 32.5756C143.49 33.8695 142.146 34.1488 141.881 35.1537C142.622 35.7194 142.764 35.151 143.437 35.8723C143.474 36.5192 142.866 37.1101 142.279 37.2625Z" fill="#7B3D07"/>
<path d="M101.969 53.8921C103.756 53.9232 104.568 54.0442 106.526 54.7729C109.867 56.0161 114.384 60.727 112.949 64.5526C112.04 65.9808 110.317 64.6057 109.707 63.8066C108.621 62.3777 107.648 61.2965 106.252 60.3342C103.38 58.6134 99.8082 58.6029 96.9367 60.2909C95.768 60.9786 94.8872 62.5064 93.2468 61.4688C91.6688 59.3151 94.7861 56.6376 96.4736 55.5904C98.3581 54.4199 99.7829 54.0378 101.969 53.8921Z" fill="#2A1F16"/>
<path d="M17.311 119.313C18.7678 120.133 20.244 121.678 22.0285 122.353C22.545 122.548 23.0253 122.757 23.2826 123.236C21.8018 125.019 21.7152 125.884 21.7135 128.26C20.0782 129.358 18.6189 129.233 18.2793 131.55C18.195 132.124 18.1422 132.568 17.834 133.064C14.6124 134.693 13.6341 138.811 14.6127 142.104C15.327 143.488 15.6584 144.327 16.8993 145.3C15.9573 148.808 16.4094 150.218 18.9428 152.805C18.3183 152.87 17.8469 152.715 17.2322 152.577C16.8272 153.207 16.7405 154.024 16.5897 154.78C24.8826 156.98 33.9509 154.624 38.3886 163.925C36.8449 163.699 35.5352 163.502 33.9684 163.561C34.0799 165.111 34.647 164.71 35.7117 165.756C39.6035 166.232 40.2164 166.581 40.4341 170.931C40.676 175.759 30.5402 174.016 30.5985 176.312C32.1186 178.301 37.5125 176.42 39.4851 175.837C39.028 179.823 36.3294 182.942 32.7858 184.65C28.3813 186.72 23.3402 186.977 18.7478 185.367C9.1304 182.009 3.94548 174.53 3.11335 164.493C2.10674 152.347 7.45755 141.858 12.42 131.203C14.266 127.241 15.8147 123.408 17.311 119.313Z" fill="#E58230"/>
<path d="M35.7103 165.753C34.3862 165.677 30.7608 166.208 30.1735 165.143C30.6879 163.847 32.7469 163.761 33.967 163.559C34.0785 165.108 34.6456 164.707 35.7103 165.753Z" fill="#7B3D07"/>
<path d="M13.923 151.866C15.3651 151.418 15.8419 152.213 17.2363 152.574C16.8313 153.203 16.7446 154.02 16.5938 154.776C15.1544 154.052 14.133 153.564 13.923 151.866Z" fill="#7B3D07"/>
<path d="M109.532 250.442C114.802 249.901 125.939 254.66 129.386 258.744C130.37 260.021 133.435 264.674 134.201 265.056C134.624 265.04 134.732 265.04 135.149 264.971C131.647 266.326 128.551 268.096 124.949 269.802C120.058 271.955 114.243 275.16 108.744 273.999C106.674 273.563 107.712 269.924 108.18 268.659C108.527 267.724 110.117 265.323 109.76 264.533C106.46 263.862 105.15 271.188 105.159 273.571C102.567 273.632 101.179 273.672 98.7942 272.605C96.0862 266.661 100.753 264.043 100.424 261.948C99.5858 261.451 98.7168 262.175 98.2132 262.812C96.3017 265.189 95.3957 268.221 95.6887 271.257C94.0181 270.636 92.3558 269.671 91.9668 267.876C90.3904 260.587 98.7269 254.546 104.694 252.479C106.218 251.952 107.56 251.925 109.059 251.385C109.446 251.247 109.453 250.773 109.532 250.442Z" fill="#E58230"/>
<path d="M16.1937 264.042C15.4771 263.348 14.5746 262.51 14.1618 261.614C12.2958 257.565 16.2382 252.759 19.2627 250.441C21.3879 248.813 23.8658 247.671 26.234 246.549C27.4588 247.358 28.4838 248.252 29.7838 248.959C33.9237 251.213 37.2889 252.518 42.0309 252.74L41.0329 253.038C41.9071 254.748 51.8768 258.586 54.1056 259.357C54.2732 259.687 54.9128 260.625 54.9736 260.805C47.2226 263.109 39.7755 266.599 31.7906 267.424C22.7948 268.354 30.1477 259.056 29.5992 257.931C27.1414 257.622 25.61 261.732 25.1416 263.677C24.9109 264.635 24.9443 265.534 24.9931 266.508C19.7018 266.712 17.0213 264.608 19.4815 259.194C20.032 257.981 21.4283 256.388 21.6153 255.13L21.4174 254.909C20.8252 254.988 20.2622 255.214 19.7802 255.568C17.2685 257.397 16.4931 261.233 16.1937 264.042Z" fill="#E58230"/>
<path d="M53.7304 14.3314C53.9504 12.9208 54.2223 11.7089 54.7193 10.3452C57.4818 2.76514 67.1281 -0.519072 72.2588 7.00224C72.7553 7.72995 73.1184 8.77142 73.4584 9.59933C70.8054 9.80867 65.8846 10.9674 63.0505 11.5469L62.4033 11.6824C58.7899 12.426 57.2278 13.0454 53.7304 14.3314Z" fill="#BA580B"/>
<path d="M62.3882 11.6747C62.1944 11.3345 62.0381 11.0432 61.8626 10.6931C61.8511 9.6915 62.1721 8.83883 63.1835 8.51025C63.75 8.62629 63.5344 8.48247 63.8635 8.93785C63.8782 9.78093 63.3626 10.669 63.0354 11.5392L62.3882 11.6747Z" fill="#7B3D07"/>
</svg>
