<svg width="189" height="256" viewBox="0 0 189 256" fill="none" xmlns="http://www.w3.org/2000/svg">
<path d="M115.518 6.47038C115.954 2.98878 117.886 -2.23039 122.617 1.02891C124.625 2.41283 125.148 5.91516 125.33 8.29261C131.79 3.13019 138.106 7.05642 132.534 14.1542C142.956 17.4746 149.225 21.8007 156.736 29.5099C158.363 27.8385 160.35 26.5589 162.546 25.7682C165.928 24.5835 169.915 24.7594 173.132 26.3701C176.681 28.1905 179.362 31.3495 180.578 35.1494C181.825 39.0585 181.471 43.3025 179.594 46.9515C177.519 50.9222 174.512 52.9206 170.358 54.2107C172.19 59.9491 173.13 65.7939 174.31 71.6648C175.901 79.5686 178.243 86.884 177.913 95.0548C177.474 105.88 173.177 113.624 165.42 120.848C179.209 134.187 185.9 153.905 177.173 171.967C180.92 178.588 184.111 190.107 184.664 197.706C185.647 211.194 182.715 222.512 173.889 232.898C177.921 233.603 185.802 235.669 188.254 238.973C188.735 239.62 189.07 240.384 188.925 241.205C188.701 242.475 187.44 243.439 186.424 244.096C176.306 250.627 137.319 255.275 124.888 254.943C122.732 255.205 119.46 255.457 117.248 255.255C102.627 256.327 88.0835 256.075 73.4419 255.493C55.9982 254.808 38.4433 253.513 21.2925 250.124C15.5549 248.991 8.13704 247.292 3.07737 244.403C-5.82014 239.322 6.96621 234.804 11.3732 233.929C9.18734 231.307 7.29697 228.456 5.73611 225.422C1.03784 216.236 -2.32332 201.262 9.29525 195.099C13.41 192.915 18.2419 193.47 22.545 194.93C24.4033 190.554 28.2829 186.653 32.6025 184.664C30.9578 180.388 29.5926 173.888 29.5878 169.384C16.084 169.615 9.69142 156.478 13.1929 144.602C18.1931 127.643 33.1732 116.206 47.7836 107.708C43.4102 102.429 40.1227 95.4495 39.0052 88.6897C38.1122 83.279 38.3779 77.7405 39.7849 72.4402C41.5645 65.8252 44.7459 61.1031 47.8969 55.234C51.6496 48.2448 55.0621 41.3318 59.6991 34.8354C57.5958 33.3074 55.8924 31.5941 54.6809 29.2684C52.8485 25.6794 52.5035 21.5132 53.7205 17.6717C54.9689 13.8263 57.7132 10.6456 61.3342 8.84712C64.6433 7.24377 68.4525 7.01444 71.93 8.20938C76.2013 9.6868 78.6803 12.8171 80.5921 16.7167C88.2089 12.7319 98.1046 10.5254 106.642 10.4479C104.257 7.52968 102.67 2.44382 108.372 2.22241C111.247 2.11072 113.654 4.48512 115.518 6.47038Z" fill="#5C3002"/>
<path d="M144.474 188.914C153.77 191.757 161.904 191.676 170.809 187.127C172.508 186.259 174.018 185.131 175.659 184.156C179.19 194.906 179.136 206.724 174.085 216.654C166.889 230.797 153.124 237.049 138.891 241.648C136.474 242.428 133.37 246.136 130.547 246.683C129.302 246.991 128.518 247.134 127.228 247.116C126.194 246.42 125.938 246.215 125.072 245.244C124.641 247.998 124.174 250.436 121.751 252.277C121.153 252.731 120.869 252.707 120.613 253.298C117.33 253.421 114.064 252.776 111.074 251.416C106.195 249.142 102.716 245.177 100.866 240.153C100.322 238.625 99.9418 237.043 99.7346 235.436C99.4752 233.489 99.4481 232.221 99.6661 230.264C99.9111 228.974 100.091 228.126 100.466 226.874C104.134 217.237 114.646 213.452 123.76 218.448C124.931 219.089 125.92 219.81 127.001 220.592L126.684 219.68L126.841 219.457L127.918 219.623L127.988 219.374C125.598 217.122 123.535 216.016 120.465 214.973C127.055 205.569 133.654 200.146 145.118 197.669C146.02 197.179 146.723 196.947 147.661 196.387C148.387 196.437 149.191 196.416 149.818 196.747C149.695 197.525 149.272 197.181 148.746 197.419C150.405 197.642 152.255 197.376 154.329 197.785C155.242 197.965 158.872 198.907 159.243 198.876L159.47 198.617C159.17 196.925 157.062 196.401 155.649 195.814C151.183 193.958 146.773 194.05 142.044 194.227C142.675 192.863 143.822 190.11 144.474 188.914Z" fill="#FE9123"/>
<path d="M99.7188 235.448L100.027 235.331C100.254 234.405 100.405 233.533 100.661 232.607C102.151 227.217 107.714 224.98 112.845 226.464C117.212 227.729 120.534 231.04 122.681 234.984C124.402 238.125 125.223 241.68 125.056 245.256C124.625 248.01 124.159 250.448 121.736 252.289C121.137 252.743 120.853 252.72 120.597 253.31C117.315 253.433 114.048 252.788 111.058 251.428C106.179 249.154 102.7 245.189 100.85 240.165C100.306 238.637 99.9259 237.055 99.7188 235.448Z" fill="#E17113"/>
<path d="M126.997 220.593L126.68 219.681L126.836 219.458L127.914 219.624L127.984 219.375C129.079 220.499 129.982 221.364 130.811 222.704C130.27 223.057 130.137 223.005 129.496 222.985C129.274 222.697 128.76 222.18 128.49 221.894L126.997 220.593Z" fill="#A84E01"/>
<path d="M126.997 220.59L126.68 219.678L126.836 219.455L127.914 219.621C128.119 220.017 128.598 221.482 128.49 221.891L126.997 220.59Z" fill="#5C2F00"/>
<path d="M130.796 222.715C131.509 223.587 132.858 225.577 132.66 226.73L132.365 226.829C131.383 226.302 130.001 224.023 129.48 222.996C130.122 223.016 130.255 223.068 130.796 222.715Z" fill="#F2831E"/>
<path d="M147.665 196.395C148.391 196.445 149.194 196.423 149.821 196.755C149.699 197.533 149.275 197.189 148.749 197.427C147.573 197.528 146.299 197.643 145.121 197.677C146.024 197.187 146.726 196.955 147.665 196.395Z" fill="#A84E01"/>
<path d="M24.2127 195.642C26.4441 191.329 28.8648 188.683 33.2386 186.516C40.0981 201.976 50.7816 213.618 66.785 219.766C77.6109 223.92 89.4318 224.746 100.73 222.133C100.027 223.308 99.3122 224.501 98.8474 225.796C98.406 227.053 98.1863 227.718 97.9139 229.013C97.6186 231.42 97.3122 236.74 98.543 238.853C98.6078 239.186 98.6312 239.413 98.6655 239.752L98.3808 240.006C84.7153 240.037 76.3511 237.877 64.0411 232.103C63.1679 231.564 62.4456 231.19 61.5362 230.721C61.625 231.395 62.6465 232.132 63.1652 232.84L63.0457 233.196C64.1924 233.948 65.598 234.737 66.7908 235.445C57.5106 235.973 47.7385 235.039 38.8137 238.284C36.5598 239.152 34.3547 240.219 31.9754 240.711C17.548 243.692 6.27967 226.765 3.79406 214.63C3.64904 214.3 3.35791 212.248 3.2808 211.76C3.25576 211.052 3.24152 210.342 3.23828 209.633C3.24567 205.932 4.20626 201.91 6.89904 199.224C7.14153 199.308 7.65083 199.451 7.88467 199.305C9.45689 198.026 11.0012 197.692 12.6656 197.008C15.2775 195.934 21.7811 198.146 23.2946 197.348C25.1684 198.184 26.5412 199.342 28.1421 200.6C28.7841 200.342 29.0846 200.589 29.9259 200.317C27.9356 198.026 26.8327 197.218 24.2127 195.642Z" fill="#F2831E"/>
<path d="M3.28125 211.763C3.64588 211.352 3.9662 210.902 4.56233 210.876C6.82094 210.783 9.41608 215.629 7.48751 217.104C5.61822 217.407 4.81131 215.672 3.79451 214.632C3.64949 214.303 3.35836 212.251 3.28125 211.763Z" fill="#A84E01"/>
<path d="M29.9441 200.314C30.609 201.107 31.0266 201.655 31.6215 202.503C30.9636 202.928 31.2704 202.838 30.3609 202.703C29.9044 202.15 28.7332 201.12 28.1602 200.597C28.8022 200.34 29.1027 200.586 29.9441 200.314Z" fill="#A84E01"/>
<path d="M60.2161 231.263C59.4634 230.715 58.4871 229.895 58 229.11L58.1765 228.955C59.2346 229.202 60.0774 229.818 61.0181 230.393C60.7339 230.787 60.6294 231.014 60.2161 231.263Z" fill="#E17113"/>
<path d="M61.0403 230.395L61.552 230.724C61.6408 231.398 62.6623 232.135 63.1809 232.843L63.0615 233.2C61.8274 232.537 61.3453 232.142 60.2383 231.265C60.6516 231.016 60.7561 230.789 61.0403 230.395Z" fill="#A84E01"/>
<path d="M15.2895 214.613C24.5395 213.971 32.7081 231.583 23.1206 234.242C13.9142 234.811 5.24742 217.665 15.2895 214.613Z" fill="#A84E01"/>
<path d="M13.5378 203.734C17.1617 203.76 19.3289 208.93 16.4771 211.103C12.904 210.957 10.7885 206.091 13.5378 203.734Z" fill="#A84E01"/>
<path d="M6.69579 204.455C7.63062 204.516 8.40781 204.799 9.05114 205.487C10.7974 207.359 12.1435 210.13 9.99227 212.122C6.6113 211.922 3.95401 207.004 6.69579 204.455Z" fill="#A84E01"/>
<path d="M11.3732 233.936C15.553 238.773 20.6367 242.421 27.2285 242.934C32.0537 243.311 34.6786 241.886 39.0398 240.198C46.3907 237.351 55.3323 237.821 63.106 237.512C65.3182 237.423 68.4959 237.067 70.7592 237.259C80.6371 240.868 88.9853 242.138 99.5387 241.954C102.243 247.847 105.547 251.277 111.726 253.792C113.879 254.669 115.522 254.7 117.248 255.262C102.627 256.334 88.0835 256.082 73.4419 255.5C55.9982 254.815 38.4433 253.52 21.2925 250.131C15.5549 248.998 8.13704 247.299 3.07737 244.41C-5.82014 239.329 6.96621 234.811 11.3732 233.936Z" fill="#FED59D"/>
<path d="M141.827 183.436C153.986 188.645 168.815 185.357 176.021 173.816C182.566 188.065 185.8 203.419 180.201 218.678C176.331 229.22 168.512 237.021 158.353 241.643C154.101 243.551 149.675 245.045 145.135 246.102C142.943 246.614 136.1 247.864 134.472 248.662L133.117 249.577C129.535 251.714 124.821 253.465 120.602 253.303C120.857 252.712 121.142 252.735 121.74 252.281C124.163 250.44 124.63 248.003 125.06 245.248C125.927 246.219 126.183 246.425 127.217 247.12C128.507 247.138 129.29 246.996 130.535 246.688C133.358 246.14 136.462 242.432 138.88 241.652C153.112 237.053 166.878 230.802 174.073 216.658C179.125 206.728 179.179 194.91 175.648 184.161C174.007 185.135 172.497 186.263 170.798 187.131C161.893 191.68 153.759 191.761 144.463 188.919C143.811 190.115 142.663 192.867 142.033 194.231C146.762 194.055 151.172 193.963 155.638 195.818C157.051 196.406 159.158 196.93 159.459 198.621L159.232 198.881C158.861 198.912 155.231 197.969 154.318 197.789C152.244 197.38 150.394 197.647 148.735 197.423C149.261 197.186 149.684 197.53 149.807 196.751C149.18 196.42 148.376 196.442 147.65 196.391C142.669 196.137 138.269 197.487 133.883 199.72C137.266 194.954 140.458 189.151 141.827 183.436Z" fill="#F2831E"/>
<path d="M173.879 232.895C177.911 233.599 185.793 235.665 188.245 238.969C188.726 239.616 189.061 240.38 188.915 241.201C188.692 242.471 187.431 243.435 186.415 244.093C176.297 250.623 137.31 255.271 124.879 254.94C128.536 253.969 131.1 253.192 134.269 251.11C134.777 250.807 135.413 250.353 135.917 250.014C136.966 249.564 143.13 248.546 144.826 248.141C156.482 245.343 165.383 241.653 173.879 232.895Z" fill="#FED59D"/>
<path d="M6.92188 199.216C11.2263 194.456 17.9362 194.766 23.3175 197.34C21.804 198.138 15.3004 195.926 12.6885 197C11.024 197.685 9.47972 198.018 7.90751 199.297C7.67366 199.443 7.16436 199.3 6.92188 199.216Z" fill="#FEB66C"/>
<path d="M98.8554 225.795C99.6355 225.926 99.9075 226.292 100.464 226.879C100.09 228.131 99.9093 228.98 99.6643 230.27C99.077 229.971 98.2843 229.542 97.9219 229.012C98.1943 227.717 98.4141 227.052 98.8554 225.795Z" fill="#5C2F00"/>
<path d="M133.121 249.589L134.476 248.674C135.225 249.198 135.398 249.294 135.926 250.029C135.422 250.367 134.786 250.821 134.278 251.124C133.577 250.827 133.489 250.313 133.121 249.589Z" fill="#5C2F00"/>
<path d="M117.208 8.24478C117.314 6.34472 117.511 1.76779 120.153 2.00919C123.955 2.35634 123.645 9.59591 123.301 12.2571C123.248 12.6596 123.567 12.6893 123.785 12.7374C124.798 11.9954 125.187 10.8995 126.162 10.0666C127.585 8.46258 129.761 7.3024 131.934 7.85511C135.477 10.3742 128.898 14.5931 128.668 15.711C129.46 16.4013 130.057 15.9463 130.99 15.6214C139.661 18.2489 149.553 23.7711 155.322 30.9539C155.5 31.9684 155.302 31.9796 155.948 32.8382C156.628 32.4633 157.127 31.8239 157.665 31.2431C158.817 30.0107 159.943 29.1052 161.47 28.3819C165.771 26.1716 170.073 26.3662 174.068 29.147C178.603 32.1521 180.579 39.093 178.659 44.1111C177.018 48.6632 174.45 50.8904 169.902 52.406C169.289 52.5525 168.552 52.7063 167.956 52.8741L167.94 53.053C170.253 59.3278 171.195 65.7951 172.525 72.3003C173.982 79.4397 176.047 85.9733 176.072 93.3507C176.11 105.471 170.809 113.881 161.832 121.513C162.483 121.956 162.713 122.229 163.447 122.182L163.886 122.101C165.046 122.957 166.034 124.136 167.023 125.187C172.287 130.773 176.483 138.772 178.066 146.305C180.062 155.102 179.617 164.454 174.74 172.271C171.343 177.818 165.859 181.768 159.521 183.235C152.513 184.834 145.157 183.609 139.046 179.826C135.883 177.828 131.049 172.849 135.472 169.549C135.985 169.35 136.562 169.19 137.092 169.028L137.119 167.724C135.958 167.758 135.404 167.906 134.342 168.331C132.062 166.014 131.426 163.62 132.91 160.586C134.443 158.03 136.023 157.547 138.785 156.978C139.041 155.904 139.167 156.311 138.769 155.551L138.046 155.572C136.612 155.675 135.195 156.688 134.342 155.722C133.939 154.277 134.387 152.955 135.047 151.679C138.736 145.938 146.748 147.516 152.064 149.476C153.428 148.891 153.785 149.519 154.549 149.127C153.131 147.943 150.373 146.709 148.546 146.435C147.932 146.296 147.319 146.165 146.703 146.039L146.472 145.99C145.096 145.697 143.543 145.756 142.116 145.745C141.587 145.772 140.772 145.742 140.367 146.005C140.046 145.343 139.657 144.248 139.378 143.533C139.682 143.083 140.107 143.131 140.783 142.839L141.078 142.711C135.074 127.961 124.142 117.839 109.773 111.456C101.061 108.123 95.0682 107.193 85.8055 107.208C69.8931 108.103 55.8587 114.316 45.1099 126.286C43.0624 128.567 40.4486 132.027 38.923 134.773C35.5696 133.812 33.1314 133.853 29.9606 135.447L30.7657 136.462C35.7141 135.004 41.078 136.231 43.0889 141.521C43.4274 143.958 43.2617 144.821 41.7125 146.842C40.7615 145.907 40.3174 145.525 39.1026 144.846C37.6767 144.336 36.105 143.744 34.6249 144.381L34.5586 144.679C37.0407 146.941 38.8895 144.855 41.599 150.161C42.2052 152.47 42.0988 153.816 40.8952 155.989C40.4595 156.776 38.9846 158.599 37.9781 157.707C37.574 157.896 36.7222 158.259 36.3709 158.462L36.7197 158.772C37.5857 159.745 37.643 160.256 37.9476 161.496C36.6366 167.239 30.2051 168.34 25.2982 167.039C21.5477 166.064 18.3541 163.609 16.4497 160.235C13.6067 155.277 13.6919 150.022 15.1819 144.664C19.4206 130.884 32.4767 118.853 44.6768 111.743C45.8529 111.065 47.9704 109.759 49.1333 109.356C49.5141 109.189 50.1881 108.811 50.5798 108.605C42.8127 97.9678 38.1035 87.9261 41.3023 74.349C42.3939 67.8749 47.273 60.3248 50.3259 54.5736C54.0868 47.4884 57.6591 40.8358 62.3607 34.3094L63.242 33.0509C62.741 32.4661 62.7224 32.4285 62.0544 32.0752L61.9146 32.0952C61.6125 32.4858 61.2149 33.0313 60.9043 33.3954C59.4515 32.3523 58.5108 31.5229 57.5543 29.9937C52.795 24.665 54.6987 15.2022 60.6295 11.4884C63.2504 9.69067 66.3536 8.94827 69.4963 9.54493C71.8304 10.0097 73.9818 11.1358 75.6941 12.7889C77.2565 14.5405 77.9219 15.5038 78.8841 17.6777C77.8969 18.2817 76.9269 18.822 76.0483 19.5725C76.7315 20.233 76.7389 20.1468 77.7812 20.3286C88.0232 14.8068 96.5367 12.4692 108.216 12.2715C108.872 12.6516 109.991 13.3993 110.715 13.0552C110.719 11.6662 106.087 7.98608 106.269 5.75581C106.393 4.2301 107.946 3.80206 109.178 4.12508C112.279 4.9372 114.131 7.60019 115.788 10.1214C116.293 9.32983 116.523 8.91458 117.208 8.24478Z" fill="#FF9B34"/>
<path d="M85.8129 107.197C85.5303 106.073 83.4776 104.072 82.8245 102.903C76.7392 92.0078 83.6213 78.0947 95.0122 74.4689C100.183 72.8436 105.79 73.3639 110.573 75.9125C115.295 78.4119 119.044 83.1182 120.55 88.2309C122.011 93.3031 121.42 98.7463 118.905 103.387C117.323 106.238 114.925 108.607 112.052 110.102C111.49 110.394 110.09 111.045 109.78 111.446C101.068 108.112 95.0756 107.182 85.8129 107.197Z" fill="#F2831E"/>
<path d="M98.1618 78.9818C101.543 78.6921 106.328 79.3754 109.22 81.3043C111.41 82.7668 111.747 85.6247 110.02 87.6276C107.979 89.9916 104.73 90.8143 101.733 91.0703C101.446 93.3514 101.035 95.7078 100.727 98.011L100.877 98.3187C103.833 104.245 108.258 100.108 109.571 100.553L109.627 100.875C108.876 103.076 106.222 103.468 104.195 103.386C102.033 103.034 100.857 102.023 99.5724 100.367C96.5599 102.48 93.086 102.921 90.7387 99.3322C90.5225 99.0018 90.5915 98.5594 90.7421 98.2198C92.5714 98.2003 95.5626 102.703 98.8428 97.7024C98.9545 95.6128 99.3887 92.841 99.6733 90.712C93.4848 88.218 88.982 80.209 98.1618 78.9818Z" fill="#5C3002"/>
<path d="M107.912 82.3687C108.672 82.62 108.915 82.9592 109.331 83.5769C109.335 84.1044 109.42 83.8715 109.02 84.2781C106.591 85.1307 102.487 83.7601 99.8606 83.4501C98.5905 83.3002 95.5427 82.8974 94.9609 81.6644C95.4093 80.1497 100.522 80.2409 101.732 80.5246C103.977 80.7891 105.934 81.2449 107.912 82.3687Z" fill="#843E00"/>
<path d="M101.719 80.5195C103.963 80.784 105.92 81.2398 107.898 82.3636C107.711 82.5837 107.275 83.0642 106.994 83.1094C105.545 83.343 99.892 82.3954 99.2812 81.1057L99.4704 80.7552C100.162 80.3635 100.888 80.4947 101.719 80.5195Z" fill="#A84E01"/>
<path d="M161.485 28.3658C165.785 26.1555 170.087 26.3501 174.083 29.1309C178.617 32.136 180.594 39.0769 178.673 44.095C177.032 48.6471 174.465 50.8743 169.916 52.3899C169.435 52.1581 169.26 51.5868 169.004 51.0683L168.77 50.7384C168.61 50.0728 167.837 48.1805 167.545 47.2116L167.376 47.1635C166.597 47.3015 166.397 47.3219 165.68 47.6179C165.455 46.9771 165.102 46.2359 164.823 45.6032C163.47 43.0609 162.353 40.9843 160.663 38.6202C161.043 38.0727 161.492 37.5022 161.895 36.9655C161.304 36.5463 158.092 32.0234 157.68 31.227C158.831 29.9946 159.957 29.0891 161.485 28.3658Z" fill="#FE9123"/>
<path d="M161.873 36.9722C166.036 33.4354 170.987 33.2908 173.091 38.9554C173.911 43.0324 171.099 45.9015 167.523 47.2183L167.353 47.1702C166.575 47.3082 166.375 47.3285 165.658 47.6245C165.433 46.9837 165.08 46.2426 164.8 45.6099C163.447 43.0676 162.33 40.991 160.641 38.6268C161.021 38.0794 161.469 37.5088 161.873 36.9722Z" fill="#A84E01"/>
<path d="M161.873 36.9722C166.036 33.4354 170.987 33.2908 173.091 38.9554L173.006 39.8285L172.765 39.9526C171.445 39.0171 170.425 35.6374 166.703 36.3476C165.143 36.645 164.026 37.4611 162.934 38.5678C164.098 40.4792 165.17 42.3257 166.121 44.3618C165.683 44.7806 165.244 45.1966 164.8 45.6099C163.447 43.0676 162.33 40.991 160.641 38.6268C161.021 38.0794 161.469 37.5088 161.873 36.9722Z" fill="#5C3002"/>
<path d="M166.121 44.3594C166.411 44.9631 167.258 46.6194 167.354 47.1678C166.575 47.3058 166.375 47.3261 165.658 47.6221C165.433 46.9813 165.08 46.2402 164.801 45.6075C165.244 45.1942 165.684 44.7782 166.121 44.3594Z" fill="#843E00"/>
<path d="M161.48 28.3658C165.781 26.1555 170.083 26.3501 174.079 29.1309C173.288 29.6433 169.422 28.8502 168.254 28.7737C166.525 28.6602 162.891 29.0756 161.48 28.3658Z" fill="#FEB66C"/>
<path d="M169 51.0729C171.96 50.446 174.828 49.3604 176.734 46.8914C177.494 45.9062 177.669 45.0198 178.669 44.0996C177.028 48.6517 174.461 50.8789 169.912 52.3945C169.431 52.1627 169.256 51.5914 169 51.0729Z" fill="#E17113"/>
<path d="M60.6388 11.486C63.2597 9.68824 66.3629 8.94583 69.5055 9.54249C71.8396 10.0073 73.991 11.1334 75.7034 12.7865C77.2657 14.5381 77.9312 15.5014 78.8934 17.6752C77.9061 18.2793 76.9362 18.8196 76.0576 19.5701C74.8705 20.1806 73.9157 20.8382 72.8337 21.6215L73.5554 23.165C71.1135 25.1121 67.7398 27.8284 65.7835 30.2332L64.5901 29.3397L64.4447 29.1961C63.7517 29.9463 62.5886 31.1992 62.0636 32.0728L61.9238 32.0928C61.6217 32.4833 61.2241 33.0288 60.9135 33.3929C59.4607 32.3498 58.52 31.5204 57.5635 29.9913C52.8042 24.6626 54.7079 15.1998 60.6388 11.486Z" fill="#FE9123"/>
<path d="M61.194 20.5618C63.4934 14.3522 70.3315 16.194 72.8285 21.6119L73.5502 23.1555C71.1084 25.1025 67.7346 27.8189 65.7783 30.2237L64.5849 29.3301L64.4395 29.1866C61.1883 26.9136 60.3302 24.3448 61.194 20.5618Z" fill="#A84E01"/>
<path d="M61.1992 20.5618C63.4985 14.3522 70.3367 16.194 72.8337 21.6119L73.5554 23.1555C71.1135 25.1025 67.7398 27.8189 65.7834 30.2237L64.5901 29.3301C65.7136 27.2368 69.3853 24.1919 71.3157 22.6914C70.73 21.4359 69.8845 20.2267 68.792 19.3577C65.3754 16.6399 62.8981 20.3739 61.1992 20.5618Z" fill="#5C3002"/>
<path d="M60.6406 11.486C63.2615 9.68824 66.3647 8.94583 69.5073 9.54249C71.8414 10.0073 73.9928 11.1334 75.7052 12.7865L75.1419 13.3224C73.9556 13.744 71.6429 12.0446 70.498 11.5586C67.0536 10.0966 62.1865 12.0241 60.6406 11.486Z" fill="#FEB66C"/>
<path d="M57.5586 29.9785C59.7248 31.0796 59.3209 31.276 61.9189 32.08C61.6168 32.4705 61.2192 33.016 60.9086 33.3801C59.4558 32.3371 58.515 31.5076 57.5586 29.9785Z" fill="#E17113"/>
<path d="M178.053 146.297C180.049 155.094 179.604 164.445 174.727 172.262C171.329 177.809 165.846 181.76 159.508 183.226C152.5 184.826 145.144 183.601 139.033 179.818C135.869 177.82 131.036 172.84 135.459 169.54C137.388 175.06 142.586 177.55 147.98 178.674C154.209 180.016 160.716 178.773 166.013 175.229C174.18 169.762 178.001 159.695 177.947 150.111C177.939 148.837 177.759 147.54 178.053 146.297Z" fill="#F2831E"/>
<path d="M50.5736 108.594C42.8065 97.9566 38.0973 87.915 41.2961 74.3379C41.7526 76.8074 41.4193 80.1094 41.6878 82.7614C42.5377 91.1574 45.7985 98.9604 50.8586 105.676C51.8768 107.055 52.986 108.364 54.1788 109.595C55.2657 110.698 57.1838 112.434 57.9965 113.638C57.4517 114.225 56.7714 114.919 56.2762 115.53C50.8483 115.59 49.4269 113.278 44.6706 111.732C45.8466 111.054 47.9642 109.748 49.1271 109.345C49.5079 109.178 50.1819 108.8 50.5736 108.594Z" fill="#F2831E"/>
<path d="M50.5676 108.598C51.5827 109.973 52.0517 110.563 52.633 112.215C51.424 111.338 50.1213 110.456 49.1211 109.349C49.5019 109.182 50.1759 108.803 50.5676 108.598Z" fill="#A84E01"/>
<path d="M15.1819 144.656C15.5549 146.238 15.2549 148.411 15.3304 150.088C15.6963 158.223 22.4373 164.496 30.687 163.037C33.2488 162.58 35.522 161.147 36.7197 158.764C37.5857 159.737 37.643 160.248 37.9476 161.488C36.6366 167.231 30.2051 168.332 25.2982 167.031C21.5477 166.056 18.3541 163.601 16.4497 160.227C13.6067 155.269 13.6919 150.014 15.1819 144.656Z" fill="#F2831E"/>
<path d="M41.5896 150.156C42.1959 152.466 42.0894 153.812 40.8858 155.984C40.4502 156.771 38.9752 158.595 37.9687 157.703C37.3101 156.955 36.7941 156.775 35.8789 156.364C37.1899 155.685 38.3876 155.629 39.6719 154.554C41.2364 153.242 41.3544 152.023 41.5896 150.156Z" fill="#F2831E"/>
<path d="M155.961 32.8353C156.64 32.4604 157.139 31.821 157.678 31.2402C158.09 32.0367 161.303 36.5596 161.893 36.9788C161.49 37.5155 161.041 38.086 160.661 38.6335C159.836 37.3746 157.308 33.0756 155.961 32.8353Z" fill="#E17113"/>
<path d="M132.922 160.576C133.461 163.61 134.358 167.098 137.995 167.716L137.131 167.714C135.97 167.748 135.416 167.896 134.354 168.321C132.074 166.004 131.438 163.61 132.922 160.576Z" fill="#F2831E"/>
<path d="M167.375 47.1797L167.544 47.2278C167.836 48.1966 168.609 50.0889 168.769 50.7546L169.004 51.0845C169.259 51.6029 169.434 52.1742 169.915 52.4061C169.303 52.5525 168.566 52.7064 167.969 52.8741L167.953 53.053C167.508 51.4104 166.435 49.1819 165.68 47.634C166.397 47.338 166.597 47.3177 167.375 47.1797Z" fill="#E17113"/>
<path d="M168.761 50.7383L168.995 51.0681C169.251 51.5866 169.426 52.1579 169.907 52.3897C169.294 52.5362 168.557 52.69 167.961 52.8578C167.99 51.8183 167.862 51.3821 168.761 50.7383Z" fill="#A84E01"/>
<path d="M36.3622 158.46C35.0251 157.677 32.8928 157.086 32.0781 156.234L32.1727 156.001C33.7664 155.753 34.3348 155.976 35.8796 156.367C36.7948 156.778 37.3107 156.958 37.9694 157.705C37.5653 157.894 36.7135 158.257 36.3622 158.46Z" fill="#A84E01"/>
<path d="M43.1074 141.518C43.4459 143.955 43.2802 144.818 41.731 146.839C40.78 145.904 40.3359 145.522 39.1211 144.843C40.2339 144.571 40.6879 144.402 41.7379 143.984C42.4309 143.162 42.8692 142.561 43.1074 141.518Z" fill="#E17113"/>
<path d="M72.8398 21.61C73.9219 20.8267 74.8767 20.1691 76.0637 19.5586C76.7469 20.219 76.7543 20.1329 77.7966 20.3147C76.4039 21.267 74.9246 22.1807 73.5615 23.1535L72.8398 21.61Z" fill="#E17113"/>
<path d="M64.4202 29.1797L64.5656 29.3233L65.7589 30.2168C65.3948 30.6331 63.5832 32.7494 63.2266 33.032C62.7256 32.4473 62.7071 32.4096 62.0391 32.0563C62.564 31.1828 63.7271 29.9298 64.4202 29.1797Z" fill="#E17113"/>
<path d="M135.057 151.676C135.57 153.663 135.511 155.347 138.056 155.569C136.622 155.672 135.205 156.684 134.352 155.718C133.949 154.274 134.398 152.951 135.057 151.676Z" fill="#F2831E"/>
<path d="M126.16 10.0504C127.583 8.44632 129.76 7.28615 131.932 7.83885C131.558 8.80915 126.967 10.4186 126.16 10.0504Z" fill="#FEB66C"/>
<path d="M146.719 146.037C147.068 144.847 147.531 142.964 148.241 142L148.43 141.957C148.933 142.858 148.744 145.402 148.562 146.434C147.947 146.295 147.335 146.164 146.719 146.037Z" fill="#A84E01"/>
<path d="M154.562 149.117C155.921 150.104 156.868 150.985 157.647 152.484C155.798 151.6 153.88 150.474 152.078 149.467C153.442 148.881 153.799 149.51 154.562 149.117Z" fill="#E17113"/>
<path d="M141.06 142.697C141.337 143.485 141.912 144.978 142.098 145.731C141.568 145.758 140.754 145.727 140.348 145.99C140.028 145.329 139.639 144.234 139.359 143.519C139.664 143.068 140.089 143.117 140.765 142.825L141.06 142.697Z" fill="#5C2F00"/>
<path d="M161.48 123.482C160.605 124.147 158.83 125.354 157.74 124.991L157.719 124.675C158.293 123.861 159.301 123.378 160.187 122.797C160.65 123.089 160.953 123.318 161.48 123.482Z" fill="#A84E01"/>
<path d="M137.105 167.717L137.97 167.719C138.84 167.823 139.049 167.8 139.809 168.182L139.986 168.473C139.337 169.232 138.002 169.045 137.078 169.021L137.105 167.717Z" fill="#A84E01"/>
<path d="M160.16 122.788L161.814 121.498C162.464 121.941 162.695 122.215 163.428 122.167C162.749 122.644 162.162 123.04 161.454 123.473C160.926 123.308 160.623 123.08 160.16 122.788Z" fill="#843E00"/>
<path d="M115.801 10.1169C116.305 9.32529 116.536 8.91004 117.22 8.24023C117.312 9.35735 117.462 10.1052 117.127 11.1727L116.837 11.3769C116.271 11.1221 116.12 10.6759 115.801 10.1169Z" fill="#5C2F00"/>
<path d="M138.762 155.537C139.601 155.66 140.095 155.663 140.828 156.101L141.044 156.443C140.484 157.149 139.637 156.969 138.778 156.964C139.034 155.89 139.16 156.297 138.762 155.537Z" fill="#843E00"/>
<path d="M29.9729 135.438L30.778 136.452C29.7554 136.818 28.7222 137.153 27.6797 137.459C28.3239 136.652 29.1559 136.07 29.9729 135.438Z" fill="#A84E01"/>
<path d="M147.161 88.1782C158.347 87.3205 162.129 100.666 150.269 102.974C145.662 103.355 140.333 101.238 139.728 96.1081C139.515 94.3537 140.009 92.5873 141.099 91.1963C142.704 89.168 144.74 88.5144 147.161 88.1782Z" fill="#FEB66C"/>
<path d="M57.9728 73.4129C62.1674 73.1855 66.6748 75.6531 67.5668 79.9852C67.9372 81.744 67.578 83.5781 66.5713 85.0672C65.0954 87.2201 63.0707 87.8515 60.6778 88.292C56.1617 88.3797 51.11 86.1642 50.5266 81.139C50.3166 79.3788 50.8293 77.6086 51.9475 76.2332C53.499 74.3099 55.6446 73.6801 57.9728 73.4129Z" fill="#FEB66C"/>
<path d="M131.101 71.2175C140.24 70.1348 141.145 84.208 133.196 87.0566C124.064 88.6711 122.724 74.391 131.101 71.2175Z" fill="#5C3002"/>
<path d="M131.396 73.8402C132.517 73.481 133.717 74.1016 134.07 75.2238C134.423 76.3458 133.796 77.5413 132.672 77.8888C131.557 78.2338 130.371 77.6126 130.02 76.4987C129.67 75.3847 130.285 74.1967 131.396 73.8402Z" fill="#F3F3F2"/>
<path d="M78.2184 63.1026C87.1491 62.4026 87.2031 76.9159 79.0435 79.0994C69.8104 79.6593 69.9834 65.4356 78.2184 63.1026Z" fill="#5C3002"/>
<path d="M78.2821 65.9055C79.0155 65.6627 79.8232 65.8412 80.3858 66.371C80.9483 66.9009 81.1751 67.6962 80.9764 68.443C80.7776 69.1897 80.1857 69.7674 79.4342 69.9476C78.3382 70.2104 77.2299 69.5628 76.9209 68.4788C76.6119 67.3948 77.2122 66.2601 78.2821 65.9055Z" fill="#F3F3F2"/>
<path d="M132.034 57.5204C135.12 57.3305 137.338 58.3498 139.458 60.6183C140.027 61.2277 140.408 61.8559 140.361 62.7071C139.961 63.4076 140.233 63.1199 139.442 63.5238C138.249 62.142 136.502 60.1394 134.621 59.8315C133.454 59.6406 131.605 60.3122 130.719 59.0047C130.793 58.1689 131.355 57.8501 132.034 57.5204Z" fill="#5C3002"/>
<path d="M80.781 49.9715C82.3464 49.8653 84.7237 49.9513 85.6942 51.3662C85.8111 52.0821 85.8463 51.7445 85.593 52.4183C85.4355 52.5246 85.2779 52.6307 85.1204 52.737C82.8478 52.5781 82.5557 51.9801 80.1802 52.2767L79.9152 52.3114C78.0722 52.8443 77.7344 53.592 76.3618 54.02C75.7722 53.9211 76.0305 54.0514 75.6044 53.5381C75.4816 51.6761 79.321 50.3381 80.781 49.9715Z" fill="#5C3002"/>
<path d="M41.608 136.231C40.9528 135.735 41.004 135.937 40.8685 135.315C41.1819 134.026 42.227 133.045 42.9927 131.929C46.9914 126.101 52.5177 120.985 58.5678 117.268C71.3605 109.453 86.743 107.066 101.303 110.638C115.701 114.148 128.088 123.293 135.684 136.02C137.318 138.736 138.139 140.632 139.389 143.516C139.669 144.231 140.058 145.326 140.379 145.988L139.541 146.515C138.019 146.505 135.848 147.832 134.806 148.917C132.969 150.828 132.246 152.736 132.302 155.348C132.699 155.968 132.924 156.656 133.192 157.344C132.376 158.07 132.135 158.269 131.49 159.176C129.998 162.358 129.721 165.148 131.708 168.265C132.034 168.604 132.744 169.15 132.608 169.632C132.165 171.221 131.954 171.828 131.884 173.495C133.261 178.254 135.925 180.312 140.204 182.693C139.932 183.587 139.64 184.661 139.298 185.513C137.415 190.368 135.518 194.535 132.401 198.741C131.457 200.013 130.032 201.944 128.886 203.031C127.892 203.971 126.643 204.875 125.609 205.843C124.698 206.695 123.5 208.093 122.666 208.853C121.039 210.334 116.989 213.379 114.984 214.195C113.112 214.959 110.345 214.807 108.023 215.93C105.681 217.061 104.729 218.144 102.758 219.482C101.663 220.226 97.5009 220.929 96.0283 221.156C81.3434 223.354 66.3853 219.648 54.4255 210.848C42.1627 201.894 33.9829 188.415 31.7027 173.405C31.5588 171.944 31.4469 170.686 31.3984 169.222C36.11 168.18 40.9822 165.197 39.5849 159.582C42.9168 157.346 43.5841 155.885 44.0716 151.961C43.5559 150.178 43.5923 149.918 42.7497 148.241C46.7972 144.606 45.5332 139.351 41.608 136.231Z" fill="#F3F3F2"/>
<path d="M44.0716 151.977C44.7112 152.865 44.5146 153.538 44.3626 154.643L43.5227 158.835C42.0103 171.33 44.3795 182.482 52.1934 192.613C59.6581 202.291 70.1626 208.384 82.3258 209.83C93.8947 211.2 105.533 207.915 114.681 200.704C124.267 193.154 129.49 183.406 131.378 171.491C131.4 171.141 131.506 170.57 131.562 170.206L131.708 168.28C132.034 168.619 132.744 169.165 132.608 169.648C132.165 171.237 131.954 171.844 131.884 173.51C133.261 178.27 135.925 180.327 140.204 182.709C139.932 183.602 139.64 184.676 139.298 185.528C137.415 190.383 135.518 194.55 132.401 198.756C131.457 200.028 130.032 201.96 128.886 203.046C127.892 203.986 126.643 204.891 125.609 205.858C124.698 206.71 123.5 208.108 122.666 208.868C121.039 210.349 116.989 213.394 114.984 214.21C113.112 214.974 110.345 214.822 108.023 215.945C105.681 217.076 104.729 218.159 102.758 219.497C101.663 220.241 97.5009 220.944 96.0283 221.171C81.3434 223.369 66.3853 219.663 54.4255 210.863C42.1627 201.909 33.9829 188.43 31.7027 173.42C31.5588 171.959 31.4469 170.701 31.3984 169.237C36.11 168.196 40.9822 165.212 39.5849 159.597C42.9168 157.361 43.5841 155.9 44.0716 151.977Z" fill="#65A534"/>
<path d="M44.0716 151.977C44.7112 152.865 44.5146 153.538 44.3626 154.643L43.5227 158.835C42.5497 159.507 41.6709 160.307 40.9096 161.211C40.4563 164.706 40.4359 167.54 37.4118 170.012C35.5063 171.568 33.7815 171.494 31.8339 172.609C31.7863 172.903 31.7427 173.173 31.7027 173.42C31.5588 171.959 31.4469 170.701 31.3984 169.237C36.11 168.196 40.9822 165.212 39.5849 159.597C42.9168 157.361 43.5841 155.9 44.0716 151.977Z" fill="#58952B"/>
<path d="M131.692 168.275C132.018 168.614 132.728 169.16 132.593 169.643C132.149 171.232 131.939 171.839 131.868 173.505C133.245 178.265 135.909 180.322 140.188 182.704C139.916 183.597 139.624 184.671 139.282 185.523C135.632 183.855 131.733 180.418 131.384 175.975C131.27 174.539 131.602 173.41 131.4 171.787L131.362 171.486C131.384 171.136 131.49 170.565 131.546 170.201L131.692 168.275Z" fill="#58952B"/>
<path d="M131.705 168.275C132.031 168.614 132.74 169.16 132.605 169.643C132.162 171.232 131.951 171.839 131.881 173.505C131.737 172.648 131.64 171.107 131.559 170.201L131.705 168.275Z" fill="#518824"/>
<path d="M41.5794 136.231C40.9242 135.735 40.9753 135.937 40.8398 135.315C41.1533 134.026 42.1984 133.045 42.9641 131.929C46.9628 126.101 52.489 120.985 58.5392 117.268C71.3319 109.453 86.7144 107.066 101.274 110.638C115.672 114.148 128.06 123.293 135.655 136.02C137.289 138.736 138.111 140.632 139.361 143.516C139.64 144.231 140.029 145.326 140.35 145.988L139.512 146.515C137.99 146.505 135.819 147.832 134.778 148.917C132.94 150.828 132.218 152.736 132.274 155.348C132.67 155.968 132.895 156.656 133.164 157.344C132.347 158.07 132.106 158.269 131.461 159.176L131.101 156.871C127.753 140.743 116.409 127.237 100.429 122.473C88.9779 119.005 76.6131 120.299 66.1286 126.063C54.4153 132.446 47.9844 142.105 44.334 154.628C44.486 153.523 44.6826 152.85 44.043 151.961C43.5272 150.178 43.5636 149.918 42.721 148.241C46.7686 144.606 45.5046 139.351 41.5794 136.231Z" fill="#65A534"/>
<path d="M41.5794 136.231C40.9242 135.735 40.9753 135.937 40.8398 135.315C41.1533 134.026 42.1984 133.045 42.9641 131.929C46.9628 126.101 52.489 120.985 58.5392 117.268C71.3319 109.453 86.7144 107.066 101.274 110.638C115.672 114.148 128.06 123.293 135.655 136.02C137.289 138.736 138.111 140.632 139.361 143.516C139.64 144.231 140.029 145.326 140.35 145.988L139.512 146.515C139.251 146.369 139.022 146.245 138.91 145.943C135.291 136.011 129.171 127.647 120.536 121.298C108.788 112.555 94.0334 108.874 79.5563 111.074C68.0856 112.854 57.4017 118.286 49.2142 126.588C46.1135 129.732 44.1338 132.728 41.5794 136.231Z" fill="#82BC52"/>
<path d="M132.294 155.355C132.69 155.975 132.915 156.663 133.184 157.352C132.368 158.078 132.126 158.276 131.481 159.184L131.121 156.878L131.24 156.712C132.186 156.44 132.256 156.557 132.159 155.611L132.294 155.355Z" fill="#518824"/>
<path d="M111.119 144.014C111.447 143.989 111.774 143.977 112.102 143.977C113.965 143.987 115.741 144.764 117.015 146.122C118.21 147.41 118.833 149.123 118.746 150.878C118.543 154.596 115.107 156.989 112.576 159.452L103.098 168.711L90.1601 181.453C87.1719 184.404 82.7215 190.162 78.3026 189.643C74.6302 189.213 72.1628 185.183 70.0499 182.443C68.1651 179.985 66.2571 177.544 64.326 175.121C61.7302 171.641 57.2661 167.892 57.7105 163.602C57.904 161.849 58.7862 160.246 60.1626 159.144C61.5214 158.05 63.2085 157.551 64.9375 157.756C68.5153 158.182 71.0871 162.554 73.2073 165.247L79.5774 173.203L98.7816 154.46C101.898 151.397 105.206 148.021 108.492 145.113C109.106 144.569 110.306 144.245 111.119 144.014Z" fill="#65A534"/>
<path d="M62.072 32.0586C62.74 32.4119 62.7586 32.4495 63.2596 33.0343L62.3782 34.2928C62.037 34.0206 61.3251 33.621 60.9219 33.3787C61.2325 33.0147 61.6301 32.4692 61.9322 32.0786L62.072 32.0586Z" fill="#A84E01"/>
</svg>
