<svg width="300" height="333" viewBox="0 0 300 333" fill="none" xmlns="http://www.w3.org/2000/svg">
<path d="M147.386 21.5184L147.585 21.0503C147.698 20.7914 147.817 20.5354 147.927 20.2746C148.585 18.7213 149.188 17.0303 150.092 15.5993C152.459 11.8564 156.18 9.16338 160.539 8.29596C164.736 7.46006 168.973 8.59972 172.467 10.9937C176.806 13.9676 179.621 18.6162 180.536 23.7662C181.798 30.8623 179.365 36.1643 175.439 41.9047C185.287 56.6557 190.586 72.362 195.593 89.2166C203.688 116.463 205.845 133.952 191.926 159.624C196.232 158.556 200.489 157.219 204.748 155.972C205.046 153.175 205.17 149.033 206.544 146.605C208.448 143.242 211.283 144.54 213.762 142.848C216.42 141.033 217.583 133.122 220.111 130.412C224.224 126.006 229.869 131.351 233.277 129.718C234.423 129.169 234.406 127.747 236.131 128.451C240.206 130.114 239.426 133.264 244.756 133.051C246.871 134.11 247.002 134.205 248.109 136.29C247.971 138.461 247.757 140.294 248.504 142.367C250.337 142.98 251.361 143.367 252.657 144.91C253.597 151.977 251.997 158.565 249.543 165.189C242.359 184.58 225.74 202.35 207.139 210.911C212.092 217.853 215.103 225.525 218.167 233.411C221.897 232.531 227.782 231.911 231.322 233.598C233.842 234.798 234.779 236.455 235.724 238.981C238.728 239.96 241.474 240.672 242.964 243.731C244.527 246.94 243.736 250.854 242.454 254.012C240.737 258.242 238.441 262.405 235.231 265.674C232.431 265.122 229.582 264.055 226.835 263.244L222.495 266.259C228.247 266.984 233.465 268.049 238.406 271.242C240.579 272.354 242.551 273.45 244.51 274.91L247.514 278.931C248.805 281.419 248.837 283.194 248.819 285.968L249.959 284.011L249.218 284.861L250.265 284.514C250.349 286.317 250.355 288.132 250.661 289.914L252.03 286.849C253.122 287.975 254.558 289.321 255.289 290.716C256.618 293.247 256.847 295.588 256.285 298.333C250.604 308.282 237.737 305.231 229.214 310.006C230.872 312.676 231.821 313.83 231.957 317.048C229.771 320.668 226.016 322.811 222.094 324.143C206.27 329.518 185.459 326.923 170.693 319.615C161.504 322.228 152.726 323.085 143.244 323.362C141.712 325.357 139.769 327.336 137.464 328.416C122.314 335.519 99.264 331.412 83.9961 326.611C79.5349 325.208 77.598 320.074 74.3464 318.866C71.0374 317.636 64.8039 317.902 61.0663 317.219C50.8253 315.347 40.4125 312.649 30.4482 309.618C21.277 306.829 6.76322 301.894 2.28208 292.616C0.992251 289.946 0.763415 287.02 1.81266 284.226C3.06697 280.887 5.78292 278.723 8.93573 277.308C6.54498 272.558 4.62441 267.586 3.20144 262.461C-0.705877 248.323 -0.760794 233.671 1.5525 219.271C5.95006 191.896 18.3697 167.797 26.3832 141.581C36.4702 108.582 37.9836 75.9129 55.6411 45.1385C54.3033 43.4629 53.0668 41.7471 52.0588 39.8489C49.2225 34.44 48.6517 28.1253 50.4723 22.2951C52.1508 17.0542 55.8554 12.4984 60.8678 10.1254C65.0062 8.16697 69.5862 7.96634 73.8435 9.67062C79.9332 12.1086 82.4384 16.9597 84.9359 22.5635C106.687 15.9709 125.467 16.0493 147.386 21.5184Z" fill="#FF9A43"/>
<path d="M214.348 234.008L215.881 236.227C221.134 235.664 225.617 235.045 230.428 237.798L231.149 238.801C232.46 240.045 233.732 241.374 235.172 242.467L235.723 238.981C238.728 239.96 241.474 240.672 242.964 243.732C244.526 246.941 243.735 250.855 242.454 254.012C240.736 258.242 238.44 262.405 235.23 265.674C232.43 265.122 229.581 264.055 226.834 263.244L222.494 266.259C228.247 266.984 233.464 268.049 238.406 271.242C240.579 272.354 242.551 273.451 244.51 274.91L247.514 278.931C248.805 281.42 248.836 283.194 248.818 285.968L249.959 284.012L249.218 284.862L250.264 284.514C250.348 286.318 250.355 288.133 250.661 289.915L252.029 286.849C253.122 287.975 254.557 289.321 255.289 290.716C256.618 293.248 256.847 295.588 256.284 298.334C250.603 308.282 237.737 305.231 229.213 310.007C230.871 312.677 231.821 313.831 231.956 317.048C229.77 320.669 226.016 322.812 222.093 324.143C206.27 329.518 185.458 326.923 170.693 319.615C161.503 322.229 152.726 323.086 143.244 323.363C141.712 325.358 139.768 327.336 137.464 328.416C122.313 335.519 99.2636 331.412 83.9957 326.612C79.5345 325.209 77.5976 320.075 74.346 318.866C71.037 317.637 64.8035 317.902 61.0659 317.219C50.8249 315.348 40.4122 312.649 30.4478 309.619C21.2766 306.829 6.76284 301.894 2.28171 292.616C0.991875 289.946 0.76304 287.02 1.81229 284.227C3.06659 280.888 5.78255 278.723 8.93536 277.308C23.2563 297.85 32.4341 298.485 54.8719 305.722C60.1155 307.414 65.2179 310.799 70.5737 311.89C74.3978 312.669 78.7218 311.954 82.565 311.541C83.266 310.795 83.2517 310.292 83.5038 309.32C81.6625 307.599 81.4571 307.691 79.0761 307.446L79.3091 306.212C80.2891 306.5 81.1668 306.506 82.1811 306.558L81.2212 303.012L82.2307 302.46C80.3702 296.068 80.7494 289.781 83.8257 283.913L89.0538 278.383L90.1856 273.409C90.8188 272.878 91.4587 272.365 92.1435 271.902C101.338 265.699 111.72 268.244 121.748 270.296L120.739 256.73C122.167 252.388 123.559 248.501 126.472 244.909C131.361 238.88 137.98 235.346 145.711 234.627C156.161 233.655 164.025 237.979 171.871 244.358C174.967 247.539 177.97 250.65 180.614 254.224C184.744 251.166 190.947 248.237 194.237 244.516C199.168 241.176 204.204 237.993 209.337 234.973L214.348 234.008Z" fill="#8F4C0E"/>
<path d="M145.722 252.699C147.139 252.093 148.574 251.879 150.08 251.617C152.743 253.743 155.291 256.009 158.41 257.43C158.846 259.209 160.031 260.486 160.442 262.102C162.535 264.929 164.364 267.111 167.207 269.245C169.78 268.969 170.421 268.751 172.826 269.892L174.164 272.086C173.656 275.264 174.061 276.584 176.057 279.23C178.593 282.591 185.358 284.504 189.255 286.078L190.4 283.116C188.959 282.972 188.234 282.471 187.046 281.672L186.96 280.042L188.915 277.947L187.923 277.234C188.707 276.744 189.437 275.9 190.097 275.27C198.995 275.959 208.315 276.619 216.829 279.503C216.965 279.276 217.096 279.047 217.237 278.824C217.8 277.942 218.58 276.742 219.49 276.196C215.941 275.644 215.225 275.076 212.967 272.489C212.557 269.878 212.727 269.864 214.008 267.721C216.729 265.782 219.337 266.136 222.496 266.258C228.248 266.983 233.466 268.049 238.408 271.241C240.58 272.353 242.553 273.45 244.512 274.91L247.515 278.93C248.806 281.419 248.838 283.193 248.82 285.967L246.604 288.406C244.152 292.956 240.732 294.916 235.934 296.331C234.684 296.698 233.43 296.996 232.153 297.254C230.685 297.315 229.596 297.391 228.229 297.949C227.854 299.507 227.557 301.035 227.305 302.616L226.293 303.158L223.966 307.555C222.953 309.413 222.023 310.791 220.528 312.294C215.237 309.125 209.934 314.143 204.528 312.714C201.908 312.022 200.733 310.711 199.524 308.359C199.421 308.157 199.326 307.952 199.226 307.748L196.986 307.743C193.263 306.587 189.959 304.358 186.614 302.393L185.152 302.256L182.224 300.217C180.887 300.678 180.105 301.254 178.705 300.785C175.983 299.873 174.695 296.714 173.592 294.312L172.854 294.52C170.337 295.038 169.319 295.054 167.341 296.766C165.387 295.429 164.356 294.233 163.044 292.27C162.898 292.073 162.757 291.872 162.607 291.677C158.924 286.89 153.504 286.972 147.928 286.138C147.052 284.574 146.389 283.224 145.929 281.466L147.422 279.973C146.169 279.476 144.789 279.304 143.467 279.044L143.839 273.36L140.93 273.009L136.319 268.632L135.58 266.766L139.212 265.013L141.858 259.041C141.728 258.598 141.582 258.235 141.654 257.744C142.049 255.082 143.796 254.271 145.722 252.699Z" fill="#F2BA6F"/>
<path d="M219.489 276.197C215.94 275.644 215.224 275.076 212.966 272.489C212.555 269.878 212.726 269.864 214.007 267.721C216.728 265.782 219.336 266.136 222.495 266.258C228.247 266.984 233.465 268.049 238.407 271.241C240.579 272.353 242.552 273.45 244.51 274.91L247.514 278.931C248.805 281.419 248.837 283.193 248.819 285.968L246.603 288.406C244.151 292.957 240.731 294.916 235.933 296.331C234.683 296.699 233.429 296.997 232.152 297.255C230.139 295.452 230.03 294.938 229.248 292.463C228.329 288.763 224.091 284.406 222.067 280.806L223.71 281.999C222.918 279.173 221.672 278.092 219.489 276.197Z" fill="#E89A2C"/>
<path d="M219.489 276.197C215.94 275.644 215.224 275.076 212.966 272.489C212.555 269.878 212.726 269.864 214.007 267.721C216.728 265.782 219.336 266.136 222.495 266.258C228.247 266.984 233.465 268.049 238.407 271.241L236.696 271.718L235.724 270.915L234.566 271.59L234.544 271.831L235.873 271.593L236.503 272.054C236.708 274.35 236.314 275.443 235.288 277.486C234.388 277.268 233.902 277.038 233.189 276.439C231.099 274.681 229.8 274.097 227.114 273.595L227.184 275.534C224.861 277.088 222.147 276.423 219.489 276.197Z" fill="#F7B13C"/>
<path d="M237.202 291.721C238.664 290.75 239.773 290.702 241.465 290.598C242.668 290.524 244.547 288.252 245.494 287.35L246.603 288.407C244.151 292.957 240.731 294.917 235.933 296.331C234.682 296.699 233.428 296.997 232.151 297.255C230.139 295.453 230.029 294.939 229.248 292.463C231.477 290.44 233.918 292.631 237.202 291.721Z" fill="#DF8027"/>
<path d="M235.289 277.488C236.315 275.444 236.709 274.351 236.504 272.056L235.873 271.594L234.545 271.832L234.567 271.591L235.724 270.916L236.697 271.719L238.407 271.243C240.58 272.355 242.552 273.451 244.511 274.911L247.515 278.932C244.807 278.106 243.185 278.404 240.484 279.2C240.188 279.288 239.894 279.383 239.6 279.474C237.947 278.996 236.757 278.351 235.289 277.488Z" fill="#EBAC51"/>
<path d="M237.203 291.721L236.033 289.343C234.385 288.769 233.248 288.388 232.016 287.07C236.207 286.892 239.29 284.934 243.17 283.625L244.892 284.55L245.495 287.35C244.548 288.253 242.669 290.524 241.466 290.598C239.774 290.702 238.665 290.75 237.203 291.721Z" fill="#C8761D"/>
<path d="M183.899 288.781C189.264 291.094 197.324 292.408 199.842 298.019L202.004 301.375C202.368 303.358 202.742 305.182 203.466 307.068C205.946 308.256 207.053 308.548 209.875 307.686C213.692 306.519 219.771 301.105 223.229 301.469C223.492 303.37 223.306 305.86 223.966 307.555C222.953 309.413 222.023 310.792 220.528 312.294C215.237 309.126 209.934 314.144 204.528 312.715C201.908 312.022 200.733 310.711 199.524 308.359C199.421 308.158 199.326 307.952 199.226 307.749L196.986 307.743C193.263 306.587 189.959 304.359 186.614 302.394C184.534 299.625 182.926 298.262 182.594 294.772C183.934 292.92 183.947 291.824 183.918 289.552C183.916 289.295 183.906 289.038 183.899 288.781Z" fill="#E48E33"/>
<path d="M182.631 294.488C184.608 294.638 187.018 294.627 188.926 295.156C191.652 295.912 192.206 297.607 193.506 299.861C192.268 300.291 191.161 300.668 189.83 300.478C186.569 300.013 184.371 296.989 182.631 294.488Z" fill="#F2BA6F"/>
<path d="M223.551 291.57C225.331 294.868 225.874 296.909 226.108 300.708C226.159 301.526 226.239 302.34 226.293 303.158L223.965 307.555C223.305 305.86 223.491 303.369 223.229 301.468C219.77 301.104 213.691 306.519 209.874 307.685C207.053 308.547 205.946 308.256 203.465 307.067C202.741 305.182 202.367 303.358 202.003 301.375L199.842 298.019L203.565 295.705C205.353 294.861 207.415 294.415 209.319 293.867C210.948 295.202 212.159 296.402 214.336 296.679C215.582 294.897 216.889 293.275 218.327 291.644C220.119 292.092 221.733 291.761 223.551 291.57Z" fill="#F2BA6F"/>
<path d="M203.565 295.705C206.491 296.332 208.145 296.25 210.258 298.568C210.066 299.45 210.199 300.055 209.415 300.574C207.445 301.882 205.844 302.292 203.502 301.805C202.897 301.679 202.638 301.575 202.003 301.375L199.842 298.019L203.565 295.705Z" fill="#E89A2C"/>
<path d="M165.768 284.596C168.335 282.4 169.113 281.117 172.601 281.025C176.81 283.379 179.361 286.777 183.899 288.782C183.906 289.039 183.915 289.295 183.918 289.552C183.947 291.824 183.934 292.92 182.594 294.772C182.926 298.262 184.533 299.625 186.613 302.394L185.152 302.257L182.224 300.218C180.887 300.679 180.105 301.255 178.704 300.786C175.983 299.874 174.695 296.714 173.592 294.313L172.854 294.521C170.337 295.039 169.319 295.055 167.341 296.767C165.387 295.43 164.355 294.233 163.044 292.271L164.619 290.884L164.376 288.642L162.225 286.2L165.768 284.596Z" fill="#E09E4D"/>
<path d="M164.375 288.642C167.144 288.618 167.813 288.952 169.811 290.931C170.913 292.023 171.883 293.309 172.853 294.521C170.336 295.039 169.318 295.055 167.34 296.767C165.386 295.429 164.354 294.233 163.043 292.271L164.618 290.884L164.375 288.642Z" fill="#DF8027"/>
<path d="M173.592 294.314L175.544 293.092C178.851 294.423 180.286 297.303 182.224 300.218C180.887 300.68 180.104 301.256 178.704 300.787C175.982 299.875 174.695 296.715 173.592 294.314Z" fill="#C8761D"/>
<path d="M190.096 275.271C198.994 275.96 208.314 276.62 216.827 279.504C216.964 279.278 217.095 279.049 217.236 278.826C217.799 277.943 218.579 276.744 219.489 276.198C221.671 278.093 222.918 279.175 223.71 282.001L222.067 280.807C224.091 284.407 228.328 288.764 229.248 292.464C230.029 294.939 230.139 295.453 232.152 297.256C230.684 297.316 229.595 297.393 228.228 297.951C227.853 299.509 227.556 301.037 227.304 302.617L226.292 303.16C226.239 302.342 226.158 301.527 226.108 300.71C225.874 296.91 225.33 294.87 223.55 291.572C214.471 279.545 202.137 281.068 188.914 277.949L187.922 277.236C188.706 276.746 189.436 275.902 190.096 275.271Z" fill="#9F540F"/>
<path d="M155.04 276.217L158.975 276.078C162.116 278.485 163.768 281.253 165.767 284.597L162.223 286.201L164.375 288.642L164.618 290.885L163.043 292.272C162.897 292.074 162.755 291.873 162.605 291.678C158.923 286.891 153.502 286.973 147.927 286.139C147.05 284.575 146.387 283.225 145.928 281.467L147.421 279.974C147.672 279.997 147.921 280.037 148.173 280.044C151.573 280.134 152.817 278.453 155.04 276.217Z" fill="#E09E4D"/>
<path d="M158.975 276.078C162.116 278.485 163.768 281.253 165.767 284.597L162.223 286.201C159.781 284.49 157.638 283.15 156.051 280.545C156.426 277.712 156.849 277.805 158.975 276.078Z" fill="#C8761D"/>
<path d="M160.44 262.104C162.533 264.931 164.362 267.113 167.206 269.246L166.682 270.557C164.271 271.44 163.151 271.829 160.62 270.71C157.991 269.548 157.275 268.529 156.164 266.081C157.085 263.338 157.956 263.419 160.44 262.104Z" fill="#C8761D"/>
<path d="M143.838 273.361C148.335 273.396 151.16 273.642 155.041 276.217C152.818 278.453 151.574 280.134 148.174 280.044C147.922 280.037 147.673 279.997 147.422 279.974C146.169 279.477 144.789 279.305 143.467 279.045L143.838 273.361Z" fill="#C8761D"/>
<path d="M141.857 259.041C144.429 259.822 144.655 259.933 146.272 262.071C146.465 264.72 146.349 265.29 145.216 267.694L143.092 268.648C140.995 267.737 140.365 266.964 139.211 265.013L141.857 259.041Z" fill="#E89A2C"/>
<path d="M190.398 283.116C193.158 282.638 194.86 282.646 197.516 283.571L199.194 285.536L198.767 287.498C195.953 288.624 194.62 288.53 191.697 287.261C190.869 286.901 190.059 286.487 189.254 286.078L190.398 283.116Z" fill="#E89A2C"/>
<path d="M212.39 290.553C214.799 289.751 215.895 288.986 218.373 289.709L218.326 291.646C216.888 293.276 215.581 294.898 214.335 296.681C212.158 296.404 210.947 295.204 209.318 293.869L208.957 292.223L211.204 291.047L212.39 290.553Z" fill="#F2C58E"/>
<path d="M145.721 252.699C147.138 252.093 148.573 251.879 150.079 251.617C151.72 254.361 152.782 255.465 152.603 258.745L151.141 259.364C147.936 257.454 147.422 255.91 145.721 252.699Z" fill="#E48E33"/>
<path d="M211.206 291.046C208.712 290.392 207.592 290.378 205.781 288.484L206.095 286.511L208.211 285.566C210.215 286.395 211.18 286.878 212.036 288.982C212.314 289.664 212.309 289.897 212.391 290.552L211.206 291.046Z" fill="#DF8027"/>
<path d="M8.93536 277.309C23.2563 297.851 32.4341 298.485 54.8719 305.722C60.1155 307.414 65.2179 310.799 70.5737 311.89C74.3978 312.669 78.7218 311.954 82.565 311.541C84.5716 313.034 86.1953 315.612 88.2296 317.286C96.2685 323.902 107.989 327.583 118.356 326.493C126.544 325.632 132.757 321.637 137.872 315.386C143.017 315.61 148.58 316.09 153.668 315.322C160.796 314.248 165.897 310.931 170.064 305.109C173.941 306.928 177.317 311.949 181.113 314.462C189.488 320.008 199.892 323.829 210.03 321.752C228.535 317.96 225.601 306.843 231.383 302.234C238.657 296.433 243.745 300.685 250.661 289.915L252.029 286.849C253.122 287.976 254.557 289.322 255.289 290.716C256.618 293.248 256.847 295.588 256.284 298.334C250.603 308.283 237.737 305.231 229.213 310.007C230.871 312.677 231.821 313.831 231.956 317.049C229.77 320.669 226.016 322.812 222.093 324.144C206.27 329.518 185.458 326.924 170.693 319.615C161.503 322.229 152.726 323.086 143.244 323.363C141.712 325.358 139.768 327.336 137.464 328.417C122.313 335.52 99.2636 331.413 83.9957 326.612C79.5345 325.209 77.5976 320.075 74.346 318.867C71.037 317.637 64.8035 317.903 61.0659 317.22C50.8249 315.348 40.4122 312.649 30.4478 309.619C21.2766 306.83 6.76284 301.894 2.28171 292.616C0.991875 289.946 0.76304 287.02 1.81229 284.227C3.06659 280.888 5.78255 278.723 8.93536 277.309Z" fill="#E4CBAF"/>
<path d="M215.882 236.227C221.135 235.664 225.617 235.045 230.429 237.798L231.15 238.801C232.46 240.045 233.732 241.374 235.173 242.467L235.724 238.981C238.728 239.96 241.474 240.672 242.964 243.732C244.527 246.941 243.736 250.855 242.454 254.012C240.737 258.242 238.441 262.405 235.231 265.675C232.431 265.122 229.582 264.055 226.835 263.244L222.495 266.259C219.336 266.137 216.728 265.782 214.007 267.722C212.726 269.865 212.555 269.879 212.966 272.49C215.224 275.077 215.94 275.645 219.489 276.197C218.579 276.743 217.799 277.943 217.236 278.825C217.095 279.048 216.964 279.277 216.827 279.504C208.314 276.62 198.994 275.959 190.096 275.271L189.873 271.921C190.992 270.711 191.931 269.451 192.883 268.112L192.614 266.85L189.037 269.253C186.115 266.489 184.143 260.877 182.33 257.214C187.513 253.371 200.239 247.208 203.659 243.466C206.941 240.114 211.704 238.259 215.882 236.227Z" fill="#CB741B"/>
<path d="M231.15 238.801C232.46 240.046 233.732 241.374 235.172 242.467L235.723 238.981C238.728 239.961 241.474 240.672 242.964 243.732C244.526 246.941 243.736 250.855 242.454 254.012C240.737 258.242 238.441 262.406 235.231 265.675C232.43 265.122 229.581 264.055 226.835 263.244L226.346 262.033C225.546 260.811 225.182 259.598 224.709 258.228C223.843 254.314 224.349 252.959 226.096 249.466L224.384 248.66L226.709 246.237L222.518 245.786C222.549 245.628 222.571 245.468 222.613 245.312C223.597 241.586 227.918 240.769 231.15 238.801Z" fill="#E48E33"/>
<path d="M235.724 238.98C238.728 239.96 241.474 240.671 242.964 243.731C244.527 246.94 243.736 250.854 242.454 254.011C240.737 258.241 238.441 262.405 235.231 265.674C232.431 265.122 229.582 264.054 226.835 263.243L226.346 262.032L229.625 263.161C233.975 260.633 236.978 257.026 238.267 252.062C238.979 249.323 239.224 247.189 237.857 244.675L235.173 242.466L235.724 238.98Z" fill="#A85914"/>
<path d="M231.15 238.801C232.46 240.046 233.732 241.374 235.172 242.467L237.857 244.676C233.959 246.345 233.355 246.891 229.265 245.222C228.992 245.111 228.723 244.992 228.452 244.878L226.709 246.237L222.518 245.786C222.549 245.628 222.571 245.468 222.613 245.312C223.597 241.586 227.918 240.769 231.15 238.801Z" fill="#F2BA6F"/>
<path d="M224.709 258.227C223.843 254.313 224.349 252.958 226.096 249.465C228.442 251.471 229.785 252.064 229.853 255.359C229.909 258.024 229.335 260.43 229.625 263.161L226.345 262.032C225.546 260.81 225.182 259.597 224.709 258.227Z" fill="#E09E4D"/>
<path d="M215.883 236.227C221.136 235.664 225.618 235.045 230.43 237.798L231.151 238.801C227.919 240.769 223.598 241.586 222.615 245.312C222.573 245.468 222.551 245.628 222.519 245.786L221.974 245.568C221.716 245.134 221.457 244.624 221.038 244.318C216.886 241.284 212.879 246.875 208.676 247.748C206.274 246.777 205.251 245.467 203.66 243.466C206.943 240.114 211.706 238.259 215.883 236.227Z" fill="#E09E4D"/>
<path d="M221.972 245.568L222.518 245.786L226.709 246.237L224.384 248.66L226.096 249.466C224.349 252.96 223.843 254.314 224.71 258.228C223.128 259.523 221.405 261.324 219.34 261.614C219.311 261.327 219.311 261.038 219.256 260.756C219.173 260.339 219.035 259.935 218.925 259.525C217.078 259.563 215.643 259.407 213.839 259.011C212.866 258.109 211.994 257.269 210.865 256.561C210.643 256.423 210.411 256.3 210.184 256.169L208.238 253.574C212.772 250.83 217.351 248.161 221.972 245.568Z" fill="#E09E4D"/>
<path d="M224.384 248.66L226.097 249.466C224.35 252.96 223.844 254.315 224.71 258.229C223.128 259.523 221.405 261.325 219.341 261.614C219.312 261.328 219.312 261.038 219.256 260.756C219.173 260.34 219.036 259.936 218.925 259.525C218.521 257.819 218.475 256.092 218.373 254.349C219.579 251.299 221.723 250.299 224.384 248.66Z" fill="#C26510"/>
<path d="M196.289 260.476L194.168 259.822L193.883 258.016C195.033 255.946 196.285 254.253 198.226 252.845C199.885 251.641 202.637 250.402 204.73 250.89C206.197 251.232 206.381 252.103 207.22 253.264C203.152 255.328 199.818 257.588 196.289 260.476Z" fill="#C8761D"/>
<path d="M207.219 253.266L208.238 253.574L210.183 256.17C209.703 257.504 209.812 258.388 208.471 259.025C205.592 260.394 199.502 260.796 196.287 260.477C199.816 257.589 203.15 255.329 207.219 253.266Z" fill="#EBAC51"/>
<path d="M203.357 263.725C205.855 264.33 206.467 264.064 207.912 266.291C206.734 268.901 205.847 268.967 203.385 270.287C200.578 270.187 198.249 270.544 196.123 268.614C197.468 265.896 200.725 264.949 203.357 263.725Z" fill="#E48E33"/>
<path d="M126.368 298.347L129.121 296.432C128.771 297.042 128.68 297.767 128.869 298.445C129.057 299.124 129.511 299.698 130.126 300.039L132.77 301.208C133.041 302.53 133.272 303.872 133.641 305.171L136.732 306.095C137.974 304.928 138.03 304.575 138.499 302.913L143.592 301.61C146.01 300.536 148.422 299.448 150.827 298.348L153.026 299.001L153.142 299.911L154.237 300.01L157.73 300.866C158.488 303.125 158.061 303.539 157.299 305.725C159.449 304.293 161.439 302.526 164.117 302.539C165.036 304.014 164.894 304.081 164.623 305.822L165.605 305.543L170.064 305.109C165.897 310.93 160.796 314.247 153.668 315.322C148.58 316.09 143.017 315.609 137.872 315.386C132.757 321.637 126.545 325.632 118.356 326.492C107.989 327.582 96.2685 323.902 88.2296 317.286C86.1953 315.611 84.5717 313.034 82.5651 311.541C83.2661 310.795 83.2518 310.292 83.5039 309.32C81.6625 307.599 81.4572 307.691 79.0762 307.446L79.3092 306.212C80.2891 306.5 81.1668 306.506 82.1811 306.558L81.2213 303.012L82.2308 302.46L82.7761 303.125C84.6223 301.977 85.4781 300.308 86.5869 298.508C88.7845 298.445 89.3347 298.091 91.0452 299.766C94.2361 302.89 96.045 306.94 99.7278 309.66C101.936 308.524 102.407 308.19 104.973 308.338L104.917 308.511L105.359 308.869L106.314 305.193C107.122 305.241 108.02 305.009 108.822 304.887L110.22 302.065C111.231 302.512 112.285 302.97 113.371 303.194C116.002 303.738 117.926 303.146 120.165 301.805C122.095 301.62 123.667 301.325 125.517 300.744L126.368 298.347Z" fill="#7B3909"/>
<path d="M126.369 298.347L129.122 296.432C128.771 297.042 128.681 297.767 128.87 298.445C129.058 299.124 129.512 299.698 130.127 300.039L132.77 301.208C133.042 302.53 133.273 303.872 133.641 305.171L136.733 306.095L135.99 309.711C136.854 309.972 137.631 310.289 138.54 310.292C136.144 311.483 134.937 312.785 133.238 314.775C132.398 315.759 132.816 315.385 131.848 316.047C126.431 314.229 122.523 318.388 116.214 315.605L115.908 314.438L114.208 315.831L108.645 314.2L107.579 311.719L104.584 311.345C102.998 310.688 101.361 310.186 99.7285 309.66C101.937 308.524 102.408 308.19 104.974 308.338L104.917 308.511L105.36 308.869L106.315 305.193C107.123 305.241 108.021 305.009 108.823 304.887L110.221 302.065C111.231 302.512 112.286 302.97 113.372 303.194C116.003 303.738 117.927 303.146 120.165 301.805C122.095 301.62 123.668 301.325 125.518 300.744L126.369 298.347Z" fill="#F7B13C"/>
<path d="M133.642 305.172L136.734 306.096L135.991 309.713C136.855 309.973 137.631 310.29 138.541 310.293C136.144 311.485 134.937 312.786 133.239 314.776C132.399 315.761 132.817 315.386 131.848 316.048C126.431 314.23 122.524 318.39 116.215 315.606L115.908 314.439C116.744 312.972 118.008 312.533 119.462 311.835L126.586 310.459C128.814 308.267 130.984 306.766 133.642 305.172Z" fill="#C8761D"/>
<path d="M119.462 311.834L126.586 310.457C125.921 313.032 125.999 313.442 123.862 315.202C121.282 315.514 118.814 315.643 116.215 315.604L115.908 314.438C116.744 312.971 118.008 312.531 119.462 311.834Z" fill="#C26510"/>
<path d="M107.58 311.72C111.538 311.622 115.522 311.378 119.462 311.834C118.009 312.532 116.744 312.971 115.908 314.438L114.209 315.831L108.646 314.201L107.58 311.72Z" fill="#E09E4D"/>
<path d="M86.5881 298.508C88.7857 298.445 89.3359 298.09 91.0464 299.765C94.2373 302.89 96.0462 306.939 99.729 309.659C101.361 310.186 102.998 310.687 104.585 311.344L107.58 311.719L108.646 314.2L114.209 315.83L115.908 314.438L116.215 315.604C122.524 318.388 126.431 314.228 131.848 316.046C129.335 318.134 126.359 319.91 123.255 320.972C115.001 323.796 104.899 322.564 97.1713 318.728C90.8583 315.595 85.102 309.86 82.7773 303.124C84.6235 301.977 85.4793 300.308 86.5881 298.508Z" fill="#E48E33"/>
<path d="M86.5879 298.508C88.7855 298.445 89.3356 298.09 91.0462 299.765C94.2371 302.89 96.046 306.939 99.7288 309.659C101.361 310.186 102.998 310.687 104.584 311.344L100.151 313.49C99.4423 312.77 99.8062 313.005 98.8721 312.601C97.8358 312.153 96.8216 311.725 95.8235 311.192C89.9717 308.069 88.5592 304.543 86.5879 298.508Z" fill="#DF8027"/>
<path d="M104.584 311.346L107.579 311.72L108.645 314.201L106.17 315.61C103.441 315.711 102.359 315.033 100.15 313.491L104.584 311.346Z" fill="#C26510"/>
<path d="M150.828 298.348L153.027 299.001L153.142 299.911L154.238 300.01L157.731 300.866C158.489 303.124 158.062 303.539 157.3 305.725C159.45 304.293 161.44 302.526 164.118 302.539C165.037 304.014 164.895 304.08 164.624 305.822C155.852 311.758 148.869 311.647 138.54 310.292C137.631 310.289 136.855 309.972 135.99 309.711L136.733 306.094C137.975 304.928 138.031 304.574 138.5 302.913L143.593 301.61C146.011 300.535 148.422 299.447 150.828 298.348Z" fill="#E89A2C"/>
<path d="M138.5 302.914L143.592 301.611C145.311 302.568 146.147 302.993 147.138 304.774L146.415 306.34L143.536 306.775C140.625 305.617 140.208 305.503 138.5 302.914Z" fill="#B35D0C"/>
<path d="M154.237 300.01L157.73 300.866C158.488 303.124 158.061 303.539 157.299 305.724C154.86 305.873 154.097 306.057 151.85 304.953C151.936 302.65 152.915 301.854 154.237 300.01Z" fill="#A85914"/>
<path d="M89.0549 278.384L97.4557 273.768L101.959 278.401L100.872 278.745L100.691 282.192C104.457 279.765 107.505 279.185 111.866 278.543L110.219 283.05L112.102 285.819C119.523 286.924 122.918 286.271 129.048 291.367L130.994 292.878C130.753 293.863 130.606 294.591 130.079 295.468C129.681 295.701 129.352 296.032 129.122 296.432L126.369 298.348L125.518 300.745C123.668 301.325 122.096 301.621 120.166 301.806C117.927 303.146 116.003 303.739 113.372 303.195C112.286 302.971 111.232 302.513 110.221 302.066L108.823 304.888C108.021 305.01 107.123 305.241 106.315 305.193L105.36 308.87L104.918 308.511L104.974 308.338C102.408 308.19 101.937 308.525 99.7288 309.661C96.046 306.941 94.2371 302.891 91.0462 299.766C89.3357 298.092 88.7855 298.446 86.5879 298.509C85.4791 300.309 84.6233 301.978 82.7771 303.125L82.2318 302.46C80.3713 296.068 80.7505 289.781 83.8268 283.914L89.0549 278.384Z" fill="#F2BA6F"/>
<path d="M123.522 290.767C125.365 290.028 127.223 290.864 129.048 291.367L130.994 292.878C130.752 293.863 130.605 294.592 130.079 295.469C129.681 295.701 129.351 296.032 129.122 296.432L126.369 298.348L125.518 300.745C123.668 301.326 122.096 301.621 120.165 301.806C117.927 303.146 116.003 303.739 113.372 303.195C112.286 302.971 111.232 302.513 110.221 302.066L108.823 304.888C108.021 305.01 107.123 305.241 106.315 305.194L105.768 301.14L106.429 299.625C106.553 299.508 106.703 299.412 106.799 299.273C108.439 296.886 107.171 294.23 106.601 291.563C109.219 292.493 111.82 293.57 114.576 293.986L115.501 291.717C118.303 290.227 120.414 290.694 123.522 290.767Z" fill="#F2C58E"/>
<path d="M123.522 290.767C125.364 290.028 127.222 290.864 129.047 291.367L130.993 292.878C130.751 293.863 130.604 294.592 130.078 295.469C129.68 295.701 129.35 296.032 129.121 296.432L126.368 298.348L125.517 300.745C123.667 301.326 122.095 301.621 120.164 301.806L117.938 300.091C117.363 298.01 117.182 295.777 116.881 293.637C118.632 291.268 120.755 291.385 123.522 290.767Z" fill="#F2BA6F"/>
<path d="M117.939 300.09C118.603 298.169 118.797 298.071 120.45 296.857C122.936 296.815 124.183 297.186 126.369 298.347L125.518 300.744C123.668 301.325 122.096 301.62 120.166 301.805L117.939 300.09Z" fill="#DF8027"/>
<path d="M106.601 291.562C109.219 292.492 111.82 293.57 114.576 293.985C113.486 297.103 112.559 298.374 109.77 300.158L110.221 302.065L108.823 304.887C108.021 305.009 107.123 305.241 106.315 305.193L105.768 301.14L106.429 299.624C106.553 299.507 106.703 299.411 106.799 299.272C108.439 296.886 107.171 294.23 106.601 291.562Z" fill="#E89A2C"/>
<path d="M100.69 282.191C104.457 279.765 107.504 279.185 111.865 278.543L110.219 283.05L112.101 285.819C119.522 286.924 122.917 286.27 129.047 291.367C127.223 290.864 125.364 290.028 123.522 290.766C120.413 290.694 118.302 290.226 115.5 291.717L114.576 293.986C111.819 293.57 109.219 292.492 106.601 291.563L105.9 290.187L100.821 288.765C100.475 288.345 100.063 287.82 99.662 287.467C97.5647 285.622 95.1197 286.353 92.4951 286.483L91.8008 284.44C95.4014 284.71 97.7299 284.297 100.69 282.191Z" fill="#F2BA6F"/>
<path d="M89.0543 278.384L97.4551 273.768L101.958 278.401L100.871 278.745L100.69 282.192C97.7302 284.297 95.4017 284.711 91.8011 284.44L92.4954 286.483C95.12 286.353 97.565 285.622 99.6623 287.467C100.063 287.82 100.475 288.346 100.821 288.765L95.4055 293.395C94.8172 290.864 93.2642 289.042 91.7514 286.999C89.2472 287.467 87.1957 287.736 85.1098 289.267C84.2779 287.987 84.1137 285.464 83.8262 283.914L89.0543 278.384Z" fill="#F2C58E"/>
<path d="M91.8008 284.44C92.0453 284.082 92.2821 283.719 92.5343 283.367C94.8179 280.18 97.0957 279.369 100.871 278.744L100.69 282.191C97.7299 284.296 95.4014 284.71 91.8008 284.44Z" fill="#C8761D"/>
<path d="M100.821 288.764L105.9 290.186L106.601 291.562C107.17 294.229 108.439 296.885 106.799 299.271C106.702 299.411 106.552 299.506 106.429 299.624C103.896 298.509 100.302 296.437 97.5194 296.589C95.8346 296.68 95.8098 297.21 94.6895 298.344C94.7372 296.641 95.0868 295.062 95.4058 293.394L100.821 288.764Z" fill="#F7B13C"/>
<path d="M94.6895 298.346C95.8098 297.211 95.8346 296.682 97.5194 296.59C100.302 296.438 103.896 298.51 106.429 299.625L105.767 301.14C104.152 301.42 104.862 301.163 103.468 301.916C102.09 302.658 100.721 303.132 99.2366 303.612C96.9453 302.755 95.8995 300.343 94.6895 298.346Z" fill="#EBAC51"/>
<path d="M85.1094 289.266C87.1953 287.736 89.2468 287.466 91.751 286.998C91.8198 290.061 91.5514 290.698 90.0872 293.413L88.073 294.267C85.6375 292.849 85.8773 291.899 85.1094 289.266Z" fill="#E89A2C"/>
<path d="M152.809 238.885C163.467 241.665 170.362 246.65 175.987 256.265C179.748 262.692 182.391 272.384 187.922 277.234L188.914 277.947L186.959 280.042L187.045 281.672C188.232 282.471 188.958 282.972 190.399 283.116L189.254 286.078C185.357 284.504 178.592 282.591 176.056 279.23C174.06 276.584 173.655 275.264 174.163 272.086L172.825 269.892C170.42 268.751 169.778 268.969 167.206 269.245C164.363 267.111 162.534 264.929 160.441 262.102C160.03 260.486 158.845 259.209 158.409 257.43C159.581 255.822 159.815 254.614 160.115 252.713L155.098 247.999L154.716 247.574C155.08 244.745 153.657 241.576 152.809 238.885Z" fill="#F7B13C"/>
<path d="M160.966 252.197C164.12 253.158 166.032 253.404 168.338 255.854L167.707 258.356C167.303 259.822 166.736 260.333 167.55 261.726C168.681 263.66 171.713 264.809 173.655 265.788L173.813 268.153L175.988 269.055L174.164 272.086L172.826 269.893C170.421 268.751 169.779 268.969 167.207 269.245C164.364 267.112 162.535 264.93 160.442 262.102C160.031 260.487 158.846 259.209 158.41 257.43C159.582 255.823 159.816 254.614 160.116 252.713L160.966 252.197Z" fill="#F2C58E"/>
<path d="M167.706 258.357C170.26 258.316 171.744 258.257 173.911 259.693C174.839 262.049 174.83 262.746 173.956 265.13C173.873 265.357 173.755 265.569 173.655 265.789C171.713 264.81 168.681 263.661 167.55 261.726C166.735 260.333 167.302 259.822 167.706 258.357Z" fill="#C8761D"/>
<path d="M155.098 248.001C158.933 247.823 162.195 248.41 165.924 249.192L166.311 250.655C164.588 251.403 162.786 251.77 160.965 252.198L160.115 252.714L155.098 248.001Z" fill="#DF8027"/>
<path d="M127.231 250.704C128.746 248.672 130.276 246.538 132.122 244.792C138.089 239.15 144.98 238.575 152.809 238.885C153.657 241.577 155.08 244.745 154.717 247.575L155.099 248L160.116 252.714C159.816 254.615 159.582 255.823 158.41 257.431C155.291 256.009 152.742 253.743 150.08 251.618C148.574 251.88 147.139 252.094 145.722 252.699C143.795 254.272 142.048 255.083 141.654 257.744C141.581 258.235 141.728 258.598 141.857 259.042L139.212 265.013L135.58 266.766C132.985 260.47 132.793 262.455 128.454 258.533C126.497 256.764 127.211 253.15 127.231 250.704Z" fill="#F2C58E"/>
<path d="M136.299 247.283C138.605 247.96 138.887 247.945 140.453 249.923C139.847 252.902 138.67 253.752 136.704 255.88C134.385 255.479 133.693 255.656 132.053 253.886C132.321 250.965 134.385 249.323 136.299 247.283Z" fill="#DF8027"/>
<path d="M143.297 241.705C145.017 241.863 146.742 242.212 148.448 242.486C150.73 244.467 150.715 244.996 151.435 247.98C149.285 248.061 147.633 247.872 145.542 247.349C143.663 245.211 143.737 244.443 143.297 241.705Z" fill="#E89A2C"/>
<path d="M124.068 276.588C130.739 282.556 136.283 287.518 145.367 289.478C145.162 291.389 144.837 293.379 144.789 295.295C146.964 295.151 147.845 295.461 149.803 296.423L150.828 298.348C148.422 299.448 146.01 300.536 143.592 301.61L138.5 302.913C138.031 304.575 137.974 304.928 136.733 306.095L133.641 305.171C133.272 303.872 133.041 302.53 132.77 301.208L130.126 300.039C129.511 299.698 129.058 299.124 128.87 298.445C128.68 297.767 128.771 297.042 129.122 296.432C129.351 296.031 129.68 295.7 130.079 295.468C130.605 294.591 130.752 293.862 130.994 292.877L129.047 291.367C122.917 286.27 119.522 286.923 112.101 285.818L110.219 283.05C110.791 282.699 111.353 282.331 111.949 282.023C115.77 280.042 117.492 281.216 121.211 282.446C121.833 279.439 122.015 278.843 124.068 276.588Z" fill="#CB741B"/>
<path d="M129.048 291.367C131.855 289.925 133.079 288.929 136.3 289.253C138.098 291.392 139.259 295.238 141.934 295.485C142.912 295.575 143.826 295.435 144.789 295.295C146.965 295.151 147.846 295.461 149.803 296.423L150.828 298.348C148.422 299.448 146.011 300.536 143.593 301.611L138.5 302.914C138.031 304.575 137.975 304.928 136.733 306.095L133.642 305.171C133.273 303.872 133.042 302.531 132.771 301.208L130.127 300.039C129.512 299.698 129.058 299.124 128.87 298.446C128.681 297.767 128.772 297.042 129.122 296.432C129.351 296.032 129.681 295.7 130.079 295.468C130.605 294.591 130.753 293.862 130.994 292.877L129.048 291.367Z" fill="#E09E4D"/>
<path d="M130.079 295.468C131.178 294.829 132.576 295.068 133.4 296.034C134.224 297.001 134.24 298.42 133.435 299.404C132.631 300.388 131.239 300.655 130.127 300.039C129.512 299.698 129.058 299.124 128.87 298.446C128.681 297.767 128.772 297.042 129.122 296.432C129.351 296.032 129.681 295.7 130.079 295.468Z" fill="#C26510"/>
<path d="M172.853 294.521L173.591 294.312C174.694 296.714 175.981 299.873 178.703 300.786C180.104 301.255 180.886 300.679 182.223 300.217L185.151 302.257L186.612 302.393C189.958 304.359 193.262 306.587 196.985 307.743L199.225 307.749C199.324 307.952 199.42 308.158 199.523 308.359C200.731 310.711 201.907 312.022 204.527 312.715C209.933 314.144 215.236 309.126 220.526 312.294C216.358 314.953 212.06 316.778 207.149 317.568C189.574 320.396 180.489 306.185 168.032 297.25C167.803 297.086 167.57 296.928 167.34 296.767C169.318 295.055 170.336 295.039 172.853 294.521Z" fill="#E89A2C"/>
<path d="M186.612 302.394C189.958 304.36 193.261 306.588 196.984 307.744C195.839 309.929 195.949 309.904 193.63 310.716C189.148 309.913 187.33 308.171 184.697 304.548L185.151 302.258L186.612 302.394Z" fill="#CB741B"/>
<path d="M127.232 250.703C127.212 253.15 126.497 256.764 128.454 258.533C132.793 262.454 132.985 260.469 135.58 266.766L136.319 268.632L140.931 273.01L143.839 273.36L143.467 279.044C144.789 279.304 146.169 279.476 147.422 279.973L145.929 281.466C146.389 283.224 147.052 284.574 147.928 286.138C147.71 286.066 147.49 285.996 147.271 285.922C141.699 284.021 136.37 282.015 131.983 277.916C126.576 272.863 125.285 267.042 124.996 259.908C125.127 256.446 125.995 253.87 127.232 250.703Z" fill="#E09E4D"/>
<path d="M127.232 250.703C127.212 253.15 126.497 256.764 128.454 258.533C132.793 262.454 132.985 260.469 135.58 266.766L136.319 268.632C134.832 269.969 134.526 271.721 133.092 273.102C129.962 272.308 127.571 263.852 125.456 260.595C125.306 260.364 125.15 260.137 124.996 259.908C125.127 256.446 125.995 253.87 127.232 250.703Z" fill="#E89A2C"/>
<path d="M140.929 273.01L143.837 273.36L143.466 279.044C143.119 279.143 142.782 279.282 142.426 279.339C139.797 279.755 138.205 278.086 136.131 276.723C136.237 275.429 139.54 274.6 140.929 273.01Z" fill="#EBAC51"/>
<path d="M97.4551 273.767C108.328 270.875 113.712 274.247 124.068 276.588C122.015 278.844 121.833 279.439 121.211 282.446C117.492 281.217 115.77 280.043 111.949 282.023C111.353 282.332 110.791 282.699 110.219 283.05L111.865 278.543C107.504 279.185 104.457 279.765 100.69 282.191L100.871 278.744L101.958 278.401L97.4551 273.767Z" fill="#F2C58E"/>
<path d="M101.958 278.401C104.273 276.576 105.551 275.115 108.691 275.329C110.728 275.468 111.539 276.145 112.666 277.718L111.865 278.543C107.504 279.185 104.456 279.765 100.689 282.191L100.871 278.745L101.958 278.401Z" fill="#E09E4D"/>
<path d="M156.393 291.512C159.349 294.505 166.185 299.826 166.936 303.766L165.605 305.543L164.624 305.822C164.894 304.081 165.036 304.014 164.117 302.539C161.439 302.526 159.449 304.293 157.299 305.725C158.061 303.539 158.488 303.124 157.73 300.866L154.237 300.01L153.142 299.911L153.026 299.001L150.828 298.348L149.803 296.423L156.393 291.512Z" fill="#DF8027"/>
<path d="M145.367 289.479C148.363 290.162 153.48 291.968 156.393 291.512L149.803 296.424C147.845 295.462 146.965 295.151 144.789 295.295C144.837 293.38 145.162 291.389 145.367 289.479Z" fill="#C8761D"/>
<path d="M147.386 21.5184L147.585 21.0503C147.698 20.7914 147.817 20.5354 147.927 20.2746C148.585 18.7213 149.188 17.0303 150.092 15.5993C152.459 11.8564 156.18 9.16338 160.539 8.29596C164.736 7.46006 168.973 8.59972 172.467 10.9937C176.806 13.9676 179.621 18.6162 180.536 23.7662C181.798 30.8623 179.365 36.1643 175.439 41.9047C185.287 56.6557 190.586 72.362 195.593 89.2166C203.688 116.463 205.845 133.952 191.926 159.624C196.232 158.556 200.489 157.219 204.748 155.972C205.046 153.175 205.17 149.033 206.544 146.605C208.448 143.242 211.283 144.54 213.762 142.848C216.42 141.033 217.583 133.122 220.111 130.412C224.224 126.006 229.869 131.351 233.277 129.718C234.423 129.169 234.406 127.747 236.131 128.451C240.206 130.114 239.426 133.264 244.756 133.051C246.871 134.109 247.002 134.205 248.109 136.29C247.971 138.461 247.757 140.294 248.504 142.367C250.337 142.98 251.361 143.367 252.657 144.91C253.597 151.977 251.997 158.565 249.543 165.189C242.359 184.58 225.74 202.35 207.139 210.911C212.092 217.853 215.103 225.525 218.167 233.411C221.897 232.531 227.782 231.911 231.322 233.598C233.842 234.798 234.779 236.455 235.724 238.981L235.173 242.467C233.732 241.374 232.46 240.045 231.15 238.8L230.429 237.797C225.617 235.045 221.135 235.664 215.882 236.226L214.348 234.007C212.021 225.889 207.87 218.841 203.286 211.833C200.015 212.292 196.744 213.126 193.509 213.804C192.769 212.863 192.318 211.957 191.781 210.893C193.654 208.95 196.716 209.153 199.361 208.768C200.306 208.69 200.643 208.692 201.517 208.526C213.786 206.209 225.344 195.808 232.032 185.741C229.087 184.477 224.955 184.724 221.756 184.535C214.437 180.668 209.844 175.234 206.576 167.543C205.886 165.454 205.367 163.355 204.858 161.217C204.366 161.177 203.563 161.093 203.031 161.102C196.944 161.198 189.184 162.403 184.806 166.556L183.233 165.451C183.02 162.827 186.547 159.432 188.205 157.286C203.115 134.885 199.303 115.916 192.383 91.7338C186.486 71.123 182.105 58.4785 169.885 40.9036C167.844 36.7585 168.128 37.304 164.546 35.9026C160.802 29.7771 159.701 34.5221 158.993 27.0573L158.578 26.7908L157.927 27.9906C155.136 27.939 153.227 27.0286 150.594 26.0867C148.41 26.3714 141.181 23.7605 138.061 23.0966C120.521 19.369 100.054 19.3049 84.0725 28.1502C80.5358 23.9124 74.4835 10.1894 69.1056 11.5937C49.6364 16.6769 49.8921 32.3469 60.6399 44.4841C44.9764 68.1491 41.1712 92.9585 35.5838 120.228C29.3768 150.519 15.8686 178.126 7.67923 208.169L7.90282 209.109C9.26762 215.06 8.86639 221.049 9.5423 227.066C11.4011 243.614 18.3183 263.098 32.9802 272.523C40.0336 277.056 46.8284 278.509 55.0683 278.512C52.0965 283.576 48.5818 288.939 50.1948 295.137C50.3391 295.691 50.4796 295.934 50.7249 296.488L52.2876 295.237C54.1052 297.158 55.2761 299.818 57.1718 301.492C60.9944 304.868 69.5638 308.033 74.6701 307.964C76.1458 307.944 77.6257 307.699 79.0765 307.446C81.4575 307.691 81.6628 307.599 83.5042 309.319C83.2521 310.292 83.2664 310.794 82.5654 311.54C78.7221 311.953 74.3982 312.669 70.5741 311.889C65.2183 310.798 60.1159 307.413 54.8723 305.722C32.4345 298.484 23.2567 297.85 8.93573 277.308C6.54498 272.558 4.62441 267.586 3.20144 262.461C-0.705877 248.323 -0.760794 233.671 1.5525 219.271C5.95006 191.896 18.3697 167.797 26.3832 141.581C36.4702 108.582 37.9836 75.9129 55.6411 45.1385C54.3033 43.4629 53.0668 41.7471 52.0588 39.8489C49.2225 34.44 48.6517 28.1253 50.4723 22.2951C52.1508 17.0542 55.8554 12.4984 60.8678 10.1254C65.0062 8.16697 69.5862 7.96634 73.8435 9.67062C79.9332 12.1086 82.4383 16.9597 84.9359 22.5635C106.687 15.9709 125.467 16.0493 147.386 21.5184Z" fill="#4D2809"/>
<path d="M226.008 148.755C228.034 143.314 229.482 137.882 233.376 133.45L235.071 133.08C236.889 135.863 236.456 139.052 235.791 142.143C235.141 145.165 234.262 148.126 233.801 151.184C236.371 146.472 238.385 141.537 242.668 138.14L244.185 138.331C244.845 142.734 242.761 147.65 241.85 151.983C244.609 151.505 247.22 146.522 249.384 147.362C251.499 155.574 244.842 167.457 240.825 174.261C238.347 178.459 235.254 182.103 232.033 185.742C229.087 184.478 224.956 184.725 221.756 184.535C214.437 180.669 209.844 175.234 206.576 167.543C206.829 167.239 207.102 166.948 207.336 166.628C211.269 161.238 204.624 149.921 210.199 145.871C212.08 147.018 215.7 151.931 217.147 152.03C217.085 151.762 217.019 151.497 216.962 151.228C215.717 145.325 218.239 139.285 221.537 134.411C222.666 132.742 223.081 132.251 224.859 131.34C228.032 136.041 225.677 143.299 226.008 148.755Z" fill="#9F540F"/>
<path d="M224.96 152.832C228.154 152.866 230.604 153.283 232.883 155.718C234.635 157.589 235.352 160.239 235.238 162.76C235.032 167.358 233.105 170.063 229.831 173.093C227.39 173.194 225.556 173.013 223.572 171.452C221.647 169.937 220.315 167.927 220.048 165.466C219.437 159.831 221.619 156.919 224.96 152.832Z" fill="#7B3909"/>
<path d="M50.7246 296.488L50.1788 298.944C48.4865 299.38 47.1825 299.184 45.483 298.841C32.6197 296.22 21.3453 288.546 14.1852 277.54C0.948989 257.071 2.64148 230.948 7.67895 208.17L7.90253 209.11C9.26734 215.061 8.86611 221.049 9.54202 227.067C11.4008 243.615 18.318 263.098 32.9799 272.524C40.0333 277.056 46.8281 278.51 55.068 278.513C52.0962 283.577 48.5815 288.94 50.1945 295.138C50.3388 295.692 50.4793 295.935 50.7246 296.488Z" fill="#C26510"/>
<path d="M150.594 26.0873C155.171 -4.72054 193.209 22.0693 169.885 40.9042C167.844 36.7591 168.128 37.3046 164.546 35.9031C160.802 29.7777 159.701 34.5227 158.993 27.0579L158.578 26.7914L157.927 27.9912C155.136 27.9396 153.227 27.0292 150.594 26.0873Z" fill="#CE6F17"/>
<path d="M158.992 27.0587C163.289 21.5408 162.701 20.6743 169.494 22.7302C171.424 30.8197 168.627 29.2425 166.93 35.3613L164.546 35.9039C160.801 29.7785 159.701 34.5235 158.992 27.0587Z" fill="#4D2809"/>
<path d="M169.496 22.7285C171.426 30.8181 168.628 29.2409 166.931 35.3596C166.037 31.3196 163.269 31.8183 163.01 26.9386C164.706 24.3564 166.594 23.9542 169.496 22.7285Z" fill="#9F540F"/>
<path d="M76.258 269.407C78.4551 268.554 80.5009 267.957 82.7969 268.89C85.3212 269.916 87.344 271.842 89.1243 273.844L90.1863 273.409L89.0546 278.384L83.8265 283.914C80.7502 289.782 80.371 296.068 82.2315 302.46L81.222 303.013L82.1818 306.559C81.1675 306.507 80.2898 306.5 79.3099 306.213L79.0769 307.447C77.6261 307.7 76.1462 307.945 74.6705 307.965C69.5642 308.034 60.9947 304.869 57.1721 301.493C55.2765 299.819 54.1056 297.159 52.288 295.238L50.7253 296.489C50.48 295.936 50.3395 295.692 50.1952 295.138C48.5822 288.94 52.0969 283.577 55.0687 278.514C57.773 274.88 60.7335 273.367 64.7829 271.716C68.7809 270.196 71.9827 269.545 76.258 269.407Z" fill="#8F4C0E"/>
<path d="M85.1592 272.645L85.7628 276.426L86.9538 276.508L89.1247 273.844L90.1867 273.41L89.0549 278.384L83.8268 283.914C80.7505 289.782 80.3714 296.069 82.2319 302.461L81.2223 303.013L82.1822 306.559C81.1679 306.507 80.2902 306.501 79.3103 306.213C78.2941 305.32 78.7716 305.652 77.6303 304.987C76.5219 304.34 75.394 303.708 74.3356 302.979C70.7746 300.525 67.2028 295.82 66.4219 291.496L67.5112 290.024C70.5692 289.069 73.8363 289.654 76.9847 289.914C79.5022 284.423 82.8708 279.053 84.8975 273.396L85.1592 272.645Z" fill="#713609"/>
<path d="M76.2584 269.407C78.4555 268.554 80.5013 267.957 82.7973 268.89C85.3216 269.916 87.3444 271.842 89.1247 273.844L86.9538 276.507L85.7628 276.425L85.1592 272.644C82.5814 272.082 81.5394 271.624 78.977 272.417L77.3829 276.023C74.4853 276.267 73.3449 274.797 71.0817 273.175C68.4576 273.314 68.1117 273.736 66.0518 275.223C64.893 277.718 65.3016 278.85 65.5986 281.54L62.4887 280.743L61.4043 278.826C61.909 275.15 62.3879 274.602 64.7833 271.716C68.7813 270.196 71.9831 269.545 76.2584 269.407Z" fill="#4D2809"/>
<path d="M36.1504 205.809L37.5331 205.789C44.5567 218.611 49.4511 227.89 62.8567 235.314C67.2557 237.979 76.1621 244.788 81.2926 243.56L81.9411 241.639C80.8896 239.772 79.0597 237.581 79.4235 235.475C82.3843 235.457 82.7701 236.377 84.8369 238.457C86.4004 240.029 87.5207 241.92 89.8368 242.303C92.256 240.885 92.2101 240.357 93.2521 237.856L94.4297 238.091C94.657 240.402 94.5434 242.64 94.4326 244.956C94.7497 243.763 95.0381 242.514 95.4841 241.363C96.487 238.775 97.9673 238.558 100.337 237.465C98.8279 240.103 97.1785 241.907 97.358 244.998L99.1144 244.371C97.9645 247.387 96.6236 249.156 93.6036 250.483C91.5511 251.385 85.2094 252.791 84.4138 254.571L85.9076 256.188C83.4683 255.784 82.1942 254.334 79.8123 255.076C79.989 258.531 82.3547 265.447 84.9267 267.744C86.8101 269.425 88.7346 269.997 91.2398 269.592C99.6588 268.236 104.269 264.949 113.269 266.95C115.172 267.374 117.08 267.84 119.017 268.085C119.055 264.204 118.666 260.166 120.74 256.73L121.749 270.296C111.72 268.244 101.339 265.7 92.1442 271.902C91.4594 272.365 90.8195 272.879 90.1863 273.409L89.1243 273.844C87.344 271.841 85.3212 269.915 82.7969 268.889C80.5009 267.957 78.4551 268.554 76.258 269.406C71.2068 248.295 60.5384 246.226 46.28 231.939C43.0781 228.73 40.4653 224.56 37.896 220.831C37.9586 217.64 37.6561 214.394 37.4943 211.204L36.1504 205.809Z" fill="#C26510"/>
<path d="M36.1504 205.809L37.5331 205.789C44.5567 218.611 49.4511 227.89 62.8567 235.314C67.2557 237.979 76.1621 244.788 81.2926 243.56L81.9411 241.639C80.8896 239.772 79.0597 237.581 79.4235 235.475C82.3843 235.457 82.7701 236.377 84.8369 238.457C86.4004 240.029 87.5207 241.92 89.8368 242.303C92.256 240.885 92.2101 240.357 93.2521 237.856L94.4297 238.091C94.657 240.402 94.5434 242.64 94.4326 244.956C91.1958 247.165 84.8178 246.534 80.5286 247.785C78.308 248.432 76.7551 247.985 74.5703 247.36C73.2357 245.397 70.2261 244.258 68.1605 243.155C66.4914 241.078 62.5084 239.291 60.1376 237.79C48.4976 230.421 43.6111 223.243 37.4943 211.204L36.1504 205.809Z" fill="#4D2809"/>
<path d="M68.1602 243.154C70.2258 244.257 73.2353 245.396 74.57 247.36C75.2381 249.375 75.6917 251.108 75.8568 253.23L74.7738 254.332C70.619 251.87 69.4999 247.475 68.1602 243.154Z" fill="#A85914"/>
<path d="M86.7431 213.689C90.2549 217.608 99.4246 226.84 99.1094 232.133C99.0989 232.312 99.0397 232.485 99.0044 232.662C96.4638 233.037 95.2901 232.665 93.0676 231.242C90.5242 229.614 88.4956 227.003 85.915 225.241C88.0372 229.83 90.124 233.87 93.2529 237.856C92.2109 240.357 92.2567 240.885 89.8375 242.303C87.5215 241.92 86.4011 240.029 84.8377 238.457C82.7709 236.377 82.385 235.457 79.4243 235.475C79.0604 237.581 80.8903 239.772 81.9419 241.639L81.2934 243.56C76.1628 244.788 67.2564 237.979 62.8574 235.314L63.972 230.427L64.8387 227.891C71.8603 221.169 77.7214 217.17 86.7431 213.689Z" fill="#9F540F"/>
<path d="M221.757 184.535C224.956 184.724 229.088 184.478 232.033 185.742C225.345 195.809 213.787 206.209 201.517 208.527C200.644 208.692 200.307 208.69 199.362 208.769C196.717 209.154 193.655 208.95 191.782 210.893C192.319 211.957 192.77 212.863 193.51 213.805L189.993 215.69C188.556 211.334 187.199 206.951 185.923 202.544L185.318 201.401C185.389 201.133 185.785 199.685 185.791 199.434C185.798 199.193 185.67 198.967 185.609 198.733C188.28 200.359 189.785 201.453 193.02 201.184C204.555 200.227 214.6 193.25 221.757 184.535Z" fill="#C26510"/>
<path d="M185.922 202.543C192.53 204.957 189.908 208.794 199.361 208.768C196.716 209.153 193.654 208.949 191.781 210.892C192.318 211.957 192.769 212.862 193.509 213.804L189.991 215.689C188.555 211.333 187.198 206.95 185.922 202.543Z" fill="#B35D0C"/>
<path d="M79.2021 191.205C80.9881 195.539 82.754 199.972 85.2744 203.943C90.8607 212.743 103.736 224.347 102.24 235.309C101.644 236.132 101.225 236.945 100.336 237.466C97.9665 238.559 96.4861 238.776 95.4833 241.364C95.0373 242.515 94.7488 243.763 94.4317 244.957C94.5425 242.641 94.6562 240.403 94.4289 238.092L93.2513 237.857C90.1224 233.871 88.0356 229.831 85.9134 225.242C88.494 227.003 90.5226 229.614 93.066 231.243C95.2884 232.666 96.4622 233.038 99.0027 232.663C99.0381 232.486 99.0973 232.313 99.1078 232.133C99.423 226.841 90.2533 217.609 86.7414 213.69C82.1361 208.081 79.5325 201.393 76.8105 194.755L79.2021 191.205Z" fill="#4D2809"/>
<path d="M171.871 244.357L172.818 244.209C177.582 243.423 182.941 240.851 186.043 237.027C188.41 234.109 188.021 231.168 191.472 228.883L192.864 229.573C194.352 234.552 192.586 239.752 194.237 244.515C190.948 248.236 184.745 251.165 180.615 254.223C177.97 250.65 174.967 247.538 171.871 244.357Z" fill="#CE6F17"/>
<path d="M155.167 172.678C155.393 174.322 155.74 174.657 154.684 175.954C152.523 178.611 148.063 180.06 144.903 181.086C135.853 182.863 124.324 183.948 116.305 178.673C115.002 177.816 114.883 177.875 114.572 176.394C128.223 175.722 141.694 175.077 155.167 172.678Z" fill="#C26510"/>
<path d="M193.51 213.806C196.745 213.128 200.016 212.293 203.287 211.834C207.87 218.842 212.022 225.89 214.349 234.009L209.338 234.974C209.427 234.317 209.515 233.945 209.482 233.309C209.322 230.179 207.084 225.562 204.804 223.509C202.164 221.132 197.978 220.095 194.511 220.365L193.862 223.658L192.69 224.407C190.619 222.011 190.588 218.775 189.992 215.691L193.51 213.806Z" fill="#C26510"/>
<path d="M155.167 172.677C155.864 172.299 155.495 172.424 156.382 172.304C163.253 171.383 168.879 168.585 175.229 166.105C175.739 168.292 175.953 170.466 177.656 172.069C166.312 174.792 157.052 180.724 144.902 181.086C148.063 180.06 152.523 178.611 154.683 175.954C155.74 174.656 155.393 174.321 155.167 172.677Z" fill="#CB741B"/>
<path d="M34.4902 191.918C39.6382 204.011 48.0565 224.892 60.9902 230.386C62.2422 230.917 62.7465 230.826 63.972 230.427L62.8574 235.313C49.4518 227.889 44.5574 218.61 37.5338 205.788L36.1511 205.808C34.8264 201.577 34.7072 196.357 34.4902 191.918Z" fill="#C26510"/>
<path d="M175.229 166.107C179.654 162.782 182.914 159.317 188.204 157.287C186.546 159.433 183.02 162.828 183.232 165.452L184.805 166.556C183.168 169.475 180.642 170.733 177.655 172.07C175.952 170.468 175.739 168.293 175.229 166.107Z" fill="#C26510"/>
<path d="M76.812 194.753C76.0831 192.444 74.412 188.863 75.1003 186.443C75.4921 185.065 75.5823 185.288 76.6678 184.637C78.5751 186.617 78.7384 188.565 79.2036 191.204L76.812 194.753Z" fill="#B35D0C"/>
<path d="M161.986 100.077C166.589 107.988 169.77 116.214 170.518 125.411C171.417 136.441 169.56 148.109 162.108 156.693C156.065 163.652 148.589 167.603 139.395 168.197C129.465 168.839 118.299 166.899 110.738 159.989C103.501 153.374 100.633 143.947 100.27 134.374C99.7375 120.342 104.285 104.411 114.015 93.9851C119.551 88.0545 126.888 84.1597 135.095 84.0308C144.646 83.8808 151.854 88.6754 158.463 95.0684L161.986 100.077Z" fill="#A85914"/>
<path d="M145.559 106.037C148.673 104.826 150.007 103.876 153.34 104.701C154.432 106.308 154.84 106.563 154.386 108.591C153.848 110.994 151.646 113.153 149.484 114.199C147.936 114.948 146.227 114.836 144.556 114.759C143.144 114.995 142.483 115.489 141.362 116.359C138.956 122.802 140.357 133.04 140.558 139.987C143.744 141.878 149.635 144.923 150.643 148.738C146.82 149.379 141.579 145.497 138.313 143.648C133.857 146.226 129.549 149.841 124.438 150.742L123.57 149.974C127.183 145.05 131.342 142.876 136.725 140.329C136.683 133.315 138.872 120.242 134.215 114.81L134.773 112.322C134.149 110.227 132.549 108.332 131.302 106.542C136.172 106.727 140.731 106.762 145.559 106.037Z" fill="#3A1A01"/>
<path d="M145.558 106.037C148.672 104.826 150.006 103.876 153.339 104.701C154.431 106.308 154.838 106.563 154.385 108.591C153.847 110.994 151.645 113.153 149.483 114.199C147.935 114.948 146.226 114.836 144.555 114.759L142.318 111.953C143.065 109.781 144.332 107.964 145.558 106.037Z" fill="#3A1A01"/>
<path d="M131.301 106.542C136.171 106.727 140.73 106.761 145.558 106.037C144.332 107.964 143.065 109.781 142.319 111.952L139.89 114.344C137.174 114.696 136.902 113.914 134.772 112.322C134.148 110.227 132.548 108.332 131.301 106.542Z" fill="#8F4C0E"/>
<path d="M134.215 114.81C131.567 115.29 129.005 115.939 126.432 114.81C123.563 113.55 122.231 111.782 121.068 108.957C121.373 106.494 121.214 106.489 123.249 104.797C126.354 104.177 128.503 105.366 131.302 106.542C132.549 108.333 134.149 110.228 134.774 112.323L134.215 114.81Z" fill="#3A1A01"/>
<path d="M67.8965 101.549C69.0486 101.552 70.2052 101.585 71.3452 101.77C76.0413 102.534 80.7582 105.786 83.2347 109.825C84.7437 112.287 85.3693 115.261 84.4266 118.054C83.122 121.918 79.5586 124.138 76.035 125.688C74.3828 125.704 72.7421 125.657 71.1055 125.406C66.844 124.752 62.8575 122.783 60.4095 119.112C58.7639 116.645 58.1979 113.836 58.9743 110.957C60.2223 106.327 64.0367 103.813 67.8965 101.549Z" fill="#F88C44"/>
<path d="M76.7661 109.684L77.7689 110.502C78.5082 113.165 77.6037 113.816 76.3688 116.21L75.5393 115.448C74.6664 112.845 75.6182 112.101 76.7661 109.684Z" fill="#CE6F17"/>
<path d="M69.3729 108.898C69.399 109.004 69.4369 109.107 69.451 109.215C69.8088 111.935 69.5202 112.156 67.8319 114.201L67.0676 113.788C66.8587 111.46 68.0075 110.73 69.3729 108.898Z" fill="#CE6F17"/>
<path d="M85.2888 78.1884C86.1943 78.1616 87.0987 78.1416 88.0041 78.1875C91.0031 78.3403 93.2838 79.7264 95.1328 82.087C97.1748 84.6941 97.7402 88.0472 97.3047 91.2704C96.6256 96.2982 94.321 99.0753 90.5733 102.138C90.2247 102.173 89.8761 102.216 89.5265 102.242C86.3967 102.474 83.1705 101.582 80.9241 99.3161C79.0121 97.3873 78.2996 94.6561 78.3655 92.0022C78.5135 85.9943 81.183 82.2571 85.2888 78.1884Z" fill="#201302"/>
<path d="M87.4274 81.9298C88.8409 81.0414 90.6957 81.3595 91.7329 82.6664C92.7711 83.9742 92.6593 85.8533 91.4741 87.0293C90.582 87.9139 89.2631 88.21 88.0788 87.7916C86.8935 87.3732 86.0531 86.3137 85.9146 85.0651C85.7761 83.8166 86.3635 82.5986 87.4274 81.9298Z" fill="#F8F3EF"/>
<path d="M179.83 101.368C183.436 100.251 187.363 101.204 190.056 103.85C192.748 106.495 193.77 110.407 192.718 114.032C191.664 117.657 188.706 120.412 185.015 121.203C179.65 122.353 174.33 119.076 172.941 113.765C171.553 108.455 174.589 102.992 179.83 101.368Z" fill="#F88C44"/>
<path d="M161.545 82.5119C162.029 80.8535 163.139 79.6297 164.179 78.2865C167.073 77.1783 168.042 77.4086 171.161 77.849C174.766 80.9938 177.224 84.3537 177.337 89.3366C177.4 92.3391 176.142 95.2194 173.896 97.2131C171.959 98.9212 169.913 99.3435 167.4 99.0702C166.527 98.9747 165.665 98.82 164.804 98.6595L161.987 100.078L158.465 95.0694L160.167 91.3666C160.206 88.1281 160.385 85.6061 161.545 82.5119Z" fill="#1F1302"/>
<path d="M161.545 82.5119C162.029 80.8535 163.139 79.6297 164.179 78.2865C167.073 77.1783 168.042 77.4086 171.161 77.849C170.066 79.1081 169.973 79.6058 168.332 80.0644C166.379 80.6108 164.777 81.8384 163.132 82.9809L162.607 84.0107L161.545 82.5119Z" fill="#22201C"/>
<path d="M160.167 91.3672C161.643 93.8061 163.036 96.4227 164.804 98.66L161.987 100.079L158.465 95.07L160.167 91.3672Z" fill="#DF8027"/>
<path d="M65.1848 37.4254C59.0203 33.6385 57.2367 25.9435 65.0009 22.3047C75.191 23.9946 75.4852 33.7951 66.8661 38.0711L65.1848 37.4254Z" fill="#9F540F"/>
<path d="M65.0013 22.3047C75.1914 23.9946 75.4856 33.7951 66.8665 38.0711L65.1853 37.4254C65.3929 34.5766 67.3053 33.0395 69.2825 30.7592C68.8099 27.2274 67.8554 27.3115 64.9082 24.3519L65.0013 22.3047Z" fill="#4D2809"/>
<path d="M156.104 58.3811C158.42 58.3658 160.316 59.089 162.407 60.0071C165.955 61.5652 168.485 62.9141 169.934 66.5251C166.417 66.2032 162.441 65.7131 159.413 63.7337C156.896 62.0887 156.57 61.1238 156.104 58.3811Z" fill="#4D2809"/>
<path d="M93.8375 58.5547C95.2692 58.9932 95.2434 59.3839 96.0991 60.5475C95.9463 60.8751 95.8116 61.2114 95.6416 61.5295C93.8088 64.9629 87.9494 66.4264 84.4663 67.4792C83.1225 66.9633 83.2992 66.8831 82.5762 65.7501C84.303 62.9615 90.8376 60.6382 93.8375 58.5547Z" fill="#4D2809"/>
<path d="M239.511 0.556565C268.37 -3.64107 295.164 16.3593 299.357 45.225C303.55 74.0917 283.551 100.891 254.692 105.081C225.837 109.27 199.05 89.2716 194.858 60.4097C190.666 31.5488 210.657 4.75229 239.511 0.556565Z" fill="#DC4E29"/>
<path d="M220.691 19.0871C232.101 11.5803 241.772 7.02724 256.067 10.0995C266.699 12.4076 275.975 18.8569 281.843 28.0202C292.679 44.8395 290.248 65.9318 278.747 81.7087C274.55 77.2751 263.233 64.6965 259.194 61.2947L256.817 58.2396C256.28 57.034 254.971 55.196 254.204 54.0209L253.903 54.1308L252.232 53.3493L251.22 50.3888L250.285 49.9284C248.864 48.9912 247.449 47.2879 246.257 46.0059C243.312 43.887 242.343 43.2546 239.959 40.4125C233.638 33.284 227.275 25.9539 220.691 19.0871Z" fill="#F8F3EF"/>
<path d="M239.959 40.4115C241.837 33.1358 244.027 26.782 251.108 22.8309C254.864 20.7101 259.317 20.1942 263.46 21.4008C274.055 24.5724 276.648 36.4517 272.821 45.6418C269.776 52.9566 265.157 56.3814 259.194 61.2936L256.817 58.2385C256.28 57.0329 254.971 55.1949 254.204 54.0199L253.903 54.1297L252.232 53.3483L251.219 50.3878L250.285 49.9273C248.864 48.9902 247.449 47.2868 246.257 46.0048C243.312 43.8859 242.343 43.2535 239.959 40.4115Z" fill="#8F4C0E"/>
<path d="M267.384 27.7559C271.535 33.4361 271.14 38.7266 269.026 45.1568C265.808 51.4437 262.346 53.8339 256.817 58.2389C256.28 57.0333 254.971 55.1952 254.204 54.0202L253.903 54.1301L252.232 53.3486L251.219 50.3881L250.285 49.9277C252.383 45.1186 255.205 40.6583 258.652 36.7033L260.107 35.5464C261.014 29.9769 261.108 30.2741 266.126 28.3825L267.384 27.7559Z" fill="#E48E33"/>
<path d="M254.203 54.0212C256.951 50.6232 258.927 50.1102 261.8 47.4076C261.832 47.377 264.847 41.6356 265.608 40.4434C269.546 42.3167 264.925 40.6879 269.025 45.1578C265.807 51.4447 262.345 53.8349 256.816 58.2399C256.279 57.0343 254.97 55.1962 254.203 54.0212Z" fill="#DF8027"/>
<path d="M258.652 36.7031C260.72 41.8523 254.875 46.8524 251.219 50.388L250.285 49.9275C252.383 45.1185 255.205 40.6581 258.652 36.7031Z" fill="#9F540F"/>
<path d="M260.107 35.5467C261.014 29.9772 261.108 30.2743 266.126 28.3828C266.063 32.7171 266.589 31.2497 264.617 34.5636C262.69 35.4464 262.227 35.8504 260.107 35.5467Z" fill="#B35D0C"/>
<path d="M254.361 25.0045C260.47 23.7282 262.363 23.3671 267.383 27.7568L266.125 28.3835C261.107 30.275 261.013 29.9778 260.106 35.5473L258.651 36.7042C255.204 40.6592 252.383 45.1195 250.284 49.9286C248.863 48.9914 247.448 47.2881 246.256 46.0061C248.488 44.6533 248.914 41.8304 248.94 39.4431L247.653 38.5661L247.658 34.9589C250.145 30.8682 252.659 29.4238 256.732 27.4845L254.361 25.0045Z" fill="#E6A448"/>
<path d="M247.658 34.9588C250.145 30.8681 252.659 29.4237 256.732 27.4844C256.937 30.6541 256.672 31.0792 255.239 33.9451C251.888 36.3573 251.798 36.664 247.658 34.9588Z" fill="#CB741B"/>
<path d="M247.654 38.5655C245.975 39.4253 246.833 39.3326 245 38.8358C244.339 33.2711 250.303 27.9711 254.361 25.0039L256.733 27.4838C252.66 29.4231 250.146 30.8676 247.659 34.9582L247.654 38.5655Z" fill="#F2BA6F"/>
<path d="M214.732 25.2402C221.844 32.9525 229.078 40.55 236.432 48.032L239.171 50.7957L241.289 53.5327L241.939 54.8425C244.892 57.6893 247.796 60.0642 249.741 63.6294C250.71 65.1579 251.836 67.656 253.417 68.4394C255.615 69.0995 255.724 69.2705 257.153 71.0875C260.661 75.4141 268.159 82.8999 272.294 87.5313C256.81 97.4273 241.424 100.539 225.109 90.0361C215.522 83.817 208.82 74.0223 206.495 62.8327C203.239 47.7961 206.914 37.58 214.732 25.2402Z" fill="#F8F3EF"/>
<path d="M236.432 48.0332L239.171 50.7969L241.289 53.5339L241.939 54.8436C244.892 57.6905 247.796 60.0654 249.741 63.6306C250.71 65.1591 251.836 67.6572 253.417 68.4406C255.615 69.1007 255.724 69.2717 257.153 71.0887C252.789 79.7467 246.018 87.4226 235.13 85.8158C230.346 85.1337 226.082 82.4349 223.419 78.4016C215.124 65.6482 226.206 54.2523 236.432 48.0332Z" fill="#8F4C0E"/>
<path d="M239.169 50.7969L241.288 53.5338L241.938 54.8436C244.89 57.6904 247.795 60.0653 249.739 63.6305C247.704 67.6782 246.07 72.6554 241.371 74.0922C234.453 76.2063 234.656 73.026 227.696 78.3414C227.025 77.3259 226.399 76.2817 225.819 75.2118C223.446 70.9176 224.204 67.7709 225.486 63.3201C229.119 56.7122 232.889 54.8703 239.169 50.7969Z" fill="#E09E4D"/>
<path d="M239.17 50.7969L241.288 53.5338C236.358 55.6565 235.51 56.2975 231.269 59.644L230.307 61.4286L231.159 63.7232L228.995 64.8724L227.069 67.212L225.486 63.3201C229.119 56.7122 232.889 54.8703 239.17 50.7969Z" fill="#EBAC51"/>
<path d="M241.288 53.5332L241.939 54.843C240.141 57.9066 239.524 59.6539 236.464 61.4002C233.321 61.5082 234.383 61.5502 231.27 59.6434C235.51 56.2969 236.358 55.6559 241.288 53.5332Z" fill="#C26510"/>
<path d="M228.995 64.8711L231.203 65.9382C231.706 68.3207 231.449 68.5901 230.535 70.7424L228.802 71.4866C227.209 69.8731 227.365 69.3906 227.068 67.2106L228.995 64.8711Z" fill="#9F540F"/>
<path d="M245.039 60.1699L246.408 61.9459C245.985 66.1951 242.504 69.4546 239.691 72.3559C238.235 71.3107 238.029 71.2812 237.496 69.596C238.828 66.0002 242.415 62.9518 245.039 60.1699Z" fill="#B35D0C"/>
<path d="M249.74 63.6309C250.71 65.1594 251.836 67.6575 253.417 68.4408C251.557 74.0839 248.692 78.5442 243.098 81.1551C239.569 82.802 235.952 82.8861 232.361 81.3758C230.637 80.6507 229.153 79.4947 227.697 78.3417C234.657 73.0263 234.454 76.2066 241.372 74.0925C246.071 72.6557 247.705 67.6785 249.74 63.6309Z" fill="#CB741B"/>
<path d="M235.232 265.674C238.245 266.584 240.843 268.153 243.783 266.862C245.081 264.089 246.284 261.273 247.39 258.418L248.565 258.08C249.781 259.648 250.445 260.042 250.144 262.225C249.7 265.432 247.609 268.772 246.54 271.875L244.512 274.91C242.553 273.45 240.581 272.353 238.408 271.241C233.466 268.049 228.249 266.984 222.496 266.258L226.836 263.244C229.583 264.055 232.432 265.122 235.232 265.674Z" fill="#8F4C0E"/>
<path d="M246.538 271.875C250.171 275.478 252.297 278.383 252.231 283.786C252.217 284.819 252.127 285.821 252.029 286.849L250.66 289.914C250.355 288.132 250.348 286.317 250.264 284.514L249.217 284.861L249.958 284.011L248.818 285.968C248.836 283.194 248.805 281.42 247.513 278.931L244.51 274.91L246.538 271.875Z" fill="#9F540F"/>
<path d="M167.615 83.3966C169.028 82.5082 170.883 82.8263 171.92 84.1332C172.959 85.441 172.847 87.3201 171.662 88.4961C170.77 89.3807 169.451 89.6768 168.266 89.2584C167.081 88.84 166.241 87.7805 166.102 86.5319C165.964 85.2834 166.551 84.0653 167.615 83.3966Z" fill="#F8F3EF"/>
</svg>
