<svg width="92" height="88" viewBox="0 0 92 88" fill="none" xmlns="http://www.w3.org/2000/svg">
<path d="M19.2597 7.23021C17.2971 1.08226 25.9827 -3.02661 28.1673 2.8274C34.7681 1.03441 41.7859 1.30043 47.8953 4.54899C48.3955 3.58434 49.1225 2.75578 50.0144 2.13481C51.2405 1.2613 52.7663 0.918211 54.2484 1.18294C55.5423 1.41711 56.6876 2.16294 57.4249 3.25192C58.7485 5.18758 58.6132 8.03867 57.3823 9.98149C56.8013 10.8986 56.1244 11.5488 55.2254 12.1418C58.0721 16.648 58.8385 23.5464 60.1567 28.7026C60.4197 28.603 61.019 28.4639 61.3138 28.3863C61.4362 27.1538 62.0468 26.0215 63.0093 25.242C66.2144 22.6387 73.2519 23.8767 73.5742 28.4496C74.7092 28.6461 76.3077 29.2294 77.357 29.7068C81.0789 31.3596 84.2953 33.9714 86.6763 37.2752C90.5647 42.7697 92.0894 49.593 90.9091 56.2203C89.8167 62.3793 86.3669 67.8706 81.2928 71.5289C78.1832 73.7412 74.6105 75.2158 70.846 75.842C70.4246 75.9078 69.3915 76.0598 68.9813 76.0587C68.9328 78.292 68.6757 80.6779 68.6461 82.8617C69.4179 82.9905 70.2387 83.0088 71.0207 83.0924C72.4828 83.2492 76.7243 83.7784 77.6609 84.8353C77.8005 84.9927 77.8943 85.1883 77.8711 85.4028C77.8426 85.6647 77.648 85.8722 77.4491 86.0258C75.6895 87.3829 69.3052 87.8889 66.9738 87.9633C64.3799 88.0468 61.7833 87.987 59.1958 87.7844C57.6647 87.6658 56.0667 87.3279 54.5464 87.1484C54.2338 87.1118 53.1451 87.4551 52.7113 87.5305C51.1133 87.8189 49.4852 87.8976 47.8673 87.7644C46.7571 87.6658 45.4486 87.3969 44.3712 87.1177C43.7137 86.9474 43.1667 86.5119 42.4804 86.52C40.4671 86.5448 38.4579 86.6186 36.4439 86.6262C32.015 86.6634 27.5858 86.6375 23.1576 86.5486C18.7734 86.4586 14.403 86.2964 10.0394 85.7122C8.76855 85.5424 5.98714 85.1199 5.07234 84.098C4.98218 83.9972 4.93286 83.7854 4.97248 83.648C5.13648 83.0784 5.78444 82.9032 6.19452 82.6305L6.2814 82.5712C5.71034 81.4912 5.82933 80.4403 6.39549 79.4028C7.42988 77.5084 9.44378 76.5367 11.4231 75.9514C10.5519 74.7873 10.119 74.2446 9.45666 72.9221C6.5064 67.0309 6.81689 60.9414 8.60643 54.7555C8.9568 53.5445 9.39964 52.3082 9.80757 51.1037C5.48517 50.4645 1.75291 48.1853 0.623995 43.7053C-0.0285524 41.1156 -0.938982 34.3577 2.43752 33.4082C2.86253 31.9775 3.59312 30.7631 5.31389 31.1713C6.00654 29.8943 7.45364 29.5001 8.63699 30.4621C8.84292 30.6295 8.99668 30.9604 9.23209 31.1031C9.32301 31.0631 9.59388 30.9317 9.67558 30.918C12.4004 30.4587 12.8252 34.1695 13.1918 35.9957C14.1628 35.4262 15.3867 34.8579 16.4088 34.4051C15.1152 33.5463 13.9279 32.619 12.9552 31.3959C10.7157 28.5798 10.0261 25.1603 10.4138 21.6475C10.9474 16.8136 13.3408 12.6605 16.8038 9.32038C17.6071 8.54554 18.3869 7.92716 19.2597 7.23021Z" fill="#FF9A43"/>
<path d="M61.3142 28.3863C61.4365 27.1538 62.0472 26.0215 63.0097 25.242C66.2148 22.6388 73.2522 23.8768 73.5745 28.4496C74.7095 28.6461 76.308 29.2294 77.3573 29.7068C81.0793 31.3596 84.2956 33.9715 86.6767 37.2753C90.5651 42.7697 92.0898 49.593 90.9095 56.2204C89.8171 62.3793 86.3673 67.8706 81.2932 71.5289C78.1835 73.7413 74.6109 75.2158 70.8464 75.842C70.425 75.9078 69.3918 76.0598 68.9817 76.0587C68.6303 76.0711 68.2795 76.0921 67.9291 76.1212C66.8971 76.1902 65.0852 76.1331 64.08 75.9924C63.9345 75.9434 63.2517 75.904 63.055 75.8884C62.9407 75.8323 62.0773 75.6798 61.872 75.634C61.0631 75.4535 59.7825 75.1732 59.0367 74.8342C58.7456 74.7173 58.3134 74.5966 58.003 74.5012C57.7238 74.3519 57.2867 74.1902 56.9865 74.0614C53.5529 72.5842 51.1256 70.5146 48.6001 67.8377C48.55 67.7811 48.5004 67.7245 48.4519 67.6669C44.3452 62.7997 42.3345 56.5033 42.8593 50.1568C43.4694 42.3051 47.8305 35.2301 54.5715 31.1578C55.5955 30.5282 56.64 30.0349 57.7367 29.5478C57.9512 29.4527 59.0566 29.0703 59.1487 28.9463C59.3541 29.004 59.9119 28.7852 60.1571 28.7026C60.4201 28.603 61.0194 28.4639 61.3142 28.3863Z" fill="#E52D0F"/>
<path d="M65.8195 32.2949C67.0962 32.8195 68.1563 32.974 69.4331 32.3286C70.7405 32.5277 72.0248 32.7557 73.2903 33.1506C77.0704 34.356 80.3757 36.7203 82.7379 39.9086C85.9025 44.1815 87.2299 49.5416 86.4258 54.7973C85.9095 58.1457 84.2065 62.1344 81.8734 64.6194C80.719 63.3842 79.5188 62.2142 78.3649 60.9913C77.9596 60.599 77.6325 60.2826 77.2612 59.8536C77.0914 59.7129 76.7659 59.3734 76.5972 59.2058C75.9715 58.6205 74.9615 57.5545 74.3924 56.9245L74.1429 56.6739C73.8411 56.3688 73.6098 56.1894 73.3199 55.8444C72.6753 55.1896 72.007 54.5332 71.3943 53.8509C71.0132 53.5081 70.6096 53.0791 70.2523 52.704C67.9364 50.2734 65.3689 47.9291 63.1431 45.4268C62.6785 45.0252 61.8696 44.1448 61.4164 43.6808C61.183 43.4731 60.9884 43.2354 60.7842 42.9991L60.4684 42.7244C60.2706 42.536 59.9499 42.2583 59.8125 42.0386C58.0965 40.3123 56.3929 38.5739 54.7012 36.8236C57.287 34.5201 60.8585 33.0933 64.242 32.5135C64.969 32.5248 65.1092 32.4777 65.8195 32.2949Z" fill="white"/>
<path d="M60.4688 42.7255C61.7935 41.862 62.7749 41.2191 64.2225 40.5622C67.0826 39.2615 70.2823 38.9061 73.3575 39.5478C78.1724 40.5782 82.1131 44.5499 82.2936 49.6009C81.9223 50.3468 81.6022 51.2382 81.1683 51.9307C79.7369 54.2142 77.1085 56.4449 74.3928 56.9256L74.1432 56.675C73.8414 56.37 73.6102 56.1905 73.3203 55.8456C72.6757 55.1908 72.0074 54.5343 71.3947 53.852C71.0136 53.5093 70.61 53.0803 70.2526 52.7052C67.9368 50.2746 65.3693 47.9302 63.1435 45.4279C62.6789 45.0264 61.87 44.1459 61.4167 43.6819C61.1834 43.4742 60.9888 43.2366 60.7846 43.0002L60.4688 42.7255Z" fill="#EB6E50"/>
<path d="M60.7852 42.9996C62.4413 42.8725 63.8986 42.8186 65.5154 43.3417C65.9913 43.4957 66.7404 43.8715 67.1554 43.9824C67.6491 44.2825 69.6394 45.5814 69.8383 45.9457C70.2166 46.4895 70.769 46.8888 71.1489 47.4105C73.1543 50.1623 74.3438 53.2391 74.1438 56.6743C73.842 56.3693 73.6108 56.1898 73.3209 55.8449C72.6763 55.1901 72.008 54.5337 71.3952 53.8514C71.0142 53.5086 70.6105 53.0796 70.2532 52.7045C67.9374 50.2739 65.3699 47.9295 63.1441 45.4272C62.6795 45.0257 61.8706 44.1452 61.4173 43.6813C61.184 43.4736 60.9894 43.2359 60.7852 42.9996Z" fill="#ECD2C3"/>
<path d="M63.1426 45.4277C65.5958 45.6945 67.5581 46.9626 69.1297 48.8511C70.1811 50.1149 71.252 52.2006 71.3937 53.8519C71.0127 53.5091 70.609 53.0801 70.2517 52.705C67.9359 50.2744 65.3684 47.93 63.1426 45.4277Z" fill="#EB6E50"/>
<path d="M60.7852 42.9996C62.4413 42.8725 63.8986 42.8186 65.5154 43.3417C65.9913 43.4957 66.7404 43.8715 67.1554 43.9824C67.6491 44.2825 69.6394 45.5814 69.8383 45.9457C70.2166 46.4895 70.769 46.8888 71.1489 47.4105C73.1543 50.1623 74.3438 53.2391 74.1438 56.6743C73.842 56.3693 73.6108 56.1898 73.3209 55.8449C73.3446 55.5711 73.3214 55.1227 73.3004 54.8495C73.053 51.5894 71.3446 48.199 68.8369 46.089C66.6224 44.2258 64.2742 43.4895 61.4173 43.6813C61.184 43.4736 60.9894 43.2359 60.7852 42.9996Z" fill="#CF5E40"/>
<path d="M67.1557 43.9822C67.1369 43.7113 67.139 43.5213 67.3589 43.3056C68.0795 42.6501 69.3508 42.4706 70.2794 42.4054C70.4476 42.3679 71.7863 42.5442 71.8278 42.4026C72.1425 41.3315 72.5839 41.2927 73.6155 41.0884C74.7294 40.8676 77.6413 42.0953 76.2482 43.4254C75.5163 44.1241 74.1129 44.0148 73.1514 43.7992C73.0388 44.4612 72.9984 44.8783 72.3834 45.2664C71.6246 45.745 70.7478 46.3777 69.8386 45.9454C69.6397 45.5811 67.6494 44.2823 67.1557 43.9822Z" fill="#F08367"/>
<path d="M59.8125 42.039C61.847 40.6687 63.8174 39.5215 66.1989 38.874C71.7063 37.3765 77.923 38.8094 81.2601 43.7013C82.8532 46.0361 83.6783 49.2439 83.1027 52.048C83.0709 52.2026 83.0359 52.3562 82.9976 52.5088C82.2943 55.7235 79.8583 58.0366 77.2612 59.854C77.0914 59.7133 76.7659 59.3738 76.5972 59.2061C75.9715 58.6209 74.9615 57.5548 74.3924 56.9248C77.1081 56.4441 79.7365 54.2134 81.168 51.9299C81.6018 51.2374 81.9219 50.346 82.2933 49.6001C82.1127 44.5492 78.172 40.5774 73.3571 39.547C70.2819 38.9053 67.0822 39.2607 64.2221 40.5615C62.7745 41.2183 61.7931 41.8612 60.4684 42.7247C60.2706 42.5363 59.9499 42.2586 59.8125 42.039Z" fill="#9B4320"/>
<path d="M82.2934 49.6016C82.6082 53.3402 80.565 56.1384 77.7475 58.307C77.3654 58.6013 76.9736 58.9069 76.5974 59.2076C75.9717 58.6223 74.9617 57.5563 74.3926 56.9263C77.1083 56.4455 79.7367 54.2149 81.1681 51.9314C81.602 51.2389 81.9221 50.3475 82.2934 49.6016Z" fill="#CF5E40"/>
<path d="M82.9982 52.5098C83.0575 52.7469 83.2951 52.8757 83.5204 53.1366C84.1833 53.904 83.5274 55.3608 83.0602 56.1142C81.9564 57.8932 80.0356 59.7256 78.3655 60.9927C77.9602 60.6003 77.633 60.284 77.2617 59.855C79.8589 58.0377 82.2949 55.7245 82.9982 52.5098Z" fill="#ECD2C3"/>
<path d="M61.3142 28.3867C61.3568 28.7404 61.284 29.1074 61.3832 29.3667C55.7421 30.6095 50.4772 34.6186 47.3891 39.4495C44.0423 44.7597 42.9332 51.1784 44.3031 57.304C45.6505 63.1688 49.2441 68.2714 54.3123 71.5158C59.6117 74.8993 66.0504 76.0079 72.1765 74.5921C78.1873 73.2297 83.4166 69.5498 86.7284 64.3517C90.1932 58.8481 91.1105 52.4363 89.6656 46.12C88.3291 40.3209 84.7721 35.2769 79.7583 32.0709C78.1216 31.0383 75.45 29.8063 73.5535 29.4153L73.5745 28.45C74.7095 28.6465 76.308 29.2298 77.3573 29.7072C81.0793 31.36 84.2956 33.9719 86.6767 37.2757C90.5651 42.7701 92.0898 49.5934 90.9095 56.2207C89.8171 62.3797 86.3673 67.871 81.2932 71.5293C78.1835 73.7417 74.6109 75.2162 70.8464 75.8424C70.425 75.9082 69.3918 76.0602 68.9817 76.0591C68.6303 76.0715 68.2795 76.0925 67.9291 76.1216C66.8971 76.1906 65.0852 76.1335 64.08 75.9928C63.9345 75.9438 63.2517 75.9044 63.055 75.8888C62.9407 75.8327 62.0773 75.6802 61.872 75.6344C61.0631 75.4539 59.7825 75.1736 59.0367 74.8346C58.7456 74.7177 58.3134 74.597 58.003 74.5016C57.7238 74.3523 57.2867 74.1906 56.9865 74.0618C53.5529 72.5845 51.1256 70.515 48.6001 67.8381C48.55 67.7815 48.5004 67.7249 48.4519 67.6673C44.3452 62.8001 42.3345 56.5037 42.8593 50.1572C43.4694 42.3055 47.8305 35.2305 54.5715 31.1582C55.5955 30.5286 56.64 30.0353 57.7367 29.5482C57.9512 29.4531 59.0566 29.0707 59.1487 28.9467C59.3541 29.0044 59.9119 28.7856 60.1571 28.703C60.4201 28.6034 61.0194 28.4643 61.3142 28.3867Z" fill="#7E1604"/>
<path d="M61.3125 28.3863C61.4348 27.1538 62.0455 26.0215 63.008 25.242C66.2131 22.6388 73.2505 23.8768 73.5728 28.4496L73.5518 29.4149C73.3793 30.4639 73.0409 31.1107 72.2158 31.7679C70.9757 32.7554 69.9894 31.9814 69.4322 32.3294C68.1554 32.9748 67.0953 32.8203 65.8186 32.2957C65.1082 32.4785 64.9681 32.5256 64.2411 32.5143L63.9043 32.405C62.2826 31.8862 61.7814 30.909 61.3815 29.3663C61.2823 29.107 61.3551 28.74 61.3125 28.3863Z" fill="#512200"/>
<path d="M66.5826 24.9304C67.6524 24.7832 68.7562 24.9909 69.8825 25.366C72.4204 26.2111 74.0512 29.9252 70.9647 31.3107C70.7702 31.3982 70.6187 31.4257 70.4096 31.3279C70.2188 31.0116 70.4851 30.1898 70.4856 29.7671C70.4856 29.281 70.3913 28.079 69.7553 28.0704C69.6901 28.1098 69.5258 28.2241 69.522 28.3072C69.487 29.0813 69.7117 29.7134 69.5107 30.4944C69.301 31.3112 69.1749 31.4538 68.4021 31.6583C67.5656 31.7622 67.0429 31.7524 66.276 31.3505C66.366 30.721 66.6047 28.0507 65.5635 28.1609C65.0412 28.6308 66.0361 31.4463 64.8424 31.5071C62.3347 31.6348 61.6492 28.2641 63.0698 26.6229C64.0631 25.4749 65.1016 25.1122 66.5826 24.9304Z" fill="#E58230"/>
<path d="M51.9063 39.6719L56.56 44.3899C56.7875 44.6119 57.0294 44.8372 57.2299 45.0824L58.2415 46.1091C58.8273 46.6982 59.4062 47.2948 59.9774 47.8984C60.2933 48.2094 60.6064 48.5236 60.9163 48.841C61.4369 49.3595 61.9532 49.8822 62.4652 50.4088C62.7422 50.695 63.2698 51.2668 63.5571 51.5012C63.9079 51.8725 64.2642 52.239 64.6258 52.5996C66.0858 54.0741 67.5371 55.5562 68.981 57.0463C69.5781 57.6672 70.2604 58.3274 70.8193 58.9677C71.2774 59.3767 71.7252 59.8634 72.1381 60.3209C72.469 60.6319 72.8015 60.9321 73.0968 61.2776C73.3006 61.4964 73.5361 61.7658 73.757 61.9609C74.1278 62.3344 74.4905 62.7165 74.8435 63.1067C76.1354 64.3204 77.7834 66.0628 79.0031 67.3541C75.5129 70.0057 71.625 71.4376 67.2192 71.5255C62.0351 71.6333 57.0246 69.6564 53.3108 66.0385C49.736 62.5974 47.4886 57.5109 47.3997 52.5446C47.3291 48.6222 48.4269 44.7677 50.5536 41.4714C50.989 40.8036 51.3501 40.2487 51.9063 39.6719Z" fill="white"/>
<path d="M57.23 45.082L58.2416 46.1087C58.8274 46.6978 59.4062 47.2944 59.9775 47.898C60.2933 48.209 60.6064 48.5232 60.9163 48.8406C61.4369 49.359 61.9533 49.8818 62.4652 50.4084C62.7423 50.6945 63.2699 51.2664 63.5571 51.5008C63.908 51.8721 64.2642 52.2386 64.6258 52.5991C66.0858 54.0737 67.5372 55.5558 68.981 57.0459C69.5782 57.6668 70.2605 58.327 70.8193 58.9673C71.2774 59.3763 71.7253 59.863 72.1381 60.3205C71.5318 61.2858 71.0134 61.8883 69.9931 62.4483C66.5962 63.5897 64.3257 61.8155 61.0899 61.3941C59.4111 61.1753 57.7926 61.4194 56.0287 61.0718C54.0896 60.6897 52.4081 59.7794 51.2839 58.1136C50.2831 56.6304 49.8891 54.5124 50.2653 52.7705C51.1486 48.68 54.1015 47.1505 57.23 45.082Z" fill="#ECD2C3"/>
<path d="M70.8188 58.9677C70.2782 60.2299 69.5631 61.013 68.1871 61.3595C67.687 61.484 67.1685 61.5223 66.6555 61.4716C66.2313 61.4307 65.8072 61.3466 65.3927 61.2501C64.9228 61.1402 61.5442 60.2358 61.4003 60.141C61.3582 60.113 61.2898 60.0542 61.2812 60.0014C61.2122 59.5713 61.6186 58.6681 61.673 58.1642C61.7872 57.1008 61.1998 56.1032 61.0182 55.0847C60.946 54.6788 60.9519 54.2493 61.2117 53.9076C61.3712 53.6974 61.5948 53.5503 61.8309 53.4393C62.2739 53.2307 64.1289 52.674 64.6253 52.5996C66.0853 54.0741 67.5366 55.5562 68.9805 57.0464C69.5776 57.6673 70.2599 58.3275 70.8188 58.9677Z" fill="#EB6E50"/>
<path d="M58.241 46.1094C58.8268 46.6984 59.4056 47.295 59.9769 47.8987C60.2927 48.2096 60.6058 48.5238 60.9157 48.8413C61.4363 49.3597 61.9526 49.8825 62.4646 50.409C62.7416 50.6952 63.2693 51.267 63.5565 51.5015C61.5112 52.9695 59.4541 52.4575 57.3792 51.5661C56.5185 51.1959 53.2186 50.7707 53.6266 49.4282C53.9747 48.2808 57.2633 46.6176 58.241 46.1094Z" fill="#EB6E50"/>
<path d="M59.9766 47.8984C60.2924 48.2094 60.6055 48.5236 60.9154 48.841C60.232 49.2102 58.9871 49.4597 58.218 49.4544L57.7012 49.0728C58.5144 48.2638 59.4242 48.3021 59.9766 47.8984Z" fill="#F08367"/>
<path d="M52.7621 51.38C53.5361 51.3325 54.5778 51.8601 55.3372 52.0827C56.1418 52.3188 56.9987 52.5354 57.7845 52.8135C58.3633 53.0264 59.473 53.5373 59.6406 54.2051C60.013 55.6855 60.9723 57.4338 60.3332 58.9634C60.0799 59.5697 59.5948 59.8752 59.0419 60.0827C57.6832 60.2493 56.1057 60.0159 54.8435 59.4878C53.4013 58.9003 52.2572 57.7551 51.6703 56.3123C51.0763 54.8518 50.9901 52.0579 52.7621 51.38Z" fill="#EB6E50"/>
<path d="M54.2291 54.2798C55.1744 54.2437 58.7147 56.1704 57.6826 57.0834C56.5223 57.4202 53.2638 55.3841 54.2291 54.2798Z" fill="#F08367"/>
<path d="M56.56 44.3887C56.7874 44.6107 57.0294 44.836 57.2299 45.0812C54.1014 47.1497 51.1485 48.6792 50.2652 52.7697C49.889 54.5116 50.283 56.6296 51.2838 58.1127C52.408 59.7786 54.0895 60.6889 56.0286 61.071C57.7925 61.4186 59.411 61.1745 61.0898 61.3933C64.3256 61.8147 66.5961 63.5889 69.993 62.4474C71.0133 61.8875 71.5317 61.2849 72.138 60.3197C72.4689 60.6307 72.8015 60.9309 73.0968 61.2763C73.3005 61.4951 73.536 61.7646 73.757 61.9597C70.7066 63.6482 68.3046 64.2432 64.8208 63.3329C63.7365 63.05 62.7734 62.6404 61.6562 62.4372C60.0297 62.1408 58.4193 62.3251 56.7987 62.1467C54.207 61.8622 52.3008 60.9109 50.671 58.8894C48.8661 56.0308 48.6802 53.0381 50.2792 50.0114C51.6702 47.3798 54.1585 45.9597 56.56 44.3887Z" fill="#9B4320"/>
<path d="M72.1372 60.3203C72.4681 60.6313 72.8006 60.9315 73.0959 61.2769C72.4594 61.7075 70.73 62.4049 69.9922 62.448C71.0124 61.8881 71.5309 61.2856 72.1372 60.3203Z" fill="#CF5E40"/>
<path d="M50.6707 58.8906C52.3004 60.9122 54.2066 61.8634 56.7984 62.148C58.419 62.3264 60.0293 62.142 61.6559 62.4385C62.7731 62.6416 63.7362 63.0512 64.8205 63.3342C68.3042 64.2444 70.7063 63.6495 73.7567 61.961C74.1274 62.3344 74.4901 62.7166 74.8432 63.1067C74.2142 63.6257 72.4821 64.3689 71.6904 64.6233C69.2123 65.4199 66.5704 65.2135 64.087 64.5619C63.0237 64.2832 62.1274 63.9653 61.0253 63.8117C60.0843 63.6807 59.2802 63.6651 58.3435 63.6209C56.3371 63.5255 54.4583 63.2086 52.6723 62.232C51.8995 61.809 50.7203 60.9634 50.4416 60.0698C50.3085 59.643 50.467 59.2609 50.6707 58.8906Z" fill="#ECD2C3"/>
<path d="M19.2597 7.23021C17.2971 1.08226 25.9827 -3.02661 28.1673 2.8274C34.7681 1.03441 41.7859 1.30043 47.8953 4.54899C48.3955 3.58434 49.1225 2.75578 50.0144 2.13481C51.2405 1.2613 52.7663 0.918211 54.2483 1.18294C55.5423 1.41711 56.6876 2.16294 57.4249 3.25192C58.7485 5.18758 58.6132 8.03867 57.3823 9.98149C56.8013 10.8986 56.1244 11.5488 55.2254 12.1418C58.0721 16.648 58.8385 23.5464 60.1567 28.7026C59.9115 28.7852 59.3537 29.004 59.1484 28.9463C58.9899 28.3919 58.832 27.5996 58.6951 27.0235C57.7364 22.9845 57.2044 18.8432 55.5391 14.9997C55.2039 14.2259 54.7641 13.2057 54.2882 12.5111C54.0042 12.52 53.8474 12.5569 53.6075 12.4215C53.2254 11.887 54.5259 11.4208 54.9231 11.1425C56.1627 10.2575 57.0029 8.92005 57.2632 7.4197C57.6717 5.05112 56.4887 2.5935 53.9676 2.19636C51.3526 1.78439 49.2217 3.65548 48.2726 5.9505C48.1535 6.23878 47.9331 6.64034 47.5731 6.57669C47.303 6.28162 47.3952 5.86152 47.482 5.51633C43.5779 3.11967 37.8155 2.47262 33.3321 2.91568C26.3446 3.55271 19.9041 6.96424 15.4516 12.387C10.8206 17.817 9.21673 27.4535 15.41 32.3947C18.3641 34.7515 21.5192 35.6031 25.1632 36.1186C25.2883 36.1362 25.428 36.179 25.5178 36.2717L25.4943 36.375C24.6133 36.9194 21.9843 36.4981 20.9821 36.2577C19.8451 35.9849 18.6016 35.5739 17.5676 35.0222C17.237 35.157 16.9624 35.2745 16.6415 35.43C16.1581 35.641 13.6166 36.7735 13.402 37.126L13.4348 37.4109L13.493 37.4518C14.218 37.251 14.7168 37.0018 15.5047 37.4122C15.9761 37.6741 16.391 38.2253 16.4928 38.7634C16.9022 40.9269 15.8279 43.4261 14.843 45.3138C14.5336 45.9067 13.1189 47.614 12.3741 47.2438C12.3327 47.1376 12.3155 47.0163 12.3952 46.9285C14.1258 45.0271 15.1209 42.797 15.5441 40.2584C15.7224 39.1892 15.5195 37.7989 13.9977 38.306C13.1307 38.612 12.7132 39.8604 12.151 40.4669C12.0902 40.5356 11.9333 40.4855 11.8518 40.459C11.4418 39.9814 12.1351 38.8977 12.4246 38.4468C12.2726 36.6377 12.0878 34.8917 11.4641 33.1791C10.8414 31.4692 9.22945 31.391 9.16019 33.3605C9.125 34.3594 9.20083 35.3064 9.30576 36.2994C9.33642 36.6908 9.52462 37.3464 9.14731 37.5774C8.4911 37.5853 8.5437 36.665 8.46453 36.1682C8.29546 35.1079 8.19878 34.015 8.28285 32.9386C8.30565 32.6117 8.35599 32.2874 8.43333 31.9689C8.2648 31.5506 8.08372 31.2048 7.64044 31.0082C7.37873 30.8909 7.0794 30.8907 6.81748 31.0077C4.8061 31.882 6.70026 37.0181 6.18331 37.723C5.97021 37.8093 6.07299 37.8045 5.86679 37.7647C5.18643 37.2241 4.95167 33.3103 5.01467 32.382C5.03979 32.0116 4.58783 32.0616 4.42669 32.1415C2.54623 33.0733 3.45854 36.3859 3.64151 38.0313C3.67309 38.3151 3.69142 38.5397 3.50473 38.7193C2.51761 38.6053 2.43542 35.2896 2.35329 34.4735C1.64059 34.9523 1.36105 35.6054 1.22669 36.4165C0.741591 39.345 1.14386 43.8093 2.9029 46.1961C6.62551 51.2481 14.9267 51.261 19.1466 46.8482C19.4629 46.5178 20.3379 45.4459 20.6691 45.3225C20.8419 45.3693 20.7731 45.3214 20.874 45.4825C20.9334 45.9395 20.4519 46.7043 20.1764 47.0681L20.1476 47.1053C20.1358 48.049 18.2162 50.3222 17.5113 51.012C15.2053 53.2697 12.8615 54.8078 9.59662 55.1629C8.56181 58.8919 7.95868 62.6057 8.53815 66.471C8.64922 67.212 8.81549 68.1282 9.05855 68.8245C9.29676 68.9819 10.6334 70.8983 11.0674 71.3942C11.9744 72.4133 12.9764 73.3435 14.0598 74.1724C15.4492 75.2158 16.9454 76.1088 18.5231 76.8364C23.8353 79.2303 30.9632 80.1589 36.7555 79.4082C40.7867 78.8859 45.2271 77.5063 47.7956 74.1411C48.7269 72.8331 49.4685 71.1409 49.0799 69.5095C48.9414 68.9274 48.6687 68.4241 48.5997 67.8377C51.1252 70.5146 53.5526 72.5841 56.9862 74.0614C57.2863 74.1902 57.7234 74.3519 58.0026 74.5012C58.313 74.5965 58.7453 74.7173 59.0363 74.8342C59.7822 75.1732 61.0627 75.4535 61.8716 75.634C62.077 75.6798 62.9404 75.8323 63.0546 75.8884C63.2513 75.904 63.9342 75.9434 64.0797 75.9924C65.0848 76.1331 66.8967 76.1902 67.9288 76.1212C68.2791 76.0921 68.6299 76.0711 68.9813 76.0587C68.9328 78.292 68.6757 80.6779 68.6461 82.8617C69.4179 82.9905 70.2387 83.0088 71.0207 83.0924C72.4828 83.2492 76.7243 83.7784 77.6609 84.8353C77.8005 84.9927 77.8943 85.1883 77.8711 85.4028C77.8425 85.6647 77.648 85.8722 77.4491 86.0258C75.6895 87.3829 69.3052 87.8889 66.9738 87.9633C64.3799 88.0468 61.7832 87.987 59.1958 87.7844C57.6647 87.6658 56.0667 87.3279 54.5464 87.1484C54.2338 87.1118 53.1451 87.4551 52.7113 87.5305C51.1133 87.8189 49.4852 87.8976 47.8673 87.7644C46.7571 87.6658 45.4486 87.3969 44.3712 87.1177C43.7137 86.9474 43.1667 86.5119 42.4803 86.52C40.4671 86.5448 38.4579 86.6186 36.4439 86.6262C32.015 86.6634 27.5858 86.6375 23.1576 86.5486C18.7734 86.4586 14.403 86.2964 10.0394 85.7122C8.76855 85.5424 5.98714 85.1199 5.07234 84.098C4.98218 83.9972 4.93286 83.7854 4.97248 83.648C5.13648 83.0784 5.78444 82.9032 6.19452 82.6305L6.2814 82.5712C5.71034 81.4912 5.82933 80.4403 6.39549 79.4028C7.42987 77.5084 9.44378 76.5367 11.4231 75.9514C10.5519 74.7873 10.119 74.2446 9.45666 72.9221C6.5064 67.0309 6.81689 60.9414 8.60643 54.7555C8.9568 53.5445 9.39964 52.3082 9.80757 51.1037C5.48517 50.4645 1.75291 48.1853 0.623995 43.7053C-0.0285524 41.1156 -0.938982 34.3577 2.43752 33.4082C2.86253 31.9775 3.59312 30.7631 5.31389 31.1713C6.00654 29.8943 7.45364 29.5001 8.63699 30.4621C8.84292 30.6295 8.99668 30.9604 9.23209 31.1031C9.323 31.0631 9.59388 30.9317 9.67558 30.918C12.4004 30.4587 12.8252 34.1695 13.1918 35.9957C14.1628 35.4262 15.3867 34.8579 16.4088 34.4051C15.1152 33.5463 13.9279 32.619 12.9552 31.3959C10.7157 28.5798 10.0261 25.1603 10.4138 21.6475C10.9474 16.8136 13.3408 12.6605 16.8038 9.32038C17.6071 8.54554 18.3869 7.92716 19.2597 7.23021Z" fill="#512200"/>
<path d="M48.599 67.8379C51.1244 70.5148 53.5518 72.5843 56.9854 74.0616C57.2856 74.1904 57.7227 74.352 58.0018 74.5013C56.8577 76.3046 55.4672 77.8083 53.5836 78.857C53.0916 79.1314 52.4421 79.2408 52.0665 79.5824C52.0056 79.638 52.0369 79.6708 52.0557 79.7705C52.3829 79.9619 52.9019 80.0147 53.312 80.1774C54.7391 80.7428 56.198 82.2383 55.5879 83.8886C55.3939 84.4119 54.8081 84.6797 54.3079 84.8732C54.3176 84.1704 54.3209 83.5054 53.9291 82.8797C53.7124 82.5342 53.0393 81.6563 52.578 81.9775C52.5311 82.3321 52.9849 82.8317 53.1438 83.1615C54.2541 85.4623 52.3538 85.7474 50.6906 85.6827C50.8086 84.8587 50.6712 84.1661 50.2222 83.4655C49.9371 83.0203 49.3686 82.2497 48.7795 82.6689C48.7305 82.8684 49.3185 83.6908 49.5038 83.8966C49.7938 84.2195 49.9652 85.6908 49.4979 85.8013C48.0121 86.1521 45.9609 85.6827 44.5569 85.1378C43.7092 84.8085 42.6513 84.1262 42.2909 83.2629C41.8661 82.2082 43.838 82.2524 44.1511 81.556C44.136 81.3523 44.1754 81.4342 44.0455 81.2936C43.7943 81.1777 43.2484 81.3178 42.9784 81.3766C41.1166 81.7829 39.2151 81.9365 37.3119 82.0573C33.4373 82.2712 29.5509 82.0696 25.7192 81.4563C24.8872 81.3184 24.0598 81.154 23.2383 80.9637C22.4231 80.7676 20.7916 80.1796 20.0735 80.2373L19.9848 80.4146C20.6197 81.1454 21.7941 81.5021 22.6903 81.8255C20.3089 82.7676 17.7521 83.3044 15.2278 83.6897C9.99629 84.4873 13.7522 81.0209 13.681 80.3995C12.9524 79.9586 12.1759 81.2176 11.8928 81.7619C11.6227 82.2815 11.5244 82.8533 11.545 83.4369C9.41488 83.4526 8.26268 83.0667 9.57807 80.6986C9.77047 80.3521 10.2723 80.0734 10.3023 79.6649C9.90796 79.3906 9.29114 79.8794 9.01731 80.1586C8.27519 80.9147 8.11302 81.6811 8.11674 82.6954C7.97996 82.6393 7.79871 82.566 7.67238 82.4933C7.3224 82.2933 7.07341 81.9549 6.98702 81.5609C6.8533 80.9514 7.0906 80.1661 7.44344 79.6633C8.65735 77.9328 10.4042 77.2531 12.3519 76.8355C12.7908 77.2079 14.4569 78.3596 14.9926 78.1257C15.113 77.8007 14.6772 77.5426 14.4277 77.3507C11.6377 75.2068 9.95344 72.1839 9.05778 68.8247C9.29599 68.9821 10.6327 70.8985 11.0666 71.3943C11.9736 72.4135 12.9756 73.3437 14.059 74.1726C15.4485 75.216 16.9446 76.109 18.5224 76.8366C23.8346 79.2305 30.9624 80.1591 36.7548 79.4084C40.7859 78.8861 45.2263 77.5065 47.7949 74.1413C48.7262 72.8333 49.4677 71.141 49.0792 69.5097C48.9407 68.9276 48.6679 68.4243 48.599 67.8379Z" fill="#E58230"/>
<path d="M63.0549 75.8887C63.2517 75.9043 63.9345 75.9436 64.08 75.9927C65.0851 76.1334 66.897 76.1905 67.9291 76.1215C68.2794 76.0924 68.6303 76.0714 68.9817 76.059C68.9331 78.2923 68.6761 80.6782 68.6464 82.862C69.4182 82.9908 70.239 83.0091 71.021 83.0927C72.4831 83.2495 76.7246 83.7787 77.6613 84.8356C77.8008 84.993 77.8946 85.1886 77.8714 85.4031C77.8429 85.665 77.6483 85.8725 77.4495 86.0261C75.6898 87.3832 69.3055 87.8892 66.9741 87.9636C64.3802 88.0471 61.7836 87.9873 59.1961 87.7847C57.665 87.6661 56.0671 87.3282 54.5467 87.1487C54.2341 87.1121 53.1455 87.4554 52.7116 87.5308C51.1137 87.8192 49.4855 87.8978 47.8676 87.7647C46.7574 87.6661 45.4489 87.3972 44.3715 87.118C43.714 86.9477 43.167 86.5122 42.4807 86.5203C40.4675 86.5451 38.4583 86.6189 36.4442 86.6265C32.0153 86.6637 27.5861 86.6378 23.1579 86.5489C18.7737 86.4589 14.4034 86.2967 10.0397 85.7125C8.76887 85.5427 5.98746 85.1202 5.07267 84.0983C4.98251 83.9975 4.93319 83.7857 4.9728 83.6483C5.1368 83.0787 5.78477 82.9035 6.19485 82.6308L6.28172 82.5715C7.12365 83.6483 7.6371 83.5513 8.76332 84.0164C9.84341 84.5424 10.9413 84.5074 12.1041 84.5742C12.5507 84.6001 13.0117 84.8205 13.5331 84.8232C17.2806 84.8404 21.0668 83.5314 24.4967 82.3926C24.5719 82.3678 28.8495 82.9428 29.3318 82.9816C33.2846 83.319 37.2614 83.2554 41.2013 82.7909C41.3013 83.7674 41.5863 84.4643 42.4271 85.1142C44.1867 86.4745 46.8345 87.0188 49.0242 86.9779C49.3131 86.9725 49.9485 86.7521 50.2201 86.7472C51.3519 86.7294 52.5429 86.8205 53.5437 86.1802C53.8439 85.9884 54.3689 85.9194 54.7176 85.7971C56.2578 85.2581 56.7909 84.3069 56.731 82.7294C57.1746 82.7413 62.5063 82.6319 62.6594 82.5726C62.7499 80.3969 62.9375 78.0854 63.0549 75.8887Z" fill="#FFDCA8"/>
<path d="M63.0554 75.8887C63.2521 75.9043 63.9349 75.9436 64.0805 75.9927C65.0856 76.1334 66.8975 76.1905 67.9296 76.1215C68.2799 76.0924 68.6307 76.0714 68.9821 76.059C68.9336 78.2923 68.6765 80.6782 68.6469 82.862C68.5246 84.018 68.7547 85.1439 67.8272 86.0477C66.6808 87.1649 64.3365 87.0954 63.2403 85.9399C62.3758 85.0296 62.6016 83.7205 62.6598 82.5726C62.7504 80.3969 62.9379 78.0854 63.0554 75.8887Z" fill="#512200"/>
<path d="M63.9593 77.8301C65.0905 78.3415 66.5818 78.3836 67.7938 78.2036C67.7863 78.4428 67.769 78.6988 67.7917 78.9349C67.7852 80.0634 67.6984 81.3418 67.6187 82.4423C67.4198 84.0397 67.9916 85.746 65.7297 85.7886C63.0657 85.8387 63.6144 84.0715 63.7248 82.1551C63.8105 80.7139 63.8887 79.2723 63.9593 77.8301Z" fill="#9B4320"/>
<path d="M64.0786 75.9922C65.0837 76.1329 66.8957 76.19 67.9277 76.121C67.9083 76.6071 67.8663 78.5737 67.7914 78.9337C67.7687 78.6977 67.786 78.4417 67.7935 78.2024C66.5815 78.3824 65.0902 78.3403 63.959 77.8289C63.966 77.2716 64.0619 76.6023 64.0786 75.9922Z" fill="#7E3C0E"/>
<path d="M59.0358 74.834C59.7817 75.173 61.0622 75.4532 61.8711 75.6338C62.0765 75.6796 62.9399 75.8321 63.0541 75.8882C62.9366 78.0849 62.7491 80.3964 62.6585 82.5721C62.5055 82.6314 57.1738 82.7408 56.7302 82.7289C56.7124 82.6206 56.6914 82.5123 56.6677 82.405C56.3858 81.146 55.4993 80.2643 54.4473 79.5939C56.388 78.1921 57.8189 76.9757 59.0358 74.834Z" fill="white"/>
<path d="M20.1467 47.1055C20.1349 48.0492 18.2153 50.3224 17.5104 51.0122C15.2044 53.2699 12.8606 54.808 9.5957 55.1631C10.0132 53.653 10.3821 52.6334 10.9222 51.1696C11.3244 51.1712 11.7266 51.1588 12.1279 51.1313C15.4055 50.9001 18.0054 49.5485 20.1467 47.1055Z" fill="#E58230"/>
<path d="M23.7741 1.10159C25.5705 0.940019 26.4897 1.4775 27.1832 3.1467C25.5907 3.5826 23.6028 4.55684 22.1637 5.36422C21.4008 5.78115 20.8922 6.12811 20.1782 6.61968C20.1591 6.55129 20.1444 6.49583 20.1286 6.42652C19.8682 5.30106 20.0702 4.11809 20.6895 3.14288C21.4252 1.97726 22.4707 1.40054 23.7741 1.10159Z" fill="#E58230"/>
<path d="M15.4508 12.3865C15.5014 12.422 15.6066 12.5228 15.6577 12.4873C21.6166 8.33502 28.8742 10.7886 30.8364 18.1791C32.4118 24.1131 29.8396 32.2314 22.9651 33.8513C22.07 34.0626 21.2699 34.1115 20.356 34.1232C21.9617 34.7573 24.0601 35.3905 25.751 35.7612C26.1244 35.8431 27.1427 35.8825 27.3396 36.118C27.5079 36.8891 24.9917 37.4492 24.4544 37.5249C22.314 37.8266 20.1001 37.3276 18.18 36.3748C17.6532 36.114 17.1418 35.6888 16.6406 35.4296C16.9616 35.2741 17.2361 35.1566 17.5667 35.0218C18.6008 35.5734 19.8442 35.9845 20.9813 36.2572C21.9834 36.4976 24.6124 36.9189 25.4935 36.3746L25.5169 36.2712C25.4272 36.1786 25.2875 36.1358 25.1624 36.1181C21.5184 35.6027 18.3632 34.7511 15.4091 32.3942C9.21588 27.453 10.8198 17.8166 15.4508 12.3865Z" fill="#E58230"/>
<path d="M15.7482 15.6491C16.6233 15.6206 17.413 16.5282 17.478 17.3636C17.517 17.8637 16.9906 18.6857 16.8374 19.2239C16.1241 21.7303 15.8732 25.0626 16.6282 27.5638C16.9187 27.6423 17.2253 27.7565 17.5034 27.8668C18.1993 28.1428 20.0544 29.6164 19.6164 30.4512C19.0593 30.7559 18.3721 29.8074 18.0241 29.4439C15.729 27.2797 15.5269 29.6841 14.5009 29.7233C13.4149 29.2516 15.2234 27.9281 15.6013 27.6458C15.0551 25.3315 15.0895 22.4033 15.6267 20.0909C15.7481 19.5688 15.9774 18.9097 16.1492 18.3923C15.2749 17.7169 14.5156 16.3866 15.7482 15.6491Z" fill="#512200"/>
<path d="M24.2245 16.4187C24.6609 16.3682 25.1244 16.3684 25.4958 16.6296C25.7033 16.7738 25.8415 16.9976 25.8777 17.2478C25.9214 17.5561 25.8339 17.8686 25.6364 18.1094C25.211 18.6317 24.507 18.7023 23.8891 18.7626C22.8948 18.7494 21.4111 18.4636 22.3495 16.9583C22.6489 16.4782 23.6577 16.4596 24.2245 16.4187Z" fill="#512200"/>
<path d="M45.6261 21.9634C50.2345 21.3172 51.466 26.5404 46.8101 27.4465C42.0989 28.2603 40.735 22.8559 45.6261 21.9634Z" fill="#FFB977"/>
<path d="M47.4944 23.916C47.7574 23.9343 47.7779 23.9321 47.8771 24.1569C47.8372 24.5848 47.1037 25.3627 46.7906 25.7411C46.7345 25.7334 46.6278 25.7075 46.5691 25.6948C46.4106 25.5442 46.4564 25.6323 46.416 25.4273C46.527 24.957 47.1587 24.2987 47.4944 23.916Z" fill="#F27C20"/>
<path d="M45.6039 23.4863C46.5212 23.6575 45.1857 25.0115 44.8764 25.2577C44.636 25.2178 44.6064 25.1837 44.5449 24.9685C44.636 24.5204 45.2682 23.788 45.6039 23.4863Z" fill="#F27C20"/>
<path d="M51.2739 8.02158C50.9974 8.17631 50.7727 8.37599 50.4601 8.24729C50.3835 8.14133 50.3647 8.15249 50.348 8.03166C50.3113 7.53524 50.7274 6.88992 50.9947 6.49207C51.7115 5.42481 53.3191 4.37329 54.5711 5.17534C54.7657 5.29973 54.8093 5.51967 54.8357 5.73185C55.0653 6.26572 55.2151 6.54882 55.1785 7.14737C55.0777 8.80261 54.0009 9.95772 52.5285 10.5538C52.6616 10.0184 52.8298 9.7249 52.3749 9.31595C52.1707 9.41458 52.003 9.53864 51.822 9.37022C51.8349 9.07968 52.245 8.64314 52.3345 8.20283C52.2795 7.97981 52.3124 8.05796 52.1087 7.8841C51.8279 7.91967 51.5449 7.94435 51.2739 8.02158Z" fill="#E58230"/>
<path d="M51.2739 8.02158C50.9974 8.17631 50.7727 8.37599 50.4601 8.24729C50.3835 8.14133 50.3647 8.15249 50.348 8.03166C50.3113 7.53524 50.7274 6.88992 50.9947 6.49207C51.7115 5.42481 53.3191 4.37329 54.5711 5.17534C54.7657 5.29973 54.8093 5.51967 54.8357 5.73185L54.7877 5.73556C54.4779 5.75718 54.1696 5.73869 53.8554 5.7485C52.8298 5.78035 51.919 6.5436 51.4329 7.42007C51.2798 7.64594 51.289 7.73805 51.2739 8.02158Z" fill="#512200"/>
<path d="M52.2513 7.20508C53.7414 7.50645 53.0737 8.55868 52.3752 9.31648C52.171 9.4151 52.0033 9.53917 51.8223 9.37075C51.8352 9.08021 52.2453 8.64367 52.3348 8.20335C52.2798 7.98034 52.3127 8.05849 52.109 7.88462C52.1004 7.56514 52.054 7.4192 52.2513 7.20508Z" fill="#512200"/>
<path d="M51.4324 7.4206C51.6992 7.39759 51.9908 7.2877 52.2505 7.20508C52.0533 7.4192 52.0996 7.56514 52.1083 7.88462C51.8275 7.92019 51.5445 7.94488 51.2734 8.02211C51.2885 7.73857 51.2794 7.64647 51.4324 7.4206Z" fill="#7E3C0E"/>
<path d="M42.2672 15.372C43.2611 15.3382 43.2972 16.2605 42.6803 16.7317C41.3124 17.7764 39.5073 18.5661 37.7541 18.4521C36.5606 18.3658 36.5944 17.0618 37.766 17.0923C38.3584 17.1078 38.8921 17.044 39.4598 16.884C40.5275 16.5831 41.3342 15.8416 42.2672 15.372Z" fill="#090909"/>
<path d="M40.7622 19.2192C41.5304 19.1483 43.2416 19.2839 43.5164 20.2049C43.6953 20.8155 43.0917 21.0604 42.6044 20.9311C41.6446 20.6764 41.0597 20.5548 40.086 20.7934C39.4624 21.0111 39.1516 21.3466 38.614 21.5795C37.7163 21.9684 37.35 21.1425 37.985 20.4716C38.7553 19.6576 39.6819 19.333 40.7622 19.2192Z" fill="#090909"/>
<path d="M8.46959 40.4688C8.64076 40.4742 8.68264 40.4562 8.81845 40.5563C9.02777 41.0387 8.12591 41.6985 7.89686 42.1284C7.59737 42.6906 7.43564 43.245 7.32985 43.8703C7.26237 44.2688 7.28727 44.472 6.94817 44.7113C6.30678 44.4386 6.48118 43.5154 6.61839 42.9803C6.8925 41.9113 7.50592 41.0233 8.46959 40.4688Z" fill="#512200"/>
</svg>
