<svg width="170" height="256" viewBox="0 0 170 256" fill="none" xmlns="http://www.w3.org/2000/svg">
<path d="M64.8773 0.0652075C68.76 -0.222019 71.8067 0.394992 74.9586 2.81135C78.2184 5.33672 80.3466 9.04909 80.8785 13.1381C84.1411 12.3708 87.1123 11.5154 90.4999 11.2062C92.9536 10.9821 95.6207 11.1298 98.0217 10.7798L98.1833 10.5437C96.5418 5.15327 101.974 3.02842 106.188 7.98083C106.568 6.47396 106.712 5.71723 107.573 4.41441C109.135 2.04917 111.714 1.57732 113.763 3.64076C115.698 5.58896 115.836 8.18819 115.829 10.7505C118.558 8.69618 120.673 7.89183 123.798 9.60625C125.057 11.9863 124.774 12.8744 123.496 15.1634C130.995 17.3746 136.491 20.7472 142.632 25.399L142.698 25.3279C144.567 23.3268 146.587 21.7455 149.173 20.7597C152.791 19.357 156.823 19.4782 160.35 21.0959C172.833 26.7285 172.95 45.33 159.365 50.3916C161.599 56.203 162.486 64.5702 162.607 70.8155C162.657 73.3565 162.316 76.3815 162.428 78.9121C162.588 80.8931 163.242 82.868 163.521 84.828C165.775 100.701 158.131 111.152 144.436 117.987C145.346 118.804 146.262 119.624 147.158 120.465C157.665 130.339 165.129 146.36 159.931 160.667C158.377 164.942 155.047 167.997 151.35 170.5C152.848 177.422 152.99 185.506 151.616 192.452C151.105 195.033 149.89 197.462 149.922 200.157C149.966 203.896 150.657 207.4 151.145 211.044C151.99 217.616 152.896 224.183 153.865 230.738C155.587 233.118 157.538 233.989 159.072 237.013C161.993 242.775 161.805 250.675 154.923 253.586C147.553 256.705 135.75 256.617 128.169 254.379C123.086 252.878 119.465 248.257 118.713 243.171C118.509 241.976 118.119 239.316 117.603 238.307C114.353 231.562 110.752 224.991 107.529 218.174C106.691 218.444 105.995 218.777 105.204 219.159C98.8167 222.263 92.0507 225.022 84.9568 225.905C83.948 226.031 81.9693 226.286 81.0808 226.67L80.9834 226.713C79.9029 227.178 77.6276 233.787 77.4249 235.279C76.6196 241.216 76.2922 245.084 70.3261 248.201C60.9088 253.121 24.0549 259.851 30.2147 238.974C31.9457 233.109 37.5359 230.609 42.5476 228.229C42.4926 225.704 42.4405 222.582 42.8375 220.094C33.4129 214.357 27.8872 211.071 20.6556 202.06C10.6279 189.568 4.99919 174.455 4.75178 158.397C4.70324 155.245 5.31315 150.827 5.69088 147.592C4.59849 146.466 3.50252 145.362 2.5996 144.069C-4.07013 134.52 2.67573 114.648 16.2032 117.226C20.5291 109.497 32.3679 98.7674 40.5572 95.3021C33.1031 84.8704 32.4171 72.276 38.9436 61.1571C40.0912 59.2021 42.2883 57.0769 43.0715 55.0267C45.9041 47.6116 48.8658 40.3136 53.3269 33.6981C54.511 31.9446 55.8667 30.2667 57.0807 28.5C53.7004 25.3285 51.8379 22.9288 51.1711 18.2153C49.9387 9.50461 55.7703 0.987907 64.8773 0.0652075Z" fill="#492603"/>
<path d="M18.8356 118.504C18.1278 118.048 18.138 118.22 17.9627 117.582C18.5307 116.469 21.5067 112.82 22.4432 111.755C30.8519 102.195 40.3892 96.2171 52.4034 92.326C69.2121 86.9349 87.4794 88.4958 103.13 96.6608C119.996 105.292 132.305 120.396 138.035 138.354C138.224 138.946 138.18 139.096 137.95 139.569C137.452 139.684 137.391 139.646 136.875 139.542C132.273 139.621 130.416 139.548 126.49 142.643C123.938 145.471 123.913 147.355 124.879 150.858C123.375 153.433 122.949 153.979 123.047 156.935C123.573 158.197 125.321 160.227 124.885 161.232C124.619 162.62 124.571 163.111 124.836 164.524C125.11 165.62 126.562 167.455 127.354 168.288C130.506 170.309 134.745 172.041 138.408 172.834L137.945 175.162C137.851 175.759 137.669 176.365 137.495 176.946C132.21 194.642 120.752 208.708 104.431 217.416C88.8893 225.751 70.6675 227.551 53.7958 222.416C36.4652 217.105 22.9085 205.192 14.4782 189.298C9.21218 179.393 6.47816 168.339 6.52 157.12C6.55112 153.665 6.70793 150.701 7.72532 147.389C14.3475 149.374 17.1426 146.656 19.3558 140.986C19.4991 140.618 20.2012 140.561 20.5547 140.498C22.0507 139.038 22.6131 137.832 23.33 135.932C23.6673 134.824 23.4538 133.952 23.266 132.842C22.5175 132.651 22.4706 132.523 22.2689 131.848C22.4149 131.039 22.8962 130.535 23.4025 129.889C23.7476 129.132 23.9245 128.407 24.1437 127.611C23.969 123.431 22.3704 120.795 18.8356 118.504Z" fill="#ED3214"/>
<path d="M38.2617 113.854C40.0442 112.584 41.8392 111.312 43.7044 110.164C68.8655 94.6824 101.023 101.572 118.112 125.577C121.829 130.764 124.66 136.531 126.49 142.644C123.938 145.472 123.913 147.356 124.88 150.859C123.375 153.434 122.95 153.98 123.047 156.936C123.574 158.197 125.321 160.228 124.886 161.233C124.619 162.62 124.572 163.112 124.837 164.525C125.111 165.621 126.562 167.455 127.355 168.289L127.067 170.248L126.986 170.234C126.538 175.594 121.815 185.342 118.686 189.777C117.285 191.761 115.582 193.817 114.208 195.789C112.826 194.073 111.233 192.418 109.728 190.801C109.287 190.358 108.869 189.885 108.449 189.421C107.276 188.109 106.113 186.79 104.96 185.459C103.66 184.242 101.814 182.213 100.64 180.872L94.2321 173.956C93.2675 173.025 92.6009 172.316 91.7212 171.305C90.7843 170.431 90.1502 169.552 89.3724 168.542C88.9519 168.202 88.6174 167.634 88.3038 167.176C86.8057 166.509 83.8086 162.809 82.6086 161.414L82.8494 161.06C82.7314 160.457 82.7068 160.38 82.3851 159.859C80.3468 159.74 78.7785 158.739 77.0724 157.733L76.6694 157.35L76.3266 157.198C76.6806 156.371 76.9232 156.137 76.708 155.24L71.009 149.102C70.7709 148.908 69.9726 147.958 69.7221 147.671C66.8205 144.839 63.3279 140.849 60.5146 137.814C59.9382 137.218 59.3594 136.65 58.865 135.983C56.2446 133.06 53.2801 130.113 50.7893 127.194L50.1181 126.462C46.1365 122.287 42.1844 118.085 38.2617 113.854Z" fill="#EFEEED"/>
<path d="M101.038 153.738C101.221 154.158 101.431 154.731 101.713 155.071L101.662 155.592L100.429 155.324C100.238 154.941 99.9458 154.56 99.6953 154.207L101.038 153.738Z" fill="#F48965"/>
<path d="M61.9112 112.414C69.2574 109.548 75.3694 110.043 82.6218 113.204C83.41 113.548 84.9519 114.204 85.3079 114.961C85.2628 115.594 85.0261 115.878 84.6948 116.406C86.1492 116.557 87.6972 114.389 89.2447 114.455C92.1176 114.576 94.353 116.107 97.3343 116.683L97.4925 117.721C96.7153 117.844 95.4811 117.99 94.7881 118.33C95.3408 120.003 94.9972 120.553 94.4461 122.222C92.7587 123.544 92.52 123.987 90.4218 124.203C90.3919 124.531 90.3623 125.09 90.2669 125.383C90.5128 126.271 90.3221 126.101 90.9562 126.552C91.6591 126.59 92.1255 126.564 92.8283 126.52L93.5957 126.111C95.0705 125.306 95.7847 124.292 96.8014 122.997C102.298 124.44 107.361 127.463 110.192 132.474C112.182 135.996 112.857 139.089 112.4 143.103C112.293 144.048 112.303 144.994 112.061 145.932C111.951 146.363 111.721 146.947 111.688 147.338C111.099 149.427 110.334 150.796 109.541 152.776C109.255 153.487 109.181 154.62 108.895 155.43C109.11 157.553 108.14 157.762 107.934 159.041L107.338 159.34C105.168 159.414 102.934 160.058 102.548 157.42C102.067 156.651 101.944 156.447 101.662 155.594L101.713 155.073C101.431 154.733 101.22 154.16 101.037 153.74L99.6949 154.208C99.9454 154.562 100.237 154.943 100.428 155.326C98.2665 156.684 91.7821 157.737 89.1823 157.821C89.9331 158.118 90.2082 158.215 90.5835 158.996C88.967 158.965 87.2961 158.909 85.6845 158.944C85.1272 159.41 84.5537 159.906 83.9724 160.337L82.8492 161.06C82.7312 160.458 82.7065 160.38 82.3849 159.859C80.3465 159.741 78.7783 158.74 77.0722 157.733L76.6692 157.35L76.3263 157.199C76.6804 156.371 76.923 156.138 76.7078 155.24L71.0088 149.103C70.7707 148.909 69.9724 147.958 69.7219 147.672C66.8203 144.839 63.3277 140.849 60.5143 137.814C59.9379 137.219 59.3592 136.65 58.8648 135.984C56.2444 133.061 53.2798 130.113 50.7891 127.195C51.4533 126.47 51.4467 126.417 51.5633 125.452C52.1403 122.766 55.1525 117.218 57.4905 115.726L57.7589 115.521L58.6452 114.671C58.9639 114.237 61.3 112.805 61.9112 112.414Z" fill="#FEB09C"/>
<path d="M58.865 135.984L58.8652 135.825C58.8586 133.956 58.2662 133.629 59.1161 131.715C60.2786 129.097 62.7147 127.753 65.5056 127.936C78.2743 128.774 75.9798 143.989 63.329 138.639C62.9217 138.467 60.9902 137.749 60.5145 137.814C59.9381 137.219 59.3594 136.65 58.865 135.984Z" fill="#EF684E"/>
<path d="M63.2588 129.245C65.1147 128.708 65.8113 128.785 67.663 129.054C69.0431 129.242 70.1436 129.796 71.3238 130.503C72.2871 132.213 73.2604 133.617 72.7071 135.677C71.6369 139.661 67.6869 139.047 64.5682 138.01C63.5623 137.673 62.5512 137.351 61.5356 137.043C60.2338 135.638 60.0268 135.034 59.6445 133.119C60.2017 130.945 61.0591 129.868 63.2588 129.245Z" fill="#FA907A"/>
<path d="M63.2598 129.245C65.1157 128.708 65.8123 128.785 67.664 129.054L67.6729 129.341C66.8878 129.907 64.0736 129.839 63.2598 129.245Z" fill="#FEC6B3"/>
<path d="M68.4379 132.408C69.2859 132.542 69.3044 132.58 69.7224 133.113C70.0159 134.229 69.5883 135.108 69.1938 136.195C68.411 136.191 68.3255 136.192 67.8475 135.634C67.512 134.503 68.0022 133.474 68.4379 132.408Z" fill="#A04115"/>
<path d="M63.1598 131.26C63.5578 131.295 63.6544 131.351 64.0316 131.498C64.8177 132.751 64.1964 133.675 63.3726 134.745C62.7412 134.658 62.6174 134.487 62.3036 134.014C62.0842 132.921 62.5723 132.15 63.1598 131.26Z" fill="#A04115"/>
<path d="M61.9109 112.414C69.2572 109.548 75.3692 110.043 82.6216 113.204C83.4098 113.548 84.9516 114.204 85.3076 114.961C85.2626 115.594 85.0259 115.878 84.6945 116.406C83.8225 115.675 82.6981 114.411 81.4991 113.959C77.7162 112.536 72.3512 110.951 68.3036 111.946C67.1914 112.355 67.5 114.304 67.0451 115.231C66.4547 116.433 64.7187 116.959 63.5323 116.423C62.8883 115.851 62.8228 115.042 62.549 114.155C61.2178 113.7 60.5677 115.622 57.5843 115.723L57.4902 115.726L57.7586 115.521L58.645 114.671C58.9637 114.237 61.2998 112.805 61.9109 112.414Z" fill="#FEC6B3"/>
<path d="M99.1284 151.625C99.3023 152.309 99.5212 153.743 99.6937 154.208C99.9442 154.561 100.236 154.942 100.427 155.325C98.2654 156.684 91.781 157.737 89.1812 157.82C88.5168 157.531 87.6281 157.599 86.8848 157.601C87.8992 156.2 89.2984 153.465 89.2918 151.726C89.3594 152.066 89.449 152.383 89.5382 152.717C91.0946 154.058 97.3339 152.47 99.1284 151.625Z" fill="#FA907A"/>
<path d="M77.0893 148.9C78.0233 148.904 79.1392 148.951 80.0698 149.064C79.4448 149.884 79.13 150.342 78.9584 151.38C77.4624 151.742 77.0104 153.854 76.7088 155.24L71.0098 149.102C71.8792 148.784 74.8125 149.268 77.0893 148.9Z" fill="#FCA18B"/>
<path d="M94.6971 118.332L94.788 118.328C95.3407 120.002 94.9971 120.552 94.446 122.22C92.7586 123.542 92.52 123.985 90.4217 124.202L90.3963 124.021C91.6231 122.929 88.3859 120.485 90.7949 118.535C91.8859 118.45 94.0257 118.916 94.6971 118.332Z" fill="#EF684E"/>
<path d="M76.459 147.835C79.7411 147.118 84.8604 145.833 87.3108 143.505C87.9805 142.869 89.2656 141.109 89.7993 141.199C89.8356 142.155 88.0876 143.968 87.421 144.709C85.5738 146.764 82.2494 147.754 80.0693 149.064C79.1387 148.951 78.0228 148.904 77.0888 148.9L76.459 147.835Z" fill="#FA907A"/>
<path d="M83.7246 159.14C84.8708 157.996 86.4898 155.889 87.4111 154.498C87.9304 153.714 88.1698 152.475 88.8801 151.68L89.2931 151.726C89.2997 153.466 87.9005 156.2 86.886 157.601C87.6294 157.599 88.5181 157.531 89.1825 157.821C89.9332 158.118 90.2084 158.215 90.5836 158.996C88.9672 158.965 87.2963 158.909 85.6847 158.944C85.1273 159.41 84.5538 159.906 83.9726 160.337C83.9458 160.026 83.7987 159.465 83.7246 159.14Z" fill="#EF684E"/>
<path d="M91.0549 118.036C92.4075 117.926 93.3873 117.841 94.6973 118.333C94.0259 118.917 91.8861 118.451 90.7951 118.536C88.3861 120.487 91.6233 122.93 90.3965 124.022L89.2128 121.168C88.3029 120.549 87.8667 120.483 88.0645 119.375C88.7598 118.485 89.9699 118.302 91.0549 118.036Z" fill="#ED3214"/>
<path d="M108.154 152.626C108.694 150.918 109.959 147.993 111.688 147.338C111.099 149.427 110.334 150.795 109.541 152.776C109.255 153.487 109.181 154.62 108.895 155.43L108.702 155.395C108.719 154.445 108.41 153.543 108.154 152.626Z" fill="#FCA18B"/>
<path d="M92.8291 126.519L93.5966 126.109C94.4219 127.648 94.7694 131.548 93.3301 132.747C92.581 132.087 92.6756 127.578 92.8291 126.519Z" fill="#EF684E"/>
<path d="M69.7227 147.672C70.5612 147.493 75.029 147.885 76.4593 147.836L77.0891 148.901C74.8123 149.268 71.879 148.785 71.0095 149.103C70.7715 148.909 69.9732 147.959 69.7227 147.672Z" fill="#E9795C"/>
<path d="M99.1309 151.626C99.4531 150.506 99.5518 149.556 100.163 148.633L100.353 148.722C100.718 150.881 100.407 151.188 101.039 153.74L99.6962 154.208C99.5236 153.744 99.3048 152.31 99.1309 151.626Z" fill="#E9795C"/>
<path d="M76.7077 155.24C77.0093 153.855 77.4613 151.742 78.9573 151.381C78.5045 154.037 77.3729 155.18 76.669 157.351L76.3262 157.199C76.6802 156.371 76.9228 156.138 76.7077 155.24Z" fill="#EF684E"/>
<path d="M108.701 155.395L108.894 155.429C109.109 157.552 108.139 157.762 107.933 159.04L107.337 159.34C107.153 157.732 107.895 156.856 108.701 155.395Z" fill="#F48965"/>
<path d="M101.713 155.072C102.456 155.401 103.192 155.692 103.523 156.468C103.427 157.103 103.197 157.198 102.549 157.42C102.067 156.65 101.944 156.446 101.662 155.593L101.713 155.072Z" fill="#FCA18B"/>
<path d="M82.3848 159.86C82.8638 159.77 83.3024 159.419 83.7243 159.141C83.7983 159.465 83.9455 160.027 83.9723 160.338L82.849 161.061C82.7311 160.458 82.7064 160.38 82.3848 159.86Z" fill="#D2592E"/>
<path d="M76.9534 128.182C79.4081 129.463 79.5142 131.396 77.0986 132.856C76.7373 132.763 76.023 132.418 75.741 132.181C75.4347 131.921 75.2458 131.548 75.2169 131.148C75.1383 130.016 76.2449 128.957 76.9534 128.182Z" fill="#492603"/>
<path d="M59.6058 124.318C62.4827 124.536 61.9928 126.914 60.5298 128.503C60.0395 128.477 59.453 128.432 59.0632 128.102C58.6876 127.778 58.4658 127.31 58.4526 126.814C58.4213 125.759 58.904 125.027 59.6058 124.318Z" fill="#492603"/>
<path d="M102.764 166.451C104.312 166.311 105.006 166.15 106.413 166.865C108.586 167.038 110.761 169.172 111.935 170.925L112.051 171.216C111.588 173.552 108.195 172.915 106.972 176.902C106.212 176.772 105.951 176.644 105.22 177.223C103.445 178.628 102.619 179.629 100.64 180.871L94.2328 173.954C93.2681 173.024 92.6015 172.314 91.7218 171.304C90.7849 170.429 90.1508 169.551 89.373 168.54C91.2822 168.486 94.7246 168.496 96.4911 168.161C98.2347 167.833 100.488 166.037 102.764 166.451Z" fill="#EB7536"/>
<path d="M91.7207 171.306C93.2822 170.532 100.139 169.807 101.709 170.581L101.785 170.897C100.481 172.322 95.4329 173.002 94.2317 173.956C93.267 173.025 92.6005 172.316 91.7207 171.306Z" fill="#F48965"/>
<path d="M102.763 166.451C104.311 166.311 105.005 166.15 106.413 166.865C106.736 167.392 106.8 167.584 106.999 168.144C106.622 170.025 103.285 169.92 102.446 168.295C102.319 167.582 102.532 167.139 102.763 166.451Z" fill="#F48965"/>
<path d="M50.9669 108.836C51.6053 108.797 52.2295 108.837 52.8653 108.854C56.7285 108.963 59.4408 108.041 62.4365 111.06C65.3984 109.452 68.0211 109.195 71.311 109.139C77.1882 109.04 81.5629 111.186 86.4862 114.024C93.7385 112.612 92.6734 115.237 97.3098 115.825L97.3339 116.682C94.3526 116.106 92.1172 114.575 89.2444 114.454C87.6969 114.388 86.1488 116.556 84.6944 116.405C85.0257 115.877 85.2624 115.593 85.3075 114.96C84.9515 114.203 83.4097 113.547 82.6214 113.203C75.3691 110.043 69.2571 109.547 61.9108 112.413C61.2996 112.804 58.9636 114.236 58.6448 114.67L57.7585 115.52L57.4901 115.725C55.1521 117.217 52.1399 122.765 51.5629 125.451L50.7422 124.513C51.0736 123.45 51.6595 121.446 52.4592 120.703C52.4491 119.715 51.8093 119.423 51.2949 118.288C49.9472 115.303 49.8293 111.907 50.9669 108.836Z" fill="#E9795C"/>
<path d="M53.2685 119.199C53.3503 119.054 53.7478 118.247 53.7128 118.132C53.2462 116.6 51.9916 112.551 53.6403 111.42L54.9707 111.783C56.4723 112.362 57.1634 112.893 58.3319 114.007L58.6448 114.669L57.7584 115.519L57.4901 115.724C55.152 117.216 52.1398 122.764 51.5629 125.45L50.7422 124.512C51.0735 123.448 51.6594 121.445 52.4591 120.702L52.7081 120.576C53.0553 120.135 53.1226 119.734 53.2685 119.199Z" fill="#EF684E"/>
<path d="M54.9707 111.785C56.4723 112.364 57.1633 112.895 58.3319 114.009L58.6447 114.671L57.7584 115.521C57.0341 113.651 55.1483 113.225 54.6504 112.04L54.9707 111.785Z" fill="#ED3214"/>
<path d="M51.7793 110.974C51.5249 110.265 51.5113 110.514 51.6606 109.902C52.5922 109.378 57.6851 109.554 58.9596 110.026C60.1005 110.448 60.6184 110.778 61.4247 111.695L61.9103 112.414C61.2992 112.804 58.9631 114.237 58.6443 114.671L58.3315 114.009C57.1629 112.895 56.4719 112.364 54.9703 111.785L53.6399 111.422C53.1956 111.278 52.2698 111.09 51.7793 110.974Z" fill="#FEB09C"/>
<path d="M61.4252 111.695L61.9109 112.414C61.2997 112.805 58.9636 114.237 58.6449 114.671L58.332 114.009C59.773 112.712 59.0145 112.36 61.4252 111.695Z" fill="#F48965"/>
<path d="M51.7798 110.975C52.2703 111.09 53.1961 111.279 53.6403 111.422C51.9916 112.553 53.2462 116.602 53.7128 118.134C53.7478 118.249 53.3504 119.056 53.2686 119.201C50.8676 117.789 51.6814 113.347 51.7798 110.975Z" fill="#FA907A"/>
<path d="M111.933 170.926C112.236 171.078 112.412 171.144 112.731 171.257L113.029 170.67L113.471 171.583L113.631 171.956C113.847 172.491 114.172 173.377 114.411 173.867L114.564 174.939C114.476 176.638 112.81 179.411 112.823 179.495C113.562 184.318 111.995 186.582 109.727 190.801C109.286 190.358 108.868 189.886 108.448 189.421C107.275 188.109 106.112 186.79 104.959 185.459C103.659 184.242 101.813 182.213 100.639 180.872C102.617 179.631 103.443 178.63 105.219 177.225C105.949 176.646 106.21 176.774 106.97 176.904C108.194 172.916 111.586 173.554 112.05 171.218L111.933 170.926Z" fill="#C64B18"/>
<path d="M100.639 180.872C102.617 179.63 103.443 178.629 105.219 177.224C105.949 176.645 106.21 176.774 106.97 176.904C107.164 177.794 107.394 179.028 107.686 179.86C107.038 182.141 106.702 183.7 104.959 185.458C103.659 184.242 101.813 182.213 100.639 180.872Z" fill="#D2592E"/>
<path d="M111.935 170.926C112.237 171.078 112.413 171.144 112.733 171.257L113.031 170.67L113.472 171.583L113.633 171.956C113.849 172.491 114.173 173.377 114.413 173.867L114.565 174.939C114.478 176.638 112.812 179.411 112.825 179.495C113.564 184.318 111.997 186.582 109.729 190.801C109.287 190.358 108.869 189.886 108.449 189.421C109.977 188.413 112.177 183.442 111.889 181.523C111.747 180.585 110.414 178.715 110.997 177.742C111.723 178 112.059 178.261 112.715 177.874C113.523 176.403 113.36 172.022 112.051 171.218L111.935 170.926Z" fill="#A04115"/>
<path d="M97.3108 115.824C97.8563 116.134 98.3212 116.256 98.4848 116.889C98.8144 118.165 97.6715 120.592 97.1806 121.845C104.172 123.812 109.47 127.411 112.476 134.326C112.782 135.032 112.905 135.5 112.99 136.28C113.264 137.279 113.503 138.074 113.533 139.115L113.947 140.693L113.968 141.472C113.833 142.935 113.711 145.431 113.375 146.731C112.879 148.644 111.598 150.842 110.893 152.7C110.539 153.635 110.246 155.703 110.081 156.764C109.44 158.314 108.569 160.802 107.376 161.894C106.111 162.434 103.602 162.598 102.465 161.855L102.756 161.812L102.833 161.702C99.8178 157.99 106.458 160.446 108.155 159.226L107.935 159.039C108.141 157.761 109.111 157.551 108.896 155.429C109.181 154.618 109.256 153.485 109.541 152.774C110.335 150.794 111.099 149.426 111.689 147.336C111.722 146.945 111.951 146.361 112.062 145.93C112.303 144.993 112.293 144.047 112.401 143.101C112.858 139.087 112.182 135.994 110.192 132.472C107.361 127.461 102.298 124.438 96.8021 122.995C95.7853 124.291 95.0711 125.305 93.5963 126.109L92.8289 126.518C92.1262 126.562 91.6598 126.588 90.9569 126.55C90.3228 126.099 90.5134 126.269 90.2676 125.382C90.363 125.089 90.3925 124.529 90.4225 124.202C92.5207 123.985 92.7593 123.542 94.4467 122.22C94.9979 120.552 95.3415 120.001 94.7888 118.328C95.4818 117.988 96.716 117.843 97.4931 117.719L97.3349 116.681L97.3108 115.824Z" fill="#EF684E"/>
<path d="M97.4931 117.719C97.2045 120.637 94.4909 125.832 90.9073 125.469C90.6932 125.446 90.4798 125.417 90.2676 125.381C90.363 125.088 90.3925 124.529 90.4225 124.201C92.5207 123.984 92.7593 123.542 94.4467 122.22C94.9979 120.551 95.3415 120.001 94.7888 118.328C95.4818 117.988 96.716 117.842 97.4931 117.719Z" fill="#FA907A"/>
<path d="M112.99 136.28C114.613 134.849 116.273 133.343 117.78 135.852C118.109 137.307 117.9 138.054 117.658 139.508L117.898 139.614C118.774 138.867 118.872 137.547 119.687 136.956L120.077 137.025C120.7 138.242 119.975 140.116 118.708 140.67C117.234 141.313 115.585 141.194 113.968 141.472L113.947 140.693L113.533 139.115C113.503 138.074 113.264 137.279 112.99 136.28Z" fill="#F48965"/>
<path d="M112.99 136.28C114.613 134.849 116.273 133.343 117.78 135.852L117.4 136.178C117.018 137.057 116.686 138.01 115.987 138.664L114.871 138.325L114.539 139.03L113.963 138.597L113.701 138.703L113.533 139.115C113.503 138.074 113.264 137.279 112.99 136.28Z" fill="#E9795C"/>
<path d="M114.871 138.327C114.784 137.196 114.479 136.142 115.669 135.656C116.461 135.721 116.673 135.845 117.4 136.179C117.018 137.059 116.686 138.011 115.988 138.665L114.871 138.327Z" fill="#FEC6B3"/>
<path d="M113.533 139.116L113.702 138.704L113.963 138.598L114.539 139.031L114.774 139.699C114.489 140.251 114.435 140.307 113.948 140.694L113.533 139.116Z" fill="#FCA18B"/>
<path d="M114.539 139.031L114.871 138.326L115.988 138.665C115.501 139.199 115.384 139.505 114.774 139.699L114.539 139.031Z" fill="#F48965"/>
<path d="M88.3027 167.175C90.0391 167.151 94.5269 167.097 96.0792 166.739C101.59 165.468 106.213 163.331 111.189 168.199C111.355 168.36 111.517 168.523 111.675 168.692L112.372 169.598L113.029 170.669L112.731 171.256C112.412 171.143 112.236 171.077 111.933 170.925C110.759 169.172 108.584 167.039 106.412 166.866C105.004 166.151 104.31 166.312 102.762 166.452C100.486 166.038 98.233 167.834 96.4895 168.162C94.723 168.496 91.2805 168.486 89.3714 168.541C88.9508 168.201 88.6164 167.633 88.3027 167.175Z" fill="#BE4E1D"/>
<path d="M113.877 168.42C114.149 167.266 114.539 165.801 115.751 165.367C116.701 165.631 117.439 167.336 117.467 168.259C117.482 168.766 117.922 168.953 118.289 169.186C118.789 169.594 119.406 170.049 119.779 170.556L119.562 171.098C119.71 171.038 113.593 171.582 113.472 171.582L113.03 170.669L112.373 169.598L113.877 168.42Z" fill="#F7DBBF"/>
<path d="M118.643 168.486C119.671 168.908 120.491 169.446 120.641 170.502C121.237 174.695 118.792 174.402 115.673 174.122C115.459 174.103 114.798 174.717 114.563 174.938L114.411 173.865C114.171 173.376 113.847 172.49 113.631 171.955L113.471 171.582C113.591 171.582 119.708 171.038 119.56 171.098L119.778 170.556C119.404 170.049 118.787 169.594 118.287 169.186L118.643 168.486Z" fill="#FCB35B"/>
<path d="M119.778 170.557C119.756 171.359 119.808 172.121 119.404 172.811C118.261 173.724 117.019 172.933 115.751 172.438C115.313 173.075 115.091 173.503 114.411 173.866C114.171 173.376 113.847 172.49 113.631 171.956L113.471 171.583C113.591 171.583 119.708 171.039 119.56 171.099L119.778 170.557Z" fill="#E4BA89"/>
<path d="M100.43 155.324L101.663 155.592C101.945 156.446 102.068 156.65 102.55 157.419C102.935 160.056 105.169 159.413 107.339 159.339L107.935 159.04L108.155 159.226C106.458 160.447 99.8184 157.99 102.834 161.702L102.756 161.813L102.466 161.856C101.111 160.562 102.183 158.474 101.304 157.417C100.149 156.731 97.2986 157.806 96.454 158.643C95.8949 158.198 91.7432 158.43 90.8735 158.608L90.6629 159.11L90.5847 158.995C90.2095 158.214 89.9343 158.117 89.1836 157.819C91.7834 157.736 98.2678 156.683 100.43 155.324Z" fill="#D2592E"/>
<path d="M107.375 161.894C108.569 160.802 109.44 158.314 110.08 156.764C116.05 159.02 109.378 163.062 107.375 161.894Z" fill="#E1DEDC"/>
<path d="M111.676 168.693C113.909 167.576 113.48 164.093 116.563 164.692C118.644 165.096 118.076 167.947 118.643 168.487L118.288 169.187C117.921 168.953 117.482 168.767 117.466 168.26C117.438 167.337 116.7 165.632 115.751 165.368C114.538 165.801 114.149 167.267 113.876 168.421L112.372 169.599L111.676 168.693Z" fill="#E4BA89"/>
<path d="M124.838 164.523C125.112 165.619 126.563 167.454 127.356 168.288L127.067 170.247L126.987 170.233C124.591 169.257 124.384 166.733 124.838 164.523Z" fill="#E1DEDC"/>
<path d="M90.6621 159.11L90.8728 158.609C91.7424 158.43 95.8942 158.199 96.4533 158.644C95.0817 160.053 91.9558 160.505 90.6621 159.11Z" fill="#B96042"/>
<path d="M123.046 156.936C123.573 158.197 125.321 160.228 124.885 161.232C124.561 160.787 124.201 161.322 123.357 160.542C122.796 159.612 122.945 158.006 123.046 156.936Z" fill="#E1DEDC"/>
<path d="M50.7439 124.514L51.5646 125.452C51.448 126.417 51.4546 126.47 50.7904 127.195L50.1191 126.462C50.2793 126.113 50.612 124.941 50.7439 124.514Z" fill="#EF684E"/>
<path d="M29.9423 121.951C37.0861 129.543 44.19 137.172 51.2536 144.839C52.7626 146.473 58.7056 152.69 59.611 154.226C60.8403 155.361 63.2983 157.58 63.5772 159.169C65.269 159.708 72.9886 168.346 74.635 170.173C74.9234 170.503 75.2788 170.886 75.5336 171.232L76.5756 172.518C77.4794 173.377 77.9423 173.892 78.7348 174.852C79.3256 175.426 79.9094 176.007 80.4862 176.595C80.8956 177.031 81.3376 177.47 81.678 177.958C82.3335 178.607 85.6269 182.542 85.7845 182.657C87.1466 183.405 90.1549 186.827 91.1091 188.209C92.6853 189.542 94.9188 192.016 96.3235 193.576C97.0522 194.245 101.469 198.738 101.725 199.321L102.491 200.162C103.352 200.934 104.732 202.489 105.598 203.39C104.935 203.837 104.266 204.276 103.593 204.71C90.5999 213.008 76.0445 215.756 60.9655 212.419C47.0978 209.271 35.0504 200.74 27.4772 188.704C21.4181 179.157 17.9099 167.285 18.1033 155.916C18.1606 152.545 19.4646 145.431 20.225 142.027L20.5552 140.499C22.0512 139.04 22.6136 137.834 23.3305 135.933C23.6679 134.825 23.4543 133.953 23.2666 132.844C22.518 132.652 22.4712 132.525 22.2694 131.85C22.4154 131.04 22.8967 130.536 23.403 129.89L24.2472 130.529L25.0348 129.14C26.6186 126.506 28.0921 124.425 29.9423 121.951Z" fill="#EFEEED"/>
<path d="M71.118 173.228C73.1459 172.006 73.6094 172.898 75.5335 171.23L76.5755 172.517C77.4794 173.376 77.9423 173.891 78.7348 174.851C79.3256 175.424 79.9093 176.005 80.4861 176.594C80.8956 177.029 81.3375 177.469 81.678 177.956C82.3335 178.605 85.6269 182.541 85.7845 182.655C87.1466 183.404 90.1548 186.826 91.109 188.208C92.6853 189.541 94.9188 192.015 96.3234 193.575C94.847 194.9 91.2795 196.811 89.4236 196.931C87.9822 200.025 88.4327 202.561 84.8429 204.868C78.3811 209.038 67.8078 203.595 63.9273 197.94C59.1904 191.037 60.8922 179.898 67.9638 175.181C68.3235 174.808 68.583 174.808 68.848 174.287C69.7799 173.743 70.1003 173.545 71.118 173.228Z" fill="#FEB09C"/>
<path d="M85.2812 182.897L85.7844 182.656C87.1465 183.404 90.1548 186.827 91.1089 188.208C92.6852 189.542 94.9187 192.015 96.3233 193.576C94.847 194.901 91.2794 196.812 89.4235 196.932C89.8541 191.098 87.8426 189.345 86.2294 184.745L86.1668 184.563C86.1398 183.482 86.2817 183.383 85.2812 182.897Z" fill="#D2592E"/>
<path d="M85.2812 182.897L85.7844 182.656C87.1465 183.404 90.1548 186.827 91.1089 188.208C90.4906 188.523 89.9095 188.852 89.2369 188.718C88.0274 188.078 87.9294 185.882 86.9105 184.267L86.4471 184.228L86.1668 184.563C86.1398 183.482 86.2817 183.383 85.2812 182.897Z" fill="#EF684E"/>
<path d="M71.1191 173.228C73.147 172.006 73.6105 172.898 75.5346 171.23L76.5766 172.517C77.4804 173.376 77.9433 173.891 78.7358 174.851C79.3266 175.424 79.9104 176.005 80.4872 176.594C80.8966 177.029 81.3385 177.469 81.679 177.956C81.2282 178.022 80.61 178.067 80.224 178.267C79.2024 177.715 77.7062 176.666 76.6941 175.997L75.1842 175.284C72.7579 174.556 70.4086 174.688 67.9648 175.181C68.3246 174.808 68.584 174.808 68.8491 174.287C69.7809 173.743 70.1014 173.545 71.1191 173.228Z" fill="#EB7536"/>
<path d="M71.1191 173.228C73.147 172.006 73.6105 172.898 75.5346 171.23L76.5766 172.517C77.4805 173.376 77.9434 173.891 78.7359 174.851C77.7811 175.718 76.6606 174.859 75.379 174.75C74.6129 174.67 74.3715 174.363 73.7969 173.842C72.8139 173.722 71.8201 173.798 71.1191 173.228Z" fill="#F48965"/>
<path d="M76.6934 175.997C77.2688 175.424 77.016 175.521 77.7589 175.385C78.8619 175.727 78.9391 176.667 79.9737 176.877L80.4864 176.594C80.8958 177.029 81.3378 177.468 81.6782 177.956C81.2274 178.022 80.6092 178.067 80.2232 178.267C79.2016 177.715 77.7055 176.665 76.6934 175.997Z" fill="#EF684E"/>
<path d="M81.6796 177.957C82.3351 178.606 85.6285 182.541 85.7861 182.656L85.2829 182.897C84.8132 182.707 81.0546 179.016 80.2246 178.268C80.6106 178.068 81.2287 178.023 81.6796 177.957Z" fill="#D2592E"/>
<path d="M68.9792 177.735C73.4452 176.041 80.738 178.886 80.4213 184.141C78.9012 185.287 78.8619 186.475 79.1445 188.282C78.4023 190.138 77.2486 192.291 75.8435 193.714C74.1707 195.406 70.1126 198.498 67.7326 198.578C66.0786 196.732 64.9052 196.555 63.9635 193.712C62.3929 188.972 62.9294 186 64.9909 181.647C66.1523 179.708 66.7819 178.587 68.9792 177.735Z" fill="#EF684E"/>
<path d="M64.9902 181.648C66.1516 179.709 66.7812 178.588 68.9786 177.736L69.005 177.896C69.2588 179.481 69.2586 183.691 70.9957 184.752C70.5713 185.35 70.2281 185.628 70.2792 186.285L70.7462 186.497C70.8084 187.776 70.2038 187.36 69.8072 188.66L69.7267 187.642L70.453 187.074V186.827C69.6696 186.45 70.0995 186.911 69.086 187.068L69.5425 186.6C69.7071 185.939 66.0406 183.889 64.9902 181.648Z" fill="#E9795C"/>
<path d="M70.9971 184.751C71.8021 184.613 72.9974 185.106 73.9726 185.304C73.164 185.689 73.1383 185.019 72.7514 185.8L72.8412 186.144C73.2124 186.097 73.5824 186.043 73.9514 185.983L73.9703 186.121C73.5645 186.212 73.0516 186.329 72.4315 186.47C71.6804 187.174 71.0036 188.748 69.8086 188.659C70.2052 187.359 70.8098 187.774 70.7476 186.496L70.2806 186.284C70.2295 185.627 70.5727 185.349 70.9971 184.751Z" fill="#F48965"/>
<path d="M84.017 188.849C84.7335 188.858 85.2009 188.72 85.7178 189.34C90.1494 194.649 86.0931 205.021 78.6104 204.215C76.3373 203.97 71.1915 202.899 71.8579 199.937C72.3008 197.971 75.003 197.114 76.3192 195.755C77.616 194.451 79.8118 190.174 81.2289 189.639C82.427 189.842 83.0927 189.583 84.017 188.849Z" fill="#EF684E"/>
<path d="M80.4229 184.14C82.4809 183.33 82.3624 183.541 84.1551 184.744C84.9505 185.887 84.8475 186.859 84.4157 188.141L84.0193 188.847C83.095 189.581 82.4292 189.84 81.2311 189.638C80.7142 188.952 79.9128 188.641 79.1461 188.281C78.8636 186.474 78.9028 185.287 80.4229 184.14Z" fill="#FEC6B3"/>
<path d="M83.6885 187.726C83.3085 188.449 82.5979 188.667 81.8357 188.494C78.4436 186.286 82.5936 182.985 83.8566 185.738L83.6885 187.726Z" fill="#FCA18B"/>
<path d="M84.1539 184.746C84.9493 185.889 84.8463 186.86 84.4145 188.143L83.6895 187.727L83.8576 185.739L84.1539 184.746Z" fill="#F7DBBF"/>
<path d="M74.6349 170.172C74.9233 170.502 75.2788 170.885 75.5335 171.231C73.6094 172.898 73.1459 172.006 71.1181 173.229C70.1003 173.546 69.7799 173.744 68.8481 174.288C68.583 174.809 68.3235 174.809 67.9638 175.182C60.8922 179.898 59.1904 191.038 63.9273 197.94C67.8078 203.595 78.3811 209.039 84.8429 204.868C88.4327 202.562 87.9822 200.026 89.4236 196.932C91.2795 196.811 94.8471 194.901 96.3234 193.576C97.0522 194.244 101.469 198.737 101.725 199.32C92.7648 205.813 82.061 210.743 71.2539 205.582C67.5581 203.815 65.2707 201.942 62.7942 198.723C58.2815 191.29 59.4104 181.556 65.6326 175.366C66.2154 174.785 67.4932 173.779 68.2217 173.427C70.0372 171.808 72.965 171.303 74.6349 170.172Z" fill="#C64B18"/>
<path d="M62.7954 198.723C65.272 201.941 67.5593 203.814 71.2551 205.581C82.0623 210.742 92.766 205.812 101.726 199.319L102.492 200.161C100.242 203.427 97.9264 203.977 94.3609 205.695C83.9275 210.769 72.3388 209.419 62.3768 204.026C59.5028 202.469 60.6966 200.254 62.7954 198.723Z" fill="#E1DEDC"/>
<path d="M59.6104 154.225C60.8397 155.36 63.2977 157.579 63.5765 159.168C62.5227 159.044 61.0726 158.669 60.0006 158.426C59.4293 156.949 59.1352 155.742 59.6104 154.225Z" fill="#B96042"/>
<path d="M23.3301 135.932C23.4923 136.798 23.6626 137.411 23.4525 138.279C23.0778 139.827 21.9915 141.905 20.2246 142.026L20.5548 140.498C22.0508 139.038 22.6132 137.832 23.3301 135.932Z" fill="#E1DEDC"/>
<path d="M23.2667 132.844C22.5181 132.652 22.4713 132.525 22.2695 131.85C22.4155 131.041 22.8968 130.537 23.4031 129.891L24.2473 130.529C23.9072 131.295 23.5803 132.067 23.2667 132.844Z" fill="#C64B18"/>
<path d="M28.8296 146.47C31.2444 140.176 34.9725 145.759 38.2589 147.586C38.6122 147.782 39.509 148.034 39.907 148.143C40.1496 147.99 40.3142 147.885 40.5442 147.706C43.0605 149.552 44.2108 151.954 46.7785 153.775C49.1119 155.427 52.6247 155.693 54.924 156.906C57.4702 158.249 59.4971 160.087 62.1991 161.56C63.6904 162.213 64.9214 162.728 65.5401 164.341L65.6021 164.506L64.9935 164.359C64.2526 164.893 61.62 166.733 61.4362 167.546C61.0671 168.253 60.941 168.5 60.4429 169.114C59.9376 169.802 58.8822 171.04 58.8956 171.804C59.6936 172.249 59.7322 172.274 60.0255 173.302C60.0918 173.537 60.1557 173.772 60.2173 174.007C59.7346 174.8 59.5482 175.428 58.5394 175.405L58.1579 175.22C56.9824 175.758 57.5269 176.753 55.9934 176.959C55.9476 177.237 55.9211 177.544 55.7956 177.789C54.6279 177.466 52.5811 176.157 51.4243 175.546C45.1471 174.872 45.5878 172.46 40.751 169.437C40.4105 169.225 37.7044 168.636 36.9092 168.375C36.5962 168.156 35.6023 167.825 35.1851 167.672L35.2547 167.544C33.9013 167.023 32.9784 165.495 31.8455 164.549C30.9365 163.379 30.5356 162.887 29.4493 161.891C29.2177 161.171 27.9809 160.946 27.2026 160.192C28.0447 160.485 28.5274 160.631 29.3852 160.833C28.2196 159.916 24.8352 159.135 23.8173 157.298C22.8973 155.641 23.0157 154.642 23.4018 152.949C23.6855 151.544 24.7458 150.843 25.9227 150.157C26.4758 149.628 27.0382 149.107 27.6092 148.598C28.2922 147.842 28.4846 147.414 28.8296 146.47Z" fill="#FEC6B3"/>
<path d="M28.8298 146.47C31.2446 140.176 34.9727 145.759 38.2591 147.586C38.6124 147.782 39.5092 148.034 39.9072 148.143C40.1498 147.99 40.3144 147.885 40.5445 147.706C43.0607 149.552 44.211 151.954 46.7787 153.775C49.1121 155.427 52.6249 155.693 54.9242 156.906C57.4704 158.249 59.4973 160.087 62.1993 161.56C63.6907 162.213 64.9216 162.728 65.5403 164.341L65.6023 164.506L64.9937 164.359C64.2529 164.893 61.6202 166.733 61.4364 167.546C61.0673 168.253 60.9412 168.5 60.4431 169.114C59.3059 168.613 57.0918 166.726 55.8399 166.179C54.2798 165.499 52.0252 165.21 50.5884 164.273C48.7965 163.107 47.3248 161.177 45.3818 160.215C43.7387 159.401 41.3574 159.323 39.8017 158.311C38.3737 157.382 37.5331 155.392 36.2623 154.282C34.7418 152.955 32.6856 152.228 30.9898 151.08C29.7443 150.236 28.8947 149.399 27.6094 148.598C28.2925 147.842 28.4849 147.414 28.8298 146.47Z" fill="#EF684E"/>
<path d="M28.8298 146.471C29.591 147.303 31.1255 149.044 31.9883 149.608C33.5609 150.636 35.4937 151.182 36.9302 152.509C38.3405 153.813 39.176 156.038 40.8358 156.988C42.8512 158.145 45.3781 158.211 47.3852 159.478C48.7926 160.364 50.1001 162.045 51.5179 162.797C52.7042 163.427 54.4981 163.876 55.7715 164.336C57.3966 164.925 60.1202 166.466 61.4364 167.547C61.0673 168.254 60.9412 168.501 60.4431 169.115C59.3059 168.614 57.0918 166.727 55.8399 166.18C54.2798 165.5 52.0252 165.211 50.5884 164.274C48.7965 163.108 47.3248 161.178 45.3818 160.216C43.7387 159.402 41.3574 159.324 39.8017 158.312C38.3737 157.383 37.5331 155.393 36.2623 154.283C34.7418 152.956 32.6856 152.229 30.9898 151.081C29.7443 150.237 28.8947 149.4 27.6094 148.599C28.2925 147.843 28.4849 147.415 28.8298 146.471Z" fill="#FEC6B3"/>
<path d="M62.1995 161.561C63.6908 162.214 64.9218 162.728 65.5405 164.341L65.6025 164.507L64.9939 164.359C64.4958 163.053 62.0549 163.102 62.1995 161.561Z" fill="#D2592E"/>
<path d="M25.9219 150.158C26.475 149.63 27.0374 149.109 27.6083 148.6C28.8936 149.4 29.7433 150.238 30.9888 151.081C32.6845 152.23 34.7408 152.957 36.2612 154.284C37.532 155.394 38.3727 157.384 39.8007 158.312C41.3563 159.325 43.7377 159.403 45.3808 160.217C47.3237 161.179 48.7954 163.109 50.5874 164.275C52.0241 165.211 54.2788 165.501 55.8389 166.181C57.0908 166.727 59.3048 168.614 60.4421 169.115C59.9368 169.803 58.8814 171.041 58.8948 171.805L58.8145 171.795L58.6186 171.304C55.6286 168.847 53.3314 169.115 50.1336 167.918C47.6446 166.525 46.0718 163.83 43.4143 162.658C42.0557 162.061 40.4002 161.937 38.9675 161.486C36.1856 160.837 34.6632 156.83 32.5776 155.568C29.1844 153.514 27.9404 154.179 25.9219 150.158Z" fill="#FC8C73"/>
<path d="M29.4498 161.89C29.2182 161.171 27.9814 160.945 27.2031 160.191C28.0452 160.485 28.5279 160.631 29.3857 160.833C32.1147 162.407 32.6699 165.265 35.8057 166.873L36.7694 167.287C37.4978 166.884 37.3159 166.109 37.2932 165.365C37.7916 164.809 39.8794 165.567 41.6665 165.433C44.7031 167.176 45.3808 168.942 48.137 170.672C49.7852 171.706 54.8901 172.522 56.1558 174.174C57.2779 175.431 57.2309 174.137 58.3091 174.776L58.5399 175.404L58.1585 175.219C56.9829 175.758 57.5274 176.753 55.994 176.959C55.9481 177.236 55.9217 177.544 55.7961 177.788C54.6284 177.466 52.5816 176.156 51.4248 175.546C45.1476 174.871 45.5883 172.46 40.7515 169.436C40.4111 169.224 37.705 168.635 36.9097 168.375C36.5967 168.155 35.6028 167.825 35.1856 167.671L35.2552 167.543C33.9018 167.022 32.9789 165.495 31.846 164.548C30.9371 163.378 30.5362 162.887 29.4498 161.89Z" fill="#EF684E"/>
<path d="M29.4498 161.89C29.2182 161.171 27.9814 160.945 27.2031 160.191C28.0452 160.485 28.5279 160.631 29.3857 160.833C32.1147 162.407 32.6699 165.265 35.8057 166.873L36.7694 167.287C42.765 168.713 42.4844 169.477 46.9592 173.225C47.7697 173.906 50.2945 174.139 51.2963 174.535C52.9631 175.281 54.4776 175.913 55.994 176.959C55.9481 177.236 55.9217 177.544 55.7961 177.788C54.6284 177.466 52.5816 176.156 51.4248 175.546C45.1476 174.871 45.5883 172.46 40.7515 169.436C40.4111 169.224 37.705 168.635 36.9097 168.375C36.5967 168.155 35.6028 167.825 35.1856 167.671L35.2552 167.543C33.9018 167.022 32.9789 165.495 31.846 164.548C30.9371 163.378 30.5362 162.887 29.4498 161.89Z" fill="#C64B18"/>
<path d="M23.4018 152.951C25.1456 156.377 28.8399 156.774 31.0576 158.634L31.1779 158.735C33.1387 160.381 34.2445 163.259 36.9411 164.158C39.2725 164.938 39.276 164.017 41.6659 165.435C39.8788 165.569 37.7911 164.811 37.2926 165.367C37.3154 166.111 37.4973 166.887 36.7689 167.289L35.8052 166.875C32.6694 165.268 32.1142 162.409 29.3852 160.835C28.2196 159.918 24.8352 159.137 23.8173 157.3C22.8973 155.643 23.0157 154.644 23.4018 152.951Z" fill="#F48965"/>
<path d="M58.8143 171.795L58.8946 171.805C59.6925 172.25 59.7312 172.275 60.0245 173.303C60.0907 173.538 60.1547 173.773 60.2163 174.008C59.7335 174.801 59.5472 175.429 58.5384 175.406L58.3075 174.778C57.2294 174.139 57.2764 175.433 56.1543 174.176C58.2481 174.358 58.2072 173.577 58.8143 171.795Z" fill="#F48965"/>
<path d="M31.8434 164.55C32.9764 165.496 33.8993 167.024 35.2526 167.545L35.1831 167.673C35.6003 167.826 36.5941 168.157 36.9072 168.376L36.5974 168.672C36.8884 169.531 39.8387 173.033 40.6182 173.664C41.7504 174.523 43.6801 175.196 45.0774 175.314C48.5844 176.435 48.6213 177.924 51.4176 179.848C52.8304 180.821 55.2778 181.255 56.761 182.553C57.2756 182.99 57.6435 183.293 58.0961 183.799L57.4165 184.417C56.8692 184.978 55.5194 186.432 54.9861 186.873L53.8473 188.15L53.7088 188.125C53.5582 188.702 52.5696 189.899 52.0626 190.192L52.4829 190.49C51.183 191.37 51.4842 192.723 50.8705 194.332C50.791 195.049 50.667 195.57 50.9482 196.232C48.4023 196.673 46.1981 194.483 44.5473 192.868C42.8179 192.987 41.5296 192.229 40.6207 190.775C35.3885 188.467 36.2655 187.489 32.7247 183.602C32.0582 182.872 30.8523 182.446 29.9112 182.067C28.0611 181.267 27.4752 180.833 26.0441 179.471C22.6604 177.178 20.9885 173.767 22.7684 169.879C23.7102 169.163 24.8497 168.378 25.911 167.869C27.1868 166.248 27.8485 165.137 29.7905 164.369C30.6046 164.538 31.1339 164.789 31.8434 164.55Z" fill="#FEC6B3"/>
<path d="M31.8465 164.55C32.9795 165.496 33.9024 167.024 35.2557 167.545L35.1861 167.673C35.6034 167.826 36.5972 168.157 36.9103 168.376L36.6005 168.672C36.8914 169.531 39.8418 173.033 40.6213 173.664C41.7535 174.523 43.6832 175.196 45.0805 175.314C48.5874 176.435 48.6244 177.924 51.4206 179.848C52.8335 180.821 55.2809 181.255 56.7641 182.553C57.2787 182.99 57.6465 183.293 58.0991 183.799L57.4195 184.417C56.8723 184.978 55.5225 186.432 54.9892 186.873L53.8504 188.15L53.7118 188.125C51.9935 186.939 49.6677 186.078 48.1251 184.716C45.8633 182.718 45.816 181.103 42.7784 180.009C41.9453 179.908 40.5099 179.469 39.329 179.308C36.9921 176.295 36.9472 176.109 33.4274 174.914C33.3481 174.908 33.2692 174.9 33.1903 174.89C31.507 174.681 30.9881 173.742 29.9512 172.446C29.0893 171.33 27.6872 169.171 26.4314 168.604L26.4296 168.53L25.9141 167.869C27.1899 166.248 27.8516 165.137 29.7936 164.369C30.6076 164.538 31.137 164.789 31.8465 164.55Z" fill="#FA907A"/>
<path d="M31.8465 164.55C32.9795 165.496 33.9024 167.024 35.2557 167.545L35.1861 167.673C35.6034 167.826 36.5972 168.157 36.9103 168.376L36.6005 168.672C36.8914 169.531 39.8418 173.033 40.6213 173.664C40.0037 173.674 38.9144 173.495 38.449 173.068C36.0455 172.156 32.178 168.077 28.3695 166.649C27.6499 167.436 27.2727 167.838 26.4296 168.53L25.9141 167.869C27.1899 166.248 27.8516 165.137 29.7936 164.369C30.6076 164.538 31.137 164.789 31.8465 164.55Z" fill="#FCA18B"/>
<path d="M31.8465 164.55C32.9795 165.496 33.9024 167.024 35.2557 167.545L35.1861 167.673C35.0198 168.098 34.8663 168.402 34.8369 168.858C32.9266 167.937 31.9044 165.817 29.5821 165.574C28.7933 165.887 28.9669 165.891 28.3695 166.649C27.6499 167.436 27.2727 167.838 26.4296 168.53L25.9141 167.869C27.1899 166.248 27.8516 165.137 29.7936 164.369C30.6076 164.538 31.137 164.789 31.8465 164.55Z" fill="#E9795C"/>
<path d="M35.1852 167.672C35.6024 167.825 36.5962 168.156 36.9093 168.375L36.5995 168.671C36.8904 169.53 39.8408 173.032 40.6203 173.663C40.0027 173.673 38.9135 173.494 38.448 173.067C37.7801 171.407 36.1767 170.008 34.8359 168.857C34.8653 168.401 35.0188 168.097 35.1852 167.672Z" fill="#F48965"/>
<path d="M43.3667 179.286C44.5765 179.22 45.286 179.226 46.4963 179.298C47.5935 180.905 47.7912 181.284 49.3017 182.555C51.2814 184.222 53.7427 184.654 54.9862 186.873L53.8474 188.15L53.7088 188.125C51.9905 186.939 49.6647 186.078 48.1221 184.716C45.8603 182.718 45.813 181.103 42.7754 180.009L43.3667 179.286Z" fill="#F48965"/>
<path d="M45.079 175.314C48.586 176.436 48.6229 177.924 51.4192 179.848C52.832 180.822 55.2794 181.255 56.7626 182.553C56.6023 183.078 56.5354 183.148 56.1918 183.581C54.0907 181.265 53.108 182.478 51.1324 181.078C49.1515 179.675 49.2434 178.435 46.5672 177.163C45.6379 177.017 44.6268 176.743 44.6328 175.621L45.079 175.314Z" fill="#E9795C"/>
<path d="M29.9512 172.445C31.5146 172.488 32.688 173.602 33.4274 174.913C33.3481 174.908 33.2692 174.9 33.1903 174.89C31.507 174.68 30.9881 173.742 29.9512 172.445Z" fill="#FEB09C"/>
<path d="M56.7622 182.553C57.2768 182.99 57.6446 183.293 58.0972 183.798L57.4177 184.416L56.1914 183.581C56.535 183.147 56.6018 183.077 56.7622 182.553Z" fill="#F48965"/>
<path d="M31.109 179.785C31.9147 180.156 32.8518 180.545 33.5613 181.058C35.0241 180.559 36.5885 181.54 38.0796 181.447C40.3483 184.933 42.8701 184.062 45.8691 185.495C47.559 186.301 49.9198 188.96 52.0635 190.192L52.4838 190.489C51.1839 191.369 51.4852 192.722 50.8715 194.331C50.792 195.048 50.668 195.569 50.9492 196.232C48.4032 196.673 46.1991 194.483 44.5482 192.868C42.8188 192.986 41.5306 192.228 40.6217 190.775C35.3894 188.466 36.2665 187.489 32.7257 183.602C32.0591 182.871 30.8533 182.446 29.9121 182.067C30.6125 181.604 30.4576 181.849 30.6034 181.177L31.0091 180.741C30.8999 180.156 30.8935 180.399 31.109 179.785Z" fill="#EF684E"/>
<path d="M31.109 179.785C31.9147 180.156 32.8518 180.545 33.5613 181.058C34.1311 182.259 35.1825 183.31 35.9887 184.404C39.7487 189.595 40.9184 187.018 44.725 190.176C45.9025 191.154 49.5065 193.999 50.8715 194.331C50.792 195.048 50.668 195.569 50.9492 196.232C48.4032 196.673 46.1991 194.483 44.5482 192.868C42.8188 192.986 41.5306 192.228 40.6217 190.775C35.3894 188.466 36.2665 187.489 32.7257 183.602C32.0591 182.871 30.8533 182.446 29.9121 182.067C30.6125 181.604 30.4576 181.849 30.6034 181.177L31.0091 180.741C30.8999 180.156 30.8935 180.399 31.109 179.785Z" fill="#ED3214"/>
<path d="M31.1098 179.785C31.9155 180.156 32.8526 180.545 33.5621 181.058C34.1319 182.259 35.1833 183.31 35.9896 184.404C39.7496 189.595 40.9192 187.018 44.7259 190.176C42.2798 189.78 39.9884 188.589 37.799 187.597C37.3686 186.766 36.4099 185.611 35.8254 184.601C35.3737 184.134 31.4392 180.928 31.0099 180.741C30.9007 180.156 30.8943 180.399 31.1098 179.785Z" fill="#D2592E"/>
<path d="M40.6211 190.775C42.2595 191.29 43.2773 191.603 44.5476 192.868C42.8182 192.987 41.53 192.229 40.6211 190.775Z" fill="#E1DEDC"/>
<path d="M22.7684 169.879C22.9315 170.046 23.3263 170.472 23.4843 170.598L23.6544 170.617C23.934 171.517 24.5297 172.228 25.1239 172.951C26.9629 175.192 27.9039 179.232 31.1081 179.786C30.8926 180.4 30.899 180.157 31.0082 180.742L30.6024 181.178C30.4567 181.85 30.6115 181.605 29.9112 182.068C28.0611 181.267 27.4752 180.834 26.0441 179.471C22.6604 177.178 20.9885 173.768 22.7684 169.879Z" fill="#E9795C"/>
<path d="M22.7684 169.879C22.9315 170.046 23.3263 170.472 23.4843 170.598C22.9763 177.24 24.4405 175.252 27.2486 179.528C26.6755 179.642 26.6057 179.634 26.0441 179.471C22.6604 177.178 20.9885 173.768 22.7684 169.879Z" fill="#EF684E"/>
<path d="M26.0449 179.471C26.6065 179.634 26.6763 179.642 27.2494 179.527C28.5691 180.376 29.0653 180.689 30.6032 181.177C30.4575 181.849 30.6124 181.605 29.912 182.067C28.0619 181.266 27.476 180.833 26.0449 179.471Z" fill="#C64B18"/>
<path d="M23.6562 170.617L23.8321 170.482C24.8184 171.266 24.4709 170.376 25.297 171.075C26.7572 172.309 28.4759 174.917 29.8409 176.033C32.253 178.005 36.7592 177.92 38.0805 181.447C36.5894 181.54 35.025 180.559 33.5622 181.058C32.8527 180.545 31.9157 180.156 31.1099 179.785C27.9058 179.231 26.9648 175.191 25.1258 172.95C24.5315 172.228 23.9359 171.516 23.6562 170.617Z" fill="#FCA18B"/>
<path d="M25.9141 167.869L26.4296 168.53L26.4314 168.604C25.4508 169.084 24.4861 169.56 23.8333 170.483L23.6575 170.617L23.4874 170.598C23.3294 170.471 22.9345 170.046 22.7715 169.879C23.7132 169.163 24.8528 168.378 25.9141 167.869Z" fill="#F48965"/>
<path d="M22.0189 152.675C23.6 149.727 26.5752 149.185 27.6839 146.184C30.4487 138.701 36.3363 145.066 40.5438 147.706C40.3137 147.885 40.1491 147.99 39.9066 148.143C39.5086 148.035 38.6117 147.782 38.2584 147.586C34.972 145.759 31.2439 140.177 28.8291 146.47C28.4842 147.414 28.2918 147.842 27.6087 148.598C27.0378 149.107 26.4754 149.628 25.9223 150.157C24.7454 150.843 23.6851 151.544 23.4014 152.949C23.0152 154.642 22.8969 155.641 23.8169 157.299C24.8348 159.135 28.2191 159.916 29.3847 160.834C28.5269 160.631 28.0442 160.486 27.2022 160.192C27.9805 160.946 29.2172 161.172 29.4489 161.891C30.5352 162.888 30.9361 163.379 31.845 164.549C31.1355 164.788 30.6061 164.538 29.7921 164.368C29.1679 162.079 25.1234 162.516 24.9528 159.769C21.8209 157.586 21.9369 156.164 22.0189 152.675Z" fill="#D05533"/>
<path d="M24.9531 159.77C25.7312 160.217 28.6447 161.828 29.4492 161.892C30.5356 162.889 30.9365 163.38 31.8454 164.55C31.1359 164.789 30.6065 164.539 29.7924 164.369C29.1682 162.08 25.1238 162.517 24.9531 159.77Z" fill="#E1DEDC"/>
<path d="M64.9928 164.359L65.6014 164.507C65.5146 165.5 65.4656 166.596 65.1776 167.539C65.0546 170.073 63.0759 171.268 61.7429 173.411C60.8496 174.846 59.058 178.083 57.273 177.996C56.7751 177.971 56.2806 177.903 55.7949 177.79C55.9205 177.545 55.9469 177.238 55.9928 176.96C57.5262 176.754 56.9817 175.759 58.1573 175.221L58.5387 175.405C59.5475 175.429 59.7339 174.801 60.2166 174.008C60.155 173.773 60.0911 173.538 60.0248 173.303C59.7316 172.275 59.6929 172.249 58.8949 171.804C58.8815 171.041 59.937 169.803 60.4422 169.115C60.9403 168.501 61.0664 168.254 61.4355 167.546C61.6193 166.734 64.252 164.894 64.9928 164.359Z" fill="#DC6344"/>
<path d="M60.2166 174.008C60.6603 172.065 63.709 169.181 65.1776 167.539C65.0546 170.073 63.0759 171.268 61.7429 173.412C60.8496 174.846 59.058 178.084 57.273 177.996C56.7751 177.971 56.2806 177.903 55.7949 177.79C55.9205 177.545 55.9469 177.238 55.9928 176.96C57.5262 176.754 56.9817 175.759 58.1573 175.221L58.5387 175.406C59.5475 175.429 59.7339 174.801 60.2166 174.008Z" fill="#D2592E"/>
<path d="M57.4183 184.417L58.0979 183.799C58.7819 185.552 58.4506 188.83 56.9515 190.091C56.0712 191.117 54.4928 192.662 53.8235 193.593C53.0318 194.792 52.2754 195.609 50.9501 196.232C50.6689 195.57 50.7928 195.049 50.8723 194.332C51.486 192.723 51.1848 191.37 52.4847 190.49L52.0644 190.192C52.5714 189.899 53.56 188.702 53.7106 188.125L53.8491 188.15L54.9879 186.873C55.5212 186.432 56.871 184.978 57.4183 184.417Z" fill="#E9795C"/>
<path d="M53.7106 188.125L53.8491 188.15C54.7073 189.136 54.1875 189.958 54.5252 191.248C53.887 191.885 53.6773 192.105 53.1812 192.849L53.8235 193.594C53.0318 194.793 52.2754 195.609 50.9501 196.233C50.6689 195.57 50.7928 195.049 50.8723 194.332C51.486 192.723 51.1848 191.37 52.4847 190.49L52.0644 190.193C52.5714 189.899 53.56 188.702 53.7106 188.125Z" fill="#F48965"/>
<path d="M50.8723 194.332C51.486 192.723 51.1848 191.371 52.4847 190.49C52.3613 191.347 52.01 192.816 52.1534 193.551L52.4095 193.664C52.833 193.343 52.885 193.289 53.1812 192.849L53.8235 193.594C53.0318 194.793 52.2754 195.609 50.9501 196.233C50.6689 195.57 50.7928 195.049 50.8723 194.332Z" fill="#C64B18"/>
<path d="M54.5257 191.246C55.6713 190.704 55.5232 189.664 56.9519 190.09C56.0716 191.116 54.4932 192.661 53.8239 193.592L53.1816 192.848C53.6778 192.103 53.8875 191.884 54.5257 191.246Z" fill="#D2592E"/>
<path d="M18.8358 118.504C18.1281 118.048 18.1382 118.22 17.9629 117.582C18.5309 116.469 21.507 112.82 22.4435 111.755C30.8521 102.195 40.3895 96.2171 52.4036 92.326C69.2124 86.9349 87.4796 88.4958 103.13 96.6608C119.996 105.292 132.305 120.396 138.035 138.354C138.224 138.946 138.18 139.096 137.95 139.569C137.452 139.684 137.391 139.646 136.876 139.542C136.251 138.186 135.838 136.17 135.166 134.515C132.808 128.707 129.701 123.231 125.923 118.228C114.867 103.655 98.4793 94.0647 80.3584 91.5618C59.5708 88.8318 37.0387 97.386 23.4569 113.401C22.2604 114.812 20.2397 117.495 18.8358 118.504Z" fill="#EF684E"/>
<path d="M127.355 168.289C130.506 170.31 134.745 172.042 138.409 172.835L137.945 175.163C137.173 175.005 136.386 174.891 135.614 174.72C133.144 174.17 130.667 173.145 128.544 171.772C128.095 171.482 127.68 171.115 127.189 170.909L127.066 170.248L127.355 168.289Z" fill="#C64B18"/>
<path d="M77.073 157.732C78.7791 158.739 80.3473 159.74 82.3857 159.858C82.7073 160.379 82.732 160.457 82.85 161.059L82.6092 161.413L82.4665 161.427C81.4688 160.045 79.4427 161.539 78.4298 161.275C77.8313 161.12 78.4689 160.414 78.0122 159.546C77.5864 159.647 77.2988 159.742 76.8839 159.884L76.6493 159.619C76.5465 158.99 76.854 158.35 77.073 157.732Z" fill="#B96042"/>
<path d="M76.3262 157.199L76.669 157.351L77.072 157.734C76.853 158.352 76.5456 158.991 76.6484 159.621L76.8829 159.885C77.2978 159.743 77.5854 159.648 78.0112 159.547C78.4679 160.415 77.8303 161.121 78.4289 161.276C79.4417 161.541 81.4679 160.046 82.4656 161.428L79.8222 162.332C76.0384 161.422 75.1465 161.07 76.3262 157.199Z" fill="#A04115"/>
<path d="M53.05 16.8959C53.0311 16.8113 53.0123 16.7268 52.9934 16.6424C51.9707 -0.302541 76.1188 -4.55613 79.1617 13.6989C79.3712 14.278 79.5961 14.8165 79.6744 15.4273C86.2561 13.0441 92.2179 12.8148 99.0608 12.7513C99.5356 13.1089 100.276 15.052 101.533 14.5238C102.112 12.9555 97.3815 7.8698 100.971 6.81806C104.744 5.7121 105.691 13.2422 107.476 12.9357C107.992 11.2141 107.854 8.56591 108.473 6.22981C108.854 5.36969 108.974 5.21656 109.59 4.49499C115.808 2.38433 113.705 13.1413 114.327 14.3287C116.109 14.2212 119.377 8.27693 122.402 11.0145C124.551 12.9596 118.891 16.2481 119.17 17.6716C120.533 18.2305 121.429 17.3152 122.314 16.4302C124.058 17.379 126.507 18.1184 128.401 18.9422C134.139 21.4382 137.978 23.8983 142.654 28.0285C144.796 25.7812 146.223 23.9642 149.147 22.7201C158.775 18.6233 167.717 26.2346 167.777 35.9704C167.778 36.0722 167.778 36.1742 167.777 36.2762C167.474 42.6374 163.323 48.0854 156.823 49.0325C156.183 49.5458 156.024 49.5466 156.028 50.4689C156.823 50.7703 157.024 50.7891 157.875 50.8836C160.085 56.7136 160.629 65.3809 160.773 71.6431C160.814 73.4067 160.353 78.0694 160.635 79.3514C162.456 87.6328 163.428 92.9618 159.712 101.157C156.038 109.26 148.735 114.64 140.428 117.546C136.986 118.838 133.81 118.988 131.46 119.849L129.116 116.615C121.771 106.85 114.629 100.582 103.783 94.9001C92.8689 89.3785 82.3548 87.0622 70.153 87.3063C62.5724 87.6654 52.5282 89.6729 45.619 92.845C44.4748 93.2654 43.2884 93.7699 42.1539 94.2328C36.9101 87.3323 35.0748 78.9869 37.0559 70.5792C37.877 67.2424 39.2865 64.0789 41.218 61.2367C42.1066 59.9364 43.865 57.6155 44.4639 56.3063C45.6904 53.6258 46.8329 50.555 47.9633 47.7946C51.1994 39.8916 54.5435 34.6343 59.9802 28.0992L58.5619 27.0862C55.0726 25.1881 53.2428 20.6836 53.05 16.8959Z" fill="#FF9B34"/>
<path d="M70.1527 87.3061C69.5522 84.5255 68.6674 81.1564 69.067 78.3403C72.3946 54.8796 103.207 55.3179 107.932 78.1306C108.882 82.9528 107.885 87.955 105.157 92.0436C104.275 93.372 103.52 93.5238 103.783 94.8999C92.8687 89.3783 82.3546 87.062 70.1527 87.3061Z" fill="#F58606"/>
<path d="M85.131 77.7122C77.9686 74.5498 74.9267 64.6648 85.3203 64.0798C87.1208 63.9801 88.7826 64.3834 90.4612 64.7676C99.6645 66.8744 100.734 74.9075 91.1476 77.6401C89.5014 78.1094 88.54 78.1232 86.7185 78.0915C86.381 79.6571 86.135 81.0598 85.8831 82.6424C86.7007 83.2917 87.5052 84.0772 88.2724 84.7939C88.0682 85.5501 87.9778 85.5606 87.2013 86.0983C86.6029 85.5895 85.6563 84.5988 85.0644 84.0168C82.799 84.5745 81.4492 85.3853 79.3539 86.2786C78.9784 86.4386 78.6651 86.1978 78.373 86.004L78.4028 85.6022C79.3476 84.2914 82.4877 83.3918 84.1012 82.1704L84.1662 82.1207C84.6312 80.4659 84.8481 79.4116 85.131 77.7122Z" fill="#492603"/>
<path d="M83.9106 66.045C85.6462 65.7778 86.979 65.8759 88.7144 66.0858C91.5981 66.6304 92.6475 67.0847 95.0331 68.7432C96.5696 69.3697 96.8838 70.4391 96.321 71.9604C93.4736 76.6125 88.1623 78.203 83.3906 74.801C81.221 73.2542 80.516 71.363 80.1992 68.7908C80.5107 67.3041 80.4177 67.2794 81.7941 66.6879C82.6737 66.3247 82.9798 66.1811 83.9106 66.045Z" fill="#7B3A00"/>
<path d="M88.7139 66.084C91.5976 66.6285 92.647 67.0829 95.0327 68.7413C94.459 70.3211 94.125 69.6693 93.5037 70.4167C91.4282 70.8203 89.4864 70.3477 87.5195 69.6856C88.8216 68.9117 88.7621 67.3538 88.7139 66.084Z" fill="#C96301"/>
<path d="M83.9114 66.045C85.647 65.7778 86.9798 65.8759 88.7152 66.0858C88.7634 67.3556 88.8228 68.9136 87.5208 69.6874L84.7531 68.9929C83.4199 68.5768 83.0939 68.4011 82.102 67.4122L81.7949 66.6879C82.6745 66.3247 82.9806 66.1811 83.9114 66.045Z" fill="#EB7536"/>
<path d="M81.7949 66.6858C82.6745 66.3226 82.9806 66.179 83.9114 66.043C86.7289 66.1394 86.6669 67.3536 84.7531 68.9908C83.4199 68.5748 83.0939 68.3991 82.102 67.4101L81.7949 66.6858Z" fill="#F58606"/>
<path d="M95.0349 68.7422C96.5713 69.3687 96.8855 70.4381 96.3227 71.9594C95.2261 71.2965 94.7234 71.349 93.5059 70.4175C94.1271 69.6701 94.4612 70.3219 95.0349 68.7422Z" fill="#A04115"/>
<path d="M80.1992 68.7904C80.5107 67.3037 80.4177 67.2791 81.7941 66.6875L82.1012 67.4118C81.5852 67.8259 80.7665 68.5385 80.1992 68.7904Z" fill="#A04115"/>
<path d="M88.2723 84.793C89.376 85.8702 90.3918 86.5548 90.5692 88.0541L90.35 88.3026C89.1068 88.221 88.1149 86.9839 87.2012 86.0973C87.9777 85.5596 88.0681 85.5491 88.2723 84.793Z" fill="#492603"/>
<path d="M53.0491 16.8959C53.0302 16.8113 53.0114 16.7268 52.9925 16.6424C51.9697 -0.302541 76.1179 -4.55613 79.1608 13.6989C77.8158 13.8087 73.9796 15.7435 72.8729 16.5719C72.8632 16.9971 72.8304 17.5949 72.8659 18.0041C70.0234 19.9137 67.6854 21.3663 64.8121 23.4024C64.1454 22.872 63.8169 22.913 62.9504 22.8676C61.5055 23.7897 61.1005 24.6296 59.9277 25.6788L59.8945 25.789C60.4446 26.3094 60.4598 26.5185 60.6578 27.2445L59.9792 28.0992L58.561 27.0862C55.0717 25.1881 53.2418 20.6836 53.0491 16.8959Z" fill="#FE9521"/>
<path d="M62.9501 22.8674C59.9544 20.5198 58.817 16.2054 61.0827 12.9645C62.0756 11.5556 63.5995 10.6121 65.3033 10.3513C69.6575 9.65596 72.2159 12.555 72.8726 16.5717C72.8629 16.9969 72.83 17.5947 72.8656 18.004C70.0231 19.9135 67.685 21.3662 64.8118 23.4022C64.145 22.8719 63.8166 22.9129 62.9501 22.8674Z" fill="#492603"/>
<path d="M65.0715 11.8688C68.9653 11.4489 70.1869 13.6991 71.6415 16.7946C69.8562 18.0117 68.2199 18.8044 66.2093 20.2376C65.4937 20.7081 64.732 21.2861 64.032 21.7929C61.6092 19.368 61.5793 18.5646 61.4961 15.3379C62.4332 13.6301 63.4221 12.7752 65.0715 11.8688Z" fill="#C96301"/>
<path d="M53.0488 16.8965C55.4535 21.1135 55.1325 22.8905 59.9275 25.6794L59.8943 25.7896C60.4444 26.31 60.4596 26.5191 60.6576 27.2452L59.979 28.0999L58.5607 27.0868C55.0715 25.1887 53.2416 20.6843 53.0488 16.8965Z" fill="#F58606"/>
<path d="M59.8941 25.7891C60.4442 26.3095 60.4594 26.5186 60.6574 27.2446L59.9788 28.0993L58.5605 27.0862C58.8503 26.7407 59.5353 26.127 59.8941 25.7891Z" fill="#C96301"/>
<path d="M156.027 50.4688C156.823 50.7702 157.023 50.789 157.875 50.8835C160.085 56.7135 160.629 65.3808 160.772 71.643C160.813 73.4066 160.352 78.0693 160.634 79.3513C162.456 87.6327 163.427 92.9617 159.712 101.157C156.038 109.26 148.734 114.64 140.428 117.546C136.985 118.838 133.81 118.988 131.459 119.849L129.115 116.615C144.456 114.659 160.75 103.153 159.501 85.8073C159.476 83.7773 158.525 80.8922 158.619 78.9296C158.891 73.2298 159.017 67.954 158.411 62.2485C157.978 58.1788 156.525 54.399 156.027 50.4688Z" fill="#F58606"/>
<path d="M42.1539 94.2337C36.9101 87.3332 35.0748 78.9878 37.0559 70.5801C38.2573 72.0809 37.7938 73.7499 37.8911 75.6316C38.1922 81.4461 40.3878 86.526 43.9604 91.0781C44.4354 91.6856 45.2706 92.3333 45.619 92.8459C44.4748 93.2663 43.2884 93.7708 42.1539 94.2337Z" fill="#F58606"/>
<path d="M156.822 49.0336C156.863 48.711 156.916 47.7895 157.281 47.684C161.012 46.5786 163.596 44.8908 165.331 41.2943C165.967 39.9746 166.844 37.1773 167.777 36.2773C167.473 42.6385 163.322 48.0865 156.822 49.0336Z" fill="#F58606"/>
<path d="M72.8728 16.5723C73.9795 15.7438 77.8157 13.809 79.1606 13.6992C79.3701 14.2783 79.595 14.8168 79.6733 15.4276C77.0387 16.2946 75.3968 17.0344 72.8658 18.0045C72.8302 17.5952 72.863 16.9975 72.8728 16.5723Z" fill="#C96301"/>
<path d="M62.9504 22.8672C63.817 22.9127 64.1454 22.8717 64.8122 23.402C63.4386 24.6794 62.0132 25.9575 60.6579 27.2442C60.4599 26.5181 60.4447 26.309 59.8945 25.7886L59.9278 25.6784C61.1006 24.6292 61.5056 23.7893 62.9504 22.8672Z" fill="#C96301"/>
<path d="M109.589 4.49609C110.511 4.64554 110.214 4.48735 110.947 5.05694L110.985 5.45008C110.471 6.01773 109.212 6.28863 108.473 6.23092C108.854 5.37079 108.974 5.21766 109.589 4.49609Z" fill="#F58606"/>
<path d="M137.108 76.5908C149.528 75.7726 153.543 90.805 140.706 93.5917C129.079 94.9981 123.418 79.5505 137.108 76.5908Z" fill="#FCB35B"/>
<path d="M117.274 61.0495C126.884 60.8246 127.337 75.2075 118.5 77.8509C111.262 78.8363 109.523 70.7953 111.996 65.5841C113.216 63.0121 114.707 61.9401 117.274 61.0495Z" fill="#492603"/>
<path d="M116.262 63.6992C119.278 63.9313 119.275 66.7557 117.334 68.5317C113.966 68.3599 113.764 65.279 116.262 63.6992Z" fill="#EFEEED"/>
<path d="M68.0918 50.9195C71.0992 50.7543 73.9063 51.764 74.7445 54.847C76.1868 60.1529 74.1772 65.6317 68.8587 67.4529C68.0355 67.627 67.248 67.4923 66.4822 67.2661C60.0998 65.3803 61.433 55.5538 65.809 52.2606C66.5342 51.7149 67.3159 51.3202 68.0918 50.9195Z" fill="#492603"/>
<path d="M70.2434 53.9512C73.2184 54.1886 73.4954 57.8485 70.5013 58.9448C67.4739 57.9148 67.9149 55.5556 70.2434 53.9512Z" fill="#EFEEED"/>
<path d="M152.407 29.767C155.848 29.4541 158.522 30.404 160.007 33.7996C160.732 35.4579 160.752 37.3402 160.06 39.013C159.153 41.1917 157.479 42.5134 155.339 43.3799C153.488 43.7906 153.351 43.0542 152.519 41.5034C151.022 38.7153 149.41 36.2714 147.357 33.8632C148.874 31.817 149.944 30.5801 152.407 29.767Z" fill="#492603"/>
<path d="M152.486 31.5045C155.651 31.2151 157.252 31.931 158.785 34.9094C158.884 38.4474 158.59 39.7081 155.389 41.576L154.864 41.6637C154.567 41.4548 150.068 34.553 149.35 33.6021C150.363 32.5626 151.217 32.1038 152.486 31.5045Z" fill="#C96301"/>
<path d="M121.706 52.8653C122.892 52.737 124.525 52.6884 124.054 54.4546C122.722 56.0188 117.72 56.9026 115.677 57.2545C114.443 57.4549 114.129 57.7306 113.314 56.7796C112.925 54.7929 115.715 54.5173 117.163 54.0962C118.66 53.6607 120.198 53.2761 121.706 52.8653Z" fill="#7B3A00"/>
<path d="M70.9077 41.2754C71.503 41.4907 73.1636 42.9459 73.6037 43.4271C74.6611 44.5828 78.0728 47.0658 78.3329 48.34C78.2316 48.9429 77.6834 49.3646 77.2343 49.8053C75.9206 49.6679 72.2125 45.9487 71.0343 44.8949C69.3764 43.4123 69.4401 42.7139 70.9077 41.2754Z" fill="#7B3A00"/>
<path d="M140.222 172.958C143.803 173 146.569 172.895 149.79 171.113C149.807 172.474 150.116 174.569 150.29 175.929C151.118 182.575 151.099 186.192 149.683 192.853C149.21 195.077 148.215 197.875 148.273 200.057C148.547 210.367 151.471 221.59 151.868 231.687C155.828 234.641 159.809 239.692 159.089 244.968C158.587 248.61 157.017 250.786 153.539 252.164C152.819 252.431 152.324 252.65 151.557 252.734C148.009 253.742 144.568 254.432 140.854 254.183L139.179 254.152C131.779 254.733 122.136 251.651 120.594 243.666C120.264 241.958 120.078 239.437 119.356 237.9C116.832 232.521 114.035 227.247 111.407 221.916C110.61 220.303 109.836 218.647 108.857 217.141C119.354 210.903 127.435 201.981 133.519 191.48C135.411 187.865 137.207 183.877 138.429 179.979C139.065 177.373 140.002 175.937 140.222 172.958Z" fill="#FE9521"/>
<path d="M108.857 217.14C119.354 210.902 127.435 201.98 133.519 191.479C133.539 192.732 133.549 193.187 133.025 194.355C132.535 195.447 132.002 196.469 131.472 197.534C130.097 200.299 128.541 202.921 126.785 205.459C124.378 209.241 116.579 217.747 116.923 222.045C117.641 227.308 120.603 232.339 122.804 237.089C124.555 240.869 122.979 244.065 126.326 247.183C130.094 250.694 135.244 251.936 140.228 251.162C140.126 252.317 139.67 253.108 139.179 254.151C131.779 254.732 122.136 251.65 120.594 243.665C120.264 241.957 120.078 239.436 119.356 237.899C116.832 232.52 114.035 227.246 111.407 221.915C110.61 220.302 109.836 218.646 108.857 217.14Z" fill="#F58606"/>
<path d="M140.223 172.958C143.804 173 146.57 172.895 149.79 171.113C149.807 172.474 150.116 174.569 150.29 175.929C147.821 177.103 140.984 180.138 138.43 179.979C139.066 177.373 140.003 175.937 140.223 172.958Z" fill="#F58606"/>
<path d="M152.253 250.16C152.068 251.003 151.598 252.08 151.556 252.733C148.009 253.741 144.567 254.431 140.854 254.182C141.018 253.106 142.054 252.929 142.15 250.078C142.21 250.622 142.252 250.787 142.416 251.31C144.379 252.152 149.998 250.428 152.094 250.177L152.253 250.16Z" fill="#F58606"/>
<path d="M153.905 248.296C156.007 249.254 157.341 246.059 159.089 244.967C158.587 248.609 157.017 250.785 153.539 252.163C153.324 251.683 153.81 249.019 153.905 248.296Z" fill="#F58606"/>
<path d="M141.808 248.443L142.15 250.078C142.053 252.929 141.017 253.105 140.853 254.182L139.178 254.151C139.67 253.107 140.125 252.316 140.227 251.162C140.468 250.146 140.507 249.802 140.542 248.756L141.808 248.443Z" fill="#C96301"/>
<path d="M152.162 246.477C152.671 246.49 153.09 246.444 153.515 246.698L153.905 248.296C153.81 249.018 153.324 251.683 153.539 252.163C152.819 252.429 152.324 252.649 151.557 252.732C151.598 252.079 152.068 251.003 152.253 250.159C152.384 249.015 152.239 247.641 152.162 246.477Z" fill="#C96301"/>
<path d="M140.543 248.757C140.246 247.614 139.312 245.251 139.59 244.301L139.909 244.258C141.042 245.163 141.711 247.035 141.809 248.444L140.543 248.757Z" fill="#EB7536"/>
<path d="M152.163 246.477C151.859 245.402 151.273 243.804 151.363 242.78L151.6 242.594C152.606 243.225 153.571 245.509 153.515 246.698C153.09 246.444 152.672 246.49 152.163 246.477Z" fill="#F58606"/>
<path d="M148.943 233.417C149.431 233.054 149.595 232.935 150.012 232.461L150.176 232.428C151.213 233.839 152.567 234.109 153.886 235.317C152.9 234.836 151.948 234.12 150.878 234.515C149.821 234.628 148.122 234.682 147.336 233.846L147.43 233.576C147.91 233.304 148.394 233.386 148.943 233.417Z" fill="#F58606"/>
<path d="M150.878 234.515C149.821 234.628 148.122 234.682 147.336 233.846L147.43 233.576C147.91 233.304 148.394 233.386 148.943 233.417C149.447 233.673 150.507 234.171 150.878 234.515Z" fill="#FCB35B"/>
<path d="M142.382 118.852C144.126 120.309 145.352 121.127 146.974 122.79C155.369 131.486 162.699 145.155 159.042 157.541C156.787 165.668 150.447 170.832 141.95 171.075C141.194 171.096 139.016 171.053 138.395 170.787C133.988 168.902 126.865 168.875 126.408 162.656C126.51 162.013 126.531 161.931 126.842 161.346C127.131 160.81 127.238 160.318 127.402 159.733C124.377 158.581 124.02 154.275 126.177 152.17C127.212 151.159 127.736 150.841 129.091 150.337C128.404 149.585 127.81 149.58 126.86 149.513C126.724 149.523 126.622 149.442 126.462 149.366C124.516 146.225 128.102 143.067 130.804 141.979C136.347 139.749 143.004 142.437 146.464 147.052C147.054 147.838 147.421 148.34 148.393 148.581L148.603 148.361C148.429 147.068 147.194 145.53 146.418 144.494C144.378 142.379 142.997 141.643 140.363 140.431C140.095 139.118 139.134 136.48 138.684 135.157C138.316 133.329 136.491 129.322 135.703 127.533C134.604 125.535 133.543 123.517 132.521 121.479C136.674 120.656 138.403 120.259 142.382 118.852Z" fill="#FE9521"/>
<path d="M126.408 162.656C127.269 163.406 128.215 164.58 128.834 165.143C131.031 166.941 136.881 168.008 139.669 167.598C142.289 167.213 143.748 166.869 146.538 166.739C152.527 166.459 155.422 161.47 159.042 157.541C156.787 165.668 150.447 170.832 141.95 171.074C141.194 171.096 139.016 171.053 138.395 170.787C133.988 168.902 126.865 168.875 126.408 162.656Z" fill="#F58606"/>
<path d="M142.383 118.852C144.127 120.309 145.353 121.127 146.975 122.79C142.124 124.092 139.705 124.1 135.704 127.533C134.605 125.535 133.544 123.517 132.521 121.479C136.675 120.656 138.404 120.259 142.383 118.852Z" fill="#F58606"/>
<path d="M138.684 135.158C141.422 135.166 141.453 138.686 142.812 140.366C143.969 141.797 145.979 141.709 146.913 143.507C146.786 144.018 146.741 144.077 146.418 144.495C144.378 142.381 142.997 141.645 140.362 140.432C140.095 139.119 139.134 136.481 138.684 135.158Z" fill="#F58606"/>
<path d="M127.402 159.734C128.613 159.919 132.079 160.156 132.683 161.095C132.052 162.319 128.082 161.538 126.842 161.347C127.131 160.811 127.237 160.319 127.402 159.734Z" fill="#C96301"/>
<path d="M126.861 149.514C128.722 149.112 130.807 148.667 132.593 149.664L132.756 149.99C132.155 150.632 129.981 150.344 129.092 150.338C128.405 149.586 127.811 149.58 126.861 149.514Z" fill="#C96301"/>
<path d="M44.4952 220.814C53.7323 224.915 68.5145 228.706 78.4957 226.887C77.4498 229.004 75.7225 234.229 75.447 236.427C74.5173 243.837 72.859 245.635 65.6724 248.151C59.4985 250.312 51.5926 251.704 44.9343 251.201L43.5932 251.115C40.9142 251.014 37.6571 250.884 35.3799 249.465C34.3237 249.057 33.716 248.781 32.9668 247.934C30.6162 244.813 30.967 241.77 32.5502 238.433C34.3816 233.924 39.6279 230.937 44.1659 229.894C44.1836 228.493 44.2112 227.212 44.3022 225.815L44.2831 225.457C44.3756 223.941 44.5043 222.326 44.4952 220.814Z" fill="#FE9521"/>
<path d="M44.4952 220.814C53.7323 224.915 68.5146 228.706 78.4958 226.887C77.4499 229.004 75.7226 234.229 75.4471 236.427C74.5174 243.837 72.8591 245.635 65.6724 248.151C59.4986 250.312 51.5927 251.704 44.9344 251.201C44.7339 250.862 44.5141 249.251 44.4324 248.766C50.6195 249.341 57.0335 248.439 62.8791 246.434C64.604 245.841 67.711 245.334 67.3431 243.159C67.2203 242.434 67.3004 241.711 67.3538 240.975C64.1475 235.456 54.9356 232.096 49.5501 229.081C47.5107 227.941 46.1239 226.777 44.2832 225.457C44.3757 223.941 44.5044 222.326 44.4952 220.814Z" fill="#F58606"/>
<path d="M44.3028 225.812C45.0865 226.654 45.0455 228.685 45.1015 229.878L46.9925 231.407C42.0302 232.012 39.2404 232.95 35.3482 236.441C34.2514 237.424 33.786 238.728 32.5508 238.431C34.3822 233.922 39.6284 230.935 44.1665 229.892C44.1842 228.49 44.2118 227.21 44.3028 225.812Z" fill="#FCB35B"/>
<path d="M35.1367 246.57L35.285 246.613C37.7618 247.348 39.2098 248.838 42.6065 248.467C42.8901 249.748 42.9148 249.985 43.5943 251.114C40.9152 251.013 37.6582 250.883 35.381 249.464C35.4154 248.959 35.188 247.216 35.1367 246.57Z" fill="#F58606"/>
<path d="M33.6099 243.863C34.4502 244.164 34.4719 244.025 34.9438 244.625L35.0596 245.649L35.1356 246.57C35.1869 247.216 35.4142 248.959 35.3798 249.464C34.3236 249.056 33.716 248.78 32.9668 247.933L33.3012 247.859C33.778 247.2 33.0986 245.729 33.6099 243.863Z" fill="#C96301"/>
<path d="M42.9768 246.045L44.2006 246.07C44.1215 247.263 44.1234 247.615 44.4324 248.766C44.514 249.251 44.7338 250.862 44.9344 251.201L43.5933 251.115C42.9137 249.986 42.889 249.749 42.6055 248.468C42.6694 247.535 42.7874 246.964 42.9768 246.045Z" fill="#C96301"/>
<path d="M33.6113 243.865C34.0474 242.636 34.9311 239.993 36.1625 239.457C36.6293 240.172 35.6917 242.269 35.4567 243.111C35.2006 244.028 35.1425 244.716 35.0611 245.65L34.9452 244.626C34.4734 244.026 34.4516 244.166 33.6113 243.865Z" fill="#EB7536"/>
<path d="M42.9785 246.044C42.9923 244.845 43.6043 242.268 44.9442 241.908C45.6351 242.588 44.5011 245.144 44.2022 246.069L42.9785 246.044Z" fill="#EB7536"/>
<path d="M1.79207 134.541C1.43034 127.6 6.98729 117.729 14.9594 118.967C19.1411 119.617 22.9244 123.332 22.1976 127.737C21.9769 128.522 21.8002 129.231 21.4553 129.975L19.6058 129.13L18.9499 128.893L18.4388 129.737C20.3765 131.542 21.3293 132.147 21.7114 134.773C21.3385 136.798 19.8681 139.953 17.3266 139.464C17.0639 139.411 16.8033 139.349 16.5452 139.277L15.785 139.429C15.4869 139.912 15.5493 140.157 15.8752 140.682C17.581 141.465 16.9374 143.519 15.8831 144.457C12.5781 147.401 9.02351 145.323 5.58989 145.249C2.88707 141.521 1.79948 139.156 1.79207 134.541Z" fill="#FE9521"/>
<path d="M1.79297 134.541C3.58533 139.689 5.87312 143.575 11.8436 144.269C12.5137 144.347 13.3396 144.269 13.9745 144.036C14.7435 143.758 15.3607 143.171 15.6749 142.416C15.9456 141.764 15.8354 141.513 15.5527 140.82L15.876 140.683C17.5819 141.465 16.9383 143.519 15.884 144.458C12.579 147.401 9.0244 145.324 5.59079 145.25C2.88797 141.521 1.80037 139.157 1.79297 134.541Z" fill="#F58606"/>
<path d="M16.6056 139.166C16.9676 138.746 17.8145 138.31 18.4076 137.826C19.7406 136.74 20.2143 135.524 21.7111 134.771C21.3382 136.796 19.8678 139.951 17.3263 139.462C17.0636 139.409 16.803 139.347 16.5449 139.275L16.6056 139.166Z" fill="#F58606"/>
<path d="M15.5522 140.82C14.7041 140.444 10.9651 139.215 10.8672 138.12C11.7396 137.643 15.1591 139.159 16.6063 139.168L16.5456 139.277L15.7854 139.43C15.4873 139.912 15.5497 140.157 15.8756 140.683L15.5522 140.82Z" fill="#C96301"/>
<path d="M18.4396 129.737C17.3682 129.368 15.3069 129.076 14.627 128.249L14.687 127.857C15.6787 127.314 18.3417 127.999 18.9507 128.893L18.4396 129.737Z" fill="#C96301"/>
<path d="M19.6074 129.129C20.6252 128.29 20.9054 127.932 22.1993 127.736C21.9785 128.522 21.8018 129.23 21.4569 129.974L19.6074 129.129Z" fill="#F58606"/>
</svg>
