<svg width="311" height="262" viewBox="0 0 311 262" fill="none" xmlns="http://www.w3.org/2000/svg">
<path d="M129.2 13.8579C131.46 8.92847 133.743 4.83977 139.21 2.90049C142.961 1.58216 147.099 1.9547 150.547 3.94174C154.625 6.2536 157.376 10.3997 158.379 14.9374C159.668 20.7648 157.978 25.4363 155.093 30.3657C170.384 49.3477 186.086 84.0351 183.516 108.921C183.087 113.019 182.37 117.117 181.692 121.187C184.777 116.735 189.018 108.768 194.576 107.574C196.028 108.147 198.043 110.488 198.941 110.545C204.595 110.918 208.53 111.768 212.398 116.2C215.817 120.108 217.326 124.005 221.595 127.387C221.796 134.313 223.248 140.198 218.329 145.739C219.007 150.143 223.42 153.037 224.747 157.279C228.119 168.036 226.562 182.7 226.505 193.944C233.734 190.581 241.394 189.377 248.93 186.979C253.581 185.499 258.022 183.426 262.721 182.069C267.067 183.741 271.508 185.785 275.987 187.037C287.066 190.132 303.484 191.565 309.176 203.392C311.793 208.847 310.637 214.722 308.517 220.091C306.874 224.227 304.792 228.163 302.137 231.745C304.467 233.933 307.103 236.092 307.256 239.541C307.352 241.738 306.836 243.247 305.384 244.957C298.24 253.383 273.246 255.724 262.664 255.8C250.754 255.896 235.282 254.396 225.072 248.024L225.311 252.456L224.652 254.52C222.579 256.411 222.465 256.536 219.685 256.708C216.896 255.112 217.097 254.816 216.151 251.692L214.537 249.686C213.21 251.1 213.554 252.103 213.477 254.004C211.806 255.208 209.905 256.431 207.775 256.593C205.292 256.784 204.328 256.048 202.494 254.635C201.529 252.093 201.701 250.756 202.503 248.186C199.906 245.932 196.028 245.521 192.561 245.702C190.565 245.808 188.893 245.855 187.528 247.365L187.213 249.361C186.764 251.339 186.916 252.055 185.035 253.23C184.137 253.784 183.411 253.861 182.409 254.109C172.991 256.421 175.532 263.146 164.864 257.959C162.514 256.822 161.148 256.679 158.589 257.099L157.71 258.322C155.494 260.51 154.988 261.102 152.018 261.847C150.795 261.446 149.411 261.131 148.274 260.557C147.166 258.57 146.259 256.536 144.444 255.093C142.148 256.115 139.252 257.539 136.762 257.816C133.341 258.207 133.089 254.138 130.809 252.466C128.716 250.938 125.026 252.418 122.479 249.944L122.65 247.976C127.625 241.098 129.71 245.741 135.298 242.961L135.834 239.808C131.284 240.028 126.58 241.136 121.997 241.585C112.894 242.483 103.859 242.674 94.719 242.722C94.5404 242.846 94.3646 242.97 94.1841 243.094C93.8842 243.295 93.5777 243.486 93.2749 243.677C86.8873 247.871 80.0509 248.865 72.5067 249.294C55.8588 250.25 17.3596 242.808 4.93782 231.124C2.39444 228.736 0.0124481 225.326 0.0592469 221.686C0.116552 217.311 3.49469 214.779 6.48504 212.152C-3.29783 190.294 -1.15178 170.749 7.19942 148.786C11.8382 136.587 18.88 125.295 23.1893 113.029C32.5558 86.3661 33.4392 60.267 50.0758 36.0212C46.6317 30.232 44.4847 25.2261 46.1256 18.386C47.2564 13.6668 49.9688 9.36794 54.1788 6.83637C57.9867 4.54362 62.2062 4.01823 66.4678 5.31745C72.0941 7.04657 74.7683 11.1257 77.5027 15.9118C95.5327 10.9347 110.852 10.6958 129.2 13.8579Z" fill="#6B3E0F"/>
<path d="M55.1938 35.3525C54.1566 34.3494 52.9255 33.2317 52.2015 31.9802C50.576 29.1525 48.4987 22.0832 49.5254 18.9021C50.6763 15.3292 55.5051 9.96028 58.9701 8.57508C69.2134 4.4768 70.7071 18.7206 76.7986 21.5387C78.5865 20.5452 80.3888 19.5613 82.2464 18.711C85.1727 17.3545 88.7944 17.1156 91.9748 16.6093C107.291 14.1446 119.571 15.3006 134.065 20.6025L139.179 22.9813L146.832 27.5571L148.302 29.315C164.959 46.1858 179.619 78.4561 179.639 102.587C179.639 108.099 178.492 112.761 176.697 117.939C170.479 119.047 164.405 120.003 158.541 122.467C155.981 124.837 154.931 126.25 154.147 129.67C154.138 129.737 154.119 129.814 154.1 129.881C152.295 130.597 151.015 130.998 150.041 132.833C150.002 132.899 149.983 132.985 149.955 133.062L151.588 134.304C151.301 137.647 147.844 139.93 145.819 142.433C147.147 147.057 148.828 151.805 149.697 156.534C147.223 165.581 147.844 175.01 148.006 184.314C147.873 184.438 147.72 184.553 147.586 184.687C144.979 187.247 144.234 191.441 143.114 194.842C136.891 213.795 119.388 216.422 101.273 216.766C94.1037 216.909 82.914 216.585 77.4538 211.101C74.855 208.493 74.7414 205.274 74.7662 201.815C74.7738 200.631 74.6334 199.609 74.4348 198.453L75.8005 197.603C80.2951 199.723 85.0944 202.551 89.9701 203.545C85.5863 200.354 79.9714 198.873 75.2686 196.17L74.3355 195.625L73.3154 201.901L72.1999 202.169L70.497 199.58C70.2793 202.704 70.1952 205.111 68.4063 207.815C61.7915 212.735 49.193 214.407 41.0796 214.617C39.3557 213.824 37.6557 213.031 35.8926 212.333C15.4635 204.242 13.7176 186.282 6.06072 168.867L5.63477 167.912C9.83329 148.156 20.3191 132.011 27.1527 113.363C37.8744 84.1116 35.4896 62.7795 55.1938 35.3525Z" fill="#FF9A43"/>
<path d="M149.955 133.06C142.88 138.152 132.185 140.856 123.535 139.623C116.818 138.659 110.847 135.305 106.805 129.803C100.836 121.683 99.88 110.993 101.394 101.306C102.999 91.0268 107.448 79.7637 116.18 73.4969C121.746 69.5705 128.652 68.0324 135.357 69.2361C140.133 70.0959 144.387 72.3791 147.137 76.4679L149.124 75.3788L150.528 77.3085L152.505 82.1806C159.553 91.4089 161.339 101.688 159.983 113.028C159.677 115.607 158.913 118.043 158.388 120.555C158.187 121.52 158.283 121.272 158.541 122.466C155.981 124.835 154.931 126.249 154.148 129.669C154.138 129.736 154.119 129.812 154.1 129.879C152.295 130.596 151.015 130.997 150.041 132.831C150.002 132.898 149.983 132.984 149.955 133.06Z" fill="#A85914"/>
<path d="M149.125 75.3789L150.529 77.3087L152.506 82.1807C150.281 80.4803 148.781 78.713 147.139 76.468L149.125 75.3789Z" fill="#B35D0C"/>
<path d="M141.759 85.7541C144.082 85.028 144.531 84.6555 146.909 85.4293C147.779 87.1966 148.189 88.2092 147.406 90.1485C146.757 91.7821 144.999 93.5686 143.326 94.1417C141.673 94.7054 139.546 94.4188 137.826 94.2946C135.337 99.5488 136.718 109.99 136.787 115.856C139.707 117.681 142.57 119.085 144.216 122.237L143.5 123.317C140.109 123.46 137.318 121.167 134.522 119.448C131.274 121.578 127.796 125.084 123.823 125.275L123.435 123.89C125.762 120.05 129.782 118.149 133.534 115.923C133.659 109.971 134.336 103.408 132.948 97.6095C132.129 94.1704 123.975 95.4505 120.704 93.4539C119.562 92.0974 118.42 90.9032 118.212 89.0785C118.034 87.5118 118.372 87.5788 119.255 86.4133C122.332 85.3529 122.865 85.4866 126.053 86.27C131.668 83.1748 135.942 87.3303 141.759 85.7541Z" fill="#3A1A01"/>
<path d="M141.757 85.7541C144.081 85.028 144.53 84.6555 146.908 85.4293C147.777 87.1966 148.188 88.2092 147.405 90.1485C146.755 91.7821 144.998 93.5686 143.325 94.1417C141.671 94.7054 139.544 94.4188 137.824 94.2946L137.133 92.938C138.186 90.0817 139.88 88.085 141.757 85.7541Z" fill="#2A1603"/>
<path d="M126.053 86.27C131.668 83.1748 135.942 87.3304 141.758 85.7541C139.88 88.0851 138.187 90.0817 137.134 92.9381L135.135 93.3966C131.525 92.2884 128.962 88.7825 126.053 86.27Z" fill="#9F540F"/>
<path d="M91.613 156.867C96.6243 164.214 115.355 178.505 114.115 186.778C112.497 187.848 111.033 188.622 109.247 189.367L109.446 190.657L111.841 192.386L111.616 194.726C109.717 198.834 107.419 201.509 103.047 203.066C99.0703 204.489 94.0189 204.661 89.9703 203.544C85.5865 200.353 79.9716 198.872 75.2688 196.169L74.3357 195.624L73.3156 201.9L72.2001 202.168L70.4972 199.579C66.8049 190.131 58.7411 184.046 54.8473 174.646L52.834 170.299C56.1538 172.047 58.4269 173.9 61.063 176.537C65.9405 182.336 71.0034 185.383 77.7157 188.784C78.6068 187.905 79.3536 187.151 80.0145 186.081C83.8568 179.881 90.7267 173.614 96.822 169.707C93.7199 165.981 91.1899 161.816 88.5749 157.746L91.613 156.867Z" fill="#4D2809"/>
<path d="M96.8231 169.707C101.501 173.251 108.675 177.751 110.503 183.511L109.601 184.82C107.302 184.686 105.515 184.037 103.373 183.215L102.718 184.104C103.834 187.361 105.077 190.294 104.731 193.8L103.898 194.287C100.933 193.007 97.1307 188.307 94.4087 188.689C93.8032 190.39 94.1184 191.803 94.3724 193.533C92.3477 194.583 91.5521 194.325 89.3315 193.666C85.387 192.482 81.6374 190.198 77.7168 188.785C78.6079 187.906 79.3547 187.151 80.0157 186.081C83.8579 179.881 90.7278 173.614 96.8231 169.707Z" fill="#A85914"/>
<path d="M54.8477 174.646C64.8511 185.078 79.9624 198.357 95.173 198.634C101.119 198.749 105.207 197.478 110.455 195.119C110.828 194.956 111.23 194.861 111.617 194.727C109.718 198.835 107.419 201.51 103.048 203.067C99.0707 204.49 94.0193 204.662 89.9707 203.545C85.5869 200.354 79.972 198.873 75.2692 196.17L74.3361 195.625L73.316 201.901L72.2005 202.169L70.4976 199.58C66.8053 190.132 58.7415 184.047 54.8477 174.646Z" fill="#C26510"/>
<path d="M149.125 75.3795C148.686 71.9691 148.189 68.2243 150.424 65.2819C151.542 63.8107 153.165 63.2566 154.846 62.6738C157.339 63.0655 158.561 63.2184 160.204 65.3774C162.477 68.3676 163.241 73.4976 162.401 77.0991C162.076 78.4939 161.303 79.5638 160.405 80.6529C158.084 81.4649 156.9 81.9425 154.512 80.7197C153.118 80.0032 151.666 78.3888 150.529 77.3093L149.125 75.3795Z" fill="#1F1302"/>
<path d="M52.8351 170.299C51.498 168.952 50.8418 167.758 50.0625 166.067L50.3309 163.612L51.6126 162.953C55.5562 165.141 59.706 172.191 61.0641 176.538C58.4281 173.901 56.155 172.048 52.8351 170.299Z" fill="#CB741B"/>
<path d="M88.5742 157.747C87.7195 155.464 86.6068 153.181 87.388 150.859C89.8168 152.397 90.365 154.365 91.6124 156.868L88.5742 157.747Z" fill="#CE6F17"/>
<path d="M67.9447 86.8242C68.9237 86.8338 69.8234 86.8625 70.7975 86.9771C75.6188 87.5216 80.5623 88.6011 83.5966 92.7758C84.8315 94.4762 85.2937 96.3774 84.8697 98.4504C84.0244 102.577 80.417 104.698 77.2089 106.905C75.4898 106.981 73.7612 107.048 72.0411 106.962C68.4471 106.79 64.6268 105.147 62.3069 102.348C60.731 100.447 59.987 98.1734 60.4101 95.7182C61.1636 91.3429 64.495 89.031 67.9447 86.8242Z" fill="#F88C44"/>
<path d="M69.1876 92.0879C70.4245 93.1196 70.2 92.9859 70.5525 94.3998L68.2221 98.2402L67.2402 96.9408L69.1876 92.0879Z" fill="#F77830"/>
<path d="M76.5929 94.916L78.1134 94.7441L76.9061 96.9795L75.4258 96.9318L76.5929 94.916Z" fill="#CE6F17"/>
<path d="M85.1537 65.4629C88.4306 65.8259 91.1706 66.8577 93.2565 69.5421C95.1094 71.9208 95.6328 74.9396 95.1638 77.8724C94.3625 82.8782 91.9051 85.2378 88.0266 88.0273C85.0629 87.2822 82.2464 86.432 80.1758 84.0342C78.3869 81.9707 77.534 79.4964 77.8053 76.7642C78.3268 71.5291 81.4117 68.6536 85.1537 65.4629Z" fill="#1F1302"/>
<path d="M161.588 94.6584C161.426 93.3687 161.254 92.0694 161.254 90.7702C161.254 88.3628 162.667 86.1847 164.52 84.7231C166.058 83.5194 168.216 82.717 170.155 83.2997C172.686 84.0544 173.469 85.6688 174.711 87.7514C175.208 90.2734 175.876 93.0725 174.396 95.413C172.954 97.7057 171.722 98.1261 169.315 98.919C166.239 98.5273 164.014 97.4383 161.922 95.0978C161.808 94.9545 161.703 94.8017 161.588 94.6584Z" fill="#F88C44"/>
<path d="M161.588 94.6584C161.426 93.3687 161.254 92.0694 161.254 90.7702C161.254 88.3628 162.667 86.1847 164.52 84.7231C166.058 83.5194 168.216 82.717 170.155 83.2997C172.686 84.0544 173.469 85.6688 174.711 87.7514C172.352 86.9585 170.385 86.4808 167.882 86.433C164.635 88.6111 164.969 92.442 161.588 94.6584Z" fill="#E48E33"/>
<path d="M144.148 142.203C145.37 143.321 145.284 143.416 145.523 145.069C144.94 145.709 144.788 145.938 144.138 146.435C137.392 151.594 123.958 150.906 116.038 149.597L114.379 148.097L114.681 146.655C120.625 143.904 135.805 144.477 144.148 142.203Z" fill="#C26510"/>
<path d="M57.5955 16.9911C59.9163 16.5708 61.0299 16.3128 63.0814 17.9273C65.3803 19.7328 66.9581 22.1784 67.9676 24.882L67.5636 27.0791C66.2637 27.1555 65.3526 26.8976 64.1158 26.5155C63.1196 27.8339 62.4644 28.9038 61.8331 30.4514C60.5113 30.0979 59.6431 29.8974 58.4455 29.2191C58.0128 28.3211 57.5936 27.4135 57.1877 26.4964C55.3883 22.4172 56.0865 20.8697 57.5955 16.9911Z" fill="#4D2809"/>
<path d="M58.4455 29.2183C58.0128 28.3203 57.5936 27.4126 57.1877 26.4955C55.3883 22.4164 56.0865 20.8688 57.5955 16.9902C59.837 18.8818 61.6746 19.923 62.6698 22.7794C61.8389 24.7377 60.8933 26.0371 59.5343 27.6707C58.7864 28.5782 59.0997 28.1483 58.4455 29.2183Z" fill="#8F4C0E"/>
<path d="M42.4834 109.58C43.1166 110.23 42.9218 109.914 43.2818 110.679C45.7392 115.914 49.23 121.397 53.0494 125.734C54.1802 125.553 55.3082 125.362 56.4342 125.161C57.3511 127.081 56.4485 128.39 55.8573 130.387L55.1066 130.339C50.0552 127.072 43.9971 122.993 41.4929 117.289C40.1892 114.318 41.4653 112.36 42.4834 109.58Z" fill="#CB741B"/>
<path d="M89.3341 48.6504L91.4573 49.6153L91.3369 51.0864C88.6913 53.4173 85.7297 54.344 82.4747 55.4999L80.6324 55.8439L80.3105 54.1626C82.8549 51.4208 85.9942 50.1598 89.3341 48.6504Z" fill="#7B3909"/>
<path d="M143.93 46.5293C145.783 46.6821 147.664 46.9018 149.469 47.3413C152.755 48.1437 153.948 49.3474 155.543 52.0509C153.614 52.2993 151.332 52.3471 149.44 51.8503C146.633 51.1052 145.295 48.8889 143.93 46.5293Z" fill="#4D2809"/>
<path d="M148.007 184.314L148.121 213.461C143.795 217.215 137.516 220.043 133.806 223.969C133.827 226.062 133.189 226.262 131.829 227.781C118.451 232.529 105.616 232.147 91.748 233.274C90.4385 233.379 87.6841 233.389 87.111 234.554C85.8379 237.153 85.0203 239.149 82.1589 240.143C81.2497 240.458 81.5305 240.353 80.372 240.477L79.415 238.5C78.4351 238.7 77.5316 238.824 76.5307 238.863L76.0188 236.971L75.3464 237.048C74.7972 237.659 74.1573 238.471 73.4305 238.911C68.1327 242.063 66.1241 232.405 60.9877 230.704C59.4099 232.902 63.5254 236.79 63.2102 239.828L61.2685 240.936C57.0872 240.621 53.5993 238.662 50.1295 236.436C44.145 232.615 42.2309 231.316 40.7324 224.38C42.0313 223.807 42.1546 223.282 42.954 222.154C47.4419 217.922 51.8314 216.394 57.665 214.856C56.3422 214.177 54.9555 213.748 53.5458 213.289C49.1257 214.445 45.6454 214.98 41.0801 214.617C49.1935 214.407 61.7919 212.735 68.4068 207.815C70.1956 205.112 70.2797 202.704 70.4975 199.58L72.2003 202.169L73.3159 201.902L74.3359 195.625L75.269 196.17C79.9718 198.873 85.5867 200.354 89.9705 203.545C85.0949 202.551 80.2956 199.724 75.801 197.603L74.4352 198.453C74.6339 199.609 74.7743 200.631 74.7666 201.816C74.7418 205.274 74.8555 208.493 77.4543 211.101C82.9144 216.585 94.1041 216.91 101.274 216.766C119.389 216.422 136.892 213.795 143.115 194.842C144.234 191.441 144.979 187.247 147.587 184.687C147.72 184.553 147.873 184.439 148.007 184.314Z" fill="#C26510"/>
<path d="M42.954 222.153C43.1278 222.201 43.2997 222.258 43.4754 222.287C47.4944 223.137 51.5697 220.386 55.455 219.516C62.301 217.997 76.7055 217.94 81.3223 224.14C83.0701 226.49 83.3814 229.69 82.8428 232.499C82.435 234.639 82.2612 234.792 80.5191 236.11C77.2565 234.362 77.3119 230.961 73.8183 229.547L72.9396 230.712C73.8078 232.766 74.8612 234.868 75.3464 237.046C74.7972 237.658 74.1573 238.47 73.4305 238.909C68.1327 242.062 66.1241 232.403 60.9877 230.703C59.4099 232.9 63.5254 236.788 63.2102 239.826L61.2685 240.934C57.0872 240.619 53.5993 238.661 50.1295 236.435C44.145 232.614 42.2309 231.314 40.7324 224.379C42.0313 223.806 42.1546 223.28 42.954 222.153Z" fill="#9F540F"/>
<path d="M57.6661 214.856C66.2255 214.693 74.3714 214.111 81.014 220.635C83.4533 223.033 85.2344 226.214 86.8552 229.185C103.279 229.176 117.895 228.182 133.807 223.97C133.828 226.062 133.19 226.262 131.83 227.781C118.452 232.529 105.617 232.147 91.7491 233.274C90.4396 233.379 87.6852 233.389 87.1121 234.554C85.839 237.153 85.0214 239.149 82.16 240.143C81.2508 240.458 81.5316 240.353 80.3731 240.477L79.4161 238.5C78.4362 238.7 77.5327 238.825 76.5318 238.863L76.0199 236.971L75.3475 237.048C74.8623 234.87 73.8089 232.768 72.9407 230.714L73.8194 229.549C77.313 230.962 77.2576 234.363 80.5202 236.111C82.2622 234.793 82.4361 234.64 82.8439 232.5C83.3825 229.692 83.0712 226.491 81.3234 224.141C76.7066 217.941 62.3021 217.999 55.4561 219.518C51.5708 220.387 47.4955 223.138 43.4765 222.288C43.3008 222.26 43.1289 222.202 42.9551 222.154C47.443 217.922 51.8325 216.394 57.6661 214.856Z" fill="#4D2809"/>
<path d="M6.48506 212.15C9.06951 216.144 11.6482 219.812 15.3377 222.869C23.6755 229.757 49.8074 242.644 60.488 244.554C67.1898 245.758 73.4465 243.236 79.241 240.752C79.5972 240.6 79.9946 240.571 80.3718 240.475C81.5303 240.351 81.2495 240.456 82.1587 240.141C85.0202 239.147 85.8377 237.151 87.1108 234.552C87.6839 233.387 90.4384 233.377 91.7478 233.272C105.615 232.145 118.451 232.527 131.829 227.779C137.196 226.193 143.632 224.808 148.99 227.244C150.901 228.114 152.419 230.196 153.699 231.801C146.956 233.177 143.139 235.594 137.069 237.199C136.507 238.097 135.938 238.737 135.834 239.807C131.284 240.026 126.58 241.134 121.997 241.583C112.894 242.481 103.859 242.673 94.719 242.72C94.5404 242.845 94.3646 242.969 94.1841 243.093C93.8842 243.294 93.5777 243.485 93.2749 243.676C86.8874 247.869 80.0509 248.863 72.5068 249.293C55.8588 250.248 17.3596 242.806 4.93784 231.123C2.39447 228.735 0.0124733 225.324 0.0592721 221.684C0.116577 217.309 3.49471 214.777 6.48506 212.15Z" fill="#E4CBAF"/>
<path d="M153.7 231.803C156.603 233.78 158.8 233.656 162.143 233.57C164.101 235.175 163.986 235.385 164.473 237.745C166.403 238.003 168.074 237.917 170.003 237.726C171.121 238.643 172.62 239.598 173.489 240.744L174.463 242.808C174.769 242.837 175.075 242.856 175.38 242.884C180.528 243.372 183.298 244.604 186.641 248.616C186.841 248.855 187.023 249.113 187.214 249.361C186.765 251.339 186.918 252.055 185.036 253.23C184.138 253.785 183.413 253.861 182.41 254.109C172.993 256.421 175.533 263.147 164.865 257.959C162.515 256.822 161.15 256.679 158.59 257.099L157.711 258.322C155.496 260.51 154.989 261.102 152.019 261.847C150.797 261.446 149.412 261.131 148.275 260.558C147.167 258.571 146.26 256.536 144.445 255.093C142.149 256.115 139.254 257.539 136.763 257.816C133.343 258.208 133.09 254.138 130.81 252.466C128.717 250.938 125.027 252.418 122.48 249.944L122.651 247.976C127.626 241.098 129.711 245.741 135.3 242.961L135.835 239.808C135.939 238.738 136.508 238.098 137.07 237.2C143.14 235.595 146.957 233.178 153.7 231.803Z" fill="#E09E4D"/>
<path d="M164.472 237.744C166.401 238.002 168.073 237.916 170.002 237.725C168.789 238.154 167.223 238.346 166.564 239.511C165.771 240.925 165.886 242.138 165.933 243.686L165.59 244.164C164.768 246.437 164.329 249.523 161.932 250.564C161.015 250.956 159.926 251.137 158.952 251.347C157.71 250.191 155.81 247.746 155.619 246.141C154.816 244.116 154.272 243.533 154.845 241.384L157.844 240.352C159.277 240.084 160.213 240.037 161.368 239.119C162.457 238.25 163.135 238.116 164.472 237.744Z" fill="#E48E33"/>
<path d="M157.844 240.352L160.957 241.011L161.722 242.52C159.764 244.794 158.618 245.434 155.619 246.141C154.816 244.116 154.272 243.533 154.845 241.383L157.844 240.352Z" fill="#F2CF9C"/>
<path d="M165.589 244.164L169.19 245.769C169.429 247.88 169.132 248.253 167.814 249.972C165.818 252.59 163.02 253.631 159.916 254.319L157.414 253.211L157.051 251.778L158.951 251.348C159.926 251.138 161.014 250.956 161.931 250.565C164.328 249.523 164.768 246.438 165.589 244.164Z" fill="#F2CF9C"/>
<path d="M148.273 260.557L148.589 258.599C151.425 257.462 154.72 258.102 157.71 258.322C155.494 260.51 154.988 261.102 152.017 261.847C150.795 261.446 149.41 261.131 148.273 260.557Z" fill="#E89A2C"/>
<path d="M174.205 247.545C175.342 247.44 176.621 247.277 177.758 247.44C180.518 247.822 181.397 248.968 183.135 250.917C181.979 250.908 180.786 250.917 179.649 250.755C176.535 250.306 176.048 249.914 174.205 247.545Z" fill="#F2CF9C"/>
<path d="M150.891 255.656C151.885 255.197 152.534 255.13 153.613 255.016L153.394 256.601L150.49 257.031L150.891 255.656Z" fill="#FAEACB"/>
<path d="M221.949 229.615C223.467 231.373 224.996 233.131 226.629 234.784C236.695 244.929 248.586 250.584 262.989 250.441C279.311 250.288 290.944 243.143 302.137 231.746C304.468 233.933 307.104 236.092 307.256 239.541C307.352 241.738 306.836 243.248 305.384 244.958C298.24 253.383 273.246 255.724 262.664 255.8C250.754 255.896 235.282 254.396 225.072 248.024L225.311 252.457L224.652 254.52C222.579 256.412 222.465 256.536 219.685 256.708C216.896 255.113 217.097 254.816 216.151 251.693L214.537 249.686C213.21 251.1 213.554 252.103 213.477 254.004C212.589 250.584 210.507 248.932 208.005 246.668L207.775 244.48C208.902 243.228 209.466 242.455 209.915 240.821L211.366 237.363C215.149 235.07 218.511 232.386 221.949 229.615Z" fill="#E4CBAF"/>
<path d="M208.006 246.666C209.887 245.558 211.521 244.612 213.001 242.997C215.255 242.558 217.089 241.813 219.218 243.102C221.024 244.201 223.698 246.408 225.073 248.022L225.312 252.455L224.653 254.518C222.58 256.41 222.466 256.534 219.686 256.706C216.898 255.111 217.098 254.815 216.153 251.691L214.539 249.685C213.211 251.098 213.555 252.102 213.478 254.003C212.59 250.583 210.508 248.93 208.006 246.666Z" fill="#F8EDDB"/>
<path d="M216.152 251.692C219.524 251.473 222.017 251.721 225.312 252.457L224.653 254.52C222.58 256.412 222.465 256.536 219.686 256.708C216.897 255.112 217.098 254.816 216.152 251.692Z" fill="#F7B13C"/>
<path d="M5.63468 167.91L6.06063 168.865C13.7175 186.281 15.4634 204.241 35.8925 212.332C37.6556 213.03 39.3556 213.822 41.0795 214.615C45.6448 214.978 49.1251 214.443 53.5452 213.287C54.9549 213.746 56.3417 214.176 57.6645 214.854C51.8308 216.392 47.4413 217.921 42.9534 222.153C42.154 223.28 42.0308 223.805 40.7319 224.379C39.8799 225.792 39.0882 227.388 37.816 228.477C36.7368 229.394 32.9337 228.869 31.4505 228.563C23.9636 227.044 16.8855 219.478 12.7004 213.44C3.31576 199.894 2.78663 183.587 5.63468 167.91Z" fill="#C26510"/>
<path d="M134.066 20.6012C133.563 16.2355 133.015 12.7199 136.047 9.09924C137.613 7.22683 139.919 5.93716 142.378 5.87029C146.059 5.78431 149.488 7.49436 151.914 10.217C154.015 12.5862 155.304 15.7483 155.123 18.939C154.951 21.9578 153.7 25.1772 151.388 27.1929C150.452 28.0145 149.363 28.6736 148.303 29.3137L146.833 27.5558L139.18 22.9799L134.066 20.6012Z" fill="#CE6F17"/>
<path d="M139.18 22.9805C140.579 19.8279 141.529 16.6563 144.617 14.8125L146.193 15.1946C148.399 19.1019 147.31 23.2861 146.833 27.5563L139.18 22.9805Z" fill="#4D2809"/>
<path d="M173.488 240.743C186.382 240.858 198.903 241.307 211.367 237.361L209.915 240.82C209.466 242.453 208.902 243.227 207.775 244.478L208.005 246.666C210.507 248.93 212.589 250.583 213.477 254.003C211.806 255.206 209.905 256.429 207.775 256.592C205.292 256.783 204.328 256.047 202.494 254.633C201.529 252.092 201.701 250.755 202.504 248.185C199.906 245.93 196.028 245.52 192.561 245.701C190.565 245.806 188.894 245.854 187.528 247.363L187.213 249.36C187.022 249.112 186.84 248.854 186.64 248.615C183.297 244.602 180.527 243.37 175.379 242.883C175.074 242.854 174.768 242.835 174.462 242.807L173.488 240.743Z" fill="#D7BA9E"/>
<path d="M209.915 240.82C209.466 242.454 208.902 243.228 207.775 244.479L208.004 246.667C210.507 248.931 212.589 250.584 213.477 254.004C211.806 255.207 209.905 256.43 207.775 256.592C205.292 256.783 204.327 256.048 202.494 254.634C201.529 252.093 201.701 250.756 202.503 248.186C204.05 246.791 203.745 245.654 203.964 243.619C205.636 241.327 207.278 241.451 209.915 240.82Z" fill="#EBAC51"/>
<path d="M149.956 133.062C149.984 132.986 150.004 132.9 150.042 132.833C151.016 130.999 152.296 130.597 154.101 129.881C153.604 137.179 156.842 145.643 152.878 151.566C151.79 153.19 150.758 154.881 149.698 156.534C148.829 151.805 147.148 147.057 145.82 142.434C147.845 139.931 151.302 137.648 151.589 134.304L149.956 133.062Z" fill="#C26510"/>
<path d="M151.885 170.27L157.797 172.18C176.526 177.31 196.248 177.635 215.139 173.145L222.111 170.623C222.322 177.415 224.633 192.633 220.115 197.83C219.619 198.394 219.017 198.891 218.463 199.388L216.2 201.46C215.541 203.811 215.273 207.364 213.057 208.587C200.928 215.265 171.769 213.02 159.497 208.453C158.57 208.11 157.806 207.718 156.937 207.24L153.89 206.266C148.895 200.114 151.665 178.246 151.885 170.27Z" fill="#F8DCB5"/>
<path d="M151.885 170.27L157.797 172.18C157.577 174.874 156.574 179.297 158.322 181.542C158.389 181.638 158.494 181.705 158.589 181.781L157.09 183.405L157.615 185.125L160.595 187.398L164.005 187.054L167.93 187.035L168.503 189.127C169.84 186.94 170.174 185.621 172.581 184.599C175.924 186.911 176.363 192.079 177.099 195.92C177.328 198.155 177.672 200.362 177.299 202.597L180.384 203.371L182.466 202.359C183.116 200.381 183.641 198.442 184.08 196.397L185.866 195.881C187.815 198.05 186.592 201.823 188.989 202.635L189.62 202.234L194.424 203.419L197.127 200.83L199.839 201.537L200.613 201.929L202.131 201.183C202.532 198.91 202.962 196.646 203.411 194.382L204.28 196.197L206.897 200.075C208.616 200.324 208.912 200.391 210.488 199.722L212.351 199.359L215.932 199.378L218.463 199.388L216.2 201.46C215.541 203.811 215.273 207.364 213.057 208.587C200.928 215.265 171.769 213.02 159.497 208.453C158.57 208.11 157.806 207.718 156.937 207.24L153.89 206.266C148.895 200.114 151.665 178.246 151.885 170.27Z" fill="#F8DCB5"/>
<path d="M151.885 170.27L157.797 172.18C157.577 174.874 156.574 179.297 158.322 181.542C158.389 181.638 158.494 181.705 158.589 181.781L157.09 183.405L157.615 185.125C156.994 191.764 157.395 200.429 153.89 206.266C148.895 200.114 151.665 178.246 151.885 170.27Z" fill="#F2C58E"/>
<path d="M168.503 189.128C169.84 186.94 170.175 185.622 172.581 184.6C175.924 186.911 176.363 192.08 177.099 195.92C177.328 198.156 177.672 200.362 177.3 202.598C174.816 201.394 174.587 199.139 171.942 197.898C170.929 198.652 170.003 199.417 169.105 200.315L168.217 201.203L165.695 200.687C167.128 197.047 167.71 192.959 168.503 189.128Z" fill="#8F4C0E"/>
<path d="M171.722 191.181L172.496 191.162L172.591 193.359L171.254 193.636L171.722 191.181Z" fill="#E4CBAF"/>
<path d="M157.615 185.125L160.595 187.399C160.509 191.487 160.251 195.643 160.404 199.722L159.086 198.003C157.205 200.467 157.338 204.174 156.937 207.24L153.891 206.266C157.396 200.429 156.995 191.764 157.615 185.125Z" fill="#E4CBAF"/>
<path d="M160.594 187.399L164.004 187.055L164.099 187.723L163.984 188.564C163.526 191.86 164.3 197.286 162.466 199.904L160.403 199.722C160.25 195.643 160.508 191.487 160.594 187.399Z" fill="#8F4C0E"/>
<path d="M164.004 187.056L167.929 187.037L168.502 189.129C167.71 192.96 167.127 197.049 165.694 200.689C164.071 196.772 164.29 191.909 164.099 187.725L164.004 187.056Z" fill="#FAEACB"/>
<path d="M215.931 199.378L218.462 199.388L216.199 201.461L212.35 199.359L215.931 199.378Z" fill="#F2C58E"/>
<path d="M215.139 173.145L222.111 170.623C222.321 177.415 224.632 192.634 220.114 197.83C219.618 198.394 219.016 198.891 218.462 199.388L215.931 199.378L212.35 199.359L210.487 199.722C208.911 200.391 208.615 200.324 206.896 200.075L204.279 196.197C206.648 194.496 208.663 192.719 210.697 190.627L210.516 185.086L211.404 186.72L212.684 185.153L215.339 181.351L216.151 181.112C216.552 180.339 216.762 180.062 216.905 179.097C217.249 176.737 216.39 174.998 215.139 173.145Z" fill="#F2CF9C"/>
<path d="M215.339 181.352C215.826 187.38 215.922 193.341 215.931 199.378L212.35 199.359L210.487 199.722C208.911 200.391 208.615 200.324 206.896 200.076L204.279 196.197C206.648 194.497 208.663 192.72 210.697 190.628L210.516 185.087L211.404 186.72L212.684 185.154L215.339 181.352Z" fill="#4D2809"/>
<path d="M204.279 196.198C206.648 194.498 208.663 192.721 210.697 190.629L210.487 199.723C208.911 200.392 208.615 200.325 206.896 200.077L204.279 196.198Z" fill="#8F4C0E"/>
<path d="M210.517 185.088L211.405 186.722L212.685 185.155C213.115 189.693 213.611 194.918 212.351 199.36L210.488 199.723L210.698 190.629L210.517 185.088Z" fill="#E4CBAF"/>
<path d="M190.077 185.383L193.248 184.943L196.705 185.679C196.753 190.551 196.285 196.054 197.126 200.83L194.423 203.419L189.619 202.235L188.988 202.636C186.591 201.824 187.814 198.05 185.865 195.882L184.079 196.398C183.64 198.442 183.115 200.381 182.465 202.359L180.383 203.371L177.298 202.598C177.671 200.362 177.327 198.155 177.098 195.92C178.874 193.484 178.922 189.72 179.361 186.787L180.889 185.555C183.449 186.042 182.456 190.417 184.691 192.424L186.591 192.213C186.964 190.14 187.403 188.134 187.938 186.09L190.077 185.383Z" fill="#713609"/>
<path d="M190.078 185.383L193.248 184.943L196.706 185.679C196.753 190.551 196.286 196.054 197.126 200.83L194.423 203.419L189.619 202.235C191.291 197.257 190.326 190.608 190.078 185.383Z" fill="#F2CF9C"/>
<path d="M193.249 184.943L196.706 185.679C196.754 190.551 196.286 196.054 197.126 200.83L194.423 203.419C192.742 197.735 193.335 190.857 193.249 184.943Z" fill="#713609"/>
<path d="M177.098 195.92C178.874 193.484 178.922 189.72 179.361 186.787C179.543 192.337 179.715 197.84 180.383 203.371L177.298 202.598C177.671 200.362 177.327 198.155 177.098 195.92Z" fill="#F2CF9C"/>
<path d="M204.844 187.226C204.844 187.341 204.844 187.446 204.853 187.561C205.14 189.414 205.178 190.255 206.639 191.43C206.993 188.755 206.802 185.918 208.616 183.883L210.517 185.087L210.698 190.627C208.664 192.719 206.649 194.496 204.28 196.197L203.411 194.382C202.962 196.646 202.533 198.91 202.131 201.183L200.613 201.929L199.839 201.537L197.127 200.83C196.286 196.053 196.754 190.551 196.707 185.679L199.725 184.408C202.475 184.895 202.79 185.287 204.844 187.226Z" fill="#6B3E0F"/>
<path d="M199.725 184.408C202.475 184.895 202.79 185.287 204.844 187.226C203.631 190.694 202.236 191.821 199.323 193.828L199.839 201.537L197.127 200.83C196.286 196.053 196.754 190.551 196.707 185.679L199.725 184.408Z" fill="#FAEACB"/>
<path d="M199.724 184.408C202.475 184.895 202.79 185.287 204.843 187.226C203.63 190.694 202.236 191.821 199.323 193.828C199.122 190.57 199.323 187.618 199.724 184.408Z" fill="#8F4C0E"/>
<path d="M158.589 181.781C161.636 182.412 165.542 182.641 167.758 184.982L167.93 187.035L164.005 187.055L160.595 187.398L157.615 185.125L157.09 183.405L158.589 181.781Z" fill="#6B3E0F"/>
<path d="M218.396 210.871C218.874 211.502 218.874 211.54 219.543 212.189C230.526 222.746 248.959 224.704 263.4 224.656C276.532 224.618 295.49 222.87 305.194 212.83L305.901 212.075C306.483 216.708 303.494 222.239 300.762 225.841C295.844 234.028 288.222 239.779 279.187 242.788C267.201 246.791 252.216 246.256 240.85 240.553C228.09 234.162 222.627 223.949 218.396 210.871Z" fill="#8F4C0E"/>
<path d="M160.347 148.232L161.502 147.42L162.496 147.726C178.952 152.751 196.63 151.833 213.105 147.573C213.879 148.127 214.146 148.069 214.385 149.034L211.615 154.776L211.51 158.406L212.427 162.886L213.038 169.736C196.64 173.032 183.546 172.898 167.042 170.72C162.104 169.201 155.934 168.408 153.25 163.584C152.334 157.938 157.271 152.617 160.347 148.232Z" fill="#EBAC51"/>
<path d="M160.346 148.232L161.501 147.42L162.495 147.726C178.951 152.751 196.629 151.833 213.104 147.573C213.878 148.127 214.145 148.069 214.384 149.034L211.614 154.776L211.509 158.406L209.045 156.763C204.403 156.237 199.819 157.069 195.225 157.69C187.451 157.728 179.896 157.661 172.227 156.228C170.288 155.416 168.082 155.034 166.086 154.327C162.418 153.037 161.912 151.518 160.346 148.232Z" fill="#E09E4D"/>
<path d="M160.347 148.232C161.913 151.519 162.419 153.038 166.087 154.327C168.083 155.034 170.289 155.416 172.228 156.228C172.333 158.502 172.6 160.652 171.827 162.839C169.449 165.399 168.312 167.53 167.042 170.72C162.104 169.202 155.934 168.409 153.25 163.584C152.334 157.938 157.271 152.617 160.347 148.232Z" fill="#F2C58E"/>
<path d="M172.228 156.227C179.897 157.66 187.452 157.726 195.226 157.688C189.104 161.595 175.121 158.089 167.672 158.414L168.799 158.873C177.442 162.341 186.525 162.169 195.226 164.958L195.035 165.751C187.623 166.926 179.085 164.328 171.827 162.837C172.6 160.65 172.333 158.5 172.228 156.227Z" fill="#F2BA6F"/>
<path d="M209.046 156.762L211.51 158.405L212.427 162.885C210.374 163.898 208.788 164.5 206.515 164.805L206.143 163.63C207.365 161.376 208.244 159.198 209.046 156.762Z" fill="#FAEACB"/>
<path d="M155.581 227.13L155.276 226.681C153.222 223.729 152.048 220.873 151.675 217.281C151.398 214.673 151.389 211.988 153.098 209.877C156.049 210.976 159.45 211.95 162.238 213.345C167.826 214.95 173.021 215.628 178.799 216.048C189.038 216.774 198.398 216 208.445 214.271C210.288 213.851 212.905 212.705 214.5 213.899C216.62 215.475 218.254 218.971 218.502 221.541C218.808 224.808 218.387 226.967 216.172 229.384C215.532 230.082 214.701 230.665 213.956 231.238C213.66 231.381 213.364 231.534 213.058 231.677C198.321 238.594 177.978 237.285 163.136 231.562C160.194 230.378 157.96 229.356 155.581 227.13Z" fill="#DF8027"/>
<path d="M178.798 216.048C189.037 216.774 198.397 216.001 208.444 214.271C208.425 217.233 208.874 221.293 206.553 223.481C200.775 228.926 191.511 230.206 183.899 229.757C179.62 229.509 173.278 229.107 169.754 226.385L176.01 222.162C177.165 220.691 176.726 219.917 176.564 218.093L179.305 217.443L178.798 216.048Z" fill="#E09E4D"/>
<path d="M162.237 213.346C167.824 214.951 173.02 215.629 178.798 216.049L179.304 217.444L176.563 218.094C176.725 219.918 177.165 220.692 176.009 222.163L169.753 226.386C167.872 225.163 166.238 223.443 164.586 221.905C163.822 221.303 162.848 219.975 162.428 219.106C161.358 216.89 161.587 215.619 162.237 213.346Z" fill="#F7B13C"/>
<path d="M164.588 221.904C166.536 221.331 167.262 221.589 169.105 222.22L174.998 220.414L176.011 222.162L169.755 226.385C167.873 225.162 166.24 223.442 164.588 221.904Z" fill="#F2BA6F"/>
<path d="M163.135 231.564C168.817 230.006 176.219 234.133 182.313 234.238C193.057 234.43 203.324 232.089 213.954 231.239C213.658 231.382 213.362 231.535 213.057 231.678C198.32 238.595 177.977 237.286 163.135 231.564Z" fill="#F2C58E"/>
<path d="M155.581 227.13L155.276 226.681C153.222 223.729 152.048 220.873 151.675 217.281C151.398 214.673 151.389 211.988 153.098 209.877C154.397 214.634 156.011 222.248 155.581 227.13Z" fill="#EBAC51"/>
<path d="M183.689 121.512C186.612 124.292 186.383 127.043 190.642 128.352L192.027 127.893C196.096 129.603 197.423 129.297 201.645 128.113L202.199 129.594L204.109 130.654C208.34 131.036 209.973 128.075 213.64 126.919C215.398 126.365 216.381 127.435 217.948 128.266C217.9 128.476 217.852 128.686 217.814 128.896C216.974 133.262 218.464 138.039 216.191 141.908C214.634 142.949 213.211 143.847 211.463 144.554L205.255 145.557C202.686 146.398 200.556 146.971 197.834 146.933C191.616 147.296 185.867 147.716 179.63 147.085L175.533 146.875L169.783 146.159L162.372 143.962C160.481 142.978 158.953 141.669 157.31 140.312L157.195 129.469C157.491 129.068 157.787 128.657 158.103 128.275C163.489 121.76 175.934 122.18 183.689 121.512Z" fill="#C26510"/>
<path d="M183.689 121.512C186.612 124.292 186.383 127.043 190.642 128.352C192.189 130.434 194.377 129.861 194.606 132.335C188.694 132.842 177.376 132.182 172.658 135.153C166.918 134.246 162.133 132.526 157.195 129.469C157.491 129.068 157.787 128.657 158.103 128.275C163.489 121.76 175.934 122.18 183.689 121.512Z" fill="#EBAC51"/>
<path d="M182.314 138.659C187.013 138.477 194.148 137.188 198.321 139.547C199.324 141.697 199.381 142.738 198.656 145.059C198.379 145.938 198.216 146.187 197.834 146.932C191.617 147.295 185.867 147.715 179.63 147.085L175.533 146.875L176.374 138.2L182.314 138.659Z" fill="#E48E33"/>
<path d="M182.313 138.659C187.012 138.477 194.146 137.188 198.32 139.547C199.323 141.697 199.38 142.738 198.654 145.059C198.377 145.938 198.215 146.187 197.833 146.932C191.615 147.295 185.866 147.715 179.629 147.085C183.602 146.97 187.642 147.352 190.994 144.907C192.475 143.818 192.341 143.77 192.589 141.964C189.61 138.735 186.477 139.041 182.313 138.659Z" fill="#E89A2C"/>
<path d="M202.199 129.593L204.109 130.654C208.34 131.036 209.973 128.074 213.641 126.918C215.398 126.364 216.382 127.434 217.948 128.265C214.529 132.889 206.115 134.742 200.69 135.554C191.273 136.959 182.056 136.347 172.658 135.153C177.376 132.182 188.694 132.841 194.606 132.335C194.377 129.861 192.19 130.434 190.642 128.351L192.027 127.893C196.096 129.603 197.423 129.297 201.645 128.112L202.199 129.593Z" fill="#F2BA6F"/>
<path d="M169.783 146.158L170.289 139.251C172.476 137.36 173.556 138.01 176.373 138.201L175.533 146.875L169.783 146.158Z" fill="#E89A2C"/>
<path d="M157.309 140.313C157.757 137.523 157.452 135.899 159.83 134.084C161.74 135.144 162.533 136.109 162.934 138.392C163.211 140.007 163.077 142.462 162.371 143.962C160.479 142.978 158.951 141.669 157.309 140.313Z" fill="#C8761D"/>
<path d="M205.254 145.556C205.617 143.454 205.884 141.2 206.629 139.193C207.26 137.503 207.346 137.245 208.95 136.471C210.965 138.754 211.023 141.649 211.462 144.553L205.254 145.556Z" fill="#DF8027"/>
<path d="M243.906 216.909C252.97 221.389 278.709 218.37 288.203 215.399C291.24 214.444 295.671 212.715 296.989 209.61C298.451 206.162 288.422 202.063 287.056 198.939C289.158 199.847 292.462 199.723 294.754 199.685C294.888 199.685 295.012 199.646 295.146 199.656C297.887 200.009 299.826 201.013 301.64 203.047C302.376 204.987 303.006 206.716 302.156 208.741C300.351 213.002 294.296 216.584 290.036 217.979C273.743 223.319 244.775 223.959 229.475 215.38C226.944 213.957 224.222 211.597 223.611 208.607C222.971 205.474 224.47 203.792 225.97 201.261C228.396 201.748 230.974 202.054 233.152 203.277L229.943 206.639C235.864 209.266 240.859 210.699 243.906 216.909Z" fill="#713609"/>
<path d="M243.906 216.908C240.535 216.029 237.115 214.902 233.906 213.565C231.223 212.457 229.742 211.358 228.615 208.693L229.943 206.639C235.864 209.266 240.859 210.699 243.906 216.908Z" fill="#F7B13C"/>
<path d="M186.622 120.661C188.245 117.566 189.477 114.671 192.438 112.627C193.794 113.468 194.51 114.433 195.494 115.665C197.681 116.248 198.073 116.62 200.203 115.445C200.986 115.006 201.779 114.327 202.495 113.792L204.539 114.098C206.497 117.041 205.866 121.091 205.131 124.473C204.682 126.555 203.584 128.007 202.199 129.593L201.645 128.113C197.424 129.297 196.096 129.603 192.027 127.893L190.642 128.351C186.383 127.043 186.612 124.291 183.689 121.511L186.622 120.661Z" fill="#9F540F"/>
<path d="M183.689 121.512L186.622 120.662L189.076 122.601L193.345 121.961L193.871 124.063L192.027 127.894L190.642 128.352C186.383 127.044 186.612 124.292 183.689 121.512Z" fill="#4D2809"/>
<path d="M193.871 124.062C194.129 124.119 194.396 124.195 194.663 124.224C196.258 124.387 197.643 123.871 199.143 123.412C201.139 124.816 201.005 125.819 201.645 128.112C197.424 129.297 196.096 129.602 192.027 127.892L193.871 124.062Z" fill="#713609"/>
<path d="M214.385 149.033C217.489 153.256 222.522 158.806 221.548 164.509C221.366 165.589 221.328 165.579 220.984 166.458L213.038 169.735L212.427 162.885L211.51 158.405L211.615 154.775L214.385 149.033Z" fill="#E09E4D"/>
<path d="M214.385 149.033C217.489 153.256 222.522 158.806 221.548 164.509C221.367 165.589 221.328 165.579 220.985 166.458C220.354 165.78 220.001 165.226 219.638 164.356C217.518 159.303 216.438 157.306 211.615 154.775L214.385 149.033Z" fill="#F2C58E"/>
<path d="M225.971 201.26C229.247 199.35 233.831 196.054 237.785 197.057C238.979 197.363 238.673 197.105 239.151 197.859L238.74 200.315C237.04 201.308 235.034 202.798 233.153 203.276C230.975 202.053 228.397 201.748 225.971 201.26Z" fill="#7B3909"/>
<path d="M259.102 192.74C262.807 193.294 268.012 193.571 271.317 195.243C273.619 196.409 273.533 197.354 274.335 199.695C270.753 199.494 267.697 198.606 264.841 196.361C263.008 194.918 261.155 193.848 259.102 192.74Z" fill="#F8DCB5"/>
<path d="M259.703 185.795L264.192 186.827C265.883 189.072 265.396 189.721 265.147 192.444C262.569 191.212 260.305 190.648 258.758 188.164L259.703 185.795Z" fill="#F8DCB5"/>
<path d="M208.873 118.034C209.79 117.404 211.022 117.557 211.758 118.388C212.483 119.228 212.464 120.47 211.719 121.292C211.156 121.903 210.287 122.142 209.485 121.903C208.692 121.655 208.1 120.986 207.966 120.155C207.842 119.333 208.195 118.512 208.873 118.034Z" fill="#B35D0C"/>
<path d="M251.126 0.243453C279.272 -2.48874 304.314 18.0887 307.103 46.2322C309.892 74.3756 289.377 99.4716 261.24 102.318C233.027 105.175 207.851 84.5783 205.053 56.3489C202.254 28.1194 222.903 2.9852 251.126 0.243453Z" fill="#DC4E29"/>
<path d="M225.138 23.8594C230.773 30.4797 257.811 56.2254 258.652 62.3393L255.605 64.8709C256.274 66.6956 256.531 66.581 258.289 67.498C259.55 66.9153 260.887 66.2179 262.281 66.1319C264.803 65.9791 266.646 68.4343 268.46 70.0392L269.244 72.0262C273.532 74.8253 277.572 80.1273 281.182 83.853C276.244 87.913 271.182 90.6834 264.955 92.2979C255.109 94.8486 244.946 93.1577 236.255 87.9513C226.342 81.9519 219.274 72.2077 216.628 60.9255C213.381 46.9493 217.985 35.5715 225.138 23.8594Z" fill="#F8F3EF"/>
<path d="M268.462 70.0391L269.246 72.0261C267.985 74.1182 267.899 74.2806 265.53 75.3218L263.295 74.3093L262.799 72.179C264.671 69.9435 265.654 70.3543 268.462 70.0391Z" fill="#E89A2C"/>
<path d="M249.542 70.7942C248.539 70.9375 247.909 70.9567 246.973 70.5173C244.872 69.5429 244.91 69.3422 244.127 67.1067C244.413 65.7311 244.729 64.6994 245.474 63.4766C247.403 60.3432 249.58 57.7447 253.219 56.9805L253.726 58.4804C252.169 62.5404 252.159 65.2439 251.949 69.5141L249.542 70.7942Z" fill="#F7B13C"/>
<path d="M242.607 58.1355C240.296 58.6132 239.016 60.6863 237.44 62.3772C236.141 62.6829 235.062 63.0363 233.734 62.6924C231.748 62.1765 231.633 61.8804 230.611 60.1131C231.309 57.8968 231.958 57.1707 233.82 55.8046C235.673 55.7282 237.335 55.5658 239.15 55.2123L239.465 51.7637C240.258 54.2093 240.773 56.2631 242.607 58.1355Z" fill="#F8F4ED"/>
<path d="M249.541 70.7938L251.948 69.5137L254.097 70.8989C255.911 70.364 257.86 71.195 258.738 72.8764C259.608 74.5577 259.168 76.6308 257.678 77.8154C256.198 78.9904 254.087 78.9521 252.635 77.7198C251.193 76.497 250.83 74.4144 251.757 72.7522L249.541 70.7938Z" fill="#EBAC51"/>
<path d="M249.541 70.7938L251.948 69.5137L254.097 70.8989C253.103 71.1951 252.263 71.8542 251.757 72.7522L249.541 70.7938Z" fill="#F8F4ED"/>
<path d="M239.465 51.765C241.662 49.8544 241.977 49.2048 244.976 48.9277C246.953 50.7046 246.8 50.9052 247.163 53.3985C246.475 55.2805 246.313 56.9905 244.278 57.8503C243.82 58.0414 243.113 58.0795 242.607 58.1368C240.773 56.2644 240.258 54.2106 239.465 51.765Z" fill="#E09E4D"/>
<path d="M235.749 43.6543C236.742 44.6478 237.526 46.0139 238.337 47.1698C238.07 50.1886 237.268 50.7236 235.415 53.045C233.524 52.0228 232.617 51.4688 231.633 49.5199C232.301 46.6922 233.791 45.6605 235.749 43.6543Z" fill="#EBAC51"/>
<path d="M236.236 66.3989C237.783 65.3385 239.875 65.6729 241.021 67.1441C242.177 68.6248 241.976 70.736 240.572 71.9779C239.588 72.8472 238.194 73.0957 236.971 72.6276C235.739 72.1594 234.87 71.0417 234.717 69.7329C234.565 68.4242 235.147 67.1345 236.236 66.3989Z" fill="#F7B13C"/>
<path d="M231.051 17.6696C242.378 11.0111 253.237 7.1516 266.455 10.7436C277.009 13.6095 285.796 20.9273 291.135 30.3944C296.731 40.3201 298.088 52.08 294.898 63.0087C293.226 68.7406 290.523 73.5362 286.913 78.2555L276.57 66.037L272.253 61.9388L261.183 49.8636L254.947 43.1765L250.687 38.8967L248.49 36.5944C242.817 30.1556 237.01 23.8409 231.051 17.6696Z" fill="#F8F3EF"/>
<path d="M248.49 36.5944C251.661 32.9355 251.948 26.5349 254.861 23.7932C256.007 22.7232 257.602 23.1054 259.111 23.0863C260.667 25.5128 261.546 26.2865 261.537 29.2289C260.276 30.786 259.063 32.3241 257.602 33.7093C259.942 33.5087 263.046 32.8973 265.004 34.4067C266.427 35.5053 267.592 37.3969 268.652 38.868C268.986 41.371 269.416 43.8356 269.254 46.3576L269.779 47.5231L266.694 51.4398L264.994 49.663L261.183 49.8637L254.947 43.1765L250.687 38.8967L248.49 36.5944Z" fill="#F8F4ED"/>
<path d="M269.255 46.3568C266.581 47.465 265.578 48.3247 262.617 47.5031L261.566 45.4874C261.777 44.5512 261.948 43.5578 262.407 42.698C263.668 40.3575 266.304 39.5932 268.653 38.8672C268.987 41.3701 269.417 43.8348 269.255 46.3568Z" fill="#EBAC51"/>
<path d="M257.602 33.709C255.883 31.4736 254.899 29.9546 254.66 27.1173C256.035 24.4998 256.427 24.4043 259.111 23.0859C260.668 25.5124 261.546 26.2862 261.537 29.2285C260.276 30.7857 259.063 32.3238 257.602 33.709Z" fill="#EBAC51"/>
<path d="M250.688 38.8958C252.703 37.0042 252.961 36.431 255.778 36.0488C257.363 37.692 257.153 37.7589 257.182 40.0708L254.947 43.1755L250.688 38.8958Z" fill="#E09E4D"/>
<path d="M274.765 60.8402C273.972 59.1493 274.478 57.1336 275.978 56.0063C277.467 54.8886 279.55 54.9651 280.944 56.207C282.348 57.4394 282.692 59.4932 281.775 61.1172C280.849 62.7412 278.91 63.4959 277.133 62.9228C276.092 62.5884 275.233 61.8338 274.765 60.8402Z" fill="#EBAC51"/>
<path d="M269.78 47.5215C272.015 49.7187 272.54 49.8907 272.913 52.9477L271.643 54.8296L269.57 55.1544C267.813 53.8265 267.574 53.4635 266.695 51.4382L269.78 47.5215Z" fill="#F7B13C"/>
<path d="M274.764 60.8398C275.232 61.8334 276.091 62.588 277.133 62.9224L276.569 66.0367L272.252 61.9385L274.764 60.8398Z" fill="#F8F4ED"/>
<path d="M273.982 41.6562C276.838 41.8378 279.054 41.7996 281.432 43.6434C282.483 46.3373 282.282 47.0825 281.814 49.9867C278.911 50.7031 278.118 50.6171 275.635 49.1745C274.135 46.6334 274.059 44.5604 273.982 41.6562Z" fill="#EBAC51"/>
<path d="M267.945 28.8555C270.066 29.0847 271.231 29.6006 273.036 30.7183C274.755 33.0492 274.803 34.7974 274.975 37.6347C272.816 38.036 272.024 37.7589 270.008 36.8991C268.108 34.6064 268.222 31.7023 267.945 28.8555Z" fill="#EBAC51"/>
<path d="M84.82 72.8712C86.2335 71.9828 88.0883 72.3009 89.1255 73.6078C90.1637 74.9156 90.0519 76.7947 88.8667 77.9707C87.9746 78.8553 86.6557 79.1514 85.4714 78.733C84.2861 78.3146 83.4456 77.2551 83.3071 76.0066C83.1687 74.758 83.756 73.54 84.82 72.8712Z" fill="#F8F3EF"/>
<path d="M154.458 67.7524C155.537 67.0743 156.953 67.3171 157.745 68.3145C158.538 69.3127 158.452 70.747 157.547 71.6445C156.866 72.3197 155.859 72.5457 154.955 72.2264C154.05 71.907 153.408 71.0984 153.302 70.1454C153.197 69.1924 153.645 68.2628 154.458 67.7524Z" fill="#F8F3EF"/>
</svg>
