<svg width="259" height="326" viewBox="0 0 259 326" fill="none" xmlns="http://www.w3.org/2000/svg">
<path d="M55.5694 57.032C52.8856 50.8158 51.281 45.2072 53.6018 38.4713C55.2255 33.7339 58.4059 29.7406 63.038 27.6686C66.5623 26.0961 70.4208 25.9834 73.9642 27.5578C79.112 29.8429 81.3947 33.9574 83.5054 38.8372C98.7293 34.6366 112.167 34.9146 127.458 38.4206C129.75 33.8724 132.52 29.5238 137.563 27.7374C141.049 26.4783 144.898 26.7907 148.135 28.5953C152.004 30.7466 154.515 34.4465 155.814 38.605C157.801 45.0046 156.158 49.9608 153.274 55.6191C157.572 61.0873 160.972 66.8908 164.439 72.8987C165.04 74.2983 165.575 75.8593 166.387 77.1451C177.122 100.767 189.223 131.862 179.605 157.425C178.316 160.853 176.559 164.084 174.801 167.288C176.731 168.266 178.583 168.135 180.694 167.456C182.079 167.015 182.776 166.126 183.235 164.816C183.722 163.417 183.932 162.078 184.171 160.623C184.533 158.42 185.068 157.058 186.367 155.263C188.306 154.344 190.082 155.099 191.324 154.549C194.734 153.031 195.622 140.759 201.276 142.756C202.747 143.274 203.692 144.246 204.8 145.28C206.94 145.061 208.028 144.171 209.671 142.935C212.689 143.017 214.58 144.236 216.681 146.384C220.33 150.111 220.588 155.051 225.363 157.498C228.104 165.527 223.845 176.835 220.311 184.023C212.938 198.996 201.228 210.372 186.023 217.045C194.848 232.067 192.203 251.609 212.279 258.061C213.205 258.358 213.492 258.299 214.351 258.285C212.661 252.828 197.952 241.989 200.961 229.208L202.432 228.053C208.028 228.962 211.677 234.732 215.106 238.851C213.081 234.47 207.685 225.611 209.547 220.821C209.681 220.476 209.843 220.145 209.996 219.807C211.782 219.131 212.174 219.228 213.969 220.009C220.998 223.063 230.263 232.843 232.832 240.097C236.146 249.431 230.626 260.016 232.469 269.262C234.255 278.25 247.492 271.046 244.369 300.599C245.945 302.777 246.27 304.008 246.165 306.691C244.13 312.233 238.954 314.595 233.902 316.895C232.746 317.416 231.581 317.901 230.406 318.351C223.988 320.044 216.958 322.587 210.263 322.012L207.952 322.407C185.278 327.958 151.478 324.253 129.445 317.051C125.376 315.966 122.635 314.122 119.263 311.664C115.166 311.798 111.059 311.611 106.962 311.511C107.564 312.196 108.328 312.977 108.729 313.803C109.703 315.812 108.93 316.938 108.099 318.736C103.6 322.837 96.4084 323.957 90.592 324.739C71.309 327.332 26.8501 322.775 11.5784 310.324C9.15251 308.341 8.17831 306.678 7.85358 303.591C8.56034 300.683 9.72557 299.653 11.9509 297.725C9.43905 295.468 6.33499 294.115 3.89954 291.579C1.86523 289.454 -0.17859 286.62 0.0124259 283.523C0.346703 278.002 5.55191 274.104 9.47728 270.9L9.34356 270.065C-5.24049 239.022 6.50692 203.377 17.2898 173.14C33.3637 134.712 29.1424 91.6162 55.5694 57.032Z" fill="#DF8027"/>
<path d="M55.5694 57.032C52.8856 50.8158 51.281 45.2072 53.6018 38.4713C55.2255 33.7339 58.4059 29.7406 63.038 27.6686C66.5623 26.0961 70.4208 25.9834 73.9642 27.5578C79.112 29.8429 81.3947 33.9574 83.5054 38.8372C98.7293 34.6366 112.167 34.9146 127.458 38.4206C129.75 33.8724 132.52 29.5238 137.563 27.7374C141.049 26.4783 144.898 26.7907 148.135 28.5953C152.004 30.7466 154.515 34.4465 155.814 38.605C157.801 45.0046 156.158 49.9608 153.274 55.6191C157.572 61.0873 160.972 66.8908 164.439 72.8987C165.04 74.2983 165.575 75.8593 166.387 77.1451C177.122 100.767 189.223 131.862 179.605 157.425C178.316 160.853 176.559 164.084 174.801 167.288C176.731 168.266 178.583 168.135 180.694 167.456C182.079 167.015 182.776 166.126 183.235 164.816C183.722 163.417 183.932 162.078 184.171 160.623C184.533 158.42 185.068 157.058 186.367 155.263C188.306 154.344 190.082 155.099 191.324 154.549C194.734 153.031 195.622 140.759 201.276 142.756C202.747 143.274 203.692 144.246 204.8 145.28C206.94 145.061 208.028 144.171 209.671 142.935C212.689 143.017 214.58 144.236 216.681 146.384C220.33 150.111 220.588 155.051 225.363 157.498C228.104 165.527 223.845 176.835 220.311 184.023C212.938 198.996 201.228 210.372 186.023 217.045C194.848 232.067 192.203 251.609 212.279 258.061C213.205 258.358 213.492 258.299 214.351 258.285C212.661 252.828 197.952 241.989 200.961 229.208L202.432 228.053C208.028 228.962 211.677 234.732 215.106 238.851C213.081 234.47 207.685 225.611 209.547 220.821C209.681 220.476 209.843 220.145 209.996 219.807C211.782 219.131 212.174 219.228 213.969 220.009C220.998 223.063 230.263 232.843 232.832 240.097C236.146 249.431 230.626 260.016 232.469 269.262C234.255 278.25 247.492 271.046 244.369 300.599C245.945 302.777 246.27 304.008 246.165 306.691C244.13 312.233 238.954 314.595 233.902 316.895C232.746 317.416 231.581 317.901 230.406 318.351C223.988 320.044 216.958 322.587 210.263 322.012L207.952 322.407C185.278 327.958 151.478 324.253 129.445 317.051C125.376 315.966 122.635 314.122 119.263 311.664C115.166 311.798 111.059 311.611 106.962 311.511C107.564 312.196 108.328 312.977 108.729 313.803C109.703 315.812 108.93 316.938 108.099 318.736C103.6 322.837 96.4084 323.957 90.592 324.739C71.309 327.332 26.8501 322.775 11.5784 310.324C9.15251 308.341 8.17831 306.678 7.85358 303.591C8.56034 300.683 9.72557 299.653 11.9509 297.725C9.43905 295.468 6.33499 294.115 3.89954 291.579C1.86523 289.454 -0.17859 286.62 0.0124259 283.523C0.346703 278.002 5.55191 274.104 9.47728 270.9L9.34356 270.065C11.0627 269.093 11.397 268.419 12.2279 266.716C14.9594 260.67 19.0185 255.342 22.8675 249.97C30.7373 242.55 39.1706 237.633 49.6382 234.854C52.408 233.567 56.0087 233.559 59.0363 233.234C48.4349 225.676 41.5297 218.367 37.9768 205.653C41.4151 210.793 44.7196 215.974 48.9411 220.524L53.898 221.005C54.4233 221.478 55.2542 222.376 55.9132 222.709C58.9408 224.232 67.6893 214.207 71.204 212.316C74.1934 210.712 77.6985 210.144 81.0031 209.524C77.9564 204.726 74.0692 199.856 74.3652 193.91L75.6069 193.535C78.9497 196.888 79.8855 201.446 82.4452 205.314C86.2655 211.076 95.3865 218.309 95.4248 225.603C95.4248 228.178 94.3646 230.641 92.5022 232.415C90.9167 233.894 88.9493 234.928 87.2779 236.324C92.3589 238.897 97.6214 241.279 102.55 244.128C108.891 242.72 115.147 246.279 120.944 248.584C124.65 245.737 127.706 245.025 131.804 243.043L132.95 242.479C133.37 240.953 133.876 239.456 134.487 237.999C137.868 229.809 145.175 223.415 153.274 220.057C156.521 218.708 159.109 218.142 162.433 219.547C163.016 222.004 162.357 222.46 161.239 224.652L163.875 225.652C165.27 226.492 166.148 226.631 166.597 228.272C168.078 233.584 164.725 240.721 162.032 245.194C160.437 247.845 158.374 250.054 155.728 251.672L160.198 251.307C166.731 249.99 168.097 248.726 172.175 243.585C177.571 241.477 181.238 246.773 187.074 246.351C187.867 245.849 188.917 245.49 189.271 244.595C192.231 237.01 186.243 225.398 183.149 218.445C181.067 218.549 178.832 218.781 176.75 218.631C173.369 218.39 172.891 217.659 170.637 215.315L170.618 214.361C172.996 211.47 172.71 209.51 172.557 205.997L174.954 206.777C184.906 204.573 190.598 200.817 197.36 193.156C194.266 191.794 191.897 189.755 189.758 187.171C187.045 183.893 184.486 179.687 184.877 175.3C184.199 174.032 183.655 172.077 182.232 171.68C177.896 170.462 171.096 172.233 167.419 174.634C166.234 175.407 165.126 176.28 164.038 177.171C163.589 171.64 169.663 167.177 172.375 162.54L172.824 161.748C176.406 155.934 178.402 149.691 179.281 142.918C182.623 116.915 163.465 75.458 147.744 54.7918L143.962 51.6498C141.956 50.3658 139.54 49.1105 137.429 47.9384L131.622 44.1907C119.961 39.8393 90.9646 35.1219 82.5503 45.8902C76.6861 39.652 77.2687 20.6948 58.3104 35.632C50.6985 41.6247 61.5195 55.4165 60.6981 59.4623C60.1728 59.7154 56.0469 61.7273 55.8941 61.97C33.8986 95.6657 35.1689 136.484 21.282 173.743L17.2898 173.14C33.3637 134.712 29.1424 91.6162 55.5694 57.032Z" fill="#662B09"/>
<path d="M184.878 175.299C185.088 174.953 185.308 174.614 185.508 174.262C188.192 169.405 183.837 162.161 188.784 157.87C191.019 159.614 190.962 164.003 193.273 164.641C196.09 159.583 195.479 149.154 199.987 145.812L201.267 146.622C201.735 150.26 201.974 153.851 202.136 157.514L203.043 157.935C206.071 154.475 205.421 150.327 208.793 146.983L210.359 147.197C212.05 151.357 208.707 155.528 210.627 159.289L211.868 159.011C213.234 156.399 214.609 152.729 216.988 150.949C218.697 153.361 217.981 156.911 217.494 159.736C216.987 162.572 216.443 165.4 215.87 168.222C217.436 165.689 219.499 161.033 222.164 159.717C224.065 165.55 220.875 173.834 218.258 179.023C215.832 183.816 213.158 188.388 209.643 192.452C208.783 193.444 209.118 192.95 208.516 194.152C204.514 194.326 201.248 194.112 197.361 193.155C194.266 191.793 191.898 189.754 189.758 187.17C187.046 183.892 184.486 179.686 184.878 175.299Z" fill="#9F540F"/>
<path d="M201.506 165.217C203.12 165.61 204.973 165.991 206.348 166.951C208.402 168.38 209.71 171.03 209.891 173.486C210.264 178.519 208.239 181.415 205.011 184.855C203.368 184.144 201.687 183.424 200.264 182.326C198.249 180.774 196.75 178.893 196.463 176.302C195.947 171.778 198.813 168.437 201.506 165.217Z" fill="#7B3909"/>
<path d="M130.037 315.919C135.93 310.402 129.98 298.246 140.085 294.797L141.269 295.467C139.76 304.714 137.764 307.26 143.829 315.575C145.194 317.445 146.589 318.907 148.633 320.045L150.992 320.329L152.224 319.318C151.918 314.16 146.417 308.412 150.228 304.106C157.181 303.172 171.755 314.387 188.717 312.145C195.527 311.245 204.056 306.905 210.493 304.342C211.601 305.599 212.27 306.031 212.212 307.823C212.06 313.249 206.778 316.653 207.953 322.406C185.279 327.958 151.479 324.252 129.445 317.05L130.037 315.919Z" fill="#E4CBAF"/>
<path d="M14.5315 298.574C28.5902 315.675 40.1276 315.613 60.4708 318.67C66.1535 319.523 71.7406 321.624 77.452 322.095C86.4202 322.835 94.7389 320.001 101.453 314.077C102.723 312.949 103.917 311.883 105.34 310.931L106.964 311.511C107.566 312.196 108.33 312.977 108.731 313.803C109.705 315.812 108.931 316.938 108.101 318.736C103.602 322.837 96.4103 323.957 90.5939 324.739C71.3109 327.332 26.852 322.775 11.5803 310.324C9.1544 308.341 8.1802 306.678 7.85547 303.591C8.56223 300.683 9.72746 299.653 11.9528 297.725L14.5315 298.574Z" fill="#E4CBAF"/>
<path d="M53.8983 221.005C54.4236 221.478 55.2545 222.376 55.9135 222.709C58.9411 224.232 67.6896 214.207 71.2043 212.316C74.1937 210.712 77.6989 210.144 81.0034 209.523C85.0816 214.599 90.7643 220.308 91.366 227.051L90.5351 229.548L89.2458 230.092C87.1924 228.372 85.6356 226.475 83.9737 224.394L82.7894 224.553C81.8917 228.46 84.604 230.342 83.2287 234.064L81.5095 235.006C78.3005 233.851 77.0303 231.296 75.2156 228.589L73.7352 228.178C72.1211 231.054 72.102 231.8 69.084 232.968C62.3507 231.902 53.8887 225.209 48.9414 220.524L53.8983 221.005Z" fill="#9F540F"/>
<path d="M117.125 262.005C119.36 264.504 121.003 267.316 122.741 270.167C123.257 273.928 123.925 277.724 123.82 281.528C122.206 285.291 120.21 287.823 117.507 290.859C115.865 287.927 113.677 285.509 112.293 282.415C105.445 279.05 98.8928 277.689 93 272.462C93.9169 269.904 94.8529 267.423 96.8777 265.517C101.978 260.712 110.631 261.937 117.125 262.005Z" fill="#F8DCB5"/>
<path d="M122.741 270.166C123.257 273.927 123.925 277.723 123.82 281.528C122.206 285.291 120.21 287.822 117.507 290.858C115.864 287.926 113.677 285.508 112.292 282.414C111.729 279.095 111.175 279.053 108.529 276.881C109.446 276.461 110.048 275.55 110.067 274.538C111.5 275.177 112.923 275.798 114.298 276.542L114.928 276.629C117.058 274.425 118.29 274.064 121.175 273.315L122.741 270.166Z" fill="#E4CBAF"/>
<path d="M114.298 276.541L114.929 276.628C117.058 278.7 118.558 279.402 119.188 282.409L117.593 282.948C115.1 281.691 114.862 281.406 113.486 278.968L114.298 276.541Z" fill="#8F4C0E"/>
<path d="M108.529 276.882C107.459 277.369 106.199 277.09 105.435 276.198C104.671 275.305 104.585 274.014 105.234 273.033C105.874 272.051 107.096 271.616 108.214 271.965C109.341 272.314 110.095 273.363 110.067 274.538C110.048 275.551 109.446 276.462 108.529 276.882Z" fill="#E09E4D"/>
<path d="M131.623 44.1899C132.645 41.7624 132.416 42.0366 132.54 39.4764C132.989 29.9481 144.87 27.0955 149.96 35.2777C154.526 42.6308 153.427 49.0935 147.745 54.791L143.963 51.6489C141.957 50.365 139.541 49.1097 137.43 47.9375L131.623 44.1899Z" fill="#C26510"/>
<path d="M137.43 47.9374C138.805 44.5785 139.426 42.3727 142.11 39.8459L143.924 39.502L145.806 41.17L145.548 42.9344L142.702 44.1944C142.759 49.7677 145.328 44.8832 143.962 51.6488C141.957 50.3648 139.54 49.1095 137.43 47.9374Z" fill="#4D2809"/>
<path d="M197.361 193.156C201.248 194.113 204.515 194.327 208.517 194.154C205.737 201.327 197.724 207.098 190.934 210.133C186.015 212.331 181.211 213.921 175.872 214.589C174.153 214.803 172.31 214.933 170.638 215.315L170.619 214.361C172.997 211.471 172.711 209.51 172.558 205.997L174.955 206.777C184.907 204.573 190.599 200.817 197.361 193.156Z" fill="#C26510"/>
<path d="M117.021 302.406C118.759 302.87 118.969 302.723 120.688 302.119C122.217 299.441 121.815 296.872 121.691 293.906L124.308 299.329C125.063 306.004 125.98 310.426 130.039 315.92L129.447 317.051C125.378 315.966 122.637 314.122 119.265 311.664C115.168 311.798 111.061 311.611 106.964 311.511L105.34 310.931L106.448 305.589C105.359 302.525 104.022 301.789 101.558 299.794L101.453 297.06C105.837 294.56 109.285 298.08 114.032 296.144C114.366 296.009 114.7 295.897 115.025 295.76C115.235 295.675 115.426 295.57 115.627 295.476C116.744 297.659 116.792 300.007 117.021 302.406Z" fill="#E4CBAF"/>
<path d="M120.946 248.584C124.651 245.737 127.708 245.024 131.805 243.042L132.951 242.479C133.533 247.047 135.033 251.231 132.578 255.248C128.118 255.471 124.833 256.385 120.688 258.026C119.99 258.302 120.287 258.213 119.589 258.344C114.47 252.776 108.816 248.327 102.551 244.127C108.892 242.719 115.148 246.279 120.946 248.584Z" fill="#CE6F17"/>
<path d="M116.514 291.986C114.843 292.559 113.076 293.18 111.28 293.193C107.259 293.222 102.322 291.225 99.4563 288.443C94.4613 283.584 93.2197 279.253 93 272.461C98.8928 277.687 105.445 279.049 112.293 282.413C113.677 285.508 115.865 287.926 117.507 290.857L116.514 291.986Z" fill="#F2CF9C"/>
<path d="M230.397 316.644C232.918 313.361 234.685 310.03 235.784 306.014C238.467 296.1 232.746 292.532 228.42 285.038L229.165 283.399L230.101 283.371C237.856 286.854 236.5 295.43 241.676 300.834L244.37 300.598C245.946 302.776 246.27 304.007 246.165 306.69C244.131 312.232 238.954 314.594 233.902 316.894C232.746 317.415 231.581 317.9 230.406 318.35L230.397 316.644Z" fill="#E5D5C2"/>
<path d="M81.9877 289.863C84.767 287.646 85.6267 286.43 89.4661 286.862C92.4937 287.203 97.1448 291.204 98.9499 293.606C99.3224 294.101 99.5994 294.723 99.8954 295.248C100.411 296.146 100.574 296.548 101.452 297.06L101.557 299.794C91.9492 297.264 84.9771 300.914 75.8848 300.093C76.1331 298.311 80.5169 295.938 82.026 294.32L81.6152 291.934L81.9877 289.863Z" fill="#F2C58E"/>
<path d="M9.47728 270.9C10.8812 272.911 10.48 289.558 14.5296 298.574L11.9509 297.725C9.43905 295.468 6.33499 294.114 3.89954 291.579C1.86523 289.453 -0.17859 286.62 0.0124259 283.523C0.346703 278.002 5.55191 274.104 9.47728 270.9Z" fill="#E4CBAF"/>
<path d="M210.264 322.011C226.92 310.261 217.36 308.654 220.254 296.637C220.311 296.377 220.387 296.121 220.454 295.863L220.091 296.183L221.763 296.191C230.492 303.128 224.857 310.902 230.005 316.282C230.129 316.41 230.263 316.523 230.397 316.643L230.406 318.349C223.988 320.042 216.959 322.585 210.264 322.011Z" fill="#E4CBAF"/>
<path d="M130.496 278.679C132.846 277.406 133.399 277.118 136.102 277.89C136.78 278.082 137.42 278.362 138.079 278.6C140.037 279.301 140.897 279.248 142.883 278.736C140.591 279.85 138.299 281.109 135.94 282.065C129.216 284.185 126.093 288.659 121.69 293.905C121.814 296.87 122.215 299.44 120.687 302.118C118.968 302.722 118.758 302.869 117.02 302.404C117.173 298.785 117.249 295.56 116.514 291.986L117.507 290.858C120.21 287.822 122.206 285.29 123.82 281.527C125.616 281.432 127.316 281.203 129.083 280.883L130.496 278.679Z" fill="#713609"/>
<path d="M119.59 258.344C120.287 258.213 119.991 258.302 120.688 258.026C124.833 256.385 128.119 255.471 132.579 255.248C132.541 255.558 132.493 255.867 132.464 256.179C132.054 259.844 132.579 262.351 133.696 265.829C132.588 268.482 131.844 268.436 129.36 269.712C124.337 268.087 122.914 262.109 119.59 258.344Z" fill="#C26510"/>
<path d="M53.2969 288.165C67.5084 281.633 62.6757 291.787 74.7383 291.82L75.1968 293.625C71.7489 294.368 68.5398 296.203 65.3785 297.714C60.947 294.841 57.1363 291.787 53.2969 288.165Z" fill="#E4AD88"/>
<path d="M130.496 278.68L128.262 279.356L127.469 277.653C128.328 275.32 128.949 274.04 131.299 272.759C132.989 271.837 134.804 271.621 136.599 272.262C139.35 273.24 141.719 276.196 142.884 278.737C140.897 279.249 140.038 279.302 138.08 278.601C137.421 278.363 136.781 278.083 136.103 277.891C133.4 277.119 132.846 277.407 130.496 278.68Z" fill="#EA5127"/>
<path d="M74.739 291.818C74.5862 287.492 69.7345 288.947 68.3496 285.342L69.1518 283.554C71.1575 282.785 72.7143 283.393 74.6722 283.961C78.7313 285.138 79.8964 286.083 81.988 289.862L81.6155 291.932L80.2212 290.65C78.0149 291.155 76.8784 292.167 75.1974 293.624L74.739 291.818Z" fill="#F77830"/>
<path d="M135.939 282.066C135.557 283.414 135.805 283.548 134.573 284.346C128.585 288.214 125.854 292.369 124.306 299.329L121.689 293.907C126.092 288.661 129.215 284.186 135.939 282.066Z" fill="#F2CF9C"/>
<path d="M155.729 251.672L160.198 251.307C158.479 252.738 156.244 254.999 154.124 255.698C152.634 256.188 152.195 255.887 150.953 255.184C152.252 252.741 153.245 252.747 155.729 251.672Z" fill="#C26510"/>
<path d="M161.24 224.65L163.876 225.651C161.488 227.779 160.371 230.177 157.238 231.437C157.324 228.95 159.769 226.564 161.24 224.65Z" fill="#B35D0C"/>
<path d="M176.368 253.916C178.89 252.22 180.599 251.617 183.627 251.348C185.929 252.179 187.084 252.363 188.24 254.747C188.574 255.437 188.727 256.281 188.889 257.018L194.544 256.045L195.556 253.704C198.373 253.249 200.99 254.95 203.187 256.567C208.927 260.777 215.441 267.675 216.845 274.859C216.071 278.686 212.604 280.822 210.446 283.928C208.965 286.048 204.677 290.164 202.165 290.706C201.926 291.044 201.688 291.378 201.458 291.72C199.921 294.028 198.746 296.806 199.309 299.514L203.741 301.568L203.913 302.589C203.053 303.461 202.146 304.324 201.086 304.949C192.442 310.061 174.649 308.337 165.433 305.63C162.73 304.837 159.607 303.928 158.174 301.342C159.215 300.233 160.161 299.118 161.078 297.908C159.397 293.464 150.629 290.39 147.563 286.001C145.042 282.383 144.698 278.013 145.5 273.803L145.94 272.116C148.795 266.311 151.212 262.294 156.732 258.767C156.923 258.526 157.085 258.263 157.296 258.044C160.17 255.072 165.929 252.194 170.017 252.007C171.517 253.531 172.749 255.133 174.898 255.67L176.368 253.916Z" fill="#EA5127"/>
<path d="M145.5 273.803C148.891 279.374 151.899 284.576 157.324 288.438C159.358 289.646 161.441 291.122 163.742 291.737C165.022 292.334 166.311 292.888 167.658 293.323C178.393 296.798 192.079 295.688 202.165 290.705C201.926 291.043 201.688 291.378 201.458 291.72C199.921 294.028 198.746 296.806 199.309 299.513L203.741 301.568L203.913 302.588C203.053 303.46 202.146 304.323 201.086 304.949C192.442 310.061 174.649 308.336 165.433 305.63C162.73 304.837 159.607 303.928 158.174 301.342C159.215 300.232 160.161 299.118 161.078 297.907C159.397 293.463 150.629 290.39 147.563 286C145.042 282.382 144.698 278.013 145.5 273.803Z" fill="#C33C13"/>
<path d="M157.324 288.439C158.623 287.525 158.986 286.912 160.629 286.977C167.372 287.247 169.549 285.967 175.643 289.923L176.34 291.595C173.236 293.198 167.248 292.005 163.742 291.738C161.441 291.123 159.359 289.647 157.324 288.439Z" fill="#DF6313"/>
<path d="M176.369 253.916C178.891 252.22 180.6 251.617 183.628 251.348C185.929 252.179 187.085 252.363 188.241 254.747C188.575 255.437 188.728 256.281 188.89 257.018C187.878 258.267 187.735 258.91 187.61 260.506C186.837 258.203 186.76 257.513 184.869 255.884C181.689 255.774 179.043 255.901 176.369 253.916Z" fill="#F56D37"/>
<path d="M145.939 272.115C148.795 266.31 151.211 262.293 156.732 258.766C156.178 260.547 155.748 261.208 154.497 262.576C151.546 265.803 151.737 272.831 147.916 274.558L145.939 272.115Z" fill="#F56D37"/>
<path d="M194.543 256.045C195.059 258.828 195.135 258.866 193.645 261.258C191.458 262.036 191.162 262.163 188.784 261.62L187.609 260.506C187.734 258.91 187.877 258.267 188.889 257.018L194.543 256.045Z" fill="#F9AD68"/>
<path d="M165.919 256.647C167.61 256.452 169.463 256.126 171.143 256.506C172.758 256.871 173.063 257.002 173.818 258.362C172.929 259.984 171.258 260.452 169.644 261.171C166.912 261.285 164.191 261.37 161.459 261.428C161.736 259.402 164.315 257.958 165.919 256.647Z" fill="#E4AD88"/>
<path d="M25.3891 270.874C32.0269 276.155 38.0153 272.013 45.2739 280.363C45.4745 282.017 45.7992 283.742 45.8278 285.403C46.9548 290.537 55.1016 292.876 58.1292 297.26L59.8197 299.101C58.75 302.695 57.327 306.005 55.7989 309.421L55.2353 312.768C50.842 315.483 46.1908 313.666 41.4823 312.565L39.5911 312.116C34.7202 310.214 29.0184 308.001 25.1504 304.426C24.5964 303.965 24.0329 303.509 23.5076 303.015C16.5642 296.479 14.6255 289.717 14.3867 280.427C17.5194 278.203 19.7255 276.607 21.5784 273.135L24.5773 270.445L25.3891 270.874Z" fill="#F77830"/>
<path d="M25.3891 270.874C32.0269 276.155 38.0153 272.013 45.2739 280.363C45.4745 282.017 45.7992 283.742 45.8278 285.403C36.7259 286.088 32.9247 289.871 27.2134 296.425L25.3128 300.949L25.1504 304.426C24.5964 303.965 24.0329 303.509 23.5076 303.015C16.5642 296.479 14.6255 289.717 14.3867 280.427C17.5194 278.203 19.7255 276.607 21.5784 273.135L24.5773 270.445L25.3891 270.874Z" fill="#F88C44"/>
<path d="M21.5784 273.135L21.7503 280.434C21.9605 284.127 23.3931 287.503 24.6251 290.959L27.2134 296.425L25.3128 300.95L25.1504 304.426C24.5964 303.966 24.0329 303.509 23.5076 303.015C16.5642 296.48 14.6255 289.717 14.3867 280.428C17.5194 278.204 19.7255 276.607 21.5784 273.135Z" fill="#F97E2A"/>
<path d="M24.625 290.959C25.284 290.042 25.9621 289.143 26.6306 288.233C27.6239 286.876 28.6172 285.324 29.8588 284.167C34.405 279.896 39.486 280.283 45.2738 280.364C45.4744 282.017 45.799 283.743 45.8277 285.403C36.7258 286.088 32.9246 289.871 27.2132 296.425L24.625 290.959Z" fill="#F2C58E"/>
<path d="M24.5771 270.445L25.3889 270.874C25.1215 274.658 23.9372 277.351 21.7501 280.434L21.5781 273.135L24.5771 270.445Z" fill="#E4AD88"/>
<path d="M44.3195 306.411C46.1246 303.737 48.5982 299.085 51.3202 297.406C53.6888 295.947 55.618 296.758 58.1299 297.26L59.8204 299.101C58.7507 302.695 57.3277 306.005 55.7996 309.421L55.236 312.768C50.8426 315.483 46.1915 313.666 41.4829 312.565L39.5918 312.116C41.5879 310.244 42.9059 309.058 43.6796 306.39L44.3195 306.411Z" fill="#F88C44"/>
<path d="M44.3195 306.412C48.1112 308.076 51.7405 308.756 55.7996 309.422L55.236 312.768C50.8426 315.483 46.1915 313.666 41.4829 312.566L39.5918 312.117C41.5879 310.244 42.9059 309.059 43.6796 306.391L44.3195 306.412Z" fill="#DF6313"/>
<path d="M25.3128 300.95C32.6191 299.601 37.4614 302.984 43.6789 306.391C42.9053 309.059 41.5873 310.244 39.5912 312.117C34.7203 310.215 29.0185 308.001 25.1504 304.427L25.3128 300.95Z" fill="#EA5127"/>
<path d="M49.0379 239.527C58.1971 236.083 64.1759 239.552 72.934 238.433L77.0504 237.936C74.9779 239.701 71.9121 241.726 70.6992 244.146C69.362 251.877 67.4327 259.767 68.8462 267.611C68.0726 269.938 67.4232 271.064 68.4929 273.469C69.0468 274.702 69.83 275.886 70.5272 277.038L70.2216 279.279C68.8559 279.996 68.5598 280.553 66.9743 280.138C62.495 278.97 56.9173 270.521 53.947 266.88L53.546 271.006L52.0847 271.918C50.6234 273.522 49.4964 274.643 47.5385 275.613C39.3057 274.779 42.171 267.487 37.5484 262.404C34.0815 258.594 30.0224 260.961 26.2785 258.47L26.1543 257.091C27.9116 255.966 29.4016 255.856 31.455 255.637C32.859 255.489 33.6708 254.263 34.6832 253.306L33.5466 251.734C33.1264 249.405 33.1455 248.51 34.0241 246.311C38.0546 242.26 43.7086 241.025 49.0379 239.527Z" fill="#F9AD68"/>
<path d="M65.0437 252.126C65.9988 249.308 68.845 246.488 70.6978 244.145C69.3607 251.876 67.4314 259.766 68.8449 267.61C68.0713 269.937 67.4219 271.062 68.4916 273.468C69.0455 274.7 69.8287 275.885 70.5259 277.037L70.2203 279.277C68.8545 279.995 68.5584 280.551 66.973 280.137C62.4937 278.969 56.916 270.52 53.9457 266.878L53.5447 271.004L52.0834 271.916L50.2305 270.234C51.0423 267.54 51.367 265.233 51.4243 262.419C52.8187 261.898 54.9963 262.854 56.4576 263.217L56.1616 260.759L54.6716 260.895L54.8245 257.459C59.0363 256.49 61.7201 254.728 65.0437 252.126Z" fill="#F77830"/>
<path d="M51.4243 262.419C52.8187 261.899 54.9963 262.855 56.4576 263.218L58.8071 269.042C62.5796 269.333 65.3684 269.346 68.8449 267.611C68.0713 269.938 67.4219 271.063 68.4916 273.469C69.0455 274.701 69.8287 275.885 70.5259 277.038L70.2203 279.278C68.8545 279.995 68.5584 280.552 66.973 280.138C62.4937 278.969 56.916 270.52 53.9457 266.879L53.5447 271.005L52.0834 271.917L50.2305 270.235C51.0423 267.541 51.367 265.234 51.4243 262.419Z" fill="#DF6313"/>
<path d="M56.1621 260.761C58.4352 260.436 61.0521 259.861 63.0864 261.271C64.5095 262.259 65.4359 263.823 66.2572 265.305L65.2258 267.742C63.0769 268.391 61.0329 268.77 58.8076 269.043L56.4581 263.219L56.1621 260.761Z" fill="#E4CBAF"/>
<path d="M54.8247 257.459C59.0366 256.491 61.7203 254.728 65.044 252.127C65.2828 256.391 65.1586 261.188 66.257 265.304C65.4356 263.822 64.5092 262.258 63.0862 261.27C61.0519 259.86 58.4349 260.435 56.1619 260.76L54.6719 260.896L54.8247 257.459Z" fill="#F88C44"/>
<path d="M52.0847 271.917C50.6234 273.521 49.4964 274.643 47.5385 275.612C39.3057 274.778 42.171 267.486 37.5484 262.403C34.0815 258.593 30.0224 260.961 26.2785 258.469L26.1543 257.091C27.9116 255.965 29.4016 255.855 31.455 255.637C32.859 255.489 33.6708 254.262 34.6832 253.305L36.0393 254.207C40.2894 260.142 44.0238 266.087 50.2318 270.235L52.0847 271.917Z" fill="#F2C58E"/>
<path d="M36.0391 254.208C39.2672 253.141 42.0465 250.277 44.6634 248.145C46.5354 252.681 48.3405 258.619 51.4254 262.42C51.3681 265.234 51.0433 267.541 50.2315 270.235C44.0235 266.087 40.2892 260.142 36.0391 254.208Z" fill="#F88C44"/>
<path d="M34.6824 253.306L33.5458 251.734C33.1256 249.405 33.1447 248.51 34.0233 246.311C38.0538 242.26 43.7078 241.025 49.0371 239.527L53.1345 243.051L48.6933 243.626L47.404 242.242L45.8281 242.861C45.0831 244.731 44.5292 246.076 44.6629 248.145C42.046 250.277 39.2667 253.141 36.0385 254.209L34.6824 253.306Z" fill="#F77830"/>
<path d="M44.6626 248.145C44.5288 246.076 45.0828 244.731 45.8277 242.861L47.4036 242.242L48.693 243.625L48.3396 246.058L52.0931 249.021C53.1246 251.791 54.2993 254.543 54.8246 257.46L54.6718 260.897L56.1617 260.761L56.4578 263.219C54.9965 262.856 52.8189 261.9 51.4245 262.42C48.3396 258.619 46.5345 252.682 44.6626 248.145Z" fill="#DF6313"/>
<path d="M48.3398 246.057L52.0934 249.02C53.1248 251.79 54.2996 254.542 54.8249 257.459L54.672 260.895L52.4372 259.771C49.0275 255.418 48.6455 251.347 48.3398 246.057Z" fill="#F56D37"/>
<path d="M53.1344 243.05L55.1496 242.004L56.0569 243.125C55.3406 246.001 54.4333 247.223 52.0934 249.021L48.3398 246.057L48.6932 243.625L53.1344 243.05Z" fill="#FAEACB"/>
<path d="M77.0507 237.936L83.2395 239.758C87.2031 241.241 90.947 242.591 94.4617 245.009L95.3403 245.228C101.147 247.79 106.61 250.51 110.736 255.47L110.889 257.332C104.423 261.636 99.1607 259.345 93.1437 266.115C91.883 269.262 90.5172 272.362 89.8009 275.685C90.2976 278.096 91.415 280.602 90.1734 282.77C87.3368 282.347 86.2957 281.856 83.6597 283.096C83.44 283.043 83.2204 283.006 83.0103 282.938C77.1462 281.075 73.0584 276.668 70.2886 271.393C70.0976 269.506 69.9448 269.167 68.8464 267.611C67.4329 259.767 69.3623 251.877 70.6994 244.146C71.9123 241.726 74.9781 239.701 77.0507 237.936Z" fill="#F77830"/>
<path d="M77.0507 237.936L83.2395 239.758L83.3733 245.852L78.7984 247.999L78.7316 248.957C77.8147 251.793 75.809 255.913 76.2674 258.813C73.8415 261.803 72.0555 263.861 71.4825 267.791L71.492 269.057L70.2886 271.393C70.0976 269.506 69.9448 269.167 68.8464 267.611C67.4329 259.767 69.3623 251.877 70.6994 244.146C71.9123 241.726 74.9781 239.701 77.0507 237.936Z" fill="#DF6313"/>
<path d="M71.4816 267.791C71.3288 267.1 71.2047 266.422 71.0805 265.726C70.9659 265.085 70.8321 264.446 70.7557 263.8C69.8866 256.968 72.3125 249.844 76.4862 244.506L78.7975 247.998L78.7307 248.957C77.8139 251.793 75.8081 255.912 76.2666 258.813C73.8407 261.803 72.0547 263.86 71.4816 267.791Z" fill="#F97E2A"/>
<path d="M83.2388 239.758L83.3725 245.852L78.7977 247.998L76.4863 244.506C78.8549 243.062 81.0326 241.432 83.2388 239.758Z" fill="#F77830"/>
<path d="M83.2384 239.758C87.202 241.24 90.9459 242.59 94.4606 245.008L95.3392 245.228C93.0756 249.132 88.5486 250.115 85.3491 253.071L78.7305 248.957L78.7973 247.998L83.3721 245.852L83.2384 239.758Z" fill="#F2C58E"/>
<path d="M83.2383 239.758C87.2019 241.24 90.9458 242.59 94.4604 245.008C91.089 246.661 88.4339 247.735 84.7377 246.406C84.2697 246.24 83.8209 246.046 83.372 245.852L83.2383 239.758Z" fill="#F9AD68"/>
<path d="M71.4905 269.057C74.7282 269.609 78.071 269.994 81.1655 271.129C82.3689 275.148 83.1616 278.93 83.6582 283.096C83.4385 283.043 83.2189 283.006 83.0088 282.938C77.1446 281.074 73.0568 276.668 70.2871 271.393L71.4905 269.057Z" fill="#F56D37"/>
<path d="M76.2674 258.812C79.6961 260.694 81.8546 261.81 83.7743 265.357L83.6597 265.912L81.1669 271.128C78.0725 269.993 74.7297 269.608 71.492 269.056L71.4824 267.791C72.0555 263.86 73.8415 261.803 76.2674 258.812Z" fill="#F8DCB5"/>
<path d="M78.7306 248.957L85.3492 253.072C83.7542 256.44 84.7093 259.308 85.4733 262.75C84.9576 263.93 84.757 264.488 83.7733 265.358C81.8536 261.811 79.6951 260.694 76.2664 258.813C75.8079 255.913 77.8137 251.793 78.7306 248.957Z" fill="#F88C44"/>
<path d="M83.6588 265.912C84.6425 268.426 84.6043 270.043 84.1841 272.691C86.1134 274.12 87.3454 275.481 89.8 275.684C90.2966 278.095 91.4141 280.601 90.1725 282.77C87.3359 282.346 86.2948 281.855 83.6588 283.095C83.1621 278.929 82.3694 275.147 81.166 271.128L83.6588 265.912Z" fill="#C33C13"/>
<path d="M84.1836 272.692C86.0078 269.46 87.3067 266.08 90.6782 264.398L93.1422 266.115C91.8815 269.262 90.5158 272.362 89.7995 275.685C87.3449 275.481 86.1129 274.121 84.1836 272.692Z" fill="#F2C58E"/>
<path d="M211.305 222.699C219.184 227.087 223.931 231.9 228.363 239.778C230.149 245.223 231.037 248.416 228.277 253.834L227.847 254.672C224.963 255.577 222.422 255.866 219.528 254.81C213.855 252.742 209.882 248.689 207.179 243.4C203.884 238.151 202.833 231.385 201.506 225.407C204.056 228.572 206.587 231.529 208.22 235.297L213.244 241.736C213.817 241.579 214.046 241.552 214.6 241.197C215.67 240.511 216.482 239.388 216.806 238.194C218.067 233.553 213.444 226.771 211.305 222.699Z" fill="#DC4E29"/>
<path d="M211.305 222.699C219.184 227.087 223.931 231.9 228.362 239.778C228.152 239.882 227.933 239.983 227.713 240.092C225.115 241.412 223.921 242.826 222.307 245.213C219.604 245.872 217.904 244.301 215.412 243.709L213.091 242.975L213.244 241.736C213.817 241.579 214.046 241.552 214.6 241.197C215.669 240.511 216.481 239.388 216.806 238.194C218.067 233.553 213.444 226.771 211.305 222.699Z" fill="#F56D37"/>
<path d="M228.363 239.779C230.149 245.224 231.037 248.417 228.277 253.835L227.847 254.673C223.129 251.391 219.309 247.915 215.412 243.71C217.905 244.302 219.605 245.873 222.308 245.214C223.922 242.827 225.116 241.413 227.714 240.093C227.933 239.984 228.153 239.883 228.363 239.779Z" fill="#EA5127"/>
<path d="M201.506 225.406C204.056 228.572 206.587 231.529 208.22 235.297L206.415 235.632C206.186 238.401 206.635 240.706 207.179 243.4C203.884 238.151 202.833 231.385 201.506 225.406Z" fill="#C33C13"/>
<path d="M138.52 239.24C140.057 234.708 143.247 230.421 146.972 227.437C150 225.014 153.304 222.665 157.306 223.153L156.074 225.196C154.173 228.124 151.958 230.992 151.537 234.545L152.445 237.516L154.918 238.978C157.019 238.279 159.579 238.138 161.785 237.794C157.831 244.538 154.794 249.374 146.772 251.471C145.578 251.781 144.384 252.04 143.18 252.272C141.891 252.064 140.697 251.565 139.465 251.135C138.004 249.646 136.695 248.21 136.39 246.061C136.046 243.64 136.972 241.062 138.52 239.24Z" fill="#EA5127"/>
<path d="M154.918 238.98C157.019 238.28 159.578 238.14 161.785 237.795C157.831 244.539 154.793 249.375 146.771 251.472C145.577 251.783 144.383 252.041 143.18 252.274C147.86 248.815 151.24 243.47 154.918 238.98Z" fill="#DC4E29"/>
<path d="M138.52 239.24C140.057 234.708 143.247 230.421 146.972 227.437C150 225.014 153.304 222.665 157.306 223.153L156.074 225.196C149.15 227.322 143.792 234.447 138.52 239.24Z" fill="#DF6313"/>
<path d="M146.131 234.268L147.019 235.298C147.076 238.261 145.663 239.559 144.077 241.928L143.552 241.537C143.476 238.566 144.794 236.834 146.131 234.268Z" fill="#E4AD88"/>
<path d="M61.3578 303.668C63.9747 301.48 64.5763 300.8 67.8905 300.316C70.5074 301.265 72.7806 302.358 75.1587 303.79C78.4346 305.964 81.7678 308.077 84.91 310.443C88.2337 311.945 91.6337 310.517 94.986 312.249L94.9097 313.771C92.7512 315.464 90.4876 316.223 87.8516 316.829C80.0868 318.617 68.4923 319.243 61.6539 314.267C58.9128 312.28 59.2279 309.388 58.8555 306.341L61.3578 303.668Z" fill="#EA5127"/>
<path d="M61.3578 303.668C63.9747 301.48 64.5763 300.8 67.8905 300.316C70.5074 301.265 72.7806 302.358 75.1587 303.79C78.4346 305.964 81.7678 308.077 84.91 310.443C83.7353 311.071 82.6274 311.545 81.3189 311.825C73.3536 313.523 65.2545 311.041 58.8555 306.341L61.3578 303.668Z" fill="#F56D37"/>
<path d="M61.3574 303.668C63.9743 301.48 64.576 300.8 67.8901 300.316C70.507 301.265 72.7802 302.358 75.1584 303.79C74.8814 303.978 74.6139 304.179 74.3273 304.354C70.9941 306.384 64.939 304.392 61.3574 303.668Z" fill="#F9AD68"/>
<path d="M228.716 257.9L230.025 259.245C230.664 261.16 231.295 263.03 230.693 265.042C229.241 269.877 224.332 272.723 220.12 274.857C218.65 270.362 216.759 265.939 215.059 261.523C219.624 259.684 223.855 258.667 228.716 257.9Z" fill="#EA5127"/>
<path d="M218.278 286.859C220.981 286.701 223.932 286.703 226.454 287.831C229.462 289.162 231.774 291.677 232.862 294.781C235.069 300.942 233.149 307.573 230.322 313.143C229.997 309.012 230.083 303.499 228.135 299.767C225.699 295.116 222.786 293.241 217.925 291.961L216.836 291.68L216.32 290.267L218.278 286.859Z" fill="#C33C13"/>
<path d="M229.023 274.518C230.751 274.639 232.537 274.766 234.123 275.518C238.106 277.401 240.312 281.067 241.611 285.104C242.461 287.742 242.938 290.346 241.639 292.887L240.541 292.527L238.449 287.582C238.048 286.92 237.876 286.578 237.418 286.014C235.67 283.884 233.139 282.382 230.398 282.149L221.248 281.433L220.742 280.24C222.929 277.422 225.928 276.133 229.023 274.518Z" fill="#DC4E29"/>
<path d="M14.3867 280.429C14.5491 277.84 14.74 275.234 15.2558 272.686C16.0389 268.754 17.2615 261.153 20.7953 258.842L23.0875 259.981C24.4819 262.04 25.3319 262.836 25.4847 265.356L20.7953 265.516C23.2498 266.479 26.0195 267.835 28.6747 267.971C29.0949 267.993 29.5151 267.99 29.9353 267.998L30.1836 268.836C29.7156 269.06 29.028 269.43 28.5409 269.508C26.7549 269.794 26.3156 269.421 24.5773 270.447L21.5784 273.136C19.7255 276.609 17.5194 278.205 14.3867 280.429Z" fill="#F56D37"/>
<path d="M138.988 286.223C141.7 286.508 143.295 286.798 145.578 288.332L145.444 289.426C142.225 290.933 138.119 292.404 135.311 294.58C133.057 296.328 131.987 298.959 131.653 301.704C131.261 303.563 130.774 305.055 130.01 306.792L128.721 306.459C128.233 305.494 127.766 304.48 127.546 303.413C126.696 299.293 128.014 294.006 130.421 290.6C132.751 287.309 135.282 286.888 138.988 286.223Z" fill="#C33C13"/>
<path d="M136.98 253.822C141.145 254.892 145.366 256.888 149.387 258.445L143.217 269.489L142.348 270.456C142.1 270.364 141.842 270.306 141.613 270.181C138.556 268.529 136.226 263.13 135.51 259.865C134.965 257.415 135.653 255.845 136.98 253.822Z" fill="#EA5127"/>
<path d="M143.198 311.216C142.615 309.763 142.023 308.265 141.765 306.714C141.23 303.542 142.147 299.233 144.181 296.703C145.776 294.729 147.954 293.953 150.456 293.957C153.121 293.961 155.079 295.273 156.798 297.17C155.509 299.498 148.575 301.712 145.987 304.036C146.493 307.469 147.018 310.878 147.687 314.284L146.942 314.83C145.662 313.655 144.353 312.511 143.198 311.216Z" fill="#DC4E29"/>
<path d="M143.199 311.215C145.31 309.073 145.482 306.871 145.988 304.035C146.494 307.469 147.019 310.878 147.688 314.284L146.943 314.829C145.663 313.654 144.355 312.511 143.199 311.215Z" fill="#C33C13"/>
<path d="M215.201 306.837C214.284 304.717 213.654 301.956 211.18 301.161C208.229 300.218 206.701 301.117 204.256 298.722L204.571 297.356C207.732 295.976 210.779 294.991 214.15 296.268C215.965 296.956 217.226 298.411 217.904 300.255C218.926 303.043 218.487 306.183 218.219 309.073L216.261 308.648L215.201 306.837Z" fill="#DC4E29"/>
<path d="M52.504 275.055C52.7714 275.044 53.0388 275.017 53.3158 275.022C56.267 275.087 57.5373 275.911 59.457 277.928C59.6003 280.851 59.3138 281.165 57.7284 283.664C56.5441 283.718 55.2164 283.834 54.0417 283.641C51.7877 283.272 51.0619 282.365 49.8203 280.594C50.1737 277.828 50.8517 277.224 52.504 275.055Z" fill="#DF6313"/>
<path d="M152.443 237.517C152.864 237.467 153.293 237.437 153.714 237.369C156.865 236.859 161.125 230.447 163.283 231.289C162.949 233.577 162.567 235.617 161.784 237.795C159.578 238.14 157.018 238.28 154.917 238.979L152.443 237.517Z" fill="#DF6313"/>
<path d="M215.202 306.836L216.262 308.647L218.22 309.072C217.265 311.886 216.73 313.764 214.304 315.662L213.005 315.048C212.623 311.766 213.836 309.703 215.202 306.836Z" fill="#C33C13"/>
<path d="M17.2916 173.139L21.2838 173.742C16.5562 185.722 12.8982 197.98 9.67962 210.445C15.8781 222.933 7.69312 242.075 22.8693 249.97C19.0203 255.341 14.9612 260.669 12.2297 266.715C11.3988 268.418 11.0645 269.092 9.34537 270.064C-5.23867 239.021 6.50874 203.376 17.2916 173.139Z" fill="#4D2809"/>
<path d="M9.67814 210.445C15.8766 222.934 7.69163 242.076 22.8678 249.97C19.0189 255.342 14.9598 260.67 12.2282 266.716C4.30109 249.285 6.55503 228.816 9.67814 210.445Z" fill="#C26510"/>
<path d="M49.639 234.852C49.1424 229.347 40.2124 219.553 37.5764 213.557C35.4466 208.723 33.4982 201.073 35.437 195.986C38.3214 198.313 39.1332 203.58 41.1007 206.775C44.4244 212.143 49.3908 216.641 53.8988 221.004L48.9419 220.523C44.7204 215.972 41.4159 210.792 37.9776 205.651C41.5305 218.365 48.4357 225.675 59.0371 233.233C56.0095 233.558 52.4088 233.565 49.639 234.852Z" fill="#CE6F17"/>
<path d="M164.038 177.171C162.501 178.01 160.858 178.409 159.187 178.88L157.764 177.885C157.831 177.396 157.869 176.826 158.041 176.348C159.683 171.763 168.527 163.977 172.825 161.748L172.376 162.54C169.664 167.177 163.59 171.639 164.038 177.171Z" fill="#CB741B"/>
<path d="M170.618 214.361C169.32 210.774 167.839 206.981 168.622 203.142L170.179 203.129L172.557 205.997C172.71 209.51 172.997 211.471 170.618 214.361Z" fill="#B35D0C"/>
<path d="M160.562 126.344L160.744 127.307C162.864 138.865 162.912 151.077 155.834 161.043C150.667 168.201 142.807 172.935 134.068 174.145C126.895 175.19 119.026 173.848 113.219 169.291C107.154 164.519 104.04 157.295 103.124 149.771C101.471 136.286 105.129 119.519 113.658 108.748C117.937 103.337 123.018 100.352 129.942 99.6016C137.115 98.8239 142.053 99.6627 147.793 104.3L148.576 104.937L149.101 104.273L151.049 106.788C152.09 111.651 156.57 115.989 158.27 120.999L160.562 126.344Z" fill="#A85914"/>
<path d="M141.384 120.039C143.524 117.778 145.042 116.677 148.022 115.75L149.694 116.367C150.505 118.96 150.62 119.588 150.076 122.235C148.013 124.581 145.845 125.106 142.979 126.059C142.024 126.374 140.611 126.532 140.038 127.419C137.469 131.414 138.987 143.926 139.073 148.866C141.891 150.625 144.498 151.977 146.045 155.074L145.663 156.539C142.129 156.367 139.961 154.29 137.029 152.402C133.696 154.501 129.417 158.068 125.396 157.299C126.638 152.961 131.576 150.809 135.272 148.715C135.453 141.698 135.635 134.703 135.482 127.684L137.526 126.549L141.384 120.039Z" fill="#3A1A01"/>
<path d="M135.482 127.684C132.273 125.352 128.558 127.492 125.368 125.599C123.095 124.248 121.7 122.472 120.889 120.007C121.634 117.878 121.949 117.943 123.811 116.847C126.934 116.447 128.72 117.472 131.366 118.929C134.862 118.968 138.013 118.98 141.385 120.039L137.526 126.549L135.482 127.684Z" fill="#3A1A01"/>
<path d="M131.365 118.93C134.861 118.968 138.013 118.98 141.384 120.04L137.525 126.549C135.042 124.379 133.275 121.603 131.365 118.93Z" fill="#8B470F"/>
<path d="M70.0677 114.877C72.188 115.154 74.4993 115.359 76.5527 115.957C79.9814 116.956 83.563 119.989 85.3013 123.082C86.5047 125.224 86.9153 127.719 86.1226 130.084C84.795 134.077 81.3663 135.606 77.8516 137.243C72.656 136.962 67.7755 136.226 64.2322 131.916C62.3889 129.662 61.4911 126.889 62.0641 123.998C62.9332 119.665 66.553 117.029 70.0677 114.877Z" fill="#F88C44"/>
<path d="M71.5198 121.463L72.5322 122.438C72.4463 124.963 71.0613 126.609 69.791 128.744L69.2276 127.814C69.1607 125.06 70.2304 123.784 71.5198 121.463Z" fill="#F77830"/>
<path d="M78.2048 125.254L80.029 125.143L78.4723 127.454L77.584 127.46L78.2048 125.254Z" fill="#F77830"/>
<path d="M158.27 120.999C161.068 118.049 163.523 114.624 167.897 114.497C169.692 114.444 171.574 115.172 172.796 116.54C174.64 118.611 175.308 121.613 174.936 124.315C174.668 126.245 173.799 127.426 172.529 128.84C170.485 129.92 168.661 130.598 166.359 129.73C164.353 128.976 162.319 127.556 160.562 126.344L158.27 120.999Z" fill="#E48E33"/>
<path d="M142.08 178.49C143.723 178.186 143.723 178.197 145.184 179.01C144.592 181.372 143.733 181.991 141.65 183.319C134.401 187.934 124.936 187.177 116.952 185.663C114.832 184.998 113.447 184.476 111.785 182.986C114.431 180.298 136.617 179.349 142.08 178.49Z" fill="#C26510"/>
<path d="M87.7286 99.7876C89.868 99.7752 92.5327 99.5842 94.4811 100.603C96.4772 101.651 98.1867 103.927 98.6929 106.114C99.0558 107.704 98.7884 107.512 97.967 108.752C94.9012 108.442 93.5355 106.36 91.3197 104.317C88.0438 106.042 85.2359 110.477 81.7498 111.077C80.4987 109.432 80.7947 109.047 80.9093 107.05C82.5616 103.809 84.9589 102.005 87.7286 99.7876Z" fill="#1F1302"/>
<path d="M63.6505 39.7596C74.4333 38.4068 75.2165 46.3387 67.5663 53.0937C65.4747 53.1511 66.5061 53.4014 64.5673 51.7601C62.2751 46.8068 61.9887 44.8848 63.6505 39.7596Z" fill="#3A1A01"/>
<path d="M64.5673 51.7603C62.2751 46.8071 61.9887 44.885 63.6505 39.7598C66.3438 41.3351 67.9197 41.8385 69.1326 44.65C68.1776 48.7339 67.6809 48.2696 64.5673 51.7603Z" fill="#A85914"/>
<path d="M149.102 104.274C149.885 101.218 149.971 99.9911 152.339 97.7691C154.717 97.0564 156.599 96.7402 158.862 98.0146C161.269 99.3702 162.587 101.114 163.609 103.618L163.38 106.126L161.881 107.19C159.837 106.099 156.656 103.633 154.393 104.436C153.142 104.883 152.053 105.94 151.05 106.789L149.102 104.274Z" fill="#2A1603"/>
<path d="M93.9263 75.9863C95.5882 76.4086 95.4832 76.6751 96.5147 77.9294L95.846 79.5563C92.7802 82.2857 89.6953 83.6403 85.9514 85.1955C84.5093 84.5478 84.5666 84.3511 83.707 83.1302C84.8818 80.483 91.3094 77.66 93.9263 75.9863Z" fill="#4D2809"/>
<path d="M144.555 74.791C146.465 75.0126 148.385 75.6183 150.199 76.2517C153.914 77.5461 155.863 79.2819 157.553 82.8166C154.946 82.6485 151.89 82.0189 149.531 80.8219C146.771 79.4195 145.643 77.6015 144.555 74.791Z" fill="#713609"/>
<path d="M125.07 203.301C127.124 203.954 127.725 203.908 129.043 205.682L128.232 210.621L126.369 210.192C124.793 207.839 125.137 206.034 125.07 203.301Z" fill="#E48E33"/>
<path d="M164.44 72.8978C161.995 53.4543 159.005 35.7954 171.861 18.9017C179.645 8.6722 192.185 2.0165 204.859 0.39438C216.654 -1.18093 228.592 2.00221 238.038 9.24156C248.955 17.6913 256.041 30.8134 257.713 44.4515C259.537 59.1308 255.401 73.9286 246.233 85.5318C238.525 95.2731 227.169 101.421 214.801 102.54C203.913 103.546 190.179 100.79 181.612 93.6471C177.391 90.1201 169.607 78.7806 166.388 77.1441C165.576 75.8583 165.041 74.2973 164.44 72.8978Z" fill="#DC4E29"/>
<path d="M179.243 25.1895C181.593 27.5682 183.789 29.3364 186.349 31.4591L188.183 34.0987C192.318 39.1408 194.582 41.9504 199.539 46.3496C201.287 47.6736 201.592 47.7348 202.796 49.6216C205.642 55.2455 211.621 59.7049 215.651 64.7499L217.561 65.344L218.325 67.2948L222.279 71.952C224.237 73.1642 224.285 73.4728 225.173 75.4799C226.797 76.2738 231.849 82.4728 233.387 84.2497C229.404 87.3764 224.323 90.1668 219.462 91.5969C210.131 94.4017 200.045 93.2315 191.602 88.3613C168.098 74.9058 166.684 46.9744 179.243 25.1895Z" fill="#F8F3EF"/>
<path d="M225.174 75.48C223.913 76.3809 222.595 77.3314 221.22 78.0546C216.339 80.6082 208.555 82.0239 203.264 80.0187C198.546 78.2342 198.269 74.2353 196.378 70.2182L195.07 70.1322C193.379 71.7476 192.033 73.3 189.75 73.9716L188.384 72.7669L188.27 70.6079C192.567 67.1315 195.91 61.478 201.755 60.9727L202.271 61.8238C200.896 63.0533 199.501 64.2351 198.317 65.6585C201.154 67.507 204.907 68.149 208.25 68.5254C210.943 68.8282 212.815 67.0303 214.792 65.4445L215.652 64.75L217.562 65.3442L218.326 67.2949L222.28 71.9521C224.238 73.1644 224.286 73.4729 225.174 75.48Z" fill="#713609"/>
<path d="M222.28 71.9513L221.286 74.5794C218.918 76.8693 216.816 78.0615 213.483 78.3786C209.501 78.757 204.534 77.3574 201.659 74.4857C200.036 72.8627 199.51 71.7803 199.367 69.5621L200.523 69.2879L203.006 72.1347C207.667 72.5283 212.051 70.4534 215.737 67.7709C216.826 66.976 217.027 67.2312 218.325 67.2942L222.28 71.9513Z" fill="#F77830"/>
<path d="M186.348 31.459L188.182 34.0985C192.318 39.1406 194.581 41.9502 199.538 46.3494C201.286 47.6735 201.591 47.7346 202.795 49.6214C198.335 53.6948 192.117 64.1278 187.294 64.5319L186.11 63.4887C187.485 57.9966 195.25 58.0845 197.007 50.2815C191.764 47.364 184.83 53.755 180.513 44.6127C180.417 38.3114 182.538 36.1056 186.348 31.459Z" fill="#7B3909"/>
<path d="M188.182 34.0977C192.318 39.1398 194.581 41.9493 199.538 46.3485C194.065 46.3447 187.475 48.3738 184.734 43.3565C184.801 39.6662 186.425 37.3104 188.182 34.0977Z" fill="#F8F3EF"/>
<path d="M185.309 18.8384C229.548 -9.38055 265.545 38.0688 239.624 78.2024C236.701 75.4091 233.139 72.2556 230.818 69.0591L228.583 66.8743C226.492 63.8794 223.674 61.3316 221.124 58.7226L221.993 56.2579C221.143 51.8902 221.917 50.4602 218.612 47.0516C214.228 44.2984 214.305 44.1713 209.654 45.8613C209.338 43.1434 209.443 42.7393 207.992 40.5297L205.957 40.4733L204.62 40.6539L194.324 28.6513C192.844 28.0323 193.522 28.3733 192.395 26.7675C189.979 24.1585 187.534 21.6117 185.309 18.8384Z" fill="#F8F3EF"/>
<path d="M192.395 26.7672C207.915 19.076 226.262 22.3966 234.131 38.848C237.446 45.7683 237.808 53.7327 235.163 60.93C234.227 63.4874 232.365 66.8415 230.817 69.0588L228.582 66.874C226.491 63.8791 223.673 61.3313 221.123 58.7223L221.992 56.2576C221.142 51.8899 221.916 50.4599 218.611 47.0513C214.228 44.2981 214.304 44.171 209.653 45.861C209.338 43.1431 209.443 42.739 207.991 40.5294L205.957 40.473L204.619 40.6536L194.324 28.651C192.843 28.032 193.522 28.373 192.395 26.7672Z" fill="#713609"/>
<path d="M201.43 26.6277C204.496 25.4221 208.459 25.4517 211.659 25.9724L219.882 29.0256C221.745 30.2216 223.855 31.4854 225.593 32.8133L229.91 38.3886C226.921 40.6689 221.659 45.6976 218.841 46.1055L218.612 47.0513C214.228 44.2981 214.304 44.171 209.653 45.861C209.338 43.1431 209.443 42.739 207.991 40.5294L205.957 40.473L204.62 40.6536L194.324 28.651L201.43 26.6277Z" fill="#F97E2A"/>
<path d="M201.43 26.627C206.473 28.2338 205.546 35.348 205.957 40.4723L204.62 40.6528L194.324 28.6503L201.43 26.627Z" fill="#F2C58E"/>
<path d="M218.84 46.1047C223.061 40.8648 223.93 39.1519 225.592 32.8125L229.909 38.3878C226.92 40.6681 221.657 45.6968 218.84 46.1047Z" fill="#E4CBAF"/>
<path d="M211.658 25.9727L219.881 29.0258C217.312 31.2937 215.918 34.0718 213.253 34.5055C212.47 31.4628 212.117 29.0468 211.658 25.9727Z" fill="#F8EDDB"/>
<path d="M229.91 38.3887C233.826 43.898 233.778 47.9332 234.341 54.5153C230.473 55.1486 226.749 55.6425 222.823 55.7887L221.992 56.2577C221.142 51.89 221.916 50.46 218.611 47.0514L218.841 46.1056C221.658 45.6977 226.92 40.669 229.91 38.3887Z" fill="#F97E2A"/>
<path d="M222.824 55.7889C222.528 54.3846 222.557 54.4228 223.263 53.1666C224.066 52.9277 224.572 52.7405 225.364 52.6144C228.43 52.1253 231.84 52.7118 234.342 54.5155C230.474 55.1488 226.749 55.6427 222.824 55.7889Z" fill="#F8F4ED"/>
<path d="M234.341 54.5156C233.224 59.573 231.973 62.8202 228.582 66.8745C226.491 63.8796 223.673 61.3318 221.123 58.7228L221.992 56.2581L222.823 55.7891C226.748 55.6429 230.473 55.149 234.341 54.5156Z" fill="#F77830"/>
<path d="M209.652 45.8619C214.304 44.1719 214.227 44.299 218.611 47.0522C221.916 50.4608 221.142 51.8908 221.992 56.2585L221.123 58.7232L219.279 57.0218C216.558 45.7644 213.138 51.7877 209.652 45.8619Z" fill="#713609"/>
</svg>
