<svg width="273" height="333" viewBox="0 0 273 333" fill="none" xmlns="http://www.w3.org/2000/svg">
<path d="M49.9799 46.7594C46.0831 41.4613 44.3162 36.3159 45.3191 29.6813C46.15 24.2169 48.786 19.1462 53.4468 15.9755C57.0188 13.5423 61.3167 12.6624 65.5286 13.7028C71.259 15.1176 74.8405 19.0096 77.5911 23.9858C77.9827 24.6975 78.3648 25.413 78.7372 26.1342C96.5303 20.9087 112.757 20.9364 130.655 25.647C132.909 20.666 135.058 16.4092 140.464 14.1948C144.017 12.7379 147.837 12.8401 151.314 14.4641C155.573 16.4531 158.649 20.3183 160.11 24.7328C162.01 30.5096 161.246 36.5901 158.391 41.9064C157.856 42.9114 157.292 43.9011 156.71 44.8755C171.217 67.7075 189.966 114.576 183.586 141.112C182.239 146.715 174.159 158.275 174.532 162.538C176.585 162.76 177.339 162.776 179.231 161.757C180.749 156.37 179.192 152.446 184.445 148.912C184.789 149.055 185.133 149.211 185.486 149.34C186.68 149.781 187.005 149.844 188.18 149.557C190.5 146.215 193.222 137.807 197.339 136.976C202.429 135.949 212.028 139.77 216.049 143.164C220.089 146.569 222.925 152.066 223.288 157.356C224.31 172.12 213.976 189.014 204.511 199.554C199.469 205.167 194.158 209.421 187.53 212.987C191.026 219.17 194.378 225.179 196.422 232.031C197.625 236.056 197.243 245.485 199.125 248.033C201.503 248.249 203.413 247.899 205.132 249.818C207.969 252.992 207.921 258.953 212.744 259.947C215.581 260.532 217.749 260.722 219.697 263.07C220.891 266.1 220.786 268.483 219.563 271.522C217.873 275.717 208.867 284.868 209.65 288.422C214.186 292.048 217.863 294.46 219.697 300.242C221.789 303.112 223.422 305.461 222.687 309.213C220.27 321.445 197.234 317.567 189.068 322.815L188.132 323.424C183.175 323.334 178.113 322.362 173.223 323.392C172.631 324.188 172.067 324.93 171.351 325.617C163.204 333.365 132.795 333.046 121.458 332.681C113.33 332.419 103.139 330.701 97.3135 324.515C97.3135 323.462 97.3421 322.452 97.4567 321.403C97.495 321.107 97.5331 320.811 97.5618 320.516C92.0796 319.251 85.5088 320.487 79.8547 320.387C60.7532 320.051 17.9656 306.718 4.69957 292.273C2.38828 289.753 0.535413 286.307 0.9843 282.779C1.53825 278.376 5.17715 275.654 8.32891 272.991C-13.0362 225.546 12.2829 189.346 22.2348 144.285C27.7169 119.497 29.1973 93.9719 38.2419 70.006C41.365 61.7244 45.3955 54.3131 49.9799 46.7594Z" fill="#4F3F09"/>
<path d="M8.3281 272.99C12.1389 278.92 27.6874 295.97 33.4275 299.424C42.3765 304.804 68.4884 312.809 79.214 315.202C86.7495 316.885 93.4351 310.763 99.8819 312.301C103.607 319.137 107.093 325.449 115.249 327.564C123.482 329.698 131.313 326.642 138.286 322.494C144.446 326.292 150.721 327.574 157.855 325.811C160.281 325.212 164.932 323.623 166.107 321.337C167.578 318.476 167.415 316.036 170.147 314.106C176.632 315.065 181.942 321.071 188.503 316.15C190.519 314.639 192.076 313.045 194.425 312.032C200.146 312.813 207.834 316.737 212.82 312.53C216.421 309.493 218.617 304.708 219.696 300.241C221.788 303.112 223.421 305.46 222.686 309.213C220.269 321.445 197.233 317.567 189.067 322.815L188.131 323.424C183.174 323.333 178.112 322.362 173.222 323.392C172.63 324.187 172.067 324.93 171.35 325.616C163.204 333.365 132.794 333.046 121.457 332.681C113.329 332.419 103.139 330.701 97.3127 324.515C97.3127 323.462 97.3413 322.451 97.4559 321.403C97.4941 321.106 97.5323 320.811 97.561 320.516C92.0788 319.25 85.508 320.486 79.8539 320.387C60.7524 320.051 17.9648 306.717 4.69876 292.273C2.38747 289.753 0.534603 286.306 0.98349 282.778C1.53743 278.375 5.17634 275.654 8.3281 272.99Z" fill="#E4CBAF"/>
<path d="M133.338 31.3018C134.837 25.9091 134.541 22.4318 139.947 19.1044C146.021 15.3653 152.745 17.9065 155.973 23.8886C157.988 27.6802 158.361 32.1339 156.995 36.2073C155.687 40.2254 153.71 41.4931 150.644 44.018C163.184 57.4468 167.482 74.3252 173.136 91.1024C183.718 122.541 185.714 145.273 161.341 170.504C167.129 168.93 172.792 166.518 178.427 167.04C180.796 168.563 180.089 168.33 181.264 171.707C181.273 176.479 183.871 180.305 187.166 183.538C189.955 186.278 192.753 188.052 196.373 189.496C199.84 190.337 203.173 190.164 206.697 190.044C199.639 200.654 191.33 208.151 178.857 211.474C176.183 211.726 173.967 211.542 171.732 213.123L171.188 214.809C175.466 214.958 179.42 214.82 183.661 214.258C187.615 221.472 196.067 234.791 194.463 243.032C191.053 248.548 182.486 248.531 175.075 260.304L170.089 252.912L167.1 252.686C159.536 252.899 156.365 253.144 151.083 258.776C147.081 263.039 146.661 264.129 140.921 265.778C140.176 271.124 137.913 276.314 136.241 281.44L135.917 290.856L134.818 291.167C127.521 293.564 119.117 296.537 112.231 299.797C101.897 304.693 98.8882 307.569 87.2076 310.989C85.1351 311.51 83.2632 311.8 81.1334 311.928C64.5723 306.664 47.9921 301.456 31.9182 294.814C31.5648 286.428 31.6508 278.013 31.6221 269.62C29.9508 276.376 33.0069 284.908 30.4569 291.131C29.3585 289.921 28.3653 288.855 27.6299 287.368C21.9376 283.394 17.506 279.582 13.7621 273.64C3.40906 257.254 2.12924 234.328 6.34113 215.786C7.99342 194.479 19.9893 169.296 25.2613 148.748C33.8092 115.396 32.6536 75.5509 54.8974 46.861C54.5631 46.4588 54.2288 46.0499 53.8945 45.6362C39.2341 26.9484 62.07 4.75565 72.318 24.0625C73.8366 26.9112 75.4125 29.4103 77.2271 32.0345L78.9271 32.0355C91.047 22.2942 119.604 26.0744 133.338 31.3018Z" fill="#FF9A43"/>
<path d="M31.9954 247.471L81.2202 264.936C81.1724 280.466 82.0893 296.473 81.1343 311.928C64.5732 306.664 47.993 301.456 31.9191 294.814C31.5657 286.428 31.6517 278.013 31.623 269.621L31.9954 247.471Z" fill="#F8DCB5"/>
<path d="M55.8814 266.908C57.0848 267.602 57.9348 268.439 58.9377 269.381C59.4725 272.24 59.1955 272.904 58.1927 275.678C56.2157 275.127 55.6999 274.594 54.4296 273.085C54.2482 270.259 54.6589 269.508 55.8814 266.908Z" fill="#EBAC51"/>
<path d="M65.9015 288.468C67.4392 288.319 68.8622 289.309 69.2538 290.805C69.6549 292.302 68.9005 293.863 67.4869 294.493C66.3504 295.002 65.0133 294.789 64.0869 293.95C63.1605 293.112 62.8166 291.805 63.2082 290.617C63.5998 289.431 64.6599 288.587 65.9015 288.468Z" fill="#EBAC51"/>
<path d="M42.1287 283.202C43.0933 282.493 44.3922 282.418 45.4332 283.011C46.4838 283.603 47.0855 284.753 46.9709 285.949C46.8658 287.146 46.0636 288.167 44.927 288.559C43.4944 289.052 41.9185 288.425 41.2213 287.086C40.5241 285.746 40.9062 284.095 42.1287 283.202Z" fill="#EBAC51"/>
<path d="M85.0794 264.55C99.5202 261.217 121.22 250.308 134.82 250.002L136.272 252.577C136.071 262.196 136.061 271.819 136.243 281.439L135.918 290.856L134.82 291.166C127.523 293.564 119.118 296.537 112.232 299.797C101.898 304.693 98.8898 307.569 87.2092 310.989C87.1424 310.939 87.066 310.903 87.0182 310.841C83.2648 306.247 85.089 273.044 85.0794 264.55Z" fill="#F2CF9C"/>
<path d="M130.196 277.688C131.571 279.236 131.523 279.849 131.867 281.836C130.635 284.814 128.868 286.024 126.385 287.9C125.22 286.418 124.971 285.418 124.561 283.629C125.363 280.713 127.875 279.394 130.196 277.688Z" fill="#E09E4D"/>
<path d="M116.33 281.268C117.418 282.062 118.373 283.079 119.357 284.01C119.51 286.795 118.345 287.794 116.874 290.009C115.46 289.664 114.706 289.007 113.598 288.097C113.493 284.987 114.735 283.786 116.33 281.268Z" fill="#E09E4D"/>
<path d="M96.9014 288.702C98.0093 288.314 99.2413 288.568 100.101 289.362C100.97 290.157 101.323 291.362 101.027 292.498C100.731 293.632 99.8431 294.514 98.697 294.789C97.0542 295.187 95.3828 294.223 94.9052 292.599C94.4277 290.975 95.3064 289.261 96.9014 288.702Z" fill="#E09E4D"/>
<path d="M106.1 267.648C107.809 267.827 108.793 268.265 110.293 269.022C111.2 271.579 110.808 272.078 110.082 274.608C108.268 275.054 108 275.007 106.214 274.44C104.992 272.132 105.66 270.122 106.1 267.648Z" fill="#E09E4D"/>
<path d="M124.724 260.129L127.523 261.331C128.592 263.709 127.828 264.627 127.103 267.069C126.071 267.147 125.164 266.931 124.151 266.76C123.273 264.078 124.008 262.732 124.724 260.129Z" fill="#F2BA6F"/>
<path d="M90.8939 230.463C104.389 237.494 120.664 238.977 134.35 245.856C136.165 248.517 136.107 249.31 136.27 252.578L134.818 250.003C121.218 250.309 99.5182 261.218 85.0775 264.551C85.087 273.045 83.2628 306.248 87.0163 310.842C87.064 310.904 87.1404 310.94 87.2073 310.99C85.1347 311.511 83.2628 311.801 81.133 311.929C82.0881 296.474 81.1712 280.467 81.2189 264.936L31.9941 247.471L32.147 246.269L33.9712 244.528C44.5344 240.622 55.661 238.237 66.291 234.445C68.5259 233.878 69.2326 233.994 71.3911 234.799C74.4665 235.95 79.2514 235.959 82.2695 234.483C82.6133 234.31 82.9572 234.107 83.301 233.92C85.2494 234.285 86.2617 234.848 87.8949 235.897C89.4612 234.288 90.0725 232.526 90.8939 230.463Z" fill="#FAEACB"/>
<path d="M32.147 246.269L33.9712 244.527C50.4654 250.241 66.9405 256.045 83.3774 261.936C94.2175 258.185 105.144 254.694 116.156 251.464C122.039 249.698 128.791 248.35 134.35 245.855C136.165 248.517 136.107 249.31 136.27 252.578L134.818 250.002C121.218 250.308 99.5182 261.218 85.0775 264.551C85.087 273.044 83.2628 306.247 87.0163 310.841C87.064 310.903 87.1404 310.94 87.2073 310.989C85.1347 311.51 83.2628 311.8 81.133 311.928C82.0881 296.473 81.1712 280.466 81.2189 264.936L31.9941 247.471L32.147 246.269Z" fill="#E09E4D"/>
<path d="M66.293 234.444C68.5279 233.878 69.2346 233.994 71.3931 234.799C74.4684 235.95 79.2534 235.959 82.2714 234.483C82.6152 234.31 82.9591 234.107 83.303 233.92C85.2513 234.285 86.2636 234.848 87.8968 235.896C88.8137 238.627 92.4813 237.141 94.8976 238.953L94.2003 240.621C92.1469 241.446 90.3227 241.517 88.1356 241.404C81.0871 241.042 71.0111 239.694 66.293 234.444Z" fill="#F2C58E"/>
<path d="M63.6085 242.806C65.3563 242.648 67.1422 242.428 68.8996 242.665C71.0962 242.962 71.1535 243.061 72.4907 244.856L71.9081 246.999C70.571 247.103 69.1957 247.245 67.849 247.192C65.4326 247.094 64.659 246.951 63.0449 245.193L63.6085 242.806Z" fill="#F2BA6F"/>
<path d="M102.413 242.42C104.457 242.809 105.833 243.304 107.666 244.257C107.103 246.424 105.651 246.699 103.779 247.832C101.506 247.551 100.389 247.221 98.5645 245.817C99.3954 243.475 100.265 243.52 102.413 242.42Z" fill="#F2BA6F"/>
<path d="M80.5234 249.607C83.8567 249.367 86.1966 248.663 89.2146 250.259L89.9596 253.017C87.9062 253.135 85.0028 253.584 83.0544 252.87C81.2111 252.195 81.1729 251.278 80.5234 249.607Z" fill="#F2C58E"/>
<path d="M78.8893 191.029C83.6551 199.087 101.706 216.379 99.0987 224.911C98.7166 226.171 98.0672 227.379 97.4464 228.54L93.0913 227.439C91.4104 228.524 91.4581 228.533 90.8946 230.462C90.0732 232.525 89.462 234.287 87.8956 235.896C86.2624 234.847 85.2501 234.284 83.3018 233.919C82.9579 234.106 82.614 234.309 82.2702 234.482C79.2522 235.958 74.4672 235.949 71.3918 234.798C69.2334 233.993 68.5266 233.877 66.2918 234.443C55.6617 238.236 44.5351 240.62 33.9719 244.527L32.1477 246.268L30.7915 243.876L28.3848 243.535C36.4647 238.111 48.2122 235.99 57.5051 233.321C54.9741 231.599 52.7106 229.59 50.4566 227.521C43.6278 221.231 38.222 214.683 37.7923 205.077L37.7731 204.367L39.1675 204.235C44.048 210.766 49.702 217.756 56.378 222.514C57.1708 223.077 57.9444 223.629 58.7562 224.163L59.845 220.581C59.9405 220.4 60.0361 220.217 60.1411 220.039C65.5182 211.01 73.4835 207.27 83.4545 204.91C80.446 200.599 78.0488 196.321 75.8234 191.566L78.8893 191.029Z" fill="#4D2809"/>
<path d="M83.4542 204.91C87.1599 208.399 96.0421 216.327 96.1376 221.901C96.1376 222.177 96.1185 222.452 96.109 222.728C94.5235 223.489 94.6095 223.479 92.9381 222.908C90.5887 222.111 88.6308 220.98 86.5105 219.728C85.7846 223.191 89.2802 225.633 88.7262 229.521L86.7301 230.806C82.7475 229.802 80.9232 225.048 77.1316 224.627C77.4085 227.598 78.7552 229.984 77.6187 232.805C73.9607 232.528 63.7509 225.874 58.7559 224.163L59.8447 220.581C59.9402 220.401 60.0357 220.217 60.1408 220.039C65.5179 211.01 73.4832 207.27 83.4542 204.91Z" fill="#9F540F"/>
<path d="M37.793 205.078C41.002 210.934 44.8891 218.133 49.8937 222.629C54.0197 226.346 60.3424 226.186 63.1217 231.181C61.7081 232.506 59.4733 233.217 57.5058 233.322C54.9748 231.6 52.7113 229.591 50.4573 227.522C43.6285 221.232 38.2228 214.684 37.793 205.078Z" fill="#C26510"/>
<path d="M6.34113 215.785C6.09281 226.576 14.383 248.061 21.8326 256.09C23.0646 257.421 24.0197 257.927 25.7579 258.329C27.4771 256.532 27.1714 254.124 27.3911 251.692C27.3911 248.97 27.9642 246.221 28.3844 243.535L30.7911 243.876L32.1474 246.268L31.9945 247.47L31.6221 269.62C29.9508 276.376 33.0069 284.908 30.4569 291.131C29.3585 289.92 28.3653 288.854 27.6299 287.368C21.9376 283.394 17.506 279.581 13.7621 273.64C3.40906 257.253 2.12924 234.328 6.34113 215.785Z" fill="#C26510"/>
<path d="M28.3859 243.535L30.7926 243.876L32.1488 246.268L31.996 247.47L31.6236 269.62C29.9522 276.376 33.0084 284.908 30.4583 291.131C29.36 289.92 28.3668 288.854 27.6313 287.368C27.7269 275.609 28.5196 263.39 27.3926 251.693C27.3926 248.97 27.9657 246.221 28.3859 243.535Z" fill="#8F4C0E"/>
<path d="M133.338 31.3023C134.837 25.9095 134.541 22.4322 139.947 19.1049C146.021 15.3658 152.745 17.9069 155.973 23.8891C157.988 27.6807 158.361 32.1343 156.995 36.2078C155.687 40.2258 153.71 41.4935 150.644 44.0184L148.228 41.1143C145.592 38.1862 144.512 37.5013 141.389 35.3232C139.498 35.2152 135.238 32.4038 133.338 31.3023Z" fill="#CE6F17"/>
<path d="M141.391 35.3234C143.043 31.3236 143.501 29.5744 146.519 26.4572L148.277 25.9375C150.091 27.9322 149.767 26.8422 149.843 29.0852L146.539 32.297C146.634 38.6871 148.993 32.2435 148.229 41.1146C145.593 38.1865 144.514 37.5016 141.391 35.3234Z" fill="#4D2809"/>
<path d="M196.373 189.496C199.84 190.338 203.174 190.165 206.698 190.044C199.64 200.654 191.331 208.151 178.857 211.475C176.183 211.726 173.967 211.543 171.732 213.124L171.188 214.809L168.896 214.135C168.189 210.341 166.499 207.6 166.89 203.525C173.385 204.082 179.688 202.846 185.562 200.02C189.974 197.895 194.731 194.252 196.373 189.496Z" fill="#C26510"/>
<path d="M166.89 203.523C167.081 203.665 167.282 203.804 167.482 203.949C172.086 207.326 172.506 210.875 178.857 211.474C176.183 211.725 173.967 211.541 171.732 213.122L171.188 214.808L168.896 214.134C168.189 210.34 166.499 207.599 166.89 203.523Z" fill="#C26510"/>
<path d="M90.8945 230.462C91.458 228.533 91.4103 228.525 93.0913 227.439L97.4464 228.54C106.099 232.086 135.411 238.967 139.9 245.212C139.9 250.994 138.629 260.598 140.922 265.778C140.177 271.124 137.913 276.314 136.242 281.439C136.06 271.819 136.07 262.197 136.27 252.577C136.108 249.309 136.165 248.516 134.351 245.855C120.664 238.976 104.39 237.493 90.8945 230.462Z" fill="#8F4C0E"/>
<path d="M168.896 214.135L171.189 214.808C175.467 214.957 179.421 214.82 183.662 214.258C187.616 221.472 196.068 234.79 194.464 243.032C191.054 248.548 182.487 248.531 175.076 260.304L170.09 252.912C172.574 248.672 172.612 244.438 172.077 239.709L173.557 239.777C174.073 244.151 172.612 249.231 173.509 253.328C173.844 254.835 173.911 255.422 175.238 256.21C178.743 248.908 186.336 248.418 191.971 243.537C192.372 238.146 191.446 233.806 189.287 228.9C187.072 233.482 191.962 238.608 188.179 243.446C186.26 245.909 180.644 246.356 177.654 246.705L178.247 245.489C181.141 245.032 183.633 244.501 186.317 243.328C188.571 240.34 188.504 238.14 188.332 234.455C188.141 230.333 187.988 227.01 184.76 224.091C181.255 222.829 178.314 224.427 174.742 224.741C171.838 221.953 170.501 217.775 168.896 214.135Z" fill="#C26510"/>
<path d="M139.9 245.213C142.278 250.845 140.654 258.465 142.985 263.039C147.817 261.255 147.369 258.82 150.406 255.248C154.818 250.055 161.265 246.802 165.649 241.614C168.275 238.511 169.66 232.876 172.879 230.854C174.254 233.154 173.624 237.132 173.557 239.778L172.076 239.71C172.611 244.439 172.573 248.673 170.09 252.913L167.1 252.686C159.536 252.899 156.365 253.145 151.084 258.776C147.082 263.04 146.662 264.13 140.922 265.779C138.63 260.599 139.9 250.994 139.9 245.213Z" fill="#C26510"/>
<path d="M172.076 239.709C172.61 244.438 172.572 248.672 170.089 252.911L167.1 252.685C169.077 248.441 170.605 244.157 172.076 239.709Z" fill="#7B3909"/>
<path d="M37.7741 204.368C35.9213 201.157 35.7494 198.899 35.7207 195.328L36.4275 194.205C38.4427 194.976 39.4551 198.362 40.3719 200.363C44.5074 209.389 51.7756 215.035 59.846 220.581L58.7572 224.164C57.9454 223.63 57.1718 223.077 56.379 222.514C49.7031 217.756 44.049 210.766 39.1685 204.235L37.7741 204.368Z" fill="#C26510"/>
<path d="M75.8238 191.567C74.735 188.881 73.5411 187.076 74.0378 184.133C74.8878 184.195 75.4227 183.989 76.0149 184.659C77.7436 186.618 78.2402 188.545 78.8897 191.03L75.8238 191.567Z" fill="#B35D0C"/>
<path d="M150.635 99.5648C150.797 103.92 158.686 116.844 159.727 125.039C161.054 135.483 158.896 147.959 152.23 156.354C146.881 162.983 139.107 167.197 130.635 168.056C122.316 168.971 113.778 167.203 107.245 161.778C100.474 156.158 97.1979 147.666 96.3861 139.087C95.0968 125.417 99.8531 107.917 108.917 97.4297C113.749 91.8057 120.683 88.4221 128.085 88.0734C136.643 87.7075 143.586 93.4002 149.67 98.6381L150.635 99.5648Z" fill="#A85914"/>
<path d="M128.63 114.066C130.301 115.261 131.543 116.539 133.797 115.838C134.208 115.71 134.59 115.497 134.991 115.326L135.841 116.807C132.603 121.003 134.255 135.865 134.351 141.537C137.264 143.368 140.406 144.941 141.906 148.201L141.333 149.368C137.703 149.308 134.79 146.319 132.011 144.199C129.327 146.108 125.641 149.278 122.556 150.303C120.779 150.892 120.283 151.086 118.611 150.352C120.894 145.485 126.013 143.4 130.578 141.184C130.722 133.48 132.469 122.722 127.904 116.127L128.63 114.066Z" fill="#4D2809"/>
<path d="M127.903 116.126C126.509 116.973 125.315 117.115 123.739 117.418C121.619 116.956 119.833 116.419 118.276 114.817C116.223 112.695 116.003 110.685 116.146 107.965L117.885 106.446C120.807 106.052 122.297 106.862 124.876 108.168C126.346 110.037 127.913 111.751 128.629 114.065L127.903 116.126Z" fill="#3A1A01"/>
<path d="M138.486 107.879C141.341 106.548 142.096 105.968 145.152 106.361C146.375 108.188 146.728 108.464 146.337 110.623C145.974 112.611 144.55 114.352 142.917 115.477C140.854 116.896 138.257 116.942 135.84 116.807L134.99 115.326C135.783 112.612 137.12 110.331 138.486 107.879Z" fill="#3A1A01"/>
<path d="M124.877 108.168C129.471 107.797 133.883 107.628 138.487 107.878C137.121 110.33 135.784 112.611 134.991 115.325C134.59 115.496 134.208 115.708 133.797 115.837C131.543 116.537 130.302 115.259 128.63 114.065C127.914 111.751 126.348 110.036 124.877 108.168Z" fill="#8F4C0E"/>
<path d="M65.6521 104.98C67.7724 105.06 69.864 105.355 71.9175 105.953C75.5086 107.004 78.6603 109.763 80.2362 113.161C81.4969 115.851 81.5351 118.959 80.3222 121.675C78.5935 125.643 75.5754 127.014 71.8315 128.527C70.0837 128.449 68.355 128.309 66.6358 127.986C62.8728 127.279 59.3105 125.236 57.2666 121.922C55.939 119.779 55.6048 117.255 56.1873 114.818C57.3716 109.873 61.593 107.369 65.6521 104.98Z" fill="#F88C44"/>
<path d="M65.6049 114.416C66.7128 113.71 66.8752 113.657 68.1072 113.553L66.8083 117.135L65.1656 117.208L64.2773 116.099L65.6049 114.416Z" fill="#CE6F17"/>
<path d="M74.1897 113.035C75.2307 113.862 75.2116 114.142 75.7082 115.316L73.4638 119.563C73.3492 119.454 73.206 119.369 73.1296 119.235C72.0312 117.361 73.5116 114.955 74.1897 113.035Z" fill="#CE6F17"/>
<path d="M82.1084 83.9061C82.3281 83.8946 82.5477 83.8755 82.7769 83.8726C85.8713 83.8382 88.2782 84.0169 90.5799 86.3612C92.7766 88.61 93.5598 91.6069 93.3114 94.6849C92.8912 99.8818 90.6754 102.56 86.9219 105.748C83.7892 105.774 81.115 105.43 78.6891 103.235C76.7694 101.489 75.929 98.9694 75.8908 96.4206C75.8049 90.8292 78.3072 87.5344 82.1084 83.9061Z" fill="#1F1302"/>
<path d="M167.081 102.457C170.051 103.809 173.117 105.765 174.903 108.56C176.641 111.269 177.09 114.166 176.221 117.266C175.17 121 172.487 122.445 169.402 124.336C167.043 123.025 164.111 121.342 162.42 119.212C160.863 117.258 160.061 114.774 160.395 112.28C160.987 107.876 163.881 105.143 167.081 102.457Z" fill="#F88C44"/>
<path d="M149.67 98.6384C148.237 94.7522 147.492 90.6921 149.192 86.7362C150.434 83.8492 151.904 82.5357 154.598 81.2852C157.32 81.9692 158.695 82.8079 160.195 85.308C162.172 88.5885 163.757 94.114 162.372 97.8502C161.713 99.6271 160.768 100.835 158.991 101.522C156.68 102.416 154.502 101.656 152.42 100.568C151.819 100.251 151.226 99.908 150.634 99.565L149.67 98.6384Z" fill="#1F1302"/>
<path d="M143.052 172.424L143.836 172.758L144.027 174.231C142.728 175.851 141.429 177.177 139.614 178.233C131.162 183.144 120.369 181.379 111.42 179.106C109.319 177.842 107.39 176.921 106.139 174.752C107.504 173.82 138.965 172.784 143.052 172.424Z" fill="#C26510"/>
<path d="M57.84 27.6379C65.0031 25.3786 67.7728 30.9089 66.3116 37.3352C64.2677 39.5133 63.7616 40.2833 61.2211 41.7382L58.9861 40.8661C56.7512 37.6906 55.9777 36.8117 54.8984 32.9418C55.7962 29.1253 55.0512 30.5363 57.84 27.6379Z" fill="#4D2809"/>
<path d="M58.9861 40.8649C56.7512 37.6894 55.9777 36.8106 54.8984 32.9406C55.7962 29.1241 55.0512 30.5351 57.84 27.6367C59.5783 29.5091 61.3547 31.3404 63.1693 33.1288C62.8733 36.6071 60.6861 36.7485 58.9861 40.8649Z" fill="#9F540F"/>
<path d="M90.0169 62.7734C91.2681 64.2198 91.1726 64.301 91.2203 66.2317C88.6512 70.4466 83.6562 71.4869 79.2055 72.7278C78.728 71.9769 78.5942 71.1162 78.3555 70.2631C80.3229 67.3838 86.1202 65.563 89.1956 63.3629L90.0169 62.7734Z" fill="#7B3909"/>
<path d="M144.99 62.7832C147.645 63.8016 150.358 64.775 152.936 65.9673C155.744 67.2646 156.403 67.7995 157.368 70.5996C157.072 70.6168 156.776 70.6416 156.48 70.6521C153.338 70.7667 148.82 70.0751 146.547 67.7241C144.799 65.9128 145.038 65.1763 144.99 62.7832Z" fill="#4D2809"/>
<path d="M181.264 171.707C183.231 169.492 182.945 168.063 182.725 165.221C182.429 161.306 181.025 157.275 183.766 153.889C184.005 153.597 184.263 153.322 184.501 153.039C187.319 154.454 187.348 158.736 189.993 159.57C191.789 153.455 191.473 144.906 196.765 140.141L198.455 140.338C200.728 145.189 199.009 152.227 199.028 157.538C200.776 152.504 202.008 147.375 205.494 143.232L207.127 143.054C209.61 148.458 207.452 154.092 207.118 159.737C208.885 155.528 210.585 149.039 214.252 146.259L215.694 146.542C216.869 151.091 212.781 156.164 214.099 159.32C216.382 158.947 217.633 156.8 219.161 155.111C220.46 156.566 220.097 158.826 219.983 160.749C219.39 170.53 212.877 180.746 207.366 188.475C206.831 189.224 207.003 188.985 206.697 190.044C203.173 190.165 199.84 190.337 196.373 189.496C192.753 188.052 189.955 186.278 187.166 183.538C183.871 180.305 181.273 176.479 181.264 171.707Z" fill="#9F540F"/>
<path d="M192.754 171.222C193.107 168.243 193.986 164.32 196.565 162.471C198.332 161.2 200.223 161.085 202.238 161.782C204.912 162.703 206.326 165.945 207.558 168.269C207.491 171.49 206.727 175.041 204.339 177.369C203.317 178.368 201.884 179.05 200.404 179.058C198.179 179.062 196.097 177.973 194.826 176.143C193.909 174.805 193.327 172.75 192.754 171.222Z" fill="#7B3909"/>
<path d="M207.558 168.268C207.491 171.488 206.727 175.039 204.339 177.367C203.317 178.366 201.884 179.048 200.404 179.056C198.179 179.061 196.097 177.972 194.826 176.141C193.909 174.803 193.327 172.748 192.754 171.22C197.453 171.004 203.776 171.322 207.558 168.268Z" fill="#8B470F"/>
<path d="M157.827 255.699C162.297 255.087 167.053 255.844 170.673 258.778C174.35 261.759 175.305 265.048 175.802 269.575L173.5 272.452C171.342 274.324 170.081 275.39 169.326 278.192C164.274 282.283 160.062 284.842 156.357 290.371L153.128 287.796C149.155 287.172 147.092 285.553 144.246 282.922C143.129 279.552 142.088 275.678 142.403 272.129C143.176 270.226 143.816 269.358 145.602 268.274C147.15 267.331 148.152 266.489 149.337 265.109C149.47 264.955 149.594 264.796 149.728 264.639C151.896 260.781 154.408 258.38 157.827 255.699Z" fill="#80951E"/>
<path d="M149.728 264.641C150.55 267.102 151.276 270.833 153.033 272.736C152.364 274.577 151.954 274.95 152.804 276.809C153.52 278.364 154.781 279.732 155.86 281.051C156.261 284.078 155.335 284.95 153.51 287.333C153.386 287.491 153.253 287.643 153.128 287.797C149.155 287.174 147.092 285.554 144.246 282.923C143.129 279.553 142.088 275.679 142.403 272.13C143.176 270.227 143.816 269.359 145.602 268.276C147.15 267.332 148.152 266.49 149.337 265.111C149.47 264.956 149.594 264.797 149.728 264.641Z" fill="#758A15"/>
<path d="M157.827 255.699C162.297 255.087 167.053 255.844 170.673 258.778C174.35 261.759 175.305 265.048 175.802 269.575C174.722 270.028 173.557 270.326 172.44 270.675L169.517 268.84C168.667 269.097 168.075 269.295 167.168 269.256C164.331 269.135 161.829 268.356 159.842 266.406C157.913 262.925 156.958 259.657 157.827 255.699Z" fill="#92A426"/>
<path d="M159.861 263.801C161.656 263.557 163.079 262.704 164.665 261.875C167.11 264.331 168.638 265.401 169.517 268.841C168.667 269.098 168.074 269.296 167.167 269.258C164.331 269.136 161.828 268.357 159.842 266.407L159.861 263.801Z" fill="#9EA523"/>
<path d="M159.861 263.801C160.358 262.284 161.198 261.263 162.173 260.033L163.691 259.961L164.665 261.875C163.08 262.705 161.657 263.558 159.861 263.801Z" fill="#D1D050"/>
<path d="M153.033 272.735C155.382 274.733 157.349 276.331 160.597 276.153C165.315 275.895 168.705 271.988 173.5 272.452C171.341 274.325 170.081 275.39 169.326 278.192C164.274 282.284 160.062 284.843 156.356 290.371L153.128 287.797C153.252 287.642 153.386 287.49 153.51 287.332C155.334 284.949 156.261 284.078 155.86 281.05C154.78 279.731 153.52 278.363 152.803 276.809C151.953 274.95 152.364 274.576 153.033 272.735Z" fill="#4F5F0E"/>
<path d="M104.915 308.867C109.452 304.1 114.113 300.369 121.132 300.424C124.771 300.452 128.773 301.992 131.361 304.578C132.966 306.187 134.227 308.252 135.325 310.231C135.516 311.973 135.879 313.9 135.659 315.647C135.392 317.758 133.797 319.833 132.192 321.137C128.802 323.897 123.931 324.395 119.709 323.865C114.619 323.226 108.525 320.797 105.517 316.454C103.626 313.714 104.199 311.82 104.915 308.867Z" fill="#9EA523"/>
<path d="M135.325 310.231C135.516 311.974 135.879 313.901 135.659 315.648C135.392 317.758 133.797 319.833 132.192 321.137C128.802 323.898 123.931 324.396 119.709 323.866C114.619 323.226 108.525 320.797 105.517 316.454C103.626 313.714 104.199 311.821 104.915 308.867C109.929 313.67 114.829 316.808 122.04 316.777C126.634 316.757 131.208 315.072 134.303 311.595C134.771 311.067 134.886 310.853 135.325 310.231Z" fill="#758A15"/>
<path d="M117.733 305.511C118.555 305.441 119.376 305.371 120.197 305.35C122.824 305.283 124.658 305.388 126.568 307.177L126.014 308.952C124.629 309.111 123.244 309.257 121.859 309.388C119.558 309.584 118.784 309.992 116.988 308.508L117.733 305.511Z" fill="#D1D050"/>
<path d="M146.891 300.781C150.119 299.394 153.07 299.196 156.423 300.144L164.102 305.409L165.353 304.528C166.89 306.077 166.862 307.801 166.804 309.989C166.718 313.602 164.694 316.821 161.943 319.035C158.104 322.116 152.841 323.471 147.98 322.852C144.924 322.462 141.705 321.182 139.843 318.602C137.99 316.041 138.553 313.348 139.059 310.433C141.151 306.63 143.883 303.851 146.891 300.781Z" fill="#758A15"/>
<path d="M146.891 300.781C150.119 299.394 153.07 299.196 156.422 300.144L164.101 305.409L162.783 309.744C159.727 309.638 156.671 310.643 153.719 311.362C152.249 310.975 150.51 310.65 149.288 309.705C146.814 307.813 147.091 303.645 146.891 300.781Z" fill="#C0BF44"/>
<path d="M156.424 300.145L164.102 305.41L162.784 309.745C159.728 309.639 156.672 310.644 153.721 311.363C155.44 307.916 155.449 303.883 156.424 300.145Z" fill="#9EA523"/>
<path d="M139.061 310.434C141.152 306.631 143.884 303.852 146.892 300.781C147.093 303.645 146.816 307.813 149.289 309.706C150.512 310.651 152.25 310.975 153.721 311.362C156.672 310.644 159.728 309.639 162.785 309.745C162.603 309.962 162.422 310.182 162.24 310.396C159.394 313.726 156.443 315.722 151.954 315.94C146.911 316.184 142.718 313.573 139.061 310.434Z" fill="#80951E"/>
<path d="M199.076 280.436C197.672 280.327 195.981 280.118 194.778 279.338C192.314 277.732 187.395 273.202 186.727 270.44C187.376 269.268 187.949 268.345 189.067 267.564C194.921 263.495 204.778 262.21 211.692 263.471L216.124 265.047C215.962 268.901 214.309 272.292 212.886 275.826C211.148 279.14 206.735 285.522 202.972 286.498C201.158 286.968 198.942 287.443 197.204 286.581L197.748 285.685L201.826 285.384L203.068 283.239C202.17 281.3 200.995 281.263 199.076 280.436Z" fill="#80951E"/>
<path d="M211.694 263.471L216.125 265.047C215.562 265.302 214.96 265.403 214.358 265.558C213.757 265.717 213.146 265.899 212.534 266.037C206.632 267.351 200.968 275.189 195.486 274.843C195.104 272.389 195.381 271.428 196.9 269.373C200.166 264.978 206.661 263.973 211.694 263.471Z" fill="#ACB235"/>
<path d="M212.887 275.826C211.149 279.14 206.737 285.523 202.974 286.498C201.159 286.968 198.943 287.444 197.205 286.581L197.749 285.685L201.828 285.384L203.069 283.239C202.171 281.3 200.997 281.264 199.077 280.436C203.47 278.107 207.759 275.348 212.887 275.826Z" fill="#687E15"/>
<path d="M173.223 301.558C174.923 298.886 176.47 296.864 179.746 296.242C183.28 295.582 186.919 296.379 189.851 298.451C192.057 300.02 194.063 301.906 194.531 304.572C193.633 306.151 192.716 307.776 191.408 309.054C188.495 311.895 184.111 313.558 180.042 313.277C177.741 313.117 175.162 311.958 173.882 309.953C171.962 306.931 172.717 304.821 173.223 301.558Z" fill="#92A426"/>
<path d="M194.531 304.573C193.633 306.152 192.716 307.777 191.408 309.055C188.495 311.896 184.111 313.558 180.042 313.277C177.741 313.118 175.162 311.959 173.882 309.954C171.962 306.932 172.717 304.822 173.223 301.559C174.828 303.867 175.859 304.835 178.553 305.724C181.466 306.542 183.853 307.01 186.89 306.857C189.249 304.977 191.647 304.92 194.531 304.573Z" fill="#80951E"/>
<path d="M178.553 305.723C180.301 303.365 180.329 302.696 183.28 302.006C185.276 303.334 186.222 304.484 186.891 306.856C183.853 307.009 181.466 306.542 178.553 305.723Z" fill="#D1D050"/>
<path d="M189.268 249.686C193.308 250.923 193.098 253.726 195.753 254.376L198.313 251.011C200.567 250.798 200.538 251.119 202.229 252.478C202.945 255.003 203.127 255.983 201.981 258.519C200.739 261.297 195.658 262.219 192.974 263.044C190.415 264.734 186.575 267.353 183.443 267.665C181.265 267.882 180.959 267.51 179.278 266.153C179.135 265.142 178.973 264.161 179.106 263.137C179.861 257.446 185.209 253.157 189.268 249.686Z" fill="#9F540F"/>
<path d="M135.917 290.857C137.397 290.849 138.887 290.707 140.367 290.615C142.144 287.774 143.892 286.361 144.245 282.924C147.091 285.555 149.154 287.174 153.127 287.798L156.355 290.372L154.617 292.292L153.481 292.135C147.903 291.424 142.258 291.547 136.709 292.501L134.818 291.167L135.917 290.857Z" fill="#4C3E14"/>
<path d="M212.227 0.64885C240.689 -3.8478 267.44 15.503 272.072 43.9502C276.714 72.3965 257.508 99.2465 229.084 104.03C200.47 108.847 173.394 89.4641 168.714 60.8143C164.044 32.1646 183.565 5.17798 212.227 0.64885Z" fill="#DC4E29"/>
<path d="M193.842 18.5346C199.391 15.2073 206.134 10.81 212.475 10.0305C255.559 4.73422 273.963 48.0758 251.376 80.9767L239.877 69.1203L237.651 66.2008C235.646 63.6979 232.971 61.5198 230.641 59.3112C225.455 53.8114 232.99 52.2218 222.265 48.6633C218.588 47.494 219.027 47.1864 217.499 43.9383C213.516 40.0464 211.883 38.6325 209.028 33.9075L208.034 33.2149C203.67 31.0874 197.194 22.6033 193.842 18.5346Z" fill="#F8F3EF"/>
<path d="M231.377 34.6591C239.552 29.7173 238.063 22.8677 245.082 21.6621C247.461 23.2068 247.355 23.0903 248.377 25.7413C248.263 30.4625 246.248 31.2362 245.445 34.4614C244.328 38.9246 250.297 42.6436 247.289 48.3516C243.22 56.0772 238.034 53.3536 243.975 61.9772C243.64 65.6131 242.198 66.4309 239.877 69.1191L237.652 66.1997C235.646 63.6967 232.972 61.5187 230.642 59.31C225.455 53.8102 232.991 52.2206 222.266 48.6621C225.074 41.845 231.482 38.0218 231.377 34.6591Z" fill="#687E15"/>
<path d="M230.643 59.311C233.46 57.9822 235.256 57.1291 238.426 57.8103L240.146 59.2346C240.375 62.2926 239.725 63.7914 237.653 66.2007C235.647 63.6978 232.973 61.5197 230.643 59.311Z" fill="#9EA523"/>
<path d="M209.029 33.9069C213.107 33.2277 214.062 32.8608 217.443 35.0313L220.318 34.1056C221.273 36.2493 222.247 38.3844 223.25 40.5109L224.788 40.5329C226.956 38.3615 228.78 36.2779 231.378 34.6596C231.483 38.0223 225.075 41.8455 222.267 48.6626C218.59 47.4933 219.029 47.1857 217.501 43.9377C213.518 40.0457 211.885 38.6319 209.029 33.9069Z" fill="#4F3F09"/>
<path d="M209.029 33.9069C213.107 33.2277 214.062 32.8608 217.443 35.0313L217.501 43.9377C213.518 40.0457 211.885 38.6319 209.029 33.9069Z" fill="#F8F3EF"/>
<path d="M208.035 33.215C210.299 30.9318 210.595 30.2315 213.584 29.7969C216.812 30.9413 217.739 31.9254 220.317 34.1063L217.443 35.032C214.062 32.8616 213.107 33.2284 209.028 33.9076L208.035 33.215Z" fill="#6D732A"/>
<path d="M187.95 25.4277C196.526 33.8593 205.924 45.8083 214.587 53.0869L216.822 56.0522L216.726 56.6091C216.43 58.4748 216.316 58.8149 216.593 60.7503C221.607 64.222 219.888 60.0033 224.692 65.1381C227.758 68.4091 231.692 72.0603 234.902 75.2377C237.958 79.2997 241.625 83.4524 244.93 87.3548C240.508 90.3077 235.274 93.0724 230.136 94.4795C220.184 97.2557 209.535 95.8562 200.633 90.6029C190.758 84.8806 183.633 75.3829 180.901 64.2965C177.205 49.4538 180.376 38.035 187.95 25.4277Z" fill="#F8F3EF"/>
<path d="M214.587 53.0879L216.822 56.0532L216.727 56.6101C216.43 58.4759 216.316 58.8159 216.593 60.7514C221.607 64.223 219.888 60.0043 224.692 65.1391C227.758 68.4101 231.693 72.0613 234.902 75.2387C233.813 76.2064 230.002 79.2854 228.713 79.2281C221.206 78.8956 194.779 87.8335 192.85 76.8761C196.412 65.5241 206.918 60.6501 214.587 53.0879Z" fill="#4F5F0E"/>
<path d="M195.791 76.6383C199.105 72.1846 203.68 63.8715 209.277 62.793C211.397 64.1839 213.804 65.5108 215.638 67.2533C215.752 67.7405 215.857 68.2297 215.953 68.7207C216.64 72.3337 216.258 74.1841 214.262 77.0911C208.952 80.0717 201.502 77.6996 195.791 76.6383Z" fill="#80951E"/>
<path d="M209.276 62.793C211.396 64.1839 213.803 65.5108 215.637 67.2533C213.192 68.5506 210.881 69.825 208.206 70.616C207.29 68.0959 208.608 65.3694 209.276 62.793Z" fill="#D1D050"/>
<path d="M82.2106 90.0568C83.6241 89.1683 85.4789 89.4865 86.5161 90.7933C87.5543 92.1011 87.4425 93.9803 86.2573 95.1563C85.3652 96.0409 84.0463 96.337 82.862 95.9186C81.6767 95.5001 80.8363 94.4407 80.6978 93.1921C80.5593 91.9435 81.1467 90.7255 82.2106 90.0568Z" fill="#F8F3EF"/>
<path d="M154.211 88.0568C155.624 87.1683 157.479 87.4865 158.516 88.7933C159.554 90.1011 159.443 91.9803 158.257 93.1563C157.365 94.0409 156.046 94.337 154.862 93.9186C153.677 93.5001 152.836 92.4407 152.698 91.1921C152.559 89.9435 153.147 88.7255 154.211 88.0568Z" fill="#F8F3EF"/>
</svg>
