<svg width="288" height="333" viewBox="0 0 288 333" fill="none" xmlns="http://www.w3.org/2000/svg">
<path d="M54.3988 45.3882L54.0941 44.9249C49.7437 38.2234 47.1526 32.0912 49.1086 23.9902C50.4324 18.5067 54.0177 13.4388 58.9994 10.7123C62.9305 8.56096 67.5684 7.97726 71.8519 9.38635C78.5403 11.5874 81.5163 16.7441 84.416 22.646C105.139 16.6725 122.179 16.5158 143.056 22.0901C143.301 21.6162 143.55 21.1433 143.802 20.6733C146.585 15.4802 149.633 11.1135 155.663 9.50383C159.858 8.34504 164.349 9.05672 167.981 11.4555C172.08 14.1208 174.8 18.542 175.771 23.289C177.255 30.5398 174.89 36.1293 171.01 42.1153C176.299 48.7126 179.756 56.635 183.223 64.2842C184.238 68.9261 185.872 73.4094 188.083 77.6147C193.868 98.2503 200.645 116.677 198.533 138.563C197.717 147.026 190.152 158.075 189.975 161.438C189.917 162.538 192.172 164.414 193.016 164.894C195.282 164.238 195.862 163.839 197.094 161.747C199.59 157.51 199.337 151.381 203.848 148.966C205.695 149.171 207.095 149.635 208.831 148.89C211.735 143.83 213.098 137.057 218.965 134.815C221.107 135.247 221.942 136.191 223.386 137.693C226.385 137.104 229.253 136.626 232.317 136.476L232.195 139.674C234.956 140.782 237.659 141.941 240.353 143.207C240.339 143.408 240.318 143.608 240.312 143.809C240.184 148.767 244.52 151.019 245.431 155.782C248.383 171.218 233.446 191.585 223.232 201.891C217.797 207.374 212.568 210.873 205.631 214.181C208.591 219.14 210.244 225.362 213.313 229.935L214.626 229.28C217.138 227.861 217.648 227.244 220.595 227.542C224.462 232.202 224.457 243.165 223.809 248.929C223.407 252.506 221.816 256.131 220.601 259.509C229.716 260.112 242.516 262.104 249.091 269.248C251.405 271.761 252.675 275.184 252.363 278.607C251.973 282.88 249.005 287.825 246.668 291.359C248.649 292.951 251.164 294.894 252.134 297.315C252.91 299.214 252.869 301.35 252.02 303.218C246.676 314.738 222.231 314.724 211.676 318.322C212.142 319.498 212.655 320.64 213.187 321.787C212.94 322.153 212.691 322.518 212.416 322.864C207.978 328.443 199.856 330.888 193.077 331.739C176.539 333.816 161.232 331.412 147.948 321.066C146.974 322.746 145.946 324.446 144.533 325.798C138.27 331.799 126.012 332.792 117.845 332.769C107.09 332.739 96.6476 331.321 88.8618 323.401C71.5119 323.673 52.7895 323.242 36.1807 317.668C31.5132 316.101 27.8161 313.685 25.6347 309.136C25.2737 308.383 24.3301 305.739 23.7618 305.267C17.1135 299.741 7.5799 299.377 1.75488 291.107C0.324175 289.077 -0.40455 286.654 0.231532 284.194C1.36139 279.823 6.06611 276.766 9.70496 274.651C7.982 271.036 6.33928 267.019 5.40521 263.12C3.35657 254.575 3.7023 245.421 3.99265 236.7C4.6612 216.633 7.8244 197.72 14.1375 178.649C18.4325 165.678 23.6701 152.917 27.0139 139.657C35.1893 107.24 36.7986 74.849 54.3988 45.3882Z" fill="#4D2809"/>
<path d="M9.70496 274.652C15.954 284.97 20.6645 287.363 29.3433 294.83C39.6514 303.701 46.5385 312.351 60.4435 315.726C70.8223 318.245 83.2087 317.119 93.0948 313.135C98.1271 320.473 103.971 325.644 112.967 327.381C120.77 328.816 128.825 327.127 135.395 322.678C143.713 317.034 146.682 309.376 149.188 300.048C152.85 310.422 157.31 318.83 167.692 323.753C175.737 327.568 185.825 328.038 194.17 324.899C202.47 321.776 206.958 316.405 211.423 309.05C223.517 308.73 234.145 305.166 242.626 296.274C244.091 294.738 245.392 293.053 246.668 291.36C248.649 292.952 251.164 294.894 252.134 297.316C252.91 299.215 252.869 301.351 252.02 303.219C246.676 314.739 222.231 314.725 211.676 318.323C212.142 319.498 212.655 320.641 213.187 321.788C212.94 322.154 212.691 322.519 212.416 322.865C207.978 328.444 199.856 330.889 193.077 331.74C176.539 333.817 161.232 331.413 147.948 321.067C146.974 322.747 145.946 324.447 144.533 325.799C138.27 331.8 126.012 332.793 117.845 332.77C107.09 332.74 96.6476 331.321 88.8618 323.402C71.5119 323.674 52.7895 323.243 36.1807 317.669C31.5132 316.102 27.8161 313.686 25.6347 309.137C25.2737 308.383 24.3301 305.74 23.7618 305.268C17.1135 299.742 7.5799 299.378 1.75488 291.108C0.324175 289.078 -0.40455 286.655 0.231532 284.195C1.36139 279.824 6.06611 276.766 9.70496 274.652Z" fill="#E4CBAF"/>
<path d="M213.314 229.937L214.626 229.281L218.525 233.524L219.952 235.351C219.539 236.955 219.388 238.541 218.244 239.778C214.653 242.933 212.294 248.384 208.225 250.459C207.868 250.641 207.522 250.845 207.169 251.035C206.911 251.171 206.649 251.302 206.39 251.437C203.456 254.363 202.103 257.633 200.468 261.369C198.974 260.243 197.193 259.149 196.538 257.312C194.055 250.357 204.747 249.978 206.799 245.538L205.864 244.85L202.058 248.302C199.287 244.827 195.453 242.539 192.918 238.942C198.272 234.117 208.32 236.023 212.998 230.361C213.11 230.225 213.209 230.078 213.314 229.937Z" fill="#B35D0C"/>
<path d="M218.524 233.523L219.952 235.351C219.538 236.955 219.387 238.541 218.243 239.778C216.128 239.971 214.432 240.354 212.553 239.123L212.344 237.64C214.058 235.257 215.858 234.615 218.524 233.523Z" fill="#9F540F"/>
<path d="M219.953 235.352C220.313 244.065 220.618 252.79 215.124 260.171C213.71 260.071 213.119 259.965 212.002 259.075L212.29 255.414L208.275 258.028C208.177 254.7 208.398 254.016 206.391 251.437C206.649 251.302 206.911 251.172 207.169 251.035C207.522 250.846 207.868 250.641 208.225 250.459C212.294 248.384 214.653 242.933 218.244 239.778C219.388 238.541 219.539 236.956 219.953 235.352Z" fill="#9F540F"/>
<path d="M206.39 251.436C208.398 254.015 208.176 254.699 208.275 258.026L212.29 255.413L212.001 259.073C213.119 259.964 213.71 260.07 215.124 260.169C210.42 260.351 197.504 267.449 195.241 266.122C195.028 264.114 194.542 263.079 195.649 261.342L196.82 262.131L197.205 264.189C197.628 263.641 197.523 263.933 197.592 263.34C197.883 263.215 198.179 263.103 198.466 262.969C199.47 262.498 199.81 262.21 200.468 261.368C202.103 257.632 203.456 254.362 206.39 251.436Z" fill="#8B470F"/>
<path d="M59.2954 44.2311C48.6405 33.9185 50.1591 16.4898 66.3343 12.6514C77.1353 10.0883 79.0731 25.3847 83.5658 28.5248C100.282 19.2908 129.804 19.6099 146.582 27.8829C148.346 22.1902 148.358 17.6887 154.44 14.4884C169.264 6.68736 180.244 32.3212 165.579 40.471C167.287 46.3557 173.935 52.6455 176.44 58.5455C180.019 66.977 182.797 75.593 185.543 84.3198C192.785 105.998 199.738 130.984 188.823 152.842C186.68 157.214 183.772 161.166 180.235 164.512L182.86 167.204C187.856 166.719 193.119 165.832 197.942 167.541C198.974 169.049 199.417 169.994 199.803 171.831C200.938 178.661 204.237 183.252 209.801 187.203C211.614 188.491 213.484 189.409 215.549 190.235C219.359 191.045 222.888 191.463 226.781 191.568C223.119 196.488 218.045 202.847 212.865 206.253C206.2 210.637 191.651 210.297 187.365 214.304C190.942 216.19 195.469 215.971 199.418 215.839L201.787 215.722C203.608 217.494 204.348 219.141 205.316 221.47C206.393 224.509 207.538 226.202 206.571 229.419C203.059 232.601 196.617 232.833 192.134 234.163C185.709 237.859 180.014 240.471 172.782 242.055C169.122 236 163.76 224.606 156.403 222.686C153.361 221.892 150.574 222.97 148.042 224.638C142.114 228.544 135.782 236.808 131.804 242.711C127.958 244.648 125.828 245.137 121.71 243.882C117.399 242.568 111.408 238.754 109.304 234.742C110.13 233.632 110.901 232.504 111.218 231.127C113.536 221.051 99.274 209.261 93.4585 201.869C90.684 198.342 88.3956 194.302 86.0977 190.45L82.7855 191.682C85.7959 197.521 89.2036 202.805 92.9275 208.196C101.552 216.265 105.719 222.385 109.867 233.489C104.872 229.09 99.9712 224.536 94.9045 220.225C96.9827 225.045 99.4325 229.046 99.6913 234.418L98.8337 236.314C96.3371 236.538 94.3152 235.371 92.47 233.743C89.6267 231.234 87.3556 228.206 84.4254 225.754C85.8141 228.757 89.9858 235.371 89.5943 238.467C84.2936 239.799 73.101 231.984 68.0324 229.622C53.2726 220.872 52.9116 213.524 43.3484 206.435C42.9626 210.167 49.4189 218.746 51.819 221.729C54.8199 225.457 63.5999 230.126 64.9217 233.366C63.0068 234.659 61.4796 235.159 59.2361 235.671C32.897 243.516 23.5134 263.176 28.3843 288.914C-20.4728 255.455 27.2573 166.098 34.5483 122.771C39.2253 94.9792 44.7935 68.7053 59.2954 44.2311Z" fill="#FF9A43"/>
<path d="M92.9283 208.195C101.553 216.265 105.72 222.385 109.868 233.488C104.872 229.089 99.972 224.535 94.9053 220.225C96.9835 225.044 99.4333 229.045 99.6921 234.418L98.8345 236.313C96.3379 236.538 94.316 235.37 92.4708 233.742C89.6275 231.234 87.3563 228.205 84.4262 225.753C85.8149 228.757 89.9866 235.37 89.595 238.466C84.2944 239.798 73.1018 231.984 68.0332 229.621L70.8631 226.893C71.078 225.704 71.333 224.475 71.8392 223.371C75.3596 215.706 85.5827 211.039 92.9283 208.195Z" fill="#9F540F"/>
<path d="M215.549 190.234C219.359 191.044 222.888 191.462 226.781 191.567C223.119 196.487 218.045 202.846 212.865 206.252C206.2 210.636 191.651 210.296 187.365 214.303C190.942 216.189 195.469 215.97 199.418 215.839L201.787 215.721C203.608 217.493 204.348 219.14 205.316 221.469C201.539 221.721 198.129 221.977 194.512 223.19C193.087 223.074 191.456 223.03 190.088 222.618C187.415 221.81 186.781 219.614 185.627 217.368C185.918 210.661 181.773 202.387 180.912 195.462L181.711 195.044C183.746 197.681 185.656 200.333 187.496 203.107C189.33 204.16 190.587 204.632 192.736 204.415C200.509 203.629 210.973 196.277 215.549 190.234Z" fill="#C26510"/>
<path d="M199.417 215.84L201.787 215.723C203.607 217.495 204.347 219.142 205.316 221.471C201.539 221.723 198.129 221.979 194.512 223.191C193.087 223.076 191.456 223.032 190.087 222.619C187.415 221.812 186.781 219.616 185.627 217.37C189.609 215.853 195.12 216.157 199.417 215.84Z" fill="#C26510"/>
<path d="M146.582 27.8829C148.346 22.1902 148.358 17.6888 154.44 14.4885C169.264 6.68739 180.244 32.3213 165.579 40.471C163.625 37.371 164.734 38.3989 161.004 36.794C158.398 34.0102 158.047 33.6902 154.418 32.5696C150.76 31.6067 149.453 30.2282 146.582 27.8829Z" fill="#CE6F17"/>
<path d="M154.418 32.5689C155.43 29.1031 156.873 25.3009 159.665 23.0263C163.25 22.177 161.733 22.1589 165.68 23.7189C165.781 28.8872 165.417 29.1384 163.337 33.7172L162.094 36.5191L161.003 36.7933C158.398 34.0095 158.046 33.6895 154.418 32.5689Z" fill="#4D2809"/>
<path d="M165.68 23.7188C165.78 28.887 165.416 29.1382 163.336 33.717L162.093 36.519C162.18 33.1391 160.442 32.4541 159.426 27.8285C161.618 24.7591 161.903 25.3284 165.68 23.7188Z" fill="#A85914"/>
<path d="M59.2353 235.671C54.7091 228.226 47.5107 223.029 43.4469 214.949C40.7984 209.685 38.0717 200.451 39.9293 194.695C44.5357 195.56 51.4609 211.726 55.2793 215.815C59.6335 220.477 65.2933 223.892 70.8614 226.894L68.0315 229.622C53.2718 220.873 52.9107 213.525 43.3475 206.436C42.9617 210.168 49.418 218.747 51.8181 221.73C54.819 225.458 63.599 230.127 64.9208 233.366C63.0059 234.66 61.4787 235.159 59.2353 235.671Z" fill="#C26510"/>
<path d="M194.513 223.191C198.13 221.979 201.54 221.723 205.317 221.471C206.394 224.51 207.539 226.202 206.572 229.42C203.06 232.602 196.617 232.834 192.135 234.164L190.721 232.539C191.016 228.942 192.777 226.263 194.513 223.191Z" fill="#E48E33"/>
<path d="M82.7862 191.682C81.2504 188.385 79.3288 185.462 80.2495 181.844L81.8512 181.924C84.3955 184.282 85.0669 187.246 86.0984 190.449L82.7862 191.682Z" fill="#C26510"/>
<path d="M182.861 167.203C182.665 167.462 182.49 167.737 182.273 167.98C180.682 169.76 179.84 170.548 177.495 170.596L176.428 169.13C177.248 166.271 177.898 166.196 180.236 164.512L182.861 167.203Z" fill="#A85914"/>
<path d="M168.45 115.116C171.133 121.272 171.749 129.193 171.194 135.838C170.38 145.582 166.659 154.743 159.013 161.093C151.472 167.356 140.588 170.015 130.929 168.958C123.048 168.094 116.238 164.321 111.373 158.056C104.25 148.881 103.04 137.066 104.469 125.868C106.051 113.482 110.768 99.8418 121.072 92.0168C126.889 87.544 134.28 85.6429 141.532 86.7568C148.776 87.9194 155.242 92.2327 159.439 98.1728L160.726 96.9787L164.119 100.647L162.635 101.81L163.463 104.168L164.964 106.378C167.761 105.509 169.39 105.475 172.133 106.88C172.408 107.021 172.678 107.171 172.949 107.315C171.599 110.335 171.253 112.561 171.261 115.86L168.45 115.116Z" fill="#A85914"/>
<path d="M138.99 115.402C140.896 115.691 142.508 116.044 144.403 115.464L145.51 116.313C141.818 121.953 143.613 134.655 143.712 141.323C147.072 143.417 150.522 145.069 151.51 149.169L149.568 149.56C146.42 148.252 143.743 146.219 140.982 144.258C137.213 146.392 133.599 149.839 129.363 150.855C127.879 151.211 128.054 151.305 126.68 150.46C130.111 145.552 134.4 143.548 139.701 141.177C139.908 133.377 141.31 122.973 138.378 115.752L138.99 115.402Z" fill="#4D2809"/>
<path d="M163.465 104.168L164.965 106.378C167.762 105.508 169.391 105.475 172.135 106.88C172.409 107.021 172.679 107.171 172.95 107.315C171.6 110.335 171.254 112.56 171.262 115.86L168.451 115.116C166.512 115.273 164.271 115.608 162.337 115.409C159.178 115.084 158.478 114.324 156.504 112.086L157.409 105.889C160.446 105.796 161.068 105.951 163.465 104.168Z" fill="#A85914"/>
<path d="M164.965 106.378C167.762 105.509 169.391 105.476 172.135 106.881C172.409 107.021 172.679 107.171 172.95 107.316C171.6 110.335 171.254 112.561 171.262 115.861L168.451 115.117L164.965 106.378Z" fill="#E48E33"/>
<path d="M138.38 115.753C135.132 116.616 132.052 117.028 128.954 115.389C126.583 114.137 125.454 112.442 124.564 109.991C124.969 107.609 124.78 107.557 126.835 106.022C130.091 105.497 132.33 106.848 135.202 108.177C136.577 110.49 138.196 112.82 138.991 115.404L138.38 115.753Z" fill="#4D2809"/>
<path d="M147.037 108.241C148.265 107.476 149.507 106.695 150.818 106.077C153.246 104.934 154.922 105.047 157.41 105.889L156.504 112.086C152.463 115.244 150.796 116.422 145.511 116.314L144.404 115.465L147.037 108.241Z" fill="#3A1A01"/>
<path d="M135.201 108.176C139.133 108.27 143.11 108.508 147.036 108.241L144.403 115.465C142.508 116.045 140.896 115.691 138.99 115.403C138.195 112.819 136.576 110.489 135.201 108.176Z" fill="#8F4C0E"/>
<path d="M159.44 98.1727L160.727 96.9785L164.121 100.647L162.637 101.81C161.594 100.763 160.399 99.8187 159.285 98.8442L159.44 98.1727Z" fill="#CB741B"/>
<path d="M70.5131 103.502C72.0307 103.515 73.4843 103.78 74.9628 104.094C79.4822 105.056 83.506 107.143 85.9433 111.248C87.4428 113.784 87.7637 116.848 86.8211 119.64C85.4505 123.586 82.4812 125.268 79.0372 127.108C77.4708 127.254 75.9332 127.217 74.3659 127.085C70.4271 126.755 66.4378 125.235 63.945 122.021C62.0864 119.624 61.4141 116.67 61.9881 113.702C62.9527 108.72 66.6269 106.173 70.5131 103.502Z" fill="#F88C44"/>
<path d="M81.2748 110.959C81.8669 114.21 80.4305 116.186 78.9186 118.904C78.6731 118.135 78.486 117.662 78.401 116.822C78.1517 114.347 79.8947 112.763 81.2748 110.959Z" fill="#CE6F17"/>
<path d="M71.4152 110.627L72.5403 111.526C73.0685 113.813 71.6798 115.151 70.5279 117.105C70.4792 117.052 70.4153 117.011 70.3828 116.948C69.208 114.642 70.5365 112.892 71.4152 110.627Z" fill="#CE6F17"/>
<path d="M90.5459 80.2285C93.9431 81.1131 96.686 82.8384 98.5169 85.9174C100.398 89.0824 100.633 92.6972 99.5694 96.186C98.112 100.97 95.4187 102.882 91.2526 105.1C88.0025 104.206 85.1592 103.02 83.2128 100.107C81.4143 97.4146 81.0056 94.3337 81.6837 91.1984C82.8298 85.9041 86.2251 82.9655 90.5459 80.2285Z" fill="#1F1302"/>
<path d="M172.95 107.315C175.697 105.123 178.124 102.64 181.899 103.129C183.891 103.387 185.622 104.257 186.796 105.921C188.848 108.827 189.144 112.934 188.26 116.3C187.662 118.578 186.307 121.106 184.173 122.286C182.533 123.192 180.587 123.196 178.848 122.595C175.457 121.421 173.166 118.777 171.262 115.86C171.254 112.561 171.6 110.335 172.95 107.315Z" fill="#F88C44"/>
<path d="M160.727 96.9792C159.719 92.9421 158.557 88.1015 160.808 84.265C162.367 81.6054 164.144 80.8154 166.915 80.1113C169.912 80.9539 171.481 82.2818 172.984 85.0503C174.785 88.3662 175.903 92.7023 174.881 96.4386C174.386 98.2431 173.169 99.9474 171.494 100.776C169.528 101.747 167.015 101.771 164.959 100.995C164.676 100.888 164.401 100.763 164.121 100.648L160.727 96.9792Z" fill="#1F1302"/>
<path d="M152.008 172.707C153.443 172.327 154.267 172.431 155.738 172.518L155.983 173.734C155.358 174.599 154.793 175.388 153.965 176.075C146.056 182.643 133.497 181.379 124.022 180.8C121.241 180.023 119.079 179.585 116.996 177.439L117.511 176.398C128.154 173.4 140.833 174.57 152.008 172.707Z" fill="#C26510"/>
<path d="M61.7757 23.002C72.9386 21.6588 75.8373 31.5989 66.3763 38.6299L63.8119 37.7396C59.4272 30.9387 58.6411 30.2519 61.7757 23.002Z" fill="#3A1A01"/>
<path d="M63.8119 37.7395C59.4272 30.9387 58.6411 30.2518 61.7757 23.002C64.4193 25.2422 67.3142 26.9913 67.9436 30.1448C66.5759 33.2085 64.7469 35.4611 63.8119 37.7395Z" fill="#8F4C0E"/>
<path d="M97.4265 61.6562C98.606 61.8769 98.775 62.3173 99.6136 63.1322C99.4942 63.4331 99.3911 63.7398 99.2545 64.033C97.6356 67.5304 91.0341 69.9837 87.7047 71.3708C86.0668 70.1127 85.4651 70.0792 85.127 67.9785C87.8279 65.1259 93.7895 63.7092 97.4265 61.6562Z" fill="#4D2809"/>
<path d="M154.367 61.2941C155.27 61.2588 156.126 61.2148 157.017 61.4145C161.444 62.4051 167.004 65.4019 169.489 69.0684C167.066 69.3837 164.978 69.5279 162.603 68.756C158.549 67.4377 156.255 65.0045 154.367 61.2941Z" fill="#4D2809"/>
<path d="M151.13 272.703L152.564 272.422L154.72 274.435L157.912 277.446C159.195 276.899 160.485 276.371 161.783 275.863C165.455 274.434 168.506 273.374 172.318 275.075C170.475 276.747 168.449 276.638 166.061 276.846L164.747 278.266L171.03 277.749C173.809 278.981 175.857 280.588 177.051 283.488C177.125 283.669 177.168 283.86 177.226 284.045L183.854 285.138C183.348 288.056 182.79 289.565 183.859 292.467L185.761 293.512L187.27 292.728C186.828 291.744 186.601 291.129 185.819 290.365L189.417 290.583L191.474 294.272L193.841 292.332C196.189 291.272 198.131 290.571 200.682 291.452C203.715 292.501 205.851 295.396 207.238 298.162C207.445 304.814 206.961 309.979 202.263 315.121C197.368 320.479 190.418 322.982 183.263 323.195C175.428 323.428 167.397 320.837 161.695 315.345C157.973 311.759 155.184 306.468 154.528 301.331L154.222 300.613C152.817 299.406 151.123 298.976 149.401 298.393L146.658 297.383C145.657 291.961 145.21 286.671 144.918 281.168L142.678 281.231L143.851 278.416C147.275 276.969 149.092 276.025 151.13 272.703Z" fill="#F2C58E"/>
<path d="M171.03 277.748C173.808 278.98 175.857 280.587 177.05 283.488C177.125 283.668 177.167 283.859 177.225 284.045L183.853 285.137C183.347 288.055 182.789 289.564 183.858 292.467L185.761 293.512L187.27 292.727C186.828 291.743 186.6 291.128 185.818 290.364L189.417 290.583L191.473 294.271L193.841 292.331C196.188 291.271 198.131 290.57 200.681 291.451C203.714 292.5 205.851 295.395 207.238 298.161L203.219 301.256C203.24 303.968 203.591 305.351 201.507 307.417C200.612 308.304 199.493 309.051 198.473 309.787C195.218 307.655 186.95 304.541 183.15 304.378C162.128 295.639 173.549 288.052 164.797 279.022L164.746 278.265L171.03 277.748Z" fill="#F2C58E"/>
<path d="M193.842 292.33C196.189 291.271 198.132 290.57 200.682 291.45C203.715 292.499 205.852 295.395 207.238 298.161L203.219 301.256C203.24 303.968 203.592 305.35 201.508 307.417C200.613 308.303 199.494 309.05 198.474 309.787C195.219 307.654 186.951 304.54 183.15 304.378L187.537 302.121L189.52 301.791L196.079 297.122C195.793 295.501 194.608 293.799 193.842 292.33Z" fill="#F2CF9C"/>
<path d="M193.842 292.33C196.189 291.271 198.132 290.57 200.682 291.45C203.715 292.499 205.852 295.395 207.239 298.161L203.22 301.256C202.629 299.252 201.956 297.609 200.945 295.784L199.386 295.647L197.439 298.404L196.08 297.122C195.793 295.501 194.609 293.799 193.842 292.33Z" fill="#E4CBAF"/>
<path d="M196.079 297.123L197.438 298.405C196.109 300.339 195.517 301.659 192.931 301.972C191.842 302.105 190.608 301.912 189.52 301.792L196.079 297.123Z" fill="#F8DCB5"/>
<path d="M177.225 284.045L183.854 285.138C183.347 288.055 182.79 289.565 183.858 292.467L185.761 293.512L187.27 292.728C186.828 291.744 186.6 291.129 185.818 290.364L189.417 290.583L191.473 294.272C191.161 294.514 190.854 294.764 190.537 294.999C188.329 296.639 186.003 297.303 183.27 296.776C180.739 296.288 178.938 294.722 177.616 292.562C175.752 289.516 176.314 287.349 177.225 284.045Z" fill="#6B3E0F"/>
<path d="M164.746 278.265L171.03 277.748C170.328 283.972 169.14 289.858 173.135 295.287C176.477 299.828 182.321 301.182 187.536 302.122L183.15 304.378C162.128 295.639 173.549 288.052 164.797 279.022L164.746 278.265Z" fill="#F8DCB5"/>
<path d="M154.527 301.331L156.388 301.709C156.358 301.446 156.326 301.185 156.299 300.922C155.945 297.397 155.711 292.238 158.005 289.472L158.599 289.332C159.188 295.385 159.311 300.377 163.506 305.14C168.175 310.442 172.878 314.357 180.324 314.914C186.963 315.41 192.786 312.923 198.472 309.787C199.492 309.051 200.612 308.304 201.507 307.417C203.591 305.351 203.239 303.968 203.218 301.256L207.237 298.161C207.444 304.813 206.96 309.978 202.262 315.121C197.367 320.478 190.417 322.981 183.262 323.194C175.427 323.427 167.396 320.836 161.694 315.344C157.972 311.758 155.183 306.467 154.527 301.331Z" fill="#EBAC51"/>
<path d="M151.13 272.703L152.564 272.422L154.72 274.435L157.912 277.446C151.823 284.548 151.566 289.657 149.401 298.393L146.658 297.383C145.657 291.961 145.21 286.671 144.918 281.168L142.678 281.231L143.851 278.416C147.275 276.969 149.092 276.025 151.13 272.703Z" fill="#9F540F"/>
<path d="M157.912 277.445C159.195 276.899 160.485 276.371 161.783 275.863C165.455 274.433 168.506 273.374 172.317 275.074C170.475 276.746 168.448 276.637 166.061 276.846L164.747 278.265L164.797 279.023C160.247 281.278 157.278 284.711 155.568 289.496C154.261 293.154 154.11 296.774 154.222 300.613C152.817 299.405 151.123 298.975 149.4 298.393C151.566 289.656 151.822 284.547 157.912 277.445Z" fill="#7B3909"/>
<path d="M90.774 310.134C81.2022 311.84 70.7918 312.975 61.1713 311.146C50.3474 309.088 41.6075 303.479 35.4329 294.352C30.8896 287.636 28.9202 276.803 30.3901 268.855L31.4417 268.176C46.9053 280.781 63.2477 284.276 82.8812 282.699L83.2289 284.811C81.7361 286.076 80.1946 287.114 78.5442 288.164L85.693 288.084C88.202 287.068 90.6928 286.008 93.1645 284.903L99.3229 284.757C93.8532 289.644 91.3279 292.876 89.9612 300.197L90.774 310.134Z" fill="#CE6F17"/>
<path d="M90.774 310.134C81.2022 311.84 70.7918 312.975 61.1713 311.146C50.3474 309.088 41.6075 303.479 35.4329 294.352C30.8896 287.636 28.9202 276.803 30.3901 268.855L31.4417 268.176C30.8868 270.864 30.5659 271.923 32.0978 274.426C33.6393 276.947 36.0002 279.1 37.6621 281.61C41.639 287.62 47.1632 301.913 54.9194 303.174C57.1399 303.534 58.8314 302.984 60.7501 301.934L64.3279 302.761L65.8369 301.497L65.1358 302.389L65.9467 299.23C68.3019 301.516 70.3258 305.015 73.8653 305.107C75.2874 305.143 76.8365 304.798 78.2376 304.557C82.1277 303.518 86.841 302.795 89.9612 300.197L90.774 310.134Z" fill="#C26510"/>
<path d="M31.4421 268.176C46.9057 280.781 63.2481 284.276 82.8816 282.699L83.2293 284.811C81.7365 286.076 80.195 287.114 78.5446 288.164C71.8352 288.585 65.8421 288.138 59.2339 286.992C60.0008 289.021 62.3962 290.056 64.1841 291.14C59.8738 290.82 55.6495 289.06 51.3688 290.032L50.7413 291.649C53.2245 296.588 56.0917 299.23 60.7506 301.934C58.8318 302.984 57.1404 303.534 54.9198 303.174C47.1636 301.913 41.6394 287.62 37.6625 281.61C36.0007 279.1 33.6397 276.947 32.0982 274.426C30.5663 271.923 30.8872 270.864 31.4421 268.176Z" fill="#C8761D"/>
<path d="M93.1652 284.904L99.3235 284.758C93.8538 289.644 91.3286 292.877 89.9619 300.198C86.8416 302.796 82.1283 303.519 78.2383 304.558C81.3098 301.454 86.1855 297.514 87.2599 293.225C85.812 292.162 84.2696 291.837 82.5676 291.383L83.2324 292.106L82.8007 291.111C86.8617 290.979 89.4184 290.904 92.8739 288.524L92.1767 287.974C90.3496 288.314 88.238 288.955 86.4185 288.414C86.1645 288.338 85.9353 288.194 85.6936 288.085C88.2026 287.069 90.6935 286.008 93.1652 284.904Z" fill="#C26510"/>
<path d="M191.412 278.088C198.968 269.555 208.602 264.532 220.104 263.865C229.829 263.301 238.836 265.141 246.166 271.808C248.067 273.537 248.826 274.213 249.59 276.663C243.97 289.397 236.058 298.847 222.779 304.209C220.255 305.228 216.847 306.057 214.28 304.761C212.792 304.011 211.75 303.163 211.424 301.442C211.123 299.854 211.131 298.076 211.058 296.459L208.905 292.226L204.267 288.378L201.14 287.407C196.779 287.914 193.254 288.328 189.417 290.583L185.818 290.364C187.297 285.872 188.641 281.962 191.412 278.088Z" fill="#CE6F17"/>
<path d="M242.858 279.995C245.166 279.051 247.372 277.803 249.59 276.664C243.97 289.398 236.058 298.848 222.779 304.21C220.254 305.23 216.847 306.058 214.279 304.763C212.791 304.013 211.749 303.164 211.424 301.443C211.123 299.855 211.131 298.077 211.058 296.46L208.904 292.227C212.101 291.866 215.288 291.373 218.473 290.925C226.706 288.902 232.408 283.828 240.115 281.607C241.037 281.283 242.015 280.511 242.858 279.995Z" fill="#8F4C0E"/>
<path d="M218.473 290.924C226.706 288.9 232.408 283.827 240.115 281.605C232.315 289.806 225.073 295.739 213.224 296.488C212.462 296.536 211.836 296.488 211.058 296.459L208.904 292.226C212.101 291.865 215.288 291.372 218.473 290.924Z" fill="#B35D0C"/>
<path d="M197.119 282.948C197.95 283.505 198.774 283.98 199.73 284.297C205.565 286.234 224.655 279.327 230.272 275.982C230.829 275.65 231.324 275.214 231.9 274.916C234.353 273.648 236.266 275.013 238.556 275.948C239.804 278.598 240.375 278.636 242.859 279.995C242.016 280.511 241.038 281.282 240.116 281.606C232.409 283.827 226.707 288.901 218.474 290.924C215.289 291.372 212.102 291.865 208.905 292.227L204.267 288.379L201.14 287.408L195.385 286.755L194.83 285.687L197.119 282.948Z" fill="#8F4C0E"/>
<path d="M238.555 275.947C239.803 278.597 240.374 278.636 242.858 279.994C242.014 280.51 241.036 281.282 240.115 281.606C232.407 283.827 226.706 288.9 218.473 290.924L214.092 288.102C214.131 287.981 214.159 287.856 214.21 287.741C217.334 280.643 230.703 279.756 237.413 276.514C237.796 276.329 238.174 276.136 238.555 275.947Z" fill="#C26510"/>
<path d="M204.268 288.378C205.072 287.839 205.993 287.174 206.909 286.853C209.427 285.97 211.757 287.187 214.093 288.102L218.474 290.924C215.289 291.372 212.102 291.865 208.905 292.226L204.268 288.378Z" fill="#CE6F17"/>
<path d="M191.412 278.089C192.533 278.968 193.481 280.226 194.94 280.064C204.576 279.002 212.326 266.059 223.323 270.399C214.459 273.313 204.259 276.769 197.119 282.948L194.83 285.687L195.384 286.755L201.14 287.408C196.779 287.915 193.254 288.329 189.417 290.583L185.818 290.365C187.297 285.873 188.641 281.963 191.412 278.089Z" fill="#A85914"/>
<path d="M126.701 291.321C126.347 289.084 125.802 286.268 125.993 284.029C126.221 281.355 127.132 280.416 128.907 278.665C131.763 277.768 133.724 277.296 136.697 277.854C139.033 279.954 139.655 280.533 142.678 281.231L144.919 281.168C145.21 286.671 145.657 291.961 146.659 297.383L144.921 296.414C144.729 301.038 144.219 304.56 142.567 308.883C141.457 311.129 139.79 313.546 138.084 315.388C133.156 320.707 126.532 323.773 119.28 323.949C112.465 324.115 105.723 321.713 100.858 316.876C94.9031 310.957 93.8726 304.998 93.8516 296.88C96.117 293.731 98.1972 290.516 102.304 289.736C104.941 289.233 107.521 290.128 109.647 291.674C111.699 293.166 113.326 295.225 114.928 297.172L120.974 298.51C122.158 297.746 123.459 296.971 124.504 296.023C126.247 294.441 126.732 293.593 126.701 291.321Z" fill="#F2BA6F"/>
<path d="M142.567 308.882C141.457 311.128 139.79 313.545 138.084 315.387C133.156 320.706 126.532 323.772 119.28 323.949C112.465 324.114 105.723 321.712 100.858 316.875C94.9031 310.956 93.8726 304.997 93.8516 296.879C98.8075 304.96 105.284 312.595 114.856 314.933C116.28 315.274 117.711 315.578 119.152 315.843C127.302 313.565 133.472 311.125 139.073 304.541C140.304 305.951 141.583 307.285 142.567 308.882Z" fill="#E48E33"/>
<path d="M126.7 291.321C126.347 289.084 125.802 286.268 125.993 284.029C126.221 281.355 127.132 280.416 128.907 278.665C131.763 277.768 133.724 277.296 136.697 277.854C139.033 279.954 139.655 280.533 142.678 281.231L144.918 281.168C145.21 286.671 145.657 291.961 146.659 297.383L144.921 296.414L143.855 291.575C141.762 288.614 139.327 285.646 136.03 283.958C133.523 282.675 132.275 283.023 129.732 283.667C127.452 286.299 127.365 287.984 126.7 291.321Z" fill="#7B3909"/>
<path d="M143.855 291.574L144.921 296.414C144.728 301.038 144.218 304.56 142.566 308.883C141.583 307.285 140.303 305.951 139.072 304.541L139.04 303.76C138.803 298.962 141.888 295.748 143.855 291.574Z" fill="#E09E4D"/>
<path d="M114.927 297.172L120.973 298.51C122.352 300.231 123.556 301.979 124.743 303.837L124.46 304.848C122.501 304.949 121.098 304.831 119.188 304.386C117.597 303.515 115.888 302.877 114.215 302.179L114.927 297.172Z" fill="#F7B13C"/>
<path d="M114.215 302.178C115.888 302.876 117.597 303.514 119.188 304.385C116.244 305.08 114.575 305.097 111.717 304.016L111.666 303.051L114.215 302.178Z" fill="#E4CBAF"/>
<path d="M101.893 291.213C105.441 293.637 106.636 296.416 107.523 300.537L105.771 300.07C103.415 297.976 102.798 294.156 101.893 291.213Z" fill="#F8DCB5"/>
<path d="M123.791 300.415C125.935 300.276 127.654 300.351 129.762 300.778L130.215 302.461C127.707 302.749 125.963 301.543 123.791 300.415Z" fill="#E4CBAF"/>
<path d="M63.5971 238.565C68.2617 237.431 72.5634 236.076 77.0265 238.677C78.4304 239.495 79.7141 240.529 80.9709 241.551C77.7877 242.911 76.0666 242.709 72.7639 241.814L72.5166 243.196C73.6999 243.785 75.4343 244.968 76.6845 245.21C77.866 246.498 78.8268 247.667 80.3272 248.597C78.6663 249.634 76.461 250.685 75.398 252.341L78.6358 253.471C79.2222 256.352 79.8793 259.238 80.3033 262.148C84.2631 263.048 87.349 266.104 89.5179 269.603C90.196 270.697 90.2743 271.537 90.3097 272.791L90.3861 276.599C89.5924 277.006 89.6488 276.998 88.6564 277.384C85.604 278.572 80.7064 280.388 77.5919 278.871C75.4917 277.848 75.4926 276.011 74.8374 273.933L71.1776 274.486L70.1652 276.083C69.7516 276.733 69.255 277.623 68.6791 278.169C67.6018 279.187 66.4146 279.244 65.0077 279.308C60.1674 279.531 53.8324 278.523 50.1639 275.17L49.2012 273.935C48.1449 273.888 46.9701 273.879 45.9472 273.606C43.1307 272.854 42.741 271.504 41.423 269.12C44.1966 263.733 49.6749 260.455 54.4494 256.984C52.2288 254.756 52.0922 254.919 48.9156 254.785L47.6798 252.815C47.5432 252.927 47.4038 253.035 47.271 253.151C47.0504 253.344 46.8383 253.548 46.6187 253.742C43.2377 256.739 38.8711 266.684 35.6907 267.801C34.0823 266.052 33.175 265.242 33.3469 262.659C33.6678 257.825 39.1547 252.552 42.4756 249.412C48.1506 243.605 55.987 240.787 63.5971 238.565Z" fill="#DF8027"/>
<path d="M69.3048 262.073L71.5912 263.369C75.4765 261.404 75.8786 260.96 80.3035 262.149C84.2632 263.049 87.3491 266.105 89.5181 269.604C90.1962 270.698 90.2745 271.538 90.3098 272.792L90.3862 276.6C89.5926 277.007 89.6489 276.999 88.6566 277.384C85.6042 278.573 80.7065 280.389 77.592 278.872C75.4918 277.849 75.4927 276.012 74.8376 273.934L71.1777 274.487L70.1653 276.084C69.7518 276.734 69.2551 277.624 68.6792 278.17C67.6019 279.188 66.4147 279.245 65.0079 279.309C60.1675 279.532 53.8325 278.524 50.1641 275.171L53.8297 271.25C58.3462 267.217 63.943 264.784 69.3048 262.073Z" fill="#E48E33"/>
<path d="M90.3101 272.793L90.3866 276.601C89.5929 277.008 89.6492 276.999 88.6569 277.385C85.6045 278.574 80.7068 280.39 77.5923 278.873C75.4921 277.849 75.4931 276.012 74.8379 273.935C79.6658 274.778 85.4564 273.478 90.3101 272.793Z" fill="#C26510"/>
<path d="M50.1641 275.171L53.8297 271.25C58.5181 275.13 63.4119 276.765 69.5197 276.156C69.7346 276.134 69.9495 276.108 70.1653 276.084C69.7518 276.733 69.2551 277.624 68.6792 278.169C67.6019 279.188 66.4147 279.245 65.0079 279.309C60.1675 279.532 53.8325 278.524 50.1641 275.171Z" fill="#CB741B"/>
<path d="M54.4501 256.984C59.1033 253.822 64.2063 253.388 69.6006 254.366L72.3158 256.028C72.7208 258.433 72.6348 258.457 71.2232 260.396C70.6511 261.181 70.1516 261.605 69.3054 262.072C63.9436 264.784 58.3469 267.217 53.8303 271.25L50.1647 275.171L49.202 273.935C48.1457 273.889 46.9709 273.879 45.948 273.607C43.1315 272.855 42.7418 271.504 41.4238 269.121C44.1974 263.734 49.6757 260.455 54.4501 256.984Z" fill="#8B470F"/>
<path d="M54.4501 256.984C59.1033 253.822 64.2063 253.388 69.6006 254.366C65.1384 260.694 49.1342 267.471 41.4238 269.121C44.1974 263.734 49.6757 260.455 54.4501 256.984Z" fill="#E09E4D"/>
<path d="M47.6797 252.816C52.052 249.538 67.6599 241.538 72.7638 241.816L72.5165 243.197C73.6998 243.786 75.4342 244.969 76.6844 245.211C77.8659 246.5 78.8267 247.668 80.3271 248.598C78.6662 249.635 76.4609 250.687 75.3979 252.342L78.6357 253.472C79.2221 256.354 79.8792 259.24 80.3032 262.149C75.8784 260.96 75.4763 261.404 71.591 263.369L69.3046 262.073C70.1508 261.606 70.6503 261.182 71.2224 260.396C72.634 258.458 72.7199 258.433 72.3149 256.029L69.5997 254.367C64.2054 253.388 59.1024 253.823 54.4493 256.985C52.2287 254.757 52.0921 254.921 48.9155 254.786L47.6797 252.816Z" fill="#713609"/>
<path d="M72.5169 243.197C73.7003 243.787 75.4347 244.969 76.6849 245.211C77.8664 246.5 78.8272 247.668 80.3276 248.599C78.6667 249.635 76.4614 250.687 75.3984 252.342C73.4147 251.625 71.9487 250.886 70.1913 249.718C69.9631 246.794 71.1034 245.624 72.5169 243.197Z" fill="#DF8027"/>
<path d="M42.4746 249.413C48.1497 243.606 55.9861 240.788 63.5962 238.566C61.0757 244.037 58.5256 245.077 53.0865 247.139C49.567 248.475 46.2214 249.146 42.4746 249.413Z" fill="#EBAC51"/>
<path d="M201.718 171.294C202.104 165.562 199.738 156.468 203.567 151.728C205.391 152.45 207.661 157.312 209.096 159.071C211.198 157.996 212.989 145.833 214.102 142.886C215.098 140.246 215.896 139.358 218.375 138.23L220.133 138.939C221.307 144.454 219.426 151.683 218.808 157.319C221.319 151.366 223.371 145.37 227.486 140.318L228.805 140.428C229.872 144.732 228.489 148.774 229.091 153.052C231.375 152.123 234.749 146.374 236.33 144.21C240.885 145.819 235.349 155.142 237.198 158.217L240.879 155.658L242.193 156.085C242.739 160.263 241.063 164.333 239.865 168.282C236.562 177.5 231.134 183.306 226.781 191.568C222.888 191.463 219.359 191.046 215.549 190.236C213.484 189.409 211.614 188.491 209.801 187.204C204.237 183.252 200.938 178.661 199.803 171.832L201.718 171.294Z" fill="#9F540F"/>
<path d="M201.717 171.294C202.103 165.562 199.737 156.468 203.566 151.728C205.39 152.45 207.661 157.312 209.095 159.071C211.197 157.996 212.989 145.833 214.102 142.886C215.098 140.246 215.895 139.358 218.375 138.23L220.132 138.939C221.307 144.454 219.425 151.683 218.807 157.319C221.318 151.366 223.371 145.37 227.485 140.318L228.804 140.428C229.872 144.732 228.488 148.774 229.091 153.052C231.374 152.123 234.749 146.374 236.329 144.21C240.885 145.819 235.348 155.142 237.197 158.217L240.878 155.658L242.192 156.085C242.739 160.263 241.063 164.333 239.865 168.282L239.059 166.793C235.601 165.464 231.35 166.153 227.693 166.309C225.817 163.741 224.484 161.6 221.329 160.516C219.012 160.573 217.616 160.436 215.914 162.359C214.152 164.348 213.398 167.273 212.827 169.797C209.121 170.273 205.417 170.772 201.717 171.294Z" fill="#8F4C0E"/>
<path d="M212.826 169.796C213.397 167.273 214.152 164.347 215.913 162.358C217.616 160.435 219.011 160.573 221.328 160.516C224.484 161.6 225.816 163.741 227.693 166.309C227.505 170.748 227.63 175.39 224.088 178.655C223.073 179.592 222.027 179.881 220.728 180.25C218.344 179.696 216.878 179.38 215.363 177.203C213.973 175.205 213.334 172.155 212.826 169.796Z" fill="#7B3909"/>
<path d="M103.54 238.443C103.861 236.6 103.924 236.154 105.083 234.715L109.303 234.742C111.407 238.754 117.399 242.568 121.709 243.881C125.827 245.136 127.957 244.647 131.803 242.711C129.271 247.288 126.671 255.716 123.371 259.23C122.055 261.123 120.786 263.278 119.075 264.821L118.833 262.798C116.045 265.937 112.263 266.943 108.714 268.954C107.892 265.817 106.108 262.665 104.765 259.705C103.154 256.876 100.974 254.331 98.9933 251.751C96.1815 251.719 91.7079 251.068 89.6755 253.413C89.5552 253.553 89.4711 253.721 89.3699 253.875L85.2335 253.344L85.2048 251.59L78.6348 253.471L75.3971 252.341C76.4601 250.686 78.6654 249.634 80.3263 248.597C78.8258 247.667 77.865 246.499 76.6836 245.21C75.4334 244.968 73.699 243.786 72.5156 243.196L72.763 241.815C76.0657 242.709 77.7867 242.911 80.97 241.551C86.5849 244.064 88.8599 243.732 94.4777 241.947C96.6667 241.25 98.2951 241.608 100.498 242.102C101.609 241.048 102.566 239.637 103.54 238.443Z" fill="#E48E33"/>
<path d="M103.542 238.443C103.863 236.6 103.926 236.154 105.084 234.715L109.305 234.742C111.409 238.754 117.4 242.568 121.71 243.881C125.829 245.136 127.959 244.647 131.805 242.711C129.273 247.288 126.673 255.716 123.372 259.23C122.056 261.123 120.788 263.278 119.076 264.821L118.835 262.798C117.643 259.41 116.414 256.244 114.428 253.228C111.243 248.39 106.354 243.327 100.5 242.102C101.611 241.048 102.568 239.637 103.542 238.443Z" fill="#CE6F17"/>
<path d="M103.542 238.443L103.961 238.774C112.632 245.493 118.058 249.138 123.372 259.231C122.056 261.123 120.788 263.279 119.076 264.821L118.835 262.799C117.643 259.411 116.414 256.245 114.428 253.229C111.243 248.391 106.354 243.328 100.5 242.103C101.611 241.048 102.568 239.637 103.542 238.443Z" fill="#713609"/>
<path d="M76.6849 245.21C78.5387 243.606 78.788 243.021 81.3744 243.343C85.7935 243.892 89.8383 247.058 94.2221 247.784L98.9946 251.751C96.1829 251.719 91.7093 251.068 89.6769 253.413C89.5565 253.552 89.4725 253.72 89.3712 253.874L85.2348 253.344L85.2061 251.59L78.6362 253.471L75.3984 252.341C76.4614 250.685 78.6667 249.634 80.3276 248.597C78.8272 247.667 77.8664 246.498 76.6849 245.21Z" fill="#713609"/>
<path d="M80.3276 248.598L84.6465 248.58L85.7954 249.829L85.2061 251.591L78.6362 253.472L75.3984 252.342C76.4614 250.687 78.6667 249.635 80.3276 248.598Z" fill="#E09E4D"/>
<path d="M94.2207 247.785L95.6934 245.869C99.8786 246.24 104.125 250.435 106.708 253.562C107.855 254.95 108.75 256.466 109.561 258.069L109.136 259.855C107.021 260.492 106.868 260.423 104.765 259.705C103.154 256.876 100.974 254.331 98.9932 251.751L94.2207 247.785Z" fill="#F2C58E"/>
<path d="M146.099 231.561C146.133 233.14 146.436 234.359 146.854 235.865L149.522 237.216C150.677 243.455 148.415 252.19 147.66 258.65L137.566 271.04C136.708 268.708 137.047 266.084 136.35 263.682C135.212 259.765 132.713 256.963 132.513 252.635C132.121 244.147 140.666 237.185 146.099 231.561Z" fill="#C26510"/>
<path d="M140.486 243.35L141.933 244.028C142.741 247.12 141.072 250.72 140.164 253.707C139.476 253.523 138.724 252.961 138.103 252.601C137.496 249.272 139.206 246.358 140.486 243.35Z" fill="#8B470F"/>
<path d="M136.697 277.853C141.409 269.92 146.528 263.196 153.274 256.82C157.157 253.151 162.318 248.286 167.984 248.443C170.109 249.74 170.169 249.994 171.135 252.15C170.12 254.417 168.905 255.992 167.237 257.821C164.105 258.146 163.578 258.632 161.045 260.574C160.281 266.079 153.733 267.796 151.13 272.702C149.092 276.025 147.275 276.969 143.851 278.416L142.678 281.23C139.655 280.533 139.033 279.954 136.697 277.853Z" fill="#C76614"/>
<path d="M161.045 260.574L160.6 258.974C160.964 257.392 161.155 256.497 162.387 255.37C163.727 254.142 164.127 254.593 165.85 254.68L167.236 257.821C164.105 258.146 163.578 258.632 161.045 260.574Z" fill="#C26510"/>
<path d="M118.835 262.799L119.076 264.821L120.136 266.37C122.369 267.935 123.288 268.811 124.273 271.378C123.401 277.962 122.826 284.322 119.492 290.233L117.733 292.278C114.906 292.069 111.515 288.34 109.353 286.526C108.013 282.828 108.47 278.489 108.478 274.59L108.716 268.955C112.265 266.944 116.047 265.938 118.835 262.799Z" fill="#DF8027"/>
<path d="M118.833 262.799L119.075 264.821L120.135 266.37C122.368 267.935 123.287 268.811 124.272 271.378C120.837 273.93 117.535 276.837 113.359 278.021C113.006 278.121 112.655 278.233 112.3 278.326C112.086 278.383 111.867 278.422 111.65 278.47L109.049 274.583L108.477 274.59L108.714 268.955C112.263 266.944 116.046 265.938 118.833 262.799Z" fill="#F7B13C"/>
<path d="M118.833 262.799L119.075 264.821L120.135 266.37C116.95 269.299 111.407 271.393 109.049 274.583L108.477 274.59L108.714 268.955C112.263 266.944 116.046 265.938 118.833 262.799Z" fill="#713609"/>
<path d="M108.478 274.59L109.05 274.582L111.652 278.469C115.735 280.771 117.108 286.495 119.492 290.233L117.733 292.277C114.906 292.068 111.515 288.339 109.353 286.525C108.013 282.827 108.47 278.488 108.478 274.59Z" fill="#CB741B"/>
<path d="M78.6348 253.473L85.2047 251.592L85.2334 253.346L89.3698 253.876C95.1929 255.756 97.3572 257.564 100.179 263.064C100.644 263.97 101.086 264.872 101.517 265.794C102.795 267.65 103.348 268.193 103.537 270.488C101.596 273.102 98.8089 273.546 95.831 274.446L90.3851 276.601L90.3087 272.793C90.2733 271.539 90.195 270.699 89.5169 269.605C87.348 266.106 84.2621 263.05 80.3023 262.15C79.8783 259.24 79.2212 256.354 78.6348 253.473Z" fill="#8F4C0E"/>
<path d="M85.2347 253.346L89.3711 253.876C95.1943 255.756 97.3585 257.564 100.181 263.064C100.645 263.97 101.087 264.872 101.519 265.794C101.37 265.904 101.233 266.035 101.071 266.124C98.048 267.788 93.5916 265.577 90.6061 264.56C89.1629 263.196 87.5431 261.786 86.3139 260.224C84.6158 258.064 84.9128 255.933 85.2347 253.346Z" fill="#E48E33"/>
<path d="M101.518 265.793C102.796 267.648 103.349 268.192 103.538 270.486C101.597 273.1 98.8096 273.544 95.8317 274.444L94.4105 273.504C93.4793 270.267 92.1584 267.519 90.6055 264.559C93.591 265.576 98.0474 267.787 101.07 266.122C101.233 266.034 101.369 265.903 101.518 265.793Z" fill="#C26510"/>
<path d="M188.718 271.853L190.125 271.811C190.631 269.676 190.667 267.793 190.633 265.605C191.735 267.019 191.748 268.377 191.919 270.089C189.882 275.416 186.758 280.249 183.853 285.137L177.225 284.044C177.167 283.859 177.125 283.668 177.05 283.487C175.857 280.587 173.808 278.98 171.03 277.747L164.746 278.264L166.06 276.845C168.448 276.636 170.475 276.745 172.317 275.074L172.95 274.029L174.053 273.082C174.374 274.31 174.652 274.751 175.368 275.757L177.473 275.45C179.133 273.87 180.106 272.531 181.068 270.449C183.015 267.947 183.285 267.452 186.255 266.477L188.306 267.434C188.846 269.165 189.183 270.036 188.718 271.853Z" fill="#8F4C0E"/>
<path d="M181.068 270.451C183.015 267.949 183.285 267.454 186.255 266.479L188.306 267.436C188.846 269.167 189.183 270.038 188.718 271.855C186 271.692 183.673 271.235 181.068 270.451Z" fill="#8B470F"/>
<path d="M155.327 228.281C156.524 228.318 157.607 228.418 158.783 228.652C161.933 232.591 165.163 236.303 166.96 241.084C166.61 243.18 164.371 244.398 163.043 246.714C162.413 247.037 162.189 247.192 161.428 247.366C160.513 247.577 158.656 247.728 157.932 247.13C154.398 244.215 154.18 240.347 153.836 236.09C153.561 232.692 153.016 231.012 155.327 228.281Z" fill="#C26510"/>
<path d="M172.95 274.031C172.078 273.77 171.27 273.271 170.461 272.858C169.96 266.605 169.251 259.14 173.29 253.861L174.544 254.333C176.464 261.117 175.64 266.279 174.053 273.083L172.95 274.031Z" fill="#A85914"/>
<path d="M94.5403 279.231C97.2575 277.897 99.5039 276.423 102.623 276.915C104.56 278.61 104.548 278.474 104.773 281.03C103.555 282.993 102.934 284.197 100.448 284.666C100.079 284.735 99.6978 284.727 99.3224 284.757L93.1641 284.904C94.357 283.634 95.419 282.413 96.3999 280.962L94.5403 279.231Z" fill="#E48E33"/>
<path d="M82.8819 282.699C86.9009 281.777 90.6744 280.658 94.5415 279.23L96.4011 280.962C95.4202 282.413 94.3582 283.633 93.1653 284.903C90.6935 286.007 88.2027 287.068 85.6937 288.084L78.5449 288.164C80.1953 287.114 81.7368 286.076 83.2296 284.81L82.8819 282.699Z" fill="#E89A2C"/>
<path d="M152.564 272.422C155.29 269.742 159.49 265.678 163.397 265.266L164.826 266.382C164.474 269.133 163.922 270.542 161.578 272.247C159.314 273.894 157.473 274.369 154.721 274.435L152.564 272.422Z" fill="#C26510"/>
<path d="M180.199 244.169C181.564 243.942 182.975 243.669 184.358 243.611C186.43 243.525 187.635 243.502 189.125 244.904C187.368 247.347 185.273 247.786 182.583 248.926C181.138 250.468 181.059 250.653 179.006 251.041L177.662 249.402C177.832 246.439 178.137 246.36 180.199 244.169Z" fill="#CE6F17"/>
<path d="M183.222 64.286C177.269 37.0605 193.43 9.87816 220.187 2.10956C246.946 -5.65807 275.144 8.64484 284.689 34.8271C294.235 61.0093 281.86 90.1119 256.385 101.396C230.909 112.68 201.048 102.284 188.082 77.6164C185.871 73.4111 184.237 68.9278 183.222 64.286Z" fill="#DC4E29"/>
<path d="M208.131 18.9854C228.07 6.81954 248.173 4.42934 265.966 23.2776C281.139 39.3517 279.637 64.0895 267.275 81.7169C265.243 79.6974 258.851 73.1 256.942 71.7091C253.318 67.8439 252.471 63.3835 247.673 60.3064C244.455 59.9348 243.913 57.4367 242.741 54.9128C240.009 53.3088 239.899 53.0299 237.858 50.5174C234.517 49.3605 233.006 46.6188 230.75 43.6936C229.016 40.4771 228.882 40.0682 229.343 36.4543C224.748 36.9214 224.658 35.9021 221.041 33.1269L218.331 30.9297C214.921 26.1751 212.089 23.2089 208.131 18.9854Z" fill="#F8F3EF"/>
<path d="M218.332 30.931C229.025 20.9518 238.619 20.1933 250.043 29.6662C252.638 26.998 254.564 24.5199 257.941 23.1003L259.661 23.7442C260.33 27.6782 258.187 34.6529 258.885 36.7326C264.348 53.0226 266.378 55.1778 256.943 71.7104C253.318 67.8452 252.472 63.3848 247.674 60.3078C244.456 59.9362 243.914 57.438 242.742 54.9141C240.01 53.3101 239.9 53.0312 237.859 50.5187C234.518 49.3619 233.007 46.6201 230.751 43.6949C229.016 40.4784 228.883 40.0695 229.344 36.4556C224.749 36.9227 224.659 35.9034 221.042 33.1282L218.332 30.931Z" fill="#9F540F"/>
<path d="M230.16 31.1414C237.65 29.5584 235.084 34.1019 238.912 36.9286C239.511 34.0608 239.324 32.0938 241.206 30.6914C242.992 31.9667 243.215 33.1704 244.04 35.2176L246.602 36.515C245.26 40.597 240.485 46.775 237.857 50.5189C234.516 49.362 233.005 46.6203 230.75 43.6951C229.015 40.4786 228.881 40.0697 229.343 36.4558L230.043 31.8989L230.16 31.1414Z" fill="#8F4C0E"/>
<path d="M230.043 31.8984C233.292 35.0586 233.404 34.1836 234.091 37.9475C232.878 40.6195 232.482 41.3293 230.75 43.6946C229.015 40.4781 228.881 40.0692 229.343 36.4553L230.043 31.8984Z" fill="#E89A2C"/>
<path d="M221.041 33.1274C223.657 31.2378 225.345 29.5039 228.449 29.3711L230.161 31.1404L230.044 31.8979L229.344 36.4548C224.749 36.9219 224.659 35.9026 221.041 33.1274Z" fill="#E48E33"/>
<path d="M242.74 54.9141C247.158 55.0803 249.168 54.8835 253.185 56.7445L253.391 58.2262C251.182 59.7709 250.389 59.7403 247.672 60.3077C244.455 59.9361 243.912 57.438 242.74 54.9141Z" fill="#713609"/>
<path d="M260.418 87.9127C245.015 97.932 228.432 100.132 212.441 89.7917C202.687 83.4208 195.929 73.3719 193.704 61.9349C190.801 47.6281 194.693 37.2544 202.353 25.5547C205.917 29.7141 209.731 32.8619 212.864 37.5191C213.533 37.9595 214.794 38.6549 215.248 39.2787C217.343 41.7023 222.55 46.347 221.853 49.7183C221.372 52.0426 220.513 52.1343 220.959 54.8646L221.83 54.1176C222.965 53.1288 223.172 52.8403 224.065 51.5745C227.949 52.1104 229.726 53.8893 231.261 57.7201L232.048 60.8554C233.439 61.2643 234.76 61.6664 236.176 61.9912C238.433 62.6867 240.02 64.2907 241.29 66.273C241.817 67.0926 242.072 68.003 242.359 68.922L243.417 69.3825C245.198 71.445 246.903 73.4139 248.986 75.187C249.826 76.0563 251.141 76.9247 251.184 78.1427C254.892 80.6313 257.574 84.4172 260.418 87.9127Z" fill="#F8F3EF"/>
<path d="M212.865 37.5195C213.533 37.9599 214.794 38.6554 215.248 39.2792C217.343 41.7028 222.55 46.3475 221.854 49.7188C221.372 52.0431 220.513 52.1348 220.96 54.8651L221.83 54.1181C222.965 53.1293 223.173 52.8408 224.066 51.575C227.949 52.1109 229.726 53.8897 231.261 57.7205L232.048 60.8559C233.439 61.2647 234.761 61.6669 236.176 61.9917C238.433 62.6872 240.02 64.2912 241.291 66.2734C241.817 67.0931 242.073 68.0035 242.359 68.9225L243.418 69.3829C245.198 71.4454 246.904 73.4144 248.987 75.1875C249.826 76.0568 251.141 76.9252 251.184 78.1432C240.199 84.4119 234.369 84.8361 223.263 78.3295C219.268 80.8706 215.754 83.896 211.21 83.4012L209.782 81.6167C209.259 77.3703 211.422 72.0894 212.785 67.8707C210.056 64.4354 208.613 60.5549 206.846 56.5321C207.915 48.5218 208.822 44.4876 212.865 37.5195Z" fill="#6B3E0F"/>
<path d="M209.025 83.7892C215.608 69.643 220.206 68.8434 231.262 57.7207L232.049 60.856C233.439 61.2649 234.761 61.667 236.176 61.9918C238.433 62.6873 240.021 64.2913 241.291 66.2736C241.817 67.0933 242.073 68.0036 242.36 68.9226L243.418 69.3831C242.061 71.823 241.701 72.0695 239.228 73.3945C234.805 73.5559 231.991 71.758 228.581 69.1348C228.859 67.5652 228.714 67.5518 228.256 65.9927C225.74 67.0436 224.855 69.2713 223.348 71.7236L224.966 74.2733C224.124 75.7799 211.793 82.1996 209.025 83.7892Z" fill="#DF8027"/>
<path d="M236.176 61.9922C238.432 62.6877 240.02 64.2917 241.29 66.2739C241.816 67.0936 242.072 68.004 242.359 68.923C241.382 69.3204 240.306 69.7617 239.254 69.8783C236.727 70.1591 235.213 70.0465 233.292 68.4788C233.05 65.4638 234.499 64.3461 236.176 61.9922Z" fill="#8B470F"/>
<path d="M215.247 39.2793C217.342 41.7029 222.549 46.3476 221.853 49.7189C221.371 52.0432 220.512 52.1349 220.959 54.8652L220.031 56.3268C221.359 60.3544 222.602 64.0667 217.923 66.1111C209.652 63.5107 210.259 53.1303 211.677 46.3954L215.247 39.2793Z" fill="#DF8027"/>
<path d="M215.248 39.2793C217.342 41.7029 222.549 46.3476 221.853 49.7189C221.372 52.0432 220.512 52.1349 220.959 54.8652L220.032 56.3268L218.032 57.2649L213.913 49.9148L211.678 46.3954L215.248 39.2793Z" fill="#E48E33"/>
<path d="M218.033 57.2642L218.335 57.7409L217.221 57.9979C213.004 55.2647 213.21 54.4843 213.914 49.9141L218.033 57.2642Z" fill="#7B3909"/>
<path d="M243.418 69.3831C245.198 71.4456 246.904 73.4146 248.987 75.1876C245.226 78.0469 241.33 79.4101 236.606 79.4607C233.405 79.496 231.37 78.7509 229.08 76.5403C227.846 73.4078 228.065 72.5137 228.581 69.1348C231.992 71.7581 234.805 73.5559 239.228 73.3945C241.702 72.0695 242.061 71.823 243.418 69.3831Z" fill="#C8761D"/>
<path d="M89.7477 90.5177C91.1612 89.6293 93.016 89.9474 94.0532 91.2543C95.0914 92.5621 94.9796 94.4412 93.7944 95.6172C92.9023 96.5018 91.5834 96.7979 90.3991 96.3795C89.2138 95.9611 88.3734 94.9016 88.2349 93.653C88.0964 92.4044 88.6838 91.1864 89.7477 90.5177Z" fill="#F8F3EF"/>
<path d="M163.748 88.5177C165.161 87.6293 167.016 87.9474 168.053 89.2543C169.091 90.5621 168.98 92.4412 167.794 93.6172C166.902 94.5018 165.583 94.7979 164.399 94.3795C163.214 93.9611 162.373 92.9016 162.235 91.653C162.096 90.4044 162.684 89.1864 163.748 88.5177Z" fill="#F8F3EF"/>
</svg>
