<svg width="202" height="256" viewBox="0 0 202 256" fill="none" xmlns="http://www.w3.org/2000/svg">
<path d="M98.7406 0C103.574 0.693163 104.818 3.26145 105.84 7.65956C108.162 5.83625 108.738 5.20971 111.577 4.61076C111.96 4.69332 112.34 4.78844 112.717 4.89589C116.462 5.99553 115.639 9.10938 114.795 11.9244C120.888 12.3356 128.752 15.0614 134.2 17.7634C135.541 14.471 137.812 11.6402 140.735 9.61635C153.709 0.611287 170.172 12.9527 167.555 27.8429C166.535 33.6442 163.383 37.0479 158.661 40.2577C161.511 44.1134 164.618 52.7511 165.819 57.5895C166.753 61.3503 167.451 65.8574 168.6 69.5788C168.981 70.8096 170.827 73.7721 171.541 75.1005C174.059 79.7548 175.521 84.9071 175.821 90.1906C176.285 98.8202 173.473 107.307 167.949 113.953C165.987 116.326 164.027 118 162 120.224C163.717 121.155 166.036 123.01 167.633 124.257C178.541 132.784 186.763 144.38 192.113 157.074C194.756 163.342 195.638 170.056 192.814 176.341C190.21 182.138 187.083 183.901 181.555 186.119C181.61 187.441 181.544 189.092 181.522 190.44C184.304 192.833 186.549 196.279 187.137 199.942C188.887 200.653 192.454 201.975 193.616 203.372C197.848 208.444 202.121 212.895 201.873 219.936C201.267 238.264 182.493 261.093 162.391 254.992C158.6 253.841 155.27 251.144 151.284 250.676C146.411 250.128 140.713 248.713 135.891 248.632C133.907 248.598 127.882 251.499 125.537 252.161C118.04 254.278 111.399 255.297 103.634 255.42C94.9138 255.449 87.381 254.314 79.0162 251.692C77.5213 251.223 71.0168 248.361 69.8424 248.405C63.0436 248.661 53.7393 249.989 47.0607 251.515C45.5463 251.86 41.9537 254.186 40.2684 254.66C34.1501 256.376 27.4265 256.513 21.513 253.48C8.36245 246.732 -4.62897 227.155 1.6123 212.128C2.56781 209.826 7.61927 204.211 9.73106 202.567C10.8895 201.665 13.6067 200.707 15.0754 200.22C16.599 195.048 17.9723 194.267 20.8607 190.386L21.1694 186.084C17.7309 183.867 15.5556 183.849 12.8532 180.049C6.89111 171.668 8.9937 162.413 12.6264 153.679C18.3844 139.833 27.2824 129.527 39.3127 120.817C36.521 118.908 33.6039 115.838 31.5049 113.148C21.9314 100.881 21.9013 83.8418 30.7478 71.1869C31.8344 69.6326 32.5319 66.4995 32.9065 64.5938C34.6273 55.8375 37.4569 47.9193 41.7446 40.1092C34.1416 34.991 30.5329 27.9966 33.4938 18.8356C35.0102 14.2666 38.2894 10.493 42.602 8.3534C52.3956 3.40794 62.0891 8.11472 66.744 17.5146C73.3832 14.9593 78.3775 12.8015 85.7888 12.1088C83.1886 6.60928 87.3763 4.03044 92.429 6.16578C93.0152 6.41366 93.3597 6.85222 93.9885 6.86927C95.3046 5.02555 92.7377 1.28807 98.7406 0Z" fill="#522804"/>
<path d="M31.4974 149.014C40.0364 126.301 57.7593 110.295 80.7524 102.91C99.5945 96.8172 120.09 98.5005 137.685 107.586C153.963 115.937 169.001 131.054 174.656 148.644C171.619 149.741 165.455 153.049 166.099 156.921L166.137 157.073C166.616 158.943 168.759 162.42 166.045 163.268C164.343 166.011 164.42 172.508 167.851 173.573C169.419 175.352 168.705 176.173 168.943 178.582C171.953 182.636 173.377 183.529 178.409 184.273L179.326 184.408C179.26 185.404 179.222 186.714 178.976 187.652C178.673 190.476 177.743 194.11 176.964 196.806C173.359 209.481 166.603 221.038 157.325 230.397C143.257 244.733 124.095 252.928 104.012 253.199C83.558 253.516 63.8421 245.563 49.3337 231.142C39.1877 221.17 30.4137 206.309 27.4937 192.387C26.9555 189.821 26.2985 186.972 26.2754 184.368C33.1478 183.154 35.54 181.104 36.7186 174.138C37.5883 173.326 37.8113 173.178 38.8753 172.644C38.9679 172.209 39.5368 171.321 39.7757 170.836C41.1582 168.032 40.6411 166.689 40.1032 163.707L39.0664 163.27C38.3331 161.837 39.4639 160.641 39.6415 159.239C40.2977 154.063 36.1013 150.143 31.4974 149.014Z" fill="#E9361A"/>
<path d="M62.0527 127.215C65.1495 124.936 67.9141 122.895 71.2819 120.992C84.2396 113.696 99.2668 110.948 113.968 113.186C130.245 115.637 145.73 125.319 155.457 138.536C159.665 144.243 162.877 150.621 164.957 157.4L166.1 156.922L166.138 157.073C166.617 158.944 168.759 162.421 166.045 163.269C164.344 166.012 164.42 172.508 167.851 173.574C167.75 175.333 167.667 176.827 167.709 178.583C167.713 181.459 167.235 183.675 166.815 186.506C165.197 197.382 160.696 207.662 153.863 216.274C153.681 216.503 153.432 216.582 153.163 216.651C152.353 216.333 152.559 216.377 151.956 215.628C151.163 215.197 150.894 214.803 150.314 214.116L149.055 212.974C146.77 210.673 144.472 208.425 142.211 206.094C136.029 200.19 130.1 193.781 123.902 187.886L123.31 187.085C122.526 186.383 122.458 186.235 121.986 185.286C120.397 184.674 118.309 182.273 117.291 180.918C116.65 180.577 116.17 180.1 115.629 179.617C112.527 176.394 109.114 173.343 106.071 170.151C105.225 169.487 104.686 169.121 104.063 168.226C101.805 166.122 98.7504 163.378 96.9168 160.989C95.2889 159.91 93.3261 157.896 91.8446 156.504C91.4646 156.145 90.8825 155.46 90.5117 155.047C89.8676 154.618 88.218 152.879 87.4761 152.211C85.3771 150.025 76.801 142.254 75.8799 140.365C74.8114 139.889 74.5474 139.569 73.6992 138.74C70.4393 135.518 64.9858 130.471 62.0527 127.215Z" fill="#F4F3F0"/>
<path d="M75.88 140.366C75.8071 137.742 75.6851 135.916 76.7356 133.411C80.0217 125.578 89.1315 121.808 97.1406 121.479C101.099 121.477 105.435 122.524 108.942 124.363C112.885 126.429 116.108 129.343 120.285 131.033C124.956 132.924 129.979 132.863 134.625 134.588C139.307 136.326 143.44 139.487 142.912 145.04C139.061 153.438 130.507 150.212 123.455 152.72C118.141 154.609 112.72 161.086 106.503 160.759C104.495 161.041 102.443 161.075 100.416 161.008C99.2495 160.976 98.0832 160.972 96.917 160.99C95.289 159.911 93.3262 157.896 91.8447 156.505C91.4647 156.145 90.8826 155.461 90.5118 155.048C89.8678 154.618 88.2181 152.879 87.4763 152.211C85.3772 150.025 76.8011 142.254 75.88 140.366Z" fill="#F8B39D"/>
<path d="M107.275 139.064C108.5 139.262 109.071 139.234 110.292 139.203C116.849 138.916 115.091 147.257 120.557 150.678C112.333 156.111 108.477 159.69 97.4532 157.785C95.8349 157.507 93.6614 156.738 92.3079 155.83L91.8449 156.506C91.4649 156.147 90.8827 155.462 90.5119 155.049C89.8679 154.619 88.2182 152.88 87.4764 152.212C87.6343 151.253 86.6587 149.743 86.6219 148.625C86.4427 143.19 94.9912 143.97 98.6841 142.245C101.054 141.138 105.026 139.282 107.275 139.064Z" fill="#E9361A"/>
<path d="M90.5117 155.049C91.2143 155.107 91.7634 155.25 92.3077 155.83L91.8447 156.506C91.4646 156.146 90.8825 155.462 90.5117 155.049Z" fill="#FBA18D"/>
<path d="M99.2477 149.645L99.3089 150.435C98.127 150.802 91.1812 154.03 90.8023 154.044L90.5215 153.773C90.6821 151.666 97.9991 151.056 99.2477 149.645Z" fill="#F36650"/>
<path d="M99.2503 149.274C99.8678 148.431 100.036 148.525 101.144 148.496C102.128 147.757 102.475 147.35 103.674 147.32L104.003 147.469C103.214 148.207 102.595 148.749 102.613 149.911C101.212 150.575 100.852 150.559 99.3093 150.436L99.248 149.645L99.2503 149.274Z" fill="#F36650"/>
<path d="M99.25 149.274C99.8676 148.431 100.036 148.525 101.144 148.496C102.127 147.757 102.475 147.35 103.674 147.32L104.003 147.469C103.214 148.207 102.595 148.749 102.613 149.911C101.767 148.271 100.81 148.833 99.25 149.274Z" fill="#E26348"/>
<path d="M94.1326 144.555C95.0415 144.804 97.3853 146.485 98.1433 147.125C98.2734 147.674 98.305 147.469 98.102 147.945C96.8676 147.417 93.6245 146.356 93.5469 144.917L94.1326 144.555Z" fill="#E26348"/>
<path d="M104.882 135.11C104.873 135.179 104.868 135.248 104.855 135.316C104.677 136.269 103.36 137.322 102.615 137.835C100.006 139.632 86.8144 143.907 83.9069 143.288C82.4842 142.985 81.2181 141.886 80.4702 140.674C79.3008 138.789 78.959 136.506 79.5249 134.361C82.8025 121.665 111.112 119.657 107.378 132.266C105.925 133.465 105.303 133.417 104.882 135.11Z" fill="#E9361A"/>
<path d="M95.0688 130.752C95.8543 130.662 95.6015 130.583 96.1558 130.917C96.3941 131.667 96.4136 131.381 96.1677 132.025C95.7025 132.285 92.2681 132.766 91.4365 132.919C91.334 132.907 90.5594 132.674 90.4111 132.631L90.5668 132.105L90.3086 132.262C90.7604 131.192 93.5994 131.318 94.8577 130.835L95.0688 130.752Z" fill="#F36650"/>
<path d="M115.06 135.276C115.848 131.903 122.298 133.725 124.7 134.215C127.467 134.779 132.213 135.629 134.655 136.889C135.785 137.538 136.19 137.769 137.186 138.65C142.444 141.84 139.289 147.992 133.617 148.556C129.662 148.949 125.194 149.11 121.469 150.329C119.626 148.781 117.236 143.948 116.181 141.65C115.683 141.033 115.372 140.316 115.02 139.604C113.991 138.492 114.151 138.038 114.707 136.737L115.06 135.276Z" fill="#E9361A"/>
<path d="M115.021 139.604C115.553 139.551 121.317 140.435 121.93 140.601C124.716 140.457 125.511 140.353 128.146 141.284C128.738 141.024 129.6 140.538 130.172 140.675L130.084 140.949L129.902 140.858L130.107 140.858L129.856 141.111L129.688 140.912L129.585 141.245C127.693 141.88 124.713 141.928 122.974 141.155C120.479 141.611 118.571 140.281 116.183 141.65C115.685 141.033 115.373 140.316 115.021 139.604Z" fill="#F36650"/>
<path d="M134.655 136.889C135.786 137.538 136.19 137.769 137.187 138.65C136.499 138.941 133.834 139.146 132.332 139.665C132.982 138.687 133.826 137.72 134.655 136.889Z" fill="#F36650"/>
<path d="M107.378 132.267L109.133 132.25C111.255 132.269 114.472 132.769 115.061 135.277L114.707 136.738C112.557 137.284 113.015 138.536 110.44 139.166L110.292 139.203C109.071 139.234 108.5 139.262 107.275 139.064C106.893 137.65 106.7 137.329 105.717 136.234C105.386 136.04 105.098 135.465 104.883 135.112C105.303 133.419 105.926 133.467 107.378 132.267Z" fill="#EFE0C9"/>
<path d="M107.378 132.267L109.133 132.25C107.343 133.08 106.12 134.174 105.717 136.234C105.386 136.04 105.098 135.465 104.883 135.112C105.303 133.419 105.926 133.467 107.378 132.267Z" fill="#FDCFBE"/>
<path d="M108.772 133.435C108.872 133.422 108.972 133.411 109.072 133.401C110.496 133.27 111.435 133.32 112.537 134.236C113.255 135.735 112.267 136.239 111.089 136.988C107.56 137.846 105.405 134.937 108.772 133.435Z" fill="#F8B39D"/>
<path d="M100.416 161.009C99.5824 160.686 99.5221 160.988 98.9707 160.654L98.9781 160.484C100.798 160.347 105.278 159.135 106.676 160.331L106.504 160.76C104.495 161.042 102.443 161.076 100.416 161.009Z" fill="#FDCFBE"/>
<path d="M128.298 175.355C128.954 175.993 128.83 175.423 129.404 175.791C135.08 178.276 141.86 179.42 147.781 177.087C147.885 177.047 147.989 177.004 148.092 176.962C148.311 176.955 149.187 176.737 149.454 176.677C149.389 177.417 149.222 178.485 149.429 179.151C149.794 179.763 150.275 180.643 150.729 181.154C151.348 182.038 151.947 182.861 152.478 183.804C152.65 184.216 152.979 185.105 153.24 185.41C153.328 186.836 153.923 187.895 154.07 189.304C154.278 193.654 152.874 200.902 152.717 205.648C152.675 206.893 152.146 214.933 151.956 215.628C151.163 215.198 150.895 214.803 150.314 214.117L149.055 212.975C146.771 210.673 144.472 208.425 142.211 206.095C136.029 200.19 130.1 193.781 123.902 187.886L123.31 187.085C122.526 186.383 122.458 186.235 121.986 185.286C123.619 183.294 125.925 179.741 127.577 177.579C127.761 177.339 128.196 175.746 128.298 175.355Z" fill="#F4F3F0"/>
<path d="M128.298 175.355C128.954 175.993 128.83 175.423 129.404 175.791C135.08 178.276 141.86 179.42 147.781 177.087C147.885 177.047 147.989 177.004 148.092 176.962C148.311 176.955 149.187 176.737 149.454 176.677C149.389 177.417 149.222 178.485 149.429 179.151C149.794 179.763 150.275 180.643 150.729 181.154C151.348 182.038 151.947 182.861 152.478 183.804C152.65 184.216 152.979 185.105 153.24 185.41C153.328 186.836 153.923 187.895 154.07 189.304C154.278 193.654 152.874 200.902 152.717 205.648C152.675 206.893 152.146 214.933 151.956 215.628C151.163 215.198 150.895 214.803 150.314 214.117L149.055 212.975C149.282 212.504 150.865 191.247 150.776 190.103C149.571 187.792 146.592 186.872 144.303 186.069C143.93 183.741 143.457 183.483 143.272 180.484C141.494 180.618 139.283 180.524 137.465 180.495C136.337 180.647 134.641 179.575 132.634 180.315L131.729 179.936C129.506 181.096 130.132 186.816 123.902 187.886L123.31 187.085C122.526 186.383 122.458 186.235 121.986 185.286C123.619 183.294 125.925 179.741 127.577 177.579C127.761 177.339 128.196 175.746 128.298 175.355Z" fill="#BFD3DB"/>
<path d="M148.092 176.961C148.31 176.954 149.186 176.736 149.453 176.676C149.388 177.416 149.222 178.484 149.429 179.15C149.793 179.762 150.274 180.642 150.728 181.153C151.348 182.037 151.947 182.86 152.477 183.803C152.65 184.215 152.978 185.104 153.239 185.409C153.327 186.835 153.922 187.894 154.069 189.303C154.277 193.653 152.873 200.901 152.716 205.647C152.675 206.892 152.146 214.932 151.955 215.628C151.162 215.197 150.894 214.802 150.313 214.116C150.836 209.364 151.318 204.683 151.697 199.905C152.013 195.939 152.599 192.634 152.223 188.637C151.754 183.646 149.236 183.551 147.96 179.278C147.886 179.031 148.057 177.333 148.092 176.961Z" fill="#60797F"/>
<path d="M128.298 175.355C128.954 175.993 128.83 175.423 129.404 175.791C129.34 176.23 129.059 178.11 128.902 178.382C126.864 181.888 124.998 183.223 123.31 187.085C122.526 186.383 122.458 186.235 121.986 185.286C123.619 183.294 125.925 179.741 127.577 177.579C127.761 177.339 128.196 175.746 128.298 175.355Z" fill="#60797F"/>
<path d="M137.465 180.494C138.464 180.211 145.801 178.928 146.608 178.984L146.759 179.072C146.063 180.211 144.498 180.272 143.272 180.483C141.494 180.617 139.283 180.523 137.465 180.494Z" fill="#96B2C7"/>
<path d="M150.776 190.104C150.865 191.248 149.282 212.505 149.055 212.976C146.771 210.674 144.472 208.426 142.211 206.096C143.55 204.631 143.69 196.302 143.481 194.09C141.72 193.957 139.088 194.016 137.263 193.998C136.002 194.016 134.135 194.202 133.172 193.363L133.355 193.087C134.394 192.813 135.594 193.116 136.676 193.298C137.776 193.45 138.889 193.502 139.998 193.448C143.175 193.289 148.545 192.567 150.776 190.104Z" fill="#EFE0C9"/>
<path d="M132.634 180.316C134.642 179.576 136.338 180.648 137.465 180.495C139.283 180.525 141.494 180.619 143.273 180.484C143.457 183.483 143.93 183.741 144.303 186.07C143.697 186.052 142.039 185.74 141.302 185.655C138.293 185.307 134.965 184.986 131.979 185.614C132.573 183.822 133.451 182.014 132.634 180.316Z" fill="#D0DDE3"/>
<path d="M106.504 160.758C112.721 161.085 118.142 154.609 123.456 152.719C130.508 150.211 139.062 153.437 142.913 145.039C143.242 146.575 143.379 147.181 143.256 148.799C142.327 149.631 137.213 152.986 135.701 154.033L135.265 154.736C135.746 156.207 135.921 155.553 135.834 157.059L135.307 157.516C134.815 157.465 134.72 157.503 134.227 157.595C133.16 158.248 132.841 158.405 131.657 158.802C131.901 159.457 131.942 159.569 132.729 159.746L132.832 160.197C131.924 159.957 131.657 159.878 130.821 159.461C130.184 160.495 123.488 165.26 122.299 165.888C123.452 166.563 123.882 166.108 124.504 166.698L124.569 166.992C127.442 166.936 131.341 165.623 135.582 165.552C135.03 165.848 134.519 166.171 133.913 166.303C129.66 166.648 126.7 168.221 126.98 173.013C127.192 173.852 127.802 174.63 128.299 175.355C128.197 175.745 127.762 177.338 127.578 177.578C125.926 179.74 123.62 183.293 121.987 185.285C120.398 184.673 118.31 182.273 117.292 180.918C116.652 180.577 116.171 180.099 115.63 179.617C112.528 176.393 109.116 173.342 106.072 170.15C105.226 169.486 104.687 169.121 104.065 168.225C101.806 166.121 98.7516 163.378 96.918 160.989C98.0842 160.971 99.2505 160.975 100.417 161.007C102.444 161.074 104.496 161.04 106.504 160.758Z" fill="#E26348"/>
<path d="M124.568 166.993C127.44 166.937 131.34 165.625 135.581 165.553C135.029 165.849 134.517 166.172 133.912 166.304C129.659 166.65 126.699 168.222 126.979 173.014C127.191 173.853 127.801 174.631 128.298 175.356C128.196 175.746 127.761 177.339 127.577 177.579C125.925 179.741 123.618 183.295 121.986 185.287C120.397 184.674 118.309 182.274 117.291 180.919C116.65 180.578 116.17 180.1 115.629 179.618C116.556 177.471 118.466 177.265 118.764 175.396C118.258 174.618 118.345 174.831 117.373 174.389L117.78 173.474C117.501 172.009 117.125 168.671 118.427 167.666C120.385 167.536 122.6 167.224 124.568 166.993Z" fill="#FDAF3E"/>
<path d="M117.78 173.473C119.005 173.724 119.85 173.78 120.573 174.839C121.016 177.374 117.954 178.282 117.459 180.191L117.402 180.402C117.355 180.586 117.325 180.734 117.291 180.918C116.65 180.577 116.17 180.099 115.629 179.617C116.556 177.47 118.466 177.264 118.764 175.395C118.258 174.617 118.345 174.83 117.373 174.388L117.78 173.473Z" fill="#E88010"/>
<path d="M115.97 166.379L116.5 166.911C115.711 168.279 115.849 171.657 116.143 173.266C116.271 173.963 116.744 174.219 117.372 174.39C118.345 174.831 118.257 174.618 118.763 175.397C118.465 177.265 116.556 177.472 115.629 179.619C112.527 176.395 109.114 173.344 106.07 170.152C109.745 168.624 112.056 169.091 115.97 166.379Z" fill="#F4F3F0"/>
<path d="M128.318 158.712C129.778 158.299 130.281 157.958 131.654 158.802C131.899 159.457 131.94 159.569 132.726 159.746L132.829 160.197C131.922 159.957 131.655 159.879 130.819 159.461C130.182 160.495 123.485 165.26 122.296 165.888C123.45 166.563 123.88 166.108 124.502 166.698L124.567 166.992C122.599 167.223 120.383 167.535 118.425 167.665C117.124 168.67 117.5 172.008 117.779 173.473L117.371 174.388C116.743 174.217 116.27 173.962 116.142 173.264C115.848 171.656 115.71 168.277 116.499 166.909C117.853 165.872 123.415 162.505 123.798 161.348C124.719 160.628 126.874 159.964 128.318 158.712Z" fill="#E88010"/>
<path d="M121.308 165.337C122.952 164.215 129.318 159.188 130.819 159.462C130.182 160.496 123.486 165.261 122.297 165.889C123.45 166.564 123.88 166.109 124.502 166.699L124.567 166.993C122.599 167.224 120.384 167.535 118.426 167.665C119.343 166.589 120.153 166.111 121.308 165.337Z" fill="#FDDF88"/>
<path d="M104.064 168.226C106.58 167.847 107.667 167.946 110.169 167.143C114.769 165.665 117.575 163.103 121.608 160.804C123.13 159.938 126.502 159.162 128.32 158.713C126.876 159.965 124.721 160.629 123.8 161.349C123.418 162.506 117.855 165.873 116.502 166.91L115.971 166.378C112.057 169.09 109.747 168.624 106.072 170.151C105.226 169.487 104.687 169.122 104.064 168.226Z" fill="#6F2F07"/>
<path d="M123.8 161.35C123.417 162.507 117.855 165.874 116.501 166.911L115.971 166.379C117.098 165.064 122.223 162.103 123.8 161.35Z" fill="#F8B39D"/>
<path d="M134.225 157.595C133.492 155.76 133.821 154.738 135.699 154.033L135.263 154.736C135.744 156.207 135.919 155.553 135.832 157.059L135.305 157.516C134.813 157.465 134.717 157.503 134.225 157.595Z" fill="#D06B04"/>
<path d="M159.966 160.805C160.054 161.238 160.147 161.671 160.244 162.104C160.209 163.461 160.242 169.596 159.77 170.462C159.974 171.216 160 170.922 159.735 171.586L159.085 171.99L159.308 172.889L159.822 172.712C160.085 173.728 160.791 174.758 161.344 175.671L161.324 178.21C160.34 186.393 160.196 183.551 153.24 185.411C152.979 185.106 152.651 184.217 152.478 183.805C151.947 182.863 151.348 182.039 150.729 181.155C150.275 180.644 149.794 179.765 149.43 179.152C149.223 178.486 149.389 177.418 149.454 176.678C149.187 176.738 148.311 176.956 148.093 176.963C147.989 177.005 147.885 177.048 147.781 177.088C141.861 179.421 135.08 178.277 129.404 175.792C128.83 175.424 128.955 175.994 128.298 175.357C127.801 174.632 127.191 173.854 126.979 173.015C126.699 168.223 129.659 166.651 133.912 166.305C134.518 166.173 135.029 165.85 135.581 165.554L138.179 164.764C139.181 163.313 139.778 162.581 141.62 163.135C143.953 163.835 146.763 163.36 149.178 163.106C152.581 162.303 156.759 162.31 159.966 160.805Z" fill="#FDAF3E"/>
<path d="M133.912 166.305C140.077 166.117 141.387 166.296 147.479 168.071C148.698 168.699 149.39 169.008 150.356 170.036C150.689 171.229 150.729 171.55 150.763 172.79C150.56 174.343 150.542 174.969 149.628 176.27L149.454 176.678C149.187 176.739 148.311 176.956 148.093 176.963C147.989 177.006 147.885 177.048 147.781 177.089C141.861 179.422 135.08 178.277 129.404 175.792C128.83 175.424 128.955 175.994 128.298 175.357C127.801 174.632 127.191 173.854 126.979 173.015C126.699 168.223 129.659 166.651 133.912 166.305Z" fill="#426882"/>
<path d="M129.9 168.85C136.157 166.658 143.907 167.499 149.484 171.095L149.231 172.652C147.379 173.069 145.476 173.473 143.634 173.917C140.226 173.682 138.838 174.011 135.145 173.278C133.154 172.778 130.193 171.943 128.785 170.335C129.186 169.552 129.26 169.455 129.9 168.85Z" fill="#79A0C0"/>
<path d="M128.785 170.335C129.186 169.552 129.26 169.455 129.9 168.85C131.516 172.674 134.523 171.526 135.556 172.753L135.145 173.278C133.154 172.778 130.193 171.943 128.785 170.335Z" fill="#A8C0D1"/>
<path d="M128.447 173.346C128.504 172.14 128.564 171.52 128.786 170.336C130.194 171.944 133.155 172.779 135.146 173.279C138.84 174.013 140.228 173.683 143.635 173.918C142.488 174.087 141.786 173.932 141.074 174.576C140.783 175.785 141.18 175.585 140.525 176.348C139.753 176.752 138.839 176.693 137.96 176.713C134.548 176.678 130.991 175.697 128.447 173.346Z" fill="#628AAC"/>
<path d="M149.232 172.652L149.461 173.673C149.212 174.579 149.341 174.772 148.537 175.293C146.312 176.731 140.446 177.3 137.959 176.713C138.837 176.692 139.752 176.751 140.523 176.347C141.179 175.584 140.781 175.784 141.073 174.575C141.785 173.931 142.487 174.086 143.634 173.918C145.476 173.473 147.379 173.07 149.232 172.652Z" fill="#567C9D"/>
<path d="M150.356 170.035C150.688 171.229 150.729 171.549 150.763 172.79C150.56 174.342 150.542 174.968 149.627 176.269C149.555 175.995 149.495 174.125 149.462 173.674L149.232 172.653L149.485 171.096C149.626 170.818 150.125 170.298 150.356 170.035Z" fill="#3E5463"/>
<path d="M159.309 172.888L159.822 172.711C160.085 173.727 160.792 174.757 161.344 175.67L161.325 178.209C160.34 186.392 160.196 183.55 153.241 185.41C152.979 185.105 152.651 184.217 152.479 183.804C159.654 182.568 159.326 184.071 160.118 176.092C160.12 175.768 160.028 175.659 159.898 175.345C159.51 174.281 159.444 174.01 159.309 172.888Z" fill="#D06B04"/>
<path d="M147.479 168.07C148.048 167.482 149.633 166.665 150.436 166.609C151.206 166.551 151.966 166.822 152.526 167.354C153.15 167.955 153.503 168.783 153.505 169.649C153.505 171.235 152.276 172.491 150.763 172.789C150.729 171.549 150.688 171.228 150.356 170.035C149.39 169.007 148.698 168.698 147.479 168.07Z" fill="#FD9426"/>
<path d="M149.43 179.15C151.322 178.502 151.679 177.58 153.619 178.544C154.13 178.798 154.524 178.971 154.761 179.489C153.447 181.106 152.231 179.159 150.729 181.153C150.275 180.642 149.794 179.763 149.43 179.15Z" fill="#FD9426"/>
<path d="M159.965 160.805C160.054 161.238 160.146 161.671 160.243 162.104C158.205 162.442 150.908 163.703 149.178 163.106C152.581 162.303 156.759 162.31 159.965 160.805Z" fill="#FD9426"/>
<path d="M156.883 173.527L157.302 173.621C157.804 172.621 157.906 172.024 159.084 171.988L159.307 172.888C159.442 174.009 159.508 174.281 159.897 175.344C158.4 175.8 158 175.192 157.094 175.64L156.68 175.12C156.519 174.341 156.574 174.232 156.883 173.527Z" fill="#FD9426"/>
<path d="M159.769 170.461C159.973 171.215 159.998 170.921 159.733 171.585L159.083 171.989C157.905 172.024 157.803 172.621 157.302 173.622L156.883 173.527C157.16 171.731 158.197 171.1 159.769 170.461Z" fill="#D06B04"/>
<path d="M159.898 175.344C160.028 175.658 160.12 175.768 160.118 176.091C158.646 176.324 158.324 176.418 157.096 175.64C158.001 175.191 158.401 175.799 159.898 175.344Z" fill="#E88010"/>
<path d="M149.075 147.572C154.162 152.013 157.316 153.748 159.965 160.804C156.758 162.309 152.58 162.303 149.177 163.106C146.762 163.359 143.952 163.835 141.619 163.135C139.776 162.581 139.18 163.312 138.178 164.763L135.58 165.553C131.339 165.625 127.44 166.937 124.567 166.993L124.502 166.699C123.88 166.109 123.45 166.565 122.297 165.889C123.486 165.261 130.182 160.497 130.819 159.463C131.655 159.88 131.922 159.958 132.83 160.198L132.727 159.747C131.941 159.57 131.9 159.458 131.655 158.803C132.839 158.406 133.158 158.249 134.225 157.596C134.718 157.504 134.814 157.466 135.305 157.518L135.832 157.06L136.414 156.256L136.701 156.354C137.125 156.269 137.708 155.811 138.013 155.503C139.901 153.59 148.038 149.458 149.075 147.572Z" fill="#FED350"/>
<path d="M136.415 156.256L136.702 156.353C137.457 158.823 135.271 161.086 133.051 160.393L132.831 160.198L132.728 159.747C131.942 159.57 131.901 159.458 131.656 158.803C132.841 158.406 133.159 158.249 134.226 157.596C134.719 157.504 134.815 157.466 135.306 157.517L135.833 157.06L136.415 156.256Z" fill="#FD9426"/>
<path d="M134.226 157.596C134.719 157.504 134.815 157.466 135.306 157.517C134.409 158.406 133.709 158.966 132.728 159.747C131.942 159.57 131.901 159.458 131.656 158.803C132.841 158.406 133.159 158.249 134.226 157.596Z" fill="#6F2F07"/>
<path d="M145.948 153.852C150.891 153.635 152.779 156.965 147.461 159.042C145.957 159.336 143.691 158.878 143.056 157.306C142.858 156.808 142.877 156.249 143.107 155.765C143.634 154.652 144.876 154.21 145.948 153.852Z" fill="#FDAF3E"/>
<path d="M154.656 157.555C155.534 157.914 155.431 157.73 155.957 158.407C155.909 159.192 155.891 158.997 155.374 159.722C154.442 159.509 154.219 159.533 153.746 158.878C153.809 158.248 154.199 157.985 154.656 157.555Z" fill="#FDAF3E"/>
<path d="M73.6992 138.74C75.4151 131.451 76.3788 128.324 83.2492 123.915C89.5298 119.885 96.8372 119.261 104.142 120.694C110.52 121.944 114.9 126.895 120.051 129.099C127.559 132.312 137.841 130.711 143.337 139.155C144.936 141.613 144.836 144.697 144.709 147.534C144.144 148.156 143.987 148.371 143.255 148.8C143.378 147.182 143.241 146.576 142.911 145.041C143.44 139.488 139.307 136.327 134.625 134.589C129.979 132.864 124.956 132.924 120.284 131.034C116.108 129.343 112.884 126.429 108.942 124.363C105.434 122.525 101.099 121.477 97.1405 121.479C89.1314 121.808 80.0216 125.579 76.7355 133.412C75.6849 135.916 75.807 137.743 75.8799 140.366C74.8114 139.89 74.5474 139.57 73.6992 138.74Z" fill="#AA4324"/>
<path d="M144.708 147.533L144.869 147.483C147.066 146.776 147.869 145.289 150.76 146.926C155.463 149.588 159.656 154.86 161.386 160.023C162.318 162.807 161.887 168.462 161.131 171.376C161.007 171.852 160.281 172.464 159.822 172.711L159.308 172.888L159.084 171.988L159.734 171.585C159.999 170.921 159.974 171.214 159.77 170.461C160.241 169.595 160.209 163.46 160.243 162.102C160.146 161.669 160.054 161.237 159.965 160.804C157.316 153.747 154.163 152.012 149.076 147.572C148.039 149.458 139.902 153.589 138.013 155.502C137.709 155.811 137.126 156.269 136.702 156.353L136.414 156.256L135.833 157.06C135.92 155.554 135.745 156.208 135.264 154.737L135.7 154.034C137.211 152.987 142.326 149.632 143.255 148.8C143.987 148.37 144.144 148.155 144.708 147.533Z" fill="#E88010"/>
<path d="M136.416 156.256C136.37 155.953 136.338 155.431 136.6 155.23C140.264 152.419 144.283 149.931 148.235 147.541C148.235 147.541 149.017 147.57 149.077 147.572C148.04 149.458 139.903 153.589 138.015 155.502C137.71 155.811 137.127 156.269 136.703 156.353L136.416 156.256Z" fill="#FDDF88"/>
<path d="M161.324 178.209C161.343 178.528 161.389 181.071 161.376 181.051C166.053 187.7 154.849 186.056 154.07 189.304C153.923 187.895 153.328 186.837 153.24 185.41C160.196 183.55 160.34 186.392 161.324 178.209Z" fill="#E3E1E0"/>
<path d="M166.1 156.922L166.138 157.074C166.617 158.944 168.76 162.421 166.046 163.269C166.118 161.064 165.579 159.487 164.957 157.4L166.1 156.922Z" fill="#6F2F07"/>
<path d="M40.1036 163.709C42.6198 152.365 46.4085 145.031 53.4173 135.744C57.587 140.295 62.8082 144.856 67.1991 149.287C69.8412 151.952 72.8117 154.611 75.0222 157.686C76.2308 160.676 77.8419 162.567 80.3562 164.595C78.9012 165.355 75.0103 165.461 72.6325 166.591C64.2136 164.357 54.5786 163.863 46.3629 167.937C45.5159 168.357 44.2852 169.503 44.0232 170.45C43.7962 171.268 44.1926 171.728 44.268 172.341L44.0338 172.657C44.2298 172.724 44.3819 172.881 44.4427 173.079C44.5033 173.276 44.4651 173.491 44.3402 173.657C44.3065 173.7 44.2675 173.74 44.2238 173.774C43.1883 176.264 46.463 183.824 48.0833 185.728C49.5892 185.502 53.4556 187.653 55.2013 188.052C56.2722 188.299 58.5866 188.079 59.188 188.456C58.5058 189.313 58.0926 188.658 57.6339 189.378L57.8201 189.719C58.3701 189.694 59.1867 189.387 59.4247 188.871L60.8173 188.84C62.5623 191.415 73.2043 196.366 76.5703 197.404C78.1874 197.905 80.4988 197.936 82.1519 199.004C86.0722 197.052 89.5921 196.254 94.0023 196.285L97.6595 196.431C98.9729 196.826 100.302 197.247 101.633 197.573C102.411 197.869 103.654 198.3 104.34 198.701L104.958 199.047C106.128 199.414 107.757 199.975 108.91 200.242L110.074 199.255C110.848 199.464 111.923 199.715 112.658 199.964C113.011 199.771 113.887 199.538 114.31 199.41L114.406 199.349C114.572 199.475 114.994 199.811 115.15 199.899L117.07 198.405C118.08 199.322 119.448 200.464 120.228 201.537C120.078 202.909 120.001 204.782 120.093 206.162L119.765 206.597C119.776 207.575 119.814 208.318 119.626 209.289C119.594 210.117 119.251 214.826 119.007 215.44C118.94 217.221 118.914 218.19 119.529 219.938L119.396 220.245L120.106 221.082L120.575 222.278C125.856 227.412 134.473 228.224 141.455 227.228L142.473 227.233C142.346 227.388 142.176 227.592 142.018 227.715C114.718 248.838 75.9924 243.427 54.1169 217.975C43.2666 205.462 37.7899 189.174 38.8756 172.646C38.9683 172.211 39.5372 171.322 39.7761 170.838C41.1586 168.034 40.6415 166.69 40.1036 163.709Z" fill="#F4F3F0"/>
<path d="M94.0012 196.284L97.6583 196.43C98.9717 196.825 100.301 197.246 101.632 197.572C102.41 197.868 103.653 198.299 104.338 198.7L104.957 199.046C106.127 199.413 107.756 199.974 108.909 200.241L110.073 199.254C110.847 199.463 111.922 199.714 112.657 199.963C113.01 199.77 113.886 199.537 114.309 199.409L114.405 199.348C114.571 199.474 114.993 199.81 115.148 199.898L117.068 198.404C118.079 199.321 119.447 200.463 120.227 201.536C120.076 202.908 119.999 204.781 120.091 206.161L119.764 206.596C119.774 207.574 119.813 208.317 119.625 209.288C119.593 210.116 119.25 214.824 119.006 215.439C118.939 217.22 118.912 218.189 119.528 219.937L119.395 220.244L120.105 221.081L120.574 222.277C118.612 228.268 114.012 231.483 108.274 233.311C101.785 235.377 98.8082 233.311 92.5971 232.373C86.4165 231.68 80.8376 232.6 75.1666 229.502C68.1242 225.655 65.5676 218.232 69.5549 210.863C71.0007 208.707 72.3747 207.581 74.2326 205.834C74.9784 205.62 75.9145 204.075 76.3944 203.388C78.6941 201.121 79.3341 200.6 82.1508 199.003C86.0711 197.051 89.5909 196.253 94.0012 196.284Z" fill="#F4F3F0"/>
<path d="M94.0012 196.284L97.6583 196.43C98.9717 196.825 100.301 197.246 101.632 197.572C102.41 197.868 103.653 198.299 104.338 198.7L104.957 199.046C106.127 199.413 107.756 199.974 108.909 200.241L110.073 199.254C110.847 199.463 111.922 199.714 112.657 199.963C113.01 199.77 113.886 199.537 114.309 199.409L114.405 199.348C114.571 199.474 114.993 199.81 115.148 199.898L117.068 198.404C118.079 199.321 119.447 200.463 120.227 201.536C120.076 202.908 119.999 204.781 120.091 206.161L119.764 206.596C119.774 207.574 119.813 208.317 119.625 209.288L119.494 209.176C118.052 207.933 117.376 206.318 115.719 205.149C112.449 202.841 108.882 202.094 105.199 200.773C102.666 199.867 100.653 198.871 97.9746 198.29C96.1316 197.892 94.2425 197.749 92.3607 197.866C85.0748 198.31 80.1659 201.468 75.6175 206.787C74.6011 207.976 73.2251 208.994 72.2026 210.194C68.65 214.172 68.799 219.34 71.2959 223.811C75.6873 229.928 81.6797 229.83 88.542 230.135C95.2448 230.433 101.714 233.632 108.503 231.438C112.398 230.177 116.151 227.914 117.833 224.008C118.35 222.824 118.784 221.296 119.395 220.244L120.105 221.081L120.574 222.277C118.612 228.268 114.012 231.483 108.274 233.311C101.785 235.377 98.8082 233.311 92.5971 232.373C86.4165 231.68 80.8376 232.6 75.1666 229.502C68.1242 225.655 65.5676 218.232 69.5549 210.863C71.0007 208.707 72.3747 207.581 74.2326 205.834C74.9784 205.62 75.9145 204.075 76.3944 203.388C78.6941 201.121 79.3341 200.6 82.1508 199.003C86.0711 197.051 89.5909 196.253 94.0012 196.284Z" fill="#AC732C"/>
<path d="M117.07 198.404C118.08 199.322 119.448 200.464 120.228 201.536C120.078 202.909 120.001 204.782 120.093 206.161L119.765 206.597C118.531 205.504 117.493 204.566 116.339 203.391C115.594 203.144 114.999 202.745 114.327 202.341C114.276 200.495 114.236 200.762 112.658 199.963C113.011 199.77 113.887 199.537 114.31 199.409L114.406 199.349C114.572 199.474 114.994 199.811 115.15 199.898L117.07 198.404Z" fill="#E3E1E0"/>
<path d="M114.31 199.41L114.406 199.35C114.572 199.475 114.994 199.812 115.15 199.899C115.889 200.864 116.068 202.181 116.339 203.392C115.594 203.145 114.999 202.746 114.327 202.342C114.276 200.496 114.236 200.763 112.658 199.964C113.011 199.771 113.887 199.538 114.31 199.41Z" fill="#3D586F"/>
<path d="M110.074 199.254C110.848 199.463 111.923 199.714 112.658 199.963C114.236 200.761 114.277 200.494 114.327 202.341C111.998 201.286 111.4 200.957 108.91 200.241L110.074 199.254Z" fill="#567C9D"/>
<path d="M71.2969 223.813L71.6114 223.768C71.844 223.427 71.8391 223.374 72.2164 223.185C73.3196 224.055 75.9902 225.933 77.281 226.438C81.3596 228.035 86.9554 228.102 91.2871 228.62C95.0154 229.067 99.2807 229.98 102.913 229.946C105.072 229.935 107.215 229.567 109.254 228.856C113.179 227.447 117.134 224.163 117.784 219.708C117.918 218.788 117.511 217.012 117.844 216.312C117.846 217.027 117.77 217.66 118.084 218.279C118.449 217.889 118.324 216.428 119.007 215.441C118.94 217.223 118.913 218.192 119.529 219.939L119.396 220.246C118.785 221.299 118.351 222.826 117.834 224.011C116.152 227.916 112.399 230.18 108.504 231.44C101.715 233.634 95.2458 230.435 88.543 230.137C81.6806 229.832 75.6883 229.931 71.2969 223.813Z" fill="#EFE0C9"/>
<path d="M96.4247 222.462C94.3798 222.637 92.3198 222.48 90.3254 221.995C85.2781 220.753 81.458 216.905 83.0817 211.753C85.8781 202.878 101.594 202.531 105.826 210.413C106.88 212.378 106.999 214.025 106.412 216.015C107.586 218.839 104.324 221.156 101.911 221.609L102.104 221.495C100.037 222.038 98.5601 222.603 96.4247 222.462Z" fill="#FDAF3E"/>
<path d="M96.4238 222.461C101.395 221.196 103.615 220.83 106.411 216.014C107.586 218.838 104.323 221.155 101.91 221.608L102.104 221.494C100.036 222.037 98.5592 222.602 96.4238 222.461Z" fill="#E3E1E0"/>
<path d="M91.5381 207.252C92.5126 207.23 93.0602 207.376 93.6699 208.134C93.9207 210.22 90.7135 211.355 89.1829 211.923C87.7495 212.024 86.2817 209.691 88.1728 208.625C89.3797 207.943 90.2375 207.683 91.5381 207.252Z" fill="#FED350"/>
<path d="M48.084 185.728C49.5899 185.501 53.4563 187.652 55.202 188.052C56.273 188.298 58.5873 188.079 59.1887 188.455C58.5066 189.312 58.0934 188.657 57.6346 189.377L57.8208 189.718C58.3708 189.694 59.1874 189.386 59.4254 188.87L60.818 188.839C62.563 191.414 73.205 196.365 76.571 197.404C78.1881 197.904 80.4996 197.935 82.1526 199.003C79.336 200.6 78.696 201.121 76.3962 203.389C64.6896 202.328 54.3521 195.607 48.084 185.728Z" fill="#D0DDE3"/>
<path d="M43.2006 173.123C43.2415 172.946 43.3554 172.794 43.5145 172.706C43.6737 172.616 43.8631 172.598 44.0356 172.657C44.2316 172.724 44.3837 172.881 44.4445 173.078C44.5051 173.276 44.467 173.491 44.342 173.657C44.3084 173.7 44.2693 173.74 44.2256 173.774C43.1901 176.264 46.4648 183.824 48.0851 185.728C54.3532 195.607 64.6907 202.328 76.3973 203.389C75.9175 204.076 74.9814 205.621 74.2355 205.834C72.3776 207.582 71.0037 208.708 69.5579 210.864C68.3528 210.222 68.1437 209.897 66.6876 209.251C65.0333 208.517 63.2411 208.477 62.0114 207.732L61.7613 207.703C57.8834 206.348 55.7303 202.25 55.0571 198.414C55.0497 197.972 55.0434 196.691 54.813 196.316C53.8298 195.165 52.0796 193.167 50.8082 192.265C48.0398 190.302 40.0605 175.53 43.2006 173.123Z" fill="#3E5463"/>
<path d="M65.5164 202.607C67.366 203.31 73.1988 204.961 74.2339 205.835C72.376 207.583 71.002 208.709 69.5563 210.865C68.3512 210.223 68.1421 209.898 66.686 209.252C65.0316 208.518 63.2395 208.478 62.0098 207.733C64.1494 206.201 65.0372 205.189 65.5164 202.607Z" fill="#E3E1E0"/>
<path d="M43.1979 173.123C43.2387 172.946 43.3527 172.794 43.5117 172.706C43.671 172.616 43.8603 172.598 44.0328 172.657C44.2289 172.724 44.381 172.881 44.4418 173.078C44.5023 173.276 44.4642 173.491 44.3392 173.657C44.3056 173.7 44.2666 173.74 44.2228 173.774C44.0079 173.942 43.7107 173.958 43.4805 173.812C43.2504 173.666 43.1371 173.39 43.1979 173.123Z" fill="#3D586F"/>
<path d="M56.9444 197.666C57.3906 197.843 58.3252 198.552 58.7588 198.862C58.8669 199.209 58.9775 199.555 59.0906 199.9C59.4284 200.934 59.8165 202.417 60.8576 202.944C61.3192 202.294 60.0255 200.869 60.8313 200.127C61.7017 200.504 63.0398 201.868 63.8927 202.579C62.6663 210.239 56.1853 201.843 56.9444 197.666Z" fill="#567C9D"/>
<path d="M55.0553 198.414C55.7285 202.25 57.8816 206.348 61.7595 207.703C61.1493 207.674 60.1535 207.795 59.5579 207.692C56.9672 207.243 54.2444 206.131 51.9493 204.875C51.0863 204.399 49.6215 203.342 49.4613 202.268C49.0824 199.731 53.3266 198.786 55.0553 198.414Z" fill="#E3E1E0"/>
<path d="M66.3241 167.256C68.1057 167.393 73.6335 168.725 74.9855 169.647C82.9046 172.142 91.3154 180.525 96.994 186.344C99.2906 188.697 101.446 191.106 104.369 192.528C105.409 194.711 105.37 195.173 105.275 197.569L104.34 198.699C103.654 198.298 102.411 197.867 101.633 197.571C100.302 197.246 98.973 196.824 97.6596 196.429L94.0024 196.283C89.5922 196.252 86.0723 197.051 82.152 199.002C80.4989 197.934 78.1875 197.903 76.5703 197.403C73.2044 196.364 62.5624 191.413 60.8174 188.838L59.4248 188.87C59.1868 189.385 58.3702 189.693 57.8202 189.717L57.634 189.377C58.0927 188.656 58.5059 189.311 59.1881 188.455C58.5867 188.078 56.2723 188.297 55.2014 188.051C53.4557 187.651 49.5893 185.5 48.0834 185.727C46.4631 183.822 43.1884 176.262 44.2239 173.772C44.2676 173.739 44.3066 173.698 44.3403 173.656C44.4652 173.49 44.5034 173.274 44.4428 173.077C44.382 172.88 44.2299 172.723 44.0339 172.655L44.268 172.339C44.9107 172.112 45.1402 171.989 45.7235 171.668C45.5803 171.011 45.5835 171.282 45.8471 170.556C45.9498 170.598 46.3258 170.731 46.4097 170.706C51.8435 169.201 57.4992 167.53 63.2396 168.005C64.3763 168.099 65.3958 168.032 66.3241 167.256Z" fill="#79A0C0"/>
<path d="M66.3241 167.256C68.1057 167.393 73.6335 168.725 74.9855 169.647C73.9646 169.977 68.2701 166.924 66.9206 168.277C67.5895 168.658 69.0081 168.837 69.8195 168.983C68.9164 169.136 67.5651 168.817 66.6359 168.615C67.0215 170.345 67.1709 171.52 67.3663 173.29C68.4834 173.849 68.6331 174.97 68.3571 176.13C68.2349 176.736 67.9985 177.748 67.9821 178.329C66.6274 183.737 65.2081 185.433 60.8174 188.838L59.4248 188.87C59.1868 189.385 58.3702 189.693 57.8202 189.717L57.634 189.377C58.0927 188.656 58.5059 189.311 59.1881 188.455C58.5867 188.078 56.2723 188.297 55.2014 188.051C53.4557 187.651 49.5893 185.5 48.0834 185.727C46.4631 183.822 43.1884 176.262 44.2239 173.772C44.2676 173.739 44.3066 173.698 44.3403 173.656C44.4652 173.49 44.5034 173.274 44.4428 173.077C44.382 172.88 44.2299 172.723 44.0339 172.655L44.268 172.339C44.9107 172.112 45.1402 171.989 45.7235 171.668C45.5803 171.011 45.5835 171.282 45.8471 170.556C45.9498 170.598 46.3258 170.731 46.4097 170.706C51.8435 169.201 57.4992 167.53 63.2396 168.005C64.3763 168.099 65.3958 168.032 66.3241 167.256Z" fill="#A8C0D1"/>
<path d="M67.3673 173.293C68.4845 173.852 68.6341 174.973 68.3582 176.133C68.2359 176.739 67.9995 177.75 67.9831 178.331C66.6284 183.74 65.2091 185.436 60.8184 188.841L59.4258 188.872C59.6488 187.82 61.2475 186.939 62.1453 186.077C66.3843 182.012 67.0512 178.724 67.3673 173.293Z" fill="#628AAC"/>
<path d="M44.2694 172.341C44.912 172.114 45.1415 171.991 45.7248 171.67C46.6443 173.294 49.5224 176.802 49.5775 178.077C47.8576 178.492 46.2766 173.781 44.3416 173.657C44.4665 173.491 44.5047 173.276 44.4441 173.079C44.3833 172.881 44.2312 172.724 44.0352 172.657L44.2694 172.341Z" fill="#394953"/>
<path d="M56.6353 171.335C62.4054 171.05 62.9224 176.441 58.6286 178.893C56.5976 178.812 55.0749 178.653 54.1684 176.535C53.7709 175.624 53.7615 174.592 54.1421 173.675C54.7092 172.342 55.3555 171.847 56.6353 171.335Z" fill="#F4F3F0"/>
<path d="M57.3883 172.649C60.5637 172.528 61.166 176.445 57.8619 177.421C54.6439 177.239 53.9824 174.249 57.3883 172.649Z" fill="#394953"/>
<path d="M67.9831 178.332C69.3564 178.922 70.321 179.718 71.4868 180.643L73.2363 180.847L73.4355 180.618C74.2859 179.972 75.1401 179.328 75.9982 178.691C76.1337 179.916 76.5455 182.769 76.1292 183.799L76.9966 184.158C79.2397 185.392 80.9795 186.52 80.6361 189.277C81.6814 188.687 83.1793 188.828 84.0102 189.728C83.8955 190.291 83.6945 191.325 83.4767 191.825C83.1093 192.673 81.9975 193.274 82.0794 194.205C82.7766 194.434 82.4738 194.421 83.2569 194.163C84.1425 192.924 85.8752 188.956 87.8508 190.237C88.2257 190.479 88.6911 191.067 88.8174 191.511C88.9653 192.355 88.8242 192.377 89.3358 192.857C90.0535 192.841 90.8193 192.554 91.4028 192.812C92.7202 193.395 93.9401 194.041 95.2858 194.584C94.826 195.468 94.7169 195.585 94.0034 196.287C89.5931 196.256 86.0733 197.054 82.153 199.006C80.4999 197.938 78.1885 197.907 76.5713 197.406C73.2053 196.368 62.5634 191.417 60.8184 188.842C65.2091 185.436 66.6284 183.74 67.9831 178.332Z" fill="#A8C0D1"/>
<path d="M72.7789 182.973C74.1076 183.071 74.9008 183.32 76.1283 183.798L76.9957 184.157C79.2388 185.391 80.9786 186.519 80.6352 189.276C78.6571 191.742 74.3023 194.669 71.0269 193.951C68.6825 193.437 65.293 190.461 65.9837 187.897C67.11 187.192 67.6654 186.331 68.3485 185.241L69.58 185.6L69.7987 184.998C69.5708 184.496 69.5327 184.424 69.6437 183.89C70.1906 183.498 71.0951 183.65 71.8206 183.686L71.1799 183.311L71.3535 183.098L72.7789 182.973Z" fill="#628AAC"/>
<path d="M72.7789 182.973C74.1076 183.071 74.9008 183.32 76.1283 183.798L76.9957 184.157C79.2388 185.391 80.9786 186.519 80.6352 189.276C78.6571 191.742 74.3023 194.669 71.0269 193.951C68.6825 193.437 65.293 190.461 65.9837 187.897C67.5544 188.352 69.5529 194.285 74.1269 192.311C74.4629 192.152 75.1188 191.692 75.4593 191.47C83.5563 187.946 76.6411 184.458 71.8206 183.686L71.1799 183.311L71.3535 183.098L72.7789 182.973Z" fill="#324552"/>
<path d="M74.1266 192.311C72.3121 189.267 70.6918 189.258 69.0762 187.068C70.0717 187.154 73.9792 190.53 75.4591 191.47C75.1186 191.692 74.4627 192.152 74.1266 192.311Z" fill="#3D586F"/>
<path d="M69.7988 184.998C71.2192 185.449 76.0247 186.914 76.4655 188.421C75.978 188.323 71.0716 186.117 69.5801 185.599L69.7988 184.998Z" fill="#3D586F"/>
<path d="M68.349 185.239C68.1384 184.275 68.0731 183.801 68 182.814C69.1026 183.631 69.7641 183.456 71.1805 183.31L71.8211 183.685C71.0957 183.649 70.1912 183.496 69.6443 183.889C69.5333 184.423 69.5714 184.495 69.7993 184.997L69.5806 185.598L68.349 185.239Z" fill="#426882"/>
<path d="M68 182.815C69.7161 182.277 71.0553 182.521 72.7795 182.972L71.3541 183.098L71.1805 183.311C69.7641 183.457 69.1026 183.632 68 182.815Z" fill="#394953"/>
<path d="M85.3987 184.203C85.8678 183.429 86.7561 181.724 87.4448 181.334C89.2031 181.509 90.3247 184.367 88.7629 185.361C87.9056 185.908 87.5893 185.583 87.3374 186.695L87.5105 187.209C89.5721 188.111 88.972 189.457 88.8166 191.509C88.6903 191.065 88.2248 190.477 87.8499 190.235C85.8743 188.954 84.1416 192.923 83.256 194.161C82.4729 194.419 82.7757 194.432 82.0785 194.203C81.9966 193.273 83.1084 192.671 83.4758 191.823C83.6937 191.323 83.8946 190.289 84.0093 189.726C86.5215 189.338 85.6157 186.052 85.3987 184.203Z" fill="#96B2C7"/>
<path d="M80.2129 181.264C81.0703 182.154 80.9953 183.401 81.077 184.718C81.9124 184.543 82.9584 184.211 83.7148 184.512C85.0083 185.802 83.7936 187.883 84.0096 189.727C83.1787 188.828 81.6809 188.687 80.6355 189.277C80.979 186.52 79.2391 185.391 76.9961 184.157C77.1136 183.536 77.2754 182.863 77.4111 182.239C78.2133 181.688 79.2577 181.504 80.2129 181.264Z" fill="#96B2C7"/>
<path d="M68.3575 176.131C69.4941 176.382 72.2437 176.781 72.9985 177.324C73.2141 178.029 72.5708 179.765 73.4349 180.615L73.2357 180.844L71.4861 180.64C70.3203 179.716 69.3557 178.919 67.9824 178.329C67.9988 177.748 68.2352 176.737 68.3575 176.131Z" fill="#96B2C7"/>
<path d="M77.4094 182.237C77.1765 181.23 77.1303 180.472 77.644 179.613L78.2001 179.525C79.1122 179.7 79.6183 180.526 80.2112 181.262C79.256 181.502 78.2116 181.686 77.4094 182.237Z" fill="#96B2C7"/>
<path d="M95.2844 194.582C96.2587 194.916 97.6959 195.208 98.3085 195.836C98.0559 196.215 98.058 196.193 97.6591 196.43L94.002 196.285C94.7155 195.583 94.8246 195.466 95.2844 194.582Z" fill="#96B2C7"/>
<path d="M92.3004 185.424C94.7274 186.999 93.4077 189.592 91.7614 191.137H91.2571C90.3963 190.265 90.5388 187.723 90.8676 186.628C91.0884 185.897 91.6849 185.747 92.3004 185.424Z" fill="#96B2C7"/>
<path d="M78.4532 173.436C80.5462 175.885 79.102 177.137 76.1492 176.529L75.9296 176.563C75.4534 176.204 75.3149 175.78 75.0469 175.237C75.0969 174.737 75.0229 174.656 75.3481 174.301C75.7412 173.88 76.2836 173.631 76.859 173.604C77.3637 173.579 77.9429 173.494 78.4532 173.436Z" fill="#96B2C7"/>
<path d="M72.9297 171.66L73.4079 171.813C74.134 172.898 73.8662 174.579 73.0492 175.532C70.7257 174.327 71.4623 173.23 72.9297 171.66Z" fill="#96B2C7"/>
<path d="M83.1516 177.906C84.0489 177.969 84.5262 178.101 85.118 178.808C85.4392 179.629 85.3161 179.847 85.0644 180.69C84.0881 180.596 83.6047 180.473 82.9779 179.696C82.7494 178.671 82.8027 178.994 83.1516 177.906Z" fill="#96B2C7"/>
<path d="M95.4424 189.83L95.7717 189.96C96.7085 190.923 96.5782 192.08 95.7706 193.042C94.8215 192.908 94.6135 192.903 94.2266 192.082C94.2856 191.25 94.9372 190.523 95.4424 189.83Z" fill="#96B2C7"/>
<path d="M80.3555 164.594L82.3939 164.562L83.8872 165.913C84.9007 166.7 85.3821 167.153 86.2707 168.046L86.9082 168.695C87.5267 169.273 88.2544 169.919 88.8399 170.514C89.7932 171.483 90.87 172.528 91.7875 173.513L92.3326 173.995C93.7831 175.359 94.9408 176.589 96.2937 178.058C98.1469 179.583 106.617 187.814 107.99 189.505L109.044 190.515L110.972 192.325L112.505 193.888L114.613 195.912L115.247 196.61L116.163 197.561L117.069 198.404L115.149 199.898C114.994 199.811 114.571 199.474 114.405 199.349L114.309 199.409C113.886 199.537 113.01 199.77 112.658 199.963C111.922 199.714 110.847 199.463 110.073 199.254L108.909 200.241C107.757 199.974 106.127 199.414 104.957 199.046L104.339 198.7L105.275 197.57C105.369 195.174 105.408 194.712 104.368 192.529C101.445 191.107 99.2898 188.698 96.9932 186.344C91.3146 180.525 82.9038 172.142 74.9847 169.648C73.6327 168.726 68.1049 167.393 66.3233 167.257C65.395 168.033 64.3755 168.1 63.2388 168.006C57.4984 167.53 51.8427 169.202 46.4089 170.707C46.325 170.731 45.949 170.599 45.8463 170.556C45.5827 171.283 45.5795 171.012 45.7227 171.669C45.1394 171.99 44.9099 172.113 44.2672 172.34C44.1919 171.727 43.7955 171.268 44.0225 170.449C44.2845 169.502 45.5152 168.356 46.3622 167.936C54.5779 163.863 64.2128 164.356 72.6317 166.59C75.0096 165.46 78.9005 165.354 80.3555 164.594Z" fill="#3E5463"/>
<path d="M96.2949 178.059C98.1481 179.584 106.618 187.814 107.991 189.506L106.133 190.033C105.542 190.298 105.314 190.349 104.698 190.497C102.391 190.152 98.3724 185.618 96.4327 183.815C97.1998 181.794 97.0693 181.466 96.6227 179.391L96.2949 178.059Z" fill="#F4F3F0"/>
<path d="M83.8892 165.914C84.9027 166.701 85.3841 167.155 86.2726 168.047L86.9102 168.696C87.5286 169.274 88.2563 169.921 88.8418 170.515C87.161 171.533 84.3901 171.439 82.368 171.567C81.6379 171.336 80.6217 171.132 80.2298 170.513L80.3518 169.972L80.4301 169.584L80.1517 169.324C79.5317 169.378 79.1122 169.443 78.5108 169.209L74.4043 167.924C77.9338 166.085 80.0156 166.183 83.8892 165.914Z" fill="#6B91B4"/>
<path d="M80.3505 169.972C82.7694 169.157 85.1134 169.231 86.9089 168.695C87.5274 169.274 88.2551 169.92 88.8406 170.515C87.1597 171.533 84.3888 171.439 82.3668 171.567C81.6366 171.336 80.6204 171.131 80.2285 170.512L80.3505 169.972Z" fill="#628AAC"/>
<path d="M86.2716 168.047L86.9092 168.695C85.1137 169.231 82.7697 169.157 80.3508 169.972L80.4291 169.583L80.1507 169.323C79.5307 169.377 79.1112 169.442 78.5098 169.209C79.119 168.953 85.4019 168.107 86.2716 168.047Z" fill="#3D586F"/>
<path d="M110.973 192.324L112.506 193.888L114.614 195.911L115.248 196.609L116.164 197.56L117.07 198.403L115.15 199.897C114.994 199.81 114.572 199.473 114.406 199.348L114.31 199.408C113.229 199.42 107.673 197.787 106.986 196.972C106.875 195.747 106.54 196.297 107.005 195.122C106.754 194.28 106.744 194.608 106.95 193.834L106.477 193.484C107.118 193.356 107.995 193.257 108.662 193.161C109.816 192.995 109.994 192.943 110.973 192.324Z" fill="#628AAC"/>
<path d="M110.973 192.324L112.506 193.888L114.614 195.911C113.062 196.048 108.507 195.593 107.005 195.122C106.754 194.28 106.744 194.608 106.95 193.834L106.477 193.484C107.118 193.356 107.995 193.257 108.662 193.161C109.816 192.995 109.994 192.943 110.973 192.324Z" fill="#567C9D"/>
<path d="M110.973 192.324L112.506 193.888C111.459 194.39 111.157 194.213 110.029 193.937C109.949 193.679 109.897 193.639 109.751 193.399L108.662 193.161C109.816 192.995 109.994 192.943 110.973 192.324Z" fill="#426882"/>
<path d="M108.662 193.162L109.751 193.4C109.897 193.64 109.949 193.68 110.029 193.938C108.839 193.97 108.126 193.929 106.95 193.835L106.477 193.485C107.118 193.357 107.995 193.259 108.662 193.162Z" fill="#3D586F"/>
<path d="M107.005 195.123C108.507 195.594 113.062 196.05 114.614 195.913L115.248 196.61C112.338 197.445 108.15 195.614 106.986 196.974C106.875 195.749 106.541 196.299 107.005 195.123Z" fill="#3D586F"/>
<path d="M116.166 197.562L117.072 198.406L115.152 199.9C114.996 199.812 114.574 199.476 114.408 199.35C114.817 198.745 115.606 198.078 116.166 197.562Z" fill="#394953"/>
<path d="M45.8477 170.559C49.0014 167.351 59.8213 165.947 64.2851 166.77C64.8948 166.884 65.7237 167.089 66.3247 167.259C65.3964 168.035 64.3769 168.103 63.2402 168.008C57.4998 167.533 51.8441 169.204 46.4103 170.709C46.3264 170.734 45.9504 170.601 45.8477 170.559Z" fill="#BFD3DB"/>
<path d="M88.841 170.516C89.7944 171.485 90.8711 172.53 91.7886 173.515L92.3337 173.997L92.4093 175.108C91.2612 174.536 88.4356 174.538 87.6888 175.691C86.9064 175.321 86.7693 175.007 86.3014 174.278C85.9526 174.129 85.6064 173.975 85.263 173.815C84.6872 173.54 84.1595 173.331 83.9684 172.792C84.3451 172.588 84.5375 172.447 84.8341 172.137L84.9216 172.362L85.0304 172.297L84.621 172.429L84.5395 172.03C83.843 171.821 83.0844 171.702 82.3672 171.568C84.3892 171.44 87.1601 171.534 88.841 170.516Z" fill="#567C9D"/>
<path d="M91.7899 173.514L92.335 173.996L92.4106 175.106C91.2626 174.534 88.437 174.537 87.6902 175.69C86.9077 175.319 86.7707 175.005 86.3027 174.276C87.3672 174.198 91.0398 173.971 91.7899 173.514Z" fill="#3D586F"/>
<path d="M107.992 189.508L109.046 190.517L110.975 192.328C109.995 192.947 109.818 192.998 108.664 193.164C107.997 193.261 107.12 193.359 106.478 193.487C106.161 193.458 106.082 193.373 105.787 193.218C105.41 192.597 105.458 192.884 105.626 192.146C106.29 191.401 106.123 191.614 107.169 191.264C106.787 190.598 106.708 190.528 106.134 190.035L107.992 189.508Z" fill="#567C9D"/>
<path d="M107.989 189.508L109.043 190.517C108.556 190.717 107.628 191.13 107.166 191.264C106.784 190.598 106.705 190.528 106.131 190.035L107.989 189.508Z" fill="#3D586F"/>
<path d="M87.6875 175.69C88.4343 174.537 91.2599 174.535 92.408 175.107C92.8665 176.103 93.0717 176.087 92.8627 176.928C92.2355 177.359 90.5079 177.144 89.621 177.123L87.6875 175.69Z" fill="#567C9D"/>
<path d="M96.624 179.391C97.0706 181.466 97.2012 181.793 96.434 183.814C95.4678 183.09 94.7377 183.067 94.084 182.062C94.4001 180.788 96.3867 181.73 96.624 179.391Z" fill="#426882"/>
<path d="M104.957 199.045C105.267 198.579 105.292 198.332 105.816 198.198C106.665 197.978 109.409 198.837 110.073 199.254L108.909 200.241C107.756 199.974 106.127 199.413 104.957 199.045Z" fill="#426882"/>
<path d="M90.8467 177.908C92.0051 178.036 93.2483 177.774 94.2008 178.332C94.7567 179.268 94.5588 179.739 94.3031 180.829C93.3342 180.241 91.0827 179.108 90.5703 178.285L90.8467 177.908Z" fill="#567C9D"/>
<path d="M120.229 201.537L121.259 202.621C121.972 203.262 123.14 204.256 123.737 204.954C128.325 209.328 134.946 215.555 139.229 220.129C140.435 221.244 141.592 222.298 142.726 223.487C143.375 224.122 144.07 224.782 144.691 225.441C144.158 226.246 143.308 226.738 142.475 227.234L141.456 227.229C134.475 228.225 125.857 227.413 120.576 222.278L120.107 221.083L119.397 220.246L119.53 219.938C118.915 218.191 118.941 217.222 119.008 215.441C119.252 214.826 119.595 210.118 119.627 209.29C119.815 208.318 119.777 207.576 119.766 206.598L120.094 206.163C120.002 204.783 120.079 202.91 120.229 201.537Z" fill="#F4F3F0"/>
<path d="M120.229 201.537L121.259 202.621L121.171 204.227C121.192 206.015 121.22 207.78 121.163 209.568C121.344 211.437 121.515 212.769 121.863 214.609L121.874 214.402C122.029 215.661 122.086 216.603 122.138 217.857C122.329 218.46 122.422 218.871 122.798 219.396C127.771 221.865 134.754 225.037 139.229 220.129C140.435 221.244 141.592 222.298 142.726 223.487C143.375 224.122 144.07 224.782 144.691 225.441C144.158 226.246 143.308 226.738 142.475 227.234L141.456 227.229C134.475 228.225 125.857 227.413 120.576 222.278L120.107 221.083L119.397 220.246L119.53 219.938C118.915 218.191 118.941 217.222 119.008 215.441C119.252 214.826 119.595 210.118 119.627 209.29C119.815 208.318 119.777 207.576 119.766 206.598L120.094 206.163C120.002 204.783 120.079 202.91 120.229 201.537Z" fill="#D0DDE3"/>
<path d="M122.797 219.395C127.77 221.864 134.752 225.036 139.228 220.128C140.434 221.243 141.591 222.297 142.725 223.486C139.798 226.306 125.123 224.027 122.797 219.395Z" fill="#EFE0C9"/>
<path d="M121.081 220.105C125.273 225.218 132.045 226.187 138.309 226.142L138.491 226.187C139.68 226.458 140.645 226.135 141.304 226.564L141.456 227.228C134.475 228.224 125.857 227.412 120.576 222.277L120.107 221.081C120.47 220.823 120.78 220.44 121.081 220.105Z" fill="#517079"/>
<path d="M120.229 201.537L121.259 202.621L121.171 204.227C121.192 206.015 121.22 207.78 121.163 209.568C120.736 212.525 120.463 217.269 121.081 220.107C120.78 220.441 120.47 220.825 120.107 221.083L119.397 220.246L119.53 219.938C118.915 218.191 118.941 217.222 119.008 215.441C119.252 214.826 119.595 210.118 119.627 209.29C119.815 208.318 119.777 207.576 119.766 206.598L120.094 206.163C120.002 204.783 120.079 202.91 120.229 201.537Z" fill="#60797F"/>
<path d="M120.23 201.537L121.26 202.621L121.172 204.227L121.027 205.149L120.71 205.124L121.004 205.29L120.808 206.134C120.511 205.526 121.04 205.66 120.539 204.871C120.216 205.492 120.232 205.873 120.094 206.163C120.002 204.783 120.079 202.91 120.23 201.537Z" fill="#3E5463"/>
<path d="M138.309 226.144C140.723 226.126 142.333 225.829 144.69 225.441C144.157 226.247 143.307 226.738 142.474 227.234L141.455 227.229L141.304 226.565C140.645 226.137 139.68 226.46 138.491 226.188L138.309 226.144Z" fill="#3E5463"/>
<path d="M121.258 202.619C121.971 203.261 123.139 204.254 123.736 204.952C122.566 207.121 122.448 215.06 122.137 217.855C122.085 216.601 122.028 215.659 121.873 214.401L121.862 214.607C121.514 212.768 121.343 211.435 121.162 209.566C121.219 207.779 121.191 206.013 121.17 204.225L121.258 202.619Z" fill="#E3E1E0"/>
<path d="M167.852 173.574C169.421 175.353 168.706 176.174 168.944 178.583C171.955 182.637 173.379 183.53 178.411 184.275L179.328 184.409C179.262 185.405 179.224 186.715 178.978 187.653C178.89 187.534 178.787 187.39 178.667 187.227C176.789 186.931 174.338 186.385 172.681 185.508C170.819 184.526 168.815 183.124 168.834 180.842C168.837 180.465 168.765 179.041 168.667 178.734C168.118 179.09 168.634 180.255 167.955 181.053C167.955 180.109 167.953 179.712 167.754 178.788L167.71 178.583C167.669 176.827 167.752 175.333 167.852 173.574Z" fill="#AA4324"/>
<path d="M75.0234 157.686C76.1134 158.197 81.3146 163.444 82.3959 164.563L80.3574 164.595C77.8432 162.567 76.2321 160.676 75.0234 157.686Z" fill="#6F2F07"/>
<path d="M87.4626 14.1975C88.4178 14.9497 89.545 15.7642 90.7393 14.8405C90.3156 13.6096 84.0466 9.01723 88.6363 7.28499C91.3448 6.26297 94.9622 12.11 96.8069 12.1243C97.7116 10.2728 94.4788 3.18119 98.2334 2.15491C103.108 0.822195 104.408 10.8233 104.759 13.1881C106.512 11.3293 109.763 4.30192 112.996 7.42654C114.355 10.0096 110.936 12.7516 110.86 14.8052C111.686 15.4266 112.664 14.5017 113.439 14.0062C121.643 14.6332 128.145 17.346 135.514 20.7001C135.752 20.1767 136.037 19.3216 136.244 18.7543C138.109 14.362 140.468 11.9083 144.891 9.96769C156.84 4.72589 169.612 18.4543 164.555 30.16C163.053 33.7003 161.117 36.5338 157.524 38.2819C156.491 38.4293 156.291 38.7043 155.432 38.9567C159.372 46.1039 162.385 51.6353 164.174 59.7792C164.68 62.0799 165.749 68.6328 166.525 70.3619C169.074 76.0412 171.976 79.2766 173.141 85.9556C174.705 95.4037 172.883 102.956 167.445 110.966C164.517 115.278 161.983 116.694 158.666 119.982L155.331 116.902C145.84 108.592 133.506 101.965 121.206 99.1432C117.158 98.429 112.157 97.8583 108.158 97.0045C107.106 96.78 103.238 93.7942 101.751 92.9958C101.504 90.8248 101.381 89.299 101.705 87.1111C108.206 86.5851 117.235 79.7425 110.949 73.5496C106.101 68.773 87.3886 68.95 87.9427 78.5354C88.0201 80.6773 89.9262 82.8963 91.7156 84.2501C92.6526 84.9637 93.6789 85.5516 94.7682 85.9992C95.9058 86.4608 98.9516 87.0461 99.3455 87.4846C99.549 89.3595 99.4079 91.1003 99.4727 92.9597C97.6905 93.9627 93.6802 97.2661 92.4779 97.6755C88.545 99.014 83.3573 99.8063 79.247 101.168C66.6758 104.869 54.2164 112.994 45.3183 122.544L44.4271 122.132C42.2635 120.218 39.8253 118.508 37.6617 116.501C32.7169 111.913 29.6432 106.823 27.6608 100.436C25.265 93.8716 26.283 82.9959 29.9622 77.0013C34.1994 70.0975 34.6371 67.5227 36.3595 59.3581C37.7357 52.8354 41.5093 45.1176 44.812 39.2189C44.1227 38.7203 43.7213 38.5765 42.9429 38.2481C38.6673 35.6881 36.5365 32.8676 35.25 28.0967C34.3807 25.1098 34.806 21.5105 35.9373 18.6414C37.5333 14.7074 40.6393 11.577 44.5608 9.94996C52.9877 6.36458 61.3766 10.636 64.8422 18.8191C65.0638 19.2034 65.5066 20.063 65.8124 20.3122C72.4596 17.4613 80.1348 14.3974 87.4626 14.1975Z" fill="#FF9B34"/>
<path d="M79.2484 101.169C79.0631 99.7439 78.3744 97.7359 78.0341 96.2318C76.9988 91.7243 77.1298 87.0271 78.4143 82.5844C80.7857 74.5062 86.6526 68.2009 94.8699 66.0584C112.368 61.4676 126.578 79.1363 122.381 95.6928C122.072 96.9127 121.567 97.9412 121.207 99.1443C117.16 98.43 112.158 97.8593 108.16 97.0055C107.108 96.781 103.24 93.7952 101.753 92.9969C101.505 90.8258 101.383 89.3 101.706 87.1121C108.208 86.5861 117.237 79.7435 110.951 73.5506C106.103 68.7741 87.39 68.9511 87.9441 78.5364C88.0215 80.6783 89.9276 82.8973 91.717 84.2511C92.654 84.9647 93.6803 85.5527 94.7696 86.0002C95.9072 86.4618 98.953 87.0471 99.3469 87.4856C99.5504 89.3605 99.4093 91.1013 99.4741 92.9607C97.6919 93.9637 93.6816 97.2671 92.4793 97.6765C88.5464 99.015 83.3587 99.8074 79.2484 101.169Z" fill="#E88010"/>
<path d="M136.245 18.7541C138.11 14.3618 140.469 11.9082 144.893 9.96755C156.842 4.72576 169.614 18.4542 164.556 30.1599C163.055 33.7002 161.118 36.5336 157.525 38.2818C157.077 38.0184 156.391 37.022 156.035 36.5563C155.203 35.2689 154.405 34.2906 153.545 32.8751C152.121 33.2309 152.197 32.5999 150.89 32.8682C148.316 30.0219 145.497 27.4061 142.467 25.0505C140.193 23.5329 137.875 22.082 135.516 20.6999C135.754 20.1766 136.039 19.3214 136.245 18.7541Z" fill="#FD9426"/>
<path d="M143.258 23.2543C144.349 21.1779 145.528 19.6435 147.897 18.9021C149.794 18.3048 151.852 18.4918 153.611 19.4212C155.427 20.4015 156.807 22.1867 157.352 24.1715C157.874 26.0442 157.61 28.0487 156.623 29.7233C155.997 30.7869 154.645 32.2721 153.545 32.8742C152.121 33.23 152.196 32.599 150.89 32.8672C148.315 30.021 145.497 27.4052 142.467 25.0495L143.258 23.2543Z" fill="#522804"/>
<path d="M149.578 20.3644C150.878 20.2206 151.734 20.4911 152.885 21.0326C157.151 23.0395 156.101 29.74 152.305 31.6616C152.057 31.7872 151.978 31.686 151.771 31.5772C150.722 29.341 146.429 25.8058 144.475 24.1382C146.152 22.0717 146.937 21.1038 149.578 20.3644Z" fill="#D06B04"/>
<path d="M156.035 36.5585C161.391 34.0615 160.538 33.1584 164.556 30.1621C163.054 33.7024 161.118 36.5358 157.525 38.284C157.077 38.0206 156.391 37.0242 156.035 36.5585Z" fill="#E88010"/>
<path d="M135.516 20.6997C135.754 20.1764 136.039 19.3212 136.245 18.7539C137.473 19.8392 141.709 22.333 143.259 23.255L142.467 25.0502C140.193 23.5327 137.875 22.0818 135.516 20.6997Z" fill="#E88010"/>
<path d="M35.2502 28.0972C34.3809 25.1103 34.8062 21.511 35.9375 18.6419C37.5336 14.7079 40.6396 11.5775 44.561 9.95042C52.988 6.36504 61.3768 10.6364 64.8424 18.8195C63.7735 19.2931 62.771 19.9044 61.8602 20.6375C60.9427 21.0837 58.5959 22.6492 57.8051 23.3166C57.9449 23.7677 58.0979 24.3364 58.3069 24.7473C55.2397 27.6411 53.0849 29.1484 50.0222 32.4396C49.3665 31.7806 49.6058 31.8272 48.8135 31.6996C48.3898 31.9632 47.3841 32.7472 47.1376 32.8594C46.5904 33.6093 45.4957 35.1831 44.8874 35.7762C44.3445 36.6697 43.805 37.8936 42.9432 38.2485C38.6675 35.6885 36.5367 32.8681 35.2502 28.0972Z" fill="#FD9426"/>
<path d="M47.1377 32.8583C46.2236 31.9684 45.2675 31.1029 44.551 30.0403C42.2339 26.6039 42.8381 21.7062 46.5755 19.484C48.3555 18.4239 50.49 18.1322 52.4894 18.676C55.158 19.414 56.5232 21.0577 57.8052 23.3155C57.945 23.7666 58.098 24.3353 58.307 24.7462C55.2398 27.64 53.085 29.1473 50.0223 32.4386C49.3666 31.7795 49.6059 31.8261 48.8136 31.6985C48.3899 31.9621 47.3842 32.7461 47.1377 32.8583Z" fill="#522804"/>
<path d="M49.6128 20.1608C52.4868 19.9195 54.7258 21.6775 56.0352 24.1074C53.7511 26.1409 51.8257 27.902 49.6792 30.074C48.9443 30.8328 49.1318 30.8551 48.2352 31.1207C46.0581 30.7151 45.0294 27.3695 44.6074 25.4672C45.4307 22.7296 46.7526 20.8766 49.6128 20.1608Z" fill="#D06B04"/>
<path d="M35.25 28.0957C38.4303 31.6862 39.7715 35.4336 44.8872 35.7748C44.3443 36.6683 43.8048 37.8922 42.943 38.2471C38.6674 35.6871 36.5365 32.8666 35.25 28.0957Z" fill="#E88010"/>
<path d="M173.143 85.957C174.707 95.4051 172.884 102.958 167.447 110.967C164.519 115.279 161.985 116.696 158.668 119.984L155.333 116.904C155.132 117.094 157.865 115.179 157.98 115.098C164.97 110.145 169.455 102.639 171.271 94.3591C171.693 92.4335 171.457 89.7602 171.822 87.7157C172.039 86.5057 172.094 86.7289 173.143 85.957Z" fill="#E88010"/>
<path d="M47.1378 32.859C47.3843 32.7468 48.39 31.9628 48.8137 31.6992C49.606 31.8269 49.3667 31.7802 50.0224 32.4393C47.9898 34.7608 46.2719 37.561 44.8124 39.219C44.1231 38.7204 43.7218 38.5766 42.9434 38.2482C43.8052 37.8933 44.3447 36.6694 44.8876 35.7759C45.4959 35.1828 46.5907 33.6089 47.1378 32.859Z" fill="#D06B04"/>
<path d="M150.891 32.8693C152.197 32.601 152.121 33.232 153.546 32.8762C154.405 34.2917 155.203 35.27 156.036 36.5574C156.392 37.0231 157.078 38.0196 157.526 38.2829C156.493 38.4303 156.292 38.7053 155.434 38.9577C154.065 36.8232 152.547 34.7886 150.891 32.8693Z" fill="#D06B04"/>
<path d="M57.8047 23.3178C58.5954 22.6504 60.9423 21.0849 61.8598 20.6387C61.921 21.3662 61.924 21.577 62.1911 22.2881C60.9228 23.1107 59.6078 23.9934 58.3065 24.7485C58.0974 24.3376 57.9444 23.7689 57.8047 23.3178Z" fill="#E88010"/>
<path d="M64.8435 18.8184C65.0651 19.2026 65.5079 20.0622 65.8137 20.3115C64.5898 21.0237 63.4495 21.6336 62.1927 22.2857C61.9255 21.5746 61.9226 21.3638 61.8613 20.6363C62.7721 19.9032 63.7746 19.2919 64.8435 18.8184Z" fill="#D06B04"/>
<path d="M148.829 78.7314C161.677 78.1782 164.371 95.9385 150.202 97.1935C148.344 97.5684 144.573 96.626 143.177 95.4483C135.927 89.3312 140.162 79.89 148.829 78.7314Z" fill="#FDAF3E"/>
<path d="M49.9449 78.7443C62.6125 77.7756 65.6564 96.0132 51.7032 97.1667C46.8064 98.1486 41.5388 94.1302 40.8746 89.1166C40.5886 86.8 41.2398 84.465 42.684 82.6309C44.5291 80.241 47.0267 79.0886 49.9449 78.7443Z" fill="#FDAF3E"/>
<path d="M69.7953 60.9687C77.8481 60.8038 80.0978 71.4648 75.632 76.6658C74.0698 78.4851 73.0899 78.831 70.9808 79.676C61.8867 80.6772 59.0699 63.6893 69.7953 60.9687Z" fill="#522804"/>
<path d="M69.8536 64.291C73.4664 64.3341 73.2716 67.703 70.8868 69.5111C67.7241 68.6705 66.7961 66.1112 69.8536 64.291Z" fill="#F4F3F0"/>
<path d="M129.082 61.0032C130.129 60.9249 131.18 61.0689 132.167 61.4258C137.258 63.2561 138.726 70.0616 136.926 74.6697C135.802 77.55 133.924 78.5507 131.29 79.6858C130.185 79.8908 128.52 79.4299 127.519 78.9265C121.752 76.0248 121.309 66.24 126.214 62.3437C126.993 61.7248 128.142 61.3412 129.082 61.0032Z" fill="#522804"/>
<path d="M129.061 64.2734C132.398 64.334 132.435 67.6248 130.237 69.5498C127.305 69.2788 126.296 65.9646 129.061 64.2734Z" fill="#F4F3F0"/>
<path d="M131.311 50.3876C132.099 50.3739 132.449 50.5132 132.992 51.064C133.172 51.5429 133.415 51.9123 133.102 52.4207C132.007 54.2027 126.136 56.7059 124.381 57.1046C123.157 57.2811 123.128 57.188 122.342 56.365C122.279 56.033 122.158 55.744 122.302 55.4652C123.251 53.6343 129.497 51.1277 131.311 50.3876Z" fill="#A55207"/>
<path d="M68.7889 50.127C70.7241 50.2889 75.4558 53.3613 77.4406 54.2137C78.9795 54.8748 78.4701 56.0953 77.7314 57.1894C75.4933 57.1182 68.0378 54.2126 67.8223 51.6658C67.9342 50.9098 68.2662 50.6674 68.7889 50.127Z" fill="#A55207"/>
<path d="M6.8799 209.082C8.8562 205.825 10.4808 203.588 14.5011 202.648C18.6516 201.679 22.5658 202.579 26.1281 204.815C27.6405 205.751 29.0115 206.895 30.1993 208.218C34.1448 212.678 42.1325 226.647 43.6317 232.143L44.7941 231.308C44.7226 230.83 44.4953 229.991 44.6849 229.666C46.8474 231.47 48.9711 234.025 51.1596 235.952C56.0678 240.27 60.9827 243.397 66.6373 246.56C64.2487 246.549 49.7721 248.503 49.5186 248.395L49.4358 247.807C49.3331 247.208 49.2467 247.175 48.8086 246.71C47.558 247.556 46.3361 248.938 45.0198 249.799C33.894 257.097 21.1779 253.604 12.7666 243.956C6.71547 237.015 2.14266 228.737 2.08223 219.343C2.06399 216.505 3.32209 212.339 5.36582 210.462L6.8799 209.082Z" fill="#FD9426"/>
<path d="M44.293 234.267L45.49 234.076C45.6939 235.007 46.0034 235.996 45.7836 236.907C45.2643 237.376 45.5353 237.266 44.714 237.248C44.1866 236.38 44.6896 235.366 44.293 234.267Z" fill="#D06B04"/>
<path d="M48.8105 246.711C49.1668 245.801 49.4187 244.784 50.2626 244.367C50.9484 245.415 50.0033 246.835 49.4378 247.808C49.335 247.209 49.2487 247.176 48.8105 246.711Z" fill="#A55207"/>
<path d="M43.6328 232.143L44.7953 231.309C45.2233 232.453 45.4041 232.852 45.4909 234.075L44.2939 234.265C44.0644 233.662 43.8266 232.785 43.6328 232.143Z" fill="#894005"/>
<path d="M20.8245 224.737C32.1762 224.402 39.6658 244.152 28.376 246.694C19.833 247.019 12.3643 236.861 15.489 228.721C16.3102 226.581 18.7778 225.445 20.8245 224.737Z" fill="#D06B04"/>
<path d="M13.1778 211.197C16.8756 211.592 18.1818 215.771 19.109 218.696C18.2911 220.354 18.1197 220.937 16.5129 221.873C11.9342 221.765 11.3198 218.795 10.1914 214.988C10.9624 212.803 11.2599 212.44 13.1778 211.197Z" fill="#D06B04"/>
<path d="M23.1658 212.374C28.3448 212.253 30.576 219.782 26.4771 221.363C24.5555 221.383 23.7262 221.195 22.4399 219.64C21.4275 218.434 20.9497 216.868 21.1166 215.304C21.2817 213.877 22.1088 213.231 23.1658 212.374Z" fill="#D06B04"/>
<path d="M6.95243 219.764C11.7034 219.403 13.9262 225.889 10.7671 228.298C6.04093 228.3 2.992 222.337 6.95243 219.764Z" fill="#D06B04"/>
<path d="M179.459 203.284C183.658 201.963 188.717 201.635 192.191 204.832C193.745 206.409 194.768 208.995 195.624 209.787C198.736 212.672 199.809 215.837 199.622 220.18C198.994 234.772 185.084 254.02 169.23 253.661C164.022 253.544 158.459 252.133 154.814 248.297C153.993 247.465 152.96 246.453 152.466 245.432L152.221 245.477C152.318 246.511 152.452 247.543 152.623 248.568C149.107 248.026 142.111 246.794 138.873 246.792C143.666 244.055 151.476 239.349 155.249 235.315C155.708 234.876 156.172 234.44 156.64 234.008C157.614 233.947 157.608 234.225 158.612 234.855C160.406 229.068 167.076 221.344 170.535 216.071C172.895 212.472 173.822 210.756 175.766 206.884C176.566 204.59 177.295 204.491 179.459 203.284Z" fill="#FD9426"/>
<path d="M179.46 203.284C183.659 201.963 188.718 201.635 192.192 204.832C191.989 204.946 191.731 205.09 191.418 205.267C189.397 205.153 186.401 204.06 184.43 204.19C182.831 204.296 181.057 205.005 179.549 205.153C178.622 205.933 176.985 206.759 175.768 206.884C176.567 204.59 177.297 204.491 179.46 203.284Z" fill="#FDAF3E"/>
<path d="M155.248 235.316C155.707 234.876 156.171 234.441 156.639 234.008C157.613 233.948 157.607 234.226 158.612 234.856C158.453 235.691 158.344 236.689 157.859 237.36L157.477 237.463C155.688 236.135 156.972 235.794 155.248 235.316Z" fill="#D06B04"/>
<path d="M180.136 224.782C181.421 224.715 183.047 225.163 184.131 225.807C188.728 228.531 187.564 235.28 185.283 239.146C182.924 243.141 180.316 245.427 175.936 246.669C174.93 246.73 173.917 246.701 172.909 246.687C172.211 246.27 171.297 245.727 170.668 245.261C166.142 241.844 168.213 234.11 171.168 230.271C173.597 227.115 176.157 225.385 180.136 224.782Z" fill="#D06B04"/>
<path d="M188.319 211.475C194.681 211.105 192.02 220.594 187.555 221.545C182.735 222.943 183.178 217.317 184.85 214.65C186.01 212.799 186.492 212.487 188.319 211.475Z" fill="#D06B04"/>
<path d="M177.773 212.376C183.424 212.082 181.708 219.55 177.692 221.346C171.786 221.55 173.183 214.895 177.773 212.376Z" fill="#D06B04"/>
<path d="M193.778 219.754C198.54 219.527 197.184 226.035 193.355 228.195C192.897 228.231 191.797 228.298 191.382 228.148C190.852 227.957 190.417 227.572 190.167 227.067C188.837 224.433 191.291 220.905 193.778 219.754Z" fill="#D06B04"/>
<path d="M15.4012 153.09C17.609 152.337 19.5797 148.222 23.849 149.641L22.5488 150.811L23.4315 151.226C29.3104 148.707 34.65 151.228 37.564 156.698C37.56 158.902 38.0508 160.638 35.2934 160.6L34.6899 161.8C36.5548 163.018 37.8825 163.817 38.3846 166.246C38.7087 167.76 38.3913 169.342 37.5077 170.616C36.7663 171.672 35.1101 172.839 33.8503 173.209C34.0132 174.021 33.862 173.817 34.3321 174.311C34.7288 175.529 34.1798 176.581 33.7087 177.772C31.9998 180.531 29.109 182.272 25.8213 182.07C24.6907 183.05 23.6231 184.405 22.0407 183.874C14.6856 181.796 11.3557 174.782 11.4728 167.614C11.3741 162.332 12.4906 159.79 15.0503 155.302C14.9422 154.577 15.0221 153.73 15.4012 153.09Z" fill="#FD9426"/>
<path d="M11.4737 167.615C14.1912 176.548 19.7676 180.355 29.1561 179.617C30.1175 179.543 32.0577 178.049 33.7096 177.773C32.0007 180.532 29.1099 182.273 25.8222 182.071C24.6916 183.051 23.624 184.406 22.0416 183.874C14.6865 181.797 11.3566 174.782 11.4737 167.615Z" fill="#E88010"/>
<path d="M22.041 183.873C23.2124 181.78 23.4985 181.52 25.8216 182.069C24.691 183.05 23.6234 184.404 22.041 183.873Z" fill="#D06B04"/>
<path d="M15.4029 153.09C17.6107 152.337 19.5814 148.222 23.8508 149.641L22.5506 150.811C21.6921 151.398 20.8327 151.82 20.4179 152.731L20.1855 152.109C18.7541 151.941 17.3492 153.074 16.549 154.167L15.0521 155.302C14.944 154.577 15.0238 153.73 15.4029 153.09Z" fill="#E88010"/>
<path d="M34.3329 174.31C32.9098 174.633 29.5889 174.64 28.5859 173.523L28.81 173.216C30.2598 172.87 32.2886 173.13 33.8511 173.209C34.0139 174.021 33.8627 173.817 34.3329 174.31Z" fill="#D06B04"/>
<path d="M34.6907 161.8C33.3919 161.564 30.9095 161.959 30.1643 161.295L30.1641 160.808C31.0544 159.83 34.059 160.38 35.2941 160.6L34.6907 161.8Z" fill="#A55207"/>
<path d="M16.5469 154.166C17.347 153.073 18.752 151.94 20.1834 152.109C19.6441 152.912 18.5452 154.705 17.328 154.225L17.3502 154.123C16.9473 154.055 16.9596 154.04 16.5469 154.166Z" fill="#FDAF3E"/>
<path d="M22.5506 150.811L23.4333 151.226C22.5984 151.855 21.4431 153.014 20.418 152.73C20.8327 151.82 21.6921 151.397 22.5506 150.811Z" fill="#A55207"/>
<path d="M180.103 148.725C181.356 148.991 181.796 149.226 182.932 149.763C185.245 149.545 185.562 151.584 186.844 151.336C187.359 152.544 187.762 153.305 187.894 154.632C193.672 160.487 193.733 174.574 187.655 180.091C187.04 180.649 186.035 181.612 185.324 181.957C184.376 182.883 183.196 183.305 181.993 183.808C181.475 183.171 181.055 182.706 180.487 182.112C175.704 182.071 169.898 180.445 170.736 174.467C171.038 174.121 171.19 173.673 171.375 173.242C165.155 170.68 165.438 165.117 171.08 161.86L170.765 161.117C170.102 160.552 169.096 160.684 168.169 160.662C166.755 154.198 171.794 151.427 177.224 150.282C178.39 149.965 179.572 150.552 180.245 149.824L180.103 148.725Z" fill="#FD9426"/>
<path d="M182.931 149.763C185.244 149.544 185.561 151.583 186.843 151.335C187.358 152.543 187.76 153.304 187.893 154.631C185.493 152.929 185.396 152.465 182.492 150.975L182.931 149.763Z" fill="#E88010"/>
<path d="M171.374 173.239C172.755 173.174 175.633 172.838 176.639 173.618C176.129 174.928 171.963 174.679 170.734 174.464C171.037 174.118 171.188 173.67 171.374 173.239Z" fill="#D06B04"/>
<path d="M168.168 160.66C169.735 160.397 174.159 160.256 175.642 160.87L175.591 161.131C173.947 161.94 172.686 161.384 171.079 161.857L170.763 161.115C170.101 160.55 169.094 160.682 168.168 160.66Z" fill="#A55207"/>
<path d="M180.484 182.109C183.439 181.201 182.482 182.881 185.321 181.955C184.373 182.881 183.193 183.303 181.991 183.805C181.472 183.168 181.052 182.704 180.484 182.109Z" fill="#D06B04"/>
<path d="M180.102 148.725C181.354 148.991 181.795 149.226 182.931 149.763L182.492 150.976C180.948 150.485 178.867 150.399 177.223 150.282C178.389 149.965 179.571 150.552 180.244 149.824L180.102 148.725Z" fill="#894005"/>
<path d="M15.4004 153.089C19.7601 141.457 29.7442 130.666 39.5916 123.32C40.4036 124.312 41.178 125.333 41.9131 126.383C36.8813 132.931 33.505 138.283 30.2823 145.954C30.0178 146.767 29.7486 147.65 29.4496 148.444L26.268 148.56C25.4887 148.903 24.6047 149.268 23.8482 149.64C19.5789 148.221 17.6082 152.336 15.4004 153.089Z" fill="#FD9426"/>
<path d="M26.2695 148.561C26.7989 147.499 29.1259 146.182 30.2838 145.955C30.0193 146.768 29.7502 147.651 29.4511 148.445L26.2695 148.561Z" fill="#E88010"/>
<path d="M100.225 72.744C103.801 72.2081 106.193 73.2277 109.32 74.7435C110.322 75.7166 111.108 76.5562 110.923 78.0489C109.884 86.4444 96.6538 86.8812 91.7794 82.1464L91.6803 82.0517C91.0759 81.464 89.8823 79 89.7973 78.2797C89.5698 76.1269 90.2381 75.9227 91.7754 74.7805C94.5079 72.8268 97.0353 72.838 100.225 72.744Z" fill="#6F2F07"/>
<path d="M100.226 72.744C103.802 72.2081 106.194 73.2277 109.321 74.7435C108.092 77.7662 102.078 77.8403 99.6571 76.7729C99.5456 76.7242 99.4354 76.6731 99.3262 76.6197C100.119 75.8294 100.673 75.5806 100.964 74.5705C100.834 73.6882 100.689 73.5126 100.226 72.744Z" fill="#894005"/>
<path d="M91.7773 74.7786C94.5098 72.825 97.0373 72.8362 100.227 72.7422C100.69 73.5107 100.835 73.6864 100.965 74.5686C100.674 75.5788 100.12 75.8275 99.327 76.6178C98.4306 77.4792 96.3336 77.1076 95.1651 77.0064C93.7373 76.8826 93.2651 76.5741 92.1901 75.6595L91.7773 74.7786Z" fill="#A55207"/>
<path d="M91.7754 74.7793L92.1881 75.6602C91.6457 76.3188 90.4642 77.9616 89.7973 78.2785C89.5698 76.1257 90.2381 75.9216 91.7754 74.7793Z" fill="#894005"/>
<path d="M161.303 122.225C170.558 129.243 177.334 135.177 183.527 145.251C184.578 146.961 186.135 149.541 186.842 151.334C185.56 151.582 185.243 149.543 182.93 149.761C181.794 149.223 181.353 148.989 180.101 148.723C179.065 148.574 177.945 148.384 176.906 148.339C174.994 142.044 170.149 133.899 166.257 128.569C164.898 126.708 162.343 123.999 161.303 122.225Z" fill="#FD9426"/>
<path d="M23.2768 185.945C23.7627 186.044 23.8708 186.105 24.326 186.315C24.8383 187.859 25.1134 191.553 25.562 193.429C26.4584 197.171 27.618 200.506 28.8315 204.154C27.5789 203.371 26.3869 202.756 25.0802 202.072C22.3735 200.827 20.381 200.394 17.373 200.244C18.6452 196.047 19.8568 194.831 22.6328 191.428C22.8347 189.597 23.0494 187.771 23.2768 185.945Z" fill="#EA7C0C"/>
<path d="M180.108 192.236C182.739 193.703 184.398 197.427 184.959 200.256C183.995 200.24 182.474 200.604 181.484 200.801C179.924 201.227 179.152 201.615 177.689 202.309C178.492 198.742 179.448 196.092 180.108 192.236Z" fill="#E88010"/>
<path d="M100.294 94.5566C100.726 94.6076 104.319 96.8898 105.046 97.2963L100.832 97.2483C99.0485 97.2597 97.5179 97.3553 95.7363 97.487C97.2676 96.5168 99.0249 95.7251 100.294 94.5566Z" fill="#E88010"/>
<path d="M44.4286 122.133L45.3199 122.544C43.9409 123.429 43.1993 125.088 41.9153 126.384C41.1802 125.334 40.4058 124.313 39.5938 123.321C40.194 122.946 40.9038 122.644 41.551 122.344C43.0306 122.74 43.2103 123.021 44.4286 122.133Z" fill="#E88010"/>
</svg>
