<svg width="193" height="256" viewBox="0 0 193 256" fill="none" xmlns="http://www.w3.org/2000/svg">
<path d="M80.0133 7.78862C80.1494 5.42944 80.2252 2.77686 82.1354 1.03714C82.9109 0.319385 83.9447 -0.0527591 84.9998 0.00604545C89.9428 0.30028 90.6584 6.18561 90.4007 9.99326C96.693 10.3036 100.779 10.6779 106.758 12.7908C107.27 11.0142 107.688 10.1264 108.797 8.60191C110.831 5.77101 113.907 3.86421 117.348 3.30164C121.295 2.68388 125.09 3.50417 128.324 5.86993C132.082 8.59299 134.582 12.718 135.255 17.3099C136.017 22.3169 134.713 26.0068 131.774 29.9745C132.383 30.9449 133.338 32.1666 134.026 33.0918C138.836 39.5588 141.331 46.979 144.619 54.2151C145.484 56.1202 147.938 58.1251 149.3 59.824C157.831 70.4628 157.52 84.969 150.518 96.3217C149.096 98.6263 147.603 100.49 145.998 102.579C148.199 103.692 150.373 104.856 152.519 106.07C162.579 111.976 170.963 120.354 176.875 130.409C177.752 131.886 179.445 134.619 179.876 136.224C180.92 137.345 183.558 137.885 184.869 138.82C192.813 144.479 194.927 159.679 188.037 166.878C187.639 167.296 187.214 167.723 186.81 168.143C186.633 171.203 186.488 175.438 186.072 178.391C183.824 194.898 175.761 210.062 163.335 221.157C155.998 227.587 147.45 232.487 138.192 235.567C135.169 236.571 132.383 236.928 129.464 237.943C128.156 238.397 127.334 239.412 126.46 240.465L127.947 242.201C128.553 242.66 128.936 244.029 129.033 244.761C130.188 251.756 120.29 253.661 114.91 253.801C107.344 253.996 95.1505 253.771 88.8701 248.833C85.3382 246.058 87.6628 240.925 87.4902 237.132C79.8564 237.32 75.7853 237.312 68.1836 236.658C65.9628 239.187 62.7551 242.594 59.7884 244.171C61.423 246.776 61.6321 250.846 58.8186 252.652C52.7187 256.569 43.4796 256.405 36.7085 255.372C26.3441 253.79 16.6677 250.126 21.3064 237.535C22.3222 234.635 14.9587 215.86 12.6917 212.75C6.14717 210.854 1.33894 206.634 0.217427 199.546C-0.688715 193.818 1.13066 188.082 7.69689 187.243C7.57886 181.626 7.49203 172.861 8.17604 167.265C10.324 149.691 16.3957 124.945 27.0574 110.556C24.771 107.871 23.4612 105.286 22.0904 102.078C18.6832 94.1035 19.7168 86.1411 21.4574 77.9639C21.5535 77.0896 21.6533 76.1978 21.7102 75.3208C22.3373 65.6442 23.1616 56.4864 27.1589 47.4345C26.0437 46.7499 24.3475 44.9777 23.5425 43.9177C20.788 40.2721 19.5985 35.6794 20.2371 31.1548C22.2163 17.1513 39.3167 9.85655 47.9568 21.6011C56.4906 16.4074 60.2051 14.403 70.1322 12.2599C69.4293 11.1018 69.0357 10.4968 68.864 9.13688C68.2222 4.05549 75.0701 4.51 77.9592 6.27032C78.7328 6.7416 79.3507 7.25132 80.0133 7.78862Z" fill="#FF9B34"/>
<path d="M55.751 144.288C55.2069 144.204 55.0988 144.23 54.7169 143.874C54.6611 143.222 56.8337 138.712 57.278 137.775C63.8503 124.069 74.8102 112.949 88.4198 106.178C104.502 98.1822 123.113 96.9444 140.113 102.739C154.242 107.539 169.243 119.645 175.882 133.123C176.766 134.593 177.361 135.96 178.163 137.363C179.241 136.773 179.213 137.127 179.878 136.224C180.922 137.345 183.56 137.885 184.871 138.82C192.815 144.479 194.929 159.679 188.039 166.878C187.641 167.296 187.216 167.723 186.812 168.143C186.635 171.203 186.49 175.438 186.074 178.391C183.826 194.898 175.764 210.062 163.337 221.157C156 227.587 147.452 232.487 138.195 235.567C135.171 236.571 132.385 236.928 129.466 237.943C128.158 238.397 127.336 239.412 126.462 240.465L127.95 242.201C126.975 242.065 126.876 241.881 126.141 242.239L125.979 242.866C126.054 242.897 123.888 241.475 123.757 241.392C122.293 241.352 118.865 241.622 117.803 240.847L117.829 240.458C118.403 239.885 119.256 239.679 120.036 239.418C119.494 238.845 119.086 238.866 118.296 238.764C111.818 239.666 101.597 237.187 95.2581 235.187C94.0678 234.593 93.4063 234.308 92.1535 233.867C86.347 231.514 79.76 227.462 74.8412 223.581C60.0586 212.001 50.5724 194.945 48.5293 176.278C49.3568 176.119 49.6574 176.039 50.4928 176.109C53.0252 175.667 56.5082 175.16 58.5205 173.444C60.0431 172.145 60.1647 169.903 62.217 169.014C62.9765 168.203 64.7296 166.352 65.0801 165.339C65.5102 164.155 64.8525 160.696 65.4506 159.752C67.4796 156.54 66.9379 154.229 65.1928 150.677C64.7973 150.303 64.1819 149.38 63.658 148.856C61.1863 146.384 59.0814 145.173 55.751 144.288Z" fill="#EC3C19"/>
<path d="M71.8274 136.998C77.9721 142.12 84.0765 147.29 90.14 152.508C92.0663 154.149 97.5833 158.644 99.1078 160.372C99.7251 160.879 100.289 161.338 100.865 161.892C102.314 162.781 107.761 167.401 109.329 168.793C112.756 171.838 118.155 175.723 121.27 178.773L122.347 179.707C123 180.217 123.684 180.735 124.315 181.268L124.666 181.701C125.221 182.142 126.053 182.762 126.515 183.257L127.842 184.214C128.163 184.497 128.51 184.785 128.814 185.08C129.28 185.624 130.44 186.766 131.087 187.074C132.1 187.798 132.807 188.475 133.716 189.316C136.715 191.695 141.492 195.41 144.199 197.994C145.541 198.966 147.541 200.75 148.781 201.93C149.759 202.454 149.893 202.573 150.606 203.433C152.707 204.798 154.626 206.881 156.974 208.29C145.406 218.357 134.51 224.274 118.675 224.588C103.981 224.968 89.7593 219.382 79.249 209.107C70.4067 200.578 64.6029 188.929 62.6613 176.782C62.2639 174.296 62.2596 171.549 62.2148 169.014C62.9744 168.203 64.7275 166.352 65.078 165.34C65.5081 164.155 64.8504 160.697 65.4485 159.752C67.4775 156.54 66.9358 154.23 65.1907 150.677C67.1181 145.741 68.8012 141.456 71.8274 136.998Z" fill="#F6F4F3"/>
<path d="M87.5462 166.188C90.2396 163.725 95.3256 160.439 99.1091 160.373C99.7264 160.88 100.29 161.339 100.866 161.893C102.316 162.783 107.763 167.402 109.33 168.795C112.758 171.839 118.156 175.724 121.271 178.774L122.348 179.708C123.001 180.218 123.685 180.736 124.317 181.269L124.667 181.702C125.223 182.143 126.054 182.763 126.516 183.258L124.89 184.196C123.723 185.249 122.579 186.311 121.335 187.272C120.627 187.933 117.757 190.83 117.341 191.079C116.044 191.043 111.705 193.045 110.436 193.711L110.426 193.921C110.297 196.125 109.278 198.212 107.013 198.897C104.614 199.626 102.118 197.963 100.097 196.836C95.9561 197.25 93.8022 197.388 89.6509 196.732C89.2705 205.67 81.3575 200.209 79.6055 193.65C74.0484 190.527 66.711 185.619 65.4884 178.658C65.3799 178.04 66.1923 177.388 66.5934 176.942C66.549 176.683 66.2923 175.511 66.3091 175.312C66.6227 172.784 69.7402 171.051 71.668 169.896C76.8621 166.784 81.6598 166.476 87.5462 166.188Z" fill="#315786"/>
<path d="M100.865 161.891C102.315 162.78 107.762 167.4 109.329 168.792C112.757 171.836 118.155 175.721 121.27 178.772C120.057 179.042 118.792 179.812 117.737 180.458C116.748 179.814 109.885 175.452 109.813 174.719C109.362 170.157 104.764 166.446 101.135 164.26C101.085 163.36 101.01 162.78 100.865 161.891Z" fill="#F6F4F3"/>
<path d="M124.668 181.701C125.223 182.143 126.054 182.763 126.516 183.257L124.89 184.196C123.723 185.249 122.58 186.31 121.335 187.272C120.944 185.941 120.663 185.019 120.447 183.646C120.705 183.346 120.548 183.476 121.011 183.346C122.252 182.75 123.699 182.499 124.668 181.701Z" fill="#305386"/>
<path d="M124.667 181.701C125.222 182.143 126.053 182.763 126.515 183.257L124.889 184.196C123.416 183.826 121.737 184.635 121.01 183.346C122.251 182.75 123.698 182.499 124.667 181.701Z" fill="#4F74AF"/>
<path d="M122.347 179.707C123 180.217 123.684 180.735 124.316 181.267C123.213 181.686 120.385 182.569 119.292 182.497C119.197 180.86 121.193 180.435 122.347 179.707Z" fill="#6186C0"/>
<path d="M82.4245 168.268C86.9452 167.916 88.8422 167.975 93.181 168.929C99.1952 170.308 104.667 173.372 109.624 176.991C111.513 178.312 114.367 180.186 116.088 181.624C117.138 181.921 118.206 182.091 118.754 183.069C118.855 183.25 118.948 183.434 119.034 183.623C119.232 184.925 119.293 185.784 119.018 187.092C118.045 189.833 115.975 189.209 113.64 190.323C107.046 193.469 98.8105 196.165 91.4366 194.909C87.4914 194.856 80.4644 192.671 77.4995 190.153C74.8126 188.801 66.4354 181.432 67.406 178.435L67.852 178.242C69.6286 178.666 70.7026 181.269 72.7468 180.469L72.7924 180.138C72.4865 179.564 68.3473 176.053 67.587 175.363C71.6291 171.062 76.7695 169.26 82.4245 168.268Z" fill="#7193CA"/>
<path d="M67.587 175.362C71.6291 171.061 76.7695 169.259 82.4245 168.268C83.3074 168.399 83.5018 168.261 83.9931 168.775L83.9355 169.42C84.2773 170.163 85.3706 172.299 85.3398 172.995C85.9245 173.193 86.2926 173.231 86.6121 173.9C87.6103 175.993 87.2016 179.988 86.5314 182.126C86.0884 183.54 84.2773 185.697 83.3439 186.824C82.5119 187.406 81.6475 188.113 80.6741 188.342C80.4007 188.261 80.306 188.259 80.0617 188.11L79.9014 187.501C79.2488 188.556 79.687 188.968 78.3056 188.979L78.4739 189.227C78.1415 189.694 78.03 189.957 77.4995 190.153C74.8126 188.8 66.4354 181.432 67.406 178.434L67.852 178.241C69.6286 178.666 70.7026 181.268 72.7468 180.468L72.7924 180.137C72.4865 179.564 68.3473 176.052 67.587 175.362Z" fill="#B0C5DB"/>
<path d="M85.3407 172.996C85.9253 173.194 86.2934 173.232 86.6129 173.9C87.6111 175.994 87.2025 179.989 86.5323 182.127C86.0892 183.541 84.2782 185.697 83.3447 186.825C82.5128 187.406 81.6483 188.113 80.675 188.343C80.4015 188.262 80.3068 188.26 80.0625 188.111C81.3235 187.237 82.4357 186.164 83.3566 184.935C85.999 181.341 86.0145 177.176 85.3407 172.996Z" fill="#315786"/>
<path d="M76.7539 176.154L76.819 175.879C76.5201 175.365 75.9686 174.482 76.2505 173.93C77.2615 174.271 77.2063 174.823 77.9669 175.068C78.5857 174.656 78.925 174.333 79.6553 174.416L79.9036 174.69C79.7039 175.467 79.4884 175.566 78.8269 176.159C79.1886 176.76 79.6444 177.356 79.6682 178.038L79.4056 178.203C78.5528 177.893 78.3694 177.846 77.6742 177.278L77.3426 177.235C76.7097 177.683 76.4359 177.927 75.7047 177.738L75.582 177.339C76.0098 176.494 75.8956 176.736 76.7539 176.154Z" fill="#315786"/>
<path d="M82.4238 168.268C86.9446 167.916 88.8416 167.975 93.1804 168.929C99.1946 170.308 104.667 173.372 109.623 176.991L108.779 177.233L107.945 177.552L107.83 177.439C107.537 176.509 105.877 175.376 104.928 175.448C104.047 176.225 104.672 177.221 104.247 178.269C103.305 177.316 102.777 177.293 101.691 176.533C101.895 175.9 102.403 175.166 102.767 174.58C102.553 173.624 101.127 172.856 100.174 173.002C100.329 173.745 100.521 174.832 100.761 175.522C100.298 177.269 98.2524 177.21 97.7009 178.142C97.6198 178.923 97.4491 179.237 97.7512 179.849C98.0975 179.932 98.1096 179.949 98.4821 179.929L98.3834 180.706C100.583 182.643 98.6779 184.899 97.0698 186.508C96.5429 187.037 93.8856 189.438 93.4413 189.548C92.5991 189.3 91.5536 189.132 90.6775 188.967C88.334 189.438 85.6504 187.771 83.3433 186.825C84.2767 185.697 86.0878 183.541 86.5308 182.127C87.201 179.989 87.6097 175.994 86.6115 173.9C86.292 173.232 85.9239 173.193 85.3392 172.996C85.37 172.3 84.2767 170.164 83.9349 169.421L83.9924 168.776C83.5012 168.262 83.3067 168.4 82.4238 168.268Z" fill="#7193CA"/>
<path d="M93.7113 179.377C95.6914 179.519 96.6358 179.84 98.3832 180.704C100.583 182.64 98.6776 184.897 97.0695 186.506C96.5426 187.034 93.8854 189.435 93.4411 189.546C92.5989 189.297 91.5534 189.13 90.6773 188.964C90.3941 188.745 89.9822 188.31 89.7141 188.047L90.859 187.189C89.7693 186.616 88.7257 185.544 87.4082 184.799C88.0005 184.311 88.0137 184.134 88.2168 183.4C88.7134 183.2 88.8002 183.228 89.3498 183.23L89.6933 182.924L89.6891 182.213C88.787 181.854 88.2221 181.634 87.9338 180.67L88.1956 180.305C88.7448 180.01 89.5267 179.785 90.1385 179.585C91.2562 179.364 92.559 179.394 93.7113 179.377Z" fill="#315786"/>
<path d="M88.1973 180.306C88.7465 180.011 89.5283 179.785 90.1402 179.586C90.8084 179.601 91.5529 179.518 92.0631 179.875L92.2198 180.299C93.8257 180.427 97.305 180.851 97.9083 182.639C97.0434 183.388 89.4073 181.573 88.8246 181.074L88.7046 180.603L88.1973 180.306Z" fill="#4F74AF"/>
<path d="M88.1973 180.306C88.7465 180.011 89.5283 179.785 90.1402 179.586C90.8084 179.601 91.5529 179.518 92.0631 179.875L92.2198 180.299C90.7535 180.596 89.8417 180.405 88.7046 180.603L88.1973 180.306Z" fill="#305386"/>
<path d="M87.4082 184.799C88.0005 184.311 88.0137 184.135 88.2168 183.4C89.3466 184.396 93.8697 185.029 94.5688 187.037C93.6566 187.827 91.9088 187.629 90.859 187.19C89.7693 186.617 88.7257 185.545 87.4082 184.799Z" fill="#4F74AF"/>
<path d="M89.6888 182.215C91.6262 182.495 95.049 182.881 96.5437 184.009L96.7806 184.488C95.6948 186.418 90.0372 184.058 89.3496 183.232L89.6931 182.926L89.6888 182.215Z" fill="#4F74AF"/>
<path d="M93.1807 168.928C99.1949 170.308 104.667 173.371 109.623 176.991L108.779 177.233L107.945 177.551L107.83 177.438C107.538 176.509 105.877 175.375 104.928 175.447C104.047 176.224 104.672 177.22 104.248 178.269C103.306 177.315 102.778 177.292 101.691 176.532C101.896 175.899 102.403 175.165 102.768 174.579C102.554 173.624 101.128 172.855 100.175 173.002C100.329 173.745 100.521 174.832 100.761 175.521L100.156 175.859C99.9297 176.156 98.8956 177.152 98.5761 177.472C97.6076 175.579 97.6586 175.254 95.4851 174.725L94.2598 174.553C91.955 175.254 91.2242 172.297 92.2838 171.019C92.7368 170.798 92.5827 170.904 92.8818 170.448C92.3819 169.868 91.472 170.333 90.5449 169.422C90.8135 169.424 92.0639 169.652 92.5449 169.696C93.1128 169.348 92.9436 169.552 93.1807 168.928Z" fill="#B0C5DB"/>
<path d="M95.7103 172.418C95.3301 171.968 94.6215 171.329 94.8293 170.754C95.5403 170.779 96.1725 171.21 96.3213 171.909L97.1134 172.085C97.3437 172.469 97.3539 172.363 97.3598 172.756L97.9318 173.512L98.3011 173.526L99.1987 172.675C99.8228 172.769 99.736 172.665 100.175 173.002C100.329 173.745 100.521 174.832 100.761 175.522L100.156 175.859C99.9296 176.157 98.8956 177.152 98.5761 177.473C97.6076 175.579 97.6585 175.254 95.4851 174.726L94.2598 174.554C94.5863 173.783 95.1896 173.085 95.7103 172.418Z" fill="#88A4CF"/>
<path d="M96.3218 171.908L97.1139 172.084C97.3442 172.469 97.3544 172.363 97.3604 172.755L97.9323 173.511L98.3017 173.526L99.1992 172.675C99.8234 172.768 99.7365 172.664 100.175 173.002C100.329 173.745 100.522 174.831 100.761 175.521L100.156 175.859C99.5911 175.313 99.4637 175.216 98.7823 174.825C97.2672 173.473 97.6198 174.494 96.3452 173.6C96.0463 173.069 96.218 172.515 96.3218 171.908Z" fill="#A6B8D9"/>
<path d="M97.3594 172.755C97.816 172.103 97.6455 172.152 98.2945 171.865C98.9622 172.184 98.7214 172.005 99.1982 172.674L98.3007 173.525L97.9313 173.51L97.3594 172.755Z" fill="#88A4CF"/>
<path d="M90.5603 170.912L90.8114 170.44C91.7116 170.253 91.4303 170.185 92.2183 170.493L92.2826 171.018C91.2231 172.296 91.9538 175.253 94.2586 174.552L95.484 174.724C97.6574 175.253 97.6064 175.578 98.5749 177.471C98.8944 177.151 99.9285 176.155 100.155 175.858L100.76 175.52C100.297 177.267 98.2516 177.208 97.7001 178.14C97.619 178.921 97.4483 179.235 97.7504 179.847C98.0966 179.93 98.1087 179.947 98.4813 179.928L98.3826 180.704C96.6352 179.84 95.6907 179.52 93.7107 179.378C93.8238 178.412 93.9334 176.219 92.9827 175.703C92.0712 176.119 92.2616 177.091 91.1263 177.766C90.4571 176.049 90.8303 175.368 89.3129 174.472L89.1348 174.27L89.1698 173.888L89.6094 173.648C89.933 173.389 90.2295 173.071 90.5217 172.773C90.8384 172.079 90.6949 171.667 90.5603 170.912Z" fill="#6186C0"/>
<path d="M82.4238 168.268C86.9446 167.916 88.8416 167.975 93.1804 168.929C92.9433 169.553 93.1125 169.349 92.5446 169.697C92.0635 169.653 90.8131 169.425 90.5446 169.423C88.0126 169.398 86.5094 169.338 83.9349 169.421L83.9924 168.776C83.5012 168.262 83.3067 168.4 82.4238 168.268Z" fill="#A6B8D9"/>
<path d="M87.4095 184.801C88.7269 185.546 89.7706 186.618 90.8602 187.191L89.7154 188.049C88.6811 187.374 86.413 186.077 87.4095 184.801Z" fill="#305386"/>
<path d="M89.6095 173.647C88.8709 172.938 88.4423 170.924 89.3564 170.143L89.8967 170.189C90.0999 170.482 90.2553 170.718 90.5603 170.911C90.6949 171.667 90.8384 172.079 90.5217 172.773C90.2296 173.07 89.933 173.389 89.6095 173.647Z" fill="#A6B8D9"/>
<path d="M89.3148 174.471C90.8322 175.367 90.459 176.048 91.1282 177.765L90.6535 177.933C89.5939 177.413 89.1006 175.56 89.3148 174.471Z" fill="#88A4CF"/>
<path d="M83.3444 186.822C85.6515 187.769 88.3351 189.436 90.6786 188.964C91.5547 189.13 92.6002 189.298 93.4424 189.546C99.3723 191.263 105.636 191.138 111.52 189.206C113.497 188.557 116.992 187.209 119.019 187.09C118.046 189.83 115.975 189.206 113.641 190.321C107.047 193.467 98.811 196.163 91.4371 194.906C87.4919 194.853 80.4649 192.669 77.5 190.151C78.0305 189.956 78.142 189.692 78.4744 189.225L78.3061 188.977C79.6874 188.966 79.2493 188.555 79.9019 187.499L80.0621 188.109C80.3065 188.257 80.4012 188.259 80.6746 188.34C81.6479 188.111 82.5124 187.404 83.3444 186.822Z" fill="#ABBFD9"/>
<path d="M78.4744 189.227C79.7645 189.469 80.6786 190.462 81.8131 190.885C85.2938 192.182 89.3259 193.148 93.0199 193.339C95.1726 193.451 97.2458 193.249 99.3485 193.411C96.2784 193.7 93.7269 192.937 91.4371 194.907C87.4919 194.854 80.4649 192.67 77.5 190.152C78.0305 189.957 78.142 189.694 78.4744 189.227Z" fill="#B0C5DB"/>
<path d="M107.829 177.436L107.944 177.549L108.779 177.23L108.676 177.458L108.351 177.823C108.572 179.825 108.686 180.623 107.861 182.627L107.538 182.82C107.104 182.41 106.184 180.283 105.875 179.623C106.332 178.494 106.841 178.094 107.829 177.436Z" fill="#88A4CF"/>
<path d="M109.622 176.988C111.512 178.309 114.365 180.183 116.087 181.62L115.651 182.007C113.895 181.383 109.844 178.878 108.676 177.457L108.778 177.23L109.622 176.988Z" fill="#A6B8D9"/>
<path d="M101.691 176.531C102.778 177.291 103.305 177.315 104.248 178.268L104 178.34C103.352 179.051 103.453 179.164 102.66 179.397L102.269 179.142C101.865 178.249 101.816 177.493 101.691 176.531Z" fill="#88A4CF"/>
<path d="M116.088 181.621C117.138 181.918 118.206 182.088 118.754 183.067C118.855 183.247 118.948 183.432 119.034 183.621C117.412 183.982 117.466 182.772 115.652 182.007L116.088 181.621Z" fill="#B0C5DB"/>
<path d="M110.438 180.328C111.983 180.842 112.27 182.899 111.104 184.16C110.167 184.045 110.118 184.013 109.696 183.243C109.596 182.398 110.138 181.175 110.438 180.328Z" fill="#88A4CF"/>
<path d="M101.678 185.252L102.15 185.377L102.305 185.849C102.189 186.787 101.97 187.112 101.528 187.957C100.864 187.447 101.042 187.721 100.834 186.942C100.939 186.229 101.27 185.846 101.678 185.252Z" fill="#6186C0"/>
<path d="M96.6487 162.688C97.3399 162.516 97.9607 162.291 98.6464 162.452C99.2514 163.07 99.1474 162.792 99.1871 163.496C98.5614 164.458 96.6952 164.955 95.5872 165.515C94.1793 166.409 91.9528 167.521 90.3008 166.449L90.5362 166.195C90.602 166.135 90.6676 166.074 90.7334 166.014L90.8481 165.917C91.8352 165.055 92.8767 164.552 94.0241 163.921C94.9648 163.161 95.5244 163.032 96.6487 162.688Z" fill="#6186C0"/>
<path d="M94.0241 163.922L94.2267 164.603C93.9721 164.811 93.6399 165.117 93.3588 165.251C94.1889 165.586 94.6865 165.525 95.5872 165.516C94.1793 166.41 91.9528 167.522 90.3008 166.45L90.5362 166.196C90.602 166.136 90.6676 166.074 90.7334 166.015L90.8481 165.917C91.8352 165.056 92.8767 164.552 94.0241 163.922Z" fill="#4F74AF"/>
<path d="M94.0231 163.922L94.2256 164.603C93.9711 164.811 93.6388 165.117 93.3578 165.251C92.4443 165.805 91.6 166.618 90.5352 166.196C90.601 166.136 90.6666 166.074 90.7324 166.015L90.847 165.917C91.8342 165.056 92.8757 164.552 94.0231 163.922Z" fill="#6186C0"/>
<path d="M94.0234 163.921C94.9641 163.161 95.5237 163.031 96.648 162.688L96.8877 163.142C96.4588 163.849 95.0129 164.307 94.226 164.602L94.0234 163.921Z" fill="#7193CA"/>
<path d="M81.5801 194.586C83.1733 194.86 84.6097 196.422 86.6647 196.208C87.1614 196.155 87.4881 196.554 87.7584 196.955C87.9161 197.779 87.6285 198.452 87.3824 199.258C84.9943 200.914 82.3953 196.42 81.5801 194.586Z" fill="#4F74AF"/>
<path d="M99.6825 164.768C99.9884 164.763 100.802 165.067 101.136 165.177C101.376 165.621 101.368 165.411 101.294 165.81C100.675 166.884 98.4204 167.305 97.1566 167.852C96.2387 167.708 95.8563 167.769 95.291 167.203L95.4256 166.765C96.4435 165.846 98.3586 165.237 99.6825 164.768Z" fill="#4F74AF"/>
<path d="M101.72 166.795C102.41 166.937 103.108 167.018 103.256 167.784C102.655 168.74 101.066 169.071 100.011 169.351C99.4189 169.132 98.8253 168.992 98.5918 168.417C99.0429 167.782 100.649 167.366 101.567 166.878L101.72 166.795Z" fill="#4F74AF"/>
<path d="M103.738 169C104.298 168.953 104.752 168.992 105.182 169.372L105.205 169.822C104.581 170.673 104.694 170.431 103.486 170.809C102.852 170.701 102.336 170.679 101.879 170.223L101.898 169.862C102.361 169.293 103.019 169.202 103.738 169Z" fill="#4F74AF"/>
<path d="M126.514 183.256L127.842 184.213C128.163 184.496 128.51 184.784 128.814 185.079C129.28 185.623 130.44 186.765 131.087 187.073C132.1 187.797 132.807 188.474 133.715 189.315C136.715 191.694 141.492 195.409 144.199 197.993C138.345 200.882 134.086 202.863 127.412 203.551C125.799 203.719 122.253 203.644 121.053 203.852C120.65 204.071 119.758 204.502 119.499 204.78L119.433 204.665C119.151 203.035 117.631 202.105 116.894 200.337L117.557 199.774L116.817 198.785L115.91 199.341C115.111 199.377 115.429 199.458 114.715 198.98C115.283 195.089 115.865 194.628 117.34 191.077C117.755 190.828 120.626 187.93 121.333 187.27C122.578 186.309 123.721 185.247 124.888 184.194L126.514 183.256Z" fill="#EE7822"/>
<path d="M126.514 183.256L127.842 184.213C128.163 184.496 128.51 184.784 128.814 185.079C128.388 186.158 124.069 188.843 122.694 189.924C120.969 191.276 117.903 197.751 117.101 198.407L116.773 198.43L116.817 198.785L115.91 199.341C115.111 199.377 115.429 199.458 114.715 198.98C115.283 195.089 115.865 194.628 117.34 191.077C117.755 190.828 120.626 187.93 121.333 187.27C122.578 186.309 123.721 185.247 124.888 184.194L126.514 183.256Z" fill="#A34C0B"/>
<path d="M127.842 184.213C128.163 184.495 128.51 184.784 128.814 185.079C128.389 186.157 124.069 188.843 122.694 189.924C120.97 191.276 117.904 197.751 117.102 198.407L116.773 198.43C117.7 191.276 123.185 188.682 127.842 184.213Z" fill="#F58914"/>
<path d="M131.087 187.072C132.1 187.796 132.807 188.473 133.716 189.314C133.677 189.38 133.638 189.448 133.599 189.516C131.685 190.872 126.303 196.269 123.953 194.354C123.653 193.853 123.6 193.469 123.733 192.9C124.565 189.335 128.346 188.845 130.948 187.164L131.087 187.072Z" fill="#F58914"/>
<path d="M117.557 199.775C119.316 200.102 120.559 202.27 121.053 203.853C120.651 204.072 119.759 204.503 119.499 204.781L119.433 204.667C119.151 203.036 117.632 202.106 116.895 200.338L117.557 199.775Z" fill="#FC9624"/>
<path d="M122.7 195.187C123.006 194.909 123.479 194.928 123.761 195.231C124.043 195.535 124.029 196.008 123.73 196.293C123.533 196.48 123.251 196.548 122.99 196.469C122.73 196.39 122.532 196.178 122.472 195.913C122.412 195.647 122.499 195.371 122.7 195.187Z" fill="#F58914"/>
<path d="M116.818 198.785L117.557 199.774L116.895 200.337C117.632 202.105 119.152 203.035 119.434 204.666L119.5 204.78C119.715 205.651 119.784 205.814 119.534 206.67L118.485 207.164C118.7 207.786 118.873 208.534 119.367 208.939C117.032 209.604 115.151 210.843 113.086 212.081C112.372 215.119 111.628 217.762 108.306 219.055C105.832 220.018 104.117 219.006 102.404 217.248C100.385 215.178 101.244 214.414 100.706 211.981C100.079 210.977 98.0603 209.905 97.8163 208.722C96.4173 201.946 102.012 199.452 108.24 202.572C109.436 202.014 114.151 199.855 114.716 198.98C115.43 199.458 115.112 199.377 115.91 199.341L116.818 198.785Z" fill="#B16D24"/>
<path d="M116.894 200.338C117.631 202.106 119.151 203.036 119.433 204.667C117.72 204.972 111.673 208.297 110.288 209.723C109.355 212.517 109.768 212.504 107.659 214.551C105.883 214.931 103.916 214.663 102.998 214.977C102.446 213.547 103.002 211.92 103.357 210.462C99.847 209.483 98.3715 207.804 100.179 204.25C103.511 201.773 104.533 202.669 107.847 204.645C109.57 204.129 114.675 201.351 116.894 200.338Z" fill="#F6F4F3"/>
<path d="M110.29 209.723C111.675 208.296 117.722 204.972 119.435 204.666L119.501 204.781C119.716 205.651 119.785 205.814 119.535 206.67L118.486 207.165C117.065 207.799 112.452 210.018 111.338 210.842C111.09 216.21 106.59 220.055 103 214.977C103.918 214.663 105.885 214.93 107.661 214.55C109.77 212.504 109.357 212.517 110.29 209.723Z" fill="#F5D2B4"/>
<path d="M144.2 197.994C145.541 198.966 147.542 200.75 148.782 201.93C142.416 205.732 131.386 209.952 123.679 208.435C123.012 208.303 121.446 207.664 120.923 207.184L119.535 206.67C119.784 205.815 119.716 205.651 119.5 204.781C119.759 204.503 120.651 204.072 121.054 203.853C122.255 203.645 125.8 203.72 127.413 203.552C134.087 202.864 138.347 200.883 144.2 197.994Z" fill="#D9680F"/>
<path d="M121.054 203.854C121.251 205.078 121.361 205.985 120.923 207.184L119.535 206.671C119.784 205.815 119.716 205.652 119.5 204.781C119.759 204.503 120.651 204.072 121.054 203.854Z" fill="#B16D24"/>
<path d="M120.922 207.184C121.445 207.664 123.011 208.303 123.679 208.434C131.385 209.952 142.415 205.732 148.781 201.93C149.759 202.454 149.893 202.573 150.606 203.433C142.034 207.566 130.544 212.901 120.751 209.458C120.286 209.294 119.825 209.12 119.366 208.94C118.873 208.534 118.699 207.787 118.484 207.165L119.534 206.67L120.922 207.184Z" fill="#A34C0B"/>
<path d="M79.5508 127.658C86.2254 120.501 97.5093 115.09 106.934 113.039C133.178 107.327 160.038 122.697 169.471 147.679C170.192 149.589 170.863 151.555 171.496 153.501C171.262 156.799 170.89 157.545 172.901 160.787C173.143 163.222 173.271 165.158 173.343 167.601C173.175 179.014 170.328 189.28 164.204 198.988C162.964 197.991 161.043 196.541 159.923 195.498L158.647 194.39C158.146 194.207 154.434 190.847 153.842 190.316C152.194 189.208 143.859 182.192 142.355 180.689C141.784 180.292 140.9 179.523 140.334 179.065C139.428 178.366 138.625 177.655 137.767 176.902C137.251 176.611 136.946 176.309 136.506 175.921C136.299 175.702 135.261 174.883 134.971 174.643C133.103 173.027 123.362 165.262 122.971 163.986C122.192 163.616 121.81 163.302 121.12 162.782C121.116 162.415 121.209 162.009 121.271 161.64C119.565 160.782 118.431 160.09 116.813 159.059C116.259 158.611 115.764 158.175 115.232 157.702C114.144 157.063 104.421 148.703 103.436 147.604C102.561 147.181 96.7739 142.145 95.6269 141.16C94.6255 140.564 93.8759 139.732 93.127 138.864C89.5427 136.394 83.1839 130.662 79.5508 127.658Z" fill="#F6F4F3"/>
<path d="M95.206 128.201C96.7103 124.532 99.0018 121.672 102.659 120.292C112.928 116.415 121.298 121.451 129.925 126.363C132.668 127.924 137.902 128.767 140.889 130.168C148.25 133.233 158.683 138.596 156.165 148.175C156.825 149.348 156.566 149.491 156.432 150.799C155.64 158.544 149.802 159.079 144.042 159.909C134.244 161.319 132.629 165.061 122.185 161.943C121.877 161.851 121.573 161.75 121.272 161.639C119.565 160.781 118.431 160.089 116.813 159.058C116.26 158.61 115.764 158.175 115.233 157.701C114.144 157.062 104.422 148.702 103.437 147.603C102.562 147.18 96.7742 142.144 95.6272 141.159C94.7061 139.027 93.7506 133.483 95.2071 131.567C95.0627 130.143 95.0969 129.61 95.206 128.201Z" fill="#FBB498"/>
<path d="M95.2071 131.566C97.6491 139.702 103.239 139.792 109.176 144.311C113.289 147.442 116.163 152.608 121.104 154.943C125.261 157.136 130.233 157.607 134.8 156.42C136.653 155.938 139.171 154.601 141.141 154.173C148.432 152.591 150.828 154.409 156.165 148.175C156.825 149.347 156.566 149.49 156.432 150.798C155.64 158.543 149.802 159.078 144.042 159.908C134.244 161.318 132.629 165.06 122.185 161.942C121.877 161.851 121.573 161.749 121.272 161.638C119.565 160.781 118.431 160.089 116.813 159.057C116.26 158.609 115.764 158.174 115.233 157.7C114.144 157.061 104.422 148.701 103.437 147.602C102.562 147.179 96.7742 142.143 95.6272 141.158C94.7061 139.026 93.7506 133.483 95.2071 131.566Z" fill="#EC3C19"/>
<path d="M103.438 147.604C107.44 149.014 112.821 154.347 115.233 157.702C114.145 157.063 104.422 148.703 103.438 147.604Z" fill="#5F1906"/>
<path d="M123.893 131.832C123.068 130.55 122.104 128.302 123.278 126.963C123.646 126.761 124.119 126.465 124.527 126.608C126.862 127.424 129.111 128.705 131.408 129.591C134.896 130.938 138.876 131.855 142.241 133.427L143.106 134.002C144.22 134.597 145.027 135.09 146.085 135.771C147.379 136.558 148.782 137.273 149.578 138.582C150.406 139.499 151.256 140.377 151.642 141.579C154.222 149.62 145.327 149.835 140.167 150.336C139.243 149.63 138.261 148.541 137.491 147.659C134.398 144.115 130.769 141.182 127.339 137.987C126.963 137.637 126.805 137.171 126.731 136.677C127.147 133.865 126.004 133.21 123.893 131.832Z" fill="#EC3C19"/>
<path d="M146.085 135.77C147.38 136.557 148.782 137.271 149.578 138.58C148.293 138.884 147.645 139.116 146.503 139.559C145.124 140.095 142.224 142.269 140.886 141.953C138.716 141.44 136.989 140.687 134.692 140.334L134.594 140.145C135.805 139.81 140.142 140.689 141.686 140.908C144.493 139.515 146.01 139.18 146.085 135.77Z" fill="#F7906E"/>
<path d="M142.241 133.426L143.106 134C142.326 134.889 143.064 136.14 141.776 136.473C140.964 135.581 141.589 134.22 142.241 133.426Z" fill="#FB5D3C"/>
<path d="M99.8142 128.315C101.469 125.514 103.461 123.223 106.813 122.449C111.355 121.4 118.965 121.545 120.145 127.288C120.346 128.285 120.306 130.659 119.993 131.625L119.222 131.837C118.549 132.304 118.195 132.501 117.718 133.173L117.04 135.015C117.007 135.111 116.911 135.819 116.89 135.964C116.534 136.537 116.052 137.004 115.437 137.268C111.95 138.767 108.944 140.482 105.277 138.274C102.968 136.884 101.807 135.631 100.333 133.402C100.008 132.672 99.9278 132.392 99.7344 131.614L99.8142 128.315Z" fill="#EC3C19"/>
<path d="M99.7344 131.616C103.323 130.951 109.355 129.429 112.591 130.256C109.854 129.451 105.756 131.804 102.317 131.907C101.745 132.422 101.03 133.157 100.333 133.405C100.008 132.675 99.9278 132.394 99.7344 131.616Z" fill="#EA5136"/>
<path d="M117.718 133.173C116.716 131.418 115.392 131.756 114.262 130.462L114.47 130.307C116.862 130.475 117.177 130.803 119.222 131.837C118.549 132.305 118.195 132.501 117.718 133.173Z" fill="#EA5136"/>
<path d="M118.447 138.472C119.223 138.326 121.067 139.706 122.057 139.733C122.831 139.754 124.17 139.034 124.655 139.29C128.243 141.181 135.567 148.072 137.075 151.412C134.995 152.846 134.002 153.07 131.578 153.755C122.569 154.774 118.139 149.005 112.705 143.004C112.323 142.581 112.131 142.181 112.188 141.603C112.821 140.529 116.782 139.347 118.264 138.569L118.447 138.472Z" fill="#EC3C19"/>
<path d="M119.994 131.627C121.256 131.639 122.884 131.841 123.893 131.832C126.004 133.21 127.147 133.865 126.731 136.677C125.668 137.489 125.476 137.307 124.245 138.528C123.026 138.425 121.625 138.391 120.389 138.334C119.39 137.573 117.741 136.031 117.041 135.017L117.719 133.174C118.196 132.503 118.55 132.306 119.223 131.838L119.994 131.627Z" fill="#F5D2B4"/>
<path d="M121.551 132.684C124.757 133.15 126.234 135.815 122.813 137.459C119.533 136.663 117.29 134.201 121.551 132.684Z" fill="#F7906E"/>
<path d="M137.768 176.902C138.791 174.681 141.48 172.391 143.328 170.926C147.45 167.653 152.197 166.81 157.24 168.253C157.813 168.417 158.031 168.105 158.443 167.782C160.267 168.47 162.458 171.03 163.408 172.718C162.799 174.242 162.704 176.204 162.301 177.828C161.051 182.861 157.881 187.143 153.843 190.317C152.195 189.209 143.859 182.192 142.356 180.689C141.785 180.292 140.901 179.524 140.335 179.065C139.429 178.367 138.626 177.656 137.768 176.902Z" fill="#EE7822"/>
<path d="M140.334 179.065C140.993 178.515 140.762 178.549 141.518 178.471C142.425 179.116 142.409 179.619 142.355 180.689C141.784 180.292 140.9 179.524 140.334 179.065Z" fill="#F58914"/>
<path d="M146.816 171.897C147.136 171.553 147.87 170.736 148.244 170.513C151.8 168.407 157.729 169.84 152.979 174.417C152.095 174.642 150.506 175.099 149.658 175.22C149.555 175.309 149.451 175.396 149.345 175.481C146.209 177.984 143.102 174.016 146.816 171.897Z" fill="#F58914"/>
<path d="M149.658 175.219C149.555 175.308 149.451 175.395 149.345 175.48C146.209 177.983 143.102 174.015 146.816 171.896C147.328 174.092 147.475 174.452 149.658 175.219Z" fill="#F58914"/>
<path d="M152.753 175.44C153.145 175.196 153.641 175.192 154.037 175.429C154.434 175.667 154.664 176.107 154.633 176.567C154.603 177.028 154.317 177.433 153.893 177.618C153.301 177.875 152.61 177.631 152.311 177.058C152.011 176.487 152.204 175.78 152.753 175.44Z" fill="#D9680F"/>
<path d="M156.451 174.654C157.114 174.508 157.772 174.924 157.921 175.588C158.069 176.251 157.652 176.909 156.989 177.057C156.325 177.206 155.667 176.79 155.518 176.125C155.37 175.461 155.787 174.803 156.451 174.654Z" fill="#D9680F"/>
<path d="M134.971 174.642C139.674 169.433 143.856 164.584 151.551 164.221C155.544 164.004 159.452 165.424 162.373 168.157C170.177 175.334 167.914 187.67 161.153 194.51C160.735 194.933 160.457 195.222 159.923 195.498L158.646 194.389C158.146 194.207 154.434 190.846 153.842 190.316C157.88 187.142 161.05 182.86 162.3 177.827C162.703 176.202 162.798 174.241 163.407 172.717C162.457 171.029 160.266 168.469 158.442 167.781C158.03 168.104 157.812 168.416 157.239 168.252C152.196 166.809 147.449 167.651 143.327 170.925C141.479 172.39 138.79 174.68 137.767 176.901C137.251 176.61 136.946 176.309 136.505 175.92C136.299 175.701 135.26 174.882 134.971 174.642Z" fill="#A34C0B"/>
<path d="M163.408 172.717C165.639 176.625 165.686 180.24 164.655 184.582C163.565 189.171 160.906 191.001 158.647 194.39C158.146 194.207 154.434 190.846 153.842 190.316C157.881 187.142 161.05 182.86 162.3 177.827C162.703 176.203 162.798 174.241 163.408 172.717Z" fill="#D9680F"/>
<path d="M136.506 175.92C139.963 172.402 142.456 168.562 147.717 166.985C151.28 165.915 155.117 166.023 158.442 167.781C158.03 168.103 157.812 168.415 157.24 168.252C152.196 166.808 147.45 167.651 143.327 170.925C141.48 172.39 138.79 174.68 137.767 176.901C137.251 176.61 136.947 176.308 136.506 175.92Z" fill="#F58914"/>
<path d="M93.5547 128.086C94.8223 123.938 97.0513 120.983 100.849 119.129C111.681 113.838 121.375 119.174 130.744 124.569C133.855 126.041 137.749 126.938 140.931 128.065C146.296 129.964 152.079 133.395 155.657 137.723C160.628 143.733 159.618 156.572 152.04 159.964C148.505 161.545 145.865 161.528 142.121 161.976C135.073 163.821 131.035 166.685 123.223 164.072C123.139 164.042 123.056 164.014 122.972 163.985C122.193 163.615 121.811 163.301 121.121 162.781C121.117 162.414 121.21 162.008 121.272 161.639C121.573 161.749 121.878 161.851 122.186 161.942C132.63 165.061 134.244 161.318 144.043 159.909C149.803 159.079 155.641 158.544 156.433 150.799C156.567 149.49 156.826 149.348 156.166 148.175C158.684 138.596 148.251 133.232 140.89 130.167C137.903 128.766 132.669 127.924 129.926 126.362C121.299 121.451 112.929 116.414 102.659 120.291C99.0025 121.672 96.711 124.531 95.2067 128.201C94.873 128.086 93.9604 128.099 93.5547 128.086Z" fill="#984422"/>
<path d="M93.5539 128.088C93.9596 128.1 94.8723 128.087 95.206 128.202C95.0969 129.612 95.0627 130.144 95.207 131.568C93.7505 133.485 94.706 139.028 95.6272 141.16C94.6258 140.564 93.8762 139.733 93.1272 138.864C92.2617 136.502 92.6141 130.325 93.5539 128.088Z" fill="#7E3704"/>
<path d="M178.163 137.363C179.241 136.774 179.213 137.127 179.878 136.225C180.922 137.345 183.56 137.886 184.871 138.82C192.815 144.48 194.929 159.68 188.039 166.879C187.641 167.297 187.216 167.723 186.812 168.144C186.635 171.203 186.49 175.438 186.074 178.391C183.826 194.899 175.764 210.063 163.337 221.157C156 227.587 147.452 232.487 138.195 235.567C135.171 236.571 132.385 236.928 129.466 237.943C128.158 238.397 127.336 239.412 126.462 240.465L127.95 242.201C126.975 242.066 126.876 241.881 126.141 242.24L125.979 242.866C126.054 242.898 123.888 241.475 123.757 241.393C122.293 241.352 118.865 241.622 117.803 240.847L117.829 240.458C118.403 239.885 119.256 239.679 120.036 239.418C119.494 238.845 119.086 238.866 118.296 238.764C111.818 239.667 101.597 237.187 95.2581 235.187C94.0678 234.593 93.4063 234.308 92.1535 233.867C86.347 231.515 79.76 227.462 74.8412 223.581C60.0586 212.001 50.5724 194.946 48.5293 176.279C49.3568 176.12 49.6574 176.039 50.4928 176.109C50.5261 177.16 50.4987 178.003 50.8352 179.009C51.7839 183.458 52.4161 186.764 54.0465 191.052C55.4912 197.578 63.1517 209.022 67.9624 214.245C80.0916 227.511 96.4117 235.722 114.411 236.763C149.247 238.773 182.616 209.572 184.309 174.4C184.522 173.387 184.627 170.337 184.693 169.156C184.19 169.237 183.684 169.294 183.177 169.333C179.547 169.585 176.328 168.547 174.926 164.9C174.478 163.737 174.58 162.87 174.496 161.646C174.002 161.287 173.454 161.049 172.903 160.786C170.892 157.544 171.264 156.798 171.498 153.5L172.16 153.212C172.64 151.652 170.63 150.843 170.64 149.018C170.664 144.989 171.919 143.402 174.557 140.745C175.265 140.081 177.053 139.351 177.965 138.999C178.312 139.007 178.533 138.819 178.84 138.635C178.493 138.164 178.395 137.888 178.163 137.363Z" fill="#643201"/>
<path d="M178.839 138.635C179.961 139.488 181.048 138.785 182.775 139.9C187.447 143.563 188.883 146.535 189.871 152.325C191.053 159.247 186.879 171.67 177.993 165.728C176.854 164.963 176.346 163.369 176.84 161.947C177.267 161.386 177.282 161.299 177.339 160.595C176.54 160.454 175.959 160.246 175.189 159.992L174.86 160.125C173.513 158.777 172.385 156.563 173.257 154.668L173.092 154.451C171.976 154.714 172.289 154.503 171.502 155.219C170.371 157.826 174.472 160.733 174.593 161.565L174.495 161.645C174.001 161.287 173.452 161.049 172.902 160.786C170.89 157.544 171.262 156.798 171.496 153.5L172.158 153.211C172.639 151.652 170.628 150.842 170.639 149.017C170.662 144.989 171.918 143.402 174.556 140.745C175.264 140.08 177.051 139.35 177.964 138.999C178.311 139.006 178.532 138.819 178.839 138.635Z" fill="#FC9624"/>
<path d="M174.556 140.745C175.605 140.469 176.161 140.341 177.153 139.854C177.599 140.178 177.457 140.025 177.617 140.684C177.234 141.599 176.069 141.271 175.927 142.286C173.154 144.769 171.942 147.426 173.705 150.899C174.52 150.595 175.583 150.157 176.413 149.99L177.201 151.424C176.154 152.019 175.212 152.518 174.263 153.268C172.987 155.95 173.16 157.71 175.189 159.992L174.86 160.126C173.513 158.778 172.385 156.563 173.257 154.668L173.092 154.452C171.976 154.714 172.289 154.504 171.502 155.219C170.371 157.826 174.472 160.733 174.593 161.565L174.495 161.646C174.001 161.287 173.452 161.049 172.902 160.786C170.89 157.544 171.262 156.798 171.496 153.5L172.158 153.212C172.639 151.652 170.628 150.843 170.639 149.018C170.662 144.989 171.918 143.402 174.556 140.745Z" fill="#643204"/>
<path d="M178.839 138.635C179.962 139.488 181.049 138.785 182.776 139.9C178.85 140.459 178.732 141.191 175.928 142.286C176.07 141.271 177.235 141.598 177.617 140.684C177.458 140.025 177.599 140.178 177.154 139.853C176.161 140.341 175.606 140.469 174.557 140.745C175.264 140.08 177.052 139.35 177.964 138.999C178.311 139.006 178.533 138.819 178.839 138.635Z" fill="#7E3704"/>
<path d="M177.339 160.594C178.802 160.376 180.138 159.991 181.499 160.435L181.759 160.775C181.01 162.125 178.173 162.01 176.84 161.946C177.268 161.386 177.282 161.299 177.339 160.594Z" fill="#B16D24"/>
<path d="M176.412 149.99C177.534 149.595 178.894 149.059 179.83 150.053C179.886 151.429 178.231 151.35 177.201 151.424L176.412 149.99Z" fill="#D9680F"/>
<path d="M118.295 238.764C119.871 238.621 123.982 238.091 125.186 238.861L125.235 239.205C124.188 239.543 121.133 239.519 120.034 239.418C119.492 238.844 119.084 238.866 118.295 238.764Z" fill="#D9680F"/>
<path d="M55.75 144.288C55.2059 144.204 55.0978 144.23 54.7159 143.874C54.6601 143.222 56.8327 138.712 57.277 137.775C63.8493 124.069 74.8092 112.949 88.4187 106.178C104.501 98.1822 123.112 96.9444 140.112 102.739C154.241 107.539 169.242 119.645 175.881 133.123C175.715 134.641 176.521 134.404 176.482 135.954C176.129 135.608 175.714 135.016 175.387 134.94C172.712 130.77 170.66 127.673 167.409 123.901C158.529 113.598 145.589 105.719 132.257 102.796C115.435 99.0263 97.8035 102.2 83.3516 111.598C74.0293 117.597 66.2072 126.078 60.4947 135.545C58.9235 138.149 57.3137 142.154 55.75 144.288Z" fill="#FB5D3C"/>
<path d="M50.834 179.01C51.6071 179.188 52.1302 179.453 52.2188 180.322C52.4119 182.217 54.845 189.739 54.0453 191.053C52.4149 186.765 51.7827 183.459 50.834 179.01Z" fill="#FB5D3C"/>
<path d="M175.879 133.123C176.763 134.592 177.358 135.959 178.16 137.362C178.392 137.887 178.491 138.163 178.837 138.634C178.53 138.818 178.309 139.006 177.962 138.999C177.66 138.034 176.129 136.939 175.385 134.94C175.712 135.015 176.127 135.608 176.48 135.954C176.519 134.404 175.713 134.641 175.879 133.123Z" fill="#EA5136"/>
<path d="M116.812 159.057C118.43 160.088 119.564 160.78 121.271 161.638C121.208 162.007 121.115 162.413 121.12 162.78C119.791 161.855 117.922 160.235 116.812 159.057Z" fill="#5F1906"/>
<path d="M80.0133 7.78862C80.1494 5.42944 80.2252 2.77686 82.1354 1.03714C82.9109 0.319385 83.9447 -0.0527591 84.9998 0.00604545C89.9428 0.30028 90.6584 6.18561 90.4007 9.99326C96.693 10.3036 100.779 10.6779 106.758 12.7908C107.27 11.0142 107.688 10.1264 108.797 8.60191C110.831 5.77101 113.907 3.86421 117.348 3.30164C121.295 2.68388 125.09 3.50417 128.324 5.86993C132.082 8.59299 134.582 12.718 135.255 17.3099C136.017 22.3169 134.713 26.0068 131.774 29.9745C132.383 30.9449 133.338 32.1666 134.026 33.0918C138.836 39.5588 141.331 46.979 144.619 54.2151C145.484 56.1202 147.938 58.1251 149.3 59.824C157.831 70.4628 157.52 84.969 150.518 96.3217C149.096 98.6263 147.603 100.49 145.998 102.579C148.199 103.692 150.373 104.856 152.519 106.07C162.579 111.976 170.963 120.354 176.875 130.409C177.752 131.886 179.445 134.619 179.876 136.224C179.211 137.127 179.239 136.773 178.161 137.363C177.359 135.96 176.764 134.593 175.88 133.123C169.241 119.645 154.24 107.539 140.111 102.739C123.111 96.9443 104.5 98.1822 88.4177 106.178C74.8081 112.949 63.8482 124.069 57.2759 137.775C56.8316 138.712 54.659 143.222 54.7148 143.874C55.0967 144.23 55.2048 144.204 55.7489 144.288C59.0793 145.173 61.1842 146.384 63.6559 148.856C64.1798 149.38 64.7952 150.303 65.1907 150.677C66.9358 154.229 67.4775 156.54 65.4485 159.752C64.8504 160.696 65.5081 164.155 65.078 165.339C64.7275 166.352 62.9744 168.203 62.2148 169.014C60.1626 169.903 60.041 172.145 58.5184 173.444C56.5061 175.16 53.0231 175.667 50.4907 176.109C49.6553 176.039 49.3547 176.119 48.5272 176.278C39.6197 175.325 30.9699 172.742 25.8359 164.832L26.8122 163.968C30.6421 167.562 34.3969 170.642 39.5252 172.258C45.111 174.018 52.6057 175.404 57.5455 171.321C58.1021 170.859 58.2919 170.139 58.324 169.443C58.1361 168.886 58.0149 168.806 57.5818 168.396C57.6935 168.005 57.8733 167.793 58.1004 167.462C60.4632 167.757 61.5047 167.178 62.5844 165.146C63.7077 162.216 63.4039 161.076 61.3854 158.851C61.5111 158.52 61.8416 157.9 62.0098 157.557C62.6133 157.824 62.8231 157.943 63.5011 158.017C65.0438 157.438 64.5751 155.507 64.2431 154.212C62.332 146.758 54.5301 146.946 48.9554 144.019C47.3927 143.198 45.4936 141.385 45.0308 139.579L45.2087 139.301C46.6877 139.251 49.0186 141.617 50.3578 142.343C51.0486 142.717 51.7177 142.991 52.4414 143.284C53.5954 140.672 54.7605 137.978 56.0501 135.432C64.4099 118.91 78.9582 106.36 96.5274 100.513C109.217 96.3937 123.151 95.532 136.044 99.1496C138.663 99.8844 141.177 100.538 143.616 101.777C149.381 94.8233 153.068 88.4767 153.446 79.0714C153.696 72.8436 151.293 65.5083 147.224 60.7656C146.043 59.2428 143.302 57.0908 142.599 55.3723C138.477 45.3076 134.828 36.07 127.072 28.0471C115.805 16.3934 103.501 12.4667 87.6855 12.1062C88.7478 8.48748 88.9698 7.69521 87.4467 4.21407C86.4196 5.06896 85.7413 4.56095 84.7053 5.01716C83.97 5.34112 83.3312 6.28135 82.4553 6.48303L82.2763 6.23296L82.2353 6.42104C81.8619 8.18369 82.3903 10.7601 81.4802 11.4052C79.7564 11.1606 75.4756 5.26491 71.4877 7.5982C71.0591 7.84912 71.0338 8.13041 70.8606 8.60127C71.0506 10.2835 71.8658 11.0887 73.1871 12.1376C73.6993 12.5395 74.229 12.919 74.7746 13.2746C74.1851 13.5445 73.9261 13.6967 73.2639 13.7638C72.1454 13.8094 71.6972 13.9964 70.6604 14.349C63.3922 15.9971 55.4383 18.7683 49.4579 23.3241C49.844 24.4084 50.5919 26.4781 50.2217 27.5894L49.9553 27.6813C48.4111 26.9175 47.2201 23.9796 46.0521 22.6188C42.6397 18.6439 37.6664 16.9846 32.5534 18.7426C21.5162 22.5373 18.667 38.0451 28.046 45.2248C28.8315 45.8262 29.932 46.4402 30.7892 46.973C30.4903 47.5131 30.1853 48.2139 29.711 48.5574C28.654 48.5605 28.6379 49.1666 28.3209 50.1179C26.0768 57.3863 24.4838 63.7693 24.2275 71.4217C23.8996 81.2191 19.8747 90.9527 23.9624 100.585C26.6033 107.012 29.9687 111.455 35.4511 115.791L33.6913 116.996C31.6694 115.576 29.9579 114.162 28.477 112.178C27.2597 114.115 25.1366 117.35 24.2787 119.392C21.8161 123.575 18.9411 130.787 17.4393 135.501C10.5325 157.181 6.66325 181.414 12.4055 203.81C15.1986 214.703 23.4591 227.171 23.3593 237.923C23.327 241.403 19.4018 245.823 26.2999 249.858C31.2818 252.773 38.9641 253.688 44.4831 253.735C45.0575 253.739 45.7596 253.762 46.3215 253.741C48.1153 253.773 51.2231 253.077 53.0286 252.675L53.2076 251.206C53.1534 249.629 53.0479 248.837 52.7743 247.279C52.7384 246.003 49.6557 244.995 49.7557 243.074L50.493 242.36C50.9581 242.216 52.9462 242.061 53.5417 242.004C54.998 241.921 56.9757 242.218 58.3936 242.564C61.5376 240.932 65.2173 236.843 67.3115 234.013C68.1558 234.198 68.957 234.37 69.8085 234.52C72.726 234.739 75.6885 234.987 78.6124 235.026C80.5801 235.06 82.5485 235.032 84.5143 234.941C85.5074 234.888 87.7944 234.499 88.5404 234.951C89.4439 234.781 91.6262 234.469 92.1514 233.867C93.4042 234.308 94.0657 234.593 95.256 235.187C101.595 237.187 111.816 239.666 118.294 238.764C119.083 238.866 119.492 238.845 120.033 239.418C119.254 239.679 118.401 239.885 117.827 240.458L117.801 240.847C118.863 241.622 122.291 241.352 123.755 241.392C123.886 241.475 126.052 242.897 125.977 242.866L126.139 242.239C126.873 241.881 126.973 242.065 127.947 242.201C128.553 242.66 128.936 244.029 129.033 244.761C130.188 251.756 120.29 253.661 114.91 253.801C107.344 253.996 95.1505 253.771 88.8701 248.833C85.3382 246.058 87.6628 240.925 87.4902 237.132C79.8564 237.32 75.7853 237.312 68.1836 236.658C65.9628 239.187 62.7551 242.594 59.7884 244.171C61.423 246.776 61.6321 250.846 58.8186 252.652C52.7187 256.569 43.4796 256.405 36.7085 255.372C26.3441 253.79 16.6677 250.126 21.3064 237.535C22.3222 234.635 14.9587 215.86 12.6917 212.75C6.14717 210.854 1.33894 206.634 0.217427 199.546C-0.688715 193.818 1.13066 188.082 7.69689 187.243C7.57886 181.626 7.49203 172.861 8.17604 167.265C10.324 149.691 16.3957 124.945 27.0574 110.556C24.771 107.871 23.4612 105.286 22.0904 102.078C18.6832 94.1035 19.7168 86.1411 21.4574 77.9639C21.5535 77.0896 21.6533 76.1978 21.7102 75.3208C22.3373 65.6442 23.1616 56.4864 27.1589 47.4345C26.0437 46.7499 24.3475 44.9777 23.5425 43.9177C20.788 40.2721 19.5985 35.6794 20.2371 31.1548C22.2163 17.1513 39.3167 9.85655 47.9568 21.6011C56.4906 16.4074 60.2051 14.403 70.1322 12.2599C69.4293 11.1018 69.0357 10.4968 68.864 9.13688C68.2222 4.05549 75.0701 4.51 77.9592 6.27032C78.7328 6.7416 79.3507 7.25132 80.0133 7.78862Z" fill="#502902"/>
<path d="M92.1521 233.867C93.4048 234.309 94.0663 234.593 95.2566 235.188C101.595 237.187 111.817 239.667 118.295 238.765C119.084 238.867 119.492 238.845 120.034 239.419C119.254 239.68 118.401 239.886 117.828 240.459L117.802 240.847C118.864 241.622 122.292 241.353 123.756 241.393C123.887 241.476 126.052 242.898 125.977 242.866C126.817 244.138 126.945 244.73 127.026 246.256C127.948 253.438 104.889 252.455 100.766 251.328L100.665 251.016C96.5293 250.018 88.1001 248.904 89.0023 242.991C89.4377 240.136 90.1211 239.926 89.2545 236.875L88.541 234.952C89.4445 234.782 91.6269 234.47 92.1521 233.867Z" fill="#F58914"/>
<path d="M100.664 251.015C102.792 250.867 111.718 252.586 113.667 251.194C114.435 250.058 113.695 248.175 113.615 246.64L113.881 246.555C115.51 247.663 115.125 249.986 115.045 251.663C117.28 251.485 119.173 251.238 121.304 250.538C122.34 250.631 122.611 250.219 123.313 249.534L123.392 249.723C124.836 250.241 126.581 247.375 127.025 246.256C127.947 253.438 104.888 252.455 100.765 251.327L100.664 251.015Z" fill="#A34C0B"/>
<path d="M92.1521 233.867C93.4048 234.309 94.0663 234.593 95.2566 235.188C94.0931 235.943 90.9344 236.493 89.5146 236.572L89.2545 236.875L88.541 234.952C89.4445 234.782 91.6269 234.47 92.1521 233.867Z" fill="#B16D24"/>
<path d="M121.304 250.538C122.417 247.986 121.554 246.774 120.881 244.109C122.334 245.736 123.91 247.219 123.313 249.533C122.611 250.219 122.34 250.631 121.304 250.538Z" fill="#502902"/>
<path d="M50.4936 242.361C50.9587 242.216 52.9468 242.061 53.5423 242.004L53.8399 243.282C54.5727 244.182 56.2532 244.108 57.4648 244.534C60.3638 248.4 58.9754 250.878 54.571 252.408L53.0292 252.676L53.2081 251.207C53.154 249.629 53.0485 248.838 52.7748 247.279C52.739 246.003 49.6563 244.995 49.7563 243.074L50.4936 242.361Z" fill="#F58914"/>
<path d="M52.7734 247.279C55.0547 247.797 54.5989 250.508 54.5696 252.408L53.0278 252.676L53.2067 251.207C53.1526 249.629 53.0471 248.838 52.7734 247.279Z" fill="#B16D24"/>
<path d="M50.4931 242.361C50.9583 242.216 52.9464 242.061 53.5418 242.004L53.8395 243.282C52.3917 243.481 51.1697 243.537 49.7559 243.074L50.4931 242.361Z" fill="#B16D24"/>
<path d="M82.2754 6.23328C82.5993 2.5148 84.9607 0.539645 87.4457 4.2144C86.4187 5.06929 85.7404 4.56128 84.7044 5.01749C83.969 5.34145 83.3303 6.28168 82.4543 6.48336L82.2754 6.23328Z" fill="#FEB965"/>
<path d="M118.16 5.36918C122.004 5.16007 124.736 5.85023 127.786 8.3162C130.773 10.7268 132.68 14.2249 133.089 18.0417C133.483 21.8502 132.758 25.215 130.325 28.225C129.11 27.1305 127.82 25.8102 126.641 24.6545C127.073 23.8646 127.414 22.9209 127.746 22.0754C128.08 19.2587 127.64 16.4637 125.419 14.4796C124.144 13.3314 122.452 12.7573 120.741 12.8925C118.076 13.0919 116.934 14.5007 115.386 16.3374L108.754 13.1736C110.821 8.77071 113.363 6.49007 118.16 5.36918Z" fill="#FC9624"/>
<path d="M5.93358 189.608C6.54752 189.553 6.89674 189.472 7.47014 189.727C7.70217 190.228 8.53541 196.181 8.74728 197.223C9.61597 201.632 10.736 205.988 12.1019 210.27C11.158 209.96 10.1444 209.519 9.21686 209.139C6.53287 207.389 5.04387 205.795 3.60277 202.914C1.59427 198.902 1.08558 191.771 5.93358 189.608Z" fill="#F58914"/>
<path d="M120.227 14.8924C126.618 14.3404 127.284 22.3858 125.083 22.9685L124.301 22.4752C121.606 20.3266 119.849 19.031 116.986 17.1862C118.138 15.8328 118.565 15.5059 120.227 14.8924Z" fill="#D9680F"/>
<path d="M67.4772 229.745C66.0886 221.487 62.251 220.426 57.3401 214.121C54.3806 210.257 51.7518 206.149 49.4816 201.842C46.3564 195.968 44.8139 190.17 42.5099 184.041C42.2448 183.334 37.5313 181.468 36.4813 180.863C29.5097 176.847 24.4867 170.264 22.7718 162.366C22.3984 160.638 21.6808 156.091 22.1546 154.451C22.7202 154.48 25.4931 158.246 26.1824 159.004C27.5307 160.503 29.029 161.857 30.6543 163.05C36.1677 167.088 43.24 169.512 50.0889 169.499C51.877 169.495 54.2267 169.733 55.3331 168.103C56.0634 168.262 56.8533 168.491 57.5811 168.395C58.0142 168.805 58.1354 168.886 58.3232 169.442C58.2912 170.138 58.1014 170.858 57.5448 171.321C52.605 175.403 45.1103 174.017 39.5245 172.257C34.3962 170.642 30.6414 167.561 26.8115 163.967L25.8351 164.831C30.9692 172.741 39.6189 175.325 48.5265 176.278C50.5695 194.945 60.0558 212 74.8384 223.58C79.7572 227.461 86.3441 231.514 92.1507 233.866C91.6255 234.469 89.4431 234.781 88.5396 234.951C87.7936 234.499 85.5066 234.887 84.5135 234.94C82.5477 235.031 80.5794 235.059 78.6117 235.025C75.6878 234.987 72.7253 234.738 69.8077 234.52C68.9562 234.369 68.1551 234.197 67.3108 234.012C65.2165 236.842 61.5369 240.931 58.3929 242.563C56.975 242.217 54.9973 241.92 53.541 242.003C52.9455 242.06 50.9574 242.215 50.4923 242.36C52.7946 238.967 57.8549 236.191 59.5743 231.849C59.9534 230.89 60.9236 228.416 61.7834 228.253C63.0064 229.522 65.7846 229.701 67.4772 229.745Z" fill="#F58914"/>
<path d="M67.3125 234.013C68.3162 232.926 69.2696 231.884 70.1956 230.723L70.426 230.839C70.4756 231.89 69.8063 234.506 69.8095 234.521C68.958 234.37 68.1568 234.198 67.3125 234.013Z" fill="#D9680F"/>
<path d="M23.5488 160.062C24.6691 161.338 25.7575 162.64 26.8126 163.969L25.8363 164.833C25.2675 164.022 24.043 161.13 23.5488 160.062Z" fill="#7E3704"/>
<path d="M28.4776 112.18C29.9585 114.164 31.67 115.578 33.6918 116.998L35.4517 115.792C37.6438 117.474 39.7931 118.941 42.003 120.563L42.2098 120.664L41.9688 120.881C39.4816 120.468 36.2181 118.943 34.0353 117.72C32.1177 116.644 25.729 117.83 24.2793 119.394C25.1372 117.352 27.2603 114.117 28.4776 112.18Z" fill="#D9680F"/>
<path d="M35.4513 115.791C37.6434 117.472 39.7926 118.94 42.0026 120.561C39.6268 120.719 34.4455 117.114 33.6914 116.996L35.4513 115.791Z" fill="#B16D24"/>
<path d="M28.3203 50.1191C28.6373 49.1679 28.6534 48.5618 29.7104 48.5586C30.8791 49.5975 32.6623 49.502 34.1872 49.4984C34.0156 51.1114 31.6242 53.2112 30.2144 53.5812L29.8579 53.3999C29.4266 51.7962 30.7423 50.0773 29.5817 49.4018C28.9646 49.505 28.7837 49.7209 28.3203 50.1191Z" fill="#F58914"/>
<path d="M46.5987 250.82L46.8659 252.353C48.2002 252.434 51.7783 251.585 53.2083 251.207L53.0294 252.676C51.2238 253.077 48.1161 253.773 46.3223 253.741C46.5488 252.89 46.5562 251.723 46.5987 250.82Z" fill="#F58914"/>
<path d="M30.7892 46.9727C31.9788 47.3038 33.4375 47.5378 34.3658 48.2107C34.5875 48.8941 34.5261 48.6833 34.1877 49.4968C32.6628 49.5004 30.8796 49.5959 29.7109 48.557C30.1852 48.2135 30.4903 47.5127 30.7892 46.9727Z" fill="#643204"/>
<path d="M44.4824 253.735C44.5431 252.909 44.8652 249.073 45.2418 248.748C46.0421 249.134 46.3618 250.02 46.5973 250.82C46.5548 251.722 46.5474 252.89 46.3209 253.741C45.7589 253.762 45.0569 253.739 44.4824 253.735Z" fill="#B16D24"/>
<path d="M56.7852 166.923C58.2776 166.463 61.2868 165.342 62.5847 165.146C61.505 167.178 60.4635 167.758 58.1007 167.463C57.6838 167.235 57.2312 167.087 56.7852 166.923Z" fill="#F58914"/>
<path d="M55.3354 168.102C54.7507 167.741 54.369 167.567 54.4718 166.862C55.298 166.419 55.9478 166.637 56.7864 166.922C57.2324 167.085 57.685 167.234 58.1019 167.461C57.8748 167.792 57.695 168.004 57.5833 168.395C56.8556 168.49 56.0657 168.261 55.3354 168.102Z" fill="#B16D24"/>
<path d="M61.3853 158.852C60.3107 158.154 59.5742 158.168 58.3829 157.056L58.375 156.781L59.1811 156.841L58.834 156.736C60.3419 156.768 60.6512 156.939 62.0096 157.557C61.8415 157.901 61.511 158.521 61.3853 158.852Z" fill="#B16D24"/>
<path d="M103.159 65.0488C118.597 62.6654 118.872 78.4268 107.149 82.1278C107.377 83.9183 107.483 85.8181 107.278 87.6128C108.905 87.7941 113.914 88.2085 113.634 90.5645L113.212 90.853C112.101 91.0791 110.964 90.514 109.844 90.2063C106.802 89.3708 103.917 90.2781 101.277 91.7414C100.299 92.3675 98.4698 93.8104 97.3319 93.2408C97.2009 90.8411 103.491 88.391 105.498 87.973C105.379 86.1885 105.313 84.3365 105.224 82.5448C89.46 83.2046 84.8165 67.5995 103.159 65.0488Z" fill="#502902"/>
<path d="M97.4271 68.5855C100.489 66.939 105.889 66.5713 109.363 67.2942L111.365 68.1907L112.798 69.1046C113.663 70.7936 114.172 71.834 113.409 73.7158C110.772 80.2178 104.74 81.091 98.9862 79.6147C98.7444 79.4996 97.7886 79.254 97.4761 79.1661C95.1535 78.1265 93.1473 75.8329 92.9609 73.2307C93.3186 72.1229 93.9961 71.6769 94.7094 70.669C95.6298 69.619 96.248 69.3058 97.4271 68.5855Z" fill="#7E3704"/>
<path d="M97.4267 68.5855C100.488 66.939 105.889 66.5713 109.362 67.2942L111.365 68.1907C111.042 69.9686 110.825 70.1686 109.144 70.8912C108.061 70.9821 107.547 71.8489 106.847 71.9259C104.613 72.1716 103.781 71.955 101.52 72.5872C99.2571 73.019 98.001 72.8396 95.8978 72.1219L95.5471 71.8147C94.9476 71.4192 95.0703 71.3961 94.709 70.669C95.6295 69.619 96.2477 69.3058 97.4267 68.5855Z" fill="#A34C0B"/>
<path d="M97.8517 69.1013C100.375 69.7966 102.785 67.2306 104.203 69.3134C104.089 70.7128 102.232 70.3969 101.423 71.5535L101.52 72.5865C99.2571 73.0183 98.001 72.8389 95.8978 72.1211L95.5471 71.814C94.9476 71.4185 95.0703 71.3953 94.709 70.6682C95.6295 69.6182 96.2477 69.3051 97.4267 68.5848L97.8517 69.1013Z" fill="#D9680F"/>
<path d="M94.709 70.6674C95.6295 69.6174 96.2477 69.3043 97.4267 68.584L97.8517 69.1005C95.9598 69.3563 96.7512 70.5326 95.5471 71.8131C94.9476 71.4176 95.0703 71.3945 94.709 70.6674Z" fill="#B16D24"/>
<path d="M107.385 69.2261C107.932 68.5502 108.582 67.5677 109.363 67.293L111.365 68.1895C111.042 69.9674 110.826 70.1674 109.144 70.89C108.483 70.4124 107.948 69.8146 107.385 69.2261Z" fill="#D9680F"/>
<path d="M94.7094 70.668C95.0707 71.3951 94.948 71.4182 95.5475 71.8137L95.8982 72.1209C95.1934 72.8251 93.8751 74.4007 92.9609 73.2297C93.3186 72.122 93.9961 71.6759 94.7094 70.668Z" fill="#A34C0B"/>
<path d="M97.4746 79.1651C98.1975 78.1822 98.0274 77.5149 99.3407 76.791C99.9642 77.6429 99.1702 78.7156 98.9846 79.6136C98.7428 79.4986 97.7871 79.2529 97.4746 79.1651Z" fill="#643204"/>
<path d="M56.5274 78.4023C69.7344 79.0203 71.0782 95.537 57.1617 97.4548C44.3859 97.9002 41.0196 80.9188 56.5274 78.4023Z" fill="#FEB965"/>
<path d="M70.0354 60.1272C80.5185 58.6445 84.485 77.6571 73.307 80.6362C71.6524 80.9336 69.9462 80.6308 68.4952 79.7821C66.0371 78.3687 64.6211 75.703 63.9333 73.0342C63.0954 69.9025 63.5472 66.5657 65.1875 63.7694C66.3853 61.7718 67.811 60.6611 70.0354 60.1272Z" fill="#502902"/>
<path d="M72.4787 63.0534C74.988 62.9821 75.5149 64.3522 76.3025 66.3832C75.8431 67.73 75.3529 68.4671 74.3817 69.4831C71.8321 69.6132 71.3667 68.1716 70.3125 66.1731C70.9311 64.7932 71.3385 64.0459 72.4787 63.0534Z" fill="#F6F4F3"/>
<path d="M136.596 64.2734C141.201 63.4249 145.628 66.4509 146.509 71.0497C147.391 75.6484 144.396 80.0969 139.804 81.011C135.165 81.9345 130.661 78.903 129.771 74.2577C128.881 69.6123 131.944 65.1306 136.596 64.2734Z" fill="#FEB965"/>
<path d="M120.414 51.3876C127.827 50.6129 133.376 67.2045 123.817 70.6022C115.314 71.2506 112.114 57.3803 117.928 52.5677C118.552 52.0514 119.643 51.6769 120.414 51.3876Z" fill="#502902"/>
<path d="M121.808 54.5449C125.412 54.7022 125.77 58.1248 123.555 60.2135C120.219 60.0602 118.794 56.7222 121.808 54.5449Z" fill="#F6F4F3"/>
<path d="M36.026 26.5939C40.6648 26.3792 42.2612 29.1108 44.1703 32.6647C40.7981 34.8524 38.9023 38.4189 37.3169 41.9858L37.0301 42.2533C36.1599 42.3851 35.0616 41.8909 34.2975 41.5415C28.9249 39.0833 27.7229 31.2757 32.8501 27.8958C33.9455 27.1738 34.7885 26.9601 36.026 26.5939Z" fill="#502902"/>
<path d="M35.4141 28.7177C36.2637 28.6738 37.3251 28.7029 38.1923 28.702C40.1881 29.8717 40.6246 30.384 41.9694 32.2386C39.3256 34.5504 38.1603 36.0103 36.6927 39.2193L36.4361 39.8865C33.9966 41.1645 27.0454 33.0255 35.4141 28.7177Z" fill="#D9680F"/>
<path d="M75.9559 47.873C80.0166 49.4979 75.3366 53.5658 73.3451 54.6765C70.4514 56.2904 68.7346 56.2957 65.5513 56.3309C64.8117 56.3018 64.5202 56.1626 64.2383 55.5285C65.1193 53.7573 69.6311 53.6788 71.7438 52.2779C73.9618 50.8073 74.2435 49.5185 75.8385 47.9843L75.9559 47.873Z" fill="#502902"/>
<path d="M113.881 41.707C117.255 44.1486 118.636 45.0449 122.849 45.0604C123.212 45.0617 123.384 45.4699 123.518 45.7499C123.32 46.3953 122.804 46.7084 122.263 47.1614C118.593 48.0227 109.823 45.5722 113.881 41.707Z" fill="#502902"/>
</svg>
