<svg width="148" height="256" viewBox="0 0 148 256" fill="none" xmlns="http://www.w3.org/2000/svg">
<path d="M64.5796 7.83871C65.012 5.16411 65.5742 2.66759 67.863 0.895387C69.7904 -0.596813 72.4298 -0.19805 73.7225 1.89847C74.9271 3.83562 74.873 5.86419 74.6676 8.01616C75.5541 7.43098 76.1811 7.0038 77.1943 6.63824C81.6066 5.04674 86.0004 7.26249 82.2058 12.0688C89.3734 13.6035 92.6367 14.7865 99.1325 18.248C100.682 14.9791 102.96 12.5783 106.442 11.363C109.4 10.3281 112.648 10.5099 115.472 11.8687C118.323 13.2492 120.627 15.9063 121.659 18.8968C122.819 22.3643 122.567 26.1487 120.959 29.4321C119.792 31.7902 118.298 33.4381 116.122 34.8839C118.749 39.5294 120.337 42.8914 122.095 47.959C122.825 50.0628 123.946 53.9054 124.717 55.769C126.753 60.6833 128.576 62.4509 129.65 68.0725C130.49 72.5074 130.306 77.0754 129.112 81.4286C127.429 87.5939 124.496 91.7165 120.314 96.3375C125.915 101.454 130.95 108.807 134.016 115.728C136.89 117.355 138.354 118.51 140.691 120.811C151.083 131.041 149.134 152.554 133.58 156.599C133.33 156.664 133.08 156.726 132.828 156.784C134.441 160.083 136.566 164.058 138.271 167.288C144.078 178.289 136.787 189.561 124.269 187.958C121.582 187.614 117.523 187.444 114.689 187.22C113.84 199.2 108.115 209.762 99.0892 217.578C96.8777 219.475 94.5132 221.186 92.0205 222.693C91.2668 223.147 86.5333 225.439 86.3248 225.658C86.473 226.103 86.4807 226.256 86.7912 226.605C88.073 227.093 89.2421 227.203 90.4823 227.628C93.9989 228.831 96.9425 231.033 98.5842 234.42C99.0769 235.438 99.7487 238.512 99.8429 238.622C102.493 238.899 117.922 242.278 114.484 247.164C112.322 250.236 103.051 252.404 99.0614 253.047C74.629 256.985 48.8145 257.084 24.4258 252.743C16.0187 251.254 0.560928 245.994 18.0672 240.307C20.7637 239.431 23.7853 238.755 26.5975 238.347C22.0479 230.282 24.198 219.868 34.4584 218.512C34.8032 218.089 35.1816 217.663 35.539 217.249C33.3344 214.238 31.331 211.221 29.6386 207.885C29.2366 207.093 28.8763 206.299 28.4128 205.541C21.12 202.143 15.0436 196.593 11.0017 189.637C4.40495 178.12 4.50502 164.369 7.91954 151.884C-8.90749 134.517 3.92695 108.865 19.9719 96.175C16.6332 92.5876 14.3527 89.1221 12.6993 84.45C11.4468 80.8838 10.853 77.1195 10.9472 73.3409C11.1047 63.298 16.1646 47.8015 20.5384 38.7399C19.8125 38.4033 19.1336 38.089 18.4554 37.6609C15.5197 35.7754 13.4596 32.7942 12.7342 29.3812C11.8797 25.4344 12.8425 22.1074 14.9646 18.7865C16.5724 16.5743 17.897 15.6151 20.2715 14.3715C23.8845 13.0053 27.1008 12.807 30.7112 14.4171C33.1859 15.5345 35.2751 17.3587 36.7154 19.6605L37.0116 19.8611C38.1563 19.4023 40.6185 17.5987 41.9379 16.9337C46.2846 14.7428 51.8747 12.5337 56.6375 11.8594C55.7311 10.3576 54.8976 8.69786 55.3754 6.95948C56.3336 3.47268 60.9405 4.46342 62.995 6.28566C63.5989 6.82002 64.053 7.2994 64.5796 7.83871Z" fill="#522C02"/>
<path d="M66.1958 8.25224C66.2329 8.81687 66.2529 9.15911 66.3595 9.71124C66.8336 7.9205 68.1603 3.88328 70.0908 3.2002C71.7464 3.49826 72.0645 6.31942 72.412 7.57347C72.5665 7.71463 72.7209 7.85595 72.8769 7.9971C72.7564 8.68174 71.9919 12.1089 72.2282 12.4478C73.5363 11.4842 74.1958 10.5088 75.141 9.77842C75.7371 10.0501 80.8614 8.53425 81.5055 8.17564C83.1827 10.615 77.9749 12.7037 78.29 13.941C78.9325 14.2062 79.2661 14.0678 79.8962 13.8232C82.1927 12.9313 91.7294 16.5095 94.1186 17.6003C96.5803 18.7424 98.9525 20.0658 101.218 21.5593C101.556 21.2348 101.941 20.7535 102.254 20.3843C103.495 21.1804 104.37 21.8476 105.522 22.7447C105.204 23.3262 105.084 23.6368 104.843 24.2603C106.299 25.5874 107.561 26.7778 108.917 28.2081C109.589 28.9159 110.699 30.2932 111.308 30.8587L112.282 29.4416L112.363 29.47C112.681 30.1298 113.995 31.8467 114.519 32.4348L114.492 32.5156C113.783 33.076 113.833 33.3891 113.717 34.3452L114.313 35.2726C118.486 42.3878 120.593 48.7243 123.19 56.4814C124.386 60.0525 127.263 63.6561 127.851 67.6425C128.536 70.8192 128.634 73.8922 128.19 77.1188C127.044 85.9274 122.262 92.5157 115.807 98.2814C116.241 98.7124 116.721 98.7599 117.323 98.886C117.904 98.4318 118.506 97.9739 119.076 97.509L121.787 100.24C125.655 104.278 129.218 109.846 131.737 114.828L132.566 116.575C133.146 117.152 133.969 117.646 134.668 118.079C141.277 122.17 145.774 129.472 145.433 137.511C144.81 139.026 144.549 140.574 144.006 142.092C143.238 144.231 141.365 147.056 139.436 148.254C139.081 148.263 139.096 148.253 138.756 148.138C138.055 148.725 137.195 149.999 136.647 150.365C133.419 152.518 126.798 153.473 124.872 149.209C125.383 148.89 126.244 148.5 126.807 148.222C126.735 147.539 126.834 147.429 126.316 147.037L125.56 147.155C124.957 146.875 123.865 146.665 123.085 146.33C120.824 145.357 120.506 144.063 119.635 141.956C119.935 141.232 119.976 141.053 120.451 140.455C121.207 139.516 121.841 139.192 122.891 138.677C123.002 138.6 123.62 138.304 123.777 138.223C123.797 137.729 123.814 137.664 123.722 137.164L123.376 136.966C122.831 137.131 122.194 137.306 121.669 137.505C118.472 137.073 119.288 136.663 117.61 134.39L117.526 134.277L117.708 133.419C118.619 133.348 119.759 131.303 120.953 130.504C122.744 129.304 128.166 128.719 129.444 127.86L130.245 127.948C131.099 127.565 131.394 127.881 132.173 127.317L132.027 127.229C129.266 125.582 126.139 125.621 123.116 126.386C121.58 126.885 120.273 127.457 119.045 128.554C118.776 128.789 118.111 129.174 117.776 129.381C117.445 128.949 117.15 128.628 116.954 128.12C116.132 126.735 115.226 125.268 114.477 123.854L102.844 104.373C99.4112 98.714 96.5248 92.2576 89.6661 90.562C86.3008 89.7302 82.6174 90.2795 79.5502 92.0301C76.1062 94.2204 71.7325 100.353 69.0313 103.733L55.2146 121.215C53.0886 123.931 50.2106 127.865 48.0182 130.387C44.6012 127.128 41.6431 125.942 36.9884 125.062L34.3087 124.849C33.8063 123.436 33.408 122.719 32.6298 121.468L31.6925 120.424C31.2849 120.838 31.1326 120.944 30.8919 121.484C31.5765 122.676 31.9726 123.484 32.5373 124.743C29.9728 124.88 27.2794 125.162 24.9617 126.374C25.3626 126.845 26.5052 126.957 27.2272 127.134C33.3086 125.443 46.2418 127.331 48.3831 134.507L48.5129 134.807C48.0238 137.701 47.3907 138.223 44.5626 138.955C44.0236 138.716 43.258 138.461 42.6885 138.251C42.5621 138.707 42.4472 139.162 42.2806 139.602C44.4441 140.665 45.6126 141.392 46.4295 143.822L46.5268 144.118C44.9836 147.159 43.7141 149.266 39.8523 149.34L39.1796 149.202C38.8783 149.825 38.8693 149.859 38.7799 150.551C39.1953 150.782 39.7478 151.068 40.1391 151.314C39.2395 153.249 38.0994 154.067 36.0882 154.684C28.5549 157.025 19.7878 153.649 13.5166 149.454C8.14223 145.86 4.39489 139.814 3.13157 133.525C2.73913 131.572 2.57806 129.619 2.23999 127.655C3.41806 117.593 10.7024 106.958 18.0224 100.128C19.133 99.1039 20.037 98.3531 21.219 97.4151C22.1048 98.1952 22.903 98.7977 23.8492 99.5083C24.3439 98.9688 24.4375 98.912 25.0808 98.5569C15.7845 90.5234 11.5743 81.684 12.9983 69.3015C14.2594 59.343 18.3736 46.9446 22.9119 37.9801L23.3892 37.0437C24.0675 36.0794 24.714 35.093 25.3272 34.0861C24.9998 33.6786 24.7762 33.2671 24.3615 32.7699C24.9634 31.5427 26.8607 29.1735 27.8648 28.1909L28.8829 27.0996C29.3325 27.42 29.7714 27.7308 30.2097 28.0661L31.6258 26.6403C32.3705 25.804 33.3115 25.0436 34.1677 24.3118C34.5798 23.9914 34.8611 23.7336 35.2443 23.3773L36.6327 22.3293C43.994 17.0058 51.0616 14.4669 59.8959 13.0661C58.579 11.5696 54.1433 5.88977 59.2278 6.31463C60.8205 6.75031 61.6584 7.10969 62.812 8.40344C63.595 9.22012 64.7641 11.3035 65.6661 11.5278C66.2282 11.0615 65.9842 9.14923 66.1958 8.25224Z" fill="#FF9B34"/>
<path d="M25.0735 98.5552C15.7773 90.5217 11.5671 81.6824 12.991 69.2998C13.5779 70.3577 13.7738 73.5954 14.0915 75.0014C15.5666 81.5311 18.3952 87.3032 22.6715 92.3968C24.7121 94.7932 26.9847 96.9818 29.456 98.9308C30.4393 99.6953 35.427 102.587 33.5422 103.95C32.645 104.007 31.999 103.644 31.6509 103.897L31.6049 104.4C30.1581 105.222 19.6526 101.329 18.0151 100.127C19.1257 99.1023 20.0298 98.3514 21.2117 97.4135C22.0976 98.1935 22.8957 98.796 23.842 99.5066C24.3366 98.9671 24.4302 98.9103 25.0735 98.5552Z" fill="#F07F18"/>
<path d="M25.0716 98.5601C25.9961 99.2121 27.7792 100.301 28.1003 101.322L27.9417 101.523C26.7412 101.549 24.8208 100.224 23.8401 99.5114C24.3348 98.9719 24.4284 98.9151 25.0716 98.5601Z" fill="#A95001"/>
<path d="M121.794 100.241C120.135 100.706 111.386 104.772 110.501 103.413C110.703 103.063 110.807 102.974 110.841 102.582C109.894 102.221 109.299 103.529 107.936 102.772C107.364 101.676 108.733 100.832 109.556 100.269C115.497 96.2095 120.556 91.5342 124.368 85.3876C125.278 83.9207 127.599 77.6509 128.197 77.1201C127.051 85.9288 122.269 92.517 115.814 98.2827C116.248 98.7138 116.728 98.7612 117.33 98.8874C117.911 98.4332 118.513 97.9752 119.083 97.5104L121.794 100.241Z" fill="#F07F18"/>
<path d="M117.332 98.8844C116.581 99.5028 114.522 101.024 113.552 100.641L113.52 100.331C114.034 99.505 115.01 98.8759 115.815 98.2798C116.249 98.7108 116.729 98.7582 117.332 98.8844Z" fill="#A95001"/>
<path d="M114.485 123.865C115.443 121.893 112.692 118.357 114.43 117.32C114.83 117.37 114.944 117.366 115.247 117.78C117.466 120.815 116.896 123.84 121.06 125.506C121.645 125.741 122.41 126.197 123.125 126.398C121.588 126.897 120.281 127.469 119.054 128.566C118.785 128.8 118.119 129.185 117.784 129.393C117.454 128.96 117.159 128.639 116.963 128.132C116.141 126.747 115.234 125.28 114.485 123.865Z" fill="#F07F18"/>
<path d="M116.944 128.128C117.323 127.148 116.385 124.565 117.039 123.96C117.993 124.718 118.688 127.409 119.035 128.562C118.767 128.797 118.101 129.182 117.766 129.389C117.435 128.957 117.14 128.636 116.944 128.128Z" fill="#502902"/>
<path d="M27.2251 127.138C33.3065 125.448 46.2398 127.335 48.3811 134.512C48.2149 134.502 47.9207 134.484 47.8036 134.348C43.334 129.147 36.7476 127.539 30.1104 128.074C28.5859 128.197 27.119 128.26 25.6799 127.539L27.2251 127.138Z" fill="#FEB367"/>
<path d="M112.272 29.4399L112.353 29.4684C112.671 30.1281 113.985 31.845 114.509 32.4331L114.483 32.5139C113.774 33.0744 113.823 33.3874 113.707 34.3436L114.303 35.271C114.089 35.7331 114.123 35.7338 113.732 36.0458C113.069 35.8304 109.993 31.2151 109.4 30.3263C110.169 30.7945 110.557 31.0968 111.463 31.2341L111.298 30.8571L112.272 29.4399Z" fill="#FEB367"/>
<path d="M112.295 29.4399L112.375 29.4684C112.693 30.1281 114.007 31.845 114.531 32.4331L114.505 32.5139C113.796 33.0744 113.845 33.3874 113.729 34.3436C113.067 33.3437 112.285 32.1003 111.485 31.2341L111.32 30.8571L112.295 29.4399Z" fill="#F07F18"/>
<path d="M32.6399 121.464C33.8308 120.634 33.4337 119.804 34.2918 119.2C35.6297 119.443 36.2652 123.769 36.9985 125.058L34.3188 124.845C33.8164 123.433 33.4181 122.716 32.6399 121.464Z" fill="#F07F18"/>
<path d="M28.8815 27.1001C29.3311 27.4204 29.77 27.7313 30.2083 28.0666L28.8086 29.5923C27.6378 31.0451 26.3714 32.5497 25.3258 34.0865C24.9984 33.6791 24.7748 33.2675 24.3601 32.7704C24.962 31.5432 26.8593 29.1739 27.8634 28.1914L28.8815 27.1001Z" fill="#522C02"/>
<path d="M102.236 20.3799C103.476 21.176 104.352 21.8432 105.504 22.7403C105.186 23.3218 105.066 23.6324 104.825 24.2559C103.7 23.3453 102.377 22.4173 101.2 21.5549C101.538 21.2304 101.923 20.7491 102.236 20.3799Z" fill="#A95001"/>
<path d="M25.6839 127.541C24.4786 127.772 24.4541 128.248 22.76 128.114L22.9239 127.721L22.8593 127.745C23.6726 127.011 23.9948 126.878 24.9636 126.38C25.3645 126.851 26.507 126.963 27.229 127.14L25.6839 127.541Z" fill="#A95001"/>
<path d="M59.2381 6.31982C60.8308 6.7555 61.6686 7.11488 62.8223 8.40863L62.4903 8.52168C61.5096 8.38345 59.1425 7.62299 58.9199 6.56523L59.2381 6.31982Z" fill="#FEB367"/>
<path d="M30.8832 121.489C30.3342 120.926 28.7902 119.571 29.6602 118.88C30.5801 118.879 31.3183 119.64 31.6838 120.429C31.2763 120.843 31.124 120.949 30.8832 121.489Z" fill="#F07F18"/>
<path d="M132.167 127.32C132.882 127.711 133.377 127.889 133.823 128.559L133.832 128.875C132.984 129.225 131.184 128.216 130.24 127.951C131.094 127.567 131.389 127.884 132.167 127.32Z" fill="#A95001"/>
<path d="M38.7887 150.56C37.9859 150.273 36.9272 150.071 36.6001 149.231L36.738 148.932C37.6033 148.608 38.2887 148.948 39.1884 149.212C38.887 149.834 38.8781 149.868 38.7887 150.56Z" fill="#823F00"/>
<path d="M42.2792 139.61C41.477 139.336 40.7155 139.248 40.3601 138.441L40.5668 138.204C41.3309 137.994 41.894 138.149 42.6871 138.258C42.5607 138.714 42.4458 139.17 42.2792 139.61Z" fill="#823F00"/>
<path d="M123.36 136.971C124.196 136.804 125.155 136.507 125.896 136.96C125.854 137.82 124.464 138.024 123.762 138.228C123.782 137.734 123.799 137.669 123.706 137.168L123.36 136.971Z" fill="#823F00"/>
<path d="M126.32 147.052C127.069 146.854 127.949 146.485 128.638 146.933C128.717 147.841 127.531 148.015 126.811 148.236C126.739 147.553 126.837 147.444 126.32 147.052Z" fill="#823F00"/>
<path d="M132.574 116.586C131.817 116.441 130.971 116.309 130.88 115.42C131.221 114.966 131.149 115.098 131.745 114.84L132.574 116.586Z" fill="#A95001"/>
<path d="M122.88 138.68L122.94 139.074C122.094 139.788 121.833 140.021 120.852 140.554C120.735 140.53 120.542 140.503 120.44 140.458C121.197 139.519 121.83 139.194 122.88 138.68Z" fill="#FEB367"/>
<path d="M76.6557 75.5261C73.987 74.9746 71.2951 74.087 69.6333 71.739C68.2017 69.7171 68.7685 67.4039 70.8457 66.1347C74.3221 64.0096 86.9137 63.2349 84.9662 70.1775C84.1909 72.9409 81.1978 74.6569 78.5893 75.4147L78.6696 81.9101C79.8187 83.4067 80.2233 83.66 82.0797 84.1486C83.343 83.8817 84.4241 83.1911 85.2534 83.3869L85.5623 83.7512C85.0681 85.2425 82.3422 86.3503 80.8349 85.8176C79.882 85.4805 78.3391 84.2252 77.5345 84.1552C77.3137 84.3415 77.1144 84.5086 76.8997 84.7021C76.2217 85.2269 75.7291 85.5908 74.9229 85.9444C73.6025 86.5349 72.0967 86.5577 70.7577 86.0076C70.16 85.7568 69.726 85.3197 69.4681 84.7316C69.7198 83.7796 70.7762 84.1591 71.4928 84.3665C72.9708 84.7946 73.9607 84.4854 75.2411 83.7264L75.431 83.6122C76.1523 82.8312 76.2789 82.6247 76.8086 81.7281L76.6557 75.5261Z" fill="#522C02"/>
<path d="M74.5307 66.341C76.8427 66.1055 79.4558 65.8221 81.6968 66.5249C82.4396 66.5606 83.0419 67.031 83.1902 67.7597C82.4087 69.3374 71.0728 69.6735 70.5601 68.2608C71.0898 67.109 73.34 66.459 74.5307 66.341Z" fill="#823F00"/>
<path d="M74.502 66.341C76.814 66.1055 79.4271 65.8221 81.6681 66.5249C81.6109 66.8414 81.5939 67.2596 81.2511 67.4414C80.0001 68.105 74.5793 68.2946 73.96 67.0781C74.136 66.5119 73.9893 66.7677 74.502 66.341Z" fill="#A95001"/>
<path d="M37.9953 68.8769C41.5631 68.5958 45.4868 69.884 46.4095 73.7549C46.7699 75.3186 46.4645 76.9618 45.5661 78.2917C44.3145 80.143 42.4719 80.83 40.3926 81.2009C36.7741 81.697 32.3641 80.2228 31.609 76.221C31.3423 74.7285 31.6807 73.191 32.5494 71.9486C33.8989 69.9819 35.7818 69.2778 37.9953 68.8769Z" fill="#FEB367"/>
<path d="M111.128 65.4715C114.478 65.114 118.093 66.6073 118.89 70.1654C119.236 71.7579 118.9 73.4226 117.964 74.7557C116.7 76.5617 115.052 77.1392 113.02 77.5271C109.585 78.0118 105.832 76.3997 105.102 72.7335C104.816 71.2459 105.137 69.7063 105.994 68.4569C107.244 66.6099 109.018 65.8321 111.128 65.4715Z" fill="#FEB367"/>
<path d="M51.9798 54.96C59.4407 55.3115 60.0048 68.0455 52.5753 69.3629C44.3886 69.046 44.2875 56.3441 51.9798 54.96Z" fill="#522C02"/>
<path d="M51.4109 57.4006C51.6156 57.3971 51.8204 57.4062 52.0239 57.4281C53.9856 57.6238 54.2715 60.1599 52.3262 61.4437C49.579 61.396 49.2537 58.8306 51.4109 57.4006Z" fill="#FEFEFE"/>
<path d="M97.3638 53.0836C104.609 52.4583 106.734 64.4834 99.6881 67.0691C92.2966 67.9061 90.4294 55.4138 97.3638 53.0836Z" fill="#522C02"/>
<path d="M97.0261 55.5425C99.5605 55.2525 100.144 57.8379 98.2632 59.3769C95.6624 59.5803 95.0987 57.2018 97.0261 55.5425Z" fill="#FEFEFE"/>
<path d="M54.902 45.4399C56.4522 45.6803 56.7776 46.7606 55.6697 47.905C53.641 50.0002 51.2749 50.8907 48.4252 50.985C47.786 50.9332 47.5817 50.8341 47.28 50.2622C47.541 48.7036 50.1489 49.3275 51.7869 48.2338C53.5091 47.084 53.4637 47.0035 54.902 45.4399Z" fill="#522C02"/>
<path d="M93.6969 44.04C94.6266 44.1766 95.005 44.6184 95.6954 45.1718C97.3401 46.4922 98.7255 46.9993 100.82 47.0896C101.18 47.1051 101.393 47.464 101.57 47.7438C101.499 48.3671 101.536 48.1596 101.107 48.7219C98.6946 49.0008 96.1556 48.2518 94.1988 46.8399C93.1038 46.0495 92.7749 45.1137 93.6969 44.04Z" fill="#522C02"/>
<path d="M49.1371 146.21C56.6044 136.276 64.1933 126.435 71.903 116.688L78.8898 107.701C80.686 105.4 85.418 97.8287 89.157 101.63C91.4211 103.932 94.1176 109.041 95.8968 111.958C104.088 125.33 111.976 138.886 119.549 152.618C122.979 158.834 126.499 165.038 129.563 171.439C130.464 173.319 131.101 175.296 129.56 176.984C128.712 177.913 127.606 178.283 126.345 178.283C122.735 178.17 118.894 177.774 115.294 177.479L93.3424 175.7L56.671 172.738C50.6622 172.249 44.6238 171.693 38.6062 171.265C36.2306 171.096 34.9737 169.688 34.48 167.438C35.0923 165.132 36.4353 163.177 38.0004 161.396L39.8855 158.724C41.4809 156.945 41.9967 156.218 43.2451 154.218C43.8403 153.435 44.3048 152.778 44.8483 151.958C45.2094 151.459 45.926 150.823 46.379 150.247C47.1468 149.269 47.6849 148.326 48.3367 147.273L49.1371 146.21Z" fill="#FEBF02"/>
<path d="M49.1367 146.22C50.2582 149.341 47.295 153.097 44.5816 154.518C44.2859 156.721 43.1064 158.708 41.3146 160.023C40.453 160.656 39.0828 161.29 38 161.406L39.8851 158.734C41.4805 156.955 41.9963 156.228 43.2446 154.228C43.8398 153.445 44.3044 152.789 44.8479 151.968C45.209 151.47 45.9256 150.833 46.3785 150.257C47.1464 149.28 47.6845 148.336 48.3362 147.283L49.1367 146.22Z" fill="#FD901D"/>
<path d="M84.1189 116.734C88.4154 116.377 92.6579 118.877 92.505 123.661C92.4293 126.034 91.7467 128.944 91.305 131.326C90.5204 135.576 89.7066 139.822 88.8649 144.061C88.3737 146.552 88.0448 149.191 87.3946 151.636C87.1428 152.584 86.8448 152.935 86.1482 153.59C84.0092 154.648 80.5544 154.24 80.1761 151.462C79.6046 147.253 79.3946 142.917 79.0811 138.673L78.4123 129.536C78.0108 123.98 76.7815 118.115 84.1189 116.734Z" fill="#32281A"/>
<path d="M81.6989 158.014C85.0116 157.26 88.3074 159.345 89.0471 162.661C89.7869 165.978 87.6911 169.265 84.3707 169.992C81.0703 170.715 77.8054 168.633 77.0687 165.334C76.3321 162.036 78.4016 158.763 81.6989 158.014Z" fill="#32281A"/>
<path d="M51.9233 134.822C57.6342 127.28 63.4338 119.805 69.3226 112.399C71.565 109.538 79.3766 98.7805 82.0083 97.218C84.0052 96.0319 86.6616 95.6748 88.9009 96.2476C90.4114 96.6339 91.8507 97.4344 92.8978 98.5973C95.1172 101.058 98.3187 106.977 100.129 109.982C104.98 117.928 109.719 125.94 114.35 134.016C114.78 134.807 115.315 135.726 115.701 136.524C116.478 138.855 117.026 138.961 118.169 140.906C117.236 144.875 118.328 148.15 122.266 149.811C122.248 153.006 123.4 155.137 126.612 156.181L126.963 156.538C127.111 156.816 128.204 158.896 128.326 159.048C129.865 162.095 134.379 170.059 134.95 172.938C135.265 174.469 135.17 176.056 134.671 177.537C133.984 179.55 132.51 181.199 130.586 182.106C129.279 182.713 127.482 183.005 126.038 182.917C120.747 182.594 115.38 182.135 110.098 181.709L79.111 179.173L51.1953 176.883C47.7261 176.603 37.5274 176.191 34.8328 175.161C32.9067 174.424 31.3215 173.125 30.45 171.225C29.4715 169.091 29.5113 166.574 30.3624 164.407C30.5377 163.954 30.7402 163.513 30.9688 163.085C31.5885 162.14 32.1457 161.357 32.8222 160.45C32.9559 160.407 33.1192 160.344 33.2208 160.348C34.488 160.395 39.2084 158.498 39.9028 158.73L38.0177 161.401C36.4526 163.182 35.1096 165.137 34.4973 167.443C34.991 169.693 36.2478 171.102 38.6234 171.27C44.641 171.698 50.6795 172.254 56.6883 172.744L93.3596 175.706L115.312 177.485C118.912 177.78 122.753 178.175 126.362 178.288C127.624 178.288 128.729 177.919 129.577 176.989C131.119 175.301 130.481 173.324 129.58 171.445C126.516 165.043 122.997 158.839 119.567 152.623C111.993 138.892 104.106 125.335 95.9141 111.963C94.1349 109.046 91.4384 103.938 89.1743 101.635C85.4353 97.8341 80.7033 105.405 78.9071 107.706L71.9203 116.693C64.2106 126.44 56.6217 136.282 49.1544 146.215L48.3539 147.278C48.2631 145.076 48.3121 144.049 47.5712 141.95C49.7856 140.062 50.081 139.571 50.4881 136.782C50.9326 136.141 51.4569 135.457 51.9233 134.822Z" fill="#32281A"/>
<path d="M53.9837 236.06C56.9513 238.494 56.7891 239.136 57.9882 242.635C59.5848 247.294 63.1503 250.477 67.9411 251.586C76.4414 253.521 85.799 251.757 93.3511 247.504C95.6044 246.235 98.721 244.008 99.3449 241.317C99.47 240.781 99.7341 238.908 99.8561 238.615C102.506 238.891 117.935 242.27 114.497 247.157C112.335 250.228 103.064 252.397 99.0746 253.039C74.6422 256.977 48.8277 257.076 24.439 252.735C16.0319 251.246 0.574122 245.986 18.0804 240.299C20.7769 239.424 23.7985 238.747 26.6107 238.34C27.8612 240.363 29.532 242.092 31.5099 243.413C38.1418 247.754 55.1003 248.579 52.4209 236.471C53.0311 236.292 53.3218 236.32 53.9837 236.06Z" fill="#FED397"/>
<path d="M128.326 159.04C129.417 159.13 130.943 159.253 132.006 159.202C133.109 161.063 134.082 162.972 135.085 164.883C137.319 169.131 139.479 173.025 138.197 177.962C136.891 182.995 132.389 186.376 127.195 186.303C124.529 186.266 121.884 185.982 119.229 185.758L107.271 184.788L64.8352 181.316L45.1259 179.715C38.748 179.216 30.6178 179.726 27.1582 173.128C25.9693 170.861 25.6858 168.642 25.9969 166.11C26.337 164.419 26.5171 163.699 27.3112 162.175L28.2223 162.475C29.1044 162.651 30.2442 162.727 30.9679 163.077C30.7393 163.505 30.5369 163.947 30.3616 164.399C29.5105 166.566 29.4706 169.083 30.4491 171.218C31.3206 173.117 32.9058 174.416 34.832 175.153C37.5265 176.183 47.7253 176.595 51.1945 176.875L79.1101 179.165L110.097 181.701C115.379 182.127 120.746 182.586 126.037 182.909C127.481 182.997 129.278 182.705 130.585 182.098C132.509 181.191 133.983 179.542 134.67 177.53C135.169 176.049 135.265 174.461 134.95 172.93C134.378 170.052 129.864 162.087 128.326 159.04Z" fill="#FEBF02"/>
<path d="M27.3158 162.18L28.2269 162.48C27.5802 163.894 26.916 166.026 26.3833 167.067L26.1714 167.132C25.9625 166.71 26.0047 166.588 26.0016 166.115C26.3416 164.424 26.5217 163.704 27.3158 162.18Z" fill="#FED397"/>
<path d="M20.2638 14.3738C23.8768 13.0076 27.0932 12.8093 30.7035 14.4194C33.1783 15.5368 35.2674 17.361 36.7077 19.6628L34.9024 19.9502C35.1213 20.2612 35.4444 20.7505 35.6703 21.0353C35.9718 21.4154 36.3821 22.0518 36.6243 22.3366L35.2359 23.3846C34.8527 23.7409 34.5713 23.9987 34.1593 24.3191C33.3031 25.0509 32.3621 25.8113 31.6173 26.6476L30.2013 28.0734C29.763 27.7381 29.3241 27.4273 28.8745 27.1069L27.8564 28.1982C26.8523 29.1808 24.955 31.55 24.3531 32.7772C24.7678 33.2744 24.9914 33.6859 25.3188 34.0934C24.7055 35.1003 24.0591 36.0867 23.3808 37.051C23.0305 36.4852 22.8884 36.2293 22.2773 36.0469C20.0807 36.3721 18.7466 34.2154 17.077 34.1338C16.1713 33.3114 15.1682 31.4886 14.8084 30.3039C13.6527 26.5 14.213 23.9724 15.9001 20.5738C16.7123 19.1659 17.693 18.2072 18.9492 17.2195C19.7767 16.5536 20.4819 16.2478 21.4351 15.8427C21.0288 15.2314 20.8277 14.8527 20.2638 14.3738Z" fill="#FD901D"/>
<path d="M21.5434 25.6139C23.4701 22.3138 27.7723 22.8406 29.3448 26.2795C29.4518 26.5132 29.0682 26.9114 28.9 27.1007L27.882 28.192C26.8778 29.1745 24.9805 31.5438 24.3786 32.771L24.2254 32.8189C21.8766 31.6278 20.8027 30.4635 20.3601 27.886C20.519 27.8494 20.7405 27.7367 20.8997 27.6664C21.3022 26.9957 21.3743 26.3821 21.5434 25.6139Z" fill="#A95001"/>
<path d="M20.28 14.3738C23.893 13.0076 27.1094 12.8093 30.7197 14.4194C33.1945 15.5368 35.2836 17.361 36.7239 19.6628L34.9186 19.9502C34.0768 18.9161 33.43 18.3079 32.4425 17.4251C29.0173 14.8529 25.423 14.4691 21.4513 15.8427C21.045 15.2314 20.8439 14.8527 20.28 14.3738Z" fill="#502902"/>
<path d="M20.8394 24.4968C23.461 20.0822 28.3035 21.5075 30.8184 25.2357L31.6196 26.653L30.2036 28.0788C29.7653 27.7435 29.3264 27.4326 28.8768 27.1123C29.045 26.9229 29.4286 26.5248 29.3216 26.2911C27.7491 22.8522 23.4468 22.3254 21.5202 25.6255C21.3511 26.3937 21.279 27.0073 20.8765 27.678C20.7173 27.7483 20.4958 27.861 20.3369 27.8976C20.2271 26.3685 20.2206 25.9412 20.8394 24.4968Z" fill="#502902"/>
<path d="M21.4458 15.8412C25.4176 14.4676 29.0119 14.8514 32.437 17.4236C30.5833 18.6102 29.8858 17.2099 28.2935 16.9249C26.9281 16.6805 23.0899 16.4357 21.8807 16.8059L20.7728 17.1541C20.12 17.3541 19.5817 17.5472 18.96 17.2181C19.7875 16.5521 20.4926 16.2463 21.4458 15.8412Z" fill="#FEB367"/>
<path d="M32.7419 23.3883C33.3417 22.8181 33.4067 22.7253 34.1274 22.3599C34.3626 23.2392 34.2841 23.2213 35.2599 23.3724C34.8767 23.7287 34.5953 23.9864 34.1833 24.3069C33.327 25.0386 32.386 25.7991 31.6413 26.6354L30.8401 25.2181C31.4694 24.5625 32.0751 24.0036 32.7419 23.3883Z" fill="#F07F18"/>
<path d="M32.72 23.3883C33.3198 22.8181 33.3848 22.7253 34.1055 22.3599C34.3407 23.2392 34.2622 23.2213 35.238 23.3724C34.8548 23.7287 34.5734 23.9864 34.1614 24.3069C33.5575 24.0246 33.0965 23.9663 32.72 23.3883Z" fill="#A95001"/>
<path d="M24.3559 32.7798C24.7705 33.2769 24.9942 33.6885 25.3216 34.0959C24.7083 35.1029 24.0618 36.0893 23.3835 37.0536C23.0332 36.4877 22.8911 36.2318 22.28 36.0494C22.6352 35.1724 23.6732 33.6389 24.2027 32.8277L24.3559 32.7798Z" fill="#F07F18"/>
<path d="M35.6871 21.04C35.9885 21.4201 36.3989 22.0566 36.641 22.3414L35.2526 23.3894C34.2769 23.2383 34.3553 23.2563 34.1201 22.3769C34.5606 21.9471 35.2026 21.4436 35.6871 21.04Z" fill="#823F00"/>
<path d="M50.2 132.422C55.5459 125.491 60.9443 118.6 66.3958 111.751C68.7572 108.702 71.1525 105.68 73.5819 102.684C80.0097 94.5961 81.6112 91.8035 92.1131 93.7205C92.1672 93.6926 92.2197 93.6646 92.2738 93.6367C96.3031 96.0568 98.751 101.18 101.18 105.16C104.538 110.663 107.852 116.193 111.12 121.75C111.912 123.092 116.356 130.46 116.657 131.412C114.315 131.892 115.298 132.921 114.345 134.006C109.715 125.93 104.975 117.918 100.124 109.972C98.3139 106.967 95.1124 101.048 92.8931 98.5874C91.8459 97.4245 90.4066 96.624 88.8961 96.2378C86.6568 95.6649 84.0004 96.022 82.0035 97.2081C79.3718 98.7706 71.5603 109.528 69.3178 112.389C63.429 119.795 57.6294 127.27 51.9186 134.812C51.2183 134.048 51.3688 132.945 50.2 132.422Z" fill="#FEBF02"/>
<path d="M114.707 13.48C117.445 14.9436 119.206 16.7873 120.14 19.8312C121.057 22.9192 120.716 26.2445 119.192 29.0821C119.088 29.2715 119.065 29.301 118.982 29.4298C117.237 30.1016 116.735 31.8469 114.506 32.4494C113.982 31.8613 112.668 30.1444 112.35 29.4846L112.27 29.4562L111.295 30.8733C110.687 30.3078 109.576 28.9305 108.904 28.2227C107.548 26.7924 106.287 25.602 104.83 24.2749C105.071 23.6514 105.192 23.3408 105.51 22.7594C104.358 21.8622 103.482 21.195 102.242 20.3989C101.723 19.9824 101.11 19.574 100.56 19.1901C101.374 17.6145 101.848 16.7302 103.113 15.5004C105.147 15.9753 106.931 14.4462 108.759 14.1467C110.803 13.8123 112.667 14.4902 114.707 13.48Z" fill="#FD901D"/>
<path d="M105.52 22.7448C108.746 17.2923 115.231 17.6718 115.496 24.2679C115.262 26.2509 114.695 27.6964 113.07 28.9694C112.84 29.1459 112.604 29.3129 112.36 29.4701L112.279 29.4417L111.305 30.8588C110.696 30.2933 109.586 28.916 108.914 28.2082C107.558 26.7779 106.296 25.5875 104.84 24.2604C105.081 23.6369 105.201 23.3263 105.52 22.7448Z" fill="#A95001"/>
<path d="M105.52 22.7448C108.746 17.2923 115.231 17.6718 115.496 24.2679C113.361 23.1893 114.995 21.1856 111.098 20.4316C108.73 21.0445 108.145 21.5618 106.848 23.6772C108.906 25.7194 110.391 27.2383 112.279 29.4417L111.305 30.8588C110.696 30.2933 109.586 28.916 108.914 28.2082C107.558 26.7779 106.296 25.5875 104.84 24.2604C105.081 23.6369 105.201 23.3263 105.52 22.7448Z" fill="#522C02"/>
<path d="M2.23571 127.66C2.57378 129.625 2.73485 131.577 3.12728 133.531C4.3906 139.82 8.13794 145.866 13.5123 149.46C19.7835 153.654 28.5506 157.03 36.0839 154.689C38.0952 154.073 39.2352 153.254 40.1348 151.319C40.7265 151.887 41.3724 152.613 41.1574 153.498C39.6796 159.582 30.6731 158.99 26.1032 158.332C9.84003 155.994 -0.333558 144.269 2.23571 127.66Z" fill="#F07F18"/>
<path d="M145.442 137.52C145.363 146.521 138.847 156.32 128.976 155.151L127.805 154.902C125.592 154.138 121.981 151.29 124.881 149.217C126.807 153.481 133.428 152.527 136.656 150.374C137.204 150.008 138.064 148.734 138.765 148.147C139.105 148.261 139.09 148.272 139.445 148.263C141.374 147.064 143.247 144.24 144.015 142.101C144.559 140.583 144.82 139.035 145.442 137.52Z" fill="#F07F18"/>
<path d="M49.5367 132.802C49.338 132.391 49.1164 131.963 49.4566 131.531C50.3485 130.399 51.2432 129.268 52.1338 128.134L58.9043 119.516C63.2141 113.979 67.5647 108.473 71.9539 102.998C76.045 97.9038 79.6265 91.6908 87.0149 92.0772C89.1307 92.188 90.4311 92.6361 92.2612 93.6525C92.2072 93.6805 92.1547 93.7084 92.1006 93.7364C81.5987 91.8193 79.9971 94.6119 73.5693 102.7C71.14 105.695 68.7446 108.718 66.3832 111.767C60.9318 118.616 55.5333 125.507 50.1874 132.438L49.5367 132.802Z" fill="#FED397"/>
<path d="M66.2 8.25C66.8023 0.342666 74.2108 -0.821347 72.881 7.99487C72.725 7.85371 72.5706 7.71239 72.4162 7.57124C72.0687 6.31718 71.7505 3.49603 70.0949 3.19796C68.1644 3.88105 66.8378 7.91826 66.3636 9.709C66.2571 9.15687 66.237 8.81463 66.2 8.25Z" fill="#FEB367"/>
<path d="M103.12 15.4921C106.226 12.2743 110.714 11.6462 114.714 13.4717C112.674 14.4819 110.81 13.804 108.766 14.1384C106.938 14.4379 105.154 15.967 103.12 15.4921Z" fill="#FEB367"/>
<path d="M117.72 133.418C119.145 128.455 124.945 127.092 129.456 127.86C128.179 128.718 122.756 129.304 120.965 130.504C119.771 131.302 118.631 133.347 117.72 133.418Z" fill="#FEB367"/>
<path d="M46.5145 144.12C46.8135 147.431 45.4154 149.797 42.2348 150.894C41.3343 150.211 40.828 149.907 39.8401 149.342C43.7019 149.268 44.9714 147.161 46.5145 144.12Z" fill="#F07F18"/>
<path d="M123.449 148.317C120.094 147.257 119.257 145.351 119.649 141.96C120.52 144.067 120.838 145.361 123.099 146.334C123.879 146.669 124.971 146.879 125.574 147.158C124.627 147.56 124.306 147.767 123.449 148.317Z" fill="#F07F18"/>
<path d="M28.4273 160.38C29.9303 160.51 31.327 160.502 32.8302 160.437C32.1537 161.344 31.5965 162.127 30.9767 163.072C30.253 162.721 29.1133 162.646 28.2311 162.469L27.3201 162.17C27.578 161.685 28.1204 160.874 28.4273 160.38Z" fill="#FD901D"/>
<path d="M126.96 156.54C127.463 156.631 127.927 156.719 128.426 156.833C129.219 156.903 130.05 156.989 130.843 157.033L132.004 159.212C130.941 159.263 129.416 159.139 128.324 159.05C128.202 158.898 127.108 156.818 126.96 156.54Z" fill="#FD901D"/>
<path d="M48.5103 134.82C48.8876 137.407 48.8201 138.885 46.5584 140.534C45.7615 139.81 45.4784 139.55 44.5601 138.968C47.3882 138.236 48.0212 137.714 48.5103 134.82Z" fill="#F07F18"/>
<path d="M119.622 138.921C117.562 138.036 117.366 136.272 117.522 134.28L117.607 134.393C119.284 136.666 118.468 137.075 121.665 137.508C120.748 138.03 120.442 138.258 119.622 138.921Z" fill="#F07F18"/>
<path d="M75.1599 9.78798C76.6595 8.42103 79.597 7.13424 81.5244 8.1852C80.8804 8.54381 75.7561 10.0596 75.1599 9.78798Z" fill="#FEB367"/>
<path d="M114.36 134.015C115.313 132.929 114.331 131.9 116.672 131.42C115.355 134.121 115.977 134.186 115.711 136.523C115.325 135.724 114.791 134.805 114.36 134.015Z" fill="#FD901D"/>
<path d="M50.2107 132.42C51.3795 132.943 51.2291 134.046 51.9293 134.811C51.4629 135.445 50.9386 136.13 50.4941 136.77C50.4615 135.362 50.3421 133.984 49.5601 132.784L50.2107 132.42Z" fill="#FD901D"/>
<path d="M17.0801 34.1401C18.7497 34.2217 20.0838 36.3784 22.2804 36.0532C21.9213 36.5485 21.6988 36.8771 21.3933 37.4062C19.6863 36.4464 18.3823 35.5994 17.0801 34.1401Z" fill="#F07F18"/>
<path d="M114.506 32.4395C116.735 31.8371 117.237 30.0917 118.982 29.4199C118.543 30.1836 116.448 33.4426 115.05 33.1328C114.865 33.0917 114.602 32.6874 114.48 32.5203L114.506 32.4395Z" fill="#F07F18"/>
<path d="M127.783 154.9L128.954 155.149L129.114 155.555C128.87 155.973 128.637 156.398 128.416 156.829C127.917 156.715 127.454 156.627 126.951 156.535L126.6 156.179C127.167 155.666 127.13 155.254 127.783 154.9Z" fill="#502902"/>
<path d="M51.28 233.74C52.1948 234.494 53.0933 235.269 53.9752 236.061C53.3132 236.321 53.0226 236.293 52.4124 236.472C52.1555 235.675 51.6272 234.542 51.28 233.74Z" fill="#FEFEFE"/>
<path d="M43.2539 154.211C42.341 152.589 43.1851 151.836 44.8571 151.952C44.3136 152.772 43.8491 153.428 43.2539 154.211Z" fill="#32281A"/>
<path d="M22.287 36.04C22.8981 36.2224 23.0402 36.4783 23.3905 37.0442L22.9133 37.9806C22.3408 37.7922 21.9526 37.6351 21.3999 37.3931C21.7054 36.864 21.9279 36.5353 22.287 36.04Z" fill="#823F00"/>
<path d="M9.30665 153.18C15.3856 157.67 19.0117 158.916 26.4498 160.164C23.2433 165.287 23.0609 171.345 27.0257 176.173C31.0325 181.052 37.2779 180.925 43.0294 181.381L56.691 182.507L113.054 187.135C112.589 191.534 111.89 194.902 110.194 199.054C108.347 203.849 105.64 208.267 102.205 212.088C101.928 212.397 100.807 213.628 100.477 213.875C96.5029 218.238 90.9755 221.477 85.7307 224.025C82.6419 216.919 80.6404 211.643 76.9292 204.649C78.4319 204.402 79.6875 204.159 81.133 203.677C81.9114 202.833 83.4852 202.939 84.0612 202.074L83.7106 201.631C82.6033 201.538 82.0581 202.178 80.8581 201.968C79.1222 202.365 77.6211 202.698 75.8605 202.986C74.8597 201.172 73.0605 198.709 71.496 197.352C71.0821 197.849 71.0697 198.141 71.045 198.796C75.7786 204.956 80.3145 215.256 83.1469 222.519C83.4605 223.262 84.7485 226.172 84.6728 226.735L84.4736 226.794C83.7832 227.032 83.8774 226.884 83.496 227.37C83.5516 227.921 83.7632 228.006 84.3052 228.182L85.7353 228.304C89.0774 228.697 92.3902 229.699 94.8288 232.167C96.038 233.463 96.7716 234.47 97.4574 236.138C98.4612 239.508 98.0473 241.438 95.5516 243.943C95.6998 242.443 95.7029 241.637 95.5469 240.122C95.1083 238.481 93.2087 234.671 91.1902 234.908L90.8473 235.197C90.9045 235.897 92.2172 236.62 92.7516 237.568C93.4373 238.783 93.8713 239.877 94.1214 241.253C94.2141 243.092 94.1369 243.489 93.6072 245.262C91.723 246.477 90.6543 247.037 88.5307 247.799C88.9508 246.559 88.9508 246.204 88.9616 244.904C88.6929 242.312 87.6211 239.782 85.3307 238.346C84.8751 238.06 84.6666 238.017 84.1678 238.136C83.8821 239.049 85.8218 240.485 86.3284 241.626C86.7547 242.586 86.8211 242.776 87.1145 243.793C87.3909 245.761 87.2689 246.89 86.4381 248.654C80.6527 250.629 73.1469 251.378 67.2118 249.511C63.1191 248.42 60.2079 244.734 59.1332 240.735C58.0688 236.772 57.4654 236.691 54.4001 234.068C52.6439 232.572 50.9122 231.046 49.2059 229.491C40.2572 221.193 35.1675 214.945 29.7107 204.196C22.9749 201.225 17.2724 196.321 13.325 190.107C6.18294 178.868 6.47283 165.657 9.30665 153.18Z" fill="#FD901D"/>
<path d="M9.30665 153.18C15.3856 157.67 19.0117 158.916 26.4498 160.164C23.2433 165.287 23.0609 171.345 27.0257 176.173C31.0325 181.052 37.2779 180.925 43.0294 181.381L56.691 182.507L113.054 187.135C112.589 191.534 111.89 194.902 110.194 199.054C108.347 203.849 105.64 208.267 102.205 212.088C101.928 212.397 100.807 213.628 100.477 213.875C96.5029 218.238 90.9755 221.477 85.7307 224.025C82.6419 216.919 80.6404 211.643 76.9292 204.649C78.4319 204.402 79.6875 204.159 81.133 203.677C81.9114 202.833 83.4852 202.939 84.0612 202.074L83.7106 201.631C82.6033 201.538 82.0581 202.178 80.8581 201.968C79.1222 202.365 77.6211 202.698 75.8605 202.986C74.8597 201.172 73.0605 198.709 71.496 197.352C71.0821 197.849 71.0697 198.141 71.045 198.796C70.5137 198.352 69.15 196.74 68.6404 196.159C68.1431 196.03 67.4126 195.285 66.9879 194.908C66.2975 194.249 64.7794 193.006 64.7006 192.158C65.8651 190.45 70.6311 193.784 71.7524 194.623C73.096 195.63 74.3593 197.098 75.6442 198.002C83.2566 198.47 95.4404 195.707 100.903 190.023L100.671 189.979C98.8411 189.64 96.1523 189.461 94.2527 189.279L82.7608 188.186C72.4829 187.213 61.9948 186.067 51.7483 185.188C48.3812 184.907 45.0155 184.609 41.6515 184.294C37.2779 183.889 32.7324 183.736 28.9043 181.347C22.6696 177.455 21.3378 171.861 22.2042 165.01C17.5982 164.17 14.8035 162.726 10.9258 160.345C9.10989 170.754 10.7394 180.471 16.8934 189.21C19.891 193.39 23.7094 196.915 28.1151 199.569C29.3581 200.318 30.5588 200.864 31.7477 201.548C32.7256 203.457 33.5338 205.327 34.6736 207.171C39.2839 214.627 45.3988 221.046 51.6362 227.151C54.1863 229.647 56.8918 232.09 59.3852 234.633C60.2382 235.503 60.7522 237.242 61.1094 238.476C62.2249 242.726 64.5678 245.487 68.8937 246.811C73.7771 248.304 80.4674 248.221 85.3462 246.477C86.3547 246.118 87.0326 244.816 87.1145 243.793C87.3909 245.761 87.2689 246.89 86.4381 248.654C80.6527 250.629 73.1469 251.378 67.2118 249.511C63.1191 248.42 60.2079 244.734 59.1332 240.735C58.0688 236.772 57.4654 236.691 54.4001 234.068C52.6439 232.572 50.9122 231.046 49.2059 229.491C40.2572 221.193 35.1675 214.945 29.7107 204.196C22.9749 201.225 17.2724 196.321 13.325 190.107C6.18294 178.868 6.47283 165.657 9.30665 153.18Z" fill="#F07F18"/>
<path d="M100.468 213.872C97.1752 214.55 93.413 218.473 89.4995 216.366C87.5891 216.03 84.7999 208.487 86.2362 207.152C91.3405 202.413 100.014 196.221 106.707 194.003C110.859 192.629 109.946 196.573 110.185 199.051C108.338 203.846 105.631 208.264 102.196 212.085C101.92 212.394 100.798 213.625 100.468 213.872Z" fill="#FD901D"/>
<path d="M80.8401 201.964C82.8571 201.393 84.8463 200.745 86.8633 200.18C87.0486 200.5 87.2401 200.823 87.4192 201.145C85.3976 202.137 83.3034 203.105 81.115 203.674C81.8934 202.829 83.4671 202.935 84.0432 202.071L83.6926 201.627C82.5853 201.535 82.0401 202.174 80.8401 201.964Z" fill="#502902"/>
<path d="M68.6399 196.158L69.0291 195.63C70.0685 195.502 70.8422 196.619 71.4955 197.351C71.0816 197.848 71.0692 198.14 71.0445 198.795C70.5132 198.351 69.1495 196.739 68.6399 196.158Z" fill="#A95001"/>
<path d="M86.8799 200.197C87.5965 199.862 88.2467 199.468 89.0143 199.46L89.3679 199.622C89.3509 200.444 88.1262 200.844 87.4359 201.162C87.2567 200.839 87.0652 200.516 86.8799 200.197Z" fill="#A95001"/>
<path d="M66.9755 194.92C67.4002 195.297 68.1307 196.041 68.628 196.171C69.1377 196.752 70.5014 198.364 71.0326 198.807C75.7662 204.968 80.3021 215.267 83.1346 222.531C82.9523 222.741 83.0172 222.667 82.7207 222.776C82.1014 222.532 80.7361 219.209 80.3624 218.406C76.7423 210.631 72.8519 203.07 67.5655 196.273C67.2087 195.814 66.8844 195.481 66.9755 194.92Z" fill="#FEB367"/>
<path d="M94.1107 241.26C94.2034 243.099 94.1262 243.496 93.5965 245.269C91.7123 246.484 90.6436 247.044 88.52 247.806C88.9401 246.566 88.9401 246.211 88.9509 244.911C90.5818 244.817 93.5779 242.846 94.1107 241.26Z" fill="#F07F18"/>
<path d="M85.7385 228.32C89.0806 228.712 92.3933 229.714 94.8319 232.182C94.5555 232.68 94.7547 232.539 94.3161 232.741C93.5964 232.49 93.0929 231.997 92.4613 231.568C90.1817 230.012 86.415 229.413 83.72 228.666C84.3887 228.531 85.0636 228.429 85.7385 228.32Z" fill="#FEB367"/>
<path d="M97.4705 236.14C98.4743 239.51 98.0604 241.441 95.5647 243.946C95.713 242.446 95.716 241.64 95.5601 240.125C97.0411 238.9 97.0658 237.99 97.4705 236.14Z" fill="#F07F18"/>
<path d="M84.2925 228.188C83.3473 228.398 81.6485 228.659 80.8423 228.06C80.7496 226.798 83.613 226.817 84.4608 226.8C83.7705 227.038 83.8647 226.889 83.4832 227.376C83.5388 227.927 83.7504 228.012 84.2925 228.188Z" fill="#F07F18"/>
<path d="M35.902 219.42C36.3079 218.976 36.2049 218.934 36.6753 218.86C40.7602 223.672 43.9891 227.116 48.7082 231.434C49.2736 231.85 49.4595 231.827 49.627 232.356C49.3355 232.832 49.0901 233.054 48.8311 233.475C51.1303 235.87 52.0699 240.441 49.2415 242.809C48.6651 243.292 47.9641 243.572 47.2823 243.873C48.0699 242.695 48.4625 241.674 48.4694 240.224C48.4733 239.404 48.1742 236.692 47.0282 236.781C45.892 238.698 48.98 240.369 44.6958 244.514C42.2875 244.673 41.3311 244.636 38.9382 244.302C41.1517 242.472 42.1919 239.933 41.6983 237.042C41.5999 236.466 40.9147 235.706 40.269 235.912C40.0509 236.639 40.7297 238.275 40.1592 239.905C39.4078 242.055 38.6381 242.733 36.7474 243.774C35.4012 243.416 34.426 243.093 33.222 242.393C29.8534 240.426 27.4166 237.187 26.4591 233.407C24.8543 227.09 27.4807 221.842 33.962 220.227C34.8515 219.972 35.0958 219.927 35.902 219.42Z" fill="#F07F18"/>
<path d="M48.7351 231.44C49.3005 231.855 49.4864 231.832 49.6539 232.362C49.3624 232.838 49.117 233.06 48.858 233.48C48.379 233.23 47.2914 232.489 46.96 232.041C47.0071 231.292 48.2427 231.656 48.7351 231.44Z" fill="#A95001"/>
<path d="M33.96 220.226C34.8495 219.971 35.0939 219.926 35.9 219.42C35.7666 219.974 35.6386 220.864 35.1266 221.171C34.5908 221.015 34.4304 220.932 34.242 220.35L33.96 220.226Z" fill="#A95001"/>
<path d="M32.8069 232.104C38.9204 231.537 40.1272 241.318 36.3415 241.41C32.3328 239.982 27.6184 235.395 32.8069 232.104Z" fill="#FD901D"/>
</svg>
