<svg width="157" height="256" viewBox="0 0 157 256" fill="none" xmlns="http://www.w3.org/2000/svg">
<path d="M72.9096 8.95499C71.3944 -3.10483 81.7435 -2.93564 83.2923 9.17101L83.4028 8.99632C85.4187 5.8727 87.261 4.44892 90.8177 3.70069C91.5244 3.91142 92.6788 4.44139 93.4024 4.75086C95.0729 8.04409 93.8499 10.0701 92.4608 13.132C99.4686 14.622 108.109 16.9837 113.794 21.6307C115.166 19.1836 116.627 17.4203 119.017 15.8766C122.133 13.8782 125.922 13.2184 129.53 14.046C138.48 16.0637 141.846 26.7415 137.782 34.3858C136.408 36.9721 134.233 38.6974 131.796 40.2169C137.013 49.0389 139.165 55.8194 142.082 65.574C144.472 73.5643 146.922 79.0336 146.745 87.7283C146.582 95.8249 143.937 102.462 138.157 108.179C151.323 118.526 162.297 139.726 151.979 155.552C150.36 158.033 148.522 159.732 146.396 161.736C146.954 165.912 148.298 170.429 148.699 174.574C150.031 188.331 149.581 201.284 141.577 213.105C140.7 214.402 140.018 215.404 139.006 216.599C138.295 217.44 136.316 219.313 135.842 220.054C132.947 224.572 133.309 233.156 133.989 238.213C137.546 238.016 143.544 240.268 147.054 241.328C149.102 241.947 153.514 244.979 150.006 247.221C144.937 250.462 138.914 251.286 133.097 252.325C121.792 254.31 110.445 255.027 99.0224 255.505C85.0889 256.201 71.1285 256.163 57.199 255.391C48.6379 254.984 39.625 254.438 31.0942 253.302C24.2449 252.388 16.7179 251.089 10.2701 248.558C-1.0708 243.193 18.3139 238.857 21.7461 238.5C22.8576 237.953 22.2879 232.769 22.3523 231.517C23.1003 220.814 15.7447 218.102 11.42 210.461C2.99671 195.582 5.39734 177.956 9.61265 162.423C2.14098 157.206 -0.707577 147.789 0.146318 139.058C1.34246 126.823 10.108 115.857 19.1529 108.208C14.5898 104.796 11.2498 97.549 10.47 92.0351C10.1145 89.521 9.86491 85.3055 10.2515 82.7984C12.0015 71.4471 18.8385 49.4292 25.2987 40.3672C18.4708 36.9506 15.5995 30.0673 18.0144 22.7778C19.1543 19.3742 21.6236 16.5769 24.8592 15.0235C31.4896 11.8109 38.9104 14.7059 42.5525 20.7605C42.7875 21.1512 42.6287 21.115 43.054 21.533C44.1911 21.2145 48.1489 18.5612 49.6109 17.8822C54.3513 15.6811 58.5807 14.5397 63.6206 13.4649C57.9676 4.95283 66.8089 3.7349 72.9096 8.95499ZM61.1702 235.055C69.8782 235.184 78.5352 234.899 87.2303 235.06C89.0065 235.092 94.3278 234.984 95.5742 235.204C95.6182 234.149 94.8494 231.348 94.6865 229.815C90.2753 230.075 85.2696 230.741 80.8277 230.788C75.2273 230.851 67.335 230.531 61.8494 229.605C61.3457 231.289 61.0177 233.019 60.8712 234.77L61.1702 235.055Z" fill="#582A02"/>
<path d="M61.1811 235.048C69.889 235.176 78.546 234.891 87.2411 235.052C89.0173 235.085 94.3386 234.977 95.585 235.197C96.6417 247.795 100.294 248.39 112.45 248.968C114.541 249.068 116.852 249.204 118.962 249.044C123.208 248.351 129.401 248.84 132.357 245.255C134.132 243.102 133.994 240.747 134 238.206C137.557 238.008 143.555 240.26 147.065 241.321C149.113 241.94 153.525 244.972 150.017 247.213C144.947 250.454 138.925 251.279 133.108 252.317C121.803 254.302 110.456 255.019 99.0332 255.498C85.0997 256.194 71.1393 256.155 57.2099 255.384C48.6487 254.976 39.6358 254.431 31.105 253.295C24.2557 252.381 16.7287 251.082 10.2809 248.551C-1.05997 243.186 18.3247 238.849 21.757 238.493C21.8626 238.55 21.9683 238.607 22.074 238.664C21.6177 248.034 29.2266 248.225 36.3894 248.97C39.037 249.308 42.1961 249.037 44.8011 249.009C53.9295 248.911 59.9979 247.427 60.5124 237.06C60.5412 236.481 60.6861 235.443 61.1811 235.048Z" fill="#FED8A2"/>
<path d="M41.3806 23.0444L41.1054 23.2869C40.1833 24.1042 39.6018 24.4037 39.5289 25.5882L39.8109 25.8824C40.9523 25.916 46.549 21.9265 48.551 20.9044C54.1752 18.0334 58.6872 16.5343 64.9307 15.3628C67.1284 14.9503 67.0235 16.0373 68.1285 15.6446C68.0045 13.9323 62.217 9.61682 63.9488 8.37934C67.241 6.02655 72.2163 10.8429 74.0674 13.2157C74.3755 13.6104 74.4341 13.528 74.8774 13.5015C75.9173 12.0788 73.5853 3.53693 75.9469 2.48962C81.2523 0.137225 81.2351 11.912 82.2733 13.6951C83.3937 13.6719 85.785 8.49275 87.2554 7.46417C88.6339 6.49971 90.502 4.81839 92.0984 6.50338C93.048 9.59931 88.7117 14.2856 88.6246 15.9858L88.9214 16.1512C89.8093 15.9728 89.9913 15.7429 90.6569 15.1454C96.7641 15.4192 105.059 18.7829 110.403 21.8295C111.843 22.6505 117.208 26.582 118.385 26.2249L118.484 25.8704C118.014 24.6258 116.47 23.471 115.455 22.6291C116.554 20.9095 118.858 18.3036 120.683 17.3791C135.241 10.0069 144.446 30.4835 130.713 38.3724L130.411 38.0896C129.656 37.3868 128.946 36.5062 127.95 36.5417C127.624 37.294 128.487 38.7965 128.901 39.4368C134.76 48.5412 137.79 58.2912 140.819 68.5628C142.09 72.8683 143.635 76.5248 144.126 81.1854C145.72 88.596 144.118 96.313 140.119 102.736C138.519 105.303 134.211 109.282 133.567 110.684L133.736 110.86C134.699 110.666 135.744 109.881 136.603 109.325C137.434 110.119 138.621 111.183 139.297 112.066C145.044 117.689 153.581 128.901 153.512 137.341C157.515 166.132 121.061 171.125 119.502 161.105C120.57 159.932 122.971 159.585 123.543 158.136C122.47 157.081 120.246 158.758 118.322 158.459C116.317 158.006 115.805 157.727 115.082 155.775L115.085 155.604C115.211 150.825 117.277 151.846 119.485 149.539C119.648 148.889 119.67 149.196 119.444 148.586C117.988 148.024 115.765 150.315 114.41 149.991C113.867 149.296 113.718 148.701 113.824 147.814C114.545 141.775 121.543 139.441 126.384 137.638C128.127 137.064 133.075 136.031 134.04 135.087L133.919 134.773C132.828 134.338 132.392 134.25 131.26 134.565C131.68 134.577 131.657 134.568 132.046 134.722C130.31 135.17 130.959 134.33 129.332 135.345L129.11 135.214L129.053 133.746C128.665 135.164 128.84 135.094 127.325 135.356C121.268 136.775 115.982 139.216 112.577 144.581C110.934 142.79 107.598 137.854 106.065 135.714L93.6168 118.354C89.395 112.484 85.6302 105.591 77.2295 106.613C74.622 106.938 72.1728 108.041 70.2001 109.777C67.8571 111.829 63.8213 117.989 61.7324 120.762C55.9323 128.461 50.3219 137.044 44.3953 144.609C44.1616 144.217 43.9179 143.831 43.6642 143.452C40.0935 138.164 33.325 136.386 27.4251 135.271C26.9581 134.362 27.6953 133.741 26.2799 132.167C25.6901 133.156 25.6795 133.362 25.5068 134.479C24.464 135.663 22.867 134.435 22.7122 135.868C23.5934 136.562 24.4793 136.6 25.5237 136.82C31.2952 138.037 41.8227 140.381 42.9966 147.262C43.4376 148.293 42.7103 149.395 42.2685 150.404C40.9315 149.654 39.3227 148.515 37.8392 148.626C37.2795 148.982 37.4791 148.749 37.1981 149.328C38.8159 150.939 40.9504 151.722 41.8428 153.631C42.5776 155.78 41.243 157.989 39.0714 158.424C38.1831 158.603 37.0623 158.453 36.1724 158.307C35.339 157.97 34.9131 157.685 34.0539 157.88L33.7917 158.128C33.8387 158.831 33.8906 158.891 34.4027 159.525C35.8399 159.897 36.5336 160.124 37.9034 160.693C37.236 162.763 36.7705 163.643 34.7521 164.768C30.6092 167.075 19.7649 166.305 15.8243 163.608C12.9741 162.739 9.00289 159.548 7.20613 157.218C-5.25922 141.052 7.27372 120.345 20.685 109.584C21.1372 109.897 21.6047 110.187 22.0858 110.453C22.7259 110.813 23.3096 111.104 24.0214 110.904C23.8831 109.835 21.7016 108.013 20.7573 107.13C3.65271 91.1233 16.8227 64.9568 23.8296 47.2306C24.6421 45.1753 29.2213 38.3195 29.2233 37.0258L28.9167 36.7662C27.657 36.9081 27.2521 37.5259 26.3957 38.4476C20.9827 36.051 17.9028 30.3201 19.669 24.5228C22.969 13.6925 36.3505 12.7317 41.3806 23.0444Z" fill="#FF9B34"/>
<path d="M153.48 137.341C157.483 166.132 121.029 171.125 119.47 161.105C120.538 159.932 122.94 159.586 123.511 158.136C122.438 157.081 120.215 158.758 118.29 158.459C116.285 158.006 115.773 157.727 115.05 155.775L115.053 155.604C115.179 150.825 117.245 151.846 119.453 149.539C119.616 148.889 119.638 149.196 119.412 148.586C117.956 148.024 115.734 150.315 114.379 149.991C113.835 149.296 113.686 148.701 113.792 147.814C114.514 141.775 121.512 139.441 126.353 137.638C127.053 138.158 127.338 138.19 127.621 138.914C124.895 144.539 125.238 144.984 128.47 150.369C129.372 151.871 130.113 158.235 132.418 159.321C143.365 160.129 153.189 147.343 153.48 137.341Z" fill="#EE801C"/>
<path d="M115.08 155.781C116.808 156.467 117.216 156.916 118.32 158.465C116.315 158.012 115.803 157.733 115.08 155.781Z" fill="#DA6C0F"/>
<path d="M144.1 81.1807C145.694 88.5913 144.092 96.3083 140.093 102.731C138.493 105.299 134.185 109.277 133.542 110.679L133.711 110.855C134.674 110.661 135.718 109.877 136.577 109.32C137.408 110.114 138.595 111.178 139.271 112.061C137.388 112.865 128.612 115.619 127.12 113.968C127.265 112.791 131.671 108.604 132.978 107.189C138.522 101.184 144.611 89.4311 144.1 81.1807Z" fill="#EE801C"/>
<path d="M34.3785 159.521C35.8157 159.893 36.5093 160.12 37.8791 160.688C37.2117 162.758 36.7463 163.639 34.7278 164.763C30.585 167.071 19.7407 166.301 15.8 163.603C17.384 163.653 21.611 165.747 23.8345 165.383L23.9634 165.098L23.7481 164.781C24.0692 164.043 23.6476 164.84 23.6441 163.894C24.4316 163.466 26.0836 164.38 27.146 164.492C30.1432 164.81 33.9698 164.485 35.9134 161.853C36.1994 161.466 35.9513 161.243 36.4857 160.576C35.6642 160.315 34.9717 160.187 34.3785 159.521Z" fill="#DA6C0F"/>
<path d="M127.324 135.354C127.049 133.944 128.126 130.763 128.599 129.441C128.957 130.273 129.303 131.109 129.639 131.951C129.242 132.677 129.218 132.926 129.053 133.745C128.664 135.162 128.839 135.092 127.324 135.354Z" fill="#EE801C"/>
<path d="M41.8304 153.641C42.5651 155.79 41.2305 157.998 39.059 158.434C38.1707 158.612 37.0498 158.463 36.1599 158.317C39.0087 158.384 40.4632 155.739 41.8304 153.641Z" fill="#DA6C0F"/>
<path d="M26.28 132.17C26.3071 131.291 26.186 131.549 26.6038 130.861C26.956 130.811 26.8923 130.745 27.0769 130.886C27.7944 131.445 28.2564 132.27 28.3582 133.174C28.4315 133.787 28.3887 134.253 28.1937 134.826L27.4253 135.273C26.9582 134.365 27.6954 133.744 26.28 132.17Z" fill="#EE801C"/>
<path d="M42.9657 147.261C43.4067 148.292 42.6795 149.394 42.2376 150.402C40.9006 149.653 39.2918 148.514 37.8084 148.624C37.2487 148.98 37.4482 148.748 37.1672 149.326L37.0801 148.462L37.3712 148.132C39.4956 147.902 39.7825 149.839 42.6805 148.094C42.7524 147.806 42.8521 147.536 42.9657 147.261Z" fill="#DA6C0F"/>
<path d="M129.626 131.961C130.653 133.178 129.842 133.819 130.742 134.554L131.247 134.574C131.666 134.586 131.644 134.577 132.033 134.731C130.296 135.178 130.946 134.339 129.319 135.354L129.097 135.223L129.04 133.755C129.205 132.936 129.229 132.687 129.626 131.961Z" fill="#461C01"/>
<path d="M75.5302 75.195C75.9146 75.1655 76.2994 75.1427 76.6844 75.1262C78.9085 75.0329 85.1738 75.126 86.5312 76.5976C91.2869 81.7531 83.8299 84.9975 80.0114 86.5432C79.503 86.7493 79.7601 93.3398 79.7758 94.1041C81.0677 94.7621 81.9295 95.7117 83.1146 96.4858C84.2703 97.2406 87.2082 97.1823 87.1017 98.9545C85.5051 101.244 82.8459 99.5062 81.0858 98.3844C78.3492 96.6133 77.3786 97.9059 74.7103 99.2C73.2635 99.9016 70.5524 101.019 70.4257 98.3756C70.8627 97.7736 72.4796 97.2147 73.2315 96.8527C74.8723 96.0629 76.0854 94.9708 77.7203 94.2134L77.6808 86.2942C70.6283 85.2762 64.6608 77.2131 75.5302 75.195Z" fill="#582A02"/>
<path d="M74.48 77.8828C75.8127 76.9748 76.9889 76.5132 78.6248 76.3968C80.1543 76.2878 83.9697 76.7121 84.8876 77.9663L84.9358 78.4989C83.9076 79.4953 78.1741 78.3874 76.2032 78.3707C75.4693 78.2925 75.0627 78.3271 74.48 77.8828Z" fill="#A94D02"/>
<path d="M76.201 78.3871C74.6276 78.3472 72.0643 79.8013 71.6001 78.6053L71.8196 78.1829C72.637 77.6798 73.5714 77.7282 74.4778 77.8993C75.0605 78.3435 75.4671 78.3089 76.201 78.3871Z" fill="#783700"/>
<path d="M119.554 78.2539C125.204 77.8487 128.509 79.7196 130.197 85.1771C128.988 89.1328 127.485 91.1845 123.27 92.0708C111.395 94.1135 107.652 80.4281 119.554 78.2539Z" fill="#FEB464"/>
<path d="M35.0811 78.244C40.7643 77.9956 44.0046 79.6912 45.463 85.3641C44.1345 89.4856 42.5193 91.4293 38.0917 92.1613C26.436 93.5616 23.4725 80.36 35.0811 78.244Z" fill="#FEB464"/>
<path d="M51.7994 62.8027C53.0426 62.7909 54.3279 62.7944 55.412 63.5003C60.1551 66.5885 59.8348 74.7693 55.0274 77.6918C54.4329 78.0532 53.6031 78.2197 52.9178 78.3736C43.9629 78.4355 44.0282 64.4177 51.7994 62.8027Z" fill="#582A02"/>
<path d="M50.8196 65.3604C53.7359 65.3425 53.3931 67.8279 51.7266 69.566C48.6724 69.5463 48.4082 67.057 50.8196 65.3604Z" fill="#FEFFFE"/>
<path d="M103.926 62.7859C112.386 62.4697 114.264 75.6371 105.96 78.346C97.3917 79.0645 95.9723 64.4025 103.926 62.7859Z" fill="#582A02"/>
<path d="M102.791 65.5243C103.849 65.2525 104.93 65.873 105.228 66.9232C105.527 67.9734 104.934 69.07 103.891 69.3947C103.193 69.6124 102.432 69.4342 101.903 68.9295C101.374 68.425 101.161 67.6731 101.345 66.9656C101.53 66.2583 102.083 65.7065 102.791 65.5243Z" fill="#FEFFFE"/>
<path d="M28.4218 33.7843C25.5158 31.8475 24.2193 27.7818 26.3023 24.7893C27.0994 23.6351 28.3393 22.8628 29.7266 22.6566C33.5789 22.1064 35.858 25.6847 37.3583 28.6259C35.4547 30.1853 31.0205 35.2341 30.4417 35.5984C29.803 35.3136 30.0062 35.4123 29.5572 34.7431C29.2832 34.4073 28.7829 34.063 28.4218 33.7843Z" fill="#A94D02"/>
<path d="M28.4218 33.7843C25.5158 31.8475 24.2193 27.7818 26.3023 24.7893C27.0994 23.6351 28.3393 22.8628 29.7266 22.6566C33.5789 22.1064 35.858 25.6847 37.3583 28.6259C35.4547 30.1853 31.0205 35.2341 30.4417 35.5984C29.803 35.3136 30.0062 35.4123 29.5572 34.7431C30.3262 33.5141 34.8227 28.3486 34.7317 27.8272C34.2514 25.07 29.4102 23.1929 27.1961 25.9592C24.2911 29.5889 28.4069 31.7019 28.4218 33.7843Z" fill="#582A02"/>
<path d="M119.52 28.1373C121.335 25.3303 123.776 21.3452 128.188 22.816C129.805 23.3548 130.686 24.7054 131.387 26.1958C131.543 27.4064 131.678 28.6111 131.23 29.7732C130.12 32.2616 129.497 32.7991 127.274 34.4422C126.869 34.7948 126.897 34.7747 126.388 34.9495C125.252 34.2874 121.094 29.5303 119.52 28.1373Z" fill="#A94D02"/>
<path d="M119.52 28.1373C121.335 25.3303 123.776 21.3452 128.188 22.816C129.805 23.3548 130.686 24.7054 131.387 26.1958C131.543 27.4064 131.678 28.6111 131.23 29.7732C130.762 29.0655 130.821 28.8786 130.782 27.9891C128.675 22.8323 124.695 23.5476 121.929 27.7179C123.537 29.5945 126.517 32.3689 127.274 34.4422C126.869 34.7948 126.897 34.7747 126.388 34.9495C125.252 34.2874 121.094 29.5303 119.52 28.1373Z" fill="#582A02"/>
<path d="M131.365 26.2002C131.521 27.4108 131.656 28.6155 131.208 29.7776C130.74 29.0699 130.799 28.883 130.76 27.9935C131.405 27.3998 131.279 27.07 131.365 26.2002Z" fill="#783700"/>
<path d="M59.0423 50.2002C63.2097 53.2733 54.4464 57.4475 52.1175 57.6078C50.9637 57.6872 49.5658 57.6401 48.4168 57.6306C47.8014 57.4359 47.4728 57.0194 47.3201 56.4181C47.4512 56.1567 47.5727 55.7978 47.9121 55.7532C53.3246 55.0432 55.2704 54.2111 59.0423 50.2002Z" fill="#582A02"/>
<path d="M98.0632 50.4004C98.6785 50.4153 102.485 53.7374 103.915 54.463C105.756 55.3965 109.305 54.9944 109.968 56.2172C109.886 56.9284 109.753 57.0194 109.313 57.6251C106.341 57.6994 104.051 57.5292 101.336 56.1572C98.9829 54.968 96.5643 53.3121 98.0632 50.4004Z" fill="#582A02"/>
<path d="M44.9914 147.423C49.3388 140.774 55.03 133.755 59.6411 127.152C63.2098 122.36 66.535 117.365 70.2739 112.705C72.9866 109.324 77.2392 107.851 81.3757 109.013C82.6537 109.443 84.3548 110.009 85.3062 111.017C88.1877 114.071 90.7081 117.974 93.1993 121.371L111.898 147.34C111.865 147.729 111.783 148.461 111.789 148.821C112.101 151.333 113.999 152.593 112.914 154.3C113.136 155.262 113.742 158.087 114.353 158.378C118.318 160.276 117.781 164.069 121.535 166.618C122.486 166.522 124.761 167.361 125.952 167.662L127.365 169.792C129.979 172.863 135.183 180.424 135.578 184.35C135.9 187.406 134.973 190.464 133.008 192.828C131.164 195.049 128.328 196.602 125.49 196.663C120.26 196.775 114.755 196.682 109.525 196.667L78.0064 196.665L46.5587 196.678C41.3724 196.68 35.9849 196.792 30.9734 196.572C25.4285 196.419 21.5357 191.388 21.2867 186.117C21.0636 181.389 26.4665 173.349 29.6202 169.856C29.9719 169.435 30.4721 168.583 30.7822 168.09C31.9991 167.83 33.8156 167.142 34.9645 167.224C37.9499 164.809 38.9174 164.154 40.059 160.503C41.8969 159.147 43.3752 158.228 43.579 155.852C43.6336 155.215 43.7494 154.48 44.0438 153.917C43.9147 153.832 43.7213 153.632 43.6006 153.517C43.2775 151.995 44.5542 150.936 44.9081 149.209C45.0333 148.638 44.9952 148.013 44.9914 147.423Z" fill="#24201C"/>
<path d="M123.949 169.951C125.447 169.277 125.726 169.476 127.365 169.8C129.979 172.871 135.183 180.432 135.578 184.358C135.9 187.414 134.973 190.472 133.008 192.835C131.164 195.057 128.328 196.61 125.49 196.671C120.26 196.783 114.755 196.69 109.525 196.675L78.0064 196.673L46.5587 196.685C41.3724 196.688 35.9849 196.799 30.9734 196.58C25.4285 196.427 21.5357 191.396 21.2867 186.125C21.0636 181.397 26.4665 173.357 29.6202 169.864C31.2179 170.202 31.1128 169.539 32.7606 170.294C30.2441 174.009 26.0045 179.437 24.7072 183.629C23.3398 188.045 26.8399 193.112 31.4205 193.597C34.764 193.949 39.2142 193.794 42.8179 193.794L66.5727 193.798L104.522 193.805C111.094 193.807 117.873 193.892 124.444 193.695C125.852 193.652 127.835 192.901 129.014 192.078C130.763 190.84 131.954 188.961 132.326 186.85C133.243 181.684 127.08 174.486 123.949 169.951Z" fill="#FEC002"/>
<path d="M44.9632 147.423C49.3106 140.774 55.0018 133.755 59.6129 127.152C63.1816 122.36 66.5068 117.365 70.2457 112.705C72.9584 109.324 77.211 107.851 81.3475 109.013C82.6255 109.443 84.3266 110.009 85.278 111.017C88.1595 114.071 90.6799 117.974 93.1711 121.371L111.87 147.34C111.837 147.729 111.755 148.461 111.761 148.821C111.586 150.049 111.776 150.137 110.699 150.87L93.1343 126.418C91.262 123.809 85.8102 115.947 83.9033 114.123C82.7607 113.029 81.3117 112.309 79.7497 112.06C77.5657 111.715 75.491 112.329 73.7337 113.64C70.6916 115.908 63.147 127.369 60.4562 131.099C55.6596 137.75 50.6772 144.317 46.0887 151.111C45.9926 151.049 45.8975 150.985 45.8036 150.919C44.9509 150.32 45.043 150.127 44.8799 149.209C45.0051 148.638 44.967 148.013 44.9632 147.423Z" fill="#FEC002"/>
<path d="M44.96 147.423C49.3074 140.774 54.9986 133.755 59.6097 127.152C63.1784 122.36 66.5036 117.365 70.2425 112.705C72.9552 109.324 77.2078 107.851 81.3443 109.013C77.9672 110.879 74.5987 108.507 70.8111 113.321C63.4718 122.65 56.9422 132.535 49.7211 141.948C48.356 143.727 47.3435 145.865 45.4738 147.082L44.96 147.423Z" fill="#FECC3C"/>
<path d="M121.52 166.629C122.471 166.533 124.746 167.372 125.936 167.673L127.349 169.803C125.71 169.479 125.432 169.28 123.933 169.954C123.113 168.703 122.523 167.755 121.52 166.629Z" fill="#FD9323"/>
<path d="M30.762 168.094C31.979 167.833 33.7955 167.146 34.9444 167.228C34.2481 168.246 33.5269 169.351 32.7404 170.29C31.0927 169.534 31.1977 170.198 29.6001 169.859C29.9517 169.438 30.452 168.586 30.762 168.094Z" fill="#FD9323"/>
<path d="M44.8794 149.221C45.0425 150.138 44.9505 150.332 45.8032 150.931C45.897 150.996 45.9921 151.061 46.0882 151.123C45.3772 152.156 44.8125 152.965 44.0152 153.928C43.8861 153.844 43.6927 153.643 43.5719 153.529C43.2488 152.007 44.5256 150.948 44.8794 149.221Z" fill="#FD9323"/>
<path d="M111.781 148.821C112.094 151.333 113.992 152.593 112.906 154.299C112.283 153.194 111.424 151.948 110.72 150.87C111.797 150.137 111.606 150.049 111.781 148.821Z" fill="#FEB464"/>
<path d="M78.2964 116.261C79.0756 116.326 79.811 116.62 80.4745 117.032C82.8283 118.494 122.853 175.426 126.847 182.23C127.395 183.162 127.59 184.26 127.828 185.3C127.427 187.086 127.15 187.367 125.908 188.676C123.206 189.26 113.617 189.012 110.183 189.01L78.2785 189.014L45.6723 189.004C42.1472 188.998 33.9656 189.321 31.0382 188.717C29.8647 187.768 28.162 186.021 28.9701 184.429C31.3062 179.829 34.7026 175.328 37.634 171.086C44.9797 160.413 52.4357 149.816 60.0008 139.297L70.0857 125.285C71.8087 122.906 73.5554 120.449 75.3558 118.126C76.0731 117.201 77.232 116.753 78.2964 116.261Z" fill="#FEC002"/>
<path d="M77.7251 131.796C78.7631 131.696 79.8108 131.809 80.8027 132.131C82.5716 132.705 84.0206 133.992 84.7998 135.68C86.1806 138.702 81.9657 162.133 81.4449 166.483C81.3663 167.14 79.8027 167.75 79.1772 167.967C76.7927 168.069 75.4462 167.319 75.1077 164.791C73.9072 155.829 72.0924 146.6 71.8028 137.563C71.6949 134.198 74.73 132.373 77.7251 131.796Z" fill="#24201C"/>
<path d="M77.919 171.887C79.5596 171.735 81.1896 172.271 82.4202 173.366C83.6509 174.462 84.3719 176.019 84.4112 177.667C84.4853 180.78 82.1435 183.425 79.0431 183.726C75.7688 184.046 72.8579 181.645 72.547 178.369C72.2362 175.095 74.6433 172.19 77.919 171.887Z" fill="#24201C"/>
<path d="M144.549 162.801C144.646 164.807 145.709 168.951 146.043 171.371C146.583 174.161 147.118 177.084 146.982 179.943C148.185 193.272 145.585 205.156 136.94 215.668C134.481 218.659 131.565 220.742 129.006 223.499C129.444 223.731 129.484 223.875 129.826 223.727C130.761 223.324 131.909 222.556 132.811 222.035C131.378 228.122 131.445 229.149 131.455 235.307C132.644 240.691 132.101 245.945 125.238 246.178C124.56 245.428 125.313 243.594 125.451 242.637C125.673 241.104 124.517 237.358 122.888 236.948L122.313 237.111C122.015 238.15 124.868 244.559 121.865 246.247C120.014 247.287 116.336 246.976 114.249 246.799C114.507 244.907 115.389 236.952 111.696 237.926C110.834 239.402 114.906 245.512 110.952 246.52C109.262 246.951 107.126 246.52 105.406 246.233C98.4256 245.697 98.4075 240.915 97.6837 235.448C97.408 233.373 97.0969 231.303 96.7502 229.238C99.2508 228.829 100.745 228.794 102.725 227.253C102.565 226.681 102.701 226.946 102.209 226.489C99.8984 226.805 97.5361 227.147 95.2531 227.536C86.0617 229.106 76.7053 229.165 67.4338 228.302C63.3465 227.921 58.7965 226.724 54.6966 226.667L54.4781 226.665C55.1252 228.601 57.9467 228.764 59.7968 229.234L59.7039 229.503C57.5594 235.835 60.5187 244.514 51.5374 246.224C37.1708 249.136 46.4468 239.365 44.0854 237.73L43.5107 237.863C41.0927 239.752 41.1387 244.264 42.1865 246.87C38.9372 247.077 37.4697 246.961 34.2565 246.526C30.7739 241.468 35.0835 238.29 33.5435 237.026L32.9691 237.113C29.3172 239.589 31.6146 244.862 30.9109 246.076C29.8594 246.314 28.5647 245.734 27.5947 245.327C23.8235 243.92 23.5879 239.186 24.5703 235.892L24.5202 235.513C24.6721 230.38 24.1741 226.952 22.562 222.104L22.7244 222.196C23.8644 222.837 24.8329 223.629 26.0144 223.297C21.6667 218.4 16.5371 215.611 13.217 209.2C5.44763 194.199 7.23156 179.136 11.4662 163.783C16.1586 166.962 22.4074 168.048 27.9573 168.253C27.2048 169.885 25.6288 172.023 24.5709 173.553C20.9252 178.841 17.327 184.316 20.2723 190.929C21.7736 194.007 24.9489 197.682 28.1019 198.171C34.8738 199.221 46.0766 198.792 52.9163 198.788L86.7606 198.775L111.029 198.782C115.629 198.784 120.205 198.812 124.803 198.714C129.731 198.611 132.266 196.965 135.417 193.227C139.831 185.344 136.954 180.156 132.522 173.554C131.27 171.831 129.979 169.858 128.768 168.086C134.245 167.753 140.078 166.019 144.549 162.801Z" fill="#FD9323"/>
<path d="M11.4662 163.781C16.1586 166.961 22.4074 168.046 27.9573 168.252C27.2048 169.883 25.6288 172.022 24.5709 173.552C23.1548 172.581 21.5134 173.508 20.1055 173.241C17.7644 172.798 14.5835 171.708 12.3859 170.787C5.65611 193.635 18.9027 213.73 40.6369 220.408C41.1328 220.561 41.2984 220.592 41.7933 220.492C42.1993 219.425 41.323 219.37 41.9281 218.853C43.052 219.054 46.1911 220.339 47.4982 220.814C49.546 221.54 51.6318 222.157 53.7466 222.658C72.6086 227.26 93.7237 226.907 111.701 219.274C114.349 218.148 116.866 216.404 119.677 215.709C119.184 216.44 117.379 218.743 117.285 219.252C117.609 219.486 117.694 219.496 118.126 219.37C135.214 214.386 145.624 196.622 146.982 179.941C148.185 193.271 145.585 205.155 136.94 215.667C134.481 218.657 131.565 220.74 129.006 223.497C129.444 223.729 129.484 223.874 129.826 223.725C130.761 223.322 131.909 222.554 132.811 222.033C131.378 228.121 131.445 229.147 131.455 235.306C132.644 240.689 132.101 245.944 125.238 246.176C124.56 245.427 125.313 243.592 125.451 242.635C125.673 241.102 124.517 237.356 122.888 236.947L122.313 237.11C122.015 238.148 124.868 244.557 121.865 246.245C120.014 247.286 116.336 246.974 114.249 246.797C114.507 244.906 115.389 236.951 111.696 237.924C110.834 239.4 114.906 245.51 110.952 246.518C109.262 246.95 107.126 246.518 105.406 246.231C98.4256 245.696 98.4075 240.913 97.6837 235.446C97.408 233.372 97.0969 231.301 96.7502 229.237C99.2508 228.827 100.745 228.793 102.725 227.251C102.565 226.679 102.701 226.944 102.209 226.488C99.8984 226.803 97.5361 227.146 95.2531 227.534C86.0617 229.104 76.7053 229.163 67.4338 228.3C63.3465 227.919 58.7965 226.722 54.6966 226.665L54.4781 226.663C55.1252 228.599 57.9467 228.762 59.7968 229.232L59.7039 229.501C57.5594 235.833 60.5187 244.513 51.5374 246.223C37.1708 249.134 46.4468 239.364 44.0854 237.729L43.5107 237.861C41.0927 239.75 41.1387 244.262 42.1865 246.868C38.9372 247.076 37.4697 246.96 34.2565 246.524C30.7739 241.467 35.0835 238.289 33.5435 237.024L32.9691 237.112C29.3172 239.588 31.6146 244.861 30.9109 246.074C29.8594 246.312 28.5647 245.732 27.5947 245.325C23.8235 243.918 23.5879 239.184 24.5703 235.89L24.5202 235.511C24.6721 230.379 24.1741 226.95 22.562 222.102L22.7244 222.194C23.8644 222.835 24.8329 223.627 26.0144 223.295C21.6667 218.399 16.5371 215.61 13.217 209.198C5.44763 194.197 7.23156 179.135 11.4662 163.781Z" fill="#EE801C"/>
<path d="M50.24 225.841C51.5648 225.998 53.1313 226.422 54.4917 226.668C55.1388 228.604 57.9603 228.767 59.8104 229.237L59.7175 229.506C57.573 235.838 60.5323 244.518 51.551 246.228C51.78 245.187 52.5962 245.018 53.2681 244.314C57.0435 240.36 56.993 236.312 53.2598 232.542C53.3076 231.446 53.6706 229.61 53.861 228.472C52.3706 227.698 51.5064 226.931 50.24 225.841Z" fill="#DA6C0F"/>
<path d="M96.76 229.246C99.2606 228.837 100.754 228.802 102.735 227.261L102.77 228.562C102.539 229.607 102.798 231.582 102.893 232.72C101.451 235.387 100.131 237.771 100.973 240.933C101.724 243.751 104.393 244.74 105.416 246.241C98.4354 245.705 98.4173 240.923 97.6935 235.456C97.4178 233.381 97.1067 231.311 96.76 229.246Z" fill="#DA6C0F"/>
<path d="M22.5601 222.102L22.7225 222.193C23.8625 222.835 24.831 223.627 26.0125 223.295C27.6578 223.838 28.1346 224.186 29.4724 225.304C28.9109 225.774 28.0212 226.481 27.5265 226.972C27.9489 230.671 27.512 231.771 25.1364 234.765C24.9357 235.018 24.7296 235.266 24.5183 235.511C24.6702 230.378 24.1722 226.949 22.5601 222.102Z" fill="#DA6C0F"/>
<path d="M129.022 223.505C129.46 223.738 129.5 223.882 129.842 223.733C130.777 223.33 131.925 222.563 132.827 222.042C131.394 228.129 131.461 229.155 131.471 235.314C130.97 233.828 128.112 231.704 128.649 229.575C128.881 228.658 129.181 227.999 129.189 227.03C128.462 226.209 126.766 226.606 126.32 225.44C126.666 224.764 128.266 223.746 129.022 223.505Z" fill="#DA6C0F"/>
<path d="M24.5735 235.901C24.648 238.074 24.6566 240.537 25.9836 242.437C26.8581 243.687 27.5355 243.695 27.598 245.336C23.8267 243.929 23.5911 239.196 24.5735 235.901Z" fill="#DA6C0F"/>
<path d="M103.48 226.35C104.245 225.802 105.963 225.731 106.927 225.662C105.849 226.753 105.39 227.056 104.076 227.856C103.867 227.372 103.672 226.847 103.48 226.35Z" fill="#DA6C0F"/>
<path d="M102.2 226.492C102.334 226.419 103.234 226.364 103.476 226.341C103.668 226.838 103.863 227.363 104.072 227.848C103.575 228.267 103.368 228.31 102.751 228.556L102.716 227.255C102.556 226.683 102.692 226.948 102.2 226.492Z" fill="#DA6C0F"/>
<path d="M20.283 190.941C21.7843 194.02 24.9597 197.695 28.1126 198.183C34.8845 199.234 46.0873 198.804 52.927 198.8L86.7713 198.788L111.04 198.794C115.64 198.796 120.215 198.825 124.814 198.727C129.741 198.623 132.276 196.978 135.428 193.24C135.422 195.522 133.616 197.284 131.983 198.735C130.073 200.431 127.972 201.046 125.439 201.219C119.319 201.636 113.134 201.535 106.993 201.518L80.3765 201.584C71.7455 201.592 62.9343 201.402 54.3551 201.484C49.5982 201.537 44.8409 201.545 40.0838 201.504C32.8074 201.465 25.136 202.473 21.187 194.944C20.4149 193.472 20.1211 192.607 20.283 190.941Z" fill="#EE801C"/>
<path d="M144.541 162.801C144.639 164.807 145.701 168.951 146.035 171.371C145.545 171.195 143.647 170.377 143.468 170.449C141.632 171.186 133.306 172.522 132.514 173.554C131.262 171.831 129.971 169.858 128.76 168.086C134.237 167.753 140.07 166.019 144.541 162.801Z" fill="#EE801C"/>
</svg>
