<svg width="151" height="239" viewBox="0 0 151 239" fill="none" xmlns="http://www.w3.org/2000/svg">
<path d="M71.2705 7.39465C71.2325 4.17866 72.1329 -1.99469 77.3149 0.636317C79.6245 1.80893 80.6158 5.28089 81.1827 7.68839C86.3332 1.22598 94.0123 3.6828 89.0943 11.9234C97.8484 13.743 103.159 15.7417 110.957 20.3299C115.868 10.9971 128.123 9.46019 134.053 18.5528C136.13 21.7615 136.847 25.6636 136.044 29.4006C135.128 33.6012 132.55 36.5789 128.999 38.8342C131.612 43.8298 133.374 47.7079 135.173 53.088C136.533 56.479 137.178 60.8632 138.514 64.1566C144.696 79.3808 145.425 92.646 134.2 106.036C136.452 108.148 138.317 110.055 140.322 112.405C150.521 124.362 155.432 143.132 143.678 155.884C148.396 173.778 147.81 193.919 133.394 207.127C132.792 207.678 132.227 208.172 131.577 208.673C131.097 211.265 130.288 214.816 130.574 217.372C130.68 218.321 131.17 220.333 131.381 221.419C135.22 221.894 143.602 223.878 146.495 226.82C147.625 227.97 146.703 229.787 145.381 230.55C139.567 233.906 132.409 234.747 125.884 235.88C117.446 237.19 108.896 237.798 100.447 238.287C84.0732 239.25 67.6569 239.237 51.2847 238.251C41.1691 237.656 30.8573 236.756 20.8824 234.959C17.0472 234.268 11.1943 232.946 7.80585 231.221C-1.96338 226.25 17.1064 221.585 20.0488 221.605C20.2203 220.269 20.6862 218.702 20.8187 217.43C21.0973 214.753 20.2913 210.915 19.7062 208.262C16.697 205.654 14.1052 202.601 12.0206 199.208C4.31033 186.697 4.82086 172.8 8.11005 158.971C7.37882 158.331 6.68646 157.649 6.0364 156.926C1.7238 152.121 -0.364205 144.771 0.0520548 138.392C0.893471 125.5 8.38022 114.553 17.7134 106.184C9.39613 96.2839 6.81008 83.9161 10.4993 71.5362C12.6129 64.4435 14.9355 57.1202 17.3861 50.1408C18.6463 46.5517 20.5783 42.8902 22.3633 39.5239C19.7129 38.0484 17.7343 36.3857 16.2046 33.725C14.3276 30.4984 13.8375 26.6492 14.8458 23.0552C15.8465 19.4504 18.2316 16.2565 21.5093 14.4211C24.5496 12.6884 28.1586 12.2498 31.5253 13.2037C35.6308 14.3885 38.3662 17.2747 40.36 20.9023C47.6014 16.2721 54.7326 13.7772 63.0686 12.0885C57.3655 4.61069 65.038 1.90133 71.2705 7.39465Z" fill="#542A01"/>
<path d="M63.4741 218.072C68.9529 218.526 73.6905 218.895 79.208 218.701C81.0946 218.64 82.979 218.525 84.859 218.356C85.6339 218.288 87.3016 218.075 88.0108 218.072L88.1412 218.274C89.8402 218.459 94.7397 218.54 95.9772 218.807L96.0106 219.027C96.5232 222.525 95.6506 226.863 99.2205 229.553C103.525 232.797 110.184 231.963 115.328 232.336C117.936 232.525 121.304 231.398 124.014 231.42C129.753 230.519 131.604 226.923 131.382 221.419C135.222 221.893 143.603 223.877 146.497 226.819C147.627 227.969 146.705 229.786 145.383 230.549C139.569 233.905 132.411 234.746 125.885 235.879C117.448 237.189 108.897 237.797 100.449 238.286C84.0749 239.249 67.6586 239.236 51.2863 238.25C41.1707 237.655 30.859 236.755 20.884 234.958C17.0489 234.267 11.196 232.945 7.80751 231.22C-1.96173 226.249 17.108 221.584 20.0504 221.604C19.5639 231.103 25.9723 231.283 33.2837 232.254C36.2004 232.642 37.587 232.313 40.3883 232.307C44.9087 232.297 49.3644 232.431 53.2705 229.639C56.7656 227.14 56.1681 222.496 56.7124 218.665C58.9213 218.629 61.128 218.503 63.3263 218.285L63.4741 218.072Z" fill="#FFDCA8"/>
<path d="M88.0078 218.072C90.5129 217.749 93.0056 217.339 95.4813 216.838C95.6449 217.479 95.8331 218.166 95.9742 218.808C94.7367 218.541 89.8372 218.46 88.1381 218.274L88.0078 218.072Z" fill="#ECECEC"/>
<path d="M57.1517 217.1C59.2477 217.491 61.3558 217.816 63.4727 218.074L63.3249 218.286C61.1265 218.504 58.9199 218.631 56.7109 218.667L57.1517 217.1Z" fill="#ECECEC"/>
<path d="M74.3602 2.20228C76.8654 1.41845 78.109 3.96128 78.7601 5.94206C78.9777 6.63677 79.0848 7.06426 79.2407 7.75818C79.5171 8.98808 79.2164 11.0948 79.9991 12.0057C80.7771 12.0862 81.6986 9.91425 82.3493 9.13417C83.6479 7.46367 86.1934 5.15215 88.4829 6.17508C90.3513 9.55917 85.0484 12.6734 85.0204 14.3487C85.8032 14.8301 86.9132 14.0853 87.5576 13.613C90.1323 14.1472 96.0438 15.3403 98.3164 16.4864C100.187 16.9943 103.595 18.5074 105.325 19.452C106.24 19.8812 109.531 21.58 110.291 22.1935C111.524 22.9213 112.659 23.7041 113.844 24.5055C114.423 24.1142 114.601 23.8673 115.044 23.3483C114.396 22.6368 113.401 21.975 112.606 21.3996C113.35 19.9149 114.084 18.8475 115.296 17.7283C116.735 16.4096 117.971 15.6216 119.853 15.0442C121.578 14.2718 124.231 14.3665 126.037 14.8571C127.623 15.3495 128.188 15.6362 129.539 16.5977C129.926 16.9129 130.452 17.315 130.788 17.6651C131.535 18.4461 131.916 18.8336 132.441 19.7812C134.184 22.5171 134.76 25.8367 134.042 29.0006C133.226 32.6158 131.167 35.1675 128.067 37.0963L127.807 37.2579C127.295 37.5763 126.869 37.801 126.443 38.2299C128.161 41.3903 129.912 44.5528 131.173 47.9336C133.468 53.607 134.69 58.4476 136.444 64.2185C137.836 68.7998 140.838 75.4055 140.758 80.3232C141.848 87.8534 139.001 96.4751 134.492 102.513C133.274 104.125 131.938 105.641 130.491 107.05L131.554 108.407L132.704 107.39C134.117 108.688 135.476 110.043 136.78 111.45C142.651 117.77 148.576 127.949 148.414 136.81C148.604 138.684 148.361 140.81 148.08 142.675C146.659 152.154 138.767 159.916 129.069 160.808L128.852 160.827C126.09 161.643 118.342 160.12 117.552 156.519C117.471 156.149 117.499 155.488 117.712 155.155L118.364 155.14C119.567 154.768 120.955 154.287 121.681 153.165L121.623 152.894C120.624 152.389 117.986 153.441 116.449 153.679L116.054 153.519C113.168 152.375 111.946 148.932 114.281 146.543C115.1 145.703 117.936 144.994 117.655 143.76C116.49 143.043 115.336 143.855 114.301 144.409C113.883 144.745 113.716 144.876 113.248 145.132C111.727 145.129 111.664 143.568 111.583 142.347C112.214 139.572 113.041 138.528 115.116 136.613L116.438 135.603C120.056 133.403 122.555 132.543 126.666 131.486C127.672 131.256 131.599 130.873 131.704 129.877C130.786 129.04 127.758 129.321 126.578 129.529C125.937 129.689 125.295 129.844 124.652 129.994L123.668 130.268C121.231 130.871 116.93 132.728 114.993 134.306L114.023 135.024C112.624 136.238 112.038 136.896 110.994 138.424L95.1142 115.367C92.8618 112.118 87.8698 104.614 85.3293 102.007C84.5683 101.347 84.0855 100.883 83.2043 100.401C80.9426 98.6538 77.1191 98.0534 74.3307 98.4053C71.7536 98.7417 69.3154 99.7679 67.2734 101.375C66.751 101.849 65.6256 102.82 65.2933 103.364C64.1232 104.654 62.399 107.208 61.3475 108.692L54.717 118.123L45.357 131.464C43.7077 133.819 41.7654 136.468 40.2373 138.865C37.2868 134.362 32.5746 132.333 27.4748 131.269C26.8277 131.133 26.1773 131.015 25.5243 130.912L25.4327 130.929C24.7398 130.969 24.0069 130.858 23.3136 130.78C21.9765 130.763 21.2048 130.748 19.9048 131.058C19.2414 131.405 19.3462 131.236 18.9793 131.792L18.9473 132.332L20.725 132.413C21.3821 132.454 22.6913 132.496 23.2925 132.592C28.3955 133.151 36.1964 135.174 38.6526 140.087C39.2048 141.462 40.0581 144.177 38.4318 145.13C37.5449 145.216 37.4191 144.979 36.6696 144.411C35.1512 143.78 34.8523 143.604 33.22 143.629L32.9183 144.008C33.8504 145.577 36.3178 145.811 37.6353 147.521C38.7511 150.531 37.5635 152.725 34.6509 153.869C33.8763 153.729 33.1701 153.608 32.4084 153.404C31.4618 153.107 30.7788 152.775 29.8586 153.157L29.6892 153.455C30.0346 154.703 31.9105 155.183 33.0396 155.377C33.2011 155.427 33.7387 155.528 33.7491 155.692C34.0346 160.239 27.1213 161.568 24.0009 162.01C17.4329 162.124 11.6191 160.323 7.23771 155.193C3.69989 151.052 1.60048 144.22 2.06887 138.775C2.59173 128.402 7.98829 119.313 14.7666 111.759C15.2963 111.141 18.6991 107.746 19.2554 107.637L19.9133 108.135C20.258 107.645 19.9073 107.245 20.5725 106.408C12.8426 97.869 9.79161 88.7897 11.2932 77.2722C11.9823 72.8226 13.2907 69.7602 14.4602 65.5845C17.2064 55.78 20.1138 47.6667 25.0617 38.7105C24.6463 38.3588 24.0559 38.1555 23.543 37.9368C21.3877 36.8288 19.7669 35.5014 18.4085 33.4642C16.5609 30.7169 15.9211 27.3319 16.6388 24.0999C17.3127 20.9377 19.0338 18.3368 21.76 16.5919C24.1783 14.9446 27.1501 14.3216 30.0265 14.8588C31.9904 15.2423 33.7145 16.1302 35.2228 17.4297C36.9081 18.9423 37.7753 19.9833 38.7581 22.0515C37.7249 22.8718 36.6959 23.5625 36.4418 24.9497L36.7166 25.1418C37.5196 25.0362 43.3359 21.3538 44.555 20.6908C46.246 19.7671 47.9805 18.9254 49.7524 18.1687C54.4271 16.1588 59.51 14.4469 64.6014 13.8949C65.3276 13.816 66.0975 13.822 66.8015 13.638C67.0356 12.5607 60.366 8.01774 64.066 6.37845C65.8789 6.24111 67.3705 6.7777 68.8125 7.89194C69.4094 8.28151 70.1537 8.85603 70.6683 9.34159C71.3479 9.98261 72.2008 11.3603 73.0112 11.8023C73.5849 11.7216 73.3661 11.8532 73.7121 11.4343C73.8204 8.27434 71.8329 5.67064 74.2515 2.34961L74.3602 2.20228Z" fill="#FF9825"/>
<path d="M67.2744 101.374C66.054 100.799 64.9008 100.259 63.8114 99.4638C51.5463 90.5142 56.1575 69.3492 70.0998 64.7323C75.5252 62.9356 81.2873 63.1602 86.3773 65.7174C91.218 68.19 94.8696 72.495 96.5194 77.6744C99.8665 87.9412 95.9701 98.4273 85.3303 102.006C84.5693 101.346 84.0865 100.882 83.2053 100.4C80.9436 98.6527 77.1201 98.0523 74.3316 98.4042C71.7546 98.7406 69.3164 99.7668 67.2744 101.374Z" fill="#EE811B"/>
<path d="M75.5413 69.6553C77.8358 69.4458 79.8283 69.6127 82.0438 70.1794C82.7095 70.3495 83.1716 70.1714 83.8463 70.0046C84.589 70.3247 85.6228 71.357 85.8841 72.1137C87.4761 76.7263 81.1229 78.9849 78.1791 80.0129C78.3279 82.2965 78.1707 85.1517 78.2302 87.5478C79.8372 88.8754 81.8223 90.6739 82.6478 92.6019C83.6472 94.9362 81.667 95.7682 79.896 96.3382C77.7889 96.7703 71.4072 97.0554 71.7614 93.5997C71.9914 91.3564 74.7885 88.9081 76.4304 87.5657L76.4268 80.015C73.9795 79.2018 66.4866 76.2298 69.3167 71.7439C70.1934 70.3544 73.8258 69.8535 75.5413 69.6553Z" fill="#542A01"/>
<path d="M76.2287 92.2519C76.6077 92.2248 76.9871 92.2059 77.3667 92.1953C79.1463 92.1556 79.9915 92.7336 81.2148 93.9204C80.1357 94.4433 79.362 94.6291 78.1966 94.8503C77.1841 94.9171 73.5646 95.0259 73.9054 93.4088C74.4675 92.7528 75.4163 92.4956 76.2287 92.2519Z" fill="#E54C2E"/>
<path d="M77.6237 70.9433C79.7137 70.7301 82.53 70.4303 83.957 72.3666L83.9767 72.6593C82.6439 73.9425 79.1362 72.5008 77.5548 72.5603L77.4062 72.4434C77.4944 72.0732 77.569 71.3474 77.6237 70.9433Z" fill="#BE5F0E"/>
<path d="M77.5544 72.5606C76.0767 72.5351 71.5315 73.6676 71.0938 72.527C71.7666 70.9186 74.7588 70.7516 76.2375 71.0247L77.6233 70.9436C77.5687 71.3477 77.494 72.0734 77.4059 72.4437L77.5544 72.5606Z" fill="#773A01"/>
<path d="M76.238 71.0245L77.6238 70.9434C77.5692 71.3474 77.4946 72.0732 77.4064 72.4434C76.376 72.4377 75.9051 72.5163 75.0307 71.9469L74.9844 71.6766C75.3398 71.2446 75.6952 71.199 76.238 71.0245Z" fill="#BE5F0E"/>
<path d="M23.2925 132.592C28.3955 133.151 36.1964 135.173 38.6526 140.087C39.2048 141.462 40.0581 144.176 38.4318 145.13C37.5449 145.215 37.4191 144.978 36.6696 144.41C35.1512 143.779 34.8523 143.603 33.22 143.628L32.9183 144.007C33.8504 145.576 36.3178 145.81 37.6353 147.521C38.7511 150.53 37.5635 152.724 34.6509 153.868C33.8763 153.728 33.1701 153.608 32.4084 153.403C31.4618 153.107 30.7788 152.774 29.8586 153.157L29.6892 153.455C30.0346 154.702 31.9105 155.183 33.0396 155.376C33.2011 155.426 33.7387 155.527 33.7491 155.691C34.0346 160.238 27.1213 161.568 24.0009 162.009C17.4329 162.123 11.6191 160.322 7.23771 155.192C3.69989 151.051 1.60048 144.22 2.06887 138.774C2.20965 138.935 2.44908 139.214 2.49481 139.428C3.0506 142.019 3.50104 144.469 4.63089 146.895C6.6265 151.179 10.0702 154.561 14.6029 156.063C16.2225 156.6 18.7663 157.357 20.4762 156.682C21.4391 156.245 21.3016 154.053 21.3276 153.09C21.3746 151.351 22.2842 150.909 22.8152 149.406C23.1136 148.512 22.8191 146.718 23.2151 145.924C25.8481 140.641 27.3292 139.397 24.1269 133.705C23.8196 133.346 23.5666 132.976 23.2925 132.592Z" fill="#EE811B"/>
<path d="M33.0388 155.377C33.2004 155.427 33.7379 155.528 33.7484 155.692C34.0338 160.239 27.1205 161.569 24.0002 162.01C23.4374 161.213 23.0196 160.793 22.3359 160.084C26.3871 160.364 31.8806 160.303 33.0388 155.377Z" fill="#D76E0D"/>
<path d="M37.6331 147.521C38.7489 150.531 37.5614 152.725 34.6488 153.869C33.8742 153.729 33.1679 153.609 32.4062 153.404C36.3969 152.29 36.6349 151.016 37.5777 147.634C37.5962 147.596 37.6147 147.559 37.6331 147.521Z" fill="#D76E0D"/>
<path d="M38.6509 140.088C39.2031 141.463 40.0564 144.177 38.4301 145.131C37.5433 145.217 37.4175 144.979 36.668 144.411C39.0633 142.765 37.8303 141.538 38.6509 140.088Z" fill="#D76E0D"/>
<path d="M116.437 135.604C120.055 133.403 122.554 132.543 126.665 131.486C125.736 133.036 124.644 134.227 123.919 135.827C122.163 139.698 123.027 142.189 125.11 145.61C125.455 146.178 125.797 148.399 126.176 149.103C127.188 150.806 127.717 153.223 128.507 154.854C133.337 158.054 142.062 152.196 144.475 147.935C145.872 145.468 148.396 139.618 148.413 136.81C148.603 138.685 148.36 140.81 148.079 142.676C146.658 152.154 138.766 159.916 129.068 160.809L128.851 160.827C126.089 161.644 118.341 160.12 117.551 156.52C117.47 156.15 117.498 155.488 117.711 155.156L118.363 155.14C119.566 154.768 120.954 154.288 121.68 153.166L121.622 152.894C120.623 152.39 117.985 153.442 116.448 153.679L116.053 153.52C113.167 152.376 111.945 148.933 114.28 146.543C115.099 145.703 117.935 144.995 117.654 143.76C116.488 143.044 115.335 143.856 114.3 144.41C113.882 144.745 113.715 144.876 113.247 145.132C111.726 145.129 111.663 143.568 111.582 142.348C112.213 139.573 113.04 138.529 115.115 136.613L116.437 135.604Z" fill="#EE811B"/>
<path d="M117.713 155.154L118.365 155.139C118.473 155.794 118.559 156.437 118.741 157.076C121.882 160.442 125.645 159.354 129.506 158.749C129.322 159.317 128.979 160.277 128.854 160.826C126.091 161.642 118.343 160.119 117.554 156.518C117.473 156.148 117.501 155.487 117.713 155.154Z" fill="#D76E0D"/>
<path d="M111.582 142.348C112.882 143.112 112.237 143.665 114.3 144.409C113.882 144.745 113.715 144.876 113.247 145.132C111.726 145.129 111.663 143.568 111.582 142.348Z" fill="#D76E0D"/>
<path d="M119.852 15.0444C121.577 14.272 124.23 14.3667 126.036 14.8572C127.622 15.3497 128.187 15.6364 129.538 16.5978C129.925 16.9131 130.451 17.3152 130.787 17.6652C131.534 18.4463 131.915 18.8338 132.44 19.7814C134.183 22.5172 134.759 25.8369 134.041 29.0007C133.225 32.616 131.166 35.1677 128.066 37.0965L127.806 37.258C127.342 36.4524 127.088 36.0798 126.52 35.3411C126.062 34.461 125.828 34.1586 125.207 33.3703C125.109 33.1966 124.873 33.0144 124.714 32.8691L124.611 32.9219C124.071 31.338 121.815 29.0859 120.628 27.8495C120.242 27.4562 119.875 27.209 119.435 26.8843C118.928 27.3834 118.71 27.633 118.079 27.9984L117.338 27.2981C117.491 26.5462 117.539 26.447 117.926 25.7819C116.969 24.8483 116.089 24.1593 115.043 23.3485C114.396 22.637 113.4 21.9752 112.605 21.3997C113.349 19.9151 114.083 18.8477 115.295 17.7285C116.734 16.4098 117.97 15.6217 119.852 15.0444Z" fill="#FE9428"/>
<path d="M119.438 26.884C119.573 26.2308 119.934 25.836 120.241 25.3056C121.849 22.5313 125.178 22.8953 127.363 24.7195C127.791 25.0768 128.053 24.9304 128.542 24.8261C129.433 28.5069 127.789 30.9889 124.716 32.8688L124.613 32.9216C124.073 31.3377 121.818 29.0857 120.63 27.8492C120.244 27.4559 119.878 27.2087 119.438 26.884Z" fill="#A34E04"/>
<path d="M117.928 25.7804C120.151 21.1412 126.076 19.2428 128.542 24.8249C128.053 24.9292 127.791 25.0756 127.363 24.7183C125.178 22.8941 121.849 22.5301 120.241 25.3044C119.934 25.8347 119.573 26.2296 119.438 26.8828C118.93 27.3819 118.712 27.6315 118.081 27.9969L117.34 27.2966C117.493 26.5447 117.541 26.4455 117.928 25.7804Z" fill="#542A01"/>
<path d="M115.297 17.727C116.736 16.4083 117.972 15.6203 119.854 15.043L119.964 15.2334C118.835 15.914 117.006 18.4122 115.297 17.727Z" fill="#FDB45F"/>
<path d="M126.037 14.8574C127.623 15.3498 128.188 15.6366 129.54 16.598C129.423 16.6632 129.012 16.8913 128.909 16.9052C127.994 17.0275 126.031 15.9077 125.82 15.0725L126.037 14.8574Z" fill="#FDB45F"/>
<path d="M130.788 17.6641C131.535 18.4451 131.916 18.8326 132.441 19.7802C131.304 20.2774 130.455 18.8448 130.788 17.6641Z" fill="#FDB45F"/>
<path d="M11.2928 77.2715C11.9617 78.5716 11.9801 82.4872 12.2214 84.2683C12.9461 89.5314 14.7421 94.5901 17.4989 99.1318C18.8593 101.334 20.3885 103.427 22.0728 105.392C23.0648 106.567 24.0748 107.612 25.1297 108.712C25.9487 109.565 28.4865 111.666 28.6649 112.711C27.5678 114.685 20.799 111.866 19.1114 111.078C18.2069 111.28 15.6695 111.774 14.7661 111.758C15.2959 111.141 18.6987 107.745 19.2549 107.636L19.9128 108.135C20.2576 107.644 19.9069 107.244 20.5721 106.408C12.8422 97.8683 9.79115 88.7889 11.2928 77.2715Z" fill="#EE811B"/>
<path d="M20.5733 106.408C21.2045 107.082 23.3534 109.155 23.2872 109.97C22.6219 110.254 20.2507 108.613 19.9141 108.135C20.2588 107.645 19.9081 107.245 20.5733 106.408Z" fill="#773A01"/>
<path d="M140.759 80.3223C141.849 87.8524 139.002 96.4742 134.493 102.513C133.275 104.124 131.939 105.64 130.493 107.049L131.556 108.406L132.706 107.389C134.118 108.687 135.478 110.042 136.781 111.449C135.766 111.279 135.631 111.128 134.775 110.563C133.511 110.744 132.884 110.894 131.679 111.18C129.651 111.663 125.34 113.543 123.475 113.069C122.297 111.78 125.841 109.427 126.873 108.488C134.569 101.471 140.424 90.8625 140.759 80.3223Z" fill="#EE811B"/>
<path d="M129.581 107.879C129.968 108.366 130.049 108.489 130.318 109.05C129.848 109.503 128.687 110.367 128.003 110.158L128 109.746C128.306 108.981 128.974 108.456 129.581 107.879Z" fill="#773A01"/>
<path d="M129.582 107.879L130.492 107.051L131.555 108.408C131.144 108.621 130.731 108.841 130.319 109.05C130.05 108.489 129.969 108.367 129.582 107.879Z" fill="#542A01"/>
<path d="M110.291 22.1934C111.523 22.9212 112.659 23.7039 113.843 24.5053C114.422 24.1141 114.6 23.8671 115.043 23.3482C116.089 24.159 116.969 24.8479 117.926 25.7816C117.539 26.4466 117.491 26.5459 117.338 27.2977L118.079 27.9981C118.71 27.6327 118.928 27.3831 119.435 26.884C119.876 27.2086 120.242 27.4558 120.628 27.8492C121.816 29.0856 124.071 31.3377 124.611 32.9215L124.714 32.8688C124.873 33.0141 125.109 33.1962 125.207 33.37C125.828 34.1583 126.062 34.4606 126.52 35.3407C127.088 36.0795 127.342 36.452 127.806 37.2577C127.294 37.5761 126.868 37.8008 126.442 38.2298C128.16 41.3902 129.911 44.5526 131.172 47.9334C130.829 48.072 131.005 48.0483 130.618 47.9767C129.794 47.0898 128.051 43.4398 127.397 42.2881C123.017 34.5699 117.196 28.1426 110.254 22.7215C110.1 22.6012 110.238 22.3622 110.291 22.1934Z" fill="#FDB45F"/>
<path d="M119.438 26.8848C119.878 27.2094 120.245 27.4566 120.631 27.85C121.819 29.0864 124.074 31.3384 124.614 32.9223C124.03 33.2752 123.757 33.2546 123.092 33.3033C121.858 31.8738 120.676 30.471 119.32 29.1504L118.082 27.9989C118.713 27.6335 118.931 27.3839 119.438 26.8848Z" fill="#542A01"/>
<path d="M119.438 26.8848C119.878 27.2094 120.245 27.4566 120.631 27.85C120.305 28.1861 119.658 28.8918 119.32 29.1504L118.082 27.9989C118.713 27.6335 118.931 27.3839 119.438 26.8848Z" fill="#542A01"/>
<path d="M115.044 23.3477C116.09 24.1585 116.97 24.8474 117.927 25.7811C117.54 26.4461 117.491 26.5454 117.338 27.2972C116.236 26.3561 114.983 25.4212 113.844 24.5048C114.423 24.1135 114.601 23.8666 115.044 23.3477Z" fill="#BE5F0E"/>
<path d="M124.996 35.9291C125.502 35.272 125.716 35.2995 126.519 35.3399C127.088 36.0787 127.342 36.4512 127.805 37.2569C127.294 37.5753 126.867 37.8 126.441 38.2289C125.915 37.518 125.45 36.6942 124.996 35.9291Z" fill="#773A01"/>
<path d="M124.52 35.3399C124.722 34.6391 124.863 34.0108 125.209 33.3691C125.831 34.1575 126.065 34.4598 126.522 35.3399C125.718 35.2995 125.504 35.272 124.999 35.9291L124.52 35.3399Z" fill="#BE5F0E"/>
<path d="M124.612 32.9219L124.715 32.8691C124.874 33.0144 125.109 33.1966 125.208 33.3703C124.861 34.0119 124.721 34.6403 124.518 35.3411L123.09 33.3029C123.755 33.2542 124.028 33.2748 124.612 32.9219Z" fill="#D76E0D"/>
<path d="M21.7617 16.5913C24.18 14.944 27.1519 14.321 30.0282 14.8582C31.9922 15.2417 33.7162 16.1296 35.2245 17.4291C34.274 19.1831 30.6671 16.8523 29.096 16.3759C26.6971 15.6486 23.7275 16.9773 21.7617 16.5913Z" fill="#FDB45F"/>
<path d="M123.668 130.268C123.944 129.011 123.59 125.192 124.634 124.914C125.299 125.264 125.4 125.652 125.536 126.369C126.05 127.291 126.387 127.851 126.471 128.938L126.579 129.528C125.937 129.688 125.296 129.843 124.653 129.993L123.668 130.268Z" fill="#EE811B"/>
<path d="M124.658 128.812C124.618 127.669 124.476 126.987 125.534 126.369C126.047 127.292 126.385 127.852 126.469 128.938L126.577 129.528C125.935 129.689 125.294 129.843 124.651 129.993L124.658 128.812Z" fill="#BE5F0E"/>
<path d="M124.66 128.812C125.236 128.341 125.025 128.37 125.647 128.336C125.995 128.561 126.157 128.668 126.471 128.938L126.578 129.528C125.937 129.689 125.295 129.844 124.652 129.993L124.66 128.812Z" fill="#A34E04"/>
<path d="M82.3516 9.1331C83.6501 7.46259 86.1956 5.15108 88.4851 6.17401C87.9095 6.61275 87.1341 7.03338 86.4989 7.3883C85.6219 7.87823 83.7151 9.7713 82.8046 9.74742C82.5687 9.47959 82.5267 9.44041 82.3516 9.1331Z" fill="#FDB45F"/>
<path d="M74.3594 2.20228C76.8646 1.41845 78.1082 3.96128 78.7594 5.94206L78.526 6.21941L78.1859 6.1523C76.8835 4.89837 74.7557 3.64694 74.3594 2.20228Z" fill="#FDB45F"/>
<path d="M23.8683 128.74C24.0728 128.105 24.222 127.474 24.6552 126.968C25.1346 126.839 24.8995 126.828 25.3816 127.039C26.0855 128.1 25.5272 129.662 25.5232 130.911L25.4316 130.928C24.7387 130.969 24.0058 130.858 23.3125 130.78C23.4503 130.099 23.6723 129.408 23.8683 128.74Z" fill="#D76E0D"/>
<path d="M23.8683 128.74C25.206 129.12 25.1959 129.641 25.4316 130.928C24.7387 130.969 24.0058 130.858 23.3125 130.78C23.4503 130.1 23.6723 129.408 23.8683 128.74Z" fill="#A34E04"/>
<path d="M18.9492 132.332L20.7269 132.413C21.384 132.454 22.6932 132.496 23.2944 132.593C23.5685 132.977 23.8215 133.347 24.1288 133.706C22.4362 133.746 19.5678 134.26 18.9492 132.332Z" fill="#FDB45F"/>
<path d="M98.3164 16.4863C100.187 16.9942 103.595 18.5074 105.325 19.452L104.974 19.6622C103.751 19.6605 99.8683 17.8977 98.8596 17.1061L98.3336 16.6892L98.3164 16.4863Z" fill="#FDB45F"/>
<path d="M64.0664 6.37852C65.8793 6.24117 67.3709 6.77776 68.8129 7.89201C67.6592 8.66709 64.6686 7.49963 64.0664 6.37852Z" fill="#FDB45F"/>
<path d="M23.543 37.9367C24.0708 37.1642 24.2381 36.6254 25.2033 36.5332C26.054 37.1585 25.4674 37.9807 25.0616 38.7103C24.6463 38.3587 24.0558 38.1553 23.543 37.9367Z" fill="#BE5F0E"/>
<path d="M118.038 73.0977C122.025 73.2241 126.566 75.0864 126.961 79.607C127.094 81.1563 126.599 82.6941 125.585 83.8736C123.913 85.8495 121.427 86.5856 118.937 86.7947C116.237 86.8345 113.943 86.4515 111.787 84.6794C109.059 82.4384 108.719 78.6779 111.072 76.0254C112.951 73.906 115.298 73.2648 118.038 73.0977Z" fill="#FDB45F"/>
<path d="M34.2143 73.3725C38.3958 73.1126 43.5387 74.3464 44.4482 79.1393C44.7437 80.6888 44.3998 82.2922 43.4949 83.5844C42.1909 85.4503 40.0964 86.3626 37.9182 86.737C25.8105 88.1456 23.0207 75.879 34.2143 73.3725Z" fill="#FDB45F"/>
<path d="M51.2855 58.872C59.0053 58.4655 60.1991 72.4593 51.8839 73.6154C43.9459 74.0786 43.4338 60.1964 51.2855 58.872Z" fill="#542A01"/>
<path d="M50.2458 61.2924C52.9208 61.1506 53.1874 63.873 51.1837 65.2695C48.4185 65.3666 48.0081 62.7928 50.2458 61.2924Z" fill="#ECECEC"/>
<path d="M101.354 58.8628C102.409 58.7825 103.657 58.7611 104.58 59.3127C109.901 62.4923 109.951 71.3343 103.67 73.4674C102.297 73.5811 101.328 73.5744 100.071 72.9338C95.5001 70.6039 95.3986 62.5982 99.4089 59.7064C99.9895 59.2878 100.678 59.0755 101.354 58.8628Z" fill="#542A01"/>
<path d="M100.676 61.127C100.919 61.1383 101.091 61.1622 101.324 61.2332C101.82 61.386 102.234 61.7325 102.472 62.1944C103.155 63.5434 102.308 64.6965 101.104 65.3C98.4407 64.6908 98.514 62.4931 100.676 61.127Z" fill="#ECECEC"/>
<path d="M22.1889 26.0662C23.6075 19.968 30.1969 20.9306 32.8234 25.5154C33.2896 26.3291 33.5999 27.1184 33.9269 27.9955C32.7827 28.8906 31.9892 29.6058 30.9989 30.6417C30.3477 31.3228 28.0849 34.1979 27.4536 34.4234C26.8917 34.2418 27.0799 34.3217 26.6401 33.8427C26.5436 33.6897 26.5756 33.6966 26.4429 33.6187C23.2131 31.7206 21.9287 29.936 22.1889 26.0662Z" fill="#A34E04"/>
<path d="M22.1914 26.0662C23.61 19.968 30.1995 20.9306 32.8259 25.5154C33.2921 26.3291 33.6024 27.1184 33.9294 27.9955C32.7852 28.8906 31.9917 29.6058 31.0014 30.6417C30.3502 31.3228 28.0874 34.1979 27.4561 34.4234C26.8942 34.2418 27.0824 34.3217 26.6426 33.8427C27.4142 31.777 30.1002 28.8035 31.8949 27.5084C27.7668 19.4371 24.3854 25.7653 22.1914 26.0662Z" fill="#542A01"/>
<path d="M56.8778 48.954C57.418 48.1704 57.7426 47.6272 58.7111 48.1053C59.4748 49.122 59.108 49.7808 58.4701 50.718C56.5221 53.2537 52.5788 54.4912 49.5248 54.6523C48.4126 54.711 47.1502 54.7104 46.8086 53.4413C47.0223 52.7382 47.2147 52.488 47.9954 52.4001C51.8156 51.9699 53.9893 51.8423 56.8778 48.954Z" fill="#542A01"/>
<path d="M95.9652 47.8516C96.1573 47.8587 96.6308 47.8906 96.7566 48.0105C98.3299 49.5074 98.935 50.2272 100.864 51.2316C103.229 52.4629 104.616 51.8642 106.794 52.4624C107.293 52.9085 107.146 52.6855 107.366 53.3023C107.28 53.9063 107.165 53.9817 106.724 54.4195C103.275 54.8253 99.8851 54.0691 97.1233 51.9222C95.7195 50.8311 94.6218 49.4731 95.9652 47.8516Z" fill="#542A01"/>
<path d="M66.6786 104.823C67.4063 104.108 67.8962 103.501 68.7331 102.865C72.9094 99.6903 77.7956 99.5922 82.2112 102.219C85.806 104.778 91.2459 113.427 93.9896 117.37L110.051 140.574C109.431 143.299 109.556 145.089 111.78 146.982C111.636 147.348 111.371 147.959 111.292 148.32C111.087 151.855 112.269 154.095 115.654 155.364C115.687 156.862 115.863 158.104 116.951 159.275C117.475 159.84 119.904 161.331 120.189 161.685C121.295 161.808 123.114 162.596 124.855 162.829C125.257 163.408 126.133 164.593 126.447 165.162L130.091 170.644C131.372 172.576 132.624 174.29 133.453 176.483C136.102 183.492 131.758 191.525 123.992 191.959C121.444 192.101 118.872 192.034 116.32 192.028L103.867 192.022L63.4949 192.03L38.9773 192.033C35.9528 192.034 28.1796 192.232 25.643 191.696C22.9051 191.11 20.5148 189.454 19.0051 187.096C18.1362 185.733 17.6556 184.408 17.3291 182.841C16.6996 177.698 18.3459 175.187 21.1252 171.021C22.2413 169.348 23.3223 167.658 24.5196 166.018L24.5681 165.949C24.8353 165.395 25.5825 164.279 25.9408 163.712C27.7637 163.395 30.021 162.32 31.0037 162.205C31.7465 161.473 33.1112 160.805 33.9589 159.888C35.4415 158.285 35.7285 157.45 35.7215 155.347C38.8894 153.918 39.8499 152.339 39.9574 148.857C39.8181 148.047 39.7135 147.766 39.4378 147.001C39.6407 146.79 39.8393 146.573 40.0333 146.353C41.253 144.96 41.3919 143.667 41.2736 141.899C41.0302 140.786 42.5535 139.089 43.2255 138.126L47.6571 131.79L60.6106 113.354C62.5883 110.554 64.7703 107.635 66.6786 104.823Z" fill="#2E2519"/>
<path d="M25.9408 163.713C27.7637 163.396 30.021 162.321 31.0037 162.205C30.3728 163.099 29.7476 163.997 29.1283 164.899L25.2408 170.803C23.6729 173.182 22.017 175.439 21.1939 178.159C20.0144 182.058 22.1475 186.897 26.1253 188.134C28.9048 188.999 33.277 188.713 36.2695 188.706L48.977 188.69L89.4526 188.693H111.9C114.638 188.699 118.082 188.514 120.814 188.709C126.654 189.122 131.82 184.716 130.356 178.62C129.317 174.296 124.895 169.108 122.501 165C123.859 164.879 124.844 165.403 126.447 165.163L130.091 170.644C131.372 172.576 132.624 174.29 133.453 176.483C136.102 183.493 131.758 191.526 123.992 191.96C121.444 192.102 118.872 192.035 116.32 192.028L103.867 192.022L63.4949 192.03L38.9773 192.033C35.9528 192.035 28.1796 192.233 25.643 191.696C22.9051 191.111 20.5148 189.455 19.0051 187.096C18.1362 185.734 17.6556 184.409 17.3291 182.842C16.6996 177.699 18.3459 175.188 21.1252 171.022C22.2413 169.349 23.3223 167.658 24.5196 166.018L24.5681 165.949C24.8353 165.395 25.5825 164.279 25.9408 163.713Z" fill="#FEC302"/>
<path d="M24.5196 166.018L24.9694 166.16C24.9975 167.283 18.9239 174.783 18.2162 176.97C17.6111 178.839 17.9841 181.93 17.3291 182.841C16.6996 177.698 18.3459 175.187 21.1252 171.021C22.2413 169.348 23.3223 167.658 24.5196 166.018Z" fill="#FDCD90"/>
<path d="M25.9391 163.713C27.7619 163.396 30.0193 162.321 31.002 162.205C30.3711 163.099 29.7459 163.997 29.1265 164.899C27.3827 165.172 26.6746 165.82 24.5664 165.949C24.8336 165.395 25.5808 164.279 25.9391 163.713Z" fill="#FDB45F"/>
<path d="M66.6783 104.823C67.4059 104.108 67.8958 103.501 68.7327 102.865C72.9091 99.6903 77.7952 99.5922 82.2108 102.219C85.8056 104.778 91.2456 113.427 93.9893 117.37L110.051 140.574C109.431 143.299 109.556 145.089 111.78 146.982C111.636 147.348 111.371 147.959 111.292 148.32C109.217 145.509 107.046 142.096 105.025 139.169L89.9863 117.465C87.3404 113.685 84.7612 109.626 81.6582 106.23C80.9073 105.408 79.9301 104.925 78.9025 104.56C71.4614 101.917 68.1598 108.349 64.6132 113.396L58.7298 121.785C52.3875 130.749 46.1297 139.773 39.9571 148.857C39.8177 148.047 39.7131 147.766 39.4375 147.001C39.6404 146.79 39.8389 146.573 40.0329 146.353C41.2527 144.96 41.3916 143.667 41.2733 141.899C41.0298 140.786 42.5531 139.089 43.2252 138.126L47.6567 131.79L60.6103 113.354C62.5879 110.554 64.7699 107.635 66.6783 104.823Z" fill="#FEC302"/>
<path d="M66.6772 104.823C67.4048 104.108 67.8947 103.501 68.7316 102.865C72.9079 99.6903 77.7941 99.5922 82.2097 102.219C81.6778 102.384 80.4471 101.818 79.8225 101.633C75.4809 100.347 70.5165 101.406 67.6748 105.101C65.2561 108.247 62.983 111.543 60.6849 114.774L45.3095 136.52C44.4866 137.669 42.1962 141.36 41.2722 141.899C41.0287 140.786 42.552 139.089 43.2241 138.126L47.6556 131.79L60.6092 113.354C62.5868 110.554 64.7688 107.635 66.6772 104.823Z" fill="#FDCD90"/>
<path d="M120.188 161.686C121.293 161.809 123.112 162.597 124.853 162.83C125.255 163.409 126.131 164.593 126.445 165.163C124.842 165.403 123.857 164.879 122.499 165.001C122.27 164.81 120.528 162.149 120.188 161.686Z" fill="#FDB45F"/>
<path d="M75.2615 108.963C76.3135 108.913 77.615 109.089 78.3564 109.851C79.9198 111.459 81.4727 113.84 82.7809 115.685C85.857 120.015 88.8981 124.371 91.9037 128.751C99.4374 139.542 106.877 150.399 114.22 161.32C117.403 166.077 120.549 170.887 123.683 175.679C124.464 176.871 125.549 178.744 125.588 180.172C125.617 181.131 125.257 182.059 124.589 182.746C123.067 184.296 118.858 183.873 116.705 183.865L107.567 183.851L76.0859 183.857L44.5618 183.845C39.7187 183.839 34.8698 183.91 30.0278 183.845C28.3805 183.864 26.6849 183.257 26.0876 181.554C25.0709 178.655 28.4993 174.565 30.0543 172.214L35.8395 163.569C42.1371 154.195 48.5224 144.88 54.9946 135.626L66.4036 119.266C68.482 116.288 70.6123 113.136 72.8586 110.284C73.4348 109.552 74.3939 109.216 75.2615 108.963Z" fill="#FEC302"/>
<path d="M75.0984 124.89C76.3754 124.792 77.6571 125.007 78.8315 125.519C80.5989 126.308 81.9789 127.854 82.6352 129.669C82.9989 130.676 82.9461 131.984 82.8784 133.035C82.7078 135.678 79.7815 159.558 79.147 160.796C78.6115 161.842 77.647 162.282 76.5963 162.628C73.5691 162.758 72.234 161.748 71.8523 158.736C71.0023 152.028 70.1293 145.319 69.2639 138.614C69.1309 136.13 68.2177 132.933 68.6731 130.461C69.267 127.238 72.1941 125.324 75.0984 124.89Z" fill="#2E2519"/>
<path d="M75.3191 166.408C78.7606 166.155 81.7534 168.744 81.9987 172.186C82.2441 175.629 79.6488 178.616 76.2062 178.855C72.7733 179.092 69.7958 176.506 69.5512 173.074C69.3065 169.642 71.8871 166.659 75.3191 166.408Z" fill="#2E2519"/>
<path d="M127.38 162.948C133.169 162.493 137.475 161.058 142.055 157.344C142.642 160.793 143.228 163.473 143.69 167.035C143.823 168.104 143.996 169.284 144.074 170.348C145.023 182.38 142.921 193.017 134.986 202.585C133.022 204.952 131.115 206.579 128.819 208.579C129.383 209.541 129.053 209.263 129.208 210.234C129.306 210.85 128.434 215.512 128.429 217.204C129.008 219.734 129.773 221.884 129.309 224.47C128.52 228.33 125.721 229.517 121.996 229.608C122.269 228.912 122.514 228.305 122.723 227.585C122.86 225.973 122.874 220.19 120.119 220.747C119.915 220.983 119.743 221.145 119.856 221.475C121.004 224.796 121.808 226.354 119.754 229.786C117.149 230.421 114.778 230.498 112.134 230.106C113.05 227.746 113.343 225.545 112.295 223.151C111.844 222.121 111.344 221.219 110.075 221.49C109.514 222.232 110.393 223.547 110.695 224.429C111.329 226.28 110.899 228.253 110.069 229.953C107.967 230.329 106.509 230.095 104.414 229.647C103.343 229.411 102.425 229.182 101.45 228.653C97.6873 226.61 98.3956 223.071 98.023 219.478C97.9029 218.322 97.6411 217.442 97.311 216.347C98.4825 215.956 101.967 214.866 102.11 213.577L101.745 213.246C88.452 216.888 74.5506 217.744 60.9114 215.764C57.5818 215.308 53.3743 214.077 50.5419 213.758C50.5697 214.25 50.5056 214.454 50.9615 214.824C52.032 215.695 53.9363 216.202 55.248 216.633C54.9984 217.562 54.6742 218.75 54.5831 219.678C54.2514 223.059 54.6919 226.592 51.2894 228.584C50.1566 229.247 49.1561 229.478 47.8744 229.8C45.5699 230.232 43.846 230.586 41.5039 230.156C39.7936 227.037 40.4612 225.484 41.5008 222.53C41.6391 222.138 41.4633 221.957 41.2301 221.665C40.2194 221.373 39.8858 221.801 39.4407 222.72C38.2036 225.278 38.3847 227.71 39.3705 230.326C36.4239 230.576 34.2591 230.655 31.4061 229.797C28.7403 224.771 31.936 222.366 31.0924 220.891C30.0754 220.572 29.4481 221.387 29.0837 222.244C28.0689 224.631 28.2591 227.25 29.1801 229.627C21.2951 229.263 21.5997 223.785 22.8037 217.743C23.0308 215.477 22.4318 212.495 22.041 210.186C21.709 209.422 22.207 208.854 22.76 208.416C19.3449 205.342 16.8007 202.89 14.3173 199.02C6.26508 186.471 6.94745 174.125 9.84613 160.225C14.6657 163.195 17.7938 163.882 23.3261 164.019C22.4557 165.486 21.2027 167.241 20.2292 168.681C17.0193 173.538 14.098 177.447 15.4187 183.733C15.833 185.648 16.6508 187.451 17.8178 189.024C22.6879 194.625 26.9652 194.069 33.745 194.058L44.9392 194.041L81.9348 194.044L111.012 194.038C114.783 194.036 118.57 194.067 122.342 194.05C127.622 194.027 131.017 192.329 134.193 188.163C138.971 179.68 135.023 174.514 130.441 167.501C129.553 166.373 128.214 164.21 127.38 162.948Z" fill="#FF9825"/>
<path d="M9.84613 160.225C14.6657 163.195 17.7938 163.882 23.3261 164.019C22.4557 165.486 21.2027 167.24 20.2292 168.681C16.0409 167.804 14.5467 167.812 10.5597 165.533C8.2454 172.917 9.90904 179.622 13.3588 186.338C18.4904 196.329 28.1274 204.616 38.9127 207.939C39.6573 208.162 40.4128 208.347 41.1761 208.493C40.79 207.883 40.3522 207.224 39.9906 206.608C41.7919 207.206 43.4947 208.031 45.2596 208.735C47.264 209.517 49.3162 210.171 51.4039 210.692C65.8733 214.415 85.2451 214.37 99.6097 210.458C104.388 209.158 109.319 207.059 113.718 204.79C114.413 204.431 117.255 202.839 117.816 202.981C117.683 204.317 114.697 205.92 115.651 207.188C116.903 207.613 118.655 206.82 119.848 206.333C130.347 202.055 138.423 192.491 141.98 181.854C143.267 178.005 143.214 174.206 144.074 170.348C145.023 182.38 142.921 193.017 134.986 202.584C133.022 204.952 131.115 206.578 128.819 208.579C129.383 209.541 129.053 209.263 129.208 210.234C129.306 210.85 128.434 215.512 128.429 217.204C129.008 219.734 129.773 221.883 129.309 224.469C128.52 228.329 125.721 229.517 121.996 229.608C122.269 228.911 122.514 228.304 122.723 227.585C122.86 225.972 122.874 220.19 120.119 220.747C119.915 220.983 119.743 221.145 119.856 221.474C121.004 224.796 121.808 226.353 119.754 229.785C117.149 230.421 114.778 230.497 112.134 230.105C113.05 227.746 113.343 225.545 112.295 223.151C111.844 222.12 111.344 221.218 110.075 221.49C109.514 222.231 110.393 223.547 110.695 224.429C111.329 226.28 110.899 228.253 110.069 229.952C107.967 230.329 106.509 230.095 104.414 229.647C103.343 229.411 102.425 229.181 101.45 228.652C97.6873 226.609 98.3956 223.071 98.023 219.478C97.9029 218.322 97.6411 217.441 97.311 216.347C98.4825 215.955 101.967 214.866 102.11 213.577L101.745 213.246C88.452 216.887 74.5506 217.744 60.9114 215.763C57.5818 215.308 53.3743 214.076 50.5419 213.758C50.5697 214.249 50.5056 214.454 50.9615 214.824C52.032 215.695 53.9363 216.202 55.248 216.633C54.9984 217.561 54.6742 218.749 54.5831 219.678C54.2514 223.059 54.6919 226.592 51.2894 228.584C50.1566 229.247 49.1561 229.478 47.8744 229.8C45.5699 230.232 43.846 230.586 41.5039 230.155C39.7936 227.037 40.4612 225.484 41.5008 222.529C41.6391 222.138 41.4633 221.957 41.2301 221.665C40.2194 221.373 39.8858 221.801 39.4407 222.72C38.2036 225.278 38.3847 227.71 39.3705 230.325C36.4239 230.575 34.2591 230.655 31.4061 229.796C28.7403 224.771 31.936 222.366 31.0924 220.891C30.0754 220.572 29.4481 221.387 29.0837 222.244C28.0689 224.63 28.2591 227.249 29.1801 229.626C21.2951 229.263 21.5997 223.784 22.8037 217.742C23.0308 215.476 22.4318 212.495 22.041 210.185C21.709 209.422 22.207 208.854 22.76 208.415C19.3449 205.342 16.8007 202.89 14.3173 199.019C6.26508 186.471 6.94745 174.125 9.84613 160.225Z" fill="#EE811B"/>
<path d="M49.8853 215.064C49.246 214.697 47.5323 213.739 47.3242 213.054C48.0286 212.726 49.7642 213.478 50.5401 213.758C50.5678 214.249 50.5037 214.454 50.9596 214.824C52.0301 215.695 53.9344 216.202 55.2461 216.633C54.9965 217.561 54.6724 218.749 54.5812 219.678C54.2496 223.058 54.69 226.592 51.2875 228.584C50.1547 229.247 49.1542 229.478 47.8725 229.799C51.361 226.942 54.4127 223.43 51.0888 219C49.6777 217.12 48.637 217.781 49.8853 215.064Z" fill="#D76E0D"/>
<path d="M101.742 213.246C102.693 213.071 104.859 212.155 105.63 212.528C105.357 213.304 103.677 214.262 102.939 214.618L101.939 215.092C102.149 215.69 102.478 216.549 102.641 217.138C99.1091 220.786 98.3763 223.758 102.308 227.894C102.892 228.507 103.897 229.074 104.411 229.647C103.34 229.411 102.423 229.181 101.448 228.652C97.6849 226.609 98.3932 223.071 98.0206 219.478C97.9004 218.322 97.6387 217.441 97.3086 216.347C98.4801 215.955 101.965 214.866 102.108 213.577L101.742 213.246Z" fill="#D76E0D"/>
<path d="M22.0405 210.184C21.7085 209.421 22.2065 208.853 22.7595 208.414C23.3882 208.974 24.0119 209.541 24.6301 210.112C25.2697 210.387 25.767 210.914 26.0041 211.568C26.1011 211.845 26.1885 212.324 26.0053 212.564C24.8923 214.019 24.1492 215.567 23.4344 217.243C23.3528 217.434 22.9938 217.64 22.8032 217.741C23.0303 215.475 22.4313 212.494 22.0405 210.184Z" fill="#D76E0D"/>
<path d="M22.0405 210.184C21.7085 209.421 22.2065 208.853 22.7595 208.414C23.3882 208.974 24.0119 209.541 24.6301 210.112C24.1299 210.679 24.3507 210.596 23.7281 210.718C23.0776 210.524 22.9139 210.398 22.3521 210.039L22.1347 210.051L22.0405 210.184Z" fill="#773A01"/>
<path d="M129.206 210.232C129.305 210.849 128.432 215.511 128.427 217.203C126.715 215.68 128.159 214.365 124.961 212.483C125.382 211.751 125.735 211.038 126.498 210.64L126.843 211.025C127.738 211.247 128.406 210.704 129.206 210.232Z" fill="#D76E0D"/>
<path d="M122.723 227.584L122.897 227.804C125.957 228.272 127.295 226.275 129.198 224.567L129.31 224.469C128.52 228.329 125.722 229.516 121.996 229.607C122.269 228.911 122.514 228.304 122.723 227.584Z" fill="#EE811B"/>
<path d="M128.819 208.578C129.383 209.54 129.053 209.262 129.208 210.233C128.407 210.704 127.739 211.247 126.845 211.025L126.5 210.64C127.095 209.928 128.083 209.181 128.819 208.578Z" fill="#773A01"/>
<path d="M134.191 188.162C134.229 190.043 133.367 191.318 132.09 192.665C129.167 195.752 125.36 196.762 121.229 196.803C115.393 196.857 109.558 196.945 103.72 197.079C94.7781 197.285 85.6573 197.77 76.723 197.809C67.2445 197.85 57.5744 197.288 48.0728 197.054C44.1342 196.957 40.1948 196.89 36.2552 196.854C30.6589 196.82 23.7737 197.61 19.5569 193.088C18.6969 192.166 17.7489 190.282 17.8159 189.024C22.686 194.624 26.9633 194.068 33.743 194.057L44.9372 194.04L81.9329 194.043L111.01 194.037C114.781 194.035 118.568 194.067 122.34 194.049C127.62 194.026 131.015 192.328 134.191 188.162Z" fill="#EE811B"/>
<path d="M127.379 162.948C133.168 162.493 137.474 161.058 142.053 157.344C142.64 160.793 143.227 163.473 143.689 167.035C142.831 166.015 141.983 164.37 140.964 163.976C139.885 164.113 138.838 165.073 137.861 165.532C136.175 166.321 134.501 166.825 132.67 167.136C132.111 167.23 130.813 167.238 130.44 167.501C129.552 166.373 128.212 164.21 127.379 162.948Z" fill="#EE811B"/>
</svg>
