<svg width="204" height="256" viewBox="0 0 204 256" fill="none" xmlns="http://www.w3.org/2000/svg">
<path d="M99.6285 7.63393C99.5233 6.12354 99.4561 5.32083 99.7579 3.77629C100.538 -0.211572 104.568 -1.23402 107.369 1.63997C109.082 3.39804 109.831 5.72942 110.165 8.17568C116.623 1.09977 123.803 4.74147 118.868 12.9771C128.324 14.5494 135.542 17.5988 143.634 22.5232C145.549 18.8881 148.76 15.8744 152.722 14.6327C156.6 13.4266 160.798 13.8004 164.401 15.6729C168.226 17.7154 171.072 21.209 172.297 25.369C173.492 29.5134 172.992 33.9623 170.907 37.7384C169.244 40.7479 167.076 42.6378 164.09 44.2598C169.009 53.5912 171.202 61.3433 174.249 71.4055C176.14 77.652 177.923 81.0182 178.691 87.9349C179.305 93.2711 178.82 98.6765 177.264 103.818C175.313 110.063 171.924 115.762 167.367 120.458C184.229 134.634 197.273 161.419 178.185 179.449C181.15 182.541 182.776 185.365 183.744 189.535C186.569 189.533 189.017 189.609 191.64 190.63C208.364 197.141 205.104 217.846 197.102 230.024C196.068 231.597 195.091 232.984 193.977 234.443C194.66 234.512 195.305 234.721 195.945 234.964C208.412 239.692 200.892 244.593 192.639 247.081C179.448 251.056 165.931 252.641 152.272 253.868C126.004 256.124 99.6113 256.591 73.2791 255.263C58.2288 254.544 43.256 253.466 28.1242 250.889C22.767 249.975 4.12136 247.174 1.09921 240.899C-0.222659 238.153 7.05175 235.04 9.54595 234.386C7.61593 231.821 6.23266 229.69 4.68329 226.87C-3.48559 212 -2.19098 190.968 18.4273 189.494C19.2809 185.328 21.5168 181.575 24.7723 178.841C6.00982 160.481 21.3262 132.526 38.8285 119.7C31.3564 111.119 27.5697 101.979 28.2515 90.3677C28.6646 83.332 30.9744 78.0325 32.9749 71.4792C35.8288 62.1307 38.3778 53.301 43.1447 44.6658C38.8187 42.2651 35.7211 39.4076 34.2818 34.4794C33.1166 30.3988 33.6109 26.0228 35.6572 22.3051C37.7616 18.4798 41.3098 15.6564 45.5099 14.4653C49.3089 13.4114 53.3708 13.9083 56.8038 15.8468C59.8042 17.5588 61.9558 20.0877 63.5438 23.1209C71.7972 17.6795 81.1688 14.1643 90.9648 12.835C89.6904 11.3494 88.5803 9.88372 88.6955 7.82175C88.8425 5.19681 91.7546 4.27578 93.9587 4.6423C96.3251 5.03572 97.8622 6.17062 99.6285 7.63393Z" fill="#502A02"/>
<path d="M9.56585 234.381C14.8863 241.066 22.2962 245.814 30.8856 246.766C33.4705 247.056 36.0827 246.996 38.6514 246.587C41.4128 246.132 43.7411 245.316 46.39 244.536C54.594 242.118 62.8116 238.851 71.0405 236.575C89.9923 243.11 114.48 243.414 133.399 236.585L150.578 242.463C161.93 246.253 170.478 249.643 182.305 243.91C187.038 241.616 190.573 238.382 193.997 234.438C194.68 234.507 195.325 234.715 195.965 234.959C208.432 239.686 200.912 244.588 192.659 247.075C179.468 251.051 165.951 252.636 152.292 253.862C126.024 256.118 99.6312 256.586 73.299 255.258C58.2487 254.538 43.2759 253.46 28.1441 250.884C22.7869 249.969 4.14126 247.168 1.11911 240.894C-0.202756 238.148 7.07165 235.035 9.56585 234.381Z" fill="#FED398"/>
<path d="M101.377 5.32847C101.561 3.82809 102.184 1.34044 104.3 1.95584C106.715 2.658 107.831 5.65308 108.312 7.9084C108.507 8.95292 108.559 12.3502 108.821 12.8628C109.98 13.3953 110.696 10.5195 111.505 9.5747C112.855 7.5336 116.006 5.01698 118.399 6.9182C119.944 10.3102 115.153 13.6743 115.38 15.2266C116.251 15.5152 116.746 15.0904 117.49 14.6383C124.089 15.8458 128.563 17.0085 134.755 19.8132C137.197 20.9217 139.562 22.194 141.833 23.6218C142.88 24.2943 145.826 26.5431 146.883 26.5921C147.423 26.1598 147.28 26.4261 147.399 25.8061C146.994 24.7986 146.035 24.2681 145.141 23.6418C146.299 21.7083 146.745 20.9046 148.349 19.3796C150.052 17.8488 151.889 16.8119 154.11 16.2401C157.436 15.3581 160.978 15.8596 163.929 17.6308C169.452 20.482 172.056 27.4488 170.556 33.3613C169.68 36.9231 167.734 39.769 164.597 41.7915C164.135 42.0899 163.529 42.4231 162.974 42.459C162.42 42.4867 161.694 42.8436 161.356 43.2822C162.993 46.2644 164.343 48.6734 165.67 51.824C168.378 58.2535 170.294 64.9515 172.334 71.6148C173.78 76.3345 176.912 84.4282 176.863 89.2676C178.54 102.344 171.479 114.718 161.991 123.146L163.227 123.986C164.29 123.255 165.069 122.613 166.021 121.73C170.302 125.532 174.202 129.413 177.414 134.201C180.627 139.153 185.234 148.017 185.301 153.957C186.515 160.049 184.708 167.934 181.246 173.072C177.348 178.792 171.322 182.711 164.514 183.958C161.258 184.566 158.586 184.551 155.359 183.937C156.34 183.763 157.087 183.685 158.001 183.276C156.753 183.183 155.376 183.471 154.071 183.507C149.869 183.623 142.954 181.758 142.753 176.638C142.723 175.856 143.306 175.199 143.937 174.811L145.688 173.897L145.6 172.334L144.941 172.441C143.51 172.859 142.997 173.162 141.844 174.004C138.73 172.103 137.99 169.989 138.62 166.417C138.87 165.847 139.217 165.299 139.534 164.761C138.922 164.421 138.758 164.228 138.239 163.74C138.03 163.491 137.83 163.238 137.637 162.977C136.445 161.358 136.795 159.478 137.071 157.646C141.621 147.882 152.182 147.692 161.166 151.014L163.214 150.59C160.856 148.755 158.476 147.986 155.547 147.491C155.901 146.433 156.444 145.185 156.868 144.131L155.895 142.918C154.702 144.621 154.395 145.267 153.76 147.251C153.355 147.232 152.951 147.216 152.546 147.203C147.102 147.037 142.382 148.324 138.368 152.094C132.94 144.434 127.725 136.442 122.254 128.802C119.716 125.26 115.801 119.039 112.724 116.25C106.208 111.375 99.6504 111.26 92.8876 115.763C89.5353 118.482 84.1392 126.462 81.3883 130.241C76.0383 137.594 70.7337 144.981 65.475 152.399C61.4234 148.42 56.9574 147.156 51.3493 147.204C50.9522 147.208 50.5552 147.215 50.1583 147.223C49.5771 145.414 49.3382 144.576 48.2573 142.98C47.8968 143.379 47.4673 143.808 47.1976 144.265C47.625 145.354 47.9624 146.24 48.307 147.356C45.3588 147.991 42.4686 148.72 40.0351 150.611C40.6065 150.894 41.0355 151.095 41.6262 151.333L42.1537 151.19C49.8222 147.91 61.8506 147.808 65.904 156.553C66.2724 157.277 66.3245 157.499 66.5484 158.295C66.776 160.454 66.9947 161.967 65.3241 163.628C64.8546 164 64.444 164.311 64.0179 164.738C64.2994 165.309 64.5866 165.875 64.8357 166.461C65.2877 169.297 64.6991 173.102 61.4929 174.035C60.845 174.271 60.607 174.497 60.2046 175.094C61.5167 177.338 60.0918 179.69 58.1727 180.996C54.9575 183.185 51.1068 183.751 47.2916 183.495C46.6139 183.449 45.6663 183.121 44.9267 182.99L44.488 183.318L44.5061 183.418C45.0409 183.759 46.7609 183.861 47.4991 183.944C45.069 184.478 42.7613 184.415 40.3023 184.08C33.486 183.2 27.3025 179.637 23.1237 174.181C18.5015 168.071 17.4733 161.285 18.4646 153.896C18.632 152.094 19.354 149.553 19.9327 147.842C23.074 138.56 29.401 130.205 36.7534 123.823C37.8609 122.903 38.9623 121.977 40.0575 121.042C40.3495 121.24 40.897 121.732 41.1897 121.982L42.2244 120.658C40.7807 119.129 39.4753 117.694 38.1575 116.04C32.8387 109.361 29.0856 99.084 30.2117 90.449C30.0145 85.2254 33.3002 77.0468 34.7846 71.9156C37.6611 61.9719 40.7814 52.7959 45.8478 43.7105C45.3733 43.5514 44.603 43.2018 44.1154 42.9997C40.373 41.3225 37.5673 38.3126 36.3584 34.3867C35.4486 32.3012 35.3922 29.7958 35.7751 27.5852C36.42 23.8564 38.5237 20.5381 41.6211 18.364C46.9171 14.6914 53.773 15.0402 58.5388 19.4496C60.0234 20.9084 60.9679 22.3536 61.8711 24.2031C61.1317 24.7812 60.0298 25.4213 60.3797 26.4442C60.548 26.5545 61.0418 26.8984 61.2342 26.7718C71.508 20.0034 80.296 16.0062 92.831 14.5103C93.5773 14.9658 94.8288 15.7525 95.6843 15.173C95.5553 13.7176 87.8543 9.21422 91.4479 6.74176C93.7763 5.61513 96.2661 7.14932 98.0079 8.68972C99.183 9.48622 101.17 12.8744 102.326 12.5558C102.479 11.8317 101.258 7.36733 101.377 5.32847Z" fill="#FF9B34"/>
<path d="M92.9061 115.773L92.6725 115.603C91.4195 114.702 90.2582 114.14 89.01 113.08C81.077 106.346 80.4237 94.5892 86.3019 86.3586C89.5476 81.7705 94.5208 78.7011 100.078 77.8566C106.002 76.921 111.779 78.1938 116.625 81.7522C120.858 84.8818 123.688 89.5519 124.506 94.7524C125.62 102.055 122.934 109.584 116.872 113.867C116.151 114.377 112.97 115.959 112.743 116.26C106.227 111.385 99.6689 111.27 92.9061 115.773Z" fill="#F1811A"/>
<path d="M101.606 83.5051C117.31 82.0352 117.26 93.9912 104.547 96.4866C104.437 99.0103 104.388 101.536 104.402 104.062C108.116 110.156 111.46 105.354 113.419 106.394C113.597 107.47 112.314 108.464 111.401 108.816C108.992 109.746 106.91 109.179 104.787 107.932C104.268 107.497 103.764 106.986 103.273 106.513C100.718 108.887 96.842 110.589 93.5922 107.707C93.3345 107.478 93.5006 106.843 93.5731 106.556C95.2532 105.209 98.5518 110.29 102.172 103.963C102.224 101.446 102.124 99.0102 102.057 96.4965C100.071 96.1139 98.4845 95.4706 96.7862 94.3315C94.213 92.6059 91.9125 89.1983 94.2501 86.307C95.9269 84.2331 99.0813 83.7862 101.606 83.5051Z" fill="#502A02"/>
<path d="M99.0824 85.6058C102.085 84.7774 106.042 84.9354 109.01 85.7928C109.893 85.9173 110.055 86.0187 110.863 86.4218C111.261 86.8045 111.433 86.9018 111.584 87.4375C111.258 88.4386 110.411 88.594 109.459 88.7394C107.356 88.8753 96.2173 89.3853 95.3601 87.635C95.4531 86.0194 97.7746 85.8052 99.0824 85.6058Z" fill="#874100"/>
<path d="M99.093 85.6058C102.096 84.7774 106.053 84.9354 109.021 85.7928C109.097 86.2166 109.062 86.2431 108.986 86.6754C107.872 87.9467 100.668 87.5238 99.2293 86.8107C98.8895 86.2642 99.0033 86.4146 99.093 85.6058Z" fill="#A95001"/>
<path d="M110.884 86.4204C111.282 86.8031 111.455 86.9004 111.605 87.4361C111.279 88.4372 110.432 88.5926 109.48 88.738C109.968 87.7218 110.134 87.3002 110.884 86.4204Z" fill="#693600"/>
<path d="M47.4991 183.948C45.069 184.482 42.7613 184.419 40.3023 184.084C33.486 183.204 27.3025 179.641 23.1237 174.186C18.5015 168.075 17.4733 161.289 18.4646 153.9C18.478 153.956 18.4915 154.011 18.5049 154.066C18.8582 155.97 18.932 157.607 19.3375 159.551C20.5748 165.903 24.4307 171.735 29.9222 175.176C31.9352 176.438 36.97 178.801 39.2966 178.422C42.3061 177.93 41.843 179.105 44.4781 179.694C49.1369 180.734 55.554 180.307 58.7798 176.29C59.0225 175.986 59.4316 175.307 59.6393 174.948L60.2046 175.098C61.5167 177.342 60.0918 179.694 58.1727 181C54.9575 183.189 51.1068 183.755 47.2916 183.499C46.6139 183.453 45.6663 183.125 44.9267 182.994L44.488 183.322L44.5061 183.422C45.0409 183.763 46.7609 183.865 47.4991 183.948Z" fill="#F1811A"/>
<path d="M185.31 153.96C186.524 160.052 184.716 167.938 181.255 173.076C177.357 178.796 171.33 182.714 164.523 183.961C161.266 184.57 158.595 184.555 155.367 183.941C156.349 183.766 157.096 183.689 158.01 183.28C156.761 183.187 155.385 183.475 154.079 183.511C149.877 183.627 142.963 181.762 142.761 176.641C142.732 175.86 143.315 175.203 143.946 174.815C145.14 177.54 146.968 178.832 149.779 179.651C153.779 180.831 158.082 180.375 161.747 178.385C162.194 178.492 163.257 178.745 163.669 178.72C176.875 177.895 184.754 166.277 185.31 153.96Z" fill="#F1811A"/>
<path d="M176.88 89.2803C178.556 102.357 171.495 114.73 162.007 123.159L163.244 123.999C164.306 123.268 165.086 122.626 166.038 121.743C170.319 125.545 174.219 129.426 177.43 134.214C176.466 133.941 173.418 131.684 172.195 130.916C166.519 127.356 159.586 128.39 152.902 128.729C152.473 128.442 152.633 128.631 152.44 128.112C152.537 127.782 152.766 127.404 153.068 127.22C166.14 119.262 176.349 104.923 176.88 89.2803Z" fill="#F1811A"/>
<path d="M163.228 124C162.412 124.586 160.244 126.415 159.24 125.912C159.323 124.968 161.213 123.752 161.991 123.161L163.228 124Z" fill="#874100"/>
<path d="M42.2531 120.67C40.8095 119.14 39.504 117.706 38.1863 116.051C32.8674 109.372 29.1143 99.0954 30.2404 90.4604C32.0912 104.711 37.8697 115.084 49.1515 124.231C50.5474 125.363 52.0417 126.29 53.2377 127.654C53.1583 128.251 53.2837 127.993 52.7903 128.422C49.8876 129.253 39.89 124.882 36.7821 123.835C37.8896 122.915 38.991 121.988 40.0863 121.054C40.3783 121.252 40.9257 121.744 41.2184 121.993L42.2531 120.67Z" fill="#F1811A"/>
<path d="M44.111 122.44C44.8437 123.034 46.5129 124.126 46.4895 125.12C45.4177 125.571 43.5501 123.901 42.72 123.269C43.2376 122.904 43.5475 122.74 44.111 122.44Z" fill="#D16B0B"/>
<path d="M42.2346 120.661L44.1036 122.443C43.5401 122.742 43.2302 122.906 42.7126 123.271C42.3407 123.017 41.5735 122.309 41.2 121.984L42.2346 120.661Z" fill="#A95001"/>
<path d="M42.7251 28.1169L42.9724 28.5079C44.2634 28.5115 46.0401 24.7948 49.1726 25.939C52.162 27.0306 52.6149 27.6917 54.2298 30.3974C51.6629 32.8303 49.8474 34.6169 47.829 37.595L47.7168 37.604C43.1832 35.4337 42.3322 32.7977 42.7251 28.1169Z" fill="#A95001"/>
<path d="M152.76 29.9794C153.943 28.0835 155.732 25.8356 158.184 25.6864C160.071 25.5716 161.67 27.0585 162.907 28.2872C163.321 28.6984 163.605 28.5875 164.137 28.5673C164.452 33.1611 163.248 35.0013 159.459 37.3841C157.601 34.6008 155.344 32.1059 152.76 29.9794Z" fill="#A95001"/>
<path d="M150.52 30.3804C151.719 27.524 153.79 24.8915 156.947 24.1027C160.324 23.2584 163.458 25.1084 164.165 28.5652C163.633 28.5854 163.349 28.6963 162.935 28.2851C161.698 27.0564 160.099 25.5695 158.213 25.6843C155.76 25.8335 153.971 28.0814 152.788 29.9773C155.372 32.1038 157.63 34.5987 159.487 37.382C160.158 38.2637 160.741 39.0081 161.312 39.9591C160.932 40.3124 160.379 40.8624 159.972 41.1337C157.479 37.6286 153.921 33.0164 150.52 30.3804Z" fill="#502A02"/>
<path d="M42.72 28.1026C45.9032 20.3704 53.8575 24.3569 56.4352 30.5675L56.5183 30.7734C54.7711 32.404 53.3058 33.8102 51.7095 35.6152C50.7317 36.7206 49.8857 37.9547 48.9918 38.9716C48.2887 38.4031 48.1499 38.4062 47.8239 37.5808C49.8423 34.6026 51.6577 32.8161 54.2247 30.3831C52.6098 27.6774 52.1569 27.0163 49.1675 25.9247C46.035 24.7805 44.2583 28.4972 42.9673 28.4936L42.72 28.1026Z" fill="#502A02"/>
<path d="M42.1599 151.193C49.8284 147.912 61.8568 147.81 65.9102 156.555L65.625 156.648C65.4289 156.603 62.3908 153.766 61.7499 153.306C55.9191 149.111 49.8402 149.978 43.3523 151.85C42.9157 151.976 42.4736 151.451 42.1599 151.193Z" fill="#FDB464"/>
<path d="M41.6399 18.3717C46.936 14.6991 53.7918 15.0479 58.5577 19.4573C56.3431 20.7909 55.3765 18.9578 53.4653 18.4312C51.2762 17.8282 47.6966 17.4417 45.4215 17.841C44.1865 18.0576 42.7629 18.4953 41.6399 18.3717Z" fill="#FDB464"/>
<path d="M148.36 19.3848C150.062 17.854 151.899 16.8171 154.121 16.2453C157.446 15.3633 160.989 15.8648 163.94 17.636L163.791 17.651C161.556 17.8623 158.317 17.7341 155.968 17.9366C153.955 18.11 150.121 20.2572 148.36 19.3848Z" fill="#FDB464"/>
<path d="M101.4 5.32847C101.584 3.82809 102.207 1.34044 104.323 1.95584C106.738 2.658 107.854 5.65308 108.335 7.9084L108.066 8.0055C107.033 7.53619 106.447 3.26495 103.397 3.75996C102.593 4.23807 102.25 5.07821 101.793 5.92386L101.579 5.95042L101.4 5.32847Z" fill="#FDB464"/>
<path d="M162.16 41.1789C164.966 39.8069 166.972 38.7867 168.686 36.1178C169.209 35.3026 169.956 34.0006 170.572 33.3604C169.695 36.9222 167.75 39.7681 164.613 41.7905C164.15 42.0889 163.545 42.4222 162.99 42.458L162.16 41.1789Z" fill="#F1811A"/>
<path d="M141.87 174.008C138.757 172.107 138.017 169.992 138.646 166.42C140.095 170.479 140.585 171.676 144.967 172.445C143.536 172.862 143.024 173.166 141.87 174.008Z" fill="#F1811A"/>
<path d="M64.8432 166.46C65.2952 169.296 64.7066 173.101 61.5004 174.034C60.4545 173.263 60.0007 173.023 58.8401 172.426C62.7767 171.571 63.8393 170.234 64.8432 166.46Z" fill="#F1811A"/>
<path d="M36.3601 34.3999C37.1294 34.9065 37.5362 35.8253 38.093 36.6385C39.6061 38.8483 42.5421 40.9836 45.2101 41.4367C44.8733 41.9242 44.4669 42.5529 44.1171 43.0129C40.3747 41.3357 37.569 38.3258 36.3601 34.3999Z" fill="#F1811A"/>
<path d="M64.0449 164.748C63.4433 164.1 63.0383 163.662 62.3147 163.132C61.3063 162.396 59.272 161.585 58.5601 160.623L58.6449 160.367C60.4364 159.96 62.5952 161.062 63.9841 162.147L65.351 163.637C64.8815 164.01 64.4709 164.32 64.0449 164.748Z" fill="#D16B0B"/>
<path d="M59.6581 174.962C58.5744 174.331 55.3064 173.407 54.9199 172.631L55.1133 172.399C56.5272 172.027 57.3951 172.258 58.8514 172.446C60.012 173.043 60.4658 173.283 61.5117 174.054C60.8638 174.29 60.6258 174.516 60.2234 175.113L59.6581 174.962Z" fill="#D16B0B"/>
<path d="M111.52 9.59078C112.871 7.54968 116.022 5.03306 118.414 6.93429C117.845 7.2601 116.118 7.71336 115.247 8.04607C113.814 8.59404 113.124 9.17891 111.903 9.70048L111.52 9.59078Z" fill="#FDB464"/>
<path d="M47.8135 37.5801C48.1394 38.4056 48.2783 38.4025 48.9813 38.9709C48.4965 39.6659 47.106 41.7775 46.6249 42.2936C46.2177 41.6043 46.2651 41.4205 45.52 41.0752C45.7991 40.1053 47.1498 38.7793 47.7012 37.589L47.8135 37.5801Z" fill="#D16B0B"/>
<path d="M137.071 157.661C137.393 159.732 137.874 161.336 140.073 161.923C139.435 162.53 138.823 163.092 138.238 163.754C138.03 163.506 137.83 163.252 137.636 162.992C136.445 161.372 136.795 159.492 137.071 157.661Z" fill="#F1811A"/>
<path d="M141.146 161.261L141.821 162.653C140.708 163.518 140.468 163.703 139.535 164.774C138.923 164.434 138.759 164.241 138.24 163.753C138.825 163.091 139.437 162.528 140.075 161.921L141.146 161.261Z" fill="#693600"/>
<path d="M141.16 161.254C142.162 160.717 143.787 159.91 144.929 160.345L145.025 160.624C144.394 161.692 142.966 162.031 141.834 162.645L141.16 161.254Z" fill="#A95001"/>
<path d="M91.4399 6.74794C93.7684 5.62132 96.2581 7.15551 98 8.69591C97.5099 8.8658 92.1787 7.08134 91.4399 6.74794Z" fill="#FDB464"/>
<path d="M66.5511 158.301C66.7788 160.46 66.9975 161.973 65.3269 163.634L63.96 162.144C65.5885 161.326 66.3945 160.145 66.5511 158.301Z" fill="#F1811A"/>
<path d="M161.3 39.96L162.161 41.1908L162.99 42.4699C162.437 42.4976 161.711 42.8545 161.373 43.2931C160.907 42.5709 160.436 41.8514 159.96 41.1345C160.367 40.8632 160.921 40.3132 161.3 39.96Z" fill="#693600"/>
<path d="M145.6 172.345C146.797 172.132 147.334 171.976 148.475 172.333L148.71 172.619C148.129 173.636 146.788 173.654 145.688 173.907L145.6 172.345Z" fill="#A95001"/>
<path d="M163.207 150.601C163.811 151.004 164.523 151.416 164.865 152.072L164.778 152.353C163.573 152.627 162.212 151.646 161.16 151.025L163.207 150.601Z" fill="#D16B0B"/>
<path d="M155.92 142.92C156.42 142.263 156.694 141.764 157.424 141.4L157.864 141.414C158.385 142.466 157.521 143.268 156.893 144.132L155.92 142.92Z" fill="#D16B0B"/>
<path d="M47.2197 144.27C46.7801 143.264 45.683 142.438 46.025 141.262L46.3042 141.181C47.3905 141.633 47.6154 141.996 48.2794 142.985C47.919 143.383 47.4895 143.813 47.2197 144.27Z" fill="#D16B0B"/>
<path d="M45.5137 41.0801C46.2588 41.4254 46.2114 41.6092 46.6186 42.2985L45.8525 43.7178C45.378 43.5588 44.6077 43.2091 44.1201 43.007C44.4699 42.547 44.8763 41.9183 45.2131 41.4307L45.5137 41.0801Z" fill="#A95001"/>
<path d="M41.6214 151.343C40.8161 151.792 39.6177 152.692 38.693 152.325L38.6799 152.023C39.0045 151.366 39.4585 151.086 40.0303 150.621C40.6017 150.903 41.0306 151.105 41.6214 151.343Z" fill="#874100"/>
<path d="M149.795 86.4037C152.153 86.1804 154.171 86.2516 156.351 87.2972C160.337 89.2082 162.336 93.689 160.039 97.6948C158.554 100.283 156.284 101.22 153.576 101.964C140.828 103.817 137.817 88.7165 149.795 86.4037Z" fill="#FDB464"/>
<path d="M55.3911 86.2803C59.8051 86.4446 64.3468 88.5078 64.8837 93.4419C65.1005 95.4301 64.4903 97.4199 63.1959 98.9446C61.2827 101.203 58.7463 101.918 55.9466 102.124C43.4524 101.934 42.7573 87.0143 55.3911 86.2803Z" fill="#FDB464"/>
<path d="M73.9244 70.9204C83.0117 71.5301 83.5389 87.0535 74.0377 88.4854C72.6297 88.3691 71.2918 88.1892 70.139 87.2904C64.4041 82.8198 66.0287 71.8057 73.9244 70.9204Z" fill="#502A02"/>
<path d="M73.2746 73.9526C73.608 73.9015 73.946 73.8879 74.2825 73.9119C76.6405 74.0768 76.7552 76.8333 74.9864 78.4375C74.5776 78.5353 74.2841 78.6257 73.8627 78.5694C73.2849 78.496 72.7608 78.1933 72.4084 77.7293C71.3965 76.3861 72.09 74.882 73.2746 73.9526Z" fill="#FEFEFE"/>
<path d="M131.904 71.0635C141.764 69.9031 143.715 85.1213 135.233 88.2004C125.601 90.3036 122.995 74.4259 131.904 71.0635Z" fill="#502A02"/>
<path d="M132.525 73.7803C135.464 74.1859 135.94 77.2983 133.199 78.6543C130.236 78.3364 129.729 74.9971 132.525 73.7803Z" fill="#FEFEFE"/>
<path d="M128.672 58.8804C129.85 58.8835 130.135 59.2941 131.008 59.9923C132.325 61.0462 133.526 61.7909 135.126 62.3339C136.451 62.7827 137.671 62.4479 138.919 62.9334C139.297 63.0881 139.376 63.4633 139.471 63.7836C139.302 64.3929 139.226 64.38 138.733 64.7664C135.618 65.2438 132.181 64.3974 129.64 62.5314C128.307 61.5529 127.532 60.3583 128.672 58.8804Z" fill="#502A02"/>
<path d="M77.7001 58.8804C78.5309 59.0227 79.0411 59.2688 79.3553 60.0718C79.1522 61.7899 76.5021 63.3577 75.0074 64.0237C73.1589 64.8471 71.5568 64.9921 69.5719 64.8793C68.6441 64.7998 68.3199 64.7727 67.8 63.9172C67.8213 63.3881 68.1578 62.8368 68.5893 62.8137C72.8935 62.5816 74.4442 61.9472 77.7001 58.8804Z" fill="#502A02"/>
<path d="M67.1046 154.722L66.8476 154.129C66.9457 153.486 71.737 147.016 72.5297 145.909C76.4329 140.424 80.3752 134.967 84.3568 129.538C85.6404 127.786 91.3218 119.804 92.6197 118.561C94.4585 116.818 96.7128 115.575 99.1685 114.95C102.778 114.055 106.366 114.56 109.557 116.462C112.73 118.117 115.288 122.411 117.332 125.3L124.771 135.886L132.807 147.537C133.987 149.267 135.841 151.814 136.834 153.567C136.777 153.875 136.85 153.784 136.729 153.903C136.205 154.996 135.368 157.073 134.88 157.975C134.925 161.475 134.83 162.497 137.048 165.34C136.206 168.044 136.493 169.064 136.755 171.742C137.032 172.237 137.317 172.731 137.607 173.219C137.726 173.384 138.495 174.481 138.595 174.571C140.051 174.84 141.576 175.637 140.391 177.286C141.077 178.752 141.415 179.756 142.462 181.037C143.078 181.794 143.757 182.448 144.254 183.259C145.906 183.302 148.016 184.5 149.78 184.864C150.463 185.006 152.583 185.335 152.947 185.547C154.496 185.58 156.26 186.18 158.14 186.256C158.739 187.257 159.323 188.271 159.984 189.232C161.716 191.912 164.643 196.341 166.071 199.194C166.431 199.877 166.543 200.167 167.056 200.724C169.3 198.142 171.964 195.958 174.936 194.266C181.78 190.713 188.902 189.904 195.37 194.766C198.54 197.09 201.087 201.534 201.556 205.405C203.595 222.154 190.428 242.153 173.48 244.712C170.386 245.164 167.238 245.109 164.161 244.549C161.329 244.048 158.133 242.969 155.391 242.044C148.894 239.854 142.265 237.774 135.839 235.397C136.627 234.923 137.462 234.459 138.178 233.89L137.402 232.706C134.797 234.147 130.913 235.492 127.958 236.321C111.376 240.984 92.3167 240.701 75.7675 236.051C72.8424 235.228 70.2251 234.205 67.4154 233.129L66.5225 234.278C67.0147 234.619 67.8268 235.038 68.3709 235.34L50.019 241.349C46.0339 242.648 41.9972 244.157 37.8476 244.768C30.2884 245.882 23.1891 243.669 17.1322 239.167C6.12482 230.988 -3.92544 209.774 5.61602 197.433C10.7293 190.494 20.2095 190.149 27.487 193.575C31.5577 195.705 33.3768 197.588 36.5531 200.777L37.3867 199.309C39.0715 195.967 41.9282 191.705 44.045 188.597L45.6984 186.091C47.3953 186.084 49.1863 185.701 50.8674 185.404C51.6532 185.08 53.7864 184.949 54.7681 184.654C56.1916 184.228 58.2913 183.122 59.6446 182.845C60.6262 181.855 62.4148 178.805 63.069 177.603C62.6673 176.915 62.5812 176.366 62.3875 175.597C62.9657 175.34 64.7382 174.447 65.1873 174.395C65.2905 174.305 66.0659 173.231 66.1875 173.067L66.5582 172.299C67.1055 170.14 66.9759 167.482 66.3224 165.354C68.8485 162.278 68.1738 161.99 68.5317 158.762L68.567 158.461C68.0857 157.397 68.026 155.707 67.1046 154.722Z" fill="#FEC002"/>
<path d="M5.61602 197.434C10.7293 190.495 20.2095 190.15 27.487 193.576C31.5577 195.706 33.3768 197.589 36.5531 200.779L37.3867 199.311L37.9078 199.666C38.4604 200.477 39.541 201.843 40.2072 202.577L40.176 202.816C41.9237 204.433 43.1183 207.017 44.3452 208.059C44.4412 208.035 44.5568 208.038 44.6291 207.971C44.7839 210.141 45.092 210.67 46.4661 212.336C47.61 212.974 48.4105 213.387 49.7792 213.413C53.8763 213.494 58.0494 213.461 62.1452 213.457L85.425 213.454L135.459 213.45C138.702 213.449 152.837 213.839 155.11 213.161C155.7 212.985 156.26 212.767 156.798 212.469C158.164 210.901 158.672 210.337 158.778 208.138C158.946 208.397 158.847 208.276 159.077 208.5C160.139 206.81 161.887 204.025 163.266 202.695L163.239 202.408C164.139 201.329 165.065 200.165 166.071 199.195C166.431 199.878 166.543 200.168 167.056 200.725C169.3 198.143 171.964 195.96 174.936 194.268C181.78 190.714 188.902 189.906 195.37 194.768C198.54 197.091 201.087 201.536 201.556 205.406C203.595 222.155 190.428 242.154 173.48 244.714C170.386 245.166 167.238 245.111 164.161 244.55C161.329 244.05 158.133 242.97 155.391 242.046C148.894 239.855 142.265 237.775 135.839 235.398C136.627 234.924 137.462 234.46 138.178 233.891L137.402 232.708C134.797 234.148 130.913 235.493 127.958 236.323C111.376 240.985 92.3167 240.702 75.7675 236.052C72.8424 235.229 70.2251 234.206 67.4154 233.13L66.5225 234.279C67.0147 234.62 67.8268 235.04 68.3709 235.341L50.019 241.351C46.0339 242.649 41.9972 244.158 37.8476 244.769C30.2884 245.883 23.1891 243.67 17.1322 239.169C6.12482 230.99 -3.92544 209.775 5.61602 197.434Z" fill="#F1811A"/>
<path d="M46.4734 212.341C47.6173 212.979 48.4177 213.391 49.7865 213.417C53.8836 213.498 58.0566 213.465 62.1525 213.462L85.4323 213.458L135.467 213.455C138.709 213.453 152.844 213.843 155.117 213.165C155.707 212.989 156.268 212.772 156.806 212.474C156.928 213.683 155.671 217.446 155.391 219.273L155.319 219.319C153.51 219.597 150.91 219.521 149.027 219.523L139.741 219.519H108.046L68.3932 219.512L56.7855 219.518C54.0426 219.518 51.0308 219.611 48.3306 219.262C48.1959 219.209 47.6994 219.155 47.5254 219.133C47.6892 216.623 46.0376 213.583 46.4734 212.341Z" fill="#2F271B"/>
<path d="M48.3218 219.261C51.022 219.609 54.0338 219.516 56.7767 219.516L68.3844 219.511L108.037 219.518H139.732L149.018 219.521C150.902 219.519 153.501 219.595 155.31 219.318L155.376 219.597C155.091 220.872 154.932 221.939 154.75 223.235L154.619 223.302C152.425 223.592 149.705 223.502 147.442 223.5L136.681 223.492L100.3 223.497H65.9297L55.7882 223.504C53.6188 223.504 50.8602 223.578 48.7553 223.274L48.549 223.179C48.3996 221.815 48.2192 220.772 47.96 219.421L48.3218 219.261Z" fill="#FEC002"/>
<path d="M48.7695 223.261C50.8744 223.564 53.633 223.49 55.8024 223.49L65.9439 223.483H100.314L136.695 223.478L147.456 223.487C149.719 223.488 152.439 223.578 154.633 223.288C154.643 224.182 154.817 224.746 154.396 225.37C152.073 225.615 149.051 225.537 146.676 225.537L134.943 225.532L96.0221 225.534L64.473 225.52C60.5497 225.52 52.0003 225.789 48.6001 225.22C48.7845 224.335 48.8254 224.154 48.7695 223.261Z" fill="#502A02"/>
<path d="M163.282 202.701C163.56 203.225 163.831 203.756 164.093 204.289C160.69 208.893 158.698 213.291 157.216 218.801C156.669 218.957 155.947 219.184 155.4 219.274C155.679 217.448 156.937 213.684 156.814 212.475C158.18 210.907 158.687 210.343 158.794 208.144C158.962 208.403 158.863 208.282 159.093 208.506C160.155 206.816 161.902 204.03 163.282 202.701Z" fill="#502A02"/>
<path d="M39.5601 204.525C39.7487 203.88 39.92 203.447 40.172 202.821C41.9197 204.439 43.1143 207.022 44.3411 208.064C44.4372 208.04 44.5528 208.043 44.625 207.976C44.7799 210.146 45.088 210.675 46.4621 212.342C46.0262 213.583 47.6779 216.624 47.514 219.134C47.0709 218.965 46.5594 218.86 46.0949 218.747C44.4665 213.056 43.0488 209.473 39.5601 204.525Z" fill="#502A02"/>
<path d="M5.63989 197.44C10.7532 190.501 20.2334 190.156 27.5109 193.581C27.3176 193.69 27.124 193.799 26.9307 193.905C22.0142 193.204 17.1276 191.448 12.3136 193.823C11.254 194.345 9.81005 194.626 8.99958 195.623C8.24465 196.349 6.89657 197.562 5.88326 197.747L5.63989 197.44Z" fill="#FDB464"/>
<path d="M174.96 194.268C181.804 190.714 188.925 189.906 195.393 194.768C195.238 194.906 194.862 195.347 194.631 195.23C192.313 194.067 190.504 193.203 187.92 192.762C183.615 192.025 179.876 193.638 175.833 194.837C175.458 194.949 175.182 194.506 174.96 194.268Z" fill="#FDB464"/>
<path d="M166.072 199.201C166.433 199.884 166.545 200.173 167.057 200.731C166.281 201.652 164.827 203.521 164.078 204.289C163.816 203.756 163.545 203.225 163.268 202.7L163.24 202.414C164.14 201.334 165.067 200.17 166.072 199.201Z" fill="#FD9022"/>
<path d="M66.5334 234.279C65.6863 233.655 63.64 233.001 63.3601 231.942C63.6195 231.464 63.4441 231.666 63.9543 231.361C64.7761 231.514 66.3838 232.715 67.4263 233.13L66.5334 234.279Z" fill="#D16B0B"/>
<path d="M137.4 232.714C138.04 232.22 139.235 231.541 140.078 231.501L140.506 231.722C140.674 232.824 139.08 233.543 138.176 233.897L137.4 232.714Z" fill="#D16B0B"/>
<path d="M154.767 223.224L156.354 223.041C156.178 224.793 156.199 225.043 154.4 225.373C154.821 224.749 154.647 224.185 154.636 223.291L154.767 223.224Z" fill="#874100"/>
<path d="M47.0801 223.141L48.5811 223.172L48.7874 223.267C48.8433 224.16 48.8024 224.341 48.6181 225.226C48.3164 225.133 47.9999 225.017 47.6996 224.914C47.2053 224.438 47.1975 223.832 47.0801 223.141Z" fill="#693600"/>
<path d="M46.1201 218.741C46.5846 218.853 47.0962 218.958 47.5393 219.127C47.7133 219.149 48.2099 219.203 48.3446 219.256L47.9827 219.417C47.7207 220.184 47.3002 220.284 46.5708 220.562L46.1201 218.741Z" fill="#D16B0B"/>
<path d="M155.392 219.273C155.939 219.184 156.662 218.956 157.209 218.801L156.793 220.574L155.386 219.599L155.32 219.32L155.392 219.273Z" fill="#D16B0B"/>
<path d="M181.898 210.945C192.314 210.145 194.41 220.388 190.236 227.763C187.542 232.524 184.346 235.942 179.028 237.588C163.205 240.033 166.974 214.034 181.898 210.945Z" fill="#A95001"/>
<path d="M18.9123 210.938C26.7186 210.309 32.5028 217.732 33.8383 224.719C34.9963 230.777 33.8159 236.546 26.8592 237.816C13.097 237.935 3.6413 213.589 18.9123 210.938Z" fill="#A95001"/>
<path d="M87.7612 229.101L121.929 229.206C124.011 229.218 132.997 229.116 134.399 229.447L134.446 229.537C130.422 232.091 121.984 234.092 117.226 234.958C104.207 236.715 90.9867 236.436 78.3598 232.59C75.2379 231.639 72.7813 230.982 69.96 229.29C75.1838 228.933 82.2245 229.223 87.7612 229.101Z" fill="#FD9022"/>
<path d="M192.632 199.201C195.928 199.521 195.952 202.44 194.785 204.924C193.908 206.79 193.018 207.675 191.114 208.38C185.769 208.342 188.26 200.21 192.632 199.201Z" fill="#A95001"/>
<path d="M10.0768 199.164C14.2856 198.976 17.6011 206.062 13.4003 208.418C8.88516 208.433 6.08292 201.643 10.0768 199.164Z" fill="#A95001"/>
<path d="M183.153 198.5C188.021 199.213 186.092 206.083 181.924 207.506C177.094 207.218 178.643 199.532 183.153 198.5Z" fill="#A95001"/>
<path d="M19.3813 198.648C23.9061 198.398 26.5452 204.759 22.7295 207.365C18.3623 208.151 15.6044 201.09 19.3813 198.648Z" fill="#A95001"/>
<path d="M196.902 206.778C202.139 206.396 200.314 212.336 197.049 214.309C192.337 214.994 193.497 208.781 196.902 206.778Z" fill="#A95001"/>
<path d="M5.43422 206.561C9.17699 206.826 11.2421 212.63 7.71921 214.407C3.98404 214.134 1.50087 208.556 5.43422 206.561Z" fill="#A95001"/>
<path d="M67.1023 154.722L66.8453 154.129C66.9434 153.486 71.7347 147.016 72.5274 145.909C76.4305 140.424 80.3729 134.967 84.3545 129.538C85.6381 127.786 91.3195 119.804 92.6174 118.561C94.4562 116.818 96.7104 115.575 99.1662 114.95C102.776 114.055 106.364 114.56 109.554 116.462C112.728 118.117 115.286 122.411 117.33 125.3L124.769 135.886L132.804 147.537C133.984 149.267 135.838 151.814 136.832 153.567C136.775 153.875 136.847 153.784 136.727 153.903C136.202 154.996 135.366 157.073 134.878 157.975C134.922 161.475 134.828 162.497 137.046 165.34C136.204 168.044 136.49 169.064 136.752 171.742C129.814 161.385 122.778 151.095 115.648 140.869L109.711 132.304C108.64 130.76 107.04 128.34 105.851 126.984C105.168 126.198 104.251 125.652 103.233 125.428C100.006 124.747 98.1503 127.797 96.5597 130.02C94.8153 132.457 93.0779 134.901 91.3243 137.333L66.5558 172.299C67.1031 170.14 66.9736 167.482 66.3201 165.354C68.8462 162.278 68.1714 161.99 68.5293 158.762L68.5647 158.461C68.0833 157.397 68.0236 155.707 67.1023 154.722Z" fill="#2F271B"/>
<path d="M67.1369 154.722L66.8799 154.129C66.978 153.486 71.7693 147.016 72.562 145.909C76.4651 140.424 80.4075 134.967 84.3891 129.538C85.6727 127.786 91.3541 119.804 92.652 118.561C94.4908 116.818 96.745 115.575 99.2008 114.95C102.811 114.055 106.398 114.56 109.589 116.462C112.763 118.117 115.321 122.411 117.364 125.3L124.803 135.886L132.839 147.537C134.019 149.267 135.873 151.814 136.866 153.567C136.81 153.875 136.882 153.784 136.761 153.903C136.237 154.996 135.4 157.073 134.912 157.975L134.143 156.735C128.703 148.751 123.22 140.796 117.697 132.871C115.659 129.939 112.016 124.088 109.674 121.8C108.24 120.403 106.31 119.47 104.348 119.106C101.809 118.634 98.6799 119.168 96.5841 120.73C93.4973 123.03 86.1956 133.959 83.4879 137.716C78.5149 144.617 73.4387 151.468 68.5993 158.461C68.1179 157.397 68.0582 155.707 67.1369 154.722Z" fill="#FEC002"/>
<path d="M67.1369 154.722L66.8799 154.129C66.978 153.486 71.7693 147.016 72.562 145.909C76.4651 140.424 80.4075 134.967 84.3891 129.538C85.6727 127.786 91.3541 119.804 92.652 118.561C94.4908 116.818 96.745 115.575 99.2008 114.95C102.811 114.055 106.398 114.56 109.589 116.462C109.51 116.499 109.43 116.539 109.349 116.572C107.947 117.151 102.538 114.085 96.1533 117.288C94.7039 118.015 93.3697 119.34 92.3036 120.554C89.8865 123.307 87.8245 126.551 85.6649 129.514C80.923 136.02 76.2727 142.609 71.4712 149.068C70.2804 150.671 68.6667 153.625 67.1369 154.722Z" fill="#FED398"/>
<path d="M134.12 156.732C134.85 155.61 135.484 154.313 136.738 153.9C136.214 154.994 135.377 157.071 134.889 157.973L134.12 156.732Z" fill="#FDB464"/>
<path d="M50.8806 185.4C51.6664 185.076 53.7996 184.945 54.7813 184.65C56.2048 184.224 58.3045 183.119 59.6578 182.841C59.2811 183.474 58.8975 184.103 58.507 184.728C55.8557 188.724 45.1729 204.302 44.6422 207.966C44.57 208.033 44.4544 208.029 44.3583 208.054C43.1315 207.012 41.9369 204.428 40.1892 202.81L40.2204 202.572C39.5541 201.838 38.4736 200.472 37.921 199.661L37.3999 199.306C39.0847 195.963 41.9414 191.701 44.0582 188.593L45.7116 186.087C47.4084 186.08 49.1994 185.697 50.8806 185.4Z" fill="#2F271B"/>
<path d="M45.7116 186.087C47.4084 186.08 49.1994 185.698 50.8806 185.401C50.4615 186.022 48.817 188.609 48.4859 188.997C46.232 192.474 41.8112 198.956 40.2204 202.573C39.5541 201.838 38.4736 200.472 37.921 199.661L37.3999 199.306C39.0847 195.963 41.9414 191.701 44.0582 188.593L45.7116 186.087Z" fill="#FEC002"/>
<path d="M45.7334 186.087C47.4303 186.08 49.2213 185.698 50.9024 185.401C50.4833 186.022 48.8389 188.609 48.5077 188.997C47.7221 188.926 45.6472 188.992 44.7712 188.994L44.0801 188.593L45.7334 186.087Z" fill="#FDB464"/>
<path d="M44.0582 188.601L44.7493 189.001C43.542 190.757 42.5168 192.297 41.4029 194.103C40.4695 195.617 38.9853 198.335 37.921 199.668L37.3999 199.313C39.0847 195.971 41.9414 191.709 44.0582 188.601Z" fill="#FED398"/>
<path d="M144.28 183.261C145.932 183.304 148.042 184.503 149.806 184.867C150.489 185.008 152.609 185.337 152.973 185.55C154.522 185.582 156.286 186.183 158.166 186.258C158.765 187.259 159.349 188.273 160.01 189.234C161.742 191.914 164.669 196.343 166.097 199.196C165.091 200.165 164.165 201.33 163.265 202.409L163.292 202.696C161.912 204.025 160.165 206.811 159.103 208.501C158.873 208.277 158.972 208.398 158.804 208.139C158.287 203.663 150.413 193.834 148.099 189.275C147.611 188.313 145.946 185.874 145.253 184.999C144.975 184.446 144.59 183.809 144.28 183.261Z" fill="#2F271B"/>
<path d="M152.96 185.541C154.509 185.573 156.273 186.174 158.153 186.249C158.752 187.25 159.336 188.264 159.997 189.225C161.729 191.905 164.656 196.334 166.084 199.187C165.078 200.156 164.152 201.321 163.252 202.4C161.116 198.292 157.641 192.961 155.169 188.971C154.78 188.486 153.402 186.218 152.96 185.541Z" fill="#FEC002"/>
<path d="M152.96 185.541C154.509 185.573 156.273 186.174 158.153 186.249C158.752 187.25 159.336 188.264 159.997 189.225C158.881 189.064 156.135 188.621 155.169 188.971C154.78 188.486 153.402 186.218 152.96 185.541Z" fill="#FDB464"/>
<path d="M65.2135 174.389C65.3167 174.299 66.0921 173.224 66.2137 173.061C66.4381 174.734 64.5954 177.009 63.8337 178.566C62.8195 180.641 60.8649 183.959 58.52 184.725C58.9105 184.101 59.2941 183.471 59.6708 182.838C60.6524 181.848 62.441 178.799 63.0952 177.597C62.6935 176.909 62.6074 176.36 62.4137 175.591C62.9918 175.334 64.7644 174.44 65.2135 174.389Z" fill="#FDB464"/>
<path d="M62.3999 175.603C62.978 175.346 64.7506 174.452 65.1997 174.4C64.5098 175.547 63.8466 176.51 63.0814 177.608C62.6797 176.92 62.5936 176.372 62.3999 175.603Z" fill="#2F271B"/>
<path d="M137.636 173.221C137.755 173.386 138.524 174.483 138.624 174.573C140.08 174.842 141.605 175.639 140.42 177.288C141.106 178.754 141.444 179.758 142.491 181.039C143.107 181.796 143.787 182.45 144.283 183.261C144.594 183.809 144.978 184.446 145.256 184.999C141.995 184.057 139.835 178.252 138.293 175.613C137.815 174.795 137.488 174.18 137.636 173.221Z" fill="#FDB464"/>
<path d="M138.6 174.561C140.056 174.83 141.581 175.626 140.396 177.275C139.725 176.328 139.205 175.552 138.6 174.561Z" fill="#2F271B"/>
<path d="M101.255 143.849C102.927 143.744 104.336 143.91 105.893 144.622C108.091 145.648 109.786 147.511 110.602 149.796C110.997 150.929 110.959 152.418 110.886 153.611C110.667 157.23 107.044 185.118 106.24 186.751C105.603 188.041 104.286 188.635 103.006 189.09C99.4322 189.476 97.1194 187.962 96.7662 184.249C95.732 173.377 93.3441 162.121 93.1606 151.235C93.0966 147.438 97.6526 144.413 101.255 143.849Z" fill="#2F271B"/>
<path d="M100.882 193.01C105.07 192.534 108.849 195.544 109.322 199.73C109.794 203.918 106.783 207.693 102.595 208.164C98.4126 208.632 94.6414 205.624 94.169 201.443C93.6967 197.26 96.7018 193.486 100.882 193.01Z" fill="#2F271B"/>
<path d="M26.151 180.061C31.6418 184.191 36.4231 185.795 43.2504 186.28C40.997 189.595 37.886 194.145 36.0058 197.69L34.4047 196.149C30.2335 192.386 25.8685 190.19 20.28 189.561C21.1324 186.682 21.6916 185.394 23.4227 182.963C24.4878 181.673 24.9124 181.135 26.151 180.061Z" fill="#FD9022"/>
<path d="M26.1682 180.061C31.659 184.191 36.4403 185.795 43.2676 186.28C41.0142 189.595 37.9032 194.145 36.023 197.69L34.4219 196.149C35.7317 195.251 36.8582 191.915 37.9213 190.08C34.4185 188.71 30.804 187.448 27.7607 185.193C26.1209 183.978 25.4202 183.386 23.4399 182.963C24.505 181.673 24.9296 181.135 26.1682 180.061Z" fill="#F1811A"/>
<path d="M176.674 180.601C177.816 181.668 178.38 182.406 179.241 183.679C179.827 184.619 180.115 185.08 180.565 186.097C181.176 187.493 181.44 188.269 181.874 189.737C176.695 190.896 173.038 192.677 169.016 196.227L167.473 197.755C165.487 194.018 162.814 189.971 160.52 186.379C166.943 185.959 171.455 184.3 176.674 180.601Z" fill="#FD9022"/>
<path d="M176.674 180.601C177.816 181.668 178.38 182.406 179.241 183.679C178.256 183.96 177.68 184.335 176.8 184.831C172.823 187.091 170.015 188.529 165.532 189.933C166.336 191.365 168.154 195.384 169.016 196.227L167.473 197.755C165.487 194.018 162.814 189.971 160.52 186.379C166.943 185.959 171.455 184.3 176.674 180.601Z" fill="#F1811A"/>
<path d="M176.8 184.833C177.68 184.336 178.256 183.962 179.241 183.681C179.827 184.621 180.115 185.081 180.565 186.099C179.411 185.581 178.023 185.195 176.8 184.833Z" fill="#F1811A"/>
</svg>
