<svg width="230" height="268" viewBox="0 0 230 268" fill="none" xmlns="http://www.w3.org/2000/svg">
<path d="M79.6089 24.1056C85.9392 20.5723 99.1813 16.9502 101.28 15.4022C100.859 5.7376 104.542 6.39397 112.357 8.24146C114.422 7.33777 114.375 4.54182 117.637 1.95507C123.125 0.15303 125.198 4.39075 127.905 8.3297C131.194 8.93996 133.954 4.44424 137.912 7.38057C144.476 12.2446 135.305 15.8667 143.734 17.89C150.94 19.6198 158.621 23.0281 165.145 26.4931C170.686 22.466 175.198 19.6446 182.672 20.1867C188.507 20.6646 193.902 23.4719 197.645 27.9763C206.395 38.3488 203.982 50.3447 194.122 58.7607C202.679 76.2042 209.945 101.929 206.034 121.16C219.804 154.393 229.343 185.564 219.804 221.329C228.588 227.245 228.22 235.794 222.96 244.022L226.542 245.833C228.254 246.702 228.909 246.856 229.952 248.493C229.129 261.641 136.769 268.158 123.012 267.202C118.941 267.75 116.762 267.369 112.684 266.922C101.347 268.766 26.1056 260.779 20.3435 253.961L20.4972 252.484C22.7098 250.338 26.9412 249.175 30.0094 248.026C24.6483 239.59 15.8113 219.288 27.4826 212.828C29.9425 211.467 29.9693 206.093 33.5455 204.376C38.8865 201.81 39.4614 202.914 44.3946 204.568C47.0216 204.232 48.2649 202.357 50.2302 200.348C48.0042 198.963 46.166 197.647 44.2676 195.825C39.5349 191.215 36.8544 184.897 36.821 178.289C36.6672 166.281 42.9173 156.944 50.872 148.629C31.7808 132.409 32.2755 115.449 39.7622 95.7305C43.158 86.7825 42.3625 69.1431 47.6567 59.2841C48.3585 57.974 51.5605 53.3406 51.9549 51.5552C37.8838 31.6753 59.0806 7.92197 79.6089 24.1056Z" fill="#3F2306"/>
<path d="M222.959 244.022L226.542 245.833C228.254 246.702 228.909 246.856 229.951 248.494C229.129 261.641 136.769 268.158 123.012 267.203C127.484 265.826 129.369 264.676 132.972 261.949C154.884 263.185 184.289 262.276 202.043 248.367C211.161 250.118 215.52 250.245 222.959 244.022Z" fill="#EFCEAA"/>
<path d="M30.0094 248.026C43.3117 263.092 48.7195 261.494 66.0191 256.488C70.1703 255.285 80.4311 254.717 85.8858 253.547C90.3845 255.886 95.3243 257.103 100.278 258.119C104.729 263.125 106.554 264.088 112.684 266.922C101.347 268.767 26.1056 260.779 20.3435 253.961L20.4972 252.484C22.7098 250.339 26.9412 249.176 30.0094 248.026Z" fill="#EFCEAA"/>
<path d="M115.839 9.55096C116.782 7.06848 116.755 6.78176 118.794 5.27115C122.624 4.73241 123.847 6.77907 124.964 10.212C124.623 13.8455 124.122 16.2665 123.393 19.8278C124.048 18.8653 127.424 13.7867 127.965 13.258C131.127 9.93665 132.952 9.30569 137.297 10.7628C137.611 17.1669 133.366 17.0465 134.783 19.8244C135.291 19.8565 136.515 19.9708 136.963 19.92C143.607 20.2482 157.665 24.522 162.618 29.102C162.852 30.5892 162.905 30.0492 162.431 31.5063L162.451 33.0523L163.494 33.1399C170.686 23.0168 181.916 18.7303 192.378 27.3107C196.97 31.8091 199.276 35.9004 199.376 42.2383C199.49 49.5026 193.715 57.9634 185.84 56.6012C184.57 56.3819 184.69 56.4321 183.775 57.1707L184.731 59.0562C187.511 59.2648 189.537 59.0623 191.669 60.6972C193.1 63.032 193.193 63.7599 193.955 66.4522L193.989 66.7617C198.3 75.0032 202.278 89.6394 202.725 98.9243C203.427 103.624 203.635 108.384 203.34 113.126C203.36 116.795 202.638 122.372 203.889 125.17C211.643 140.805 220.693 173.266 219.931 190.58C219.992 193.875 220.099 197.178 219.958 200.469C217.866 248.153 184.764 260.906 142.277 259.021C140.231 258.934 138.186 258.814 136.147 258.667C140.779 250.96 138.921 252.13 141.1 245.379L141.154 243.614C140.398 242.217 140.907 242.832 139.249 242.057C139.329 234.671 138.012 219.204 128.092 219.16C126.334 217.102 126.327 217.704 125.933 215.406L127.698 215.681L129.81 216.447C130.398 215.707 130.993 214.979 131.608 214.263C139.603 204.991 152.979 197.874 165.285 196.998L165.238 195.982C163.681 194.876 162.966 195.295 160.619 195.253L158.213 194.491C143.607 200.6 136.495 202.176 120.726 200.742C116.314 203.815 112.664 207.228 107.383 207.263C103.119 204.684 106.501 202.894 105.211 199.038C102.263 199.682 103.052 202.852 100.705 203.717C98.0918 204.68 96.4741 202.33 96.0062 200.29C96.5142 197.664 97.7376 196.403 99.3218 194.225L98.7001 194.031C96.9086 194.817 95.9261 195.47 93.9875 195.265C90.4581 191.45 96.3806 182.75 99.1212 179.635C103.226 173.18 108.968 171.051 115.819 168.355C125.124 166.171 140.298 159.982 148.039 154.959C146.762 153.675 147.337 154.114 145.472 153.514C131.628 161.04 117.711 164.155 103.66 170.739C102.49 167.965 103.179 168.936 100.512 167.142C97.7308 166.813 95.7656 168.424 93.6199 170.099C84.1946 177.439 82.4365 187.882 76.8015 197.591C76.0461 198.889 69.1878 204.934 67.3963 206.635C67.8976 210.077 68.6196 213.101 67.9979 216.483C67.2158 217.414 66.9083 218.196 65.4377 217.943C66.0059 216.586 64.3615 204.547 64.4016 200.786C65.8254 200.158 67.2358 199.497 68.6262 198.803C75.1637 195.49 77.4566 191.914 79.6558 185.373L77.9913 184.894C77.0087 187.391 76.8549 187.79 75.137 189.835C64.7224 200.886 53.2049 202.628 43.3652 189.852C41.547 186.365 41.2797 184.397 40.4641 180.563C40.3639 179.543 40.3037 178.521 40.2836 177.498C40.1165 167.35 46.6274 156.481 53.6261 149.627C56.8213 146.503 61.1863 141.769 65.6716 141.702C69.5219 142.409 71.1129 134.608 77.5301 139.277C77.8176 138.776 80.2106 138.031 80.986 137.728C71.4271 130.482 70.7453 139.484 62.8174 138.751C59.3013 140.621 58.7197 141.024 55.7517 143.675C54.0605 145.547 55.0499 145.047 52.951 145.647C50.2638 144.614 48.5658 141.981 46.634 139.657L45.3773 137.525C38.2783 128.929 36.5136 115.257 39.8358 104.848C41.6674 99.1068 43.7195 95.2247 44.2342 89.0205L44.3078 87.9751C44.2677 87.2432 44.2275 87.1483 44.3078 86.4036C46.995 60.5902 60.7318 36.1618 84.7762 24.7152C92.4634 21.0563 99.6025 18.7483 108.206 19.4882C106.427 16.2845 104.275 16.1629 104.329 12.8944C105.017 10.716 105.218 10.7748 107.049 10.0149C109.796 10.4667 109.99 10.8156 112.283 12.5889L117.871 19.9087C116.982 16.5426 115.813 12.9993 115.839 9.55096Z" fill="#FF9B34"/>
<path d="M65.6714 141.702C69.5217 142.409 71.1127 134.608 77.5299 139.277C76.6877 141.005 75.3306 142.96 75.6247 144.512C78.2585 142.948 80.0099 141.589 83.0179 141.163C85.0901 141.825 84.2145 141.23 85.538 143.265L85.4711 144.717C84.4751 145.592 83.5527 146.406 82.5834 147.32C85.7586 150.16 87.3696 146.326 89.0273 152.17C88.399 154.317 87.5167 154.739 85.2172 155.981L84.3281 156.45L84.8026 157.254C85.5513 162.39 80.2438 164.16 78.2518 169.562C79.3147 174.513 76.6475 180.995 74.2009 185.255L72.5766 188.098L73.1314 188.798L73.8467 188.674L75.1368 189.835C64.7222 200.886 53.2047 202.629 43.365 189.852C41.5468 186.365 41.2794 184.398 40.4639 180.563C40.3637 179.544 40.3035 178.522 40.2834 177.498C40.1163 167.351 46.6271 156.481 53.6259 149.628C56.8211 146.504 61.1861 141.769 65.6714 141.702Z" fill="#F9A248"/>
<path d="M65.6716 141.702C69.522 142.409 71.113 134.608 77.5301 139.277C76.6879 141.005 75.3309 142.96 75.625 144.512C78.2587 142.948 80.0101 141.589 83.0182 141.163C85.0904 141.825 84.2147 141.23 85.5382 143.265L85.4713 144.717C84.4753 145.592 83.5529 146.406 82.5836 147.32C85.7588 150.16 87.3698 146.326 89.0276 152.17C88.3992 154.317 87.5169 154.739 85.2174 155.981L84.3283 156.45L84.8029 157.254C85.5516 162.39 80.2441 164.16 78.252 169.562C79.3149 174.513 76.6477 180.995 74.2012 185.255L72.5769 188.098L73.1316 188.798L73.8469 188.674L75.137 189.835C64.7225 200.886 53.2049 202.629 43.3652 189.852C43.5658 189.697 45.2838 188.453 45.3439 188.477C61.1061 194.835 73.9873 188.123 74.7827 170.189C73.78 169.387 73.6464 169.367 72.4632 168.942C72.4565 167.295 72.6236 167.222 71.7413 165.889C63.7131 165.741 59.6422 154.311 59.2344 147.493C61.2531 144.886 63.0914 143.673 65.6716 141.702Z" fill="#E37C21"/>
<path d="M40.4639 180.563C40.3637 179.544 40.3035 178.522 40.2834 177.498C40.1163 167.35 46.6271 156.481 53.6259 149.628C56.8211 146.503 61.1861 141.769 65.6714 141.702C63.0912 143.673 61.2529 144.886 59.2342 147.493C54.0202 153.752 50.6579 157.449 46.6338 164.656C43.7928 169.745 43.3049 178.326 40.4639 180.563Z" fill="#FECC62"/>
<path d="M79.2748 110.421C83.9005 111.211 87.958 110.684 91.1532 114.43C91.5142 117.809 84.2815 120.073 81.6745 120.809C81.3269 131.087 81.1331 133.324 89.8832 139.309C95.6787 139.803 97.0356 139.562 102.029 142.543C104.83 145.655 105.579 146.984 107.724 150.546C105.05 148.628 102.383 146.671 99.6359 144.853C96.8351 144.056 94.9033 143.225 92.0423 143.606L91.2869 144.646C92.3364 149.84 93.7869 150.56 92.684 155.573C95.1706 156.996 95.545 156.972 98.4194 157.538L98.6266 157.318C96.5343 156.15 96.0798 155.909 94.7963 153.893C94.8899 152.388 94.8431 152.186 96.0062 151.12C97.303 152.343 97.3432 153.758 97.7309 155.563C100.819 158.265 118.506 158.522 123.192 158.131C128.714 157.67 134.77 156.279 140.171 154.751C141.836 154.279 144.349 152.998 145.378 152.798L145.472 153.515C131.628 161.04 117.711 164.156 103.66 170.739C102.49 167.965 103.179 168.937 100.512 167.142C97.7308 166.813 95.7656 168.425 93.6198 170.1C84.1946 177.439 82.4365 187.882 76.8014 197.592C76.0461 198.89 69.1877 204.934 67.3963 206.635C67.8976 210.078 68.6196 213.101 67.9979 216.484C67.2158 217.414 66.9083 218.197 65.4377 217.943C66.0058 216.587 64.3615 204.548 64.4016 200.786C65.8254 200.158 67.2358 199.497 68.6262 198.803C75.1637 195.49 77.4565 191.915 79.6558 185.373L77.9913 184.894C77.0087 187.392 76.8549 187.791 75.137 189.835L73.8469 188.674L73.1316 188.798L72.5768 188.098L74.2011 185.255C76.6477 180.995 79.3149 174.513 78.252 169.562C80.244 164.16 85.5515 162.39 84.8028 157.254L84.3283 156.45L85.2174 155.981C87.5169 154.739 88.3992 154.317 89.0275 152.17C87.3698 146.326 85.7588 150.16 82.5836 147.32C83.5529 146.406 84.4753 145.592 85.4713 144.717L85.5382 143.265C84.2147 141.23 85.0903 141.825 83.0181 141.163C80.0101 141.589 78.2587 142.948 75.6249 144.512C75.3308 142.96 76.6879 141.005 77.5301 139.277C77.8175 138.776 80.2106 138.031 80.986 137.729C80.0702 134.636 78.2721 121.061 77.0154 119.663C73.4726 115.718 73.0113 118.483 71.4939 111.571C74.883 110.222 75.7052 110.376 79.2748 110.421Z" fill="#E37C21"/>
<path d="M79.2747 110.421C83.9005 111.211 87.9579 110.684 91.1532 114.43C91.5141 117.809 84.2815 120.073 81.6745 120.809C81.3269 131.087 81.1331 133.324 89.8832 139.309C95.6787 139.803 97.0356 139.562 102.029 142.542C104.83 145.655 105.578 146.984 107.724 150.546C105.05 148.628 102.383 146.671 99.6359 144.853C95.9661 141.686 94.2816 141.841 89.3417 141.931L88.1652 142.758C87.3697 148.406 93.8805 148.781 90.8123 156.14C93.5396 160.423 110.064 159.176 112.744 161.087C109.148 164.127 96.7616 159.691 91.9487 159.857C88.7935 162.558 89.9968 166.167 86.7681 167.744C80.0902 171.01 80.7386 178.075 79.6557 185.373L77.9913 184.894C77.0086 187.392 76.8549 187.791 75.137 189.835L73.8469 188.674L73.1316 188.798L72.5768 188.098L74.2011 185.255C76.6477 180.995 79.3148 174.513 78.252 169.562C80.244 164.16 85.5515 162.39 84.8028 157.254L84.3282 156.45L85.2173 155.981C87.5168 154.739 88.3992 154.317 89.0275 152.17C87.3697 146.326 85.7587 150.16 82.5836 147.32C83.5528 146.406 84.4753 145.592 85.4713 144.717L85.5382 143.265C84.2146 141.23 85.0903 141.825 83.0181 141.163C80.01 141.589 78.2586 142.948 75.6249 144.512C75.3308 142.96 76.6878 141.005 77.5301 139.277C77.8175 138.776 80.2105 138.031 80.986 137.729C80.0702 134.636 78.2721 121.061 77.0154 119.663C73.4725 115.718 73.0113 118.483 71.4939 111.571C74.883 110.222 75.7052 110.376 79.2747 110.421Z" fill="#3C2005"/>
<path d="M84.8028 157.253C87.236 158.4 86.5876 157.693 87.8443 159.807C87.6371 164.647 82.1624 167.679 78.252 169.562C80.244 164.159 85.5515 162.39 84.8028 157.253Z" fill="#E37C21"/>
<path d="M73.8467 188.674C75.2036 186.575 75.5779 185.6 77.6301 184.324L77.9911 184.894C77.0084 187.392 76.8547 187.791 75.1368 189.835L73.8467 188.674Z" fill="#A45007"/>
<path d="M146.535 249.389C170.753 249.777 188.982 244.329 205.727 225.741C212.124 218.64 214.356 204.263 217.966 199.298C218.628 199.769 219.23 200.123 219.958 200.47C217.866 248.153 184.764 260.906 142.277 259.021C140.231 258.934 138.186 258.814 136.147 258.667C140.779 250.96 138.921 252.13 141.1 245.379C143.132 247.344 144.155 247.892 146.535 249.389Z" fill="#E37C21"/>
<path d="M99.1213 179.635C103.226 173.18 108.968 171.051 115.819 168.355L116.555 170.102C114.268 172.341 115.405 171.878 112.464 171.989L115.465 173.507C115.88 174.99 115.659 176.984 115.345 176.679C119.442 180.68 124.696 188.945 121.013 195.503C120.672 196.101 120.318 196.694 119.957 197.282C130.806 197.994 138.066 197.993 148.848 195.062C152.417 194.092 159.302 191.941 162.611 191.625L158.213 194.491C143.607 200.6 136.495 202.176 120.726 200.742C116.314 203.815 112.664 207.228 107.383 207.263C103.119 204.684 106.501 202.894 105.211 199.038C102.263 199.682 103.052 202.852 100.706 203.717C98.0919 204.68 96.4742 202.33 96.0062 200.29C96.5143 197.664 97.7376 196.403 99.3218 194.225L98.7001 194.031C96.9087 194.817 95.9261 195.47 93.9876 195.265C90.4581 191.45 96.3806 182.75 99.1213 179.635Z" fill="#E37C21"/>
<path d="M99.1211 179.635C103.225 173.18 108.967 171.051 115.819 168.355L116.554 170.102C114.268 172.341 115.405 171.878 112.463 171.989C105.612 173.099 104.021 179.066 99.1211 179.635Z" fill="#F19837"/>
<path d="M74.054 102.113L74.7626 105.497C77.9311 105.36 82.0153 104.311 84.395 104.322C90.6919 104.354 98.446 107.258 102.985 111.597C107.163 115.546 109.509 121.055 109.462 126.804C109.369 133.995 106.869 137.862 102.029 142.542C97.0355 139.562 95.6786 139.802 89.8831 139.309C81.133 133.323 81.3268 131.086 81.6744 120.809C84.2814 120.072 91.5141 117.809 91.1531 114.43C87.9579 110.684 83.9004 111.21 79.2747 110.421C75.7051 110.376 74.8829 110.222 71.4939 111.571L68.4724 111.79C70.3641 109.343 70.4911 108.946 73.1382 107.551C73.8468 106.236 73.907 103.726 74.054 102.113Z" fill="#D06E1B"/>
<path d="M73.1382 107.552C75.8121 107.287 76.6878 106.678 78.4391 107.955L79.2747 110.421C75.7051 110.376 74.8829 110.222 71.4939 111.571L68.4724 111.79C70.3641 109.344 70.4911 108.947 73.1382 107.552Z" fill="#F19837"/>
<path d="M44.3075 87.9754C44.2674 87.2434 44.2273 87.1485 44.3075 86.4039C46.9947 60.5905 60.7316 36.162 84.776 24.7155C92.4632 21.0566 99.6023 18.7486 108.205 19.4885C106.842 20.5553 93.2587 24.8325 87.9244 27.6171C85.4979 28.6417 84.8896 28.8443 82.784 30.3502C73.1448 35.4422 62.7168 44.3508 58.4922 54.5835C58.7529 56.2077 59.4748 56.6389 60.6647 57.7992C58.5925 60.3419 55.6713 61.5142 54.6887 62.9527C48.8865 71.4869 48.0709 84.1106 46.0455 93.5813C45.3637 92.4597 44.6551 89.3376 44.3075 87.9754Z" fill="#FED675"/>
<path d="M63.118 117.05C65.7852 115.786 66.6675 114.152 68.4724 111.79L71.4938 111.571C73.0112 118.483 73.4725 115.718 77.0153 119.663C78.272 121.061 80.0701 134.636 80.9859 137.728C71.4269 130.482 70.7452 139.484 62.8173 138.751C65.3574 137.451 60.4576 131.259 60.2303 128.359C59.9295 124.584 63.0579 119.919 63.118 117.05Z" fill="#D06E1B"/>
<path d="M63.118 117.05C54.1206 112.563 54.9027 106.383 57.8238 98.1235C55.0631 97.3756 55.1901 97.925 54.1406 96.1424C54.7088 94.3002 54.4014 94.5876 57.8038 94.2294C67.824 93.176 66.3133 91.3913 73.3455 86.9189L74.2612 87.2752L74.4818 88.62C73.5259 91.015 72.082 92.0858 70.217 93.8978C71.7679 96.6076 72.824 99.2518 74.054 102.113C73.9069 103.726 73.8468 106.236 73.1382 107.551C70.4911 108.946 70.3641 109.343 68.4724 111.79C66.6676 114.151 65.7852 115.786 63.118 117.05Z" fill="#3F2306"/>
<path d="M65.9524 97.6259C67.804 97.4942 69.4618 98.7869 69.7826 100.619C70.1035 102.452 68.9872 104.23 67.2024 104.739C65.8655 105.119 64.435 104.705 63.5058 103.674C62.5766 102.642 62.3226 101.173 62.844 99.8872C63.3587 98.6018 64.5687 97.7242 65.9524 97.6259Z" fill="#FBF9F7"/>
<path d="M41.1124 110.991C43.9667 109.175 46.4935 107.588 50.1031 108.332C51.8812 108.681 53.4387 109.735 54.428 111.253C56.8144 114.873 55.658 120.35 51.8746 122.495C47.3692 125.057 44.1204 123.09 40.2768 120.84C39.869 117.105 40.0696 114.555 41.1124 110.991Z" fill="#FFC271"/>
<path d="M201.435 101.964C201.79 105.444 201.629 110.578 203.34 113.126C203.36 116.795 202.638 122.372 203.888 125.17L202.638 125.7C199.931 132.792 195.205 132.651 189.998 137.233L188.948 137.127C188.079 135.366 188.133 135.498 188.42 133.546C189.563 131.557 190.051 131.462 192.13 130.208L192.772 129.83C197.144 120.873 199.049 111.597 201.435 101.964Z" fill="#E37C21"/>
<path d="M203.888 125.17C211.643 140.805 220.693 173.266 219.931 190.58C219.477 189.797 215.647 172.153 215.279 170.028C212.739 155.214 205.439 140.043 202.638 125.7L203.888 125.17Z" fill="#FED675"/>
<path d="M129.81 216.447C130.398 215.707 130.993 214.98 131.608 214.263C139.603 204.991 152.979 197.874 165.285 196.999C162.27 199.915 160.405 199.987 156.582 201.659C154.596 202.507 152.257 203.428 150.378 204.437C149.175 205.112 149.483 204.632 149.035 205.654C147.157 207.204 146.074 208.049 144.021 209.35C140.091 209.927 134.95 213.488 133.052 216.951L129.81 216.447Z" fill="#F59437"/>
<path d="M148.353 154.675C150.706 153.908 152.551 152.999 154.904 153.423L154.917 154.486C154.148 155.243 153.413 156.014 152.591 156.708C150.893 157.336 151.201 156.847 150.485 157.956C138.52 164.536 129.322 166.792 116.554 170.102L115.819 168.355C125.124 166.172 140.298 159.983 148.039 154.96L148.353 154.675Z" fill="#FECC62"/>
<path d="M44.3078 87.9751C44.6554 89.3373 45.3639 92.4594 46.0457 93.581C45.511 98.3809 42.5497 105.945 41.1125 110.991C40.0697 114.555 39.8692 117.104 40.2769 120.84C42.3893 127.839 42.3024 129.441 45.7583 136.519L45.3773 137.525C38.2783 128.929 36.5136 115.257 39.8358 104.848C41.6674 99.1068 43.7195 95.2247 44.2342 89.0205L44.3078 87.9751Z" fill="#FED675"/>
<path d="M125.933 215.406L127.698 215.681L129.81 216.447L133.052 216.951C140.445 222.499 142.21 234.925 141.154 243.614C140.398 242.217 140.906 242.832 139.249 242.057C139.329 234.671 138.012 219.204 128.092 219.16C126.334 217.102 126.327 217.704 125.933 215.406Z" fill="#2D2109"/>
<path d="M163.494 33.14C170.686 23.0169 181.916 18.7304 192.378 27.3108C189.39 28.0788 186.081 26.0629 182.585 24.9901C180.004 25.6745 177.785 26.4479 175.406 27.1918C171.361 28.4551 166.782 33.2276 163.494 33.14Z" fill="#FECC62"/>
<path d="M202.725 98.9243C202.431 101.151 203.253 100.505 202.264 102.597C200.74 95.7949 198.989 89.0466 197.017 82.3618C195.867 78.5351 193.501 71.6992 192.952 67.9989L193.989 66.7617C198.3 75.0032 202.277 89.6394 202.725 98.9243Z" fill="#FECC62"/>
<path d="M82.784 30.3498C84.8896 28.8439 85.4979 28.6414 87.9244 27.6167L90.7186 28.235L91.8683 30.1807C93.145 30.0263 93.0983 30.0437 94.375 29.6961C94.2547 30.2576 94.1276 30.819 94.0073 31.3805L96.9753 31.2529C97.0221 32.7174 96.7146 32.5382 95.498 34.0335C90.2506 36.5661 89.0808 31.551 82.9979 34.9224L81.9751 34.4318C82.2425 33.232 82.7105 31.5216 82.784 30.3498Z" fill="#FEBE52"/>
<path d="M136.962 19.9199C143.607 20.2481 157.665 24.5219 162.618 29.1019C162.852 30.5891 162.905 30.0491 162.431 31.5062C155.505 27.1702 139.482 22.8048 136.962 19.9199Z" fill="#FECC62"/>
<path d="M149.035 205.654C150.86 206.521 155.766 208.299 156.375 209.793L156.087 210.928C151.341 212.77 149.276 211.17 144.904 211.375C144.663 210.846 144.175 209.865 144.021 209.35C146.074 208.049 147.157 207.204 149.035 205.654Z" fill="#FEBE52"/>
<path d="M46.6338 139.657L47.0616 136.767C49.0001 137.155 52.9373 141.692 55.7516 143.674C54.0604 145.547 55.0497 145.047 52.9508 145.647C50.2636 144.614 48.5656 141.981 46.6338 139.657Z" fill="#E37C21"/>
<path d="M184.73 59.0562C187.511 59.2647 189.537 59.0622 191.669 60.6971C193.1 63.0319 193.193 63.7598 193.955 66.4521C190.345 65.4996 186.97 61.9043 184.73 59.0562Z" fill="#E37C21"/>
<path d="M150.485 157.956C151.201 156.846 150.893 157.336 152.591 156.708C153.921 157.112 155.131 157.476 156.482 157.814C155.278 160.339 150.118 162.61 147.538 162.079C148.487 160.684 149.476 159.309 150.485 157.956Z" fill="#FEBE52"/>
<path d="M115.839 9.55096C116.782 7.06848 116.755 6.78176 118.794 5.27115C122.624 4.73241 123.847 6.77907 124.964 10.212C123.841 10.6345 124.228 10.4894 122.918 10.3939C122.17 9.20877 121.662 8.41202 120.813 7.27639L119.509 7.63397C118.707 9.00756 118.273 10.2334 116.862 10.7782L115.839 9.55096Z" fill="#FEBE52"/>
<path d="M104.328 12.8946C105.017 10.7163 105.217 10.7751 107.049 10.0151C109.796 10.467 109.99 10.8159 112.283 12.5892C110.371 13.3265 106.127 14.0202 104.328 12.8946Z" fill="#FED675"/>
<path d="M127.965 13.2579C131.127 9.93655 132.952 9.30559 137.297 10.7627C134.563 12.536 131.247 13.6015 127.965 13.2579Z" fill="#FED675"/>
<path d="M145.378 152.798L150.699 150.364L151.314 150.885L153.226 149.603L153.5 149.844C151.354 151.479 149.222 152.509 148.353 154.674L148.039 154.959C146.762 153.675 147.337 154.114 145.472 153.514L145.378 152.798Z" fill="#A45007"/>
<path d="M162.611 191.625L165.004 190.496L165.532 190.907C163.534 193.202 163.146 193.579 160.619 195.253L158.213 194.49L162.611 191.625Z" fill="#5A2B0B"/>
<path d="M156.582 201.659C155.626 204.168 156.421 203.25 154.215 204.596C152.584 204.654 151.996 204.753 150.378 204.437C152.257 203.428 154.596 202.507 156.582 201.659Z" fill="#FEBE52"/>
<path d="M111.32 85.3047C121.247 93.7882 123.754 94.1818 136.388 94.629C137.591 95.3897 137.464 95.4238 137.785 96.8288C136.688 98.2973 136.127 98.1535 134.389 98.5606C133.513 100.01 136 104.915 136.327 106.957C136.909 110.536 135.004 113.821 133.012 116.606C131.428 117.828 129.917 118.93 127.945 119.434C125.438 120.073 122.678 119.846 120.478 118.42C117.591 116.546 115.826 112.891 115.217 109.599C114.135 103.79 115.779 100.05 119.028 95.4478C116.949 94.1023 113.586 92.4039 112.129 90.4154C110.819 88.6267 111.167 87.3654 111.32 85.3047Z" fill="#3F2306"/>
<path d="M121.695 98.8321C123.821 98.1363 126.12 99.2224 126.929 101.306C127.738 103.389 126.775 105.741 124.736 106.66C123.319 107.3 121.662 107.104 120.432 106.151C119.202 105.199 118.6 103.645 118.861 102.111C119.128 100.578 120.218 99.3167 121.695 98.8321Z" fill="#FBF9F7"/>
<path d="M149.182 109.143C152.838 108.875 156.722 108.514 160.098 110.189C162.638 111.448 164.964 113.464 165.773 116.268C166.268 117.973 165.994 119.753 165.111 121.283C163.166 124.658 159.289 125.998 155.773 127.025C152.698 127.381 149.656 127.728 146.635 126.775C144.275 126.032 141.735 124.23 140.626 121.971C139.81 120.316 139.696 118.402 140.318 116.665C141.749 112.592 145.532 110.779 149.182 109.143Z" fill="#FFC271"/>
<path d="M178.554 46.7663C176.535 43.8714 174.677 45.9241 173.086 42.554C173.54 36.3645 183.026 30.1409 189.202 35.3659C194.35 45.3613 187.137 51.3911 177.805 48.4541C178.053 47.2302 177.799 47.6078 178.554 46.7663Z" fill="#5A2B0B"/>
<path d="M189.202 35.3657C194.35 45.3612 187.137 51.3909 177.805 48.4539C178.053 47.23 177.798 47.6077 178.554 46.7661L180.272 47.4011C184.65 45.8371 182.377 40.7251 181.455 37.1932C182.992 36.1611 186.676 36.3697 189.202 35.3657Z" fill="#8F4709"/>
<path d="M163.24 156.215L164.443 156.963C163.788 158.518 161.729 159.139 160.232 159.916C159.202 159.652 159.657 159.942 159.015 158.849C159.998 157.491 161.762 156.919 163.24 156.215Z" fill="#FEBE52"/>
<path d="M186.094 135.444L187.023 136.206C187.164 138.144 186.168 138.651 184.944 140.095C184.089 139.342 184.262 139.278 184.089 138.218L186.094 135.444Z" fill="#EA8429"/>
<path d="M158.019 152.264C159.543 152.343 160.887 152.106 162.137 153.02L160.673 154.383C159.322 154.686 158.4 155.132 157.063 154.689L158.019 152.264Z" fill="#FEBE52"/>
<path d="M203.942 154.25C204.116 154.344 204.296 154.42 204.457 154.534C206.502 155.994 206.475 159.047 206.716 161.314C205.078 159.033 204.517 156.985 203.942 154.25Z" fill="#FFCF3C"/>
<path d="M67.3962 206.635C69.1877 204.934 76.046 198.889 76.8014 197.591C82.4364 187.882 84.1945 177.439 93.6198 170.099C95.7655 168.424 97.7307 166.813 100.512 167.142C103.179 168.936 102.49 167.964 103.66 170.739C91.7882 180.247 86.3002 190.567 94.4019 203.348C96.6479 206.893 101.173 208.273 104.823 210.273C105.331 210.565 108.439 210.647 109.596 210.967C108.105 217.609 89.9834 210.431 93.9741 243.173C95.1907 248.099 95.8657 250.077 98.2588 254.649C92.5836 253.186 89.0141 252.063 83.9071 249.021L83.145 250.86C78.3455 251.862 70.2705 253.694 65.6114 253.052L64.7224 251.969L63.225 252.216C56.5806 257.885 52.3091 257.938 44.1673 255.418C32.1819 249.215 19.0534 227.826 27.7634 215.834L28.873 215.668C29.869 216.94 30.1631 217.462 31.4466 218.463C33.9065 215.714 29.8824 204.898 39.9627 206.194C42.6766 208.029 42.9908 208.907 44.3879 211.785L45.3839 211.623L48.4053 208.845L48.9601 205.799L53.3318 201.491C56.2396 201.409 59.1541 201.36 62.0619 201.344C61.6742 208.658 61.4001 211.538 65.4376 217.943C66.9082 218.196 67.2157 217.414 67.9978 216.483C68.6195 213.101 67.8975 210.077 67.3962 206.635Z" fill="#E37C21"/>
<path d="M67.3961 206.635C69.1875 204.934 76.0459 198.889 76.8012 197.591C82.4363 187.882 84.1944 177.439 93.6196 170.099C95.7654 168.424 97.7306 166.813 100.511 167.142C103.179 168.936 102.49 167.964 103.66 170.739C91.7881 180.247 86.3 190.567 94.4017 203.348C96.6478 206.893 101.173 208.273 104.823 210.273C105.331 210.565 108.439 210.647 109.596 210.967C108.105 217.609 89.9832 210.431 93.9739 243.173C80.6048 239.744 77.737 235.653 69.1942 225.34C70.0698 230.366 73.1849 237.297 72.6501 241.796C71.1929 243.006 71.0191 242.966 69.2945 243.601L68.4923 242.825C69.4349 236.074 66.8346 226.85 62.7169 221.342L62.2088 220.681C60.1299 215.093 58.8933 211.882 54.6352 207.529C53.0243 206.826 50.7982 206.456 48.96 205.799L53.3317 201.491C56.2395 201.409 59.154 201.36 62.0618 201.344C61.6741 208.658 61.4 211.538 65.4374 217.943C66.908 218.196 67.2156 217.414 67.9977 216.483C68.6194 213.101 67.8974 210.077 67.3961 206.635Z" fill="#F9A248"/>
<path d="M53.3317 201.491C55.6579 202.014 56.6539 201.75 57.7435 203.195C56.7007 204.77 55.6312 206.032 54.6352 207.529C53.0243 206.826 50.7982 206.456 48.96 205.799L53.3317 201.491Z" fill="#FED675"/>
<path d="M44.1672 255.418C48.3919 254.148 56.9214 255.291 60.0898 250.893C62.122 248.073 63.3052 245.406 65.9055 243.08C67.5499 243.641 66.7811 243.173 67.8506 245.272C67.2356 248.955 66.9549 249.71 65.6113 253.052L64.7223 251.969L63.225 252.217C56.5805 257.885 52.309 257.938 44.1672 255.418Z" fill="#D06E1B"/>
<path d="M63.2251 252.217C64.8093 249.583 66.086 247.725 67.8508 245.272C67.2358 248.955 66.9551 249.71 65.6115 253.052L64.7224 251.969L63.2251 252.217Z" fill="#5A2B0B"/>
<path d="M48.4053 208.845L48.9601 205.799C50.7983 206.456 53.0244 206.826 54.6353 207.529C58.8934 211.882 60.13 215.093 62.2089 220.681L59.5885 222.746C57.4027 215.455 56.0324 211.171 48.4053 208.845Z" fill="#3F2306"/>
<path d="M48.4052 208.845C56.0323 211.171 57.4026 215.455 59.5885 222.746L58.1848 224.13C54.5216 221.61 58.5925 211.798 45.3838 211.623L48.4052 208.845Z" fill="#F19837"/>
<path d="M75.6516 243C78.7265 244.53 81.2265 246.83 83.907 249.022L83.145 250.86C80.0701 248.48 78.145 245.961 75.6516 243Z" fill="#5A2B0B"/>
<path d="M41.1057 227.352C42.3758 227.278 43.6325 227.198 44.8892 227.425C47.9574 227.974 50.6647 230.46 52.4027 232.94C54.642 236.148 55.6781 240.326 54.8158 244.176C54.1072 247.351 52.4696 248.734 49.8492 250.472C49.1874 250.566 48.5724 250.659 47.9107 250.633C44.7823 250.519 42.1085 249.042 39.9962 246.789C37.2421 243.848 35.9185 239.697 36.1859 235.694C36.4533 231.79 38.1846 229.731 41.1057 227.352Z" fill="#8F4709"/>
<path d="M37.6297 213.621C38.7527 213.981 39.615 214.646 40.484 215.422C41.7741 216.578 42.6231 217.991 42.6565 219.758C42.71 222.298 41.3798 223.415 39.6752 225.072C39.0201 224.772 38.3917 224.437 37.7767 224.043C36.1591 223 34.6952 221.61 34.4947 219.571C34.2473 216.999 35.9385 215.268 37.6297 213.621Z" fill="#8F4709"/>
<path d="M47.6834 215.018C48.4187 215.334 49.1807 215.633 49.8358 216.105C51.3532 217.198 52.3091 218.584 52.5364 220.434C52.8105 222.613 51.4067 224.224 50.1633 225.834C49.3478 225.427 48.4922 225.006 47.7703 224.451C46.4334 223.428 45.5042 222.018 45.317 220.333C45.0831 218.178 46.4267 216.595 47.6834 215.018Z" fill="#8F4709"/>
<path d="M28.6791 218.255C30.6644 219.302 32.6697 220.501 33.3382 222.8C34.0668 225.28 33.0307 227.198 31.754 229.257C31.5066 229.177 31.2593 229.11 31.0187 229.009C29.5213 228.381 28.2045 227.131 27.6096 225.601C26.6002 223.007 27.5427 220.608 28.6791 218.255Z" fill="#8F4709"/>
<path d="M108.961 261.267C91.7881 253.768 94.1344 215.675 104.95 218.173C105.906 219.458 106.314 220.267 107.764 220.955C111.153 218.435 108.292 213.16 115.117 211.733C122.865 210.113 121.294 217.934 125.365 220.354L128.092 219.16C138.012 219.204 139.329 234.671 139.249 242.057L138.634 245.205C137.176 251.742 134.469 257.43 128.68 261.334C124.576 264.115 119.476 265.004 114.676 263.767C112.537 263.239 110.766 262.504 108.961 261.267Z" fill="#E37C21"/>
<path d="M108.961 261.267C110.097 261.187 109.87 261.167 110.853 261.247C136.622 263.419 129.322 250.098 138.634 245.205C137.177 251.742 134.469 257.43 128.68 261.334C124.576 264.114 119.476 265.003 114.676 263.767C112.537 263.239 110.766 262.504 108.961 261.267Z" fill="#D06E1B"/>
<path d="M113.272 233.254C114.101 233.301 114.93 233.334 115.746 233.528C119.048 234.303 121.909 236.703 123.533 239.631C125.264 242.725 125.652 246.395 124.603 249.784C123.439 253.453 121.153 255.178 117.831 256.842C116.548 256.789 115.231 256.729 113.981 256.381C110.993 255.539 108.513 253.453 107.022 250.753C105.378 247.778 105.104 244.169 106.12 240.934C107.39 236.89 109.656 235.192 113.272 233.254Z" fill="#8F4709"/>
<path d="M113.212 219.078C114.87 219.17 116.334 219.26 117.651 220.42C118.533 221.196 119.021 222.365 119.168 223.488C119.563 226.543 118.132 228.615 116.287 230.874C115.171 230.573 114.242 230.266 113.286 229.598C111.915 228.642 110.893 227.238 110.685 225.554C110.351 222.847 111.595 221.089 113.212 219.078Z" fill="#8F4709"/>
<path d="M104.683 221.062C105.585 221.269 106.066 221.643 106.822 222.158C107.544 223.522 108.052 224.531 107.931 226.102C107.717 228.842 106.775 230.119 104.709 231.843C104.128 231.369 103.54 230.914 103.038 230.353C101.875 229.043 101.026 227.505 101.267 225.707C101.548 223.582 103.172 222.379 104.683 221.062Z" fill="#8F4709"/>
<path d="M126.334 224.939C127.123 225.287 128.032 225.634 128.72 226.149C130.104 227.171 130.224 228.375 130.565 229.959C130.064 232.185 129.249 233.328 127.811 235.072C127.083 234.765 126.16 234.437 125.512 233.956C124.329 233.087 123.426 231.563 123.506 230.066C123.613 227.9 124.99 226.496 126.334 224.939Z" fill="#8F4709"/>
<path d="M217.177 227.679L218.541 225.473C221.997 225.199 223.18 229.898 223.929 232.752L223.461 235.734C220.433 243.815 215.272 248.019 206.175 245.987L205.72 245.145C208.641 241.709 210.807 238.868 213.467 235.212C215.005 232.759 216.001 230.313 217.177 227.679Z" fill="#E37C21"/>
<path d="M217.177 227.679L218.541 225.473C221.997 225.199 223.18 229.898 223.929 232.752L223.461 235.734C220.092 236.482 219.33 238.113 215.794 238.34C213.949 237.184 214.523 237.552 213.467 235.212C215.005 232.759 216.001 230.313 217.177 227.679Z" fill="#F59437"/>
<path d="M217.177 227.679L218.541 225.473C221.997 225.199 223.18 229.898 223.929 232.752C222.652 233.414 222.625 233.274 221.155 233.174C218.949 231.716 218.407 230.059 217.177 227.679Z" fill="#FECC62"/>
<path d="M59.1808 26.2886L61.1995 26.7003C61.5003 27.6475 61.9415 28.7737 62.0351 29.7269C59.4281 30.9862 58.7664 31.1432 56.761 33.1224C59.2476 33.2842 61.253 33.0636 63.0979 34.5562C63.6127 37.6422 59.9562 40.9763 58.0511 43.5369C56.1527 46.0929 56.1193 47.141 53.0377 46.347C48.4521 42.0297 50.4441 32.206 54.3479 27.719C56.1794 27.4483 57.4495 26.9095 59.1808 26.2886Z" fill="#E37C21"/>
<path d="M58.0511 43.5371C55.5243 39.9003 55.043 37.1711 56.7609 33.1226C59.2476 33.2843 61.253 33.0638 63.0979 34.5563C63.6126 37.6424 59.9562 40.9764 58.0511 43.5371Z" fill="#A45007"/>
<path d="M121.2 203.965C127.778 204.168 132.557 204.265 139.155 203.868C134.469 207.653 130.612 210.335 127.698 215.681L125.933 215.406C123.192 210.078 120.98 209.262 115.164 208.446L121.2 203.965Z" fill="#E37C21"/>
<path d="M54.3479 27.7193C60.237 20.8433 68.4858 19.9109 75.7586 25.1746L76.554 25.8697C74.9297 27.6885 69.8762 31.4804 67.6636 32.2564C65.9724 31.4904 63.7063 30.3742 62.0352 29.7271C61.9416 28.774 61.5004 27.6477 61.1996 26.7006L59.1808 26.2888C57.4495 26.9098 56.1795 27.4485 54.3479 27.7193Z" fill="#F19837"/>
<path d="M54.3479 27.7193C60.237 20.8433 68.4858 19.9109 75.7586 25.1746C70.2839 26.0028 62.463 22.3506 59.1808 26.2888C57.4495 26.9098 56.1795 27.4485 54.3479 27.7193Z" fill="#FEBE52"/>
<path d="M20.2701 0.269674C24.0402 -0.122015 28.051 -0.233614 31.7141 0.964849C33.1246 1.42806 34.2342 2.35043 34.9161 3.67122C38.9201 11.4061 35.4107 33.1502 32.8572 41.3148C33.7729 43.0794 35.8385 42.9852 37.5497 44.0447C37.3893 45.5606 37.0484 45.5706 36.0658 46.6528C34.7757 47.0378 33.8465 47.2162 32.543 46.7109C30.8719 46.0619 30.1165 44.9056 29.5216 43.3101C29.4146 41.9572 29.6219 41.4926 28.7261 40.4218C27.5095 40.377 26.2528 40.3283 25.0696 40.0161C19.7688 38.6211 13.6123 36.6139 10.7647 31.7826C8.8596 28.5442 2.08808 28.6592 0.35009 24.4568C-0.779602 21.713 1.08538 17.8235 2.25518 15.3344C6.05201 7.24925 12.115 3.22606 20.2701 0.269674Z" fill="#886241"/>
<path d="M23.6456 3.55825C27.1149 3.47202 29.7086 4.23002 32.2888 6.72386C33.4853 7.8762 33.4586 8.07073 33.5187 9.64751C29.9492 13.7095 25.9452 11.116 21.4465 12.4C16.9411 13.688 13.7525 18.4137 11.5399 22.2644C11.199 23.4295 10.7645 24.507 10.3032 25.6266C8.77916 26.3645 8.65888 26.426 7.0011 26.1539C5.90484 25.277 5.26974 24.5878 4.93551 23.1788C4.20021 20.0433 5.12939 16.6739 6.80053 13.9955C10.477 8.10282 17.0814 4.9452 23.6456 3.55825Z" fill="#FBF9F7"/>
<path d="M23.6723 15.4584C24.1134 15.437 24.5546 15.4217 24.9958 15.4331C26.6135 15.4745 27.3822 15.3054 28.4851 16.5105C28.4383 16.6957 28.4116 16.8895 28.3381 17.0653C27.1282 19.8994 21.2792 22.4941 18.6856 23.9613C17.4957 24.5014 16.8005 24.6999 15.4903 24.6651L15.2363 23.589C17.215 19.8018 20.1027 17.592 23.6723 15.4584Z" fill="#FBF9F7"/>
<path d="M22.0346 26.2314L22.469 26.6225C22.3554 26.9213 22.2418 27.2227 22.1148 27.5188C21.072 29.9732 19.4476 32.4263 16.8941 33.3754C15.9783 32.2605 15.4904 31.5286 15.1094 30.1309C16.5666 28.0669 19.715 27.2875 22.0346 26.2314Z" fill="#FBF9F7"/>
<path d="M30.8984 31.5264C31.0856 31.7142 31.1591 31.9863 31.2727 32.2269C31.5602 32.8525 31.6738 32.7495 31.3396 33.3685C30.1363 35.6043 26.7473 36.7273 24.5213 37.5655L23.8462 36.2868C24.9425 34.2989 28.8663 32.8418 30.8984 31.5264Z" fill="#FBF9F7"/>
<path d="M28.8396 26.5835L29.7621 27.0019C29.107 28.8454 27.4894 29.6616 25.9653 30.838L25.0027 30.5806C25.6645 28.8528 27.4292 27.7779 28.8396 26.5835Z" fill="#C3C0B9"/>
</svg>
