<svg width="174" height="256" viewBox="0 0 174 256" fill="none" xmlns="http://www.w3.org/2000/svg">
<path d="M85.4471 0C90.5398 1.58243 90.7797 4.1707 92.4878 8.69638C95.3634 5.51565 97.627 3.22661 101.971 5.50369L102.099 5.72064C103.599 8.29248 102.766 11.8217 101.165 14.1491L101.253 14.426C108.36 15.7666 114.158 17.3473 120.436 21.0832C121.714 21.8439 123.276 22.6498 124.361 23.6533C126.339 20.2818 129.553 17.814 133.322 16.7735C149.603 12.4209 159.953 35.287 144.315 44.8172C149.324 52.2942 151.761 61.4932 154.379 69.9932C155.726 74.3737 157.774 78.457 158.76 83.0018C161.732 96.703 159.769 108.614 150.34 119.19C153.513 121.877 156.782 126.926 158.873 130.526C165.885 142.589 168.305 158.171 161.075 170.712C160.126 172.356 158.946 173.98 157.837 175.529C158.384 177.74 158.536 181.91 158.188 184.167C169.514 192.3 173.492 202.414 170.467 216.143C170.812 216.788 171.156 217.434 171.488 218.085C177.082 229.076 169.916 239.532 162.055 246.893C163.848 247.99 166.792 250.253 163.509 252.001C154.288 256.907 140.584 256.846 130.632 254.227C124.922 252.722 119.55 248.421 113.467 248.391C104.263 248.738 95.3533 250.416 86.0182 249.941C82.0233 249.801 76.4745 250.032 72.6076 249.452C62.6275 247.956 56.919 247.419 47.7954 252.414C41.2126 255.326 35.5553 256.062 28.3259 255.82C22.5423 255.626 13.4623 255.201 8.86531 251.084C7.43245 249.801 9.89957 247.521 11.3639 246.804C6.12885 242.507 0.499738 234.37 0.051603 227.556C-0.254366 222.906 0.8133 220.264 2.90858 216.304C1.83143 206.939 1.72836 199.051 8.04268 191.142C9.58259 189.21 11.3645 187.484 13.3448 186.006C14.1807 185.385 15.4605 184.616 16.19 184.013C15.9986 181.115 15.9614 178.29 16.7184 175.462C9.87679 165.571 7.85838 158.495 9.82839 146.167C11.0599 138.46 17.969 124.228 23.7948 119.365C14.9984 111.389 12.159 97.5628 14.137 86.3885C15.0392 81.2911 16.6224 76.7313 18.4316 71.9178C21.4218 62.3616 23.6247 54.7742 28.6172 45.9384C25.0395 43.8826 22.238 40.6822 21.1403 36.6555C20.0812 32.6236 20.647 28.3369 22.7159 24.7179C26.882 17.5301 35.9763 14.7079 43.4442 18.9813C45.3453 20.0693 47.6737 22.1787 48.7653 24.1094C53.3351 20.6552 60.3048 17.6005 65.8815 16.1321C67.9559 15.5859 70.3997 15.2055 72.3712 14.6014C65.5444 5.81174 73.6995 2.45373 81.4361 8.74782C81.1381 4.64084 80.8915 1.50304 85.4471 0Z" fill="#4E2A03"/>
<path d="M50.8848 239.794C51.4417 239.632 52.4048 239.33 52.9496 239.431C55.6915 239.94 58.5225 241.177 61.2153 241.991C64.6918 243.041 67.7331 243.624 71.2927 244.191C80.9061 245.757 90.7 245.877 100.349 244.544C107.518 243.565 113.396 241.972 120.122 239.484C120.793 239.235 121.847 239.575 122.545 239.769C124.009 241.171 125.397 243.003 126.68 244.584C131.611 250.656 135.68 255.09 144.189 254.824C150.823 254.615 157.202 251.237 162.061 246.898C163.855 247.995 166.799 250.257 163.515 252.005C154.295 256.912 140.59 256.851 130.639 254.232C124.929 252.727 119.557 248.426 113.473 248.395C104.27 248.743 95.3601 250.421 86.025 249.946C82.0301 249.806 76.4813 250.037 72.6144 249.456C62.6343 247.961 56.9258 247.424 47.8022 252.419C41.2195 255.331 35.5621 256.067 28.3327 255.824C22.5491 255.631 13.4691 255.206 8.87211 251.089C7.43925 249.806 9.90637 247.526 11.3707 246.809C22.6516 256.673 36.1265 258.645 45.5609 246.042C46.7224 244.491 49.5495 241.059 50.8848 239.794Z" fill="#F4C692"/>
<path d="M76.7056 16.2091C75.2828 14.7233 70.2074 9.95125 72.8658 7.5732C76.1833 6.25653 81.8796 11.8645 84.1393 14.0533C84.3186 13.9218 84.4606 13.8992 84.4249 13.6333C84.0447 10.7976 83.4252 8.70291 83.4091 5.76475C83.3903 2.34148 85.731 0.929336 88.0706 3.89138C90.2194 6.61203 90.7149 10.6393 91.2014 13.9599C91.2375 14.2163 91.3497 14.178 91.5865 14.2395C93.1175 12.1344 95.257 7.07667 98.579 6.59457C99.1426 6.50726 99.716 6.67144 100.148 7.04384C102.6 9.17306 98.2038 14.8425 96.8476 16.6654C103.905 15.0534 117.814 21.5874 123.689 25.5998C124.404 26.088 127.624 28.4053 128.12 28.4858L128.374 28.2172C128.331 27.2545 127.255 26.4243 126.557 25.7841C126.268 25.5169 125.976 25.2531 125.68 24.9925C126.978 23.468 128.076 22.1911 129.709 20.981C134.495 17.4348 140.647 17.4049 145.204 21.412C147.922 23.7682 149.57 27.1247 149.773 30.7164C149.972 34.3365 148.704 37.884 146.252 40.5554C145.189 41.7189 144.231 42.3897 142.936 43.2714C142.306 42.5776 140.782 40.6697 139.867 40.69C139.761 41.4206 143.779 47.9113 144.375 49.0562C148.311 56.5962 150.525 64.6239 153.051 72.6917C159.322 88.3432 160.915 103.25 149.564 117.021C147.362 119.692 144.527 121.914 142.306 124.521C145.481 123.06 146.313 122.62 149.088 120.496C156.283 129.308 161.623 137.825 162.892 149.277C163.695 156.522 162.906 162.834 159.4 169.205C154.636 177.865 145.436 183.895 135.437 182.969C132.673 182.713 128.78 181.327 126.955 179.08C126.161 178.093 126.069 177.339 125.789 176.13C127.325 175.686 129.501 175.101 130.845 174.272L130.912 174.027C127.936 172.973 119.341 176.297 121.197 167.509C121.729 164.993 126.923 163.53 127.2 162.29C125.48 160.913 123.033 164.151 121.106 163.436C120.478 162.841 120.283 162.086 120.315 161.24C120.542 155.291 127.688 151.784 132.926 151.586C133.506 151.564 134.911 151.574 135.144 151.063C134.063 150.47 132.956 150.478 131.743 150.424C137.447 145.758 139.905 145.085 147.205 144.488C142.257 143.291 138.963 143.363 134.381 146.157C133.656 146.606 132.937 147.065 132.225 147.535C132.172 144.91 132.201 142.645 132.466 140.018C130.76 143.012 130.775 145.522 130.838 148.92L129.653 150.148C126.876 150.857 124.568 151.422 122.364 153.408C121.504 151.77 119.763 149.4 118.656 147.821L112.192 138.648L103.986 126.971C102.18 124.388 99.2538 119.959 97.0141 117.88C90.427 112.729 83.545 113.022 76.8856 117.744C74.2826 120.172 71.7944 124.028 69.6738 127.005L57.0714 144.966C55.4493 147.272 53.1494 150.859 51.444 152.939C49.9365 151.924 48.7017 151.315 46.9309 150.844C45.3352 150.42 44.4314 149.95 44.1506 148.161C43.7097 145.353 43.5713 142.711 42.4963 140.041C42.4114 142.528 42.5166 145.006 42.3978 147.464C39.8692 145.833 37.8942 144.403 34.8601 144.116C34.0607 144.04 33.332 143.77 32.5194 144.037L32.4477 144.258C33.2016 144.866 35.22 145.589 36.2017 145.974C39.2219 147.159 41.9016 149.239 43.9443 151.749C47.6068 152.896 51.4808 154.524 53.3288 158.113C54.4841 160.357 54.4266 162.196 53.1008 164.302C50.3657 162.668 49.7173 162.442 46.4475 162.119L46.6235 162.26C48.6624 163.874 53.0672 165.661 53.381 168.344C54.3143 176.326 47.0137 173.159 43.4899 173.946L43.5294 174.2C45.1057 175.261 46.7051 175.821 48.5657 176.121C48.4232 176.886 48.2402 177.749 48.1436 178.512C42.8941 184.094 34.9605 184.269 28.4845 181.365C6.91993 171.696 8.03694 144.82 19.794 127.902C20.777 126.487 24.1518 120.902 25.6978 120.843C25.9445 120.616 26.379 119.868 26.5838 119.544C22.115 115.139 18.8423 109.668 17.0744 103.647C13.4639 91.5641 17.4176 82.195 20.9831 70.8892C24.1102 60.9738 26.4031 54.2707 31.4328 44.997C31.0665 44.8408 30.7051 44.6734 30.349 44.4952C27.0765 42.8458 24.5695 40.0519 23.4668 36.539C22.3907 33.0715 22.7364 29.3187 24.4272 26.1059C27.9363 19.5548 36.2767 17.0328 42.5411 20.957C44.1436 21.9609 46.9222 24.2494 47.4366 26.1068C47.5047 26.3368 47.6397 26.8478 47.7243 27.0441C58.4319 20.5696 63.9735 17.8346 76.7056 16.2091Z" fill="#FF9B34"/>
<path d="M76.858 117.746C75.6446 116.216 73.2004 115.215 71.809 113.939C56.6094 99.9958 68.0138 72.7712 89.25 75.3957C95.7366 76.1974 100.257 78.1655 104.329 83.0489C108.244 87.7272 110.099 93.7905 109.473 99.8584C108.898 105.731 106.771 110.22 102.237 114.122C100.797 115.361 98.0967 116.642 96.9865 117.882C90.3995 112.731 83.5174 113.025 76.858 117.746Z" fill="#EB7C17"/>
<path d="M85.7489 82.5805C87.0992 82.3173 92.3629 82.7051 93.7045 83.4971C95.7736 84.7183 96.0264 85.0596 96.7985 87.2218C96.6913 87.5506 96.57 87.8746 96.4355 88.1932C94.8079 91.9741 91.7191 93.0794 88.1726 94.4714C87.5756 97.7696 87.3182 102.885 90.1327 105.131C92.0281 106.644 94.7727 106.651 96.9677 105.87C97.9338 105.526 98.7786 104.184 100.054 104.051L100.304 104.271C100.203 104.964 99.6996 105.67 99.2607 106.211C96.6207 109.466 91.3687 109.079 88.3407 106.701C87.8823 106.295 87.3731 105.741 86.9373 105.294C84.1728 109.059 78.5731 109.833 75.1047 106.383C74.6427 105.923 74.0484 104.863 74.1272 104.215C75.3475 103.92 78.0224 106.682 80.3229 106.471C87.439 105.818 86.1238 99.3814 85.8776 94.3224C81.6813 93.0228 72.9661 87.9074 80.7761 83.5125C81.9 82.8801 84.3924 82.7157 85.7489 82.5805Z" fill="#4E2A03"/>
<path d="M82.52 85.0034C82.9744 84.7651 83.7703 84.3504 84.2509 84.2392C86.2524 83.7761 92.1683 83.6178 93.3628 85.5046C93.3256 86.3568 92.8949 86.5094 92.2268 87.0221C88.8634 86.5104 86.7007 86.4105 83.3049 86.2824C82.997 85.9098 82.7575 85.4319 82.52 85.0034Z" fill="#A04606"/>
<path d="M80.8993 85.5017C81.3766 85.3222 81.9933 85.2018 82.5421 84.9985C82.7795 85.4271 83.019 85.905 83.3269 86.2776L81.5528 86.594C81.3768 86.8949 81.012 87.0281 80.6835 86.9118C80.3551 86.7954 80.1556 86.4619 80.2084 86.1176C80.261 85.7731 80.551 85.5146 80.8993 85.5017Z" fill="#703503"/>
<path d="M81.5528 86.5914C81.3768 86.8922 81.012 87.0254 80.6835 86.9091C80.3551 86.7927 80.1556 86.4593 80.2084 86.115C80.261 85.7705 80.551 85.5119 80.8993 85.499C81.164 85.4892 81.4133 85.6245 81.5492 85.8519C81.6853 86.0793 81.6866 86.3626 81.5528 86.5914Z" fill="#A04606"/>
<path d="M26.566 119.538C27.417 120.303 30.6751 123.024 30.8209 123.873C29.9614 124.009 28.5749 122.994 27.8933 122.497C27.1507 121.95 26.413 121.397 25.6799 120.837C25.9267 120.61 26.3612 119.861 26.566 119.538Z" fill="#703503"/>
<path d="M47.7324 27.0369C47.0922 27.4799 46.4937 27.9876 45.7535 28.1487L45.52 27.9576C45.8072 27.024 46.626 26.6276 47.4447 26.0996C47.5128 26.3297 47.6478 26.8406 47.7324 27.0369Z" fill="#703503"/>
<path d="M130.851 84.0912C141.376 83.3152 145.67 96.6421 132.573 98.7526C121.869 99.9381 117.718 86.2481 130.851 84.0912Z" fill="#F4C692"/>
<path d="M41.3642 84.8347C45.8245 84.6967 51.2125 85.3603 52.2409 90.7631C52.5683 92.4204 52.1991 94.1395 51.2201 95.5165C49.8053 97.5049 47.4217 98.6025 45.0631 98.9702C32.2804 100.035 30.3367 86.9518 41.3642 84.8347Z" fill="#F4C692"/>
<path d="M59.2095 67.5791C63.0569 67.7258 65.0407 69.525 65.9689 73.2421C66.5786 75.6782 66.186 78.2569 64.8794 80.4013C63.7005 82.2938 62.3449 83.0047 60.2601 83.4684C51.6272 84.6495 50.4852 68.7487 59.2095 67.5791Z" fill="#4E2A03"/>
<path d="M58.0053 69.9393C60.8826 69.9019 61.498 72.8526 59.0405 74.3583C55.6506 74.0182 55.9712 71.9121 58.0053 69.9393Z" fill="#FEFEFE"/>
<path d="M113.862 67.5688C122.339 66.8259 124.777 80.2204 116.51 83.2652C107.507 85.0131 105.505 69.6399 113.862 67.5688Z" fill="#4E2A03"/>
<path d="M112.713 69.9706C115.64 69.7617 116.286 72.4089 114.542 74.1547C111.246 74.4096 110.662 72.041 112.713 69.9706Z" fill="#FEFEFE"/>
<path d="M29.2368 31.9744C30.8508 24.5998 38.12 25.1605 41.8583 30.3309C42.2396 30.8582 42.6699 30.0304 43.0614 30.623C42.5171 31.527 39.0036 34.9192 37.9488 36.07C36.9352 37.1756 35.3646 39.3758 34.5378 40.2476L34.2014 39.9618C33.9067 39.3191 30.5099 37.1692 29.818 35.608C29.3545 34.5624 28.8997 33.1434 29.2368 31.9744Z" fill="#A04606"/>
<path d="M29.2 31.9744C30.8139 24.5998 38.0831 25.1605 41.8214 30.3309C42.2027 30.8582 42.633 30.0304 43.0246 30.623C42.4802 31.527 38.9667 34.9192 37.9119 36.07C36.8984 37.1756 35.3277 39.3758 34.5009 40.2476L34.1646 39.9618C34.4031 37.5319 38.6098 33.5821 40.4343 31.9683C39.0109 30.0103 38.1363 29.1465 35.9347 28.1624C29.6551 28.4238 30.8725 31.3298 29.2 31.9744Z" fill="#4E2A03"/>
<path d="M138.874 39.8092C136.195 37.3176 133.882 33.5147 130.869 31.1655C130.374 30.7795 129.23 29.8063 129 29.298C129.457 28.5229 130.488 29.4911 130.682 29.3933C132.171 28.6307 133.233 27.2812 134.74 26.4508C138.414 24.425 141.855 25.8878 143.361 29.7386C143.374 31.4728 143.59 34.2014 142.36 35.5494C141.028 37.0098 139.101 37.4501 139.166 39.6217L138.874 39.8092Z" fill="#A04606"/>
<path d="M138.874 39.8092C136.195 37.3176 133.882 33.5147 130.869 31.1655C130.374 30.7795 129.23 29.8063 129 29.298C129.457 28.5229 130.488 29.4911 130.682 29.3933C132.171 28.6307 133.233 27.2812 134.74 26.4508C138.414 24.425 141.855 25.8878 143.361 29.7386L143.063 30.1461C142.565 29.693 140.381 27.7697 139.84 27.5797C137.11 26.6195 134.394 28.7692 132.946 30.7806C134.886 32.6344 139.46 37.0149 138.874 39.8092Z" fill="#4E2A03"/>
<path d="M66.1845 54.9189C69.6411 57.044 64.9684 59.7948 63.0682 60.6973C60.7319 61.8071 59.0018 61.6532 56.4963 61.7058C55.8457 61.6075 55.5183 61.5055 55.2 60.9574C55.5691 60.0492 57.5088 59.7673 58.5377 59.5316C62.4766 58.6289 63.3026 57.5715 66.1845 54.9189Z" fill="#4E2A03"/>
<path d="M108.398 54.8989C109.483 55.1423 113.088 58.9446 115.622 59.392C116.687 59.5799 118.85 59.8186 119.476 60.5805C119.317 61.2257 119.35 61.0338 118.744 61.5626C115.466 61.7977 112.495 61.3056 109.736 59.454C107.872 58.2027 107.025 56.8913 108.398 54.8989Z" fill="#4E2A03"/>
<path d="M136.314 127.483C136.527 127.465 136.606 127.5 136.821 127.536C135.849 128.841 131.383 130.149 129.747 130.636C129.488 130.672 129.564 130.649 129.28 130.536C129.441 130.142 135.335 127.926 136.314 127.483Z" fill="#EB7C17"/>
<path d="M53.1108 154.376C55.2962 151.488 57.5762 148.051 59.6677 145.056L70.2684 129.993C72.4489 126.905 75.6682 121.728 78.3606 119.38C84.0217 114.444 93.2391 115.772 97.5424 121.788C101.134 126.81 104.441 131.587 107.911 136.474L115.863 147.741C117.485 150.051 119.25 152.414 120.692 154.823C119.749 156.292 119.332 157.295 118.569 158.838C118.337 162.198 118.262 162.735 119.682 165.782C119.336 166.54 119.127 167.082 118.599 167.743C118.885 168.297 118.739 168.802 118.754 169.43C118.814 172.054 119.77 174.131 122.338 175.275C122.467 175.332 122.597 175.387 122.728 175.441C123.613 176.834 123.902 177.722 124.655 179.138C125.419 180.573 126.595 182.065 127.577 183.38C128.863 182.944 133.34 184.456 134.452 185.225C135.426 184.861 137.821 185.009 138.977 185.03C142.69 191.329 149.088 198.483 146.813 206.069C143.121 218.378 131.503 216.505 121.787 216.482L98.7321 216.469L56.1255 216.45C50.7156 216.442 44.1841 216.731 38.9403 216.36C30.4967 215.768 24.3062 206.493 27.0644 198.432C28.3597 194.617 31.665 189.928 33.7164 186.385C33.9888 185.973 34.2933 185.55 34.5757 185.141C35.8172 185.242 38.2967 184.933 39.0365 185.197C40.768 184.967 43.7732 183.638 45.5636 183.729C46.3912 182.775 47.9182 182.019 48.8695 180.897C50.5689 178.893 50.459 178.859 50.5024 176.285C51.5338 175.236 52.8274 175.236 53.7201 174.414C55.2374 172.961 56.1731 170.715 55.6889 168.607C55.5509 168.006 55.1804 167.583 55.3803 166.995C54.6799 165.821 55.2693 164.918 55.5802 163.649C56.0976 161.538 55.971 159.942 55.7831 157.826C54.7803 157.285 54.3288 155.478 53.1108 154.376Z" fill="#FEC002"/>
<path d="M127.577 183.375C128.863 182.938 133.34 184.451 134.452 185.22C135.426 184.855 137.821 185.004 138.977 185.024C142.69 191.324 149.088 198.478 146.813 206.064C143.121 218.373 131.503 216.5 121.787 216.477L98.7321 216.464L56.1255 216.445C50.7156 216.437 44.1841 216.725 38.9403 216.355C30.4967 215.763 24.3062 206.487 27.0644 198.426C28.3597 194.611 31.665 189.923 33.7164 186.38C33.9888 185.968 34.2933 185.544 34.5757 185.136C35.8172 185.237 38.2967 184.928 39.0365 185.191C40.768 184.962 43.7732 183.633 45.5636 183.724C43.6798 187.405 40.7496 191.231 38.7162 194.944C36.7767 198.085 33.7762 202.342 37.057 205.721C39.2078 207.934 44.91 207.231 47.9753 207.231L67.0652 207.222H110.912C118.022 207.222 125.175 207.239 132.289 207.237C133.471 207.214 134.357 207.11 135.38 206.493C137.396 205.295 138.721 202.781 137.804 200.474C136.821 198.007 135.193 195.642 133.799 193.372C131.763 190.018 129.688 186.685 127.577 183.375Z" fill="#222120"/>
<path d="M134.452 185.22C135.426 184.855 137.821 185.003 138.977 185.024C142.69 191.324 149.088 198.478 146.813 206.064C143.121 218.373 131.503 216.5 121.787 216.477L98.7321 216.464L56.1255 216.445C50.7156 216.437 44.1841 216.725 38.9403 216.355C30.4967 215.763 24.3062 206.487 27.0644 198.426C28.3597 194.611 31.665 189.923 33.7164 186.38C33.9888 185.968 34.2933 185.544 34.5757 185.136C35.8172 185.237 38.2967 184.928 39.0365 185.191C38.2661 186.127 37.9736 186.592 37.3516 187.642C35.4414 190.717 31.1867 197.071 30.5079 200.285C29.9594 202.891 30.481 205.607 31.955 207.824C34.2318 211.227 37.6614 212.523 41.6584 212.584C45.0301 212.635 48.4172 212.605 51.7893 212.603L77.11 212.605L114.609 212.603L126.616 212.612C128.907 212.612 131.22 212.662 133.505 212.523C138.108 212.246 142.356 208.875 143.153 204.246C143.434 202.526 143.299 200.767 142.762 199.11C141.891 196.403 136.271 187.782 134.452 185.22Z" fill="#FEC002"/>
<path d="M34.5792 185.132C35.8208 185.232 38.3002 184.923 39.0401 185.187C38.2696 186.122 37.9772 186.587 37.3552 187.637C35.8196 186.897 34.6115 187.236 33.72 186.375C33.9923 185.963 34.2968 185.54 34.5792 185.132Z" fill="#FC9227"/>
<path d="M53.1201 154.376C55.3056 151.488 57.5855 148.051 59.677 145.056L70.2778 129.993C72.4583 126.905 75.6776 121.728 78.37 119.38C84.031 114.444 93.2484 115.772 97.5518 121.788C101.144 126.81 104.45 131.587 107.92 136.474L115.873 147.741C117.494 150.051 119.26 152.414 120.702 154.823C119.758 156.292 119.342 157.295 118.579 158.838C118.346 162.198 118.272 162.735 119.692 165.782C119.345 166.54 119.136 167.082 118.608 167.743C117.969 166.433 115.723 163.308 114.793 161.974C112.195 158.266 109.574 154.575 106.93 150.901L96.6841 136.527C94.3784 133.292 92.0561 129.623 89.2562 126.843C87.7499 125.347 84.7775 126.127 83.4563 127.617C82.0456 129.208 80.9622 130.869 79.7321 132.591L75.0446 139.079C68.6255 148.143 61.9388 158.153 55.3897 166.995C54.6893 165.821 55.2786 164.918 55.5895 163.649C56.1069 161.538 55.9803 159.942 55.7924 157.826C54.7897 157.285 54.3381 155.478 53.1201 154.376Z" fill="#222120"/>
<path d="M53.1201 154.376C55.3056 151.488 57.5855 148.051 59.677 145.056L70.2778 129.993C72.4583 126.905 75.6776 121.728 78.37 119.38C84.031 114.444 93.2484 115.772 97.5518 121.788C101.144 126.81 104.45 131.587 107.92 136.474L115.873 147.741C117.494 150.051 119.26 152.414 120.702 154.823C119.758 156.292 119.342 157.295 118.579 158.838C117.98 157.578 116.025 154.868 115.154 153.618L108.02 143.556L98.8364 130.597C97.2372 128.355 95.2169 125.207 93.4054 123.307C89.3961 119.1 82.6591 119.897 79.2004 124.396C77.7535 126.278 76.5384 127.968 75.2224 129.82L68.5534 139.226C66.7851 141.718 56.4956 155.936 55.7924 157.826C54.7897 157.285 54.3381 155.478 53.1201 154.376Z" fill="#FEC002"/>
<path d="M86.4165 142.92C91.1661 142.821 95.0993 146.265 94.5598 151.256C93.5423 160.753 92.4029 170.256 91.0839 179.719C90.6314 182.964 90.586 183.691 87.3813 184.819C83.69 185.071 82.802 182.216 82.4463 179.244C81.4195 170.666 80.3607 162.094 79.2128 153.53C78.8747 151.009 78.5866 148.205 80.3712 146.142C82.0345 144.112 83.8446 143.275 86.4165 142.92Z" fill="#222120"/>
<path d="M85.6765 188.848C89.3657 188.176 92.8977 190.632 93.5512 194.326C94.2049 198.017 91.7309 201.538 88.0352 202.174C84.3647 202.804 80.874 200.352 80.2248 196.683C79.5757 193.016 82.0122 189.514 85.6765 188.848Z" fill="#222120"/>
<path d="M25.2257 208.037C27.8445 214.255 33.0335 218.305 39.9153 218.444C45.95 218.565 51.9952 218.485 58.033 218.482L92.498 218.501C102.422 218.55 112.346 218.548 122.27 218.493C126.721 218.478 131.13 218.565 135.587 218.44C137.274 218.392 142.093 215.976 142.539 216.073C143.27 215.978 143.137 215.562 144.259 215.807C148.23 212.926 155.137 209.487 159.988 211.802C161.716 211.654 164.876 213.342 166.178 214.505C171.329 219.112 172.421 225.174 170.435 231.529C170.147 232.392 169.5 234.545 168.921 235.127C164.067 244.413 151.791 254.495 140.787 252.544C138.536 252.13 136.409 251.206 134.571 249.841C132.502 248.317 130.902 246.14 129.128 244.265C125.912 240.869 123.256 236.889 120.565 233.062C120.814 234.417 121.217 235.961 121.537 237.316L121.414 237.331C116.99 237.904 112.934 239.861 108.508 240.894C93.3579 244.43 77.1371 244.029 62.1249 239.988C58.4084 238.988 55.7105 237.563 51.7648 237.312C52.6465 235.587 52.9748 234.539 53.5769 232.715C51.9292 234.271 50.5567 236.583 49.1536 238.364C42.7106 246.538 36.4925 255.75 24.5489 251.982C15.4848 249.124 8.76338 242.716 4.27994 234.579C3.87565 234.129 3.36753 232.504 3.16197 231.891C1.35367 227.509 2.08576 221.549 4.61058 217.576C6.78767 214.659 8.15542 213.666 11.4222 212.176L13.3224 211.751C17.1024 210.506 21.0392 211.091 24.5738 212.803C24.9818 212.645 25.4512 212.541 25.6669 212.199C25.351 211.818 25.1398 211.531 24.8558 211.125C24.3217 210.779 24.0172 210.669 23.4258 210.421C24.0698 209.61 24.1725 208.598 25.2257 208.037Z" fill="#EB7C17"/>
<path d="M144.252 215.803C148.223 212.922 155.13 209.482 159.981 211.798C160.798 212.918 163.073 216.093 161.475 217.308C160.101 217.327 158.357 217.202 157.034 217.376C152.845 217.93 148.826 220.654 145.89 223.651C141.373 228.262 137.197 235.444 136.774 241.963C136.749 242.354 136.95 243.045 136.971 243.486C137.028 244.689 136.988 245.909 137.058 247.107L136.874 247.291C135.935 246.819 133.883 244.038 133.537 243.038C131.096 235.979 134.528 227.74 138.482 221.823C138.326 220.29 141.388 217.169 142.532 216.068C143.263 215.974 143.13 215.558 144.252 215.803Z" fill="#FC9227"/>
<path d="M142.536 216.079C143.267 215.984 143.134 215.568 144.256 215.813C142.483 217.396 139.875 219.877 138.486 221.834C138.33 220.3 141.392 217.18 142.536 216.079Z" fill="#421C00"/>
<path d="M13.2887 211.743C17.0687 210.498 21.0055 211.082 24.5401 212.794C25.6345 213.402 26.7204 213.985 27.7666 214.675C28.3533 215.089 29.1122 215.657 29.7011 216.034C30.0992 216.765 32.9408 219.348 33.6265 220.28C37.2236 225.166 40.5775 231.169 40.605 237.366C40.627 242.326 39.3551 244.302 36.0145 247.705C37.4548 239.039 35.2225 233.512 30.0568 226.624C26.8267 222.486 22.3922 218.475 17.0886 217.471C15.8655 217.24 12.2155 217.604 11.8078 216.949C10.7122 215.188 13.0831 213.33 13.2887 211.743Z" fill="#FC9227"/>
<path d="M168.89 235.12C167.92 235.005 167.083 235.948 166.022 235.929C164.885 236.043 163.631 234.739 163.923 233.577C164.908 229.665 167.804 228.1 170.405 231.522C170.116 232.385 169.469 234.538 168.89 235.12Z" fill="#A04606"/>
<path d="M3.15991 231.878C3.61887 230.976 3.42868 230.348 4.2868 229.849C8.35798 227.474 12.7351 237.301 6.42479 235.611C5.68018 235.412 5.22502 234.554 4.27788 234.565C3.87359 234.116 3.36547 232.491 3.15991 231.878Z" fill="#A04606"/>
<path d="M4.6001 217.577C6.77719 214.659 8.14494 213.667 11.4117 212.177C11.098 214.669 10.6386 214.458 10.9824 217.294C10.5335 217.858 8.51487 218.457 7.63531 219.101C7.27695 219.363 5.50396 220.644 5.25816 220.735C4.59136 219.888 5.08354 218.867 4.6001 217.577Z" fill="#FC9227"/>
<path d="M24.8421 211.117C26.259 211.823 27.2198 212.825 28.3308 213.945L27.7866 214.676C26.7404 213.985 25.6545 213.402 24.5601 212.795C24.9681 212.637 25.4375 212.533 25.6532 212.191C25.3373 211.809 25.1261 211.523 24.8421 211.117Z" fill="#703503"/>
<path d="M28.3442 213.957C28.9353 214.644 29.5487 215.192 29.7346 216.046C29.1456 215.669 28.3867 215.101 27.8 214.687L28.3442 213.957Z" fill="#A04606"/>
<path d="M57.5997 221.484C62.1103 221.227 67.3937 221.381 71.9726 221.393L96.2598 221.421L108.273 221.4C111.275 221.379 114.734 221.216 117.705 221.653C118.72 221.801 119.45 223.266 119.941 224.105C119.894 224.245 119.845 224.384 119.795 224.522C118.485 228.14 115.179 231.017 111.771 232.612C98.29 239.838 76.3885 239.211 62.6504 232.866C59.0883 231.221 49.0525 223.835 57.5997 221.484Z" fill="#FC9227"/>
<path d="M20.4817 229.866C25.8702 229.426 31.519 233.909 32.599 239.112C33.6898 244.369 30.6038 248.342 25.2413 248.456C19.8783 248.465 13.9353 244.253 13.0206 238.829C12.6973 236.908 13.1599 234.94 14.3042 233.366C15.743 231.377 18.1122 230.269 20.4817 229.866Z" fill="#A04606"/>
<path d="M151.73 229.856C159.419 230.287 163.06 237.109 158.214 243.403C156.031 246.216 152.831 248.062 149.303 248.546C146.985 248.539 145.432 248.541 143.436 247.176C139.302 244.35 140.228 238.491 142.785 234.919C145.022 231.791 148.014 230.445 151.73 229.856Z" fill="#A04606"/>
<path d="M155.826 219.578C157.903 219.531 158.37 220.618 159.038 222.296C158.415 225.067 157.409 226.434 154.583 227.096C152.413 226.825 152.299 226.529 151.32 224.6C152.322 221.782 152.694 220.368 155.826 219.578Z" fill="#A04606"/>
<path d="M15.8688 219.541C19.8783 219.448 20.8211 220.902 22.0072 224.377C21.4803 225.447 21.3208 225.747 20.5956 226.685C20.4525 226.7 20.3094 226.713 20.1661 226.725C17.5349 226.932 14.7116 226.062 14.4481 222.631C14.3579 221.458 15.0261 220.365 15.8688 219.541Z" fill="#A04606"/>
<path d="M7.3767 222.202C11.4737 222.027 15.5523 226.675 11.8552 229.739C7.88273 230.096 3.61074 225.599 7.3767 222.202Z" fill="#A04606"/>
<path d="M164.038 222.422C169.567 221.963 167.833 227.733 163.477 229.796C157.881 229.965 160.011 224.074 164.038 222.422Z" fill="#A04606"/>
<path d="M141.36 185.087C144.577 184.073 147.751 183.259 150.676 181.482C152.58 180.324 154.229 178.681 155.96 177.557C156.353 178.096 156.247 178.421 156.298 179.174C156.723 179.823 156.488 184.382 156.334 185.305C157.908 186.446 160.884 188.541 162.015 189.944C166.99 194.812 169.11 201.247 169.304 208.087C169.368 210.41 168.844 211.929 168.708 213.979C166.105 212.153 165.044 211.124 161.992 210.019C155.167 208.252 150.763 209.482 145.225 213.521C151.477 204.42 150.435 198.722 144.496 189.837C143.446 188.268 142.596 186.556 141.36 185.087Z" fill="#FC9227"/>
<path d="M162.023 189.937C166.998 194.805 169.118 201.24 169.311 208.08C169.376 210.404 168.852 211.922 168.715 213.972C166.113 212.146 165.052 211.117 162 210.013C162.089 209.897 163.847 205.59 163.961 205.252C165.766 199.843 163.615 195.815 162.127 190.933C162.213 190.52 162.121 190.377 162.023 189.937Z" fill="#EB7C17"/>
<path d="M156.278 179.177C156.703 179.826 156.468 184.385 156.314 185.308C155.045 184.496 152.44 183.808 152 182.949C152.617 182.58 155.212 183.216 156.128 183.378C156.362 182.586 156.219 180.263 156.278 179.177Z" fill="#703503"/>
<path d="M18.1461 183.297C18.0724 182.074 18.0187 178.758 18.5403 177.737C19.7291 178.286 21.2882 179.677 22.4249 180.499C25.5455 182.75 28.6736 183.991 32.3782 184.804C31.7014 185.701 31.1904 186.501 30.6191 187.455C26.1256 194.968 22.7089 199.005 25.2225 208.041C24.1692 208.603 24.0666 209.615 23.4225 210.425C15.7881 207.742 10.9659 209.292 4.82673 214.083C4.65894 212.301 4.28389 210.706 4.28009 208.827C4.26054 198.973 9.00553 190.887 17.3244 185.749C18.2668 185.166 22.1922 183.422 22.5644 183.027C21.5277 182.52 19.3552 183.078 18.1461 183.297Z" fill="#FC9227"/>
</svg>
