<svg width="152" height="256" viewBox="0 0 152 256" fill="none" xmlns="http://www.w3.org/2000/svg">
<path d="M56.6935 12.7449C56.1153 12.0984 55.1081 10.8587 54.815 10.0595C54.2578 8.54007 53.9764 4.86706 56.0973 4.40198C59.4632 3.664 62.0887 5.31634 64.9432 6.79165C65.9714 5.74522 65.7985 0.443991 69.3397 0.0436296C73.797 -0.460278 75.065 3.49222 75.5257 7.1738C77.2238 5.27817 80.4423 3.06773 83.3019 4.58538C85.7977 5.90997 83.3374 9.80017 83.6643 11.1261C84.5041 11.3928 85.1058 11.3406 85.9418 11.4363C91.9909 12.1282 97.6631 14.3 103.157 16.7875C103.457 16.0283 103.929 14.9257 104.419 14.2888C117.679 -2.95941 141.003 19.0421 124.076 34.4124C127.421 39.2155 130.211 43.7489 132.579 49.1354C133.844 52.0141 134.948 55.1404 136.431 57.8896C139.028 62.706 142.527 66.9861 144.212 72.2926C148.119 83.8941 145.574 99.7721 136.288 108.27C136.617 108.467 136.942 108.676 137.24 108.921C150.91 120.159 156.982 138.934 145.048 154.053C145.484 155.618 145.638 157.189 145.921 158.774C148.545 173.499 147.384 191.931 137.304 203.859C146.722 212.256 141.628 224.732 134.645 232.851C133.346 234.361 130.448 236.309 129.499 237.869C133.044 237.928 144.64 240.552 147.005 243.028C147.538 243.586 147.972 244.351 147.917 245.145C147.862 245.924 147.281 246.437 146.702 246.883C138.993 252.823 108.596 255.079 98.1587 255.537C82.5371 256.158 66.8969 256.154 51.2756 255.528C38.828 254.956 25.6371 253.453 13.4293 251.051C10.4943 250.474 0.976629 248.096 1.28222 244.502C1.54064 241.464 11.2386 239.299 13.7208 239.014C8.00039 233.933 8.58349 227.847 9.46604 220.97C10.3234 214.29 9.83854 207.549 11.1302 200.853C7.40478 191.025 6.99916 185.31 7.89794 174.787C4.6277 169.972 1.77515 165.513 0.933406 159.563C-1.14123 144.896 5.9308 130.836 14.3564 119.423C-0.0410527 107.118 -1.10569 90.0921 3.29631 72.9902C5.55567 64.2123 6.47528 56.7215 10.498 48.2382C7.405 47.2437 4.59063 45.3795 2.81939 42.616C-8.17772 25.4575 15.7332 8.38892 27.5799 25.9355C35.096 19.7283 47.05 14.1403 56.6935 12.7449ZM45.162 227.141C45.1252 228.089 44.2698 235.21 44.2268 234.929C45.0969 234.76 46.3824 234.749 47.2834 234.716C61.6253 234.161 75.9254 233.707 90.2752 234.33C92.2998 234.418 94.4446 234.317 96.4175 234.718C96.1343 233.593 95.108 231.336 94.6318 230.131C93.6244 227.597 92.6778 225.042 91.7926 222.464C82.4496 227.029 57.9578 226.904 47.7575 224.447C46.9688 225.239 45.8399 226.307 45.162 227.141Z" fill="#613003"/>
<path d="M44.2318 234.919C45.1019 234.75 46.3874 234.739 47.2884 234.706C61.6303 234.151 75.9304 233.697 90.2802 234.32C92.3048 234.408 94.4496 234.307 96.4225 234.709C98.7027 239.065 100.629 242.203 105.692 243.857C111.679 245.813 118.379 243.883 123.877 241.237C125.107 240.643 128.396 238.102 129.504 237.859C133.049 237.918 144.645 240.542 147.01 243.019C147.543 243.576 147.977 244.341 147.922 245.136C147.868 245.914 147.286 246.428 146.707 246.873C138.998 252.814 108.601 255.069 98.1637 255.527C82.5421 256.148 66.9019 256.144 51.2806 255.519C38.833 254.946 25.6421 253.443 13.4343 251.041C10.4993 250.464 0.981631 248.086 1.28722 244.493C1.54565 241.454 11.2436 239.289 13.7258 239.004C20.3736 243.422 29.9349 243.955 37.5031 241.634C40.8949 240.594 42.8092 237.99 44.2318 234.919Z" fill="#FED49B"/>
<path d="M67.416 12.8202C67.339 10.2651 67.1716 7.61655 67.8407 5.12048C68.1547 3.95011 69.4841 1.29676 71.0193 2.14399C74.2415 3.92181 72.8379 9.34633 73.5776 11.582C75.1912 12.0146 78.398 5.02681 81.7624 6.17305C83.7227 8.07132 80.1532 11.7641 78.8552 13.5176C87.8496 12.2502 99.1576 17.2678 106.871 21.4846C107.452 21.0983 108.036 20.7168 108.623 20.3406C107.44 19.4675 106.216 18.5323 105.002 17.7118C108.34 11.6123 114.744 8.07263 121.316 11.7202C124.308 13.3679 126.496 16.1698 127.364 19.4727C128.634 24.1753 126.522 29.5184 122.709 32.4392C121.922 32.6588 121.173 32.9922 120.485 33.4292C124.598 38.9494 127.09 42.6854 130.043 49.0462C131.745 52.3351 133 56.451 134.773 59.6443C137.502 64.5618 140.566 68.0749 142.177 73.6328C146.086 87.1343 142.418 97.9965 133.584 108.334C134.229 108.823 134.266 108.95 134.591 109.698C145.577 119.277 152.138 129.523 147.648 144.782C147.589 145.038 147.518 145.292 147.442 145.542C144.954 153.72 136.043 159.531 127.748 159.247C122.437 159.064 118.369 158.431 115.746 153.362C117.099 153.101 119.739 152.829 120.259 151.343C118.655 149.088 111.418 154.867 111.717 144.833C113.861 142.3 115.352 142.604 116.546 141.244L116.352 140.988C113.964 140.561 110.508 142.96 110.418 139.747C110.362 137.744 111.471 135.681 112.819 134.222C119.135 126.83 130.534 128.975 132.079 127.517C132.105 125.902 128.518 126.082 127.301 126.089C127.325 124.865 127.498 123.891 126.686 122.984C125.57 123.175 125.403 124.719 125.124 125.733C119.115 127.907 116.085 127.864 111.192 132.715L74.9415 109.718C73.799 108.997 72.6466 108.204 71.4817 107.53C64.1616 103.294 58.4302 97.221 49.2866 99.3193C45.8156 100.122 42.8044 102.268 40.9136 105.288C38.597 108.999 37.1035 117.2 36.0119 121.702L31.1323 141.74C30.5168 144.275 29.9402 147.24 29.2663 149.704C28.5586 148.68 28.1973 148.125 27.6333 147.046C27.1044 146.034 26.5123 142.935 25.8418 142.469L25.4994 142.589C24.8314 144.193 25.0429 146.495 25.7229 148.042C28.11 153.471 34.2962 153.232 38.3917 157.948C40.7572 160.816 41.158 162.286 39.9841 165.839C38.9307 165.441 37.0941 164.493 36.1745 165.289L36.3293 165.79C37.0377 166.632 38.3143 167.159 39.3276 167.668C40.021 168.771 40.4666 169.978 40.1926 171.214C38.8741 177.158 33.5286 174.52 32.274 175.446C32.2193 176.814 35.3053 176.996 36.4787 177.209C31.1398 188.298 13.849 179.476 8.86609 172.134C3.31697 163.959 2.16766 158.61 3.27924 149.177C4.44457 140.045 9.46675 130.234 14.6824 122.736C15.4562 121.624 15.5755 121.326 16.7165 121.139C17.5424 120.906 17.4869 120.599 18.0632 119.677C17.5637 119.121 16.935 118.656 16.3558 118.182C10.3311 113.246 6.11906 106.282 4.29736 98.6779C2.1104 89.5498 3.98256 79.962 6.10941 70.9801C8.04058 62.8248 9.29409 54.5381 13.8527 47.2699C10.0369 45.9021 6.98121 44.5657 4.63542 41.0501C2.66959 38.0682 1.98601 34.4208 2.73847 30.9294C4.83615 21.2602 16.1487 17.6853 23.2666 24.2657C25.0523 25.9163 25.8932 27.358 27.1504 29.3903C33.9618 22.8222 45.8698 17.3525 54.9835 15.3818C57.0319 14.9387 59.0181 14.3174 61.1171 14.1706C59.5238 12.6177 55.7748 9.32242 56.5729 6.93517C59.6911 4.31845 65.6009 10.7291 67.416 12.8202Z" fill="#FF9B34"/>
<path d="M3.26252 149.16C3.71531 151.226 3.98097 153.255 4.36115 155.331C6.26446 165.723 13.9334 174.601 24.9891 175.465C27.2616 170.861 29.7965 170.204 31.1917 165.442C32.0247 162.599 30.2221 158.129 32.7855 157.193C34.7228 156.485 36.8459 159.334 38.375 157.931C40.7405 160.8 41.1413 162.27 39.9674 165.822C38.914 165.424 37.0774 164.477 36.1577 165.273L36.3126 165.774C37.021 166.616 38.2975 167.143 39.3108 167.651C40.0043 168.755 40.4498 169.962 40.1758 171.197C38.8574 177.141 33.5118 174.504 32.2572 175.429C32.2026 176.797 35.2886 176.98 36.462 177.193C31.1231 188.282 13.8323 179.46 8.84936 172.118C3.30025 163.942 2.15094 158.594 3.26252 149.16Z" fill="#EC801E"/>
<path d="M112.803 134.224C113.392 134.673 113.391 134.643 114.106 134.508C119.108 133.566 121.859 133.279 123.088 138.993C123.294 139.953 125.837 143.112 126.102 144.385C127.671 148.668 126.071 155.163 132.863 154.281C139.155 153.463 142.103 151.259 145.826 146.3C146.131 145.894 146.554 145.268 146.98 145.043L147.101 145.151L147.632 144.784C147.572 145.04 147.502 145.294 147.425 145.544C144.938 153.723 136.027 159.533 127.732 159.249C122.421 159.067 118.353 158.433 115.729 153.364C117.082 153.103 119.723 152.831 120.242 151.345C118.639 149.09 111.401 154.869 111.7 144.835C113.845 142.302 115.336 142.607 116.529 141.246L116.335 140.99C113.948 140.563 110.491 142.962 110.402 139.749C110.346 137.746 111.455 135.683 112.803 134.224Z" fill="#EC801E"/>
<path d="M105 17.707C108.337 11.6074 114.742 8.0678 121.314 11.7154C124.306 13.3631 126.493 16.165 127.362 19.4679C128.632 24.1705 126.519 29.5136 122.707 32.4344C121.919 32.654 121.171 32.9874 120.482 33.4244C119.717 32.4822 118.773 31.5345 117.928 30.6495C115.284 27.8871 112.402 25.3632 109.315 23.1071C110.047 22.4192 110.132 22.3268 110.424 21.3708C109.877 21.1121 109.157 20.6545 108.621 20.3358C107.438 19.4626 106.213 18.5274 105 17.707Z" fill="#FD9224"/>
<path d="M110.429 21.3592C114.023 16.591 119.195 14.9856 122.242 21.3629C122.24 25.0068 121.847 26.2789 119.232 28.9059C118.846 29.704 118.395 29.8806 117.933 30.6379C115.289 27.8755 112.407 25.3516 109.32 23.0955C110.052 22.4076 110.137 22.3152 110.429 21.3592Z" fill="#613003"/>
<path d="M116.798 19.3671C121.409 18.5433 122.477 25.516 119.088 27.7997C118.588 28.1368 118.664 28.0359 118.132 27.9348C115.294 24.6979 108.558 21.1916 116.798 19.3671Z" fill="#AE5207"/>
<path d="M117.92 30.6519C118.382 29.8946 118.833 29.718 119.219 28.9199C119.93 29.8997 121.687 31.8383 122.699 32.4367C121.911 32.6563 121.163 32.9898 120.474 33.4268C119.708 32.4846 118.765 31.5369 117.92 30.6519Z" fill="#873B04"/>
<path d="M129.84 112.569C130.948 110.962 132.192 109.675 133.574 108.32C134.219 108.808 134.256 108.935 134.581 109.684C133.398 111.214 131.617 111.775 129.84 112.569Z" fill="#613003"/>
<path d="M108.631 20.3398C109.168 20.6586 109.888 21.1162 110.435 21.3749C110.143 22.3309 110.058 22.4233 109.326 23.1112C108.701 22.8796 107.486 21.9266 106.88 21.4839C107.46 21.0976 108.044 20.7161 108.631 20.3398Z" fill="#AE5207"/>
<path d="M18.0667 119.66C18.9135 120.263 20.0398 120.941 20.5619 121.802L20.5849 122.247C19.5914 122.659 17.5196 121.703 16.72 121.122C17.5459 120.89 17.4904 120.583 18.0667 119.66Z" fill="#AE5207"/>
<path d="M81.2006 70.4977C82.7966 70.2966 85.4188 70.485 87.2525 70.3999C93.1838 75.2499 88.4459 79.0163 83.6148 81.5558C83.7048 84.3154 83.9654 86.9154 84.2278 89.6581C87.4938 92.5277 88.1969 93.3164 89.1749 97.7434C88.1724 101.425 84.914 102.22 81.5084 102.395C78.8956 102.045 78.1508 101.194 77.1145 98.953C77.9775 94.7987 79.5491 92.8234 82.2146 89.6835C82.1027 87.2787 81.5494 84.2776 81.0319 81.9189C78.0642 81.7226 72.0811 80.3721 71.4954 76.7344C70.7397 72.0424 77.9012 71.0006 81.2006 70.4977Z" fill="#613003"/>
<path d="M83.5222 91.6802C84.6805 92.996 86.6424 94.4301 86.0272 96.184C86.8698 97.7567 86.387 98.9764 84.7847 99.5591C79.961 101.313 79.012 99.2491 80.7997 95.4166C81.4208 94.1069 82.5067 92.7106 83.5222 91.6802Z" fill="#E15223"/>
<path d="M83.5225 91.6802C84.6808 92.996 86.6427 94.4301 86.0276 96.184C83.623 95.2181 83.4244 95.3161 80.8 95.4166C81.4211 94.1069 82.507 92.7106 83.5225 91.6802Z" fill="#873B04"/>
<path d="M77.28 73.2184C78.7305 72.2483 85.9798 71.2378 87.103 73.0176C86.4094 74.4495 79.9371 73.7995 78.0575 74.242L77.28 73.2184Z" fill="#AE5207"/>
<path d="M78.0595 74.2426C77.0806 74.9257 75.1628 75.5068 74.3601 74.3005C74.7695 73.1292 76.1932 73.07 77.282 73.219L78.0595 74.2426Z" fill="#873B04"/>
<path d="M31.7433 80.7785C34.0009 80.4854 36.5331 80.7092 38.579 81.7609C40.5229 82.7426 41.9833 84.4732 42.6239 86.5547C44.2543 91.9605 39.5324 95.2012 35.0065 96.4896C30.4419 97.2368 24.9062 95.1976 23.9585 90.2117C23.6083 88.2792 24.0421 86.2866 25.1639 84.6746C26.6761 82.4644 29.1669 81.2458 31.7433 80.7785Z" fill="#FED49B"/>
<path d="M119.961 68.7281C124.345 68.1937 129.12 69.2228 130.702 73.9013C131.292 75.624 131.163 77.5122 130.344 79.1384C129.002 81.8289 126.76 82.8575 124.088 83.7464C112.046 85.5705 108.643 71.8251 119.961 68.7281Z" fill="#FED49B"/>
<path d="M49.3173 64.1027C58.2516 63.4439 60.7415 77.3671 51.898 79.828C41.9636 80.7424 41.0521 66.2631 49.3173 64.1027Z" fill="#613003"/>
<path d="M47.9674 66.8398C50.9022 66.925 50.8673 69.4373 49.1713 71.3456C48.7527 71.3959 48.4103 71.3441 47.9926 71.3068C47.1164 70.859 46.8154 70.2733 46.24 69.4638C46.842 68.257 47.0229 67.7843 47.9674 66.8398Z" fill="#FEFDFD"/>
<path d="M101.928 56.4235C110.534 56.1563 112.104 70.805 104.764 72.2175C103.839 72.2434 102.462 72.3235 101.588 71.9933C97.1035 70.2953 95.4292 64.4964 97.2349 60.3041C98.1962 58.0721 99.7698 57.2486 101.928 56.4235Z" fill="#613003"/>
<path d="M99.8576 59.6136C102.631 59.4021 103.392 61.7211 101.525 63.5663C98.6072 63.9208 98.1844 61.5965 99.8576 59.6136Z" fill="#FEFDFD"/>
<path d="M11.7813 39.0465C4.81738 32.4369 16.155 21.6579 23.0324 33.4287C20.8042 35.4987 18.4112 39.2341 16.6523 41.7973C16.4698 41.8451 16.2875 41.8929 16.1049 41.9407C15.4501 41.6876 15.4641 41.7038 14.9251 41.2613C13.7918 40.7642 12.4282 40.144 11.7813 39.0465Z" fill="#AE5207"/>
<path d="M11.7813 39.0465C4.81738 32.4369 16.155 21.6579 23.0324 33.4287C20.8042 35.4987 18.4112 39.2341 16.6523 41.7973C16.4698 41.8451 16.2875 41.8929 16.1049 41.9407C15.4501 41.6876 15.4641 41.7038 14.9251 41.2613C17.428 37.2616 16.9991 37.1748 20.3801 33.2633C19.2267 31.9159 18.5196 31.4414 17.0309 30.5283L14.2062 30.5176C8.41405 33.9197 12.4405 35.7969 11.7813 39.0465Z" fill="#613003"/>
<path d="M48.5202 48.1068C49.7117 48.0246 51.3298 48.0557 51.9017 49.3468C50.9801 51.0616 47.6226 50.1398 44.5293 52.6606L44.2964 52.8519C43.7477 53.4776 43.5801 53.7661 42.825 54.0936C42.1101 54.0146 42.4001 54.1686 41.9357 53.5989C41.6259 50.3445 45.9601 48.6246 48.5202 48.1068Z" fill="#613003"/>
<path d="M97.3036 40.8596C99.5388 40.6371 101.949 40.6764 103.77 42.1545C104.66 42.8763 105.521 43.9916 104.607 45.0018C103.68 44.9832 103.765 44.8614 102.914 44.3507C101.432 43.536 100.526 43.0522 98.7479 43.2657C97.539 43.4109 95.1995 44.4576 94.72 42.8618C95.2596 41.7083 96.2126 41.3304 97.3036 40.8596Z" fill="#613003"/>
<path d="M34.5664 152.1C34.0912 152.141 32.9902 151.84 32.5681 151.593C30.4222 150.335 32.4591 146.204 32.836 144.624L36.3769 129.589C37.8505 123.575 39.4526 115.718 41.2688 109.86C41.6178 108.756 42.1101 107.702 42.7331 106.726C44.5419 103.86 47.4363 101.851 50.7537 101.158C56.3643 99.9276 61.0572 103.732 65.6246 106.503C69.0554 108.584 72.4496 110.818 75.8431 112.967L109.803 134.517C109.375 135.418 108.802 137.066 108.201 137.729C108.414 138.256 109.113 142.82 109.134 143.453L108.916 143.643C109.05 143.791 109.212 143.971 109.403 144.182C109.55 146.214 109.401 148.163 110.349 150.086C110.49 150.369 110.661 150.792 110.812 151.112C111.812 151.833 112.768 152.37 113.762 153.044C113.839 153.635 113.969 154.918 114.135 155.431L114.16 155.499C120.692 163.243 126.339 160.029 128.359 161.643C129.041 161.073 132.674 160.803 133.657 160.771C134.456 160.12 136.314 159.983 137.367 159.837L137.487 159.461C138.082 158.894 138.343 158.958 139.22 158.87C140.284 157.717 142.05 156.811 143.329 155.591C143.367 157.687 143.571 158.394 144.097 160.415C144.841 168.357 145.424 175.063 143.987 183.08C143.527 185.651 142.581 187.772 142.094 189.928C140.324 195.66 138.685 197.806 135.557 202.593C131.963 201.27 132.551 201.669 129.261 201.002C124.783 200.941 117.758 202.538 115.048 206.397L115.168 206.669C116.739 206.726 118.922 205.208 120.569 204.558C123.485 203.396 126.635 202.935 129.761 203.213C139.824 204.962 142.213 213.529 138.617 222.251C134.453 234.887 110.412 251.788 100.014 236.565C98.1635 233.856 94.1272 223.365 93.618 220.062C90.8774 220.617 87.7739 221.588 84.8829 222.201C72.2453 225.009 59.9691 224.636 47.3306 222.168C42.8593 221.294 37.2954 218.752 33.3401 218.318C36.1823 221.411 41.1503 223.045 45.1835 223.991C44.0347 224.962 41.4708 227.222 40.6655 228.398L40.7491 228.679C41.6272 228.692 42.1989 228.286 42.9966 227.871C42.7926 236.01 40.7462 238.803 33.031 240.619C33.3162 239.54 34.4339 235.89 33.7931 234.876C32.5541 235.563 32.2801 238.333 30.303 240.391L30.1093 240.593C26.4883 240.843 24.6526 241.032 21.1384 239.922C22.149 238.096 23.9139 235.122 22.6883 232.978C21.354 234.04 20.9484 240.472 16.4641 238.202C13.0667 236.471 10.487 230.954 11.2024 227.187C11.8325 223.87 11.9617 205.997 13.0805 204.071C13.6248 204.17 13.8527 204.604 14.3024 205.094C14.7675 205.227 14.751 205.262 15.2082 205.133L15.5676 204.446C12.1749 197.758 10.1114 192.479 9.8629 184.815C9.77515 182.109 9.88352 179.393 9.76001 176.697C13.2194 179.659 16.7342 182.196 21.0807 183.452C21.5284 183.582 21.5357 183.922 21.6557 184.31C22.327 184.062 22.5814 183.883 23.2402 184.04C23.7097 184.588 23.5987 184.287 23.668 184.937L23.9067 184.593C24.6927 184.33 26.4984 184.417 27.2776 184.699C27.7864 184.378 31.5938 184.102 32.4814 184.027C32.8893 183.434 36.2769 182.034 36.9177 180.972C36.9872 180.857 37.4486 180.419 37.5637 180.307C38.0336 179.364 38.298 178.012 38.5529 176.957C39.6421 176.285 39.8858 176.147 40.7614 175.218C42.7608 172.393 42.5852 169.909 41.6619 166.772C41.7668 166.635 41.8685 166.496 41.9677 166.355C44.0693 163.33 42.3347 159.483 40.3331 156.933C39.7373 156.174 39.1222 155.765 38.9614 154.894C38.0233 154.888 34.9654 153.001 34.5664 152.1Z" fill="#E27619"/>
<path d="M34.5528 152.1C34.0776 152.141 32.9766 151.84 32.5545 151.593C30.4086 150.335 32.4455 146.204 32.8224 144.624L36.3633 129.589C37.8369 123.575 39.439 115.718 41.2552 109.86C41.6042 108.756 42.0965 107.702 42.7195 106.726C44.5283 103.86 47.4227 101.851 50.7401 101.158C56.3507 99.9276 61.0436 103.732 65.611 106.503C69.0418 108.584 72.436 110.818 75.8295 112.967L109.789 134.517C109.361 135.418 108.789 137.066 108.188 137.729C108.4 138.256 109.099 142.82 109.12 143.453L108.902 143.643C109.036 143.791 109.199 143.971 109.389 144.182C109.537 146.214 109.387 148.163 110.336 150.086C110.476 150.369 110.648 150.792 110.799 151.112C111.798 151.833 112.755 152.37 113.749 153.044C113.826 153.635 113.956 154.918 114.121 155.431L114.146 155.499C120.678 163.243 126.325 160.029 128.346 161.643C128.4 162.852 128.42 163.142 128.196 164.352C127.646 165.325 126.926 166.227 125.882 166.676C120.933 168.805 115.715 170.659 110.687 172.585L80.3357 184.264L52.4471 195.108C47.7847 196.933 40.4323 200.037 35.8464 201.318C35.3199 201.465 34.7908 201.601 34.2595 201.728C32.6102 201.237 31.3984 200.917 30.5553 199.197C29.1158 196.259 31.3317 188.717 32.1186 185.544L32.4678 184.027C32.8757 183.434 36.2633 182.034 36.9041 180.972C36.9736 180.857 37.4349 180.419 37.5501 180.307C38.02 179.364 38.2844 178.012 38.5393 176.957C39.6285 176.285 39.8722 176.147 40.7478 175.218C42.7472 172.393 42.5716 169.909 41.6483 166.772C41.7532 166.635 41.8549 166.496 41.9541 166.355C44.0557 163.33 42.3211 159.483 40.3195 156.933C39.7237 156.174 39.1086 155.765 38.9478 154.894C38.0097 154.888 34.9518 153.001 34.5528 152.1Z" fill="#FEC002"/>
<path d="M34.5665 152.1C34.0913 152.141 32.9902 151.84 32.5682 151.593C30.4222 150.335 32.4591 146.204 32.836 144.624L36.377 129.589C37.8505 123.575 39.4526 115.718 41.2688 109.86C41.6179 108.756 42.1102 107.702 42.7332 106.726C44.5419 103.86 47.4364 101.851 50.7538 101.158C56.3643 99.9276 61.0572 103.732 65.6246 106.503C69.0555 108.584 72.4496 110.818 75.8432 112.967L109.803 134.517C109.375 135.418 108.802 137.066 108.201 137.729C108.414 138.256 109.113 142.82 109.134 143.453L108.916 143.643C104.011 140.944 98.0622 136.914 93.2474 133.832L68.8442 118.409C64.4979 115.699 60.1534 112.809 55.6573 110.419C52.5461 108.765 49.9983 110.579 49.1308 113.654C45.3111 127.193 42.6891 141.361 38.9614 154.894C38.0234 154.888 34.9655 153.001 34.5665 152.1Z" fill="#2D251C"/>
<path d="M34.5665 152.1C34.0913 152.141 32.9902 151.84 32.5682 151.593C30.4222 150.335 32.4591 146.204 32.836 144.624L36.377 129.589C37.8505 123.575 39.4526 115.718 41.2688 109.86C41.6179 108.756 42.1102 107.702 42.7332 106.726C44.5419 103.86 47.4364 101.851 50.7538 101.158C56.3643 99.9276 61.0572 103.732 65.6246 106.503C69.0555 108.584 72.4496 110.818 75.8432 112.967L109.803 134.517C109.375 135.418 108.802 137.066 108.201 137.729C105.22 135.542 101.193 133.132 98.0295 131.121L80.1342 119.782L66.1204 110.963C63.0886 109.073 59.5049 106.623 56.2928 105.288C51.2235 103.181 45.6548 106.668 44.4577 111.928C41.4373 125.2 37.3631 138.809 34.5665 152.1Z" fill="#FEC002"/>
<path d="M114.16 155.5C120.692 163.244 126.339 160.03 128.359 161.643C128.414 162.853 128.434 163.142 128.21 164.353C126.754 163.409 123.902 163.741 122.063 163.192C117.931 161.96 114.94 159.821 114.16 155.5Z" fill="#FD9224"/>
<path d="M37.5516 180.3C37.3467 182.925 34.7987 185.571 32.1201 185.537L32.4694 184.02C32.8772 183.427 36.2648 182.027 36.9056 180.965C36.9751 180.85 37.4365 180.412 37.5516 180.3Z" fill="#FD9224"/>
<path d="M110.8 151.1C111.799 151.821 112.756 152.357 113.75 153.031C113.827 153.622 113.957 154.905 114.123 155.419C112.44 154.917 110.992 152.816 110.8 151.1Z" fill="#FD9224"/>
<path d="M40.7577 175.22C40.9356 176.414 40.2968 177.43 39.5937 178.379C39.0283 179.131 38.341 179.783 37.5601 180.309C38.03 179.365 38.2943 178.014 38.5492 176.958C39.6384 176.287 39.8822 176.149 40.7577 175.22Z" fill="#FD9224"/>
<path d="M59.9051 125.329C67.838 124.748 68.3976 133.015 69.976 138.741C71.3026 143.432 72.5471 148.144 73.7087 152.878C74.1086 154.464 75.7787 159.585 75.2375 161.14C74.5807 163.028 71.7821 163.916 69.7487 163.118C66.563 160.752 60.4169 146.369 57.5631 142.282C56.6507 140.975 53.7837 135.353 53.4816 133.773C52.6795 129.582 55.9658 126.249 59.9051 125.329Z" fill="#2D251C"/>
<path d="M76.352 166.421C79.9717 166.133 83.1518 168.806 83.49 172.421C83.8283 176.037 81.1991 179.253 77.5886 179.641C75.2086 179.897 72.8751 178.852 71.4814 176.905C70.0877 174.959 69.8495 172.413 70.8582 170.242C71.8666 168.071 73.9658 166.611 76.352 166.421Z" fill="#2D251C"/>
<path d="M139.212 158.859C140.276 157.706 142.042 156.8 143.321 155.58C143.358 157.676 143.562 158.383 144.088 160.404C144.832 168.346 145.416 175.052 143.979 183.069C143.518 185.64 142.572 187.761 142.085 189.917C140.315 195.649 138.676 197.795 135.548 202.581C131.955 201.259 132.543 201.658 129.252 200.991C124.775 200.93 117.749 202.527 115.039 206.385L115.16 206.657C116.73 206.714 118.913 205.196 120.56 204.547C123.476 203.384 126.626 202.924 129.752 203.202C131.268 206.102 135.761 209.676 130.641 212.438C119.909 211.58 110.266 220.638 105.522 229.501C100.9 224.297 102.525 217.216 104.663 211.264C87.2897 222.374 58.6418 223.837 40.04 215.154C46.5987 212.289 54.6658 209.507 61.4713 206.861L108.312 188.682C112.894 186.902 117.486 185.152 122.089 183.43C125.27 182.237 128.458 181.094 131.531 179.641C135.844 177.603 139.968 172.717 139.139 167.686C139.718 166.284 139.863 164.384 140.001 162.87C139.681 161.17 139.936 160.453 139.212 158.859Z" fill="#FD9224"/>
<path d="M142.073 189.92C140.303 195.652 138.664 197.798 135.536 202.585C131.943 201.262 132.531 201.661 129.24 200.994C132.024 201.275 136.762 196.264 138.348 194.211C139.557 192.645 140.29 190.589 142.073 189.92Z" fill="#EC801E"/>
<path d="M139.2 158.859C140.264 157.706 142.03 156.8 143.309 155.58C143.346 157.676 143.55 158.383 144.077 160.404C143.436 160.793 140.323 162.593 139.99 162.87C139.669 161.17 139.924 160.453 139.2 158.859Z" fill="#EC801E"/>
<path d="M137.376 159.826L137.496 159.45C138.091 158.884 138.352 158.948 139.229 158.86C139.953 160.454 139.699 161.171 140.019 162.871C139.881 164.385 139.736 166.285 139.157 167.686C137.501 171.984 134.594 174.891 130.369 176.602C123.926 179.211 117.312 181.697 110.818 184.182L74.8658 198.03L50.6544 207.437C47.1286 208.808 43.5951 210.188 40.0528 211.513C28.9886 215.648 18.9664 208.929 19.1219 196.94C19.5953 194.478 20.2164 191.107 20.6356 188.647C20.8394 187.151 21.0388 185.673 21.6647 184.3C22.336 184.051 22.5905 183.873 23.2492 184.03C23.7187 184.578 23.6077 184.276 23.677 184.927L23.9157 184.583C24.7017 184.32 26.5074 184.407 27.2866 184.688C27.7954 184.368 31.6029 184.091 32.4905 184.017L32.1412 185.533C31.3543 188.707 29.1384 196.249 30.5779 199.186C31.421 200.906 32.6328 201.226 34.2821 201.718C34.8134 201.591 35.3426 201.455 35.8691 201.308C40.4549 200.026 47.8073 196.922 52.4697 195.097L80.3583 184.254L110.71 172.574C115.738 170.648 120.955 168.795 125.905 166.666C126.949 166.216 127.668 165.315 128.219 164.342C128.443 163.131 128.423 162.842 128.368 161.632C129.05 161.063 132.683 160.793 133.666 160.761C134.465 160.109 136.323 159.973 137.376 159.826Z" fill="#FEC002"/>
<path d="M128.347 161.632C129.029 161.062 132.662 160.792 133.645 160.76C133.777 161.461 133.926 162.117 133.959 162.83C133.658 165.228 132.735 168.53 130.613 169.754C125.333 172.801 116.804 175.596 111.026 177.795L81.7262 189.114L51.8967 200.684C47.1161 202.538 42.3495 204.53 37.537 206.256C33.8873 207.566 29.0932 206.778 26.7646 203.474C23.21 198.431 26.0595 190.239 27.2656 184.687C27.7744 184.367 31.5818 184.091 32.4694 184.016L32.1202 185.532C31.3333 188.706 29.1174 196.248 30.5569 199.186C31.4 200.905 32.6118 201.226 34.2611 201.717C34.7924 201.59 35.3215 201.454 35.8481 201.307C40.4339 200.026 47.7863 196.922 52.4487 195.096L80.3373 184.253L110.689 172.574C115.717 170.647 120.934 168.794 125.884 166.665C126.928 166.216 127.647 165.314 128.198 164.341C128.422 163.131 128.402 162.841 128.347 161.632Z" fill="#2D251C"/>
<path d="M137.376 159.826L137.496 159.45C138.091 158.884 138.352 158.948 139.229 158.86C139.953 160.454 139.699 161.171 140.019 162.871C139.881 164.385 139.736 166.285 139.157 167.686C137.501 171.984 134.594 174.891 130.369 176.602C123.926 179.211 117.312 181.697 110.818 184.182L74.8658 198.03L50.6544 207.437C47.1286 208.808 43.5951 210.188 40.0528 211.513C28.9886 215.648 18.9664 208.929 19.1219 196.94C19.5953 194.478 20.2164 191.107 20.6356 188.647C20.8394 187.151 21.0388 185.673 21.6647 184.3C22.336 184.051 22.5905 183.873 23.2492 184.03C23.7187 184.578 23.6077 184.276 23.677 184.927C21.8444 192.122 18.9598 200.722 24.8002 206.928C28.0909 210.423 33.8776 211.359 38.2657 209.852C42.2014 208.503 46.5051 206.643 50.4497 205.116L77.7587 194.5L116.933 179.422C121.475 177.637 129.717 175.059 133.712 172.116C136.832 169.82 137.65 165.296 137.663 161.464L137.376 159.826Z" fill="#613003"/>
<path d="M133.64 160.774C134.438 160.123 136.297 159.986 137.35 159.84L137.637 161.478C136.814 161.716 134.482 162.307 133.954 162.844C133.921 162.132 133.772 161.475 133.64 160.774Z" fill="#FD9224"/>
<path d="M129.76 203.2C139.823 204.949 142.212 213.515 138.616 222.238C138.245 222.569 138.105 222.817 137.831 223.223C137.438 222.896 137.44 222.902 137.149 222.481C138.094 217.223 135.927 213.61 130.648 212.436C135.769 209.674 131.276 206.1 129.76 203.2Z" fill="#EC801E"/>
<path d="M105.532 229.499C110.276 220.637 119.918 211.579 130.65 212.436C135.929 213.61 138.096 217.223 137.15 222.482L136.655 222.534C135.703 220.222 137.55 216.365 133.186 214.595C121.772 209.968 106.4 224.544 104.706 235.028L103.96 234.938C104.217 232.808 104.877 231.513 105.532 229.499Z" fill="#592700"/>
<path d="M13.6001 185.14C15.3 186.108 19.7238 187.832 20.6368 188.658C20.2176 191.117 19.5965 194.489 19.1231 196.951C15.8915 196.051 14.1457 188.237 13.6001 185.14Z" fill="#FD9224"/>
<path d="M103.96 234.94L104.706 235.03C104.746 236.862 105.825 239.196 105.795 239.729C104.094 239.255 103.95 236.436 103.96 234.94Z" fill="#613003"/>
<path d="M15.5452 204.44C15.9113 205.116 16.5398 206.033 16.4769 206.739C15.6145 206.809 14.8357 205.708 14.28 205.087C14.7451 205.221 14.7287 205.256 15.1858 205.127L15.5452 204.44Z" fill="#873B04"/>
</svg>
