<svg xmlns="http://www.w3.org/2000/svg" viewBox="0 0 512 512" width="512" height="512">
  <!--
    Acme Logo Mark — White on Blue (v3 final)
    Same card geometry as approved logo, white fills on blue gradient background.
  -->
  <defs>
    <linearGradient id="wBg" x1="0%" y1="0%" x2="100%" y2="100%">
      <stop offset="0%" stop-color="#1E3A8A"/>
      <stop offset="50%" stop-color="#1D4ED8"/>
      <stop offset="100%" stop-color="#2563EB"/>
    </linearGradient>
  </defs>

  <rect width="512" height="512" rx="64" fill="url(#wBg)"/>

  <!-- Card 3 (back) — tilted, white ghost -->
  <path opacity="0.12" d="M275.795 117.938L122.319 186.27C114.247 189.864 110.616 199.321 114.21 207.394L215.081 433.953C218.675 442.026 228.133 445.656 236.205 442.062L389.681 373.731C397.754 370.136 401.384 360.679 397.79 352.606L296.919 126.047C293.325 117.974 283.867 114.344 275.795 117.938Z" fill="white"/>

  <!-- Card 2 (middle) — slight tilt, white ghost -->
  <path opacity="0.25" d="M309.057 113.595L144.728 148.524C136.085 150.362 130.567 158.858 132.404 167.501L183.966 410.082C185.804 418.725 194.3 424.243 202.943 422.406L367.272 387.477C375.916 385.639 381.433 377.143 379.596 368.5L328.034 125.919C326.197 117.276 317.7 111.758 309.057 113.595Z" fill="white"/>

  <!-- Card 1 (front) — straight, near-white -->
  <g>
    <rect x="156" y="116" width="200" height="280" rx="16" fill="white" opacity="0.95"/>
    <!-- Text lines in brand blue -->
    <rect x="192" y="166" width="96" height="8" rx="4" fill="#2563EB" opacity="0.3"/>
    <rect x="192" y="188" width="69" height="6" rx="3" fill="#2563EB" opacity="0.18"/>
    <rect x="192" y="206" width="85" height="6" rx="3" fill="#2563EB" opacity="0.18"/>
    <line x1="184" y1="236" x2="328" y2="236" stroke="#2563EB" stroke-opacity="0.1" stroke-width="1.5"/>
    <rect x="192" y="256" width="77" height="6" rx="3" fill="#2563EB" opacity="0.12"/>
    <rect x="192" y="274" width="53" height="6" rx="3" fill="#2563EB" opacity="0.12"/>
  </g>

  <!-- Sparkles (top-right) -->
  <path d="M370 73C374 93 382 101 402 105C382 109 374 117 370 137C366 117 358 109 338 105C358 101 366 93 370 73Z" fill="#FBBF24" opacity="0.8"/>
  <path opacity="0.7" d="M400 69C402 76 405 79 412 81C405 83 402 86 400 93C398 86 395 83 388 81C395 79 398 76 400 69Z" fill="#FCD34D"/>
  <path opacity="0.5" d="M350 68C351 72 353 74 357 75C353 76 351 78 350 82C349 78 347 76 343 75C347 74 349 72 350 68Z" fill="#FDE68A"/>
</svg>
