<svg width="43" height="103" viewBox="0 0 43 103" fill="none" xmlns="http://www.w3.org/2000/svg">
<path d="M14.4444 0.567473L14.4787 0.0686493L13.4811 0.0001086L13.4468 0.498933L13.9456 0.533203L14.4444 0.567473ZM38.9456 56.0332L39.2784 56.4063L38.9456 56.0332ZM1.44558 51.0332L1.91707 51.1996L1.44558 51.0332ZM13.7147 102.477C13.9596 102.604 14.2616 102.509 14.3891 102.264L16.4673 98.2727C16.5948 98.0278 16.4996 97.7258 16.2547 97.5983C16.0098 97.4708 15.7078 97.566 15.5803 97.8109L13.733 101.359L10.1851 99.5115C9.9402 99.384 9.63826 99.4792 9.51074 99.7241C9.38321 99.9691 9.47839 100.271 9.72332 100.399L13.7147 102.477ZM13.9456 0.533203L13.4468 0.498933C13.3681 1.64502 13.3151 2.86736 13.2881 4.1523L13.7879 4.16283L14.2878 4.17336C14.3146 2.90228 14.3669 1.69589 14.4444 0.567473L13.9456 0.533203ZM13.887 11.4629L13.3875 11.485C13.4914 13.8379 13.6625 16.2933 13.9015 18.7953L14.3992 18.7478L14.8969 18.7002C14.6595 16.2147 14.4896 13.7764 14.3866 11.4409L13.887 11.4629ZM15.271 25.996L14.7763 26.068C15.1298 28.4965 15.5461 30.9199 16.026 33.2898L16.5161 33.1905L17.0062 33.0913C16.5302 30.741 16.1169 28.3357 15.7658 25.924L15.271 25.996ZM18.2027 40.286L17.7209 40.4197C18.4083 42.8966 19.1776 45.2458 20.0305 47.3973L20.4953 47.213L20.9601 47.0287C20.1227 44.9165 19.3643 42.602 18.6845 40.1523L18.2027 40.286ZM23.7737 53.7294L23.3559 54.0041C24.9358 56.4065 26.7385 58.2243 28.7849 59.1509L28.9911 58.6955L29.1974 58.24C27.3908 57.4219 25.7173 55.7749 24.1914 53.4546L23.7737 53.7294ZM35.9745 58.1789L36.2143 58.6177C37.2117 58.0726 38.2328 57.3389 39.2784 56.4063L38.9456 56.0332L38.6128 55.6601C37.6132 56.5516 36.6537 57.2379 35.7347 57.7402L35.9745 58.1789ZM38.9456 56.0332L39.2784 56.4063C40.315 55.4819 41.1493 54.5836 41.7951 53.7125L41.3935 53.4147L40.9918 53.1169C40.3946 53.9225 39.6094 54.7712 38.6128 55.6601L38.9456 56.0332ZM42.3746 46.8051L42.8082 46.5561C41.7416 44.698 39.5877 43.2562 36.8917 42.2202L36.7123 42.6869L36.533 43.1536C39.1431 44.1566 41.0424 45.4887 41.9409 47.054L42.3746 46.8051ZM29.8017 41.0232L29.8665 40.5274C27.5655 40.2265 25.1232 40.111 22.6689 40.1933L22.6856 40.693L22.7024 41.1927C25.1044 41.1121 27.4921 41.2255 29.7369 41.519L29.8017 41.0232ZM15.6098 41.5137L15.509 41.024C13.0521 41.5297 10.71 42.2668 8.63355 43.2547L8.84836 43.7062L9.06317 44.1577C11.0531 43.211 13.3159 42.4963 15.7106 42.0035L15.6098 41.5137ZM3.18798 47.9433L2.79878 47.6294C2.01347 48.6032 1.39249 49.6813 0.974081 50.8668L1.44558 51.0332L1.91707 51.1996C2.29482 50.1293 2.85734 49.1498 3.57718 48.2572L3.18798 47.9433ZM1.44558 51.0332L0.974081 50.8668C0.477736 52.2731 0.162443 53.7618 -0.000180542 55.3149L0.497101 55.367L0.994382 55.4191C1.14999 53.933 1.45024 52.5223 1.91707 51.1996L1.44558 51.0332ZM0.947386 64.2275L0.454666 64.3125C0.940304 67.1272 1.69726 70.0463 2.61563 73.0023L3.09311 72.854L3.5706 72.7056C2.66077 69.7771 1.91621 66.9019 1.44011 64.1424L0.947386 64.2275ZM6.02905 81.2525L5.56162 81.43C6.62369 84.2269 7.74123 87.009 8.82325 89.7166L9.28754 89.531L9.75184 89.3455C8.66862 86.6349 7.55479 83.862 6.49648 81.075L6.02905 81.2525ZM12.5052 97.8281L12.0355 97.9995C12.5619 99.4417 13.0451 100.84 13.4687 102.184L13.9456 102.033L14.4225 101.883C13.9933 100.521 13.5049 99.1087 12.9749 97.6567L12.5052 97.8281Z" fill="black"/>
</svg>
