<svg width="222" height="160" viewBox="0 0 222 160" fill="none" xmlns="http://www.w3.org/2000/svg">
<path d="M75.3592 29.2387C70.422 21.7517 72.8526 11.0966 80.323 6.41198C83.9084 4.16362 88.1379 2.83715 92.3487 3.69854C96.2067 4.46773 99.5907 6.76201 101.733 10.0612C103.024 12.0424 104.397 15.6918 103.999 18.1332C103.848 19.0596 103.303 19.2318 103.411 20.5513C104.247 21.8751 107.357 21.4326 108.805 21.2853C120.754 20.0704 130.695 22.4693 142.141 25.9155C148.568 24.0088 153.882 22.159 160.863 25.4832C161.971 26.0105 163.38 27.216 163.779 28.4325C163.17 31.7918 156.341 29.6572 157.901 33.5609C158.322 34.6152 159.859 33.9595 160.511 34.2927C166.029 37.1114 170.883 41.1033 175.153 45.5526C176.74 47.1967 178.242 48.92 179.655 50.7162C180.414 51.681 182.385 54.4549 183.168 55.098C184.596 54.8444 186.089 52.9921 187.415 52.2626C196.991 46.9948 207.003 53.8752 208.268 64.1942C209.091 70.9105 203.135 80.0876 196.133 80.5345C194.689 80.7689 194.351 81.4276 193.209 81.8796C196.228 96.1467 195.787 108.633 192.409 122.786C185.539 119.825 178.154 119.355 171.131 122.131C168.067 123.319 165.336 125.228 163.167 127.697C162.734 128.185 161.136 130.111 160.747 130.41C159.663 130.251 156.322 130.299 155.041 130.297L143.988 130.303C142.424 130.389 140.681 130.357 139.11 130.332C129.749 130.189 120.288 130.505 110.941 130.248L78.5775 130.298C72.0013 130.305 64.5314 130.464 57.9929 130.233C62.136 114.622 49.4833 102.121 34.5464 101.733C33.1009 101.696 31.6525 101.682 30.207 101.663C31.7244 95.5054 35.0168 87.0781 37.6102 81.3199C47.046 60.3707 58.2107 45.517 76.9663 31.9872L75.3592 29.2387Z" fill="#FF9A43"/>
<path d="M73.0464 82.2226C76.4632 83.2981 78.983 84.1349 81.0811 87.3316C82.5007 89.4841 82.9619 92.1005 82.3565 94.5675C80.6187 101.674 73.3933 102.254 67.2206 100.75C62.7942 99.0963 59.9127 96.7881 57.664 92.6065C57.8188 82.7337 63.6318 80.0988 73.0464 82.2226Z" fill="#FFB977"/>
<path d="M110.938 130.248L110.784 130.08C109.837 129.066 108.819 128.772 107.586 128.223C100.636 125.142 92.8246 120.372 89.8494 113.019C84.8833 100.745 93.1097 85.6595 101.954 77.2807C108.423 71.1535 116.671 67.4738 125.634 67.6865C133.763 67.8453 141.488 71.2666 147.068 77.1803C153.568 84.0369 156.436 93.7856 156.08 103.065C155.742 111.875 152.936 122.053 146.262 128.196C145.499 128.898 144.657 129.548 143.985 130.303C142.42 130.389 140.678 130.356 139.107 130.332C129.746 130.189 120.285 130.505 110.938 130.248Z" fill="#E57D2E"/>
<path d="M120.248 105.978C128.466 105.513 127.014 115.804 122.428 119.256C121.606 119.875 120.737 120.184 119.788 120.539C119.145 120.585 118.608 120.421 118.017 120.256C112.1 118.609 114.162 110.402 117.743 107.451C118.581 106.76 119.302 106.42 120.248 105.978Z" fill="#4D2701"/>
<path d="M121.256 108.566C123.722 110.554 122.86 110.659 122.7 113.486C121.981 114.931 121.472 116.633 119.601 116.934C118.274 117.147 117.449 115.995 117.371 114.784C117.267 113.177 118.049 111.859 119.034 110.665L121.256 108.566Z" fill="#F6754C"/>
<path d="M121.255 108.566C123.722 110.554 122.859 110.659 122.7 113.486C122.407 111.033 121.136 111.155 119.033 110.665L121.255 108.566Z" fill="#A54B09"/>
<path d="M113.455 83.066C118.731 82.8373 125.209 89.8544 118.87 93.2539C114.134 93.3367 112.045 90.5441 110.482 86.5094C111.251 84.6675 111.646 83.8921 113.455 83.066Z" fill="#4D2701"/>
<path d="M137.97 91.19C141.105 91.0266 146.401 92.7892 144.052 97.2522C143.246 98.7821 141.085 99.1043 139.488 99.3899C137.171 99.6849 133.679 98.6783 133.036 96.0926C132.816 95.1992 132.984 94.2545 133.499 93.4921C134.558 91.8913 136.223 91.5283 137.97 91.19Z" fill="#4D2701"/>
<path d="M85.9954 11.6669C91.6971 6.09979 97.3809 23.6569 91.5549 24.3898C89.9837 23.8703 87.4454 20.9951 86.1926 23.6306C86.0437 25.6501 87.5284 26.7383 84.9037 27.6088C82.5972 26.9794 82.6002 23.8118 83.5054 22.0369C84.6149 19.8614 85.9191 19.5499 88.0789 18.8302C88.0061 17.5332 86.9033 15.901 86.8577 13.5155C86.3029 12.9521 86.2289 12.4315 85.9954 11.6669Z" fill="#4D2701"/>
<path d="M86.8574 13.5156C87.7239 13.7878 88.4215 14.2808 89.1925 14.7627C90.3598 17.3329 90.4904 17.4855 90.8525 20.2642C90.1208 19.848 88.8219 19.0493 88.0786 18.8303C88.0058 17.5333 86.903 15.9011 86.8574 13.5156Z" fill="#A54B09"/>
<path d="M80.6085 26.1127C80.3243 25.3785 80.0841 24.6278 79.8895 23.8646C78.6114 18.8488 80.5886 13.0091 85.9947 11.666C86.2282 12.4307 86.3022 12.9512 86.857 13.5147C86.9026 15.9001 88.0054 17.5323 88.0782 18.8294C85.9184 19.5491 84.6142 19.8605 83.5047 22.0361C82.5996 23.811 82.5965 26.9786 84.903 27.6079C83.8529 27.6698 78.162 31.2384 76.9625 31.9858L75.3555 29.2374C77.1022 27.9505 78.702 27.1057 80.6085 26.1127Z" fill="#E57D2E"/>
<path d="M191.269 73.8659C188.149 71.4312 192.003 71.1945 192.189 69.1939C192.386 67.0845 189.017 67.5057 187.877 66.043C187.007 60.9973 199.088 55.4264 200.498 61.8791C199.705 62.224 199.351 62.3951 198.483 62.5782C197.429 63.7014 195.688 65.326 194.42 66.2254C196.453 69.4348 195.774 70.0618 193.764 72.9446C193.107 73.6218 192.216 73.6784 191.269 73.8659Z" fill="#4D2701"/>
<path d="M191.102 64.2097C191.381 64.0641 191.662 63.921 191.943 63.7797C194.127 62.6894 196.055 61.7676 198.484 62.5779C197.43 63.7011 195.69 65.3257 194.422 66.2251C193.476 65.1974 192.355 64.7718 191.102 64.2097Z" fill="#A54B09"/>
<path d="M198.482 62.5761C199.351 62.393 199.704 62.2219 200.497 61.877C200.664 63.0845 201.153 64.0925 201.329 65.0698C201.664 66.9429 200.955 69.4778 199.858 71.0011C198.606 73.0095 195.21 74.3551 194.732 75.4107C194.284 74.3586 194.985 74.5833 193.764 72.9425C195.773 70.0597 196.452 69.4327 194.419 66.2232C195.688 65.3239 197.428 63.6992 198.482 62.5761Z" fill="#E57D2E"/>
<path d="M191.271 73.8647C192.218 73.6772 193.11 73.6205 193.767 72.9434C194.988 74.5842 194.287 74.3594 194.735 75.4116C195.076 76.587 195.955 79.4312 196.131 80.5335C194.687 80.768 194.35 81.4267 193.207 81.8786C192.529 79.5214 191.788 76.2652 191.271 73.8647Z" fill="#A54B09"/>
<path d="M86.5027 58.3691C97.7135 58.4806 94.0513 77.7945 83.9196 78.7984C73.4189 78.2467 76.0656 61.2237 86.5027 58.3691Z" fill="#222121"/>
<path d="M84.9436 61.961C89.0767 61.9407 89.8829 66.3098 85.9583 68.6019C81.5806 69.1864 81.0117 64.3835 84.9436 61.961Z" fill="#FEFCF3"/>
<path d="M170.22 84.9166C179.945 84.2272 179.911 101.482 169.843 105.47C159.35 105.739 161.342 87.4163 170.22 84.9166Z" fill="#222121"/>
<path d="M170.204 88.7793C174.438 88.8098 175.166 93.3445 170.771 95.5742C166.484 95.6539 166.242 91.1893 170.204 88.7793Z" fill="#FEFCF3"/>
<path d="M72.3654 30.8331C69.6692 25.9519 68.62 20.313 70.1951 14.8752C71.7751 9.60715 75.3612 5.17049 80.1807 2.52101C92.7574 -4.36273 106.668 3.54447 107.546 17.8272C119.38 16.526 130.906 18.6995 142.128 22.332C146.749 19.9519 154.386 19.7433 159.255 21.2498C164.522 22.8797 170.547 27.5652 164.708 32.6487C172.368 37.7073 178.228 42.9464 183.705 50.4041C192.96 44.9493 203.537 46.3577 209.103 56.1526C211.572 60.4639 212.22 65.5819 210.904 70.3726C209.573 75.2818 206.322 79.4493 201.885 81.937C200.214 82.8632 198.905 83.3075 197.064 83.7505C198.605 94.5994 198.999 104.002 197.268 114.893C196.72 118.336 195.974 121.437 195.356 124.816C197.693 126.534 198.051 127.283 199.659 129.593C200.358 131.244 200.817 134.046 201.261 135.012C201.29 135.36 201.306 135.71 201.31 136.059C201.442 148.728 186.463 168.234 174.539 156.26L174.363 156.287C169.363 156.96 165.931 154.195 164.051 149.747C157.194 147.415 156.981 140.857 158.766 134.789C159.4 133.317 160.06 131.857 160.745 130.409C161.135 130.111 162.733 128.184 163.166 127.697C165.334 125.228 168.066 123.318 171.13 122.131C178.153 119.355 185.537 119.825 192.408 122.785C195.786 108.632 196.226 96.1461 193.208 81.879C194.35 81.427 194.687 80.7683 196.131 80.5339C203.133 80.087 209.089 70.9099 208.266 64.1936C207.002 53.8746 196.99 46.9942 187.413 52.262C186.088 52.9914 184.595 54.8438 183.167 55.0974C182.384 54.4542 180.413 51.6803 179.653 50.7155C178.241 48.9194 176.738 47.196 175.151 45.552C170.881 41.1026 166.028 37.1108 160.509 34.292C159.858 33.9589 158.321 34.6146 157.9 33.5603C156.34 29.6566 163.169 31.7912 163.778 28.4319C163.379 27.2154 161.969 26.0099 160.862 25.4825C153.881 22.1584 148.566 24.0082 142.14 25.9149C130.693 22.4687 120.753 20.0698 108.804 21.2847C107.355 21.432 104.246 21.8745 103.409 20.5507C103.301 19.2312 103.847 19.059 103.998 18.1326C104.395 15.6911 103.022 12.0417 101.732 10.0605C99.5892 6.76138 96.2052 4.4671 92.3472 3.69791C88.1364 2.83652 83.9069 4.16299 80.3215 6.41135C72.8511 11.0959 70.4205 21.751 75.3577 29.2381L76.9648 31.9866C58.2092 45.5164 47.0445 60.3701 37.6087 81.3193C35.0154 87.0774 31.7229 95.5048 30.2055 101.663C31.651 101.681 33.0994 101.695 34.5449 101.733C49.4818 102.12 62.1345 114.621 57.9914 130.233C57.0128 130.169 55.3879 130.251 54.3623 130.272C52.4577 130.321 50.3691 130.259 48.4492 130.237C47.29 131.893 46.5763 132.813 45.04 134.199C40.254 136.294 38.2972 135.588 33.4083 135.077C31.5786 134.885 28.6329 135.823 26.7066 135.765C24.8836 135.797 23.133 135.027 21.3327 134.848C16.9268 134.892 16.3814 135.816 11.8599 134.347C10.0383 133.748 8.30407 131.221 7.27432 129.674C1.61047 115.877 13.8375 104.539 26.6534 102.376C32.0583 80.8037 44.3603 57.3518 60.0431 41.5861C64.6714 36.9335 68.143 34.7027 72.3654 30.8331Z" fill="#4D2701"/>
<path d="M31.2591 131.857C15.7135 135.328 22.7559 122.352 20.8974 119.61C15.9146 117.279 18.0014 129.425 18.0973 131.344C17.739 132.964 13.9247 131.378 13.2674 131.083C7.90666 128.679 8.39818 120.344 10.9855 116.028C21.3089 98.8068 55.9199 101.98 55.5119 125.33C55.4783 127.246 54.8823 128.459 54.3612 130.272C52.4566 130.321 50.368 130.259 48.4481 130.237C49.086 128.671 50.2216 126.703 49.7643 125.132C46.2635 121.678 46.4785 132.181 40.1969 132.439C29.3615 132.884 35.6997 122.336 34.4519 120.078C33.7847 119.551 33.714 119.429 32.9101 119.293C29.6354 120.461 30.5179 129.044 31.2591 131.857Z" fill="#E57D2E"/>
<path d="M177.889 123.826C183.142 123.112 189.008 124.159 193.354 127.284C201.055 132.828 197.805 143.826 192.865 150.112C189.178 154.802 182.839 158.957 177.347 154.535C178.568 152.637 181.79 148.771 180.706 146.674C180.071 146.18 179.977 146.163 179.169 146.154C178.289 146.539 178.609 146.328 177.945 147.184C174.981 154.239 170.804 155.476 166.856 148.215C167.316 147.105 167.706 146.166 168.261 145.097C168.909 143.848 170.639 141.62 170.908 140.369C170.578 138.624 168.987 138.416 167.882 139.689C166.164 141.668 165.103 144.225 163.998 146.583C162.461 145.158 161.078 143.287 160.994 141.1C160.651 132.105 169.354 124.56 177.889 123.826Z" fill="#E57D2E"/>
<path d="M206.468 18.5684C208.796 18.9813 208.354 22.1926 209.584 24.0597C210.71 25.7704 214.784 25.4758 214.497 27.4914C213.679 28.1108 211.792 28.6506 210.717 29.0591C209.094 31.4113 209.207 33.4239 208.084 35.8031C206.064 35.1606 206.339 31.9033 205.333 30.4625C204.333 29.0302 200.852 28.8383 200.051 27.3721C200.818 26.0212 202.578 26.0864 203.776 25.3274C205.496 24.2366 205.928 20.6484 206.468 18.5684Z" fill="#FEBE32"/>
<path d="M5.7198 66.4844C7.47805 66.7792 8.06066 70.0011 8.70778 71.6061C9.90353 72.3723 12.8212 73.3405 13.4145 74.4674C12.7755 74.89 12.2245 75.0846 11.5596 75.4467C8.55982 77.0799 8.30435 79.7534 7.41424 82.7592L7.05057 82.7435C5.95285 82.2171 4.88611 78.7528 4.35644 77.4644C2.60998 76.3137 1.85951 76.5266 0 74.9156C0.0478577 74.2715 1.37354 73.8501 2.23128 73.2244C5.18458 71.0704 4.41608 69.1732 5.7198 66.4844Z" fill="#FEBE32"/>
<path d="M22.0129 33.5957C23.3147 33.8075 24.1974 35.984 24.5146 37.1446C25.2191 39.7226 28.5657 39.1955 29.213 40.6779C28.4857 42.0501 26.0415 42.3516 25.3215 43.3205C24.3681 44.6034 24.6404 46.628 23.8395 48.2949C22.0838 48.1763 22.0998 46.4017 21.5593 44.9181C20.6067 42.303 17.2227 42.9689 16.4648 41.28C17.0391 40.1504 18.2804 39.9527 19.4362 39.2746C21.2106 38.2333 21.513 35.6053 22.0129 33.5957Z" fill="#FEBE32"/>
<path d="M216.064 96.3301C216.79 96.9009 217.549 98.9088 218.029 99.887C219.241 100.468 220.304 101.04 221.477 101.683C220.385 102.246 219.303 102.821 218.228 103.409C217.699 104.442 217.121 105.985 216.702 107.084C214.333 105.776 216.746 103.895 211.082 102.074C214.457 100.115 214.543 99.9176 216.064 96.3301Z" fill="#FEBE32"/>
</svg>
