<svg width="247" height="160" viewBox="0 0 247 160" fill="none" xmlns="http://www.w3.org/2000/svg">
<path d="M118.079 40.2411C124.552 34.6759 131.849 31.0265 140.62 31.6937C142.984 31.8736 145.497 32.5857 147.048 34.512C148.117 35.8411 147.558 41.3258 147.996 41.5682C148.535 41.867 149.743 41.9732 150.381 42.0782C160.95 43.823 170.01 48.0141 179.415 52.9938C180.771 50.9924 182.012 49.0661 183.722 47.3362C196.862 34.0376 216.71 43.1454 219.804 60.4387C220.984 66.7164 219.602 73.2046 215.971 78.4584C214.553 80.4931 212.053 83.0844 210.033 84.6052C216.539 95.0396 221.441 105.364 224.753 117.265C225.891 121.357 226.575 125.354 227.651 129.376C231.277 129.567 235.553 131.712 238.585 133.538C245.585 137.753 248.78 146.397 244.989 153.887C244.305 154.637 244.095 154.803 243.781 155.756C238.128 159.637 237.798 159.34 231.123 158.896C224.949 158.486 225.773 161.824 217.834 158.535C217.489 158.626 217.142 158.71 216.792 158.786C211.008 160.044 209.046 158.564 204.644 155.717C204.209 154.829 204.134 154.588 203.408 153.934C201.533 154.096 198.983 153.961 197.055 153.915C192.538 154.119 187.398 154.018 182.831 154.013L50.7499 154.016L30.9375 154.044C28.3829 154.046 22.4294 154.208 20.2543 153.782C18.7181 153.855 16.8428 153.812 15.2788 153.818C10.2669 147.561 -2.09888 126.38 6.33831 115.878C7.46596 114.474 10.6544 114.886 11.0263 111.251C11.3519 109.48 14.4782 107.221 16.2321 107.612C23.8264 109.309 23.9853 102.669 31.7513 108.841C34.3306 100.898 38.7932 91.6393 43.1772 84.5377C37.6401 80.0442 34.5332 75.3655 33.5459 68.2507C30.9398 49.4719 52.211 32.3568 68.3924 45.7689C71.0781 47.9948 72.8175 50.7399 74.6962 53.6624C76.7012 52.1638 79.8479 50.6925 82.1276 49.612C93.929 44.0183 105.217 41.5416 118.079 40.2411Z" fill="#FF9A43"/>
<path d="M83.8683 153.824C83.5704 150.338 82.948 146.058 82.9239 142.65C82.8376 131.014 86.8732 119.723 94.3155 110.778C101.257 102.554 111.186 97.4316 121.911 96.5427C132.725 95.6768 143.12 98.7596 151.394 105.841C161.174 114.24 167.174 126.214 168.049 139.078C168.427 144.24 167.861 148.756 166.93 153.813C168.637 153.808 182.04 153.635 182.831 154.015L50.75 154.018C52.8486 153.749 55.0218 153.837 57.1396 153.818C66.0394 153.738 74.9712 153.935 83.8683 153.824Z" fill="#E38030"/>
<path d="M124.94 131.391C126.647 132.01 128.11 133.843 130.016 134.124C132.209 134.447 135.34 132.387 137.233 133.472C138.48 135.66 135.244 145.39 133.597 147.572C131.791 150.015 129.06 151.609 126.045 151.983C123.503 151.837 121.613 151.326 119.502 149.816C115.29 146.805 114.533 141.847 114.029 137.077C113.967 136.492 113.096 135.547 112.914 134.464C113.803 131.52 118.911 134.695 121.092 134.024C122.345 133.638 123.916 132.216 124.94 131.391Z" fill="#4C2802"/>
<path d="M123.894 140.202C127.369 139.794 129.745 140.432 132.561 142.295C130.595 145.506 130.328 146.572 126.781 147.916C122.234 148.466 120.427 146.157 118.332 142.492C120.69 140.645 120.91 140.573 123.894 140.202Z" fill="#FE7F4C"/>
<path d="M141.011 117.151C149.254 116.578 149.612 124.485 141.131 127.193C139.657 127.231 138.054 127.187 136.569 127.175C130.661 122.503 136.238 118.79 141.011 117.151Z" fill="#4C2802"/>
<path d="M107.326 117.148C112.874 116.813 121.586 122.703 113.47 127.241C112.685 127.283 110.725 127.39 109.967 127.183C107.209 126.432 102.663 123.923 103.566 120.409C104.016 118.658 105.796 117.876 107.326 117.148Z" fill="#4C2802"/>
<path d="M118.079 40.2411C124.552 34.6759 131.849 31.0265 140.62 31.6937C142.984 31.8736 145.497 32.5857 147.048 34.512C148.117 35.8411 147.558 41.3258 147.996 41.5682C148.535 41.867 149.743 41.9732 150.381 42.0782C160.95 43.823 170.01 48.0141 179.415 52.9938C180.771 50.9924 182.012 49.0661 183.722 47.3362C196.862 34.0376 216.71 43.1454 219.804 60.4387C220.984 66.7164 219.602 73.2046 215.971 78.4584C214.553 80.4931 212.053 83.0844 210.033 84.6052C216.539 95.0396 221.441 105.364 224.753 117.265C225.891 121.357 226.575 125.354 227.651 129.376C231.277 129.567 235.553 131.712 238.585 133.538C245.585 137.753 248.78 146.397 244.989 153.887C244.305 154.637 244.095 154.803 243.781 155.756C238.128 159.637 237.798 159.34 231.123 158.896C224.949 158.486 225.773 161.824 217.834 158.535C217.489 158.626 217.142 158.71 216.792 158.786C211.008 160.044 209.046 158.564 204.644 155.717C204.209 154.829 204.134 154.588 203.408 153.934C202.164 151.32 201.547 148.845 201.177 146.001C202.228 141.966 203.072 138.391 206.081 135.268C210.812 130.358 216.904 129.112 223.383 128.941C219.42 108.53 214.572 101.287 205.112 83.773C205.703 82.9127 206.992 81.9119 207.827 81.201C211.551 78.7075 214.631 74.2504 215.721 69.9147C217.021 64.5942 216.184 58.9762 213.384 54.2683C210.859 50.0721 206.916 46.5406 202.074 45.369C197.949 44.377 193.6 45.0748 189.996 47.3071C187.648 48.7917 184.044 52.3972 182.668 55.2065C182.559 55.4304 184.145 56.8187 183.699 58.7963C181.704 59.6473 177.013 56.187 174.768 54.9386C165.764 49.8863 155.9 46.5516 145.677 45.1039C145.19 45.0324 144.162 44.8158 143.736 44.8629C142.012 45.0532 139.695 46.5331 138.654 44.2705C139.006 41.8089 144.272 40.581 144.481 37.4261C143.652 35.972 141.284 35.5329 139.829 35.3423C131.117 34.2024 125.551 40.368 118.523 43.7773C117.718 44.1679 114.458 44.5401 113.385 44.6628C107.053 45.3869 100.986 46.8352 94.9285 48.8214C89.8805 50.4571 84.963 52.472 80.2184 54.8486C77.6094 56.1854 73.7593 59.1 70.9486 59.0398C70.1063 58.5656 70.3391 58.8571 70.0611 57.9634C70.1514 56.8164 70.57 56.3896 71.2272 55.4705C69.3998 52.6315 67.905 50.3336 65.2305 48.2338C57.3199 42.0236 47.1478 45.0451 41.5188 52.7183C38.2317 57.1998 36.5315 62.3126 37.3787 67.8741C38.1997 73.2312 41.1094 78.0453 45.4706 81.2629C46.2751 81.8708 47.6385 82.8361 48.2822 83.5364C46.6546 86.742 44.7019 89.7127 42.9813 92.8687C39.8004 98.7687 37.1082 104.919 34.9322 111.259C42.7423 117.738 49.5474 130.892 51.9638 140.633C52.2934 141.961 51.5572 143 50.2872 143.356C48.0226 142.634 46.5097 135.632 45.4661 133.205C42.2746 125.782 33.5056 110.613 24.5107 110.214L23.9522 110.507C23.0681 113.528 29.4408 119.217 27.2152 121.799C26.5601 122.096 26.0324 122.2 25.3346 121.944C24.4168 121.608 20.4961 113.912 19.621 112.418C17.8073 111.556 15.48 110.617 14.0772 112.774C11.8426 116.21 19.341 125.321 16.6937 126.834C13.1241 126.419 11.2743 120.625 9.96899 117.836C2.08637 126.347 13.6025 146.981 20.2543 153.782C18.7181 153.855 16.8428 153.812 15.2788 153.818C10.2669 147.561 -2.09888 126.38 6.33831 115.878C7.46596 114.474 10.6544 114.886 11.0263 111.251C11.3519 109.48 14.4782 107.221 16.2321 107.612C23.8264 109.309 23.9853 102.669 31.7513 108.841C34.3306 100.898 38.7932 91.6393 43.1772 84.5377C37.6401 80.0442 34.5332 75.3655 33.5459 68.2507C30.9398 49.4719 52.211 32.3568 68.3924 45.7689C71.0781 47.9948 72.8175 50.7399 74.6962 53.6624C76.7012 52.1638 79.8479 50.6925 82.1276 49.612C93.929 44.0183 105.217 41.5416 118.079 40.2411Z" fill="#4C2802"/>
<path d="M219.797 132.897C229.047 132.019 242.16 135.802 242.947 147.178C243.09 149.253 242.35 151.509 240.837 153.016C238.256 155.582 235.795 155.585 232.385 155.606C232.536 154.997 232.66 154.382 232.752 153.762C233.1 151.494 234.198 144.579 231.188 144.161C228.355 145.736 230.513 150.964 228.1 154.754L227.932 155.018C225.85 157.012 221.862 155.958 219.363 155.452C219.741 152.635 220.722 145.732 217.81 144.291C216.838 144.348 217.177 144.197 216.457 144.767C214.873 147.892 216.972 154 214.837 155.433C205.304 156.14 203.112 146.351 207.498 139.484C210.129 135.362 215.184 133.724 219.797 132.897Z" fill="#E38030"/>
<path d="M198.415 75.6591C197.678 75.1981 197.608 75.0986 197.107 74.3832C196.739 72.6427 198.169 71.6422 198.213 70.9086C198.609 64.5101 188.941 73.5677 191.676 63.8459C193.007 59.1154 201.758 50.9295 204.69 57.8187C203.919 58.3663 203.493 58.7494 202.582 59.0254C201.876 60.1138 199.769 64.2688 199.525 65.4231C203.322 68.625 203.238 73.8911 198.415 75.6591Z" fill="#4C2802"/>
<path d="M195.059 64.5786C197.062 61.8654 198.811 58.8215 202.583 59.0275C201.877 60.1159 199.769 64.2709 199.525 65.4252C198.023 64.9967 196.597 64.8131 195.059 64.5786Z" fill="#A44F09"/>
<path d="M48.9766 57.4443C52.7597 50.9514 61.5872 60.2735 62.0499 64.9363C62.7208 71.6957 58.4924 67.1047 55.5623 68.899C53.1781 71.1109 58.5974 73.4615 54.6823 75.5321C52.2421 74.8963 50.7095 72.0502 51.1654 69.6335C51.5948 67.3594 52.4892 66.4352 54.2356 65.1299C53.6455 62.6017 51.4675 61.492 50.8429 58.9601C50.1362 58.6908 49.5415 57.9938 48.9766 57.4443Z" fill="#4C2802"/>
<path d="M50.8398 58.9609C53.3266 59.0543 57.5304 61.0557 57.3555 63.8857C56.5151 64.989 55.7809 64.8536 54.2326 65.1308C53.6424 62.6025 51.4645 61.4928 50.8398 58.9609Z" fill="#A44F09"/>
<path d="M204.696 57.8203C210.197 64.4503 208.734 69.771 203.34 75.7153C204.206 76.7182 207.179 80.8926 207.832 81.2028C206.997 81.9137 205.708 82.9144 205.117 83.7747C203.912 82.6042 199.576 77.2196 198.422 75.6607C203.245 73.8927 203.329 68.6266 199.532 65.4247C199.775 64.2704 201.883 60.1154 202.589 59.027C203.5 58.751 203.926 58.3679 204.696 57.8203Z" fill="#E38030"/>
<path d="M48.9752 57.4434C49.5401 57.9929 50.1347 58.6898 50.8415 58.9591C51.4661 61.491 53.6441 62.6007 54.2342 65.129C52.4878 66.4343 51.5933 67.3585 51.164 69.6326C50.7081 72.0493 52.2407 74.8953 54.6809 75.5311C54.0905 76.5722 49.1125 82.7661 48.2841 83.5373C47.6404 82.837 46.2771 81.8717 45.4725 81.2638C47.0427 79.3941 48.589 77.5048 50.1112 75.5962C47.6216 73.2114 45.8464 71.0713 45.4476 67.4599C44.835 61.9133 46.2894 61.0824 48.9752 57.4434Z" fill="#E38030"/>
<path d="M197.055 153.916C197.349 151.628 199.487 147.607 201.177 146.002C201.547 148.846 202.163 151.321 203.407 153.936C201.533 154.097 198.983 153.962 197.055 153.916Z" fill="#E38030"/>
<path d="M71.6533 99.252C82.0863 100.438 83.8039 119.471 72.1154 122.608C63.1492 121.902 62.0353 112.037 64.74 105.226C66.0625 101.896 68.4937 100.442 71.6533 99.252Z" fill="#21211D"/>
<path d="M70.948 103.125C75.7248 103.483 75.9941 108.149 72.2735 110.033C67.711 110.176 67.0029 105.194 70.948 103.125Z" fill="#FEF8ED"/>
<path d="M178.148 99.4482C187.748 98.5952 192.033 118.743 180.269 122.586C179.047 122.603 177.89 122.556 176.76 122.067C169.357 118.869 168.889 105.625 174.998 100.979C175.844 100.336 177.158 99.8388 178.148 99.4482Z" fill="#21211D"/>
<path d="M178.151 103.125C183.128 104.306 182.318 108.259 178.305 110.441C174.177 108.595 173.334 104.772 178.151 103.125Z" fill="#FEF8ED"/>
<path d="M186.316 122.599C191.335 121.898 197.242 122.728 199.106 128.257C199.677 129.972 199.537 131.844 198.713 133.453C197.2 136.451 194.297 137.63 191.301 138.577C180.669 140.183 173.79 132.027 182.698 122.94L186.316 122.599Z" fill="#FFB977"/>
<path d="M61.9163 122.297C64.8845 122.329 67.084 122.389 69.5164 124.473C71.1597 125.874 72.1545 127.89 72.2674 130.047C72.5978 136.26 67.0072 138.515 61.7504 138.814C57.8425 138.56 55.0024 137.392 52.2138 134.544C49.963 126.47 53.9395 122.891 61.9163 122.297Z" fill="#FFB977"/>
<path d="M111.268 0.0472383C117.104 -0.392304 119.114 2.26518 122.004 6.78161C130.832 -5.87909 147.213 5.34119 130.449 22.0933C127.323 24.9539 124.547 27.0901 120.584 28.7214C113.397 23.7302 100.67 12.6039 107.196 2.59059C108.064 1.25977 109.793 0.487677 111.268 0.0472383Z" fill="#4FAF5A"/>
<path d="M55.0894 9.54994C57.878 9.45816 58.9547 10.6294 60.3528 12.7847C60.9132 17.3192 60.2732 19.5742 58.7117 23.7374C56.0638 30.7972 53.1996 28.74 47.5661 26.3365C47.0283 26.028 46.4998 25.7043 45.9805 25.3658C43.5209 23.7396 39.1124 19.0003 41.6636 15.5814C44.9605 11.1631 48.4219 14.9968 50.388 14.7352C51.7497 11.4491 51.5456 10.948 55.0894 9.54994Z" fill="#4FAF5A"/>
<path d="M187.533 13.4901C189.043 13.3066 190.369 13.2799 191.784 13.927C193.648 14.7795 193.465 16.6525 194.197 18.463C196.125 19.8328 204.526 15.3404 202.643 24.389C202.181 26.6135 199.241 28.5945 197.481 29.6689C194.656 31.1446 191.336 31.9693 188.175 32.201C187.906 31.8407 187.651 31.4708 187.41 31.0919C184.658 26.7491 182.06 16.8087 187.533 13.4901Z" fill="#4FAF5A"/>
<path d="M11.6916 91.7363C13.1819 91.8285 13.8617 91.9064 14.4853 93.3423L14.2014 93.9314C9.84687 97.2877 7.97241 92.7353 2.54574 100.846C-0.790129 100.971 -0.446292 98.79 1.28862 96.8856C4.37592 93.4965 7.16843 92.081 11.6916 91.7363Z" fill="#4FAF5A"/>
<path d="M13.1274 98.1302C14.4543 98.0018 15.7982 98.3115 16.3744 99.6162C14.8841 102.341 10.8527 100.694 7.7049 105.117C7.21589 105.628 7.09455 105.678 6.47889 106.047C5.54404 105.928 5.89068 106.112 5.24223 105.347C4.20173 100.999 9.90359 98.8434 13.1274 98.1302Z" fill="#4FAF5A"/>
</svg>
