<svg width="53" height="36" viewBox="0 0 227 160" fill="none" xmlns="http://www.w3.org/2000/svg">
<path d="M102.662 50.9104C104.676 49.1111 106.433 47.302 108.616 45.3632C113.891 40.6791 123.889 36.8606 129.605 42.8527C131.052 44.3706 129.642 47.0761 129.454 48.89C130.12 49.4602 130.778 49.7049 131.127 50.0389C131.455 50.4034 133.237 53.105 133.824 52.7955C140.035 49.5158 143.867 47.3067 151.415 49.7009C156.676 51.4064 161.035 55.1394 163.532 60.072C165.478 63.9434 166.333 68.2702 164.957 72.4389C175.976 81.7493 197.712 113.186 201.471 126.79C215.983 125.566 232.459 135.971 223.939 151.766C222.977 152.491 222.799 152.803 222.106 153.774C218.631 155.459 215.441 156.663 211.609 154.804C205.808 156.987 205.348 156.971 199.471 154.945C194.464 156.494 193.084 155.285 189.013 154.218C187.415 154.378 182.98 154.252 181.187 154.248L165.391 154.222L113.766 154.233L63.7508 154.223L49.2441 154.259C46.847 154.265 42.9214 154.375 40.6383 154.106C35.9761 159.357 32.5525 160.611 26.0293 158.286C22.1629 160.761 18.5656 160.359 14.6643 158.332C8.02973 160.048 5.37157 159.316 1.06959 153.782C0.910096 153.166 0.62577 152.443 0.407828 151.832C-0.275888 149.418 -0.0653542 145.49 0.781289 143.114C3.01599 136.84 7.82448 134.326 13.281 131.648C14.0504 128.136 20.5918 112.974 22.3214 109.591C15.7114 105.618 10.9701 100.769 10.376 92.6078C9.97428 86.5546 11.9998 80.5908 16.005 76.0347C17.8596 73.9155 19.9277 72.3254 22.4338 71.0659C31.5292 66.4949 39.3148 69.376 46.4297 75.6221C65.2769 61.1127 79.5228 55.4203 102.662 50.9104Z" fill="#FF9A43"/>
<path d="M86.5301 151.507L87.2141 151.194C87.3122 146.938 86.728 142.741 87.1384 138.412C89.2139 116.52 104.532 97.1174 128.082 98.355C150.588 99.5375 166.949 123.927 166.907 145.1C166.902 147.115 166.566 149.53 166.375 151.583L181.65 151.55L186.384 151.601C187.527 152.544 188.183 153.004 189.013 154.219C187.416 154.378 182.98 154.252 181.187 154.248L165.391 154.222L113.766 154.234L63.7511 154.223L49.2445 154.259C46.8474 154.265 42.9218 154.375 40.6387 154.106C40.9204 153.283 41.5329 152.337 41.9831 151.566L48.5219 151.48L63.6004 151.512C71.2434 151.551 78.887 151.549 86.5301 151.507Z" fill="#E5802E"/>
<path d="M131.666 151.489C130.993 146.696 129.678 141.943 129.346 137.156C129.29 136.345 130.514 135.521 131.362 135.445C133.912 136.791 135.056 148.568 135.26 151.487C134.214 151.365 132.753 151.456 131.666 151.489Z" fill="#502A01"/>
<path d="M112.112 123.305C119.007 123.05 125.091 129.184 116.043 132.675C109.404 133.367 103.065 125.481 112.112 123.305Z" fill="#502A01"/>
<path d="M142.889 118.029C150.509 117.67 148.447 125.837 141.212 128.021C133.175 128.36 135.063 119.539 142.889 118.029Z" fill="#502A01"/>
<path d="M102.662 50.9104C104.676 49.1111 106.433 47.302 108.616 45.3632C113.891 40.6791 123.889 36.8606 129.605 42.8527C131.052 44.3706 129.642 47.0761 129.454 48.89C130.12 49.4602 130.778 49.7049 131.127 50.0389C131.455 50.4034 133.237 53.105 133.824 52.7955C140.035 49.5158 143.867 47.3067 151.415 49.7009C156.676 51.4064 161.035 55.1394 163.532 60.072C165.478 63.9434 166.333 68.2702 164.957 72.4389C175.976 81.7493 197.712 113.186 201.471 126.79C215.983 125.566 232.459 135.971 223.939 151.766C222.977 152.491 222.799 152.803 222.106 153.774C218.631 155.459 215.441 156.663 211.609 154.804C205.808 156.987 205.348 156.971 199.471 154.945C194.464 156.494 193.084 155.285 189.013 154.218C188.182 153.004 187.527 152.543 186.384 151.601L181.649 151.55C181.731 149.468 182.766 146.722 183.525 144.743C184.694 135.36 188.301 129.873 197.942 127.504C196.784 124.431 195.665 121.316 194.205 118.371C190.74 111.372 186.209 104.754 181.668 98.4164C170.596 82.9692 157.805 67.2284 140.099 59.1962C138.891 58.6479 129.381 55.3844 129.234 55.0609C128.825 54.1658 129.239 53.3708 128.626 52.4736C126.565 52.1409 124.573 53.5072 122.793 52.2914L122.469 51.5902C123.441 49.7739 125.706 48.0224 127.18 45.6306C126.219 44.689 125.758 44.191 124.624 43.4814C113.859 42.8199 111.811 48.5112 104.683 53.8151C103.089 55.0008 94.5249 56.2403 91.8929 56.942C80.9434 59.8392 70.4591 64.2708 60.7512 70.1053C57.5016 72.0916 54.5377 74.2044 51.4516 76.4147C50.0545 77.4153 47.7331 81.1508 46.6093 81.1608C45.2997 80.4768 43.4319 78.2043 42.2488 77.0522C38.0405 73.0306 31.9688 71.6348 26.4266 73.4149C22.1156 74.7915 18.5267 77.8216 16.4462 81.8406C11.8141 90.6474 14.076 100.776 23.0685 105.638C24.7047 106.522 26.4689 107.275 28.0029 108.318C28.9038 108.933 28.62 109.222 28.3523 109.895C27.5565 110.586 25.4715 111.614 25.3437 111.852C22.5822 117.008 19.3937 125.375 17.4306 130.593C25.9354 129.821 34.8081 131.242 40.0593 138.939C42.7855 142.935 42.5681 146.941 41.9827 151.566C41.5326 152.337 40.92 153.283 40.6383 154.106C35.9761 159.357 32.5525 160.611 26.0293 158.286C22.1629 160.761 18.5656 160.359 14.6643 158.332C8.02973 160.048 5.37157 159.316 1.06959 153.782C0.910096 153.166 0.62577 152.443 0.407828 151.832C-0.275888 149.418 -0.0653542 145.49 0.781289 143.114C3.01599 136.84 7.82448 134.326 13.281 131.648C14.0504 128.136 20.5918 112.974 22.3214 109.591C15.7114 105.618 10.9701 100.769 10.376 92.6078C9.97428 86.5546 11.9998 80.5908 16.005 76.0347C17.8596 73.9155 19.9277 72.3254 22.4338 71.0659C31.5292 66.4949 39.3148 69.376 46.4297 75.6221C65.2769 61.1127 79.5228 55.4203 102.662 50.9104Z" fill="#502A01"/>
<path d="M183.524 144.742C184.415 147.428 184.899 149.173 186.383 151.6L181.648 151.549C181.73 149.467 182.765 146.721 183.524 144.742Z" fill="#E5802E"/>
<path d="M202.674 130.23C208.077 129.717 214.269 131.719 218.379 135.239C223.175 139.352 224.875 146.61 219.435 150.985C218.353 151.856 214.806 152.712 213.656 151.531C214.182 149.105 215.399 142.787 213.01 141.234C208.368 141.348 213.611 149.454 207.958 152.23C205.44 152.966 203.763 152.589 201.306 151.854C201.402 149.376 202.576 141.282 198.963 141.401C196.167 143.35 199.156 148.133 197.598 151.297C197.082 151.809 196.863 151.928 196.125 152.013C191.427 152.551 188.053 149.539 187.452 144.935C187.045 141.822 188.251 138.679 190.142 136.234C193.107 132.402 198.042 130.826 202.674 130.23Z" fill="#E5802E"/>
<path d="M19.6534 134.216C28.3689 132.985 39.9225 137.99 38.9159 148.491C38.5234 152.585 33.8588 156.74 29.6552 155.765C25.8946 154.893 29.064 148.019 27.4324 145.605C22.9638 143.884 24.9501 153.024 24.1183 154.879C23.762 155.674 22.8357 155.869 22.0848 156.191C19.8337 156.921 18.4454 156.35 16.4765 155.273C16.4511 155.226 16.4258 155.179 16.4004 155.132L16.2784 154.893C14.1791 150.846 16.1546 148.43 14.5227 145.715C14.162 145.477 14.0001 145.249 13.5798 145.337C10.2258 146.039 11.6961 153.478 12.1127 155.551C9.63198 155.561 7.74429 155.608 5.74446 153.911C1.74717 150.519 3.49705 143.874 6.47234 140.478C9.94752 136.512 14.5799 134.657 19.6534 134.216Z" fill="#E5802E"/>
<path d="M144.072 52.4175C150.518 52.1232 155.935 54.9218 159.434 60.4272C161.381 63.4879 161.69 66.0252 162.061 69.5096C161.185 68.8629 160.167 67.9785 159.31 67.2723C153.015 61.5198 145.887 57.8106 138.348 54.1061C140.617 53.2552 141.704 52.9362 144.072 52.4175Z" fill="#FE9740"/>
<path d="M61.1068 135.102C55.1015 130.64 54.1038 122.205 58.6132 116.259C64.783 108.124 74.4188 114.793 74.9893 123.236C75.587 130.773 71.7156 136.962 63.6333 136.148L61.1068 135.102Z" fill="#23221E"/>
<path d="M67.8377 119.84C70.4792 119.854 70.4898 120.726 71.4253 123.003C70.2618 126.722 69.3197 127.849 66.1119 130.083C64.7384 129.587 64.2266 129.303 62.951 128.566C61.5476 127.42 60.6232 126.469 60.0045 124.771C59.6845 123.892 59.389 122.214 59.9056 121.633C62.1294 119.133 63.395 121.046 65.4306 121.563C65.4718 121.574 66.3315 120.271 67.8377 119.84Z" fill="#FEFCF4"/>
<path d="M48.522 151.479C44.2462 150.961 43.5329 143.056 46.6761 139.968C51.2651 135.46 55.2074 135.536 61.1061 135.102L63.6325 136.147C65.9884 138.543 68.1078 140.571 68.3104 144.195C68.4328 146.385 65.374 150.993 63.6005 151.511L48.522 151.479Z" fill="#FFB977"/>
<path d="M53.3599 140.83C56.3953 142.109 53.749 145.852 52.649 147.72L51.8021 147.468C50.1038 145.693 52.1446 142.406 53.3599 140.83Z" fill="#F23042"/>
<path d="M59.6804 140.553C60.1446 140.674 60.3882 140.852 60.7945 141.094C61.4763 142.504 60.3591 146.133 59.4871 147.404C55.8654 146.418 58.4674 142.503 59.6804 140.553Z" fill="#F23042"/>
<path d="M172.805 118.237C170.562 118.743 169.166 118.805 167.007 117.87C159.409 114.576 156.335 99.579 165.571 96.317C167.306 95.6034 169.166 96.1001 170.779 96.8872C174.945 98.9185 177.532 103.555 177.82 108.095C178.013 111.131 177.524 113.047 176.188 115.736C174.929 116.976 174.334 117.304 172.805 118.237Z" fill="#23221E"/>
<path d="M170.508 102.853C174.478 102.767 174.398 106.796 173.063 109.437C171.489 112.548 169.616 113.068 166.593 111.361C164.842 110.119 161.528 106.491 164.345 104.393C166.149 103.049 166.535 104.196 168.019 104.859C168.162 104.922 169.921 103.212 170.508 102.853Z" fill="#FEFCF4"/>
<path d="M176.187 115.736C183.36 114.037 187.113 112.559 191.755 119.802C191.932 122.454 192.152 124.821 190.205 126.901C186.439 130.924 177.806 133.058 173.449 129.018C172.061 127.73 171.249 125.94 171.196 124.048C171.125 121.175 171.894 120.585 172.804 118.237C174.333 117.305 174.928 116.977 176.187 115.736Z" fill="#FFB977"/>
<path d="M177.891 120.232C178.835 120.354 179.071 120.3 179.737 120.901C180.602 122.519 179.848 124.8 179.475 126.645C176.904 126.849 177.113 125.407 177.291 123.297C177.378 122.277 177.55 121.198 177.891 120.232Z" fill="#F23042"/>
<path d="M183.423 118.895C184.558 119.009 184.357 118.815 185.082 119.43C185.642 121.302 185.473 123.201 185.349 125.155C182.132 124.906 183.264 121.416 183.423 118.895Z" fill="#F23042"/>
<path d="M24.1521 84.914C27.457 77.9118 40.4899 87.6999 38.2324 92.1566C36.2725 94.007 33.3565 91.4488 32.2829 94.6608C32.5778 96.9479 36.495 97.9223 32.5196 100.232L31.0922 101.957C24.7044 99.2151 20.2778 95.3112 22.7773 87.6602C23.1262 86.5919 24.1759 86.2475 24.1521 84.914Z" fill="#502A01"/>
<path d="M24.1521 84.9121C24.8898 86.0259 25.0048 86.178 26.4027 86.4205C27.3972 87.9257 28.9392 89.5373 29.2055 91.1145C29.2706 91.4996 29.3693 91.6485 29.5523 91.9894C27.9383 96.3313 29.0445 97.6811 32.5196 100.23L31.0922 101.955C24.7044 99.2133 20.2778 95.3093 22.7773 87.6583C23.1262 86.5901 24.1759 86.2457 24.1521 84.9121Z" fill="#E5802E"/>
<path d="M26.4023 86.4227C27.6851 86.3296 28.6873 86.246 29.9709 86.3005C31.606 87.2553 32.1736 87.6851 33.6169 88.9192C31.9213 90.0253 31.0513 90.5787 29.5519 91.9916C29.3689 91.6507 29.2702 91.5017 29.2052 91.1166C28.9388 89.5395 27.3968 87.9279 26.4023 86.4227Z" fill="#B25304"/>
<path d="M104.73 0.0380303C110.047 -0.387063 112.977 2.79873 115.178 7.22926C118.256 3.1394 119.564 2.39075 124.342 1.07519C137.174 4.98292 131.156 16.1556 124.649 23.1139C121.642 26.2643 118.027 28.7725 114.024 30.4872C107.789 26.7827 101.52 20.2757 99.0329 13.3748C96.8868 7.41996 98.3598 2.04596 104.73 0.0380303Z" fill="#FE7984"/>
<path d="M174.163 25.1738C178.006 25.6875 179.141 28.2666 180.257 31.5106C184.925 28.3335 187.866 29.2637 189.567 34.6358C188.504 38.7209 186.798 40.6864 183.245 42.8623C181.563 43.8394 176.771 46.186 174.779 45.5208C173.311 44.7648 172.055 42.2368 171.571 40.8773C169.584 35.3018 167.156 27.9809 174.163 25.1738Z" fill="#FE7984"/>
<path d="M60.6496 29.6428C66.9887 29.2794 66.3492 37.3263 65.0709 41.4135C62.6833 49.0471 61.4127 48.4046 54.7755 45.7716C50.8176 43.5139 49.7493 42.1525 48.248 37.9579C50.4214 33.2989 52.4154 32.6977 56.9181 34.812C57.7439 31.6704 57.9277 31.3556 60.6496 29.6428Z" fill="#FE7984"/>
</svg>
