<svg width="53" height="36" viewBox="0 0 260 160" fill="none" xmlns="http://www.w3.org/2000/svg">
<path d="M158.27 20.6637C162.373 8.45741 174.41 -0.0506098 187.326 4.46742C193.837 6.77282 199.164 11.5707 202.138 17.8053C207.011 28.0417 204.489 37.0274 197.547 45.442C206.022 52.601 214.488 64.5745 219.89 74.2559C224.51 70.8935 228.101 70.3217 233.19 72.9206C238.734 70.6834 244.986 72.4029 248.11 77.6244C250.689 78.3249 253.029 78.8469 255.047 80.6753C263.602 88.4231 257.939 102.914 250.655 109.452C249.734 110.278 248.832 111.059 247.903 111.843C247.394 123.036 240.161 139.552 234.632 149.237C232.983 149.23 231.334 149.211 229.685 149.178C206.065 149.762 182.092 148.806 158.446 149.218C154.961 149.279 151.211 149.277 147.728 149.164C145.078 149.267 142.252 149.274 139.6 149.245C122.721 149.063 105.705 149.552 88.84 149.186C78.3805 149.313 67.7975 149.186 57.3175 149.23L51.9006 149.202C50.9106 151.911 49.8596 153.518 47.9735 155.693L47.8112 155.806C44.6525 157.963 40.1213 160.102 36.4003 158.601C32.7564 157.132 33.2931 158.419 29.7956 159.591C26.2839 160.768 22.8412 159.093 19.3804 158.474C13.6701 161.01 9.26455 158.942 4.53884 155.725C2.63343 153.035 2.22034 152.045 1.18035 149.022C-0.668199 135.98 8.27546 127.458 19.8717 123.719C20.7977 108.672 24.1132 93.8679 29.6944 79.8633C16.8635 74.4351 11.4173 59.1659 16.9945 46.6613C22.305 34.7549 34.6026 27.9709 47.2116 33.1338C51.5364 34.9642 54.1059 37.4536 57.1742 40.8379C66.4402 33.2694 75.4009 27.8938 86.7077 23.7421C90.526 22.3405 94.6512 21.609 98.2477 19.9194C99.6607 19.2555 101.853 16.3121 103.166 15.1047C108.218 10.5182 115.047 6.72562 122.052 7.19896C124.179 7.34274 126.237 8.17885 127.596 9.87023C129.177 11.8382 128.623 13.7997 128.151 16.0846C137.34 15.3113 149.602 17.706 158.27 20.6637Z" fill="#FF9A43"/>
<path d="M88.8357 149.188C88.6594 148.404 83.829 142.097 82.851 140.039C76.5537 126.79 79.2063 108.6 85.7737 96.0745C90.8428 86.1929 99.6961 78.7831 110.318 75.5323C139.408 66.5614 164.822 94.1611 166.263 121.467C166.727 130.262 161.697 139.155 154.544 144.134C153.558 144.822 147.877 148.397 147.582 148.963L147.724 149.166C145.074 149.27 142.248 149.276 139.595 149.248C122.716 149.066 105.701 149.554 88.8357 149.188Z" fill="#E27E2F"/>
<path d="M133.737 115.057C136.708 116.634 136.392 122.785 136.469 125.592C136.83 138.403 125.534 147.975 115.254 136.762C113.255 134.097 107.916 124.336 109.701 121.199C113.139 118.401 114.799 123.246 120.997 115.931C127.996 117.696 126.677 119.058 133.737 115.057Z" fill="#472101"/>
<path d="M113.238 124.792C115.052 124.141 117.057 123.862 118.799 123.189C119.192 122.964 121.631 120.432 121.927 120.506C126.279 121.592 128.005 121.555 132.361 120.467C132.554 122.858 132.494 124.503 132.415 126.895C131.957 130.314 131.607 133.754 128.588 136.018C127.107 137.13 125.242 137.604 123.411 137.332C119.948 136.815 117.799 134.012 116.346 131.059C115.365 128.851 114.529 126.843 113.238 124.792Z" fill="#EB6A47"/>
<path d="M113.238 124.792C115.052 124.141 117.057 123.862 118.799 123.189C119.192 122.964 121.631 120.432 121.927 120.506C126.279 121.592 128.005 121.555 132.361 120.467C132.554 122.858 132.494 124.503 132.415 126.895C124.849 125.626 121.878 125.345 116.346 131.059C115.365 128.851 114.529 126.843 113.238 124.792Z" fill="#8D2D13"/>
<path d="M101.524 103.519C102.844 103.453 104.166 103.6 105.439 103.954C108.459 104.774 110.025 106.521 111.492 109.139C109.812 112.075 109.297 112.758 106.105 113.867C102.682 114.226 97.7403 113.014 96.4951 109.376C96.1795 108.483 96.2477 107.501 96.677 106.658C97.6038 104.844 99.7191 104.101 101.524 103.519Z" fill="#472101"/>
<path d="M135.867 96.4488C145.707 95.8032 142.582 105.473 134.451 107.718C133.308 107.792 131.878 107.75 130.707 107.746C124.714 103.769 131.028 97.7956 135.867 96.4488Z" fill="#472101"/>
<path d="M158.27 20.6637C162.373 8.45741 174.41 -0.0506098 187.326 4.46742C193.837 6.77282 199.164 11.5707 202.138 17.8053C207.011 28.0417 204.489 37.0274 197.547 45.442C206.022 52.601 214.488 64.5745 219.89 74.2559C224.51 70.8935 228.101 70.3217 233.19 72.9206C238.734 70.6834 244.986 72.4029 248.11 77.6244C250.689 78.3249 253.029 78.8469 255.047 80.6753C263.602 88.4231 257.939 102.914 250.655 109.452C249.734 110.278 248.832 111.059 247.903 111.843C247.394 123.036 240.161 139.552 234.632 149.237C232.983 149.23 231.334 149.211 229.685 149.178C231.132 146.424 232.829 143.801 234.216 141.054C238.282 133.005 242.254 122.457 243.453 113.478C243.237 113.009 242.37 111.964 242.015 111.506C241.387 111.757 240.852 111.897 240.175 111.943C232.454 112.468 224.675 110.971 219.418 104.774C218.176 103.306 217.164 100.597 215.634 99.4726C211.847 101.729 206.676 114.456 201.948 113.679C201.575 113.338 201.308 113.222 201.203 112.75C200.737 110.614 204.316 107.23 205.556 105.403C206.713 103.584 211.358 98.0304 211.549 96.2577C212.407 88.2551 212.805 84.6339 216.843 77.5038C209.991 64.7863 202.471 55.6286 191.954 45.954C192.608 44.5942 193.001 44.1268 193.933 42.9287C214.895 21.8302 178.282 -12.163 162.006 22.1528C163.308 23.1926 164.872 24.2308 163.686 25.9816C162.307 26.6315 160.917 26.3873 159.521 25.8374C149.26 21.7949 137.669 19.7428 126.641 20.2958C124.608 20.3976 122.837 21.7355 121.572 21.5962C120.443 21.0455 120.756 21.3645 120.153 20.4391C120.079 18.1424 126.539 13.5759 123.625 12.1268C117.725 9.19433 108.44 15.5317 104.576 19.9407C102.714 22.0661 101.91 22.6373 99.8085 24.0529C96.3144 25.6748 91.7826 26.4214 88.1491 27.7892C77.1665 31.9258 66.8579 37.7677 58.1471 45.6745C56.8208 46.8785 55.3677 48.0831 53.6647 47.2072C52.7453 45.7655 53.3196 44.7747 53.8384 43.2775C45.3232 34.7254 34.844 32.0327 25.5893 41.4017C21.3759 45.6194 19.0418 51.3583 19.1157 57.3193C19.1376 62.8471 21.4436 68.1195 25.4873 71.8883C27.2099 73.5233 29.4633 75.1302 31.6962 75.9879C32.8286 76.5068 34.6427 77.1371 35.0618 78.4017C29.3427 92.4512 24.6511 107.856 24.3202 123.134C28.9691 122.999 32.2347 122.853 36.7668 124.4C44.7523 127.125 50.1732 132.648 52.482 140.806C51.9179 143.718 52.9156 145.003 51.9006 149.202C50.9106 151.911 49.8596 153.518 47.9735 155.693L47.8112 155.806C44.6525 157.963 40.1213 160.102 36.4003 158.601C32.7564 157.132 33.2931 158.419 29.7956 159.591C26.2839 160.768 22.8412 159.093 19.3804 158.474C13.6701 161.01 9.26455 158.942 4.53884 155.725C2.63343 153.035 2.22034 152.045 1.18035 149.022C-0.668199 135.98 8.27546 127.458 19.8717 123.719C20.7977 108.672 24.1132 93.8679 29.6944 79.8633C16.8635 74.4351 11.4173 59.1659 16.9945 46.6613C22.305 34.7549 34.6026 27.9709 47.2116 33.1338C51.5364 34.9642 54.1059 37.4536 57.1742 40.8379C66.4402 33.2694 75.4009 27.8938 86.7077 23.7421C90.526 22.3405 94.6512 21.609 98.2477 19.9194C99.6607 19.2555 101.853 16.3121 103.166 15.1047C108.218 10.5182 115.047 6.72562 122.052 7.19896C124.179 7.34274 126.237 8.17885 127.596 9.87023C129.177 11.8382 128.623 13.7997 128.151 16.0846C137.34 15.3113 149.602 17.706 158.27 20.6637Z" fill="#472101"/>
<path d="M215.631 99.4749L216.185 99.4337C217.399 97.5794 214.821 87.6344 220.308 79.9312C221.729 77.9385 223.728 76.3112 226.164 75.79C227.606 75.4816 229.138 75.7573 230.574 75.9754C230.292 78.7866 229.565 81.2476 228.825 83.9649C228.47 85.2725 228.462 85.6366 229.306 86.7133C230.383 87.2902 229.914 87.1986 231.08 87.1153C234.455 85.3469 232.746 77.8166 235.689 76.4539C239.1 74.8729 242.526 77.4288 244.735 79.9446C244.445 83.095 243.857 85.2875 242.685 88.2494C241.977 90.0414 242.097 91.4902 244.255 91.785C246.805 90.9099 248.292 84.5571 249.102 82.0373C251.419 83.0904 253.179 83.9379 254.106 86.4893C255.621 90.6566 255.064 95.0508 253.224 98.9964C252.104 101.41 250.572 103.61 248.698 105.499C247.061 107.149 242.535 110.031 242.012 111.508C241.383 111.76 240.849 111.899 240.172 111.945C232.45 112.47 224.672 110.973 219.415 104.776C218.173 103.308 217.16 100.599 215.631 99.4749Z" fill="#E27E2F"/>
<path d="M25.7603 127.186C27.2958 127.05 28.841 127.068 30.3731 127.239C41.1394 128.546 52.521 138.047 46.9307 150.224C45.4666 153.383 40.8059 155.209 37.5765 154.277C33.3014 153.044 37.2874 145.456 35.1886 142.473C34.4 141.928 34.29 141.91 33.3301 141.949C30.3128 143.527 31.3938 151.232 31.8012 154.225C29.9176 155.248 29.0684 155.429 26.962 155.75C16.5081 156.119 21.6404 145.27 19.265 142.383C12.7951 139.55 17.5109 152.49 16.0029 154.55C14.8569 156.116 11.4322 154.789 10.1835 154.256C2.62554 151.03 4.59575 140.375 8.98684 135.334C13.3873 130.157 19.1596 127.832 25.7603 127.186Z" fill="#E27E2F"/>
<path d="M31.0078 50.553C31.2415 49.4473 31.4536 48.5145 32.5163 47.9681C37.4018 45.4557 43.5647 50.3804 45.7581 54.5384C46.4592 55.8672 46.9843 57.2393 46.563 58.7103C45.4593 62.3107 41.033 58.1513 39.8486 61.4945C39.6589 62.0298 39.6092 62.2592 39.8221 62.8571C40.3853 64.1635 42.5978 65.1253 41.941 66.6955C41.638 67.4199 41.1188 67.8026 40.4831 68.2305C36.6555 67.3315 36.2728 64.9979 35.5354 61.6719C36.0878 59.8779 36.3934 58.9081 37.6745 57.5352C36.8727 56.3667 34.2659 52.501 33.2513 51.8932C32.3938 51.5816 31.7601 51.0738 31.0078 50.553Z" fill="#472101"/>
<path d="M33.25 51.8952C36.9906 50.493 39.8422 53.325 42.2679 55.9244C40.3073 56.4305 39.5272 56.715 37.6732 57.5372C36.8715 56.3688 34.2647 52.5031 33.25 51.8952Z" fill="#A34C05"/>
<path d="M180.181 31.8929C164.621 40.7837 179.029 9.06668 186.14 20.0539C185.537 20.5733 184.985 21.1197 184.277 21.464C183.683 23.8937 182.356 26.5261 182.017 28.7192C186.367 31.3556 187.769 36.3028 183.268 39.4983L183.058 39.4304C181.642 38.9627 181.437 38.9226 180.877 37.7988C180.886 36.661 181.665 35.3094 182.176 34.2313L180.181 31.8929Z" fill="#472101"/>
<path d="M177.09 28.8187C178.776 25.4536 180.189 22.2293 184.28 21.4648C183.686 23.8945 182.358 26.5269 182.02 28.72C180.169 28.5779 178.918 28.6899 177.09 28.8187Z" fill="#A34C05"/>
<path d="M35.4964 69.0817C31.7797 66.3504 28.7667 63.0576 28.4514 58.2048C28.3055 55.9616 29.5189 52.2076 31.0084 50.5547C31.7607 51.0755 32.3944 51.5833 33.2519 51.8949C34.2665 52.5027 36.8733 56.3684 37.6751 57.5369C36.394 58.9098 36.0884 59.8796 35.536 61.6736C36.2734 64.9996 36.6561 67.3332 40.4837 68.2322C39.4343 70.1112 35.2499 76.8327 35.0589 78.4032C34.6398 77.1386 32.8257 76.5083 31.6933 75.9894C32.3682 74.21 34.4849 70.7921 35.4964 69.0817Z" fill="#E27E2F"/>
<path d="M186.14 20.0547L187.439 21.1373C192.958 25.8084 192.449 32.8029 188.011 38.0247C189.395 39.1153 192.818 41.7099 193.93 42.9296C192.997 44.1276 192.605 44.595 191.951 45.9548C189.916 44.9001 184.71 40.0473 183.269 39.4991C187.769 36.3036 186.367 31.3564 182.018 28.72C182.356 26.5269 183.684 23.8945 184.278 21.4648C184.986 21.1205 185.537 20.5741 186.14 20.0547Z" fill="#E27E2F"/>
<path d="M52.4798 140.807C54.6019 143.246 56.6034 145.993 57.3153 149.231L51.8984 149.203C52.9134 145.004 51.9158 143.719 52.4798 140.807Z" fill="#E27E2F"/>
<path d="M59.595 91.5293C70.5916 91.5151 74.3444 113.749 62.3769 116.842C51.0124 117.178 48.6225 101.567 54.612 94.3664C55.9834 92.7174 57.5997 92.194 59.595 91.5293Z" fill="#21211F"/>
<path d="M57.2094 99.5042C61.1753 96.1321 65.4961 99.7692 63.195 105.376C59.2682 108.893 55.4557 104.931 57.2094 99.5042Z" fill="#FEFCF3"/>
<path d="M177.62 71.0607C179.127 71.0457 180.495 71.964 180.839 73.4657C180.395 74.7902 179.784 75.1058 178.544 75.7253C174.894 77.5463 172.509 79.3988 169.825 82.5028C170.891 82.4059 171.957 82.3158 173.023 82.2325C176.344 81.9772 185.257 81.7978 185.47 86.584C184.435 88.7371 182.22 88.0152 180.378 87.6291C177.933 87.2087 175.437 87.1555 172.975 87.4719C168.255 88.1108 159.163 92.8996 164.096 82.672C166.885 76.8827 171.417 72.9414 177.62 71.0607Z" fill="#21211F"/>
<path d="M17.3901 2.4334e-06C18.9068 -0.00122008 20.388 0.458216 21.6379 1.3175C28.1291 5.81116 23.8509 18.6465 20.141 23.9178C16.1229 24.3482 12.3095 23.7472 8.49416 22.5218C3.38634 20.3273 1.38854 18.7846 0 13.3755C1.54974 7.00638 5.0481 5.70509 11.0068 7.92309C12.3658 3.57073 12.9367 1.615 17.3901 2.4334e-06Z" fill="#4FAF5A"/>
<path d="M235.373 30.7178C240.831 30.3388 242.216 34.43 242.787 38.8503C244.544 38.1074 245.337 37.8828 247.202 37.4359C250.972 38.3653 253.795 40.209 252.803 44.8207C252.127 47.9717 249.443 49.8728 246.799 51.4535C242.551 53.4997 238.736 54.1388 234.096 53.9949C230.781 50.0005 228.916 40.6119 230.628 35.5638C231.497 32.9993 232.999 31.8024 235.373 30.7178Z" fill="#4FAF5A"/>
</svg>
