<svg width="53" height="36" viewBox="0 0 53 36" fill="none" xmlns="http://www.w3.org/2000/svg">
<path d="M25.0526 11.7376C26.3448 10.6491 27.8724 9.81464 29.6214 9.96727C30.8375 10.0734 31.7377 10.7249 31.1075 11.9993C33.1558 12.3199 35.2913 13.0477 37.0595 14.1339C37.765 12.9794 38.7024 12.1097 40.0472 11.7882C41.1777 11.513 42.3714 11.702 43.3614 12.3132C45.7213 13.7705 46.4583 16.9394 44.9853 19.3016C44.6114 19.889 44.129 20.3996 43.5641 20.8061C45.2275 23.507 46.2429 25.604 47.0315 28.7018C47.7548 28.7013 48.2805 28.7216 48.9883 28.8674C50.8033 29.2413 52.7051 30.5305 52.6814 32.5985C52.6735 33.3072 52.3835 33.9836 51.8753 34.4775C51.1462 35.1734 50.0494 35.3439 49.1251 34.9676C48.1259 35.3975 47.4781 35.4656 46.4731 34.9738C45.3467 35.3638 44.2187 35.1755 43.4129 34.2396C42.8961 34.2272 42.3621 34.2307 41.844 34.2283L35.2319 34.2269L26.8004 34.2242C26.5262 34.2242 26.2516 34.2259 25.9774 34.2293C25.0888 34.2516 24.0976 34.2283 23.2003 34.2279L17.5193 34.2293L10.7172 34.23C10.1849 34.2238 9.65249 34.2259 9.12021 34.2358C8.23259 35.1284 7.18019 35.434 5.98298 34.9744C5.04286 35.3742 4.3185 35.4914 3.37591 34.971C1.00696 35.8148 -0.735593 33.3952 0.310322 31.3124C1.38321 29.176 3.91922 28.6573 6.07761 28.7141C6.60299 26.4926 7.64 24.0456 8.7288 22.0345C8.91579 21.689 9.21999 21.13 9.43812 20.812C8.84728 20.2764 8.29166 19.7333 7.933 19.0148C5.26428 13.6679 12.7212 8.32187 16.133 14.259C18.7005 12.7485 22.0709 11.8469 25.0526 11.7376Z" fill="#FF9A43"/>
<path d="M25.0526 11.7376C26.3448 10.6491 27.8724 9.81464 29.6214 9.96727C30.8375 10.0734 31.7377 10.7249 31.1075 11.9993C33.1558 12.3199 35.2913 13.0477 37.0595 14.1339C37.765 12.9794 38.7024 12.1097 40.0472 11.7882C41.1777 11.513 42.3714 11.702 43.3614 12.3132C45.7213 13.7705 46.4583 16.9394 44.9853 19.3016C44.6114 19.889 44.129 20.3996 43.5641 20.8061C45.2275 23.507 46.2429 25.604 47.0315 28.7018C47.7548 28.7013 48.2805 28.7216 48.9883 28.8674C50.8033 29.2413 52.7051 30.5305 52.6814 32.5985C52.6735 33.3072 52.3835 33.9836 51.8753 34.4775C51.1462 35.1734 50.0494 35.3439 49.1251 34.9676C48.1259 35.3975 47.4781 35.4656 46.4731 34.9738C45.3467 35.3638 44.2187 35.1755 43.4129 34.2396C42.8621 33.4618 42.737 33.1178 42.7271 32.1572C42.9531 30.229 44.3743 29.1399 46.1776 28.8041C45.7615 26.8319 44.6935 24.4733 43.7156 22.7157C43.3356 22.0323 42.8827 21.3951 42.515 20.7443C42.6226 20.4342 42.7752 20.3652 43.0366 20.1716C43.4957 19.8273 43.9232 19.3911 44.2348 18.9081C44.8437 17.9679 45.0464 16.8214 44.7973 15.7293C44.3592 13.7306 42.4728 12.0414 40.3414 12.5408C39.115 12.8281 38.3814 13.6067 37.7423 14.6213C38.3584 15.0914 37.8722 15.6042 37.508 15.3828C37.0389 15.098 36.5599 14.7575 36.0576 14.4858C34.3918 13.5942 32.5833 13.0001 30.7134 12.7299C30.1434 12.6509 29.9915 12.9692 29.5135 12.7846C29.4104 12.7448 29.3891 12.6873 29.3551 12.5933C29.4098 12.169 30.0052 12.011 30.2612 11.7126C30.409 11.5895 30.6354 11.1699 30.386 11.0334C29.0191 10.2855 27.176 11.1277 26.0465 11.9872C25.8668 12.1242 25.5193 12.4504 25.37 12.4795C24.6525 12.6193 23.9106 12.6312 23.1856 12.7303C21.7833 12.9308 20.4058 13.2773 19.0754 13.764C18.4375 13.9966 17.8149 14.2692 17.2114 14.5802C16.8864 14.7515 15.7745 15.4935 15.524 15.4993C15.4183 15.5018 15.3116 15.4686 15.238 15.3902C15.1719 15.3197 15.1439 15.2253 15.151 15.1297C15.1654 14.935 15.2899 14.8462 15.4295 14.7327C15.1649 14.1835 14.7916 13.6939 14.3322 13.2932C10.739 10.193 5.42496 16.3668 9.95954 20.1568C10.2132 20.3437 10.4209 20.4432 10.4759 20.7626C10.0863 21.4546 9.67579 22.0734 9.28974 22.7927C8.27211 24.7154 7.47724 26.748 6.92052 28.851C8.64269 29.3045 9.76925 30.4315 9.89268 32.2785C10.2495 32.5865 10.6489 33.7468 10.7172 34.23C10.1849 34.2238 9.65249 34.2259 9.12021 34.2358C8.23259 35.1284 7.18019 35.434 5.98298 34.9744C5.04286 35.3742 4.3185 35.4914 3.37591 34.971C1.00696 35.8148 -0.735593 33.3952 0.310322 31.3124C1.38321 29.176 3.91922 28.6573 6.07761 28.7141C6.60299 26.4926 7.64 24.0456 8.7288 22.0345C8.91579 21.689 9.21999 21.13 9.43812 20.812C8.84728 20.2764 8.29166 19.7333 7.933 19.0148C5.26428 13.6679 12.7212 8.32187 16.133 14.259C18.7005 12.7485 22.0709 11.8469 25.0526 11.7376Z" fill="#412301"/>
<path d="M9.89161 32.2793C10.2484 32.5872 10.6478 33.7476 10.7161 34.2308C10.1838 34.2246 9.65143 34.2267 9.11914 34.2366C9.67668 33.5279 9.82117 33.1746 9.89161 32.2793Z" fill="#BF5E10"/>
<path d="M47.2395 29.4601C48.9452 29.3549 51.2873 30.1777 51.7697 31.9828C52.0408 32.9977 51.5515 34.1185 50.4712 34.355C50.2568 34.4017 49.9159 34.4712 49.7211 34.354C49.7084 34.3296 49.696 34.3055 49.6836 34.2814C49.8943 33.6171 50.0046 32.9438 49.8644 32.2523C49.8898 32.0327 49.4991 31.7993 49.3115 31.9502C48.8607 32.3128 49.2833 33.3487 48.9535 33.8848C48.7019 34.2945 48.7092 34.2983 48.3243 34.4567C47.8206 34.62 47.3474 34.5485 46.8866 34.3062C46.9227 33.9735 47.1629 31.822 46.3901 31.9189C45.6555 32.0107 46.4839 33.88 45.9902 34.2378C45.0483 34.8551 43.6784 33.7546 43.6076 32.7544C43.4478 30.497 45.2425 29.5708 47.2395 29.4601Z" fill="#E58230"/>
<path d="M5.29957 29.4576C6.33593 29.4452 7.3803 29.6284 8.17156 30.3553C8.68038 30.8228 9.0267 31.4782 9.04904 32.1749C9.06344 32.7756 8.83885 33.3578 8.42463 33.793C8.04748 34.1889 7.52558 34.414 6.97896 34.4171C5.90178 34.4326 6.4298 33.0736 6.43616 32.3996C6.44083 31.903 5.94957 31.7734 5.77141 32.0467C5.41292 32.5966 5.48261 33.6445 5.56535 34.2796C5.18102 34.5037 4.98654 34.5257 4.55445 34.5402C3.39865 34.4948 3.39006 33.4995 3.48152 32.6017C3.53977 32.3838 3.44806 31.9525 3.18551 31.9123C2.47296 31.8023 2.59955 33.4761 2.71015 33.8717C2.76115 34.0542 2.86203 34.2102 2.81832 34.3319C2.76235 34.3776 2.71194 34.4116 2.63951 34.4106C0.724054 34.3879 0.338971 32.2089 1.51797 30.976C2.52124 29.9268 3.88413 29.5243 5.29957 29.4576Z" fill="#E58230"/>
<path d="M17.5202 34.229C17.3431 31.3296 18.3372 28.3574 20.2474 26.1552C21.7317 24.444 23.6826 23.4913 25.9508 23.3613C28.0393 23.2292 30.0941 23.9386 31.6561 25.3314C34.1493 27.5616 35.3695 30.9216 35.2327 34.2266L26.8012 34.2238C26.527 34.2238 26.2525 34.2256 25.9783 34.229C25.0896 34.2513 24.0985 34.228 23.2012 34.2276L17.5202 34.229Z" fill="#E58230"/>
<path d="M25.9758 34.2295C25.9706 33.7387 25.7084 31.1717 26.7176 32.0763C26.8599 32.2041 26.798 33.9143 26.7987 34.2244C26.5245 34.2244 26.25 34.2261 25.9758 34.2295Z" fill="#412301"/>
<path d="M29.7419 28.4872C31.5826 28.334 31.5723 30.2525 29.5615 30.6409C27.5981 30.8224 27.8493 28.8135 29.7419 28.4872Z" fill="#412301"/>
<path d="M22.6005 28.4896C24.2472 28.3989 25.4952 30.2066 23.7226 30.6441C21.8392 30.7974 20.8291 28.8042 22.6005 28.4896Z" fill="#412301"/>
<path d="M41.1193 18.959C40.2892 18.459 41.2623 18.2043 41.0843 17.7067C40.8592 17.078 40.1503 17.6805 39.8005 17.5019C39.3119 17.2523 39.7016 16.2502 39.9019 15.9078C40.2754 15.2181 41.3135 14.3837 42.1271 14.729C42.2745 14.7915 42.3484 14.961 42.3835 15.1052C42.2872 15.3115 42.2206 15.423 41.9722 15.4602C41.7595 15.8214 41.444 16.4136 41.2324 16.74C41.9581 17.1732 42.0849 17.8384 41.6976 18.5728C41.4884 18.8168 41.4361 18.8782 41.1193 18.959Z" fill="#412301"/>
<path d="M40.459 16.6595C40.7624 15.9784 41.1658 15.4192 41.9729 15.4612C41.7602 15.8224 41.4448 16.4146 41.2331 16.741C40.9215 16.633 40.7868 16.6495 40.459 16.6595Z" fill="#A54F0A"/>
<path d="M10.7832 15.1056C10.8017 14.9932 10.8484 14.8098 10.9615 14.7579C11.7431 14.3992 12.5744 15.0368 13.0555 15.6811C13.2539 15.9469 14.0192 17.5853 13.0258 17.5684C12.7492 17.5637 12.232 17.1072 11.9748 17.7564C11.8716 18.1205 12.6477 18.5374 11.9948 18.9043C11.9617 18.9264 11.947 18.9371 11.9073 18.958C11.6495 18.8925 11.4281 18.6811 11.3092 18.448C11.1553 18.1418 11.1299 17.7868 11.2388 17.4618C11.3585 17.109 11.5697 16.9016 11.8958 16.7431C11.5944 16.3084 11.3653 15.8138 11.098 15.4419C10.8894 15.3538 10.8731 15.3048 10.7832 15.1056Z" fill="#412301"/>
<path d="M11.0996 15.4414C11.9558 15.4614 12.32 15.8927 12.6433 16.6543C12.3161 16.6305 12.204 16.632 11.8974 16.7426C11.596 16.3079 11.3669 15.8134 11.0996 15.4414Z" fill="#A54F0A"/>
<path d="M42.3833 15.1035C43.5364 16.3391 43.4323 17.903 42.1022 18.9641C42.4108 19.3064 42.7547 19.7915 43.0375 20.1697C42.776 20.3633 42.6235 20.4324 42.5159 20.7425C42.2895 20.5198 41.361 19.2718 41.1191 18.9574C41.4359 18.8766 41.4882 18.8151 41.6974 18.5711C42.0847 17.8367 41.9579 17.1715 41.2322 16.7383C41.4439 16.412 41.7593 15.8198 41.972 15.4586C42.2204 15.4213 42.2871 15.3099 42.3833 15.1035Z" fill="#BF5E10"/>
<path d="M10.7834 15.1035C10.8733 15.3028 10.8897 15.3518 11.0983 15.4398C11.3655 15.8118 11.5947 16.3063 11.8961 16.741C11.57 16.8995 11.3587 17.1069 11.239 17.4597C11.1302 17.7847 11.1555 18.1397 11.3094 18.4459C11.4283 18.679 11.6498 18.8904 11.9076 18.9559C11.3735 19.5918 10.967 20.0765 10.4764 20.7596C10.4214 20.4402 10.2137 20.3406 9.96005 20.1538C10.0075 20.1192 10.8005 19.0604 10.9184 18.921C10.1251 18.1747 9.75192 17.3707 10.0115 16.249C10.1098 15.8242 10.3977 15.3309 10.7834 15.1035Z" fill="#BF5E10"/>
<path d="M42.7268 32.1543C42.7368 33.1149 42.8619 33.459 43.4127 34.2367C42.8959 34.2244 42.3619 34.2278 41.8438 34.2254C41.9757 33.5604 42.276 32.6685 42.7268 32.1543Z" fill="#BF5E10"/>
<path d="M14.6873 24.3671C14.986 24.3517 15.282 24.4313 15.5326 24.5946C16.9662 25.5313 16.8482 29.0546 14.771 29.4462C12.0305 29.4355 12.3828 24.6436 14.6873 24.3671Z" fill="#1F201B"/>
<path d="M37.9773 24.3633C40.0152 24.2048 40.9213 28.9024 38.3363 29.4437C37.8965 29.4379 37.5993 29.3966 37.2326 29.1193C35.8204 28.0503 35.928 24.6464 37.9773 24.3633Z" fill="#1F201B"/>
<path d="M24.6645 0C25.6879 0.0230963 26.2906 0.720727 26.7545 1.55298C27.2159 0.878654 27.8444 0.317298 28.7093 0.316714C29.1237 0.312349 29.5219 0.476979 29.8123 0.772625C30.1648 1.12773 30.3421 1.62612 30.3314 2.12121C30.3043 3.36329 29.4281 4.3754 28.5914 5.18941C28.1516 5.59717 27.1589 6.43344 26.5352 6.55566C26.3195 6.59793 26.0332 6.36109 25.8645 6.2276C24.6543 5.27172 23.2503 3.77724 23.0637 2.17796C22.9994 1.62681 23.1156 1.00658 23.4742 0.571357C23.8015 0.17415 24.1724 0.0449552 24.6645 0Z" fill="#4FAF5A"/>
<path d="M39.4281 4.90977C40.4173 4.82292 40.8661 5.50839 41.0262 6.39745C41.0489 6.3791 41.0723 6.36137 41.0963 6.34432C41.4633 6.0807 41.9089 5.90102 42.3673 5.98409C42.6515 6.03273 42.9034 6.19577 43.0638 6.43519C43.7438 7.42819 42.7955 8.50842 41.9904 9.04662C41.7007 9.23242 41.3942 9.39131 41.0754 9.52126C40.7816 9.64086 39.9682 9.93888 39.6954 9.80075C39.3539 9.62811 38.9487 8.62047 38.8192 8.2578C38.5412 7.48116 38.2577 6.34937 38.635 5.57736C38.8226 5.1937 39.0429 5.04584 39.4281 4.90977Z" fill="#4FAF5A"/>
<path d="M14.4891 5.79957C16.0285 5.71138 15.6799 7.80771 15.3219 8.69953C15.2113 8.9751 14.986 9.67765 14.7285 9.781C14.366 9.92652 13.4036 9.50254 13.089 9.36743C13.0208 9.33371 12.9538 9.29745 12.8883 9.25872C12.1702 8.82862 11.3782 7.94708 11.9276 7.08283C12.056 6.87853 12.2618 6.73508 12.4978 6.68517C12.9112 6.59526 13.242 6.7504 13.5783 6.96583C13.7004 6.35753 13.8772 5.99933 14.4891 5.79957Z" fill="#4FAF5A"/>
</svg>
