<svg width="78" height="88" viewBox="0 0 78 88" fill="none" xmlns="http://www.w3.org/2000/svg">
<path d="M42.3465 2.28549C42.7774 0.756755 44.1748 -0.807146 45.9134 0.471408C46.6092 0.983105 46.7157 2.0665 46.7549 2.8851C49.0653 1.29334 51.6377 2.96046 49.922 5.45641C53.3823 6.08959 57.1478 8.25745 59.9156 10.3773C61.9933 8.59088 64.7499 7.89822 67.3477 8.95715C68.9508 9.59447 70.224 10.8599 70.8712 12.4595C71.5576 14.1392 71.5576 16.0212 70.8707 17.7009C70.2118 19.2726 69.0917 20.3187 67.5288 20.9527C67.8423 21.8219 68.1299 22.7004 68.391 23.5869C70.1642 29.7308 70.7298 38.3296 67.5399 44.1081C68.4148 45.8266 69.2622 48.1256 69.8739 49.9686C72.0453 56.5086 72.8975 62.3554 71.7509 69.1496C74.8862 70.0255 75.1981 74.4228 73.4049 76.6428C73.1168 76.9993 72.9351 77.2031 72.5909 77.5183C73.1146 77.7735 73.7587 77.9255 74.2925 78.1607C80.2517 80.7811 75.4201 83.3073 71.9892 84.3739C68.1913 85.5538 64.5434 86.1994 60.6645 86.719C55.8963 87.3402 51.1017 87.7347 46.2962 87.901C45.0747 87.9407 43.8208 87.9259 42.5949 87.9492C33.3428 88.1732 24.0876 87.6537 14.9187 86.3959C10.6842 85.7832 6.2477 85.0163 2.31934 83.2517C-1.51043 81.531 -0.120232 79.3141 3.03917 78.1612C3.20332 78.1019 3.72213 77.8784 3.85045 77.7947C2.9026 76.2139 2.15429 74.2941 1.75084 72.4971C1.36187 70.7648 1.11729 67.3224 3.61472 67.1027C3.90092 64.6104 6.16614 63.62 8.04118 65.3571C9.71736 64.0638 11.2098 65.2237 12.4222 66.5037C13.1997 65.7877 13.5575 65.5965 14.5252 65.2533C12.6513 65.0203 11.2863 64.3895 11.0556 62.349C10.7893 62.2569 10.4992 62.1387 10.2446 62.0206C5.75145 59.9388 5.30726 52.562 9.2226 49.7155C9.75698 49.3273 10.4069 49.1197 11.0625 49.0752C11.058 48.5562 11.0743 48.0372 11.1113 47.5192C11.2916 45.0878 12.5831 44.1346 14.9414 44.3268C14.9454 44.1769 14.9451 44.0276 14.9611 43.8782C11.5981 40.8044 10.6054 34.5126 12.2582 30.4188C12.5321 29.7405 13.0022 28.9836 13.205 28.333C13.4667 27.4932 13.5294 26.4734 13.7982 25.6222C14.3784 23.3722 15.64 19.7007 17.0193 17.8365C16.6247 16.711 17.3603 16.1981 18.1218 15.542C16.4477 14.0159 15.7197 12.5534 15.94 10.2281C16.0993 8.42851 16.9749 6.76832 18.3701 5.62053C19.6987 4.50477 21.4177 3.96538 23.1456 4.12214C25.0938 4.30877 26.5812 5.32453 27.7923 6.80767C30.0146 5.49851 33.5069 4.55905 36.0404 4.18722C36.8467 4.06891 37.8912 4.0723 38.5948 3.92004C38.5267 3.55706 38.4055 2.99441 38.4457 2.64175C38.5034 2.1747 38.7393 1.748 39.104 1.45069C40.2053 0.570443 41.5911 1.36134 42.3465 2.28549Z" fill="#4A2602"/>
<path d="M67.4727 78.51C69.3623 78.9845 71.0195 78.6307 72.5909 77.5186C73.1146 77.7738 73.7587 77.9258 74.2925 78.161C80.2517 80.7814 75.4201 83.3076 71.9892 84.3742C68.1913 85.5541 64.5434 86.1997 60.6645 86.7193C55.8963 87.3405 51.1017 87.735 46.2962 87.9013C45.0747 87.941 43.8208 87.9262 42.5949 87.9495C33.3428 88.1735 24.0876 87.654 14.9187 86.3962C10.6842 85.7835 6.2477 85.0166 2.31934 83.252C-1.51043 81.5313 -0.120232 79.3144 3.03917 78.1615C3.20332 78.1022 3.72213 77.8787 3.85045 77.795C4.40009 78.5894 5.0191 79.504 5.66984 80.1824C7.79915 82.3972 11.2929 83.8907 14.2281 82.3898C14.7335 82.1313 15.2363 82.0604 15.7949 82.0122C18.3677 81.7951 20.9369 80.8063 23.5251 80.8677C23.8947 80.8767 25.9867 81.8194 26.517 82.008C27.3478 82.3051 28.1919 82.5635 29.0466 82.7822C32.1713 83.5877 35.238 83.8367 38.4413 83.9336C40.1848 86.7034 44.5261 87.9241 47.45 86.5291C48.0668 86.2347 48.5455 85.891 49.077 85.4768C49.2144 85.4742 49.3552 85.4705 49.492 85.4583C55.8884 84.88 63.0488 83.5353 67.4727 78.51Z" fill="#FFDCA8"/>
<path d="M43.1047 3.81995C43.1075 2.66591 43.9785 -0.0812218 45.4407 1.45811C45.7806 2.04379 45.7206 2.7813 45.6481 3.43504C45.5787 3.99896 45.4309 4.55043 45.2089 5.0734C45.3206 5.19505 45.3307 5.22005 45.4942 5.25903C45.9113 5.17609 46.1126 4.73181 46.4635 4.39716L46.5006 4.36237C47.0767 3.79035 47.8051 3.22686 48.6596 3.22654C49.5152 3.22627 49.5638 3.85226 49.3509 4.52019C49.0491 5.07166 48.6838 5.46117 48.1959 5.86144L48.1378 6.0369C48.3628 6.34634 49.0543 6.31526 49.4333 6.40402C52.155 6.80614 57.2123 9.32077 59.2391 11.1533L58.9293 11.6871C58.8901 11.8873 58.8435 11.9853 58.9293 12.1546C59.1416 12.2729 59.2465 12.2447 59.5039 12.2042C59.873 11.9139 60.2756 11.4402 60.6468 11.1175C62.8807 9.17609 66.1522 8.90488 68.4539 10.8406C69.4511 11.745 69.9352 12.7052 70.1873 13.9756C70.7508 16.8165 69.0152 20.0942 65.89 20.175C65.6633 20.1809 64.4224 20.1163 64.2868 20.1715C64.2773 20.3486 64.3658 20.4624 64.486 20.5975C65.0024 21.1786 65.7936 21.2622 66.5128 21.2289C66.6749 21.7487 66.9969 22.6194 67.1033 23.0987C68.2145 26.4262 68.7764 30.8131 68.7144 34.3082C68.7091 34.6057 68.6874 35.4146 68.6429 35.6905C68.6943 38.2898 67.5715 42.1537 66.167 44.3632C65.7205 45.0649 64.7529 46.2967 64.4516 46.8846C65.5521 46.5711 66.0754 45.9848 66.8094 45.1184C67.0483 45.6718 67.4709 46.5679 67.6605 47.1081C69.9882 52.7409 71.56 59.4541 71.0622 65.555C71.094 66.6455 70.8705 67.7952 70.6724 68.8618C68.9194 78.3093 63.1175 82.2802 53.9742 83.8081C53.1348 83.9469 52.2932 84.0735 51.4501 84.1879C51.0317 84.2413 50.3542 84.2906 49.9828 84.3684C50.2459 83.9855 50.5786 83.5004 50.7758 83.0831L50.6801 82.9576C50.3596 83.1949 50.2147 83.1684 49.8296 83.1435C49.9494 82.8887 50.0315 82.8247 50.131 82.5154C50.1698 82.4285 50.159 82.4582 50.248 82.392C50.7605 82.1913 50.7349 81.9328 51.1376 81.6373L51.2642 81.6701L51.423 81.6262C51.9262 80.6798 52.2058 78.2802 52.1645 77.1574C52.0824 74.9088 51.4082 72.5833 49.73 71.0062C49.2818 70.6709 49.2009 70.6497 48.654 70.5724C50.0832 69.2876 51.654 68.5732 53.425 67.9154C53.8068 67.7693 54.2888 67.603 54.6563 67.4489C51.9299 67.3196 49.5941 68.5642 47.5652 70.251C47.1372 69.2776 46.685 68.5208 45.6351 68.1146C44.89 67.8312 44.0621 67.8609 43.3393 68.1966C42.6745 68.5033 42.2275 68.9619 41.8352 69.5667C41.286 69.1759 40.7308 68.982 40.066 69.1123C36.5081 69.8072 36.2316 76.4499 36.6189 79.0915C36.9143 80.7555 37.0869 81.3015 37.7723 82.8284C32.7854 82.8098 26.6021 81.5775 22.3562 78.8728C22.1836 78.948 22.0835 78.9575 21.9857 79.0942L22.0603 79.3431C22.2442 79.5168 22.4474 79.6836 22.6405 79.8483C21.5317 79.851 20.2399 80.1428 19.1617 80.3583C17.9065 80.6088 16.6918 80.8477 15.4222 81.0224C15.6802 80.5527 15.8949 80.1258 15.9909 79.5957C16.0525 79.2552 15.9733 79.2642 16.1146 78.8781C16.0154 78.6011 16.0816 78.4603 16.1258 78.1695C16.2398 77.6155 16.2478 76.9324 16.2629 76.362C16.2782 75.5077 15.9041 73.8607 15.5065 73.1383C15.416 72.8995 15.3498 72.6437 15.2796 72.3974C15.3744 72.3116 15.3748 72.2952 15.4399 72.1829C15.5453 71.2254 14.0932 68.7803 13.5623 67.943L13.0924 67.273C13.7623 66.655 14.3096 66.3701 15.1604 66.092C15.2108 66.3441 15.2514 66.4458 15.3416 66.6788C15.4961 66.8859 15.6347 67.1025 15.8516 67.2413L15.9622 67.2381C16.0823 67.0469 16.0449 67.0305 16.0519 66.7858C16.174 66.2864 15.7973 65.8844 15.9686 65.5042C16.2286 65.3755 16.6062 65.4899 16.9133 65.5413C22.2149 66.0142 27.4775 66.7747 32.8114 67.3091C35.4894 67.5781 39.3714 68.408 41.8532 66.708C42.4744 66.2822 42.7624 65.2124 42.8081 64.4757C45.537 66.4813 49.215 67.2714 52.575 67.0082C54.2703 66.8753 56.6133 66.0936 57.7869 64.7691C57.8865 64.6568 57.8674 64.6627 57.8542 64.5551C57.4294 64.3348 56.1197 65.0286 55.6245 65.2203C51.9103 66.6592 46.0756 66.0211 43.0703 63.3217C43.267 63.3016 43.4865 63.3032 43.6071 63.1358C43.3584 62.9897 42.9767 62.9203 42.6747 62.8244C41.5711 62.4812 39.9778 61.6477 39.7855 60.3814C39.5395 58.7619 41.9548 60.0816 42.5031 59.5218C42.4941 58.9737 41.7184 58.9054 41.2981 58.8106C40.2568 58.5866 39.2121 58.3181 39.1375 57.0465L39.1408 56.8087C39.3425 56.169 39.5486 55.8242 40.1961 55.5679C40.97 55.2782 42.7829 55.7649 43.0359 55.2935C42.9494 54.8948 42.3539 54.7322 42.0186 54.6178C41.4764 54.5119 40.6471 54.5669 40.3572 54.2614C40.2701 54.0601 40.2827 54.0379 40.3045 53.8112C40.761 52.8849 41.3485 52.7054 42.3015 52.5396C43.0019 52.5089 43.7723 52.5216 44.4501 52.6932C47.0243 53.3451 49.1236 54.667 51.9129 53.8954C52.7195 53.6719 53.0082 53.4156 53.6697 53.109C53.6146 52.9887 53.613 52.9951 53.5177 52.8998C53.1522 52.779 51.2557 53.0676 50.6445 53.0867C51.0147 52.7414 51.6333 52.3108 51.914 51.9184C51.432 51.6393 50.1293 52.7313 49.7542 53.038C48.0654 52.9045 47.0138 52.3659 45.4237 51.8766C44.7956 51.6833 44.0748 51.5705 43.4235 51.4868C43.4055 50.7994 43.4114 50.112 43.4409 49.4256C43.2577 46.7914 41.7778 46.5234 39.5455 46.3815C38.9303 46.346 38.3161 46.2952 37.7035 46.2295C37.2553 46.2374 36.2016 46.1188 35.6982 46.0754L31.5859 45.7105L27.0376 45.3376C26.4378 45.2884 25.2725 45.2312 24.7211 45.1253C23.9416 45.0628 23.1617 45.0051 22.3814 44.9521C22.3982 44.0661 22.4814 42.9714 21.421 42.7039C20.1215 42.3761 18.5868 42.4376 17.2518 42.2686C16.6057 42.2633 16.3824 42.2623 15.8233 42.6362C15.6106 42.7786 15.5836 42.8713 15.4189 42.8173L15.294 42.6759C12.5902 39.583 11.8436 34.4586 13.2654 30.6544C13.5278 29.9524 14.0992 29.1564 14.2645 28.4982C14.5046 27.5426 14.6469 26.5424 14.8932 25.5712C15.5775 22.9245 16.6402 20.3904 18.0485 18.0474C17.3812 17.1249 18.1436 16.538 18.953 16.1714C20.3083 13.7427 23.2989 10.874 25.5914 9.30727C29.0035 6.97519 33.0793 5.51975 37.1962 5.09681C37.8059 5.03421 38.9092 4.94593 39.4913 5.0456C39.7679 5.08458 40.0904 5.18716 40.1903 4.87131C40.1391 4.65915 39.7769 4.10784 39.6437 3.8674C38.705 1.67545 40.7843 1.53935 41.9319 3.3789C42.2424 3.76339 42.2621 4.79197 42.7404 4.90578C43.1928 4.77884 43.0928 4.23426 43.1047 3.81995Z" fill="#FF9B34"/>
<path d="M29.1728 32.1346C29.6532 31.9616 30.6667 31.9262 31.1828 31.9311C31.3544 32.0255 33.9699 32.4133 34.1237 32.3726C34.5211 32.435 34.8369 32.5747 35.2096 32.7167C36.7975 33.3214 38.0568 34.2703 39.0603 35.6486C40.3024 37.3767 40.8188 39.5221 40.499 41.6267C40.1783 43.6047 39.1984 44.9695 37.7027 46.2289C37.2545 46.2369 36.2008 46.1182 35.6974 46.0748L31.5851 45.7099L27.0368 45.3371C26.437 45.2878 25.2718 45.2306 24.7203 45.1247C24.8657 45.1284 24.9641 45.1411 25.105 45.1009C24.986 44.7709 24.1492 44.4659 24.1116 43.7393C24.3919 43.9633 24.5676 44.092 24.8694 44.2858C24.6047 43.7864 24.2855 43.3045 24.0278 42.8082C23.3574 41.542 23.1014 40.0972 23.2957 38.6774C23.6337 36.1719 24.9923 34.0514 27.2916 32.9256C27.7024 32.7244 28.9434 32.3351 29.1728 32.1346Z" fill="#DD7B2A"/>
<path d="M28.5807 34.761C29.9481 34.6643 36.0321 34.9711 33.6893 37.708C32.9178 38.6094 31.8271 38.8753 30.6752 38.9272C30.4074 40.3285 30.5483 41.6271 30.9981 42.9664C31.6797 43.1179 33.569 43.845 33.7534 44.7226C33.7798 44.8486 33.6134 44.9958 33.5222 45.0885C33.423 45.1166 33.2799 45.1499 33.1858 45.1023C32.4012 44.7024 31.7554 44.0913 30.8719 43.8879C30.0213 43.6925 29.333 44.6707 28.572 44.6076C28.3492 44.5896 28.2302 44.2216 28.3863 43.997C28.7504 43.4727 29.3439 43.21 29.9292 43.0199C29.5134 41.8537 29.3662 39.9874 29.6176 38.7821C29.1216 38.5972 28.655 38.3414 28.2324 38.0231C26.9159 37.0132 26.3527 34.9804 28.5807 34.761Z" fill="#4A2602"/>
<path d="M28.5664 35.2296C28.9013 35.2121 29.8303 35.1369 29.9129 35.5479C29.842 35.7041 29.7405 35.7407 29.5914 35.8307C29.2377 35.9276 28.3274 35.9906 28.2617 35.5203C28.3403 35.3578 28.4086 35.3345 28.5664 35.2296Z" fill="#DD7B2A"/>
<path d="M29.2376 33.0047C29.6346 32.9602 30.1661 32.8945 30.3491 33.3097C30.2877 33.9418 29.3664 34.2166 28.838 34.3047C28.4804 34.3493 27.9485 34.4484 27.7347 34.0739C27.6908 33.4307 28.7561 33.1239 29.2376 33.0047Z" fill="#F69841"/>
<path d="M19.2942 75.5514C19.0355 75.0462 18.2782 73.2074 18.5181 72.7191L18.6215 72.6895C18.8999 72.9415 19.2441 73.4346 19.5 73.7412C23.2071 78.1872 29.433 79.9089 35.0146 80.1165C35.5508 80.1361 36.5216 79.6346 36.6185 79.0912C36.9139 80.7552 37.0865 81.3012 37.7719 82.8281C32.7851 82.8095 26.6017 81.5772 22.3559 78.8725C22.1832 78.9477 22.0831 78.9572 21.9853 79.0939L22.06 79.3428C22.2438 79.5165 22.447 79.6833 22.6401 79.848C21.5313 79.8507 20.2396 80.1425 19.1614 80.358C17.9061 80.6085 16.6915 80.8474 15.4219 81.0221C15.6798 80.5524 15.8945 80.1255 15.9905 79.5954C16.0521 79.2549 15.9729 79.2639 16.1142 78.8778C16.015 78.6008 16.0812 78.4599 16.1254 78.1692C16.2394 77.6152 16.2474 76.9321 16.2625 76.3617C16.3213 76.4771 16.9606 76.9421 17.1438 77.1089C17.7621 77.0036 18.5014 76.9252 18.8358 76.377C19.0386 76.0445 19.0403 75.8543 19.2942 75.5514Z" fill="#DD7B2A"/>
<path d="M22.06 79.3433C21.8157 79.1135 21.1447 78.5664 21.242 78.2381C21.5375 78.1867 22.1015 78.6845 22.3559 78.8731C22.1833 78.9483 22.0832 78.9578 21.9854 79.0944L22.06 79.3433Z" fill="#96490B"/>
<path d="M18.953 16.1708C20.3083 13.7421 23.2989 10.8734 25.5914 9.30662C29.0035 6.97454 33.0793 5.5191 37.1962 5.09617C37.8059 5.03357 38.9092 4.94528 39.4913 5.04495C39.6191 5.24663 39.6617 5.23974 39.664 5.43924C39.4362 5.67962 38.6549 5.61136 38.2862 5.66861C36.9421 5.87166 35.6137 6.16786 34.3107 6.55505C29.0424 8.13505 24.9795 10.388 21.4598 14.7576C21.2027 15.0769 20.2239 16.4024 20.1085 16.7049L20.1341 16.7966C20.2734 16.8324 20.371 16.7639 20.5091 16.7025L20.5523 16.8638L20.5171 16.9196C19.9531 17.7997 19.1354 18.4845 18.595 19.443C16.8674 22.5072 15.6167 25.6994 15.0297 29.1774C14.9434 29.6886 14.2731 30.6863 14.1422 31.2483C13.5532 32.9712 13.1396 35.7042 13.6287 37.4847C13.9357 38.8542 14.2731 40.2063 14.9971 41.4217C15.1815 41.731 15.5526 42.2966 15.4469 42.6255C15.3761 42.6551 15.368 42.6668 15.294 42.6752C12.5902 39.5824 11.8436 34.458 13.2654 30.6538C13.5278 29.9517 14.0992 29.1557 14.2645 28.4975C14.5046 27.542 14.6469 26.5417 14.8932 25.5706C15.5775 22.9239 16.6402 20.3898 18.0485 18.0467C17.3812 17.1243 18.1436 16.5373 18.953 16.1708Z" fill="#FCC774"/>
<path d="M23.8996 35.0289C23.4988 35.0295 23.1324 35.0407 22.7509 34.9259C20.7378 34.3198 20.2233 31.9058 20.7946 30.1056C21.095 29.159 21.6436 28.2466 22.5301 27.7791C23.1656 27.4456 23.9079 27.3796 24.5922 27.5957C25.8467 27.9963 26.4866 29.2957 26.6348 30.5256C26.7423 31.4179 26.5993 32.1697 26.3189 33.0108C26.9312 32.6871 28.4724 32.0602 29.1735 32.1348C28.9441 32.3353 27.7031 32.7246 27.2924 32.9258C24.9931 34.0517 23.6344 36.1721 23.2964 38.6776C23.1021 40.0974 23.3581 41.5422 24.0285 42.8084C24.2862 43.3047 24.6054 43.7866 24.8702 44.286C24.5684 44.0922 24.3926 43.9635 24.1124 43.7395C21.7762 40.9808 22.1563 37.9706 23.8996 35.0289Z" fill="#412101"/>
<path d="M23.0489 28.6559C24.6433 28.5411 24.7599 30.6433 23.28 31.3336C21.6899 31.3376 21.6269 29.2736 23.0489 28.6559Z" fill="#FDF6EE"/>
<path d="M43.4406 49.4248C43.482 49.6695 43.4761 49.9406 43.4804 50.1911C44.6699 50.484 46.837 50.5047 48.1023 50.4416C48.0707 50.9988 48.084 51.1714 47.8021 51.6533L47.758 51.7296C47.7488 51.745 47.7396 51.7598 47.7305 51.7752C48.321 51.728 48.7383 51.6782 49.3092 51.5993C49.984 51.5056 51.2422 50.9469 51.7427 51.0809C51.9244 51.272 51.856 51.4177 51.8116 51.6703C51.936 51.584 52.0631 51.5008 52.1918 51.4214L52.2342 51.4733C52.1839 51.6994 52.0986 51.7598 51.9138 51.9176C51.4318 51.6385 50.1291 52.7306 49.754 53.0372C48.0652 52.9037 47.0136 52.3651 45.4235 51.8758C44.7954 51.6825 44.0746 51.5697 43.4233 51.486C43.4053 50.7986 43.4111 50.1112 43.4406 49.4248Z" fill="#DD7B2A"/>
<path d="M71.0619 65.555C71.0005 65.474 70.9777 65.3527 70.9756 65.2532C70.8241 59.0193 69.0414 53.0576 67.094 47.1965C67.0707 47.1261 67.1311 47.0975 67.1761 47.0557C67.2725 47.0705 67.3504 47.0821 67.4478 47.0906L67.6602 47.1081C69.9879 52.7409 71.5598 59.4541 71.0619 65.555Z" fill="#FCC774"/>
<path d="M42.3009 52.5395C43.0013 52.5088 43.7718 52.5215 44.4496 52.6931C47.0237 53.345 49.123 54.6669 51.9123 53.8953C52.719 53.6718 53.0076 53.4154 53.6691 53.1088C53.9577 53.1597 54.4349 52.8827 54.6536 53.0924C54.661 53.219 54.4609 53.5113 54.3676 53.5982C52.2921 55.5317 48.8281 55.1112 46.4284 54.0414C45.7374 53.7332 45.1558 53.5118 44.4565 53.2931C43.9296 53.1279 42.727 53.1729 42.3876 52.8758C42.3069 52.7275 42.2898 52.7121 42.3009 52.5395Z" fill="#FCC774"/>
<path d="M49.4327 6.4043C52.1543 6.80642 57.2116 9.32105 59.2384 11.1536L58.9286 11.6874C56.7307 10.2291 54.8802 9.14311 52.3889 8.15192C51.1104 7.64313 49.993 7.30896 48.7168 6.85488C48.953 6.70087 49.1917 6.55068 49.4327 6.4043Z" fill="#FCC774"/>
<path d="M59.5034 12.2039C59.8725 11.9136 60.275 11.4399 60.6463 11.1172C62.8802 9.17578 66.1517 8.90457 68.4534 10.8403C68.4179 11.1161 68.4597 11.4829 68.4809 11.7678C65.6284 9.07934 62.6096 10.6898 59.8741 12.422C59.7603 12.494 59.6718 12.492 59.5474 12.4735C59.461 12.3204 59.4865 12.4049 59.5034 12.2039Z" fill="#FCC774"/>
<path d="M68.6422 35.6901C68.4833 35.4836 68.4669 34.6597 68.4452 34.3745C68.2514 31.8347 67.8759 29.2602 67.3012 26.7799C67.1259 26.0178 66.9411 25.2578 66.7478 24.5001C66.6355 24.0719 66.393 23.2587 66.3506 22.8662C66.4735 23.0495 66.6149 23.3178 66.7637 23.4626C67.019 23.3667 66.8214 23.2291 67.1026 23.0983C68.2138 26.4258 68.7757 30.8127 68.7137 34.3078C68.7084 34.6053 68.6867 35.4142 68.6422 35.6901Z" fill="#FCC774"/>
<path d="M53.4244 67.915C54.0678 67.9579 55.3786 67.5189 55.8733 67.8155L55.9109 67.8891C55.8818 67.9251 52.4838 69.3947 52.0585 69.6511C51.4494 70.0181 50.3803 70.6155 49.7294 71.0058C49.2812 70.6705 49.2003 70.6494 48.6533 70.572C50.0826 69.2872 51.6533 68.5728 53.4244 67.915Z" fill="#FCC774"/>
<path d="M13.6279 37.4853L13.6867 37.3613C13.7963 37.4106 14.208 38.4767 14.3317 38.7134C14.7822 39.575 15.4246 40.4245 16.0893 41.1321C16.4092 41.4726 17.0162 41.9047 17.2511 42.2686C16.6049 42.2633 16.3816 42.2622 15.8225 42.6361C15.6099 42.7786 15.5828 42.8713 15.4181 42.8172L15.2932 42.6758C15.3672 42.6674 15.3753 42.6557 15.4461 42.6261C15.5518 42.2972 15.1807 41.7316 14.9963 41.4223C14.2723 40.2069 13.9349 38.8548 13.6279 37.4853Z" fill="#DD7B2A"/>
<path d="M43.1045 3.81995C43.1073 2.66591 43.9783 -0.0812218 45.4406 1.45811C45.0272 1.69579 44.7222 1.73964 44.3115 2.05072C43.9507 2.324 43.2895 3.7349 43.1045 3.81995Z" fill="#FCC774"/>
<path d="M46.501 4.36239C47.077 3.79037 47.8054 3.22688 48.66 3.22656C49.5155 3.2263 49.5641 3.85228 49.3513 4.52021L48.9169 4.48759C48.8578 4.28094 48.9379 4.18021 48.825 3.92245C48.411 3.63181 47.1437 4.39936 46.501 4.36239Z" fill="#FCC774"/>
<path d="M15.1598 66.0918C15.2103 66.3439 15.2509 66.4456 15.341 66.6786C15.2422 66.8539 15.1292 66.9074 14.9397 66.9858C14.3561 67.2273 14.0197 67.5429 13.5618 67.9427L13.0918 67.2728C13.7618 66.6548 14.3091 66.3698 15.1598 66.0918Z" fill="#FCC774"/>
<path d="M39.643 3.86671C38.7042 1.67475 40.7836 1.53865 41.9312 3.3782C41.4337 3.60556 40.4367 1.99474 40.0066 2.92339C39.8678 3.22287 39.9091 3.60445 39.643 3.86671Z" fill="#FCC774"/>
<path d="M16.0516 66.7859C16.1737 66.2865 15.797 65.8846 15.9684 65.5043C16.2283 65.3756 16.606 65.49 16.913 65.5414C16.5321 65.9206 16.9191 66.6059 16.6378 66.9708C16.3431 66.9247 16.382 66.7965 16.0516 66.7859Z" fill="#FCC774"/>
<path d="M39.1367 57.0469C39.484 57.156 39.5813 57.5648 39.85 57.8026C40.3233 58.221 40.9771 58.2337 41.2973 58.811C40.2561 58.5869 39.2113 58.3184 39.1367 57.0469Z" fill="#DD7B2A"/>
<path d="M50.2475 82.3914C50.76 82.1907 50.7344 81.9322 51.1371 81.6367L51.2637 81.6696C51.2229 81.8713 50.7963 82.7558 50.6796 82.957C50.3591 83.1943 50.2142 83.1678 49.8291 83.1429C49.9489 82.8882 50.031 82.8241 50.1305 82.5148C50.1693 82.4279 50.1585 82.4576 50.2475 82.3914Z" fill="#C46319"/>
<path d="M39.1406 56.8082C39.3424 56.1685 39.5485 55.8237 40.196 55.5674L40.2857 55.6595C40.1583 55.9768 39.6154 56.8188 39.3109 56.9962L39.2179 56.9841L39.1406 56.8082Z" fill="#FCC774"/>
<path d="M40.3041 53.8105C40.5498 54.221 41.6489 53.882 42.0182 54.6171C41.4759 54.5112 40.6467 54.5663 40.3568 54.2607C40.2696 54.0595 40.2822 54.0372 40.3041 53.8105Z" fill="#DD7B2A"/>
<path d="M45.2082 5.07326C44.8883 4.73919 45.1416 3.85402 45.3567 3.48611C45.3964 3.41822 45.5637 3.43824 45.6474 3.4349C45.578 3.99881 45.4302 4.55028 45.2082 5.07326Z" fill="#DD7B2A"/>
<path d="M48.916 4.4873L49.3503 4.51993C49.0485 5.0714 48.6832 5.46092 48.1953 5.86119C48.3914 5.44985 48.8155 4.84044 48.916 4.4873Z" fill="#F69841"/>
<path d="M51.2637 81.6699L51.4226 81.626C51.2383 82.1836 51.0773 82.574 50.7754 83.0829L50.6797 82.9574C50.7964 82.7561 51.223 81.8717 51.2637 81.6699Z" fill="#96490B"/>
<path d="M20.5088 16.7027C20.7039 16.5537 20.6687 16.534 20.8784 16.5049L20.9094 16.5835C20.8096 16.755 20.7384 16.7685 20.552 16.8641L20.5088 16.7027Z" fill="#F69841"/>
<path d="M46.7372 37.7778C46.3214 37.8805 46.0158 37.934 45.5819 37.9091C44.8002 37.8694 44.0682 37.5135 43.5549 36.9225C42.1358 35.3215 42.4127 32.2423 44.0106 30.8473C45.1706 29.7674 47.2339 29.9679 48.1879 31.2377C49.671 33.2117 49.2651 35.8643 47.4306 37.4092C47.7131 38.1024 47.1986 38.3455 46.7372 37.7778Z" fill="#412101"/>
<path d="M47.4298 37.4092C47.7123 38.1024 47.1977 38.3455 46.7363 37.7778C47.005 37.6671 47.1808 37.5575 47.4298 37.4092Z" fill="#F69841"/>
<path d="M44.9217 31.3613C45.1135 31.336 45.2744 31.3163 45.4654 31.3642C45.7682 31.441 46.0238 31.6434 46.1679 31.9206C46.6042 32.7488 46.1738 33.6688 45.3629 34.0614C43.7961 34.3294 43.3786 32.2384 44.9217 31.3613Z" fill="#FDF6EE"/>
<path d="M52.67 36.7757C53.6016 36.648 55.066 36.9515 55.7339 37.6066C57.8364 39.6694 56.0617 41.693 53.6657 41.8471C48.5932 42.0208 48.1727 37.1877 52.67 36.7757Z" fill="#FFC271"/>
<path d="M63.6377 17.0239C63.2452 16.2212 62.5726 16.3566 61.9307 15.9881C61.6823 14.6573 65.4304 11.3469 67.3566 13.6592C67.7755 14.2029 67.8306 14.8469 67.7422 15.5144C67.7316 15.6 67.7189 15.6853 67.7046 15.7703C67.7157 16.0693 67.6897 16.183 67.542 16.4455C67.444 16.6189 67.3619 16.7456 67.2274 16.8941C66.3493 17.8599 64.9829 17.958 63.7812 18.1976C63.689 18.216 63.7176 18.1946 63.6874 18.2907L63.8649 18.434C63.849 18.5457 63.8437 18.5442 63.7918 18.6461C63.4481 18.1473 63.2245 18.1759 62.7881 17.8491C62.9534 17.6996 63.3999 17.2776 63.5752 17.205L63.6377 17.0239Z" fill="#96490B"/>
<path d="M63.6377 17.0239C63.2452 16.2212 62.5726 16.3566 61.9307 15.9881C61.6823 14.6573 65.4304 11.3469 67.3566 13.6592C67.2602 13.7752 67.2009 13.8991 67.0457 13.8945C65.853 13.8599 65.7651 13.7816 64.6757 14.3362C65.3901 15.1632 65.4908 16.0932 64.5587 16.8663C64.3701 17.0227 63.9475 17.2374 63.6975 17.161L63.6377 17.0239Z" fill="#4A2602"/>
<path d="M63.5751 17.2052C64.4235 17.478 64.9087 17.7554 65.8784 17.459C66.7411 17.1952 67.2999 16.5507 67.7045 15.7705C67.7156 16.0695 67.6897 16.1831 67.5419 16.4456C67.4439 16.6191 67.3618 16.7458 67.2273 16.8943C66.3492 17.8601 64.9828 17.9582 63.7811 18.1978C63.689 18.2161 63.7176 18.1947 63.6874 18.2909L63.8648 18.4342C63.8489 18.5459 63.8436 18.5443 63.7917 18.6463C63.448 18.1475 63.2245 18.1761 62.7881 17.8493C62.9533 17.6997 63.3998 17.2778 63.5751 17.2052Z" fill="#DD7B2A"/>
<path d="M16.4026 32.5842C19.9233 32.1857 21.3261 36.3854 17.774 37.1814C15.9741 37.255 14.6457 36.5024 14.2168 34.7099C14.6041 33.4389 15.1554 32.9615 16.4026 32.5842Z" fill="#FFC271"/>
<path d="M45.0546 24.6699C45.5591 24.696 45.6386 24.9198 45.9699 25.3054C46.533 25.9608 47.171 26.4413 47.9857 26.7474C48.4612 26.9262 49.1792 26.8852 49.5831 27.2199C49.8857 27.5113 49.6309 27.8564 49.3716 28.0519C47.7042 28.1439 46.08 27.3628 45.0432 26.0658C44.6654 25.5932 44.484 25.0693 45.0546 24.6699Z" fill="#4A2602"/>
<path d="M26.384 21.5439C27.6631 21.7743 26.5422 22.9669 25.9976 23.3358C24.8262 24.1291 23.7794 24.3281 22.4115 24.1209C21.3879 23.8528 21.6377 22.991 22.4126 22.9741C23.4376 22.9516 24.3565 23.0345 25.2629 22.3948C25.6469 22.1237 25.9928 21.7787 26.384 21.5439Z" fill="#4A2602"/>
<path d="M32.2552 8.06365C32.4729 8.04861 32.4285 8.02097 32.6008 8.10385L32.6037 8.21607C32.2763 8.82643 29.9193 10.1165 29.2003 10.4438C29.0449 10.4997 28.9652 10.4945 28.8265 10.4198C28.7619 10.1879 28.8348 10.0118 28.9746 9.8198C29.7312 8.7802 31.0555 8.31251 32.2552 8.06365Z" fill="#FCC774"/>
<path d="M17.2117 66.9834C17.8273 66.9993 18.9408 67.4076 19.5735 67.4595C21.7439 67.6375 23.9058 68.0055 26.0726 68.2761C27.9888 68.5081 29.9073 68.721 31.8278 68.9148C33.4798 69.0954 35.1731 69.3835 36.8336 69.3888C37.2365 69.3904 39.1409 69.1569 39.2446 69.1812L39.218 69.2411C38.1498 69.4195 37.2735 69.5128 36.1848 69.4651C35.2919 69.4476 33.5322 69.1759 32.5386 69.0742C30.1329 68.8275 27.618 68.5526 25.2272 68.2544C24.6383 68.1808 20.1119 67.5405 19.9821 67.5681L19.9188 67.8625C19.735 68.059 19.0634 68.4366 18.8119 68.5759C19.2765 67.9446 19.3136 68.1628 19.7385 67.7683L19.7357 67.6655C19.3529 67.3568 18.3302 67.4124 17.8787 67.1778C17.7211 67.0957 17.5231 67.0787 17.3671 67.1762C17.1368 67.5209 17.3723 68.1559 17.3327 68.6628L17.2778 68.6882C17.2761 68.6389 17.271 68.4636 17.2624 68.4266C17.167 68.0193 17.209 67.424 17.2117 66.9834Z" fill="#F69841"/>
<path d="M33.9212 8.42188L34.0569 8.42892L34.0855 8.48977C33.7228 9.06962 31.7761 10.2544 31.0627 10.5324C30.9974 10.5243 30.953 10.504 30.8892 10.4829L30.877 10.3809C31.5169 9.22194 32.7275 8.82273 33.9212 8.42188Z" fill="#FCC774"/>
<path d="M53.9663 69.6036C54.0838 69.5745 54.0759 69.5777 54.1929 69.6137L54.2311 69.7551C54.1368 70.3843 52.799 70.5945 52.2921 70.6851L52.1126 70.6591L52.0713 70.568C52.2545 69.8748 53.3614 69.7032 53.9663 69.6036Z" fill="#FCC774"/>
<path d="M35.1247 8.83594C35.2512 8.85723 35.2048 8.84166 35.3138 8.91638L35.3092 9.01261C35.0268 9.42485 33.8439 10.1536 33.3829 10.4106C33.2662 10.4523 33.3118 10.4418 33.1832 10.4353C32.9236 9.80087 34.6865 9.0186 35.1247 8.83594Z" fill="#FCC774"/>
<path d="M20.4828 18.21C20.5556 18.2859 20.524 18.2441 20.5439 18.3743C20.3711 18.9066 19.8825 19.4071 19.4776 19.7762C19.4232 19.7032 19.4405 19.7196 19.417 19.6232C19.5751 19.0514 20.0639 18.6118 20.4828 18.21Z" fill="#FCC774"/>
<path d="M58.8748 63.8414L59.049 63.8408L59.1237 63.9234C59.0416 64.2158 58.4214 64.5245 58.1344 64.7019L58.0454 64.6649C58.0062 64.596 57.9474 64.5319 57.9766 64.4705C58.0809 64.2528 58.6587 63.9494 58.8748 63.8414Z" fill="#C46319"/>
<path d="M15.4588 30.2871L15.5279 30.3194L15.5313 30.4088C15.3088 30.7879 15.0536 31.0766 14.7134 31.3528L14.6224 31.3037C14.5646 30.8723 15.1079 30.455 15.4588 30.2871Z" fill="#FCC774"/>
<path d="M54.8752 70.059L54.9673 70.0537L55.0102 70.1146C54.8566 70.4356 54.2576 70.6484 53.9303 70.7321L53.8488 70.7305L53.8096 70.6601C53.9467 70.4493 54.6167 70.1745 54.8752 70.059Z" fill="#FCC774"/>
<path d="M70.095 62.625L70.2274 62.7055C70.3645 63.0662 70.2512 63.4273 70.1797 63.8081C70.0648 63.7732 70.0229 63.7896 69.9912 63.7144C69.8757 63.4374 70.0039 62.9041 70.095 62.625Z" fill="#F69841"/>
<path d="M68.7414 55.5361C68.7833 55.5504 68.8553 55.5912 68.8971 55.6129C68.9925 55.8285 68.94 56.0043 68.8643 56.2235L68.796 56.2183C68.7425 56.0504 68.7224 55.713 68.7414 55.5361Z" fill="#FCC774"/>
<path d="M42.2265 71.237C42.6858 69.6953 43.9624 68.2643 45.6452 69.2854C45.8883 69.4978 46.0656 69.6757 46.221 69.967C46.3031 70.11 46.3708 70.227 46.4408 70.3764C46.5202 70.6057 46.6263 70.9563 46.7121 71.1686C46.636 71.371 46.5147 71.6681 46.454 71.8667C46.491 72.0488 46.5915 72.2072 46.7938 72.2416C47.237 71.3026 48.4862 71.301 49.2457 71.9053C49.901 72.5837 50.0722 73.6334 49.6546 74.4834C49.8268 74.7233 49.7363 74.7667 49.8253 75.0146L49.8971 75.0135C50.2423 74.6042 50.2947 74.3341 50.3947 73.8108C50.705 74.4405 50.8526 74.896 50.9811 75.5903C51.2215 77.0758 51.2173 78.4792 50.908 79.9536C50.7443 80.7337 50.4793 81.4508 50.2085 82.198C50.1821 82.2711 50.2156 82.3315 50.2477 82.3914C50.1587 82.4576 50.1695 82.4279 50.1307 82.5148C50.0313 82.824 49.9491 82.8881 49.8293 83.1429L49.7138 83.0819C48.7351 84.5198 47.5933 85.5848 45.8361 85.9524C43.5089 86.4396 40.5417 85.3221 39.2533 83.2731C38.2811 81.8808 37.6353 79.7375 37.5518 77.9877C37.4432 75.7078 37.6868 72.5451 39.1831 70.691C39.4877 70.3584 39.9161 70.0925 40.3746 70.0909C40.7968 70.0819 40.9836 70.2175 41.265 70.4886C41.5911 70.8027 41.4204 71.6697 41.9174 71.6368C42.0895 71.533 42.1004 71.4769 42.1959 71.2963L42.2265 71.237Z" fill="#DD7B2A"/>
<path d="M50.9807 75.5908C51.2211 77.0763 51.2169 78.4798 50.9076 79.9542C50.7439 80.7343 50.4788 81.4513 50.2081 82.1986C50.1817 82.2717 50.2152 82.3321 50.2473 82.3919C50.1583 82.4581 50.1691 82.4285 50.1303 82.5153C50.0308 82.8246 49.9487 82.8887 49.8289 83.1434L49.7133 83.0825C48.7347 84.5204 47.5929 85.5854 45.8357 85.9529C43.5085 86.4402 40.5413 85.3227 39.2529 83.2737C39.4848 83.1296 39.5196 83.1514 39.7079 83.3796C41.0903 85.0553 43.5105 86.0271 45.6204 85.2454C48.1563 84.3059 49.8808 81.3327 50.3711 78.7933C50.5509 77.8617 50.5341 76.506 50.9441 75.6655L50.9807 75.5908Z" fill="#C46319"/>
<path d="M49.7139 83.0828C49.8099 82.8228 49.8485 82.5988 50.1308 82.5156C50.0314 82.8249 49.9492 82.889 49.8294 83.1437L49.7139 83.0828Z" fill="#96490B"/>
<path d="M42.2266 71.237C42.6859 69.6953 43.9625 68.2643 45.6452 69.2854C45.586 69.564 45.5968 69.6085 45.6432 69.8876C45.0745 69.6492 44.6769 69.4649 44.0322 69.6837C43.5049 69.8627 42.693 70.7895 42.3919 71.2481L42.2939 71.2809L42.2266 71.237Z" fill="#FCC774"/>
<path d="M46.7936 72.2421C47.2368 71.3032 48.486 71.3016 49.2455 71.9058L49.095 72.159C48.8211 72.0531 48.6708 71.9657 48.4121 72.052C47.513 72.0022 47.0353 72.5737 46.8159 72.5398C46.7761 72.4095 46.7871 72.3772 46.7936 72.2421Z" fill="#F69841"/>
<path d="M49.2462 71.9053C49.9016 72.5837 50.0727 73.6334 49.6551 74.4834C49.3628 73.9929 49.5682 72.894 49.2802 72.6054L49.0957 72.1584L49.2462 71.9053Z" fill="#C46319"/>
<path d="M46.4404 70.377C46.5198 70.6063 46.6259 70.9569 46.7117 71.1692C46.6356 71.3715 46.5143 71.6686 46.4536 71.8672C46.4407 71.8397 46.4284 71.8122 46.4168 71.7841C46.323 71.5595 46.2688 71.3281 46.2108 71.0999C46.0665 70.5311 46.2969 70.7265 46.4404 70.377Z" fill="#C46319"/>
<path d="M45.6452 69.2861C45.8884 69.4985 46.0657 69.6764 46.221 69.9677C46.1851 70.0127 46.1548 70.0223 46.1012 70.0551C45.8821 70.0212 45.8408 69.9931 45.6431 69.8883C45.5967 69.6092 45.586 69.5647 45.6452 69.2861Z" fill="#F69841"/>
<path d="M48.4121 72.0517C48.6709 71.9653 48.8211 72.0527 49.095 72.1587L49.2796 72.6056C49.0717 72.5945 48.6315 72.2095 48.4121 72.0517Z" fill="#F69841"/>
<path d="M42.9473 76.2224C47.4781 75.9237 48.0094 82.7412 44.2873 83.6739C43.5842 83.7792 42.8661 83.6394 42.2538 83.2782C39.779 81.797 39.7768 76.9395 42.9473 76.2224Z" fill="#96490B"/>
<path d="M44.1277 71.5605C45.8156 71.5929 45.7707 74.3965 44.1993 74.8208C42.5175 74.7715 42.5146 71.9789 44.1277 71.5605Z" fill="#96490B"/>
<path d="M47.6303 73.3558C49.0902 73.3235 49.2064 75.8576 47.7785 76.5111C46.0507 76.4126 46.2454 74.075 47.6303 73.3558Z" fill="#96490B"/>
<path d="M40.1976 71.8632C41.807 71.725 41.9089 74.0976 40.7356 74.981C39.1021 75.2055 38.9581 72.655 40.1976 71.8632Z" fill="#96490B"/>
<path d="M24.4396 50.417C28.471 49.8996 32.1563 52.7547 32.6626 56.7875C33.1689 60.8204 30.3038 64.4974 26.2695 64.9931C22.2508 65.4862 18.5907 62.6348 18.0863 58.6173C17.582 54.6003 20.4236 50.9323 24.4396 50.417Z" fill="#E4C4A2"/>
<path d="M24.4795 52.1373C27.5702 51.6745 30.45 53.8072 30.909 56.8979C31.3679 59.9892 29.2318 62.8665 26.1401 63.3214C23.0536 63.7758 20.1823 61.6441 19.7242 58.5587C19.266 55.4727 21.3941 52.5991 24.4795 52.1373Z" fill="#4A2602"/>
<path d="M25.1271 52.8244C29.293 52.7291 31.419 58.4233 28.5672 61.3308C27.7969 62.1194 26.7475 62.5743 25.6451 62.5971C24.3813 62.6299 23.5644 62.4165 22.5481 61.5956C21.5468 60.7477 20.8749 59.6255 20.7535 58.3148C20.4755 55.3135 22.0856 53.094 25.1271 52.8244Z" fill="#583F29"/>
<path d="M24.954 53.9022C27.0685 53.4488 29.1497 54.7972 29.5998 56.9124C30.0498 59.0276 28.698 61.1068 26.582 61.5538C24.4706 61.9997 22.3969 60.6514 21.9478 58.5404C21.4987 56.43 22.8439 54.3545 24.954 53.9022Z" fill="#4A2602"/>
<path d="M27.5573 60.5834C26.7582 61.1194 25.6406 61.2332 24.7828 60.799C21.1716 58.9703 22.9928 53.0276 27.132 54.8071C28.8154 55.5305 29.3753 57.6812 28.5638 59.3293C28.2621 59.9214 28.0715 60.1539 27.5573 60.5834Z" fill="#54625B"/>
<path d="M27.5569 60.583C27.1193 60.3669 26.7486 60.7165 26.3049 60.5232C26.1375 60.4501 25.9517 60.1498 26.1098 60.0391C26.4015 59.8352 27.7333 58.6124 27.9711 58.6113C28.2998 58.7527 28.3954 59.0144 28.5635 59.3289C28.2618 59.921 28.0712 60.1535 27.5569 60.583Z" fill="#6C8E87"/>
<path d="M24.7904 55.1433C26.363 55.0194 25.8497 56.9889 24.4978 57.4052C22.9582 57.3242 23.5762 55.6597 24.7904 55.1433Z" fill="#FDF6EE"/>
<path d="M4.65794 67.8972C4.52315 66.4154 5.20408 64.9405 6.93232 65.7507C7.13394 65.9006 7.32386 66.0214 7.46098 66.2332C7.51553 66.6945 7.5106 67.3295 7.87619 67.6536C8.04037 67.6758 8.14497 67.6335 8.24666 67.4878C8.2841 66.0923 8.92901 65.505 10.2761 66.0436C12.0381 66.9588 13.2541 69.415 14.1627 71.0954C14.4144 71.561 14.7434 72.0572 15.0248 72.5116C15.1316 72.4803 15.181 72.4475 15.2792 72.3967C15.3494 72.6429 15.4156 72.8987 15.5061 73.1376C15.9037 73.8599 16.2777 75.507 16.2625 76.3612C16.2473 76.9316 16.2393 77.6148 16.1254 78.1687C16.0812 78.4595 16.015 78.6004 16.1142 78.8773C15.2111 79.0442 14.8541 82.3044 11.0501 81.9188C10.296 81.8426 9.44173 81.6275 8.79719 81.2139C8.77702 81.2012 8.75779 81.1869 8.73804 81.1732C5.18432 79.3858 2.8856 74.389 2.59491 70.5648C2.59351 70.4848 2.59258 70.4048 2.59213 70.3254C2.58808 69.557 2.60339 68.153 3.68562 68.1503C3.88274 68.2197 3.89868 68.2759 4.02849 68.4559C4.0375 68.4692 4.04655 68.4819 4.05556 68.4951L4.10222 68.5597C4.24044 68.753 4.28604 68.8579 4.53931 68.8086C4.76381 68.5465 4.68055 68.2303 4.65794 67.8972Z" fill="#DD7B2A"/>
<path d="M14.8713 77.5645C15.4401 78.1057 15.4304 78.0882 16.1256 78.1693C16.0814 78.46 16.0152 78.6009 16.1144 78.8779C15.2114 79.0447 14.8544 82.3049 11.0504 81.9193C10.2962 81.8431 9.44198 81.6281 8.79744 81.2144C8.77726 81.2017 8.75804 81.1874 8.73828 81.1737C9.12469 81.027 9.70679 81.3018 10.1233 81.359C11.6872 81.5735 13.3263 80.9756 14.1904 79.6119C14.6057 78.9562 14.738 78.3197 14.8713 77.5645Z" fill="#C46319"/>
<path d="M4.65818 67.8972C4.52339 66.4154 5.20432 64.9405 6.93255 65.7507C6.24999 66.3773 6.17992 65.8715 5.54475 66.3232C5.09945 66.6405 5.19171 67.7378 4.65818 67.8972Z" fill="#FCC774"/>
<path d="M2.59491 70.5648C2.59351 70.4849 2.59258 70.4049 2.59213 70.3255C2.58808 69.557 2.60339 68.153 3.68562 68.1504C3.88274 68.2198 3.89868 68.2759 4.02849 68.456L3.97574 68.5063C3.02546 69.4071 3.12897 69.5014 2.71844 70.8407L2.68151 70.8286L2.59491 70.5648Z" fill="#FCC774"/>
<path d="M8.24707 67.4887C8.28451 66.0932 8.92943 65.5059 10.2765 66.0445C10.22 66.3262 10.273 66.3146 10.1017 66.4449C9.53869 66.554 9.13794 66.2802 8.69836 66.9014C8.54964 67.1116 8.45118 67.3473 8.24707 67.4887Z" fill="#F9A149"/>
<path d="M15.0244 72.5124C15.1312 72.4811 15.1805 72.4483 15.2788 72.3975C15.349 72.6437 15.4152 72.8995 15.5057 73.1384C15.4702 73.1982 15.4627 73.1934 15.4067 73.2406C15.2697 73.149 15.1054 72.6977 15.0244 72.5124Z" fill="#412101"/>
<path d="M8.18731 72.3582C11.5206 72.0044 14.3456 78.7335 10.5668 79.7048C6.82413 79.9224 4.46147 72.9211 8.18731 72.3582Z" fill="#96490B"/>
<path d="M6.29899 67.9482C7.78954 67.9991 8.48757 70.548 7.21061 71.0453C5.78627 70.9918 4.93709 68.5933 6.29899 67.9482Z" fill="#96490B"/>
<path d="M9.58 68.1643C10.9012 68.0801 11.7967 70.4114 10.6052 71.1788C9.15356 71.2641 8.41686 68.9021 9.58 68.1643Z" fill="#96490B"/>
<path d="M3.7536 69.64C5.06847 69.6072 5.85669 71.8648 4.91329 72.5374C3.624 72.6847 2.80881 70.4694 3.7536 69.64Z" fill="#96490B"/>
<path d="M12.1289 48.5023C12.1244 44.9815 13.4379 45.2559 16.2855 45.5058C17.487 45.6044 18.688 45.7092 19.8883 45.8204C20.247 45.8522 21.4915 45.9142 21.7288 45.9634C25.0333 46.0884 28.7403 46.6535 32.1023 46.8547C32.1354 46.8256 32.1685 46.797 32.2016 46.7679C32.5959 46.8388 33.9604 46.6916 34.2244 46.7859C34.0821 46.8018 33.8764 46.8124 33.7537 46.8685C34.1174 46.8955 34.387 46.9707 34.6894 46.805C34.7317 46.8823 34.7153 46.8367 34.7272 46.9448C34.9403 46.9739 35.0574 46.9522 35.2351 46.8426C35.2796 46.9119 35.2914 46.9326 35.3316 47.0088C35.5322 47.0173 35.6089 47.0041 35.7646 47.1481C36.1553 47.2604 37.6883 47.3038 38.2778 47.4008C38.8841 47.7106 39.1632 47.9669 39.6059 48.4843C39.6529 48.6172 39.7044 48.7544 39.7441 48.8889L39.796 48.944C39.8768 49.4222 39.8432 50.4957 39.8365 51.0195C39.1203 50.9835 38.4697 50.9443 37.7525 50.8834C37.6666 51.1937 37.4649 51.5835 37.0821 51.5517C35.8913 51.4522 34.1902 51.6216 33.1413 51.038C32.8808 50.8929 33.0057 49.5906 32.9877 49.24C32.923 49.6208 32.9377 50.0556 32.9371 50.4459C32.648 50.4353 32.2851 50.4126 32.0028 50.4232C31.8736 50.3723 31.4107 50.0959 31.276 50.0101C28.447 48.2031 25.5109 48.8058 22.4465 49.5742C21.8027 49.4392 19.9064 49.3295 19.1857 49.2623L13.0774 48.6421L12.7765 48.5908L12.1289 48.5023Z" fill="#E4C4A2"/>
<path d="M12.1289 48.5023C12.1244 44.9815 13.4379 45.2559 16.2855 45.5058C17.487 45.6044 18.688 45.7092 19.8883 45.8204C20.247 45.8522 21.4915 45.9142 21.7288 45.9634C25.0333 46.0884 28.7403 46.6535 32.1023 46.8547C32.1354 46.8256 32.1685 46.797 32.2016 46.7679C32.5959 46.8388 33.9604 46.6916 34.2244 46.7859C34.0821 46.8018 33.8764 46.8124 33.7537 46.8685C34.1174 46.8955 34.387 46.9707 34.6894 46.805C34.7318 46.8823 34.7153 46.8367 34.7272 46.9448C34.9403 46.9739 35.0574 46.9522 35.2351 46.8426C35.2796 46.9119 35.2914 46.9326 35.3316 47.0088C35.5322 47.0173 35.6089 47.0041 35.7646 47.1481C36.1553 47.2604 37.6883 47.3038 38.2778 47.4008C38.8841 47.7106 39.1632 47.9669 39.6059 48.4843C39.6529 48.6172 39.7044 48.7544 39.7441 48.8889C39.1768 49.0489 39.0526 48.1713 38.168 48.0151C36.3337 47.6915 34.5022 47.7042 32.6613 47.5257C28.0949 47.1158 23.5242 46.7546 18.95 46.4432C17.4888 46.3468 16.0372 46.1737 14.5721 46.1112C14.0821 46.0905 14.023 46.0328 13.5658 46.2489C12.6415 46.6847 13.0582 48.2063 12.7765 48.5908L12.1289 48.5023Z" fill="#F4E4D3"/>
<path d="M32.1016 46.8554C32.1347 46.8263 32.1678 46.7977 32.2008 46.7685C32.5952 46.8395 33.9597 46.6923 34.2236 46.7865C34.0813 46.8024 33.8756 46.813 33.753 46.8692C34.1167 46.8962 34.3863 46.9714 34.6887 46.8056C34.731 46.8829 34.7145 46.8374 34.7265 46.9454C34.9396 46.9745 35.0566 46.9528 35.2344 46.8432C35.2788 46.9126 35.2906 46.9332 35.3308 47.0095C35.5314 47.018 35.6081 47.0047 35.7638 47.1488C34.8867 47.144 33.0505 46.9301 32.1016 46.8554Z" fill="#412101"/>
<path d="M19.8877 45.8213C20.2464 45.8531 21.491 45.915 21.7282 45.9643C21.1189 45.9722 20.3671 46.2932 19.8607 46.1687L19.8154 46.093C19.9537 46.0119 19.9209 46.0575 19.9945 45.9346L19.8877 45.8213Z" fill="#E4C4A2"/>
<path d="M32.9872 49.241C32.9894 49.0397 32.9819 48.6341 33.1753 48.5075C33.9388 48.006 35.3582 48.5663 36.1983 48.5319C38.1755 48.4503 37.9014 49.2977 37.7519 50.8843C37.666 51.1947 37.4644 51.5845 37.0815 51.5527C35.8907 51.4531 34.1896 51.6226 33.1407 51.039C32.8802 50.8939 33.0051 49.5916 32.9872 49.241Z" fill="#4A2602"/>
<path d="M33.7968 49.0391C34.2558 49.0491 36.5546 49.163 37.0176 49.3769C37.2064 49.4643 37.1246 50.4759 37.1042 50.7979C36.0337 50.7412 34.8367 50.6162 33.7637 50.5108C33.7142 50.0082 33.7395 49.5385 33.7968 49.0391Z" fill="#583F29"/>
<path d="M16.2496 47.2439C16.6458 47.2169 17.9009 47.3276 17.7396 47.943C17.5856 48.1156 17.5173 48.1289 17.2981 48.2125C16.7925 48.2623 16.1779 48.2872 15.8024 47.8821C15.6917 47.5257 15.9665 47.4001 16.2496 47.2439Z" fill="#4A2602"/>
<path d="M12.1285 48.5029L12.7761 48.5914L13.0769 48.6427L19.1853 49.2629C19.9059 49.3302 21.8023 49.4398 22.4461 49.5748C22.0033 49.8227 21.6191 49.9879 21.1867 50.2728C19.4264 51.4057 18.1369 53.139 17.5576 55.151C16.9183 57.5204 17.2453 60.0471 18.467 62.1756C18.5858 62.3863 19.0664 63.1505 19.2554 63.2665C20.0144 63.9539 20.424 64.4692 21.3565 64.9803C19.7408 64.644 13.9139 64.4025 12.9678 63.7453C12.4942 63.5223 12.1425 62.9186 12.1195 62.4038L12.2459 62.247C12.0233 62.0548 12.0716 61.8313 12.0642 61.5522C12.0319 61.3748 12.0203 60.9199 12.0107 60.7218C12.2263 60.6418 12.5401 60.4867 12.7582 60.3855C13.2431 60.1181 13.8274 59.4042 14.0213 58.8815C14.3043 58.1183 14.2083 57.7645 13.9099 57.0575C15.2173 56.0561 15.3035 54.7575 14.4812 53.3901L14.099 52.9796C14.4428 52.4897 14.4507 52.1455 14.5107 51.5651C14.1924 50.4985 13.7356 50.0949 12.8189 49.5044C12.5423 49.3736 12.4008 49.337 12.1079 49.2534L12.1285 48.5029Z" fill="#644A36"/>
<path d="M12.1191 62.4033C12.7636 62.4775 13.402 62.5961 14.0524 62.6798C15.5859 62.8778 17.1453 63.0235 18.6754 63.2295L19.2551 63.266C20.0141 63.9534 20.4237 64.4687 21.3561 64.9798C19.7405 64.6435 13.9135 64.402 12.9675 63.7448C12.4938 63.5218 12.1421 62.9181 12.1191 62.4033Z" fill="#AF9884"/>
<path d="M18.6757 63.2295L19.2554 63.266C20.0144 63.9534 20.424 64.4687 21.3564 64.9798C19.7408 64.6435 13.9138 64.402 12.9678 63.7448C13.3908 63.5515 18.3618 64.2363 19.421 64.222C19.186 63.8083 19.0783 63.426 18.6757 63.2295Z" fill="#9C826D"/>
<path d="M12.0107 60.7211C12.2263 60.6411 12.5401 60.4859 12.7582 60.3848C12.64 61.0023 12.8953 60.962 12.7807 61.3719C12.7306 61.6389 12.7559 62.017 12.7639 62.2977C12.6022 62.267 12.3992 62.2092 12.2459 62.2463C12.0233 62.0541 12.0716 61.8306 12.0642 61.5515C12.0319 61.3741 12.0203 60.9191 12.0107 60.7211Z" fill="#7E614C"/>
<path d="M12.0107 60.7211C12.2263 60.6411 12.5401 60.4859 12.7582 60.3848C12.64 61.0023 12.8953 60.962 12.7807 61.3719C12.7308 61.1055 12.7817 61.1442 12.6201 61.0023C12.1768 60.9297 12.0635 61.1585 12.0642 61.5515C12.0319 61.3741 12.0203 60.9191 12.0107 60.7211Z" fill="#583F29"/>
<path d="M14.5113 51.5645C14.6695 52.0056 15.0793 51.9569 14.8499 52.5601C14.7443 52.8381 14.4834 53.1252 14.4818 53.3894L14.0996 52.979C14.4435 52.4891 14.4514 52.1449 14.5113 51.5645Z" fill="#583F29"/>
<path d="M12.129 48.5029L12.7766 48.5914L13.0774 48.6427C12.6099 48.7741 13.0046 49.148 12.8194 49.5044C12.5428 49.3736 12.4013 49.337 12.1084 49.2534L12.129 48.5029Z" fill="#7E614C"/>
<path d="M15.4205 51.1924C15.5869 51.2575 15.822 51.3873 15.987 51.472C15.7463 51.7771 15.6613 51.8703 15.3526 52.0938C15.2031 52.1049 15.1764 52.0948 15.0315 52.071C14.8839 51.9582 14.9244 52.0297 14.8936 51.8576C14.9812 51.5758 15.2007 51.3809 15.4205 51.1924Z" fill="#96490B"/>
<path d="M32.9872 49.2402C33.0051 49.5908 32.8802 50.8931 33.1407 51.0382C34.1897 51.6218 35.8907 51.4524 37.0815 51.5519C37.4644 51.5837 37.666 51.1939 37.7519 50.8836C38.4691 50.9445 39.1198 50.9837 39.8359 51.0197L39.8718 51.0112C39.8375 51.5922 39.809 52.0974 39.8139 52.6789C39.6951 52.8447 39.569 53.0295 39.446 53.19C39.1858 53.9007 39.2121 54.1035 39.4459 54.8153C38.1293 55.7262 37.7251 57.0031 38.4983 58.4526C38.6965 58.675 38.8881 58.8969 39.1034 59.1024C38.8809 59.4969 38.7797 59.6913 38.7275 60.1478C38.7666 60.9788 38.9478 61.3648 39.4564 62.0305C39.4383 62.6216 39.4029 64.874 39.2741 65.3501C39.1655 65.6996 39.1377 65.7759 38.9529 66.0904C38.45 66.5777 38.2098 66.7201 37.4737 66.6942C36.833 66.6719 36.1442 66.5793 35.5044 66.5088C34.4155 66.3912 33.3273 66.2663 32.2401 66.1339C32.3233 66.0258 32.4292 65.9512 32.5357 65.8654C32.8115 65.6572 33.6089 64.8814 33.7252 64.8459C33.3372 64.821 32.3186 64.7527 31.9805 64.6711C32.3973 64.3195 32.8761 64.0044 33.2562 63.6236C36.4292 60.4428 36.2836 54.8428 33.2369 51.625C32.8235 51.1886 32.4083 50.8407 32.0022 50.4234C32.2846 50.4128 32.6474 50.4355 32.9366 50.4461C32.9371 50.0558 32.9224 49.621 32.9872 49.2402Z" fill="#644A36"/>
<path d="M33.7253 64.8457C35.1939 65.0544 37.389 65.2561 38.8778 65.3483L39.0172 65.3245C39.0878 65.3292 39.2106 65.3335 39.2741 65.3499C39.1656 65.6994 39.1378 65.7757 38.953 66.0903C38.4501 66.5775 38.2099 66.7199 37.4738 66.694C36.8331 66.6718 36.1443 66.5791 35.5045 66.5086C34.4156 66.3911 33.3274 66.2661 32.2402 66.1337C32.3234 66.0256 32.4293 65.951 32.5358 65.8652C32.8116 65.657 33.609 64.8812 33.7253 64.8457Z" fill="#AF9884"/>
<path d="M39.0172 65.3252C39.0878 65.33 39.2106 65.3342 39.2741 65.3506C39.1656 65.7001 39.1378 65.7764 38.953 66.091C38.4501 66.5782 38.2099 66.7207 37.4738 66.6947C36.8331 66.6725 36.1443 66.5798 35.5045 66.5094C34.4156 66.3918 33.3274 66.2668 32.2402 66.1344C32.3234 66.0264 32.4293 65.9517 32.5358 65.8659C32.7968 66.0343 37.2934 66.3897 37.7229 66.3039C38.2805 66.1927 38.5806 65.7886 38.8778 65.349L39.0172 65.3252Z" fill="#957C68"/>
<path d="M39.0179 65.3252C39.0885 65.33 39.2113 65.3342 39.2749 65.3506C39.1663 65.7001 39.1385 65.7764 38.9537 66.091C38.8826 65.9221 38.8905 65.9104 38.9316 65.7277L39.0179 65.3252Z" fill="#A28975"/>
<path d="M39.8358 51.0202L39.8717 51.0117C39.8373 51.5927 39.8089 52.0979 39.8138 52.6794C39.6949 52.8452 39.5688 53.03 39.4459 53.1905C39.3294 52.5952 39.3587 51.7007 39.4785 51.0996C39.5978 51.0737 39.7168 51.0472 39.8358 51.0202Z" fill="#583F29"/>
<path d="M38.498 58.4531C38.6962 58.6756 38.8878 58.8975 39.1031 59.1029C38.8806 59.4975 38.7794 59.6919 38.7273 60.1484C38.72 60.0605 38.716 60.0091 38.6862 59.9233C38.5091 59.4138 38.5005 58.9833 38.498 58.4531Z" fill="#583F29"/>
<path d="M36.6386 52.3772C37.6105 52.3311 37.9957 53.5741 36.7197 53.9914C36.6785 53.9835 36.6376 53.975 36.5968 53.966C36.1436 53.8606 35.6403 53.5365 35.8383 53.0127C35.9764 52.6473 36.313 52.525 36.6386 52.3772Z" fill="#C46319"/>
<path d="M8.49412 58.9429C7.79397 57.6025 7.52291 56.0788 7.71765 54.5795C7.98479 52.3764 9.21726 49.8508 11.8097 50.1924L12.2971 50.3555C13.0515 50.6812 13.2683 51.1022 13.465 51.8548C13.347 52.1455 13.3108 52.2175 13.1366 52.4808C12.5557 52.3489 12.2935 52.3171 11.7045 52.2774C11.2397 52.3674 10.9872 52.4188 10.6458 52.7704L10.6304 52.8875C11.0778 53.424 12.8305 52.8954 13.669 54.0314C14.1199 54.8015 14.2025 55.67 13.3264 56.1991C12.7996 56.5168 12.1288 56.4734 11.5325 56.4633C11.2369 56.4935 10.8968 56.5131 10.6543 56.6969L10.6295 56.7975C10.9157 57.218 12.053 57.3202 12.5431 57.3345C12.9632 57.3361 13.1469 57.6157 13.1456 58.0209C13.1424 59.0314 12.2595 59.6414 11.3615 59.8236C11.0452 59.8882 10.6615 59.8872 10.5411 60.1901C10.6521 60.6016 11.3 60.6683 10.9867 61.1762C10.2075 61.2016 8.78482 59.6256 8.49412 58.9429Z" fill="#F69841"/>
<path d="M8.49412 58.9429C7.79397 57.6025 7.52291 56.0788 7.71765 54.5795C7.98479 52.3764 9.21726 49.8508 11.8097 50.1924C11.7731 50.4487 11.8177 50.3978 11.6745 50.5694C11.3252 50.7098 10.8231 50.8448 10.5131 50.9915C9.76657 51.3442 9.13855 52.3028 8.8193 53.0458C7.99215 54.9699 8.26141 56.0619 8.58421 57.9737L8.63982 58.0373C8.4911 58.3985 8.55444 58.4663 8.58378 58.8386L8.58871 58.8984L8.49412 58.9429Z" fill="#FCC774"/>
<path d="M12.5431 57.335C12.9632 57.3365 13.1469 57.6162 13.1456 58.0213C13.1424 59.0318 12.2595 59.6419 11.3615 59.8241C11.0452 59.8887 10.6615 59.8876 10.5412 60.1906C10.6522 60.6021 11.3 60.6688 10.9867 61.1767C10.2075 61.2021 8.78485 59.626 8.49414 58.9433L8.58873 58.8989L8.5838 58.839C8.55446 58.4667 8.49112 58.3989 8.63984 58.0377C8.87319 58.1553 9.42949 58.8989 9.94073 59.0757C10.4412 59.2743 11.0287 59.26 11.5357 59.0493C12.2775 58.741 12.9025 58.1908 12.5431 57.335Z" fill="#DD7B2A"/>
<path d="M13.6687 54.0312C14.1197 54.8013 14.2022 55.6698 13.3261 56.1989C12.7993 56.5167 12.1285 56.4732 11.5322 56.4632C11.8524 56.3731 12.383 55.9463 12.7968 55.7959C13.479 55.548 13.4889 54.7086 13.6551 54.081L13.6687 54.0312Z" fill="#DD7B2A"/>
<path d="M12.2967 50.3555C13.0511 50.6812 13.2679 51.1022 13.4646 51.8548C13.3466 52.1455 13.3104 52.2175 13.1362 52.4807C12.5554 52.3489 12.2931 52.3171 11.7041 52.2774C12.0244 52.0364 12.6422 51.9872 12.8082 51.6731C13.0102 51.2907 12.4135 50.7558 12.2967 50.3555Z" fill="#DD7B2A"/>
<path d="M17.3763 8.84333C18.4086 6.01162 21.2215 4.5664 24.1214 5.39909C24.4244 5.50903 24.6298 5.58122 24.9147 5.72924C25.711 6.13761 26.3081 6.59619 26.8677 7.31099C25.8284 7.97007 24.5805 8.74752 23.6632 9.55267C23.4895 9.35899 23.3286 9.19604 23.1413 9.01576C22.2643 8.17174 20.4733 7.93628 19.7587 9.14271C20.0521 9.26621 20.4924 9.20599 20.8367 9.25302C21.3791 9.32706 21.6761 9.50659 22.1488 9.74751L22.12 9.8056C21.9067 10.2458 21.9821 10.971 21.9197 11.0327C21.3563 11.5898 20.7799 12.2755 20.2252 12.8301C19.6282 13.4553 19.2775 13.9426 18.7702 14.6474C18.2673 14.2397 18.0646 14.0565 17.7086 13.5153C16.9155 12.0938 16.7208 10.3566 17.3763 8.84333Z" fill="#F69841"/>
<path d="M19.4682 9.47718C19.5568 9.39784 19.6778 9.24039 19.7583 9.14258C20.0517 9.26608 20.4919 9.20586 20.8363 9.25289C21.3787 9.32693 21.6756 9.50647 22.1484 9.74738L22.1196 9.80548C21.9063 10.2456 21.9817 10.9709 21.9193 11.0326C21.3559 11.5896 20.7794 12.2754 20.2248 12.83C19.1391 11.7803 18.9153 10.9182 19.4682 9.47718Z" fill="#96490B"/>
<path d="M17.709 13.5146L17.903 13.6121C18.0012 13.5441 17.9271 13.2924 17.9018 13.1497C17.7204 12.131 18.468 9.87122 19.4691 9.47656C18.9162 10.9176 19.14 11.7797 20.2257 12.8294C19.6286 13.4545 19.2779 13.9418 18.7706 14.6467C18.2677 14.2389 18.065 14.0557 17.709 13.5146Z" fill="#DD7B2A"/>
<path d="M17.377 8.84333C18.4092 6.01162 21.2221 4.5664 24.122 5.39909C23.8792 5.64763 23.7394 5.87848 23.4248 5.90983C22.7345 5.80857 21.9122 5.83219 21.2586 6.10366C21.0387 6.19507 20.8548 6.34601 20.6448 6.42291L20.6025 6.32011C19.152 6.52851 17.6099 8.94443 17.4353 8.98875C17.4041 8.92441 17.3909 8.91201 17.377 8.84333Z" fill="#FCC774"/>
<path d="M24.121 5.39844C24.4241 5.50838 24.6294 5.58057 24.9143 5.72859L24.8154 5.91559C24.5195 5.89695 24.1076 5.82069 23.8841 6.00112C23.822 5.99694 23.5041 5.92555 23.4238 5.90918C23.7384 5.87783 23.8783 5.64698 24.121 5.39844Z" fill="#F9A149"/>
<path d="M23.8848 6.00125C24.1083 5.82081 24.5202 5.89708 24.8161 5.91572C24.7074 6.17575 24.7725 6.13317 24.5743 6.23342C24.345 6.23983 24.1042 6.10018 23.8848 6.00125Z" fill="#FCC774"/>
<path d="M71.4963 70.1377C72.6466 70.5651 73.0359 71.2297 73.3616 72.3752C73.4458 72.7735 73.4744 73.1813 73.4458 73.5875C73.3759 74.6896 72.833 75.9267 71.9782 76.6322C70.7977 77.6066 69.6092 77.7215 68.1719 77.6108C69.7083 75.4072 70.6081 73.4784 71.3162 70.8505C71.3803 70.6117 71.4454 70.3803 71.4963 70.1377Z" fill="#DD7B2A"/>
<path d="M71.4965 70.1377C72.6468 70.5651 73.0361 71.2297 73.3618 72.3752C73.3655 72.6893 73.3946 72.8953 73.1626 73.1299C73.1097 73.1824 73.0551 73.2337 72.9995 73.283C72.6823 72.7052 72.7877 72.1126 72.0632 71.3944C71.7751 71.1503 71.6448 71.0311 71.3164 70.8505C71.3805 70.6117 71.4456 70.3803 71.4965 70.1377Z" fill="#FCC774"/>
<path d="M72.0633 71.3936C72.7878 72.1117 72.6824 72.7043 72.9996 73.2821C72.9329 73.3949 72.3826 73.9637 72.2746 74.0776C72.2963 73.6894 72.3085 73.3817 72.264 72.9956C72.2057 72.4861 72.0119 71.8919 72.0633 71.3936Z" fill="#F9A149"/>
<path d="M27.2832 49.6947C27.6086 49.6688 27.9665 49.7662 28.2862 49.8351C30.3845 50.2868 32.206 51.5949 33.342 53.4236C34.4927 55.2968 34.841 57.5539 34.3086 59.6866C33.8368 61.6176 32.7229 63.0554 31.0376 64.0834C30.6499 64.2878 30.3984 64.4207 29.9829 64.5759C33.066 62.3378 34.1513 58.3039 32.7271 54.7873C31.9708 52.9051 30.5859 51.3428 28.8078 50.3663C28.291 50.0882 27.8167 49.9203 27.2832 49.6947Z" fill="#967D68"/>
<path d="M38.2773 47.4016C39.35 47.3333 41.2585 47.3095 42.0087 48.1224C42.5626 48.8379 42.4304 49.7483 42.4207 50.6391L42.4187 51.5277C41.6292 51.6617 41.1806 51.7136 40.4652 52.0981C40.4663 51.7586 40.4825 51.2873 40.4635 50.9584C40.2171 50.9627 40.1171 50.9616 39.872 51.0119L39.8361 51.0204C39.8427 50.4966 39.8764 49.4231 39.7956 48.9449L39.7436 48.8898C39.7039 48.7553 39.6524 48.6181 39.6055 48.4852C39.1628 47.9678 38.8836 47.7115 38.2773 47.4016Z" fill="#917761"/>
<path d="M38.2773 47.4016C39.35 47.3333 41.2585 47.3095 42.0087 48.1224C41.8118 48.2193 40.4566 48.4174 40.1676 48.4455L40.2227 48.6123C40.1413 48.8273 40.0136 48.8734 39.7956 48.9449L39.7436 48.8898C39.7039 48.7553 39.6524 48.6181 39.6055 48.4852C39.1628 47.9678 38.8836 47.7115 38.2773 47.4016Z" fill="#AF9884"/>
<path d="M39.6055 48.4851C39.7833 48.4242 39.8519 48.4004 40.0354 48.3691L40.1676 48.4454L40.2227 48.6122C40.1413 48.8272 40.0136 48.8733 39.7956 48.9448L39.7436 48.8897C39.7039 48.7552 39.6524 48.618 39.6055 48.4851Z" fill="#644A36"/>
<path d="M40.5012 50.9532C41.0811 50.8945 41.8336 50.7419 42.4211 50.6387L42.419 51.5273C41.6296 51.6613 41.181 51.7132 40.4656 52.0977C40.4667 51.7582 40.4829 51.2869 40.4639 50.958L40.5012 50.9532Z" fill="#583F29"/>
<path d="M40.223 48.6123C40.5763 49.3675 40.3784 50.2323 40.5011 50.9537L40.4638 50.9584C40.2174 50.9627 40.1174 50.9616 39.8723 51.0119L39.8364 51.0204C39.843 50.4966 39.8767 49.4231 39.7959 48.9449C40.0139 48.8734 40.1416 48.8273 40.223 48.6123Z" fill="#7E614C"/>
<path d="M40.0905 62.6133C40.6513 63.0306 41.2212 63.3325 41.8303 63.6682C41.8149 63.9796 41.8077 64.3747 41.7457 64.6724C41.4564 66.1356 40.6978 66.2998 39.3818 66.5662C39.739 66.0016 39.7872 65.8142 39.9583 65.1559C40.0278 64.3631 40.0833 63.405 40.0905 62.6133Z" fill="#583F29"/>
<path d="M39.9583 65.1564C40.5831 65.0377 41.1331 64.837 41.7457 64.6729C41.4564 66.1361 40.6978 66.3003 39.3818 66.5667C39.739 66.0021 39.7872 65.8147 39.9583 65.1564Z" fill="#7E614C"/>
<path d="M16.1564 43.6867C16.216 43.5871 16.2784 43.4695 16.3727 43.3991C16.6986 43.1544 20.1212 43.5172 20.7278 43.5887C20.5094 43.7433 20.4024 43.7433 20.1443 43.7815C20.1127 44.087 20.08 44.5346 20.0206 44.8253C19.5392 44.8131 18.9507 44.7739 18.4776 44.7009C18.0449 44.7141 16.4582 44.5642 16.0422 44.4869C16.0354 44.1887 16.0374 43.9615 16.1564 43.6867Z" fill="#AF9884"/>
<path d="M16.1564 43.6867C16.216 43.5871 16.2784 43.4695 16.3727 43.3991C16.6986 43.1544 20.1212 43.5172 20.7278 43.5887C20.5094 43.7433 20.4024 43.7433 20.1443 43.7815L19.6681 43.7905C19.2937 43.7523 17.3525 43.6771 16.9746 43.7089C16.8225 43.9202 16.7184 44.0531 16.6054 44.292L16.5766 44.4339C16.4078 44.525 16.2583 44.488 16.0422 44.4869C16.0354 44.1887 16.0374 43.9615 16.1564 43.6867Z" fill="#E5D2C7"/>
<path d="M16.0422 44.4867C16.0354 44.1886 16.0374 43.9614 16.1564 43.6865C16.6037 43.9953 16.494 43.3624 16.6054 44.2918L16.5766 44.4338C16.4078 44.5249 16.2583 44.4878 16.0422 44.4867Z" fill="#E4C4A2"/>
<path d="M19.6681 43.7912L20.1442 43.7822C20.1127 44.0878 20.0799 44.5353 20.0206 44.8261C19.5392 44.8139 18.9506 44.7747 18.4775 44.7016C18.6445 44.6995 18.8 44.7201 18.9332 44.6275C19.0514 44.3891 18.9828 44.1106 18.9593 43.8188C19.1987 43.8161 19.4295 43.8039 19.6681 43.7912Z" fill="#A28975"/>
<path d="M31.9805 64.6709C32.3186 64.7525 33.3372 64.8208 33.7252 64.8457C33.6089 64.8812 32.8115 65.657 32.5356 65.8651C32.4291 65.9509 32.3233 66.0256 32.2401 66.1336C31.1183 66.0749 29.7989 65.9054 28.6729 65.7846C30.3313 65.5617 30.5404 65.362 31.9805 64.6709Z" fill="#8B715D"/>
<path d="M20.7277 43.5886C20.9484 43.5843 21.0134 43.5621 21.1883 43.6749C21.4153 43.9942 21.3369 44.4989 21.3248 44.9136C20.8905 44.8787 20.4556 44.849 20.0205 44.8252C20.0799 44.5344 20.1126 44.0869 20.1441 43.7813C20.4023 43.7432 20.5093 43.7432 20.7277 43.5886Z" fill="#917761"/>
</svg>
