<svg width="127" height="132" viewBox="0 0 127 132" fill="none" xmlns="http://www.w3.org/2000/svg">
<path d="M48.6376 7.859C49.2976 6.51728 50.4548 4.48061 52.3027 5.44139C54.4944 6.57928 53.5981 9.23631 56.6186 8.42533C60.4495 7.39671 60.0781 11.0145 59.7588 13.0401C63.7063 15.606 65.4591 15.525 69.7811 19.0074C72.4455 17.5751 74.9012 16.8265 77.9616 17.744C80.3191 18.4632 82.2928 20.0934 83.4439 22.2734C84.6595 24.5373 84.8529 27.2127 83.9688 29.6266C83.0848 32.0384 81.6206 33.4019 79.5056 34.719C82.1731 44.4447 83.2444 53.7151 80.4235 63.6508C86.9986 79.8723 91.7595 90.8801 89.5064 108.774C93.6473 111.015 94.734 114.5 92.2629 118.564C92.0388 118.941 91.7963 119.309 91.5385 119.665C92.6251 120.35 93.1316 120.534 93.7394 121.666C93.7547 122.468 93.7517 122.894 93.2145 123.533C88.914 128.634 63.6204 131.762 56.8151 131.913C55.9832 131.928 55.2097 131.888 54.3932 131.735L50.2737 131.771C49.4142 131.903 48.5486 131.98 47.683 131.996C41.0895 132.106 5.32235 130.077 1.65724 126.16C1.1661 125.635 1.22135 125.454 1.23056 124.779C1.88439 123.766 2.63339 123.563 3.74152 123.039C1.50991 119.588 0.447826 117.005 0.0579857 113.009C-0.463848 107.621 2.67023 108.557 4.09453 104.544C4.82203 102.493 8.92916 103.481 10.111 104.054C12.889 102.032 12.2597 100.075 16.5295 99.0915C16.5848 98.4521 16.5756 97.8345 16.5756 97.1939C15.6792 96.3854 11.5261 96.5628 9.66281 95.0176C2.40932 88.9975 5.30394 79.6675 10.1816 73.1407C11.0042 72.0381 11.1823 71.794 10.9306 70.5828C10.4916 70.3906 9.98817 69.9753 9.6812 69.618C3.74151 62.8861 1.51296 52.4901 5.06757 44.0816C6.41206 40.9006 9.59834 36.8763 10.6911 33.1118C10.8845 32.4374 12.097 30.7237 12.4684 29.9489C13.9695 26.8186 15.8358 24.7036 17.9876 22.0896C17.3123 20.7859 16.8457 19.765 16.7291 18.2738C16.5203 15.9538 17.2969 13.6534 18.8686 11.9326C20.4801 10.1824 22.7516 9.18874 25.1336 9.19334C28.0528 9.18106 30.0757 10.4368 32.0648 12.3547C34.1614 11.4925 42.4861 10.09 42.7071 9.81645C43.3487 9.01714 43.5543 7.5904 44.2818 6.64128C46.1359 5.69616 47.1734 6.5314 48.6376 7.859Z" fill="#FF9B34"/>
<path d="M48.6376 7.859C49.2976 6.51728 50.4548 4.48061 52.3027 5.44139C54.4944 6.57928 53.5981 9.23631 56.6186 8.42533C60.4495 7.39671 60.0781 11.0145 59.7588 13.0401C63.7063 15.606 65.4591 15.525 69.7811 19.0074C72.4455 17.5751 74.9012 16.8265 77.9616 17.744C80.3191 18.4632 82.2928 20.0934 83.4439 22.2734C84.6595 24.5373 84.8529 27.2127 83.9688 29.6266C83.0848 32.0384 81.6206 33.4019 79.5056 34.719C82.1731 44.4447 83.2444 53.7151 80.4235 63.6508C86.9986 79.8723 91.7595 90.8801 89.5064 108.774C93.6473 111.015 94.734 114.5 92.2629 118.564C92.0388 118.941 91.7963 119.309 91.5385 119.665C92.6251 120.35 93.1316 120.534 93.7394 121.666C93.7547 122.468 93.7517 122.894 93.2145 123.533C88.914 128.634 63.6204 131.762 56.8151 131.913C55.9832 131.928 55.2097 131.888 54.3932 131.735L50.2737 131.771C49.4142 131.903 48.5486 131.98 47.683 131.996C41.0895 132.106 5.32235 130.077 1.65724 126.16C1.1661 125.635 1.22135 125.454 1.23056 124.779C1.88439 123.766 2.63339 123.563 3.74152 123.039C1.50991 119.588 0.447826 117.005 0.0579857 113.009C-0.463848 107.621 2.67023 108.557 4.09453 104.544C4.82203 102.493 8.92916 103.481 10.111 104.054C12.889 102.032 12.2597 100.075 16.5295 99.0915L16.6001 100.331L15.7621 100.832C15.4889 101.908 13.552 103.755 12.6894 104.688L12.9473 104.818C15.2096 105.631 15.888 106.76 16.8764 108.86C17.1005 109.335 17.3184 109.813 17.5302 110.292C17.8771 111.053 17.7758 110.764 18.2117 111.263C19.6083 112.859 20.563 116.08 20.6857 118.156C21.1339 119.533 20.83 119.361 21.7847 119.941L22.3771 119.533C23.1107 118.32 23.0187 118.006 22.8928 116.565L22.3403 115.288C21.3181 114.129 20.8116 112.072 20.3696 110.555C25.9072 116.767 32.163 121.307 40.9912 120.832C41.4056 119.926 41.1723 119.183 41.2644 118.141C41.7279 114.315 41.5867 110.695 45.393 109.133C46.5687 108.65 47.9101 107.798 48.8341 106.909C49.2823 105.764 46.6516 105.186 46.756 102.804C46.9616 98.0227 52.2536 94.3306 54.0524 89.5359C54.8352 87.4517 55.8973 83.6604 56.8857 82.5351L57.4597 82.6435C55.7591 88.9168 54.8843 91.0808 51.4924 96.7019L52.7448 96.4593C54.4208 97.6596 57.5978 97.914 58.8472 99.2692C59.3199 99.7822 59.8202 100.271 60.3267 100.77C64.1146 102.001 68.1757 96.5622 70.1157 93.9174L71.1778 94.3291C71.6628 93.0945 71.9237 92.1911 72.7494 91.1478L73.3603 91.2024C72.8569 92.7089 72.3504 94.3057 71.7733 95.7776L72.0618 95.9974L73.3818 95.6198C73.1454 95.9443 72.9673 96.2288 72.6849 96.5081C72.3841 97.5985 72.0956 98.6691 71.7518 99.7475C69.5263 101.865 67.1842 103.369 64.6702 105.12C63.2367 107.083 61.8769 109.321 60.4188 111.154C61.4594 113.208 61.18 114.027 61.6374 115.01L60.649 116.332C61.0941 117.772 60.9314 118.922 60.781 120.42C61.0388 121.442 60.8455 121.473 61.5914 121.891C62.5153 122.409 63.7739 122.989 64.8513 122.873C75.4169 121.924 84.0149 114.51 86.2895 104.206C86.4951 103.276 87.1459 100.569 87.769 99.9531L88.5917 100.233C88.5242 96.9971 88.0576 91.156 87.1275 88.1807L86.4829 88.0683C85.9856 87.3154 79.2908 67.8312 78.7659 66.0125L79.3061 65.1162C78.3852 63.4092 79.8187 60.021 80.1564 57.1945C79.874 56.7424 79.6376 56.1665 79.4105 55.6729C80.6045 52.6319 78.5387 41.1645 77.9585 37.8549C76.7123 36.5203 76.1106 35.5856 75.2297 34.0186C75.1683 33.4022 75.1376 33.6254 75.3985 33.0615C75.8528 33.1511 76.3102 33.2239 76.7706 33.2794C82.8883 34.0143 84.9112 25.7147 80.6844 21.0748C78.7474 20.7147 77.624 19.8046 75.3954 19.6879C73.2467 19.575 70.5301 21.4228 68.9523 21.4232C68.6668 21.4959 68.4949 21.4376 68.1757 21.4066L68.5348 20.827C67.6047 20.5419 58.6231 15.1121 57.9631 14.2453L57.1159 13.9398C56.8887 12.9069 57.8495 12.8897 58.7151 11.1174C58.5647 9.87694 58.8134 10.3788 58.0705 9.50429C56.106 8.97878 53.2973 11.9127 52.094 13.1568L52.5207 12.0023C53.0456 10.5848 53.9081 6.7478 51.609 6.52434C50.593 6.91816 50.4855 7.17417 49.7427 8.03273L48.6376 7.859Z" fill="#402307"/>
<path d="M12.9473 104.818C15.2096 105.631 15.888 106.76 16.8764 108.86C17.1005 109.335 17.3184 109.813 17.5302 110.292C17.8771 111.053 17.7758 110.764 18.2117 111.263C19.6083 112.859 20.563 116.08 20.6857 118.156C20.6428 119.337 20.6459 122.219 20.1824 123.146L19.1908 123.195C17.4197 127.259 12.7815 127.508 9.15938 125.927C7.89777 125.138 6.75279 124.171 5.7613 123.054C2.09619 118.891 1.53448 114.828 1.83837 109.562C2.45536 108.824 2.26502 108.831 3.04164 108.56L3.54198 109.337L4.02701 109.753C4.58567 109.29 4.43526 107.839 4.56111 106.73C6.72212 106.336 5.75519 105.356 9.31901 105.806L9.66895 106.705L10.1662 106.776L10.7187 106.29L12.1461 105.782L11.9834 105.234L12.9473 104.818Z" fill="#CE6E1F"/>
<path d="M15.4181 125.353C16.8578 124.018 18.2882 121.492 18.5736 121.292C18.7056 122.597 18.4724 122.52 19.1906 123.195C17.4195 127.259 12.7813 127.508 9.15918 125.927C10.9211 125.651 13.0054 125.746 15.4181 125.353Z" fill="#C26317"/>
<path d="M12.9473 104.818C15.2096 105.631 15.888 106.76 16.8764 108.86C17.1005 109.335 17.3184 109.813 17.5302 110.292L16.9746 111.088L16.5111 111.056L16.3791 110.82C16.2962 110.598 16.2102 110.377 16.1212 110.158C15.139 107.75 14.479 106.782 12.1461 105.782L11.9834 105.234L12.9473 104.818Z" fill="#371907"/>
<path d="M2.90631 110.139C4.48102 111.049 5.65054 112.055 4.85858 114.041C3.61846 114.588 3.27774 114.002 2.41211 113.062C2.51034 111.91 2.65767 111.277 2.90631 110.139Z" fill="#8C460B"/>
<path d="M12.1461 105.781C14.479 106.781 15.139 107.749 16.1213 110.157C16.2103 110.376 16.2962 110.597 16.3791 110.819L15.9003 111.471L15.4951 111.44C14.1997 107.539 14.4146 107.833 10.7188 106.289L12.1461 105.781Z" fill="#F59E3E"/>
<path d="M1.83789 109.562C2.45488 108.824 2.26454 108.831 3.04115 108.56L3.5415 109.337L2.90611 110.139C2.65747 111.277 2.51013 111.909 2.41191 113.062L2.19701 113.344C2.09878 112.081 1.97909 110.82 1.83789 109.562Z" fill="#EB882E"/>
<path d="M8.41263 113.873C8.82396 113.848 9.22915 113.83 9.64048 113.862C11.0924 113.977 12.2005 114.858 13.1092 115.943C14.2848 117.346 14.8895 119.224 14.6378 121.047C14.426 122.573 13.6433 123.303 12.4523 124.178C10.5736 124.037 9.21686 123.491 7.94605 122.048C6.82871 120.78 6.19944 119.193 6.3345 117.492C6.46649 115.855 7.20935 114.912 8.41263 113.873Z" fill="#8C460B"/>
<path d="M6.50698 107.887C6.88761 108.002 7.3112 108.154 7.64579 108.377C8.29348 108.809 8.78464 109.464 8.85831 110.248C8.95961 111.294 8.48381 111.879 7.85761 112.661C7.7379 112.611 7.62125 112.557 7.5046 112.5C6.75868 112.126 5.77332 111.482 5.60449 110.586C5.38655 109.448 5.84701 108.762 6.50698 107.887Z" fill="#8C460B"/>
<path d="M10.8076 108.501L12.0968 108.713C12.6985 109.218 13.1405 109.517 13.2817 110.357C13.4505 111.345 12.9962 112.101 12.459 112.88C11.9863 112.756 11.529 112.654 11.1238 112.369C10.5804 111.987 10.1906 111.491 10.0709 110.831C9.89591 109.892 10.3134 109.261 10.8076 108.501Z" fill="#71310E"/>
<path d="M53.6379 108.07C54.4514 109.304 54.7123 110.614 55.2126 111.343L55.5841 111.055C61.269 112.776 58.1472 114.731 59.857 116.44L60.2468 116.316L60.6489 116.332C61.094 117.773 60.9313 118.923 60.7809 120.42C60.6366 121.608 60.4156 122.382 60.8454 123.478L61.4501 123.935L60.4432 124.365C58.2086 128.969 55.5319 130.704 50.3534 130.019C49.8899 129.832 49.4387 129.626 48.9905 129.405C43.0846 126.431 41.3196 117.599 44.202 111.975L44.5396 112.101C45.6416 111.423 45.7889 111.304 46.6238 110.317C47.1672 111.139 47.0413 111.267 47.7842 111.533C48.0512 110.466 48.1372 110.119 48.7388 109.208L49.0028 109.344C51.0349 108.43 51.5015 108.384 53.6379 108.07Z" fill="#CE6E1F"/>
<path d="M50.3535 130.019C55.5473 126.931 55.8696 130.734 59.9123 122.992L60.2622 122.9L60.4433 124.365C58.2086 128.969 55.5319 130.703 50.3535 130.019Z" fill="#C26317"/>
<path d="M49.8627 116.664C50.3385 116.67 50.7897 116.678 51.2532 116.796C52.6039 117.143 53.7396 118.087 54.421 119.291C55.2099 120.7 55.3726 122.373 54.8753 123.907C54.3136 125.629 53.2638 126.372 51.686 127.121C51.3698 127.094 51.4159 127.103 51.0383 127.032C49.4483 126.722 48.1898 125.915 47.3456 124.515C46.5322 123.171 46.3265 121.541 46.7839 120.034C47.3057 118.277 48.3033 117.502 49.8627 116.664Z" fill="#8C460B"/>
<path d="M50.7553 110.424C51.0807 110.583 51.406 110.751 51.7069 110.947C52.2809 111.32 52.7014 111.882 52.7966 112.573C52.9654 113.802 52.1519 114.73 51.4214 115.606C50.8289 115.459 50.2488 115.115 49.8191 114.677C49.374 114.215 49.1438 113.588 49.1806 112.947C49.2573 111.771 49.9173 111.162 50.7553 110.424Z" fill="#8C460B"/>
<path d="M55.369 113.421L56.6214 113.533C57.3612 114.031 57.4471 114.066 57.7848 114.942C57.7173 115.982 57.4072 116.597 56.9038 117.501C56.5815 117.476 56.1609 117.472 55.8478 117.36C55.1234 117.102 54.9239 116.628 54.6108 115.986C54.5985 114.907 54.8502 114.357 55.369 113.421Z" fill="#8C460B"/>
<path d="M45.9303 111.826L46.9433 111.977C47.4774 112.425 47.7966 112.687 47.8611 113.423C47.947 114.376 47.327 115.203 46.8113 115.936C45.9856 115.532 45.4975 115.313 45.0493 114.492C44.9449 113.426 45.4361 112.719 45.9303 111.826Z" fill="#8C460B"/>
<path d="M3.74203 123.039C11.4897 132.171 13.8963 127.134 23.5655 125.995C25.8094 125.731 28.2068 125.126 30.4231 124.684C35.7028 126.796 38.5729 127.192 44.2946 127.518C46.5692 130.041 47.1432 130.446 50.2742 131.772C49.4147 131.904 48.5491 131.981 47.6835 131.996C41.09 132.107 5.32286 130.078 1.65775 126.161C1.16661 125.636 1.22186 125.455 1.23107 124.78C1.8849 123.767 2.6339 123.564 3.74203 123.039Z" fill="#FFDCA8"/>
<path d="M64.8516 122.874C75.4172 121.925 84.0152 114.511 86.2898 104.207C86.4955 103.277 87.1462 100.57 87.7693 99.9541L88.592 100.234C88.4969 107.873 87.5176 114.772 81.8511 120.532C77.1792 125.283 68.3418 127.721 61.8219 127.604C61.2172 127.592 60.6125 127.567 60.0078 127.53C60.7752 126.192 61.34 125.48 61.4505 123.936L60.8458 123.478C60.4161 122.383 60.6371 121.609 60.7813 120.421C61.0392 121.443 60.8458 121.474 61.5917 121.891C62.5157 122.41 63.7742 122.99 64.8516 122.874Z" fill="#DF7A24"/>
<path d="M59.1146 129.086C69.3303 129.515 75.5309 127.244 83.2755 121.762C84.5985 120.825 86.7933 123.373 91.5389 119.665C92.6255 120.35 93.132 120.534 93.7398 121.666C93.7551 122.468 93.7521 122.894 93.2149 123.533C88.9144 128.634 63.6208 131.762 56.8155 131.913C55.9836 131.928 55.2101 131.888 54.3936 131.735C56.5269 130.964 57.3956 130.479 59.1146 129.086Z" fill="#FFDCA8"/>
<path d="M20.3695 110.555C25.907 116.767 32.1629 121.307 40.9911 120.831C41.4055 119.926 41.1722 119.183 41.2643 118.141C41.7677 121.347 41.8936 122.937 43.2657 125.917C35.6316 125.515 33.1728 124.376 26.6192 120.868C27.2976 121.58 28.4395 122.7 28.9951 123.443C26.788 123.894 21.5512 125.438 19.8046 124.689C19.6235 123.977 19.8016 123.996 20.1822 123.145C20.6457 122.218 20.6426 119.336 20.6856 118.155C21.1338 119.533 20.8299 119.361 21.7846 119.941L22.377 119.533C23.1106 118.319 23.0185 118.005 22.8927 116.565L22.3401 115.287C21.318 114.129 20.8115 112.072 20.3695 110.555Z" fill="#DF7A24"/>
<path d="M22.3398 115.288C23.5677 115.902 23.494 115.64 24.1509 116.63L23.8225 116.92L22.8924 116.566L22.3398 115.288Z" fill="#C26317"/>
<path d="M70.1156 93.918L71.1777 94.3296C69.1886 97.7583 66.205 101.68 62.3495 103.145C60.299 104.006 57.5701 106.359 55.667 106.243C55.4675 105.887 55.3109 105.636 55.1543 105.259C55.449 104.695 55.6516 104.225 55.9095 103.648L55.5964 103.492C54.5558 104.102 54.74 105.265 53.6717 106.434C52.3058 106.371 52.097 106.43 50.9091 105.849C49.5124 103.87 51.5506 103.335 51.1945 101.717C50.2491 102.011 49.6382 103.358 49.009 104.339L48.5455 104.172C47.7873 102.989 47.8763 102.163 48.4718 100.924C49.052 98.8812 49.715 98.3873 51.259 97.0615L51.4923 96.7024L52.7447 96.4599C54.4207 97.6601 57.5978 97.9146 58.8471 99.2698C59.3198 99.7827 59.8201 100.271 60.3266 100.771C64.1145 102.001 68.1756 96.5627 70.1156 93.918Z" fill="#CE6E1F"/>
<path d="M51.2599 97.0605C51.2783 98.2601 49.7404 99.922 48.9086 100.857L48.4727 100.923C49.0528 98.8802 49.7159 98.3863 51.2599 97.0605Z" fill="#EB882E"/>
<path d="M79.3059 65.1162C82.2251 71.7134 85.792 81.0412 87.1272 88.1807L86.4826 88.0684C85.9854 87.3154 79.2905 67.8313 78.7656 66.0125L79.3059 65.1162Z" fill="#FED779"/>
<path d="M77.959 37.8553L78.7141 37.5078C80.3349 43.5395 81.2526 50.9937 80.1568 57.1949C79.8744 56.7427 79.6381 56.1669 79.4109 55.6733C80.605 52.6323 78.5391 41.1649 77.959 37.8553Z" fill="#F59E3E"/>
<path d="M62.9388 104.772L64.2465 104.53C64.6056 104.939 64.4736 104.735 64.6701 105.12C63.2366 107.082 61.8768 109.321 60.4187 111.153C58.5861 109.555 58.2853 109.97 56.1581 109.116L56.0537 108.794C58.0397 107.495 60.5169 108.958 62.9388 104.772Z" fill="#EB882E"/>
<path d="M62.9395 104.772C63.4275 104.303 65.1588 103.22 65.9109 102.66C68.2131 100.944 70.2574 97.7043 72.6855 96.5078C72.3846 97.5981 72.0961 98.6688 71.7523 99.7472C69.5269 101.865 67.1847 103.369 64.6707 105.12C64.4743 104.735 64.6063 104.939 64.2471 104.53L62.9395 104.772Z" fill="#DF7A24"/>
<path d="M57.9629 14.2451C60.6457 14.9978 66.9783 17.6907 68.4702 20.0988L68.5346 20.8269C67.6045 20.5417 58.6229 15.112 57.9629 14.2451Z" fill="#FED779"/>
<path d="M68.9521 21.4231C70.5146 19.7136 72.7186 18.732 75.0361 18.7142C77.2984 18.6958 79.1034 19.4929 80.6842 21.0747C78.7473 20.7146 77.6238 19.8045 75.3953 19.6878C73.2466 19.5749 70.5299 21.4228 68.9521 21.4231Z" fill="#FDCA73"/>
<path d="M55.1554 105.258C55.3119 105.635 55.4685 105.886 55.668 106.242C57.5712 106.358 60.3001 104.004 62.3506 103.144C61.2578 105.317 58.535 107.476 55.9934 107.177C55.2628 106.611 54.9866 106.306 55.1554 105.258Z" fill="#C26317"/>
<path d="M55.584 111.055C59.3719 109.96 60.4217 113.166 60.2467 116.316L59.8569 116.44C58.1471 114.732 61.2689 112.776 55.584 111.055Z" fill="#F59E3E"/>
<path d="M75.2305 34.0186C76.4368 34.3157 77.3638 34.3605 78.0944 35.2875C78.3246 36.0485 78.5211 36.737 78.7145 37.5074L77.9594 37.8549C76.7131 36.5203 76.1114 35.5856 75.2305 34.0186Z" fill="#DF7A24"/>
<path d="M15.7626 100.832C15.4894 101.908 13.5525 103.756 12.6899 104.689C12.2019 104.308 12.3676 104.548 12.2725 103.899C13.0276 102.269 14.1572 101.561 15.7626 100.832Z" fill="#FED779"/>
<path d="M48.7393 109.208C50.3017 107.111 51.284 106.995 53.6384 108.071C51.5019 108.384 51.0353 108.43 49.0032 109.344L48.7393 109.208Z" fill="#F59E3E"/>
<path d="M4.56152 106.731C5.79551 104.526 7.43775 103.788 9.31942 105.808C5.7556 105.357 6.72253 106.337 4.56152 106.731Z" fill="#FBB343"/>
<path d="M44.2021 111.975C44.9266 110.8 45.1783 110.091 46.624 110.317C45.7891 111.303 45.6418 111.422 44.5398 112.101L44.2021 111.975Z" fill="#F59E3E"/>
<path d="M89.1528 110.847C90.7951 110.654 91.1266 111.724 91.8909 113.007L91.897 115.742C91.7344 116.161 91.5502 116.572 91.3445 116.972C90.2241 119.18 86.955 121.503 84.5791 120.147C84.6282 119.797 87.3479 115.221 87.7592 114.303L87.9465 113.878C88.3302 112.793 88.7016 111.9 89.1528 110.847Z" fill="#DF7A24"/>
<path d="M89.1527 110.847C90.7949 110.654 91.1264 111.724 91.8908 113.007L91.8969 115.742C90.9514 116.361 90.4327 116.691 89.4228 117.19L89.0023 116.968C88.7352 115.651 88.6339 115.063 87.9463 113.878C88.33 112.793 88.7014 111.9 89.1527 110.847Z" fill="#F59E3E"/>
<path d="M89.1533 110.847C90.7956 110.654 91.1271 111.724 91.8914 113.007C91.7072 113.582 91.8147 113.418 91.4003 113.812C90.1172 113.299 89.3743 112.152 89.1533 110.847Z" fill="#FDCA73"/>
<path d="M20.9831 62.7998C23.8593 62.5368 25.1608 62.9367 27.9388 63.7778C28.8412 64.7205 29.0469 64.8199 29.3907 66.0232L29.3078 66.4041C28.4913 70.2405 30.4773 68.8865 30.5111 71.7394C28.2856 74.4473 32.049 76.2056 25.2682 79.9229C25.2805 82.52 25.2406 84.6387 24.1693 87.0517C24.1969 87.3144 24.3166 88.561 24.3657 88.7338C24.1263 92.801 21.2839 94.7324 17.9472 96.3546C17.9165 99.7655 17.9687 104.281 18.9939 107.544L18.0853 107.133C17.1429 104.314 17.0355 103.298 16.5996 100.331L16.529 99.0915C16.5843 98.4521 16.5751 97.8345 16.5751 97.1939C15.6788 96.3853 11.5256 96.5628 9.66233 95.0175C2.40884 88.9975 5.30346 79.6675 10.1811 73.1406C11.0037 72.038 11.1818 71.794 10.9301 70.5827C11.2954 70.6263 11.7343 70.7243 12.0566 70.6583L12.1364 70.4161C12.8823 69.9381 13.2875 68.9589 13.7326 68.1519C15.7432 65.4725 18.0761 64.505 20.9831 62.7998Z" fill="#F6A14A"/>
<path d="M20.9841 62.7998C23.8603 62.5368 25.1618 62.9367 27.9398 63.7778C28.8422 64.7205 29.0479 64.8199 29.3917 66.0232L29.3088 66.4041C28.4923 70.2405 30.4783 68.8865 30.5121 71.7394C28.2866 74.4473 32.05 76.2056 25.2692 79.9229C25.2815 82.52 25.2416 84.6387 24.1703 87.0517C24.1979 87.3144 24.3176 88.561 24.3667 88.7338L23.1543 90.2919L22.7675 89.4367L22.1505 89.7658C21.6501 89.1457 23.5932 84.8495 23.7958 83.6156C24.0506 82.0618 24.1028 81.322 24.0046 79.7798L21.819 80.298C19.0563 76.0567 16.926 77.1216 15.0996 70.2758C15.8701 68.9681 17.1962 67.5503 18.2183 66.3753C15.9039 66.5948 14.4366 69.4829 13.2456 71.321C13.046 71.1647 12.3216 70.7995 12.0576 70.6583L12.1374 70.4161C12.8833 69.9381 13.2886 68.9589 13.7336 68.1519C15.7442 65.4725 18.0771 64.505 20.9841 62.7998Z" fill="#CE6E1F"/>
<path d="M20.9841 62.7998C23.8603 62.5368 25.1618 62.9367 27.9398 63.7778C28.8422 64.7205 29.0479 64.8199 29.3917 66.0232L29.3088 66.4041C28.4923 70.2405 30.4783 68.8865 30.5121 71.7394C28.2866 74.4473 32.05 76.2056 25.2692 79.9229C25.2815 82.52 25.2416 84.6387 24.1703 87.0517C24.1979 87.3144 24.3176 88.561 24.3667 88.7338L23.1543 90.2919L22.7675 89.4367L22.1505 89.7658C21.6501 89.1457 23.5932 84.8495 23.7958 83.6156C24.0506 82.0618 24.1028 81.322 24.0046 79.7798L23.9524 79.6012C24.2255 78.6171 28.6243 77.1446 28.5629 75.0336C28.5015 72.8576 27.6543 74.0793 26.7058 73.1161C27.4548 72.438 27.9306 72.171 28.7931 71.6295C30.5766 68.2486 24.0475 68.9678 23.3262 66.8854C23.9063 66.0118 24.1304 65.7878 24.3852 64.7951L24.0229 64.1931C23.2064 64.602 19.3909 66.1561 18.6788 66.177L18.2183 66.3753C15.9039 66.5948 14.4366 69.4829 13.2456 71.321C13.046 71.1647 12.3216 70.7995 12.0576 70.6583L12.1374 70.4161C12.8833 69.9381 13.2886 68.9589 13.7336 68.1519C15.7442 65.4725 18.0771 64.505 20.9841 62.7998Z" fill="#402307"/>
<path d="M18.6787 66.1767C20.3271 64.4095 21.5703 63.6602 24.0229 64.1928C23.2064 64.6017 19.3909 66.1558 18.6787 66.1767Z" fill="#F59E3E"/>
<path d="M24.1694 87.0518C24.1971 87.3145 24.3167 88.5611 24.3659 88.7339L23.1534 90.292L22.7666 89.4368C23.0429 88.759 23.7581 87.7028 24.1694 87.0518Z" fill="#CE6E1F"/>
<path d="M25.923 64.6436C26.2454 64.712 26.6444 64.7706 26.9421 64.9269C27.6604 65.3035 27.8723 65.7388 28.1608 66.4562C27.8538 67.1164 27.7372 67.1302 27.0925 67.4943C26.1839 67.3135 25.1618 67.2232 24.3975 66.6692C24.5233 65.8094 25.3214 65.2593 25.923 64.6436Z" fill="#DF7A24"/>
<path d="M10.9301 70.583C11.2954 70.6266 11.7343 70.7245 12.0566 70.6585C12.3206 70.7997 13.045 71.165 13.2445 71.3213C9.05145 76.7114 6.43615 79.9781 6.99174 87.1302C7.26187 88.6674 7.32021 88.9833 7.93414 90.4331C11.8049 97.479 19.1321 96.4494 23.1532 90.2922L24.3657 88.7341C24.1263 92.8012 21.2839 94.7326 17.9472 96.3549C17.9165 99.7658 17.9687 104.281 18.9939 107.544L18.0853 107.133C17.1429 104.314 17.0355 103.298 16.5996 100.332L16.529 99.0917C16.5843 98.4523 16.5751 97.8347 16.5751 97.1941C15.6788 96.3856 11.5256 96.563 9.66233 95.0178C2.40884 88.9977 5.30346 79.6677 10.1811 73.1409C11.0037 72.0383 11.1818 71.7943 10.9301 70.583Z" fill="#4D270B"/>
<path d="M21.8194 80.2984L24.0049 79.7803C24.1032 81.3224 24.051 82.0622 23.7962 83.616C23.5936 84.85 21.6505 89.1462 22.1509 89.7662L22.7679 89.4372L23.1547 90.2923C19.1335 96.4496 11.8063 97.4792 7.93555 90.4332C8.5464 90.6355 8.33764 90.5732 9.02216 90.5382L9.4765 89.8485C10.1058 90.2405 10.4557 90.6116 11.0113 91.0702C16.4261 95.5604 23.0841 85.2018 22.3965 80.6373L21.8194 80.2984Z" fill="#DF7A24"/>
<path d="M13.2449 71.3207C14.4359 69.4826 15.9032 66.5945 18.2177 66.375C17.1955 67.55 15.8694 68.9679 15.0989 70.2755C11.3417 77.6514 8.96586 77.4068 7.58147 86.8169C7.29906 87.0099 7.2837 87.083 6.99209 87.1296C6.43649 79.9775 9.0518 76.7109 13.2449 71.3207Z" fill="#FED779"/>
<path d="M23.9952 36.0107L24.25 37.8875C25.9291 38.4464 27.6265 37.9906 29.1644 38.339C37.259 40.1755 39.7331 46.7672 37.5475 54.1535C35.9114 59.6959 32.2862 59.031 31.0983 61.0953L31.2978 61.8529L30.8773 62.1068C30.2173 61.9404 29.5481 61.782 28.9004 61.5819C28.3172 62.2836 28.3909 62.9098 27.9396 63.7782C25.1616 62.9371 23.8601 62.5371 20.9839 62.8002C19.7469 61.398 19.7377 60.0554 18.7615 59.5197L17.2451 58.5006C18.1844 57.8591 20.3423 57.7624 22.7643 55.9873C21.8311 52.2108 22.3959 50.1197 23.1848 46.4C20.8181 44.5307 20.3393 43.0772 21.2786 40.2811L21.6715 40.1046L22.1964 39.8686C23.6698 40.1691 24.296 40.5362 25.4625 39.5371L25.4195 39.1359L23.0927 38.5735C24.1057 38.1536 23.9092 37.0142 23.9952 36.0107Z" fill="#CE6E1F"/>
<path d="M21.6715 40.1045C24.2745 41.9066 28.5474 40.933 30.7637 43.59C30.7944 43.9878 30.954 44.3847 30.5856 44.6324C25.665 47.9427 23.0805 45.9597 23.323 53.3111C23.4519 57.2281 26.3404 58.6684 29.5972 60.2894C30.3124 60.6467 30.4843 60.5418 31.0983 61.0952L31.2978 61.8528L30.8773 62.1066C30.2173 61.9403 29.5481 61.7819 28.9004 61.5817C28.3172 62.2834 28.3909 62.9096 27.9396 63.778C25.1616 62.9369 23.8601 62.537 20.9839 62.8001C19.7469 61.3979 19.7377 60.0552 18.7615 59.5196L17.2451 58.5005C18.1844 57.8589 20.3423 57.7623 22.7643 55.9871C21.8311 52.2106 22.3959 50.1196 23.1848 46.3999C20.8181 44.5305 20.3393 43.0771 21.2786 40.281L21.6715 40.1045Z" fill="#402307"/>
<path d="M23.2648 57.3457C25.3215 59.5708 26.1502 60.318 28.9006 61.5814C28.3174 62.2831 28.3911 62.9093 27.9398 63.7777C25.1618 62.9366 23.8603 62.5367 20.9841 62.7997C19.7471 61.3976 19.7379 60.0549 18.7617 59.5193C20.7815 58.8912 21.4967 58.5769 23.2648 57.3457Z" fill="#DF7A24"/>
<path d="M32.0649 12.3545C34.1614 11.4922 42.4862 10.0897 42.7072 9.81622C43.3487 9.0169 43.5544 7.59016 44.2819 6.64104C46.136 5.69592 47.1735 6.53117 48.6377 7.85876L49.7428 8.03249C49.7059 8.99665 49.7949 10.6023 49.2762 11.3034C48.5456 10.8243 48.3399 9.9519 48.0084 9.10377C46.3478 9.24927 46.0224 9.1713 44.6349 10.0974L45.1353 10.9673L44.8375 11.3719C43.711 11.5306 42.7778 11.4907 41.7863 11.6227C31.6505 12.1436 23.4178 17.2621 17.6469 24.9496C17.1466 25.615 16.017 25.5469 15.4092 26.6612C15.4215 26.7545 15.5381 27.7109 15.5381 27.7109C13.8253 30.5294 12.1401 33.2902 10.8109 36.3153C10.2829 37.5229 9.68127 39.2587 8.90773 40.2852C8.8801 41.9808 7.55098 42.9094 7.69832 43.9463C8.2662 43.5684 8.47186 43.4524 8.99676 42.9929C7.83952 45.2647 7.23788 46.4486 6.73753 48.9684C6.09905 53.4159 6.08984 60.6003 9.11034 64.2936C9.43878 65.5009 9.57077 65.2519 9.22084 66.2182C9.86852 67.5845 11.1885 69.1782 12.137 70.4159L12.0572 70.6581C11.7348 70.7241 11.2959 70.6261 10.9306 70.5826C10.4917 70.3904 9.98824 69.9751 9.68128 69.6178C3.74158 62.8859 1.51304 52.4898 5.06765 44.0813C6.41213 40.9003 9.59841 36.8761 10.6912 33.1116C10.8846 32.4372 12.0971 30.7234 12.4685 29.9487C13.9695 26.8183 15.8359 24.7034 17.9877 22.0893C17.3123 20.7857 16.8458 19.7647 16.7291 18.2735C16.5204 15.9535 17.297 13.6532 18.8686 11.9324C20.4802 10.1821 22.7517 9.1885 25.1337 9.1931C28.0529 9.18082 30.0758 10.4366 32.0649 12.3545Z" fill="#402307"/>
<path d="M8.90719 40.2852C8.87956 41.9808 7.55044 42.9093 7.69778 43.9462C8.26566 43.5684 8.47131 43.4523 8.99622 42.9928C7.83897 45.2646 7.23734 46.4486 6.73699 48.9684C6.09851 53.4159 6.0893 60.6002 9.10979 64.2936C9.43824 65.5008 9.57023 65.2519 9.22029 66.2182C4.0081 58.9331 3.29901 47.5349 8.90719 40.2852Z" fill="#FED779"/>
<path d="M44.6355 10.0973C44.2457 9.39833 44.347 9.24425 44.4207 8.44217C45.7989 7.14097 46.8948 7.99891 48.009 9.10365C46.3484 9.24915 46.023 9.17118 44.6355 10.0973Z" fill="#FED779"/>
<path d="M19.9374 13.1345C22.875 9.84695 26.8072 9.77542 30.1193 12.5783L30.4385 12.8732C29.8154 13.7732 27.2952 14.7052 25.9293 15.7989C25.3859 15.9922 25.2662 16.1205 24.7505 16.0966C23.3569 17.1602 22.1506 18.1572 20.8184 19.2948C20.1584 19.913 19.9251 20.2473 19.0472 20.4766L18.4149 20.0613C17.3988 17.9113 18.2706 14.7574 19.9374 13.1345Z" fill="#DF7A24"/>
<path d="M20.8181 19.2952C19.888 17.0768 19.9709 16.8671 21.0084 14.7617C22.7551 15.0926 23.237 15.0963 24.7503 16.097C23.3567 17.1606 22.1503 18.1576 20.8181 19.2952Z" fill="#8C460B"/>
<path d="M19.9365 13.1345C22.8741 9.84695 26.8063 9.77542 30.1184 12.5783C29.5106 12.8155 24.9768 11.7154 23.4144 11.5911C22.5764 12.0297 20.7653 13.1099 19.9365 13.1345Z" fill="#FED779"/>
<path d="M21.0078 14.7605C23.178 13.4368 24.2954 14.0759 25.9284 15.798C25.3851 15.9914 25.2653 16.1197 24.7496 16.0957C23.2363 15.095 22.7544 15.0914 21.0078 14.7605Z" fill="#371907"/>
<path d="M16.4012 44.5348C16.6836 44.9013 16.4994 44.7717 16.9721 44.9031C18.3074 43.0875 19.3173 41.3964 21.2788 40.2812C20.3395 43.0773 20.8184 44.5308 23.185 46.4001C22.3961 50.1199 21.8313 52.2109 22.7645 55.9874C20.3426 57.7625 18.1846 57.8592 17.2453 58.5007C16.1464 57.489 14.6515 56.0506 14.1849 54.6002C13.4636 52.3637 13.66 45.2082 16.4012 44.5348Z" fill="#C26317"/>
<path d="M25.2684 79.9237C32.0491 76.2065 28.2858 74.4482 30.5112 71.7402C30.8857 72.7661 31.3769 74.2588 31.8005 75.2205C33.9615 75.9563 39.1062 76.74 40.1437 77.5322C38.5137 78.388 34.2777 77.7597 32.3408 77.5C31.1958 79.5023 29.1944 81.3931 27.5521 83.0713C26.7663 89.3203 24.1664 95.993 19.4269 100.284C19.3624 103.095 20.3171 108.104 20.1667 109.319L18.9941 107.544C17.9688 104.282 17.9167 99.7664 17.9474 96.3555C21.284 94.7332 24.1265 92.8019 24.3659 88.7347C24.3168 88.5618 24.1971 87.3153 24.1695 87.0525C25.2408 84.6395 25.2806 82.5209 25.2684 79.9237Z" fill="#DF7A24"/>
<path d="M8.90831 40.2856C9.68185 39.2591 10.2835 37.5232 10.8115 36.3157C12.1406 33.2906 13.8259 30.5298 15.5387 27.7113C15.5387 27.7113 15.422 26.7549 15.4098 26.6615C16.0175 25.5473 17.1472 25.6154 17.6475 24.9499C23.4184 17.2625 31.651 12.144 41.7869 11.623C43.0853 11.6648 45.2065 11.6277 46.3391 12.0242L46.2164 12.2962C44.2395 12.6173 41.0594 12.8779 39.3834 13.2837C32.7039 14.9017 24.7536 18.8685 20.3518 24.2464C19.8975 26.0851 21.7393 25.4942 19.17 27.1198C14.3078 30.1934 12.2051 37.453 9.62048 42.2756L8.99734 42.9932C8.47244 43.4528 8.26678 43.5688 7.6989 43.9467C7.55156 42.9098 8.88068 41.9812 8.90831 40.2856Z" fill="#FED779"/>
<path d="M16.4839 43.955C11.9777 41.1786 19.4645 28.2462 23.9952 36.0107C23.9092 37.0141 24.1057 38.1535 23.0927 38.5735L25.4195 39.1358L25.4625 39.537C24.296 40.5361 23.6698 40.169 22.1964 39.8685L21.6715 40.1045L21.2786 40.2811C19.3171 41.3962 18.3072 43.0873 16.9719 44.9029C16.4992 44.7715 16.6834 44.9011 16.401 44.5346L16.4839 43.955Z" fill="#402307"/>
<path d="M16.4843 43.9548C17.838 41.6536 20.3182 38.8581 23.0931 38.5732L25.4199 39.1356L25.4629 39.5368C24.2964 40.5359 23.6702 40.1688 22.1968 39.8683L21.6719 40.1043L21.279 40.2808C19.3175 41.396 18.3076 43.0871 16.9723 44.9027C16.4996 44.7713 16.6838 44.9009 16.4014 44.5344L16.4843 43.9548Z" fill="#FDCA73"/>
<path d="M20.4736 35.2148C20.7038 35.3269 20.8174 35.3711 21.0353 35.5396C21.6063 35.9816 21.6953 36.3853 21.8027 37.06C21.4497 38.0843 20.9924 38.4852 20.1636 39.1645C19.9211 39.022 19.7983 38.9597 19.5619 38.7746C18.9511 38.3028 18.8252 38.0195 18.6963 37.2794C19.0524 36.3122 19.6939 35.8588 20.4736 35.2148Z" fill="#FAF7F6"/>
<path d="M78.7651 66.0124C77.789 67.6783 76.9356 67.6617 75.1737 67.8523C74.5168 68.4101 74.2804 68.6814 73.4639 69.0013L73.335 68.4834C73.4946 67.7627 78.9339 56.1333 79.4097 55.6729C79.6369 56.1664 79.8732 56.7423 80.1556 57.1945C79.818 60.0209 78.3845 63.4091 79.3054 65.1161L78.7651 66.0124Z" fill="#DF7A24"/>
<path d="M9.62065 42.2764C13.958 42.3902 14.4092 46.0977 11.5422 48.2964C10.5047 49.0902 9.18784 49.4205 7.8986 49.2087C7.50876 49.1476 7.12198 49.0598 6.73828 48.9696C7.23863 46.4498 7.84027 45.2658 8.99751 42.994L9.62065 42.2764Z" fill="#FFC271"/>
<path d="M57.4595 82.6439C58.1102 81.5045 58.0918 80.3749 59.1938 79.3721L59.9121 79.4792L58.6444 84.2637C56.9745 89.6321 56.0628 91.7818 52.7446 96.4598L51.4922 96.7023C54.8841 91.0813 55.7589 88.9172 57.4595 82.6439Z" fill="#FED779"/>
<path d="M61.6378 115.01C63.1849 117.415 61.8588 121.393 64.8517 122.872C63.7743 122.989 62.5157 122.409 61.5918 121.89C60.8459 121.473 61.0392 121.442 60.7814 120.42C60.9318 118.922 61.0945 117.772 60.6494 116.332L61.6378 115.01Z" fill="#EB882E"/>
<path d="M9.11035 64.294L9.62914 64.2627C11.0319 65.8242 12.0296 66.8863 13.7332 68.1521C13.2881 68.9591 12.8829 69.9383 12.137 70.4163C11.1885 69.1786 9.86854 67.5849 9.22085 66.2186C9.57079 65.2523 9.4388 65.5013 9.11035 64.294Z" fill="#DF7A24"/>
<path d="M60.7196 79.2188L60.4955 81.0633C60.6214 81.2149 60.8086 81.4731 60.9529 81.5793C61.2015 82.9778 60.9007 84.8996 59.326 85.276C58.8993 84.818 58.9177 84.8312 58.6445 84.2636L59.9123 79.4791C60.0596 79.4646 60.5569 79.2752 60.7196 79.2188Z" fill="#F59E3E"/>
<path d="M70.1162 93.9173C70.9112 92.1179 72.4062 89.5806 73.5849 88.0439L73.5327 88.1824L74.0453 88.6177C73.9471 89.4796 73.6248 90.3652 73.3608 91.2022L72.75 91.1476C71.9242 92.191 71.6633 93.0943 71.1783 94.3289L70.1162 93.9173Z" fill="#DF7A24"/>
<path d="M60.7202 79.2191C61.021 78.2319 61.0916 77.7537 61.6932 76.9387L62.298 76.9086L61.905 76.7432L62.3256 76.8408C62.5404 78.3912 61.7884 80.3177 60.9535 81.5796C60.8092 81.4734 60.6219 81.2152 60.4961 81.0636L60.7202 79.2191Z" fill="#FED779"/>
<path d="M18.0859 107.133L18.9945 107.544L20.1671 109.318C20.3912 110.069 20.3943 110.1 20.4373 110.884L20.1579 111.123C19.2432 110.031 18.6753 108.467 18.0859 107.133Z" fill="#CE6E1F"/>
<path d="M48.7024 38.9994C49.5404 38.899 50.3508 38.8133 51.1765 39.0466C52.4781 39.4144 53.5954 40.4396 54.1847 41.642C55.0227 43.3514 54.9675 45.3706 54.3321 47.131C53.6138 49.1284 52.2693 50.0784 50.4521 50.9634C49.7277 50.9919 48.905 51.0054 48.1929 50.8485C47.0357 50.5941 45.9429 49.8328 45.2921 48.8469C44.4664 47.5923 44.3374 45.9777 44.6321 44.536C45.1632 41.9247 46.5291 40.3675 48.7024 38.9994Z" fill="#402307"/>
<path d="M48.7308 40.6992C49.4215 40.7121 49.8635 40.8214 50.4989 41.0476C50.9409 41.5212 51.2264 41.7109 51.3093 42.3798C51.4505 43.4971 50.726 44.3793 50.0753 45.1958C49.3263 45.2201 48.9119 45.1688 48.212 44.9027C47.7424 44.3861 47.4692 44.213 47.4109 43.4652C47.3219 42.3267 48.034 41.5062 48.7308 40.6992Z" fill="#FAF7F6"/>
<path d="M54.9857 51.6441C56.146 51.5314 57.3094 51.4298 58.4636 51.6597C60.1672 51.9992 62.2146 53.1159 63.1478 54.6191C63.5683 55.3021 63.7218 56.091 63.4578 56.863C62.9667 58.3023 61.5976 59.0052 60.3115 59.6004C59.2463 59.6732 57.9724 59.7303 56.9195 59.493C55.2957 59.1277 53.2575 57.8772 52.4256 56.4001C52.0266 55.6977 51.9161 54.9442 52.1985 54.178C52.6773 52.8734 53.8254 52.254 54.9857 51.6441Z" fill="#FFC271"/>
<path d="M73.7998 28.8374C73.5389 28.0356 72.4952 27.3312 71.8076 26.7581C72.44 23.2643 76.6515 22.0285 79.3466 24.5695L79.4571 25.4645C80.5652 29.6416 75.2425 30.9318 73.4099 29.6579C73.5143 29.0283 73.3578 29.2837 73.7998 28.8374Z" fill="#4D270B"/>
<path d="M79.4573 25.4648C80.5654 29.6419 75.2427 30.9321 73.4102 29.6582C73.5145 29.0286 73.358 29.284 73.8 28.8377C74.1898 29.0163 74.2911 28.9976 74.7178 29.079C75.74 28.5897 76.1022 27.7455 76.7346 26.7541C77.6923 26.6672 78.165 26.9631 79.1565 26.4999L79.4573 25.4648Z" fill="#9E470F"/>
<path d="M79.3463 24.5703L79.4568 25.4654L79.156 26.5005C78.1645 26.9637 77.6918 26.6677 76.7341 26.7546C76.2951 26.0557 76.1324 25.8982 76.0342 25.063C77.0103 24.4196 77.9987 24.6216 79.3463 24.5703Z" fill="#8C460B"/>
<path d="M42.9494 80.082C43.7874 80.1302 44.7574 80.2045 45.5095 80.6088C46.0067 80.8771 46.4365 81.3313 46.6053 81.8759C46.768 82.4008 46.5777 82.4975 46.3444 82.9622C45.6323 83.3745 45.0705 83.6323 44.2602 83.7996C43.2103 83.1378 40.9082 82.794 40.2451 81.9222C40.7915 81.0235 42.0377 80.5615 42.9494 80.082Z" fill="#FBB343"/>
<path d="M37.9338 15.7269C38.6459 15.2251 38.8577 15.238 39.6957 15.082L40.2759 15.4915C39.7725 16.4415 38.6766 17.3486 37.5777 16.8866C37.0098 17.173 36.9269 17.1804 36.3069 17.3372L36.1902 16.8308L35.7021 16.1512L36.9238 15.249L37.9338 15.7269Z" fill="#FED779"/>
<path d="M39.6962 15.082L40.2763 15.4915C39.7729 16.4415 38.677 17.3486 37.5781 16.8866C38.2626 16.2675 38.9871 15.6754 39.6962 15.082Z" fill="#F59E3E"/>
<path d="M35.7021 16.1521L36.9238 15.25L37.9338 15.7279C37.3628 16.0625 36.6783 16.413 36.1902 16.8317L35.7021 16.1521Z" fill="#F59E3E"/>
<path d="M51.1367 30.4847C51.4959 30.4571 51.855 30.431 52.2142 30.439C53.1442 30.4592 54.3138 30.9645 54.9001 31.7131C55.4741 32.4486 55.4833 32.8544 55.428 33.7563C54.2155 33.5902 52.7482 31.9664 51.6156 31.3297C51.192 31.0922 51.2687 30.9335 51.1367 30.4847Z" fill="#4D270B"/>
<path d="M23.4983 25.7444C24.06 25.719 24.6125 25.7527 25.1742 25.7764C25.7421 26.1788 25.9263 26.1754 26.0737 26.8452C25.3124 27.3916 25.0392 27.2215 24.1275 27.1432C23.7745 27.3007 23.4307 27.4542 23.0562 27.5589C22.427 27.7348 22.4116 27.7691 21.8652 27.4594C22.2459 26.5183 22.6909 26.3356 23.4983 25.7444Z" fill="#4D270B"/>
<path d="M34.7354 82.8174C34.7999 83.315 34.8552 83.1983 34.7201 83.5734C34.45 84.3209 34.3303 84.7871 34.2934 85.5901L34.4254 85.4803C34.4622 87.1188 34.1092 88.0335 33.3111 89.4667C33.1178 89.0643 33.0871 88.8927 33.1239 88.4378C33.1884 87.6099 33.2283 86.7744 33.216 85.9425C33.1976 84.6174 33.9588 83.8024 34.7354 82.8174Z" fill="#FDCA73"/>
<path d="M32.7122 91.2686L33.2893 91.6087C33.7344 93.0793 33.234 94.5251 32.7858 95.9337L32.1105 95.5933C31.6655 93.9766 32.0706 92.7708 32.7122 91.2686Z" fill="#FBB343"/>
<path d="M35.7024 16.1523L34.6772 16.7082L34.1615 16.2748L34.4377 16.765C34.1738 16.7598 33.8515 16.7653 33.5967 16.7377C34.1922 15.7232 35.552 15.1249 36.6663 14.8867L36.9241 15.2502L35.7024 16.1523Z" fill="#FDCA73"/>
<path d="M72.1447 67.3936C72.3535 67.5762 72.4302 67.7619 72.5622 68.0041C72.2215 69.0496 71.5708 69.6491 70.8218 70.4069L70.5332 70.1101C70.7051 69.1091 71.5523 68.2021 72.1447 67.3936Z" fill="#DF7A24"/>
<path d="M31.3317 90.0771L31.8166 90.3666C31.8565 91.3093 31.3316 91.9889 30.8988 92.8112L30.4231 92.566C30.2819 91.6485 30.8927 90.8479 31.3317 90.0771Z" fill="#FDCA73"/>
<path d="M63.1815 80.6475L63.513 81.0069C63.4792 82.046 62.7886 83.0006 62.2944 83.8905L62.0611 83.5215C62.0396 82.4404 62.675 81.5668 63.1815 80.6475Z" fill="#FDCA73"/>
<path d="M79.5859 77.2764C79.6473 77.3068 79.7087 77.3301 79.764 77.3675C80.7186 78.0257 80.9274 79.4192 81.1668 80.4718C80.0587 79.6197 79.9113 78.5542 79.5859 77.2764Z" fill="#FED779"/>
<path d="M107.498 0.0659187C107.851 0.0398272 108.201 0.0189477 108.557 0.00943196L108.974 0.000832489C111.193 -0.0550339 117.391 2.71466 119.352 4.15797C121.535 5.7649 121.725 7.98942 122.054 10.4785C122.68 11.0252 123.275 11.6054 123.837 12.2172C125.799 14.3907 126.621 17.5555 126.434 20.4347C126.238 23.469 124.982 25.5852 122.738 27.5847C122.041 30.2064 121.078 32.6937 118.938 34.4882C117.145 35.9932 114.705 37.0322 112.335 36.8014C110.96 36.6676 110.368 36.8956 109.149 37.5522C107.786 38.2862 106.764 38.4685 105.251 38.626C102.798 37.9138 101.8 36.2931 99.8297 35.6224C97.3433 34.7758 95.4309 35.9864 92.9937 34.095C90.4152 32.0964 90.0376 29.5851 89.657 26.5585C89.2733 23.5335 86.13 22.8729 86.3081 18.2645C86.4493 14.5909 88.5304 12.0581 91.1335 9.7182C91.287 8.85595 91.4804 8.00691 91.7781 7.1818C94.6144 -0.671411 101.153 2.82056 104.901 0.991701C105.794 0.556435 106.537 0.312713 107.498 0.0659187Z" fill="#F6A14A"/>
<path d="M106.623 1.61411C107.568 1.48181 108.612 1.34952 109.558 1.4984C112.808 2.01071 119.122 4.56245 120.363 7.90154C120.731 8.88411 120.421 10.5156 120.808 11.3097C121.308 12.3371 122.628 13.5124 123.322 14.5014C124.688 16.4454 125.464 19.0125 124.985 21.3819C124.55 23.5306 123.119 25.3454 121.326 26.5259C121.016 28.092 120.676 29.5691 119.853 30.9636C118.456 33.3358 115.614 35.3233 112.771 35.3322C112.047 35.3344 111.111 34.7865 110.414 34.9762C109.34 35.2696 108.001 36.7697 106.279 37.216C103.517 37.0365 101.954 35.4639 100.146 33.5853C99.2652 33.9647 98.3043 34.1118 97.3497 34.0123C89.5222 33.2483 92.5795 28.5374 90.9127 24.6129C90.5597 23.7872 89.5928 23.2132 89.0617 22.49C88.0211 21.0645 87.5822 18.5499 87.969 16.8607C88.5982 14.1076 90.9219 12.6833 92.337 10.4487C93.1934 9.09713 93.1014 7.28608 94.1082 5.93454C97.5093 1.38051 100.92 3.76651 103.989 3.01723C104.873 2.80082 105.846 2.09327 106.623 1.61411Z" fill="#F9F1E7"/>
<path d="M108.492 9.91525C109.825 9.86031 113.821 9.54536 114.917 10.197C115.568 10.5838 115.902 11.2505 116.077 11.9685C116.885 15.2864 115.156 20.3365 113.385 23.1494C111.267 26.5057 107.498 27.8364 103.802 28.6342C101.782 28.3361 98.998 29.0473 97.187 28.2293C96.6375 27.9813 96.2446 27.4573 96.085 26.8728C95.339 24.1648 97.5522 18.5365 99.0502 16.2125C101.346 12.6423 104.401 10.7701 108.492 9.91525Z" fill="#180905"/>
<path d="M113.182 11.0569L113.866 10.6572C114.821 10.9286 114.492 10.7889 115.241 11.5941C115.112 15.5821 114.851 20.6094 111.776 23.6155C110.176 25.1779 104.335 29.0191 102.195 27.4432C102.073 27.0258 101.747 25.8326 101.6 25.4913C101.557 26.1328 101.486 26.3879 101.351 27.007C99.6232 28.6456 96.6027 28.1762 96.5352 25.2878C97.1307 24.3129 97.4407 23.9562 97.6555 22.8622C99.8257 13.8247 103.85 10.6938 113.182 11.0569Z" fill="#A63156"/>
<path d="M115.243 11.5928C115.114 15.5808 114.853 20.6081 111.777 23.6142C110.178 25.1766 104.337 29.0179 102.197 27.4419C102.074 27.0245 101.749 25.8313 101.602 25.49L101.62 25.1836L102.126 25.4212C108.834 24.2042 113.463 17.7985 115.243 11.5928Z" fill="#842D37"/>
<path d="M97.6572 22.8616C99.8274 13.8241 103.852 10.6932 113.183 11.0563L113.226 11.5143C111.025 11.9852 103.594 12.0591 103.388 15.3988C104.097 15.6199 104.156 15.548 104.908 15.4627C104.751 16.0247 104.358 16.4901 103.827 16.7372C103.52 16.8845 103.37 16.8802 103.06 16.9155C102.652 16.6233 102.305 16.375 101.878 16.1113C99.8612 17.6341 99.7261 20.758 97.6572 22.8616Z" fill="#ED6193"/>
<path d="M96.5352 25.287C97.674 25.9104 97.895 26.0925 99.1689 25.9896C100.645 25.1608 100.087 25.4466 101.044 24.3809L101.618 25.1842L101.6 25.4905C101.557 26.1321 101.486 26.3871 101.351 27.0063C99.6232 28.6448 96.6027 28.1755 96.5352 25.287Z" fill="#8D2A43"/>
<path d="M101.128 20.3112C101.948 20.271 102.681 20.1789 103.458 20.5012L103.685 21.4721C102.782 21.7348 102.518 21.9623 101.631 21.5872L101.128 20.3112Z" fill="#D14B76"/>
<path d="M110.331 15.0842C110.574 14.9899 110.828 15.0292 111.083 15.0317L111.62 15.6646C110.874 15.6388 110.887 15.5946 110.331 15.0842Z" fill="#571025"/>
<path d="M95.5385 38.7181C96.1832 38.6552 96.8554 38.5748 97.5 38.6515C98.7493 38.8004 100.042 39.5604 100.766 40.5899C101.358 41.435 101.57 42.4516 101.352 43.4609C101.002 45.0706 99.9311 45.7416 98.6542 46.5839C97.9881 46.6493 97.3312 46.6748 96.662 46.5989C95.4434 46.4602 94.3353 45.8951 93.617 44.8791C93.0122 44.0273 92.8004 43.0527 93.0153 42.032C93.3499 40.4503 94.2616 39.6067 95.5385 38.7181Z" fill="#F6A14A"/>
<path d="M96.7722 39.9891C98.2272 39.7629 99.5932 40.7565 99.8234 42.2112C100.057 43.6662 99.0683 45.0346 97.6133 45.2722C96.1521 45.511 94.7739 44.5161 94.5406 43.0532C94.3073 41.5902 95.308 40.2163 96.7722 39.9891Z" fill="#F9F1E7"/>
<path d="M89.5186 46.2269C90.4303 45.7428 91.5354 45.7904 92.4041 46.3512C93.2728 46.9123 93.7731 47.8989 93.7087 48.9312C93.6442 49.9635 93.0272 50.8806 92.094 51.3288C90.6912 52.0038 89.006 51.4313 88.3031 50.0414C87.6001 48.6515 88.1404 46.9553 89.5186 46.2269Z" fill="#F6A14A"/>
<path d="M90.7615 47.1778C91.5381 47.149 92.2073 47.7153 92.3116 48.4861C92.4129 49.2565 91.9156 49.9794 91.1575 50.1556C90.5988 50.2855 90.0155 50.0872 89.6503 49.6442C89.285 49.201 89.2052 48.5898 89.4385 48.0665C89.6748 47.5434 90.1874 47.199 90.7615 47.1778Z" fill="#F9F1E7"/>
</svg>
