<svg width="153" height="88" viewBox="0 0 153 88" fill="none" xmlns="http://www.w3.org/2000/svg">
<path d="M85.3335 2.37919C85.9096 1.20288 87.0721 -0.542536 88.7478 0.162655C89.6428 0.539462 89.7346 1.72851 89.6723 2.59917C90.5098 2.2656 91.3737 2.04902 92.229 2.44152C93.4358 2.99537 93.3246 4.137 92.666 5.0573C95.4995 5.8793 97.8229 6.92859 100.245 8.65944C104.977 4.01998 111.955 8.35875 111.865 14.3035C111.828 16.7773 110.704 18.5912 108.704 19.977C109.88 22.3108 110.226 26.0249 110.371 28.6266C110.416 29.4447 110.227 31.309 110.365 31.9708C110.996 34.9777 111.489 36.9952 110.462 40.0874C109.953 41.5977 109.101 42.969 107.97 44.0929C109.914 47.0084 108.547 50.0298 106.222 52.161C108.27 55.202 109.232 58.058 107.833 61.6329C109.458 61.6914 110.67 62.2224 111.783 63.4216C111.813 63.4537 111.843 63.4861 111.871 63.5187L112.323 64.0596C113.443 65.9241 114.001 67.7149 113.664 69.9096C113.615 70.5364 113.559 70.8761 113.433 71.4928C114.356 71.5505 116.012 71.7412 116.797 71.3765L116.788 71.2965C116.804 70.5524 117.415 70.4823 117.859 69.7969C118.189 69.7919 118.775 69.8122 119.065 69.7091C119.451 69.9281 119.676 70.1053 120.023 70.3732C124.036 70.4624 128.022 70.3737 132.028 70.5137C133.403 70.5619 135.204 70.5472 136.549 70.6844C136.818 70.3251 136.927 70.1807 137.122 69.7816C137.912 69.8079 138.821 69.829 139.596 69.9333C140.765 69.6294 142.613 70.382 143.621 69.7695C144.494 69.8759 145.335 70.1394 146.38 70.2755C147.078 70.3353 147.776 70.369 148.21 71.0038C148.109 71.5111 147.436 71.7885 147.017 72.0037C148.173 72.1868 151.794 72.6526 152.137 73.8853C152.117 74.0307 152.086 74.1453 151.99 74.2606C150.738 75.7637 143.9 75.9295 141.794 76.1052C140.865 76.1827 139.954 76.379 139.02 76.4517C140.059 76.7048 141.078 77.0378 142.065 77.4475C142.521 77.6379 143.236 77.952 143.412 78.4612C143.478 78.6516 143.442 78.8398 143.337 79.0085C141.311 82.2541 124.972 81.9128 121.065 82.6614C121.522 83.0509 123.453 83.19 123.378 84.035C121.15 86.8702 85.2184 87.9461 79.7178 87.9966C70.5142 88.0378 61.3127 87.7035 52.1365 86.9938C50.8555 86.8927 45.2874 86.5794 44.5722 86.0376C44.3958 85.9046 44.3864 85.8199 44.3604 85.617C44.5355 85.1016 45.0184 84.8824 45.4801 84.5878C42.8096 84.5574 39.9521 84.58 37.3012 84.4999C32.4456 84.3577 27.6024 83.9324 22.7967 83.2242C21.7995 83.0734 18.7317 82.8394 18.5261 81.7526C18.5962 81.486 18.852 81.3157 19.0681 81.1323C16.048 81.0118 7.29191 80.0991 4.9958 78.8025C4.66121 78.6135 4.26037 78.3197 4.17165 77.9225C4.12305 77.7048 4.18052 77.5252 4.29311 77.3386C5.0049 76.1604 8.28161 75.603 9.61227 75.2643L9.87043 74.9411L9.85029 74.7746L9.58304 74.5711C9.54004 74.3049 10.0882 74.369 10.2198 73.9905C9.9198 73.6762 1.09065 73.1058 0.278018 71.8857C-0.0107351 71.4521 0.038182 71.225 0.462894 70.9016L0.503546 70.871C1.04552 70.4591 2.96711 70.0388 3.7074 69.9788C4.63579 69.8557 5.16073 69.6398 6.23199 69.5719C6.18705 69.852 6.14141 70.1583 6.41465 70.3489C7.57572 71.1589 12.6723 69.9066 13.5076 70.3038C13.5555 70.4972 13.5877 70.6419 13.6184 70.8388C13.6308 70.3245 13.4963 69.2286 13.4426 68.7008L13.3805 68.6342C13.3774 68.4344 13.3434 68.3318 13.2184 68.1806C12.7279 67.5872 11.5777 64.6658 11.2903 63.7956C8.32453 62.867 7.16765 63.5106 8.93477 60.1645C9.0577 59.9739 9.14549 59.7937 9.24837 59.5929C9.73839 58.8848 11.1687 56.3879 11.547 55.6358C11.6636 55.4729 11.8679 55.0329 11.9655 54.8345C12.148 54.5115 12.1746 54.0061 12.2901 53.8629C12.808 53.2209 14.9449 52.9886 15.768 52.8447L16.5657 52.6824C17.5448 52.5199 18.552 52.3691 19.5145 52.1351C20.6329 51.8967 21.9127 51.6924 23.0499 51.4867L24.1774 51.2765C25.2686 51.0846 26.749 50.8714 27.7903 50.6316C31.5409 49.7684 30.6108 50.8823 32.0946 53.4862C32.1885 53.2432 32.3716 52.732 32.4839 52.5238C32.7891 51.9727 33.2695 50.3378 33.693 50.1913C34.8107 49.8048 38.4257 50.5808 39.4894 50.752L49.0707 52.3343C49.7309 52.4355 53.1316 52.7017 52.9667 53.6446C52.5987 54.0616 52.1814 54.1207 51.6547 54.2424C52.025 54.7619 53.9101 57.875 54.1961 57.9842C55.7219 53.0664 58.5682 46.6841 62.2742 42.9932C59.0787 39.772 57.0992 35.8483 57.0915 31.2361C57.0869 28.4399 58.4603 22.4427 59.6922 20.0653C57.5288 18.5358 56.347 16.6587 56.4397 13.9644C56.676 7.09534 64.2657 2.40318 69.8741 7.45838C73.1047 5.29563 77.298 4.10946 81.154 3.79414C80.3554 1.07172 83.5248 -0.236459 85.3335 2.37919Z" fill="#632F01"/>
<path d="M32.4839 52.5241C32.7891 51.9729 33.2695 50.338 33.693 50.1916C34.8107 49.805 38.4257 50.5811 39.4894 50.7523L49.0707 52.3346C49.7309 52.4357 53.1316 52.702 52.9667 53.6449C52.5987 54.0619 52.1814 54.1209 51.6547 54.2427C52.025 54.7621 53.9101 57.8752 54.1961 57.9845C54.0933 58.3976 53.8415 59.2814 53.7965 59.64C53.6176 60.1951 53.3676 62.3814 53.0004 62.5554C52.9492 62.5797 52.8875 62.5906 52.833 62.6032L53.0548 62.7054C53.1034 62.9758 52.9925 63.1172 52.8735 63.364L53.0288 63.4635C53.0702 64.0341 53.0341 64.7501 53.019 65.334C52.5581 65.4729 52.1895 65.6702 51.8159 65.9791C51.5293 66.2359 51.2942 66.4669 51.024 66.7415C49.972 68.6819 49.8551 70.6708 50.8204 72.6998C51.0357 72.982 51.4025 73.4335 51.5817 73.72C51.4653 74.0223 51.4869 75.2344 51.4812 75.6344C52.2819 75.7986 54.9292 76.4617 55.5163 76.4004C57.6888 79.3725 60.0775 81.1131 63.7833 81.7614C66.3516 84.0656 69.5012 85.9655 73.0574 85.7487C76.763 85.5232 78.7147 83.4219 79.9068 80.1468C81.4378 80.0683 82.8367 79.9773 84.3607 79.7154C85.9135 79.4472 87.2098 78.6076 88.7735 78.7786C90.8822 79.0087 93.5812 79.2559 95.62 79.8086C99.6922 80.9133 103.099 83.3504 107.371 81.2048C108.226 80.7757 108.97 80.0349 109.626 79.3585C109.716 79.2653 110.248 78.6869 110.284 78.6605C111.771 76.6881 112.944 73.9065 113.433 71.493C114.356 71.5507 116.012 71.7415 116.797 71.3767L116.788 71.2967C116.804 70.5527 117.415 70.4826 117.859 69.7972C118.189 69.7922 118.775 69.8125 119.065 69.7093C119.451 69.9284 119.676 70.1055 120.023 70.3734C124.036 70.4627 128.022 70.374 132.028 70.514C133.403 70.5621 135.204 70.5475 136.549 70.6847C136.818 70.3253 136.927 70.181 137.122 69.7818C137.912 69.8082 138.821 69.8293 139.596 69.9336C140.765 69.6296 142.613 70.3823 143.621 69.7698C144.494 69.8761 145.335 70.1397 146.38 70.2758C147.078 70.3356 147.776 70.3692 148.21 71.0041C148.109 71.5114 147.436 71.7887 147.017 72.0039C148.173 72.1871 151.794 72.6529 152.137 73.8856C152.117 74.031 152.086 74.1455 151.99 74.2608C150.738 75.764 143.9 75.9297 141.794 76.1054C140.865 76.183 139.954 76.3793 139.02 76.452C140.059 76.7051 141.078 77.038 142.065 77.4477C142.521 77.6382 143.236 77.9523 143.412 78.4614C143.478 78.6519 143.442 78.84 143.337 79.0087C141.311 82.2543 124.972 81.913 121.065 82.6617C121.522 83.0511 123.453 83.1903 123.378 84.0353C121.15 86.8704 85.2184 87.9463 79.7178 87.9969C70.5142 88.0381 61.3127 87.7038 52.1365 86.994C50.8555 86.893 45.2874 86.5797 44.5722 86.0378C44.3958 85.9049 44.3864 85.8202 44.3604 85.6173C44.5355 85.1019 45.0184 84.8827 45.4801 84.588C42.8096 84.5577 39.9521 84.5803 37.3012 84.5002C32.4456 84.3579 27.6024 83.9327 22.7967 83.2245C21.7995 83.0737 18.7317 82.8397 18.5261 81.7529C18.5962 81.4862 18.852 81.316 19.0681 81.1325C16.048 81.012 7.29191 80.0994 4.9958 78.8027C4.66121 78.6138 4.26037 78.32 4.17165 77.9227C4.12305 77.705 4.18052 77.5255 4.29311 77.3389C5.0049 76.1607 8.28161 75.6033 9.61227 75.2646L9.87043 74.9414L9.85029 74.7748L9.58304 74.5713C9.54004 74.3051 10.0882 74.3693 10.2198 73.9908C9.9198 73.6765 1.09065 73.106 0.278018 71.8859C-0.0107351 71.4524 0.038182 71.2252 0.462894 70.9018L0.503546 70.8713C1.04552 70.4593 2.96711 70.0391 3.7074 69.9791C4.63579 69.8559 5.16073 69.6401 6.23199 69.5722C6.18705 69.8523 6.14141 70.1586 6.41465 70.3492C7.57572 71.1591 12.6723 69.9069 13.5076 70.3041C13.5555 70.4975 13.5877 70.6422 13.6184 70.839C13.6308 70.3248 13.4963 69.2288 13.4426 68.701L13.3805 68.6344C13.3774 68.4346 13.3434 68.332 13.2184 68.1809C12.7279 67.5874 11.5777 64.6661 11.2903 63.7958C8.32453 62.8672 7.16765 63.5108 8.93477 60.1647C9.0577 59.9742 9.14549 59.794 9.24837 59.5931C9.73839 58.8851 11.1687 56.3882 11.547 55.6361C11.6636 55.4731 11.8679 55.0331 11.9655 54.8348C12.148 54.5118 12.1746 54.0063 12.2901 53.8632C12.808 53.2211 14.9449 52.9889 15.768 52.845L16.5657 52.6827C17.5448 52.5201 18.552 52.3693 19.5145 52.1353C20.6329 51.8969 21.9127 51.6927 23.0499 51.487L24.1774 51.2767C25.2686 51.0849 26.749 50.8716 27.7903 50.6319C31.5409 49.7687 30.6108 50.8826 32.0946 53.4864C32.1885 53.2435 32.3716 52.7323 32.4839 52.5241Z" fill="#FFDCA8"/>
<path d="M32.4835 52.5241C32.7887 51.9729 33.2691 50.338 33.6926 50.1916C34.8103 49.805 38.4252 50.5811 39.489 50.7523L49.0703 52.3346C49.7305 52.4357 53.1312 52.702 52.9663 53.6449C52.5983 54.0619 52.181 54.1209 51.6543 54.2427C52.0246 54.7621 53.9097 57.8752 54.1957 57.9845C54.0929 58.3976 53.8411 59.2814 53.7961 59.64C53.6172 60.1951 53.3672 62.3814 53 62.5554C52.9488 62.5797 52.8871 62.5906 52.8326 62.6032L53.0544 62.7054C53.103 62.9758 52.9921 63.1172 52.8731 63.364L53.0284 63.4635C53.0698 64.0341 53.0336 64.7501 53.0186 65.334C52.5577 65.4729 52.189 65.6702 51.8155 65.9791C51.5289 66.2359 51.2937 66.4669 51.0236 66.7415C49.9715 68.6819 49.8547 70.6708 50.82 72.6998C51.0353 72.982 51.4021 73.4335 51.5813 73.72C51.4649 74.0223 51.4865 75.2344 51.4808 75.6344C51.3769 76.3899 51.272 76.8687 50.4342 77.0987C49.7116 77.2969 48.964 77.412 48.2274 77.5511C46.7801 77.8286 45.3296 78.0899 43.876 78.3332C40.2924 78.9815 36.705 79.6089 33.1141 80.216C32.2231 80.3606 31.0964 80.6552 30.2015 80.5643C28.8604 80.4282 14.9856 76.8571 14.3639 76.3504C13.8547 75.9356 13.8518 75.1158 13.7838 74.5192C13.7832 73.5891 13.6882 72.4533 13.634 71.5109L13.618 70.839C13.6304 70.3248 13.4959 69.2288 13.4422 68.701L13.3801 68.6344C13.377 68.4346 13.343 68.332 13.218 68.1809C12.7275 67.5874 11.5773 64.6661 11.2899 63.7958C8.32412 62.8672 7.16724 63.5108 8.93436 60.1647C9.0573 59.9742 9.14508 59.794 9.24796 59.5931C9.73799 58.8851 11.1683 56.3882 11.5465 55.6361C11.6632 55.4731 11.8675 55.0331 11.9651 54.8348C12.1476 54.5118 12.1742 54.0063 12.2897 53.8632C12.8075 53.2211 14.9445 52.9889 15.7675 52.845L16.5653 52.6827C17.5444 52.5201 18.5516 52.3693 19.5141 52.1353C20.6324 51.8969 21.9123 51.6927 23.0495 51.487L24.1769 51.2767C25.2682 51.0849 26.7485 50.8716 27.7899 50.6319C31.5405 49.7687 30.6104 50.8826 32.0941 53.4864C32.1881 53.2435 32.3712 52.7323 32.4835 52.5241Z" fill="#925718"/>
<path d="M30.415 62.1685L30.6737 62.002C30.9805 62.4865 31.2079 63.2356 31.4882 63.7073C32.3844 65.2158 33.7893 68.0369 34.851 69.299C39.1993 68.8606 43.5747 67.4691 47.9455 67.0452C48.4725 66.9942 49.0434 66.9188 49.5582 66.7977C47.5416 68.7036 48.0577 71.8005 47.4569 74.2374C47.2426 75.1063 46.6303 76.2001 46.1879 77.0039C45.7149 77.0078 43.196 77.5387 42.6047 77.6437L35.6237 78.8463C34.1575 79.1036 32.0247 79.5374 30.5991 79.6237C30.4841 76.8015 30.6062 73.9014 30.5337 71.0685C30.4577 68.1031 30.5231 65.1349 30.415 62.1685Z" fill="#FFAD5A"/>
<path d="M51.3175 55.2646C51.8892 56.1102 52.5297 57.3044 53.0349 58.2127C53.2641 58.5643 53.7788 59.2539 53.7963 59.6396C53.6174 60.1948 53.3674 62.381 53.0002 62.5551C52.949 62.5793 52.8873 62.5902 52.8328 62.6028C52.3696 62.6448 52.0211 62.6996 51.5679 62.7788L41.3704 64.7517C39.6504 65.0824 37.4349 65.5803 35.7373 65.8197C35.3172 65.34 34.6204 64.1607 34.2592 63.6C33.2482 62.0309 32.3038 60.3848 31.2793 58.8274C31.5932 58.7821 32.3529 58.5256 32.8671 58.4417C35.9535 57.9385 38.9994 57.2904 42.0853 56.7603L48.8419 55.6488C49.2604 55.5821 51.0634 55.3572 51.3175 55.2646Z" fill="#FFAD5A"/>
<path d="M30.3701 59.0195C31.0234 60.1256 34.5798 66.2522 35.3634 66.525C35.7002 66.6424 36.2026 66.6107 36.5508 66.5681C38.0119 66.3893 39.4899 66.021 40.937 65.7372C44.283 65.0813 47.6293 64.3721 50.9984 63.8443C50.9944 64.3653 50.8935 66.3929 51.0235 66.7408C49.9715 68.6812 49.8546 70.6701 50.8199 72.6991C50.5059 73.509 50.982 76.0586 50.183 76.2554C49.1099 76.5198 47.2861 76.9122 46.1882 77.0031C46.6306 76.1993 47.243 75.1055 47.4572 74.2366C48.058 71.7998 47.542 68.7029 49.5585 66.797C49.0438 66.918 48.4729 66.9934 47.9458 67.0445C43.5751 67.4683 39.1996 68.8598 34.8513 69.2983C33.7896 68.0361 32.3847 65.2151 31.4885 63.7065C31.2082 63.2348 30.9808 62.4857 30.6741 62.0012L30.4154 62.1678L30.3701 59.0195Z" fill="#CF7315"/>
<path d="M30.7246 58.1869C31.4632 57.9953 32.6868 57.799 33.4631 57.6549C35.0363 57.3584 36.6112 57.0713 38.1879 56.7933L50.6421 54.5811C50.9719 54.8459 51.0508 54.9336 51.3179 55.2654C51.0637 55.3579 49.2608 55.5828 48.8422 55.6496L42.0857 56.761C38.9997 57.2912 35.9539 57.9393 32.8675 58.4425C32.3532 58.5264 31.5936 58.7828 31.2796 58.8281L30.7246 58.1869Z" fill="#F9B560"/>
<path d="M11.29 63.7959C11.6914 63.8623 12.3577 63.9522 12.7104 64.1128C12.891 64.1715 13.1467 64.2112 13.2016 64.3616C13.3989 64.9038 13.3026 65.8391 13.3176 66.4333C13.373 66.8041 13.4848 68.3444 13.4424 68.7011L13.3802 68.6345C13.3772 68.4347 13.3432 68.3321 13.2182 68.181C12.7277 67.5875 11.5774 64.6662 11.29 63.7959Z" fill="#2E6735"/>
<path d="M53.0283 63.4629C53.0697 64.0335 53.0336 64.7495 53.0186 65.3334C52.5576 65.4723 52.189 65.6696 51.8154 65.9785L51.8812 63.6293C52.2286 63.6059 52.6764 63.52 53.0283 63.4629Z" fill="#FDF4EA"/>
<path d="M29.658 59.4736C29.4777 60.7814 29.6907 63.2553 29.6361 64.7876L29.7942 79.6139C27.8996 79.1996 25.561 78.5683 23.6808 78.0304C23.5595 77.9775 22.8146 77.8485 22.6089 77.8011C22.0508 77.6666 21.4985 77.5095 20.9533 77.33C20.5594 77.2025 19.9353 76.9016 19.5714 76.9413C18.9096 76.8687 15.5237 75.8661 14.8307 75.5915C14.5694 72.9233 14.4102 69.6321 14.3283 66.9354C14.2202 66.2523 14.2055 65.1572 14.1943 64.4647C17.4421 65.3752 20.8616 66.0798 24.1532 66.8508C24.4868 66.8954 25.3275 66.9582 25.5422 66.6433C26.5415 65.1776 27.2921 63.508 28.2056 61.9858C28.7087 61.1476 29.1143 60.2748 29.658 59.4736Z" fill="#FF9B34"/>
<path d="M29.658 59.4736C29.4777 60.7814 29.6907 63.2553 29.6361 64.7876C29.5191 64.0319 29.5835 63.1353 29.547 62.3597C28.3573 64.4328 27.2334 67.8717 25.6447 69.5028C23.3885 69.3487 21.0727 68.6023 18.8701 68.1354C18.0936 67.9709 14.8435 66.7829 14.3283 66.9354C14.2202 66.2523 14.2055 65.1572 14.1943 64.4647C17.4421 65.3752 20.8616 66.0798 24.1532 66.8508C24.4868 66.8954 25.3275 66.9582 25.5422 66.6433C26.5415 65.1776 27.2921 63.508 28.2056 61.9858C28.7087 61.1476 29.1143 60.2748 29.658 59.4736Z" fill="#CF7315"/>
<path d="M19.5713 76.9408C19.5818 76.2533 19.5429 73.1712 19.816 72.7269C20.3404 72.6643 21.4513 73.0944 22.0019 73.2575C22.6985 73.464 23.6459 73.4532 23.7289 74.3485C23.8259 75.3947 23.4507 77.0449 23.6808 78.0299C23.5594 77.977 22.8146 77.848 22.6088 77.8006C22.0507 77.6661 21.4984 77.509 20.9533 77.3295C20.5594 77.202 19.9353 76.9011 19.5713 76.9408Z" fill="#B47A37"/>
<path d="M13.2082 54.6826C14.154 54.9959 15.6807 55.3041 16.6846 55.5342C18.9029 56.0507 21.1287 56.5342 23.3614 56.9845C24.9874 57.3193 27.5352 57.9753 29.0371 58.2106L29.2244 58.265L29.2696 58.3803C28.7187 59.0778 28.0617 60.3835 27.6257 61.197C26.7064 62.9119 25.8975 64.4925 24.8466 66.1327L24.7661 66.1204C24.0559 66.0078 23.0022 65.7042 22.2826 65.5246L18.7412 64.6779C17.4059 64.3531 9.22402 62.4584 8.90039 62.0173C9.15831 61.3716 9.76801 60.4032 10.1381 59.768C10.9668 58.3268 11.8193 56.8993 12.6952 55.4863C12.8803 55.1518 12.9753 54.9822 13.2082 54.6826Z" fill="#FFAD5A"/>
<path d="M13.2083 54.6826C14.1541 54.9959 15.6808 55.3041 16.6847 55.5342C18.903 56.0507 21.1288 56.5342 23.3615 56.9845C24.9875 57.3193 27.5353 57.9753 29.0372 58.2106C29.0526 58.2832 29.0532 58.3673 29.0575 58.4428C28.1485 58.9878 24.085 57.8447 22.9767 57.5622C19.8612 56.7682 16.7538 56.1576 13.5873 55.6089C13.3084 55.5606 12.9277 55.5619 12.6953 55.4863C12.8804 55.1518 12.9754 54.9822 13.2083 54.6826Z" fill="#F9B560"/>
<path d="M15.0883 53.7936C18.493 53.0883 26.2383 51.6925 29.9622 51.2366C30.0425 51.2267 30.1904 51.4959 30.2562 51.5976C30.8435 52.6915 30.8773 53.1218 31.664 54.3492C31.6051 54.5214 31.5601 54.5539 31.4376 54.6946C31.5049 55.5693 31.6146 56.242 31.6593 57.1569C31.1557 57.2746 30.5745 57.388 30.1108 57.6069C29.065 57.2674 27.7028 57.0563 26.5961 56.813L18.15 54.9694C17.0112 54.716 15.839 54.5487 14.7266 54.2263C14.9456 54.1985 14.9708 54.1859 15.1592 54.0699L15.0794 54.0007L15.0883 53.7936Z" fill="#CF7315"/>
<path d="M15.088 53.7936C18.4927 53.0883 26.238 51.6925 29.9618 51.2366C30.0422 51.2267 30.19 51.4959 30.2559 51.5976C26.9776 52.0287 23.7201 52.8156 20.4281 53.268C18.6394 53.5137 17.013 53.9773 15.1589 54.0699L15.0791 54.0007L15.088 53.7936Z" fill="#FFAD5A"/>
<path d="M33.9863 51.075C34.07 50.9445 34.0888 50.8609 34.2585 50.8318C34.7034 50.7555 49.9749 53.2551 50.9103 53.5269L50.9037 53.643C50.6048 53.7911 50.3017 53.8 49.9692 53.836C49.6707 53.8875 49.3683 53.9547 49.0675 53.9491C45.9353 54.626 42.6037 55.1314 39.4422 55.7181C37.322 56.1116 34.7476 56.6776 32.6085 56.9236C32.5525 56.179 32.6697 55.1112 32.5877 54.5393C32.2209 54.2072 32.3811 54.1292 32.6721 53.7107C33.2419 52.8909 33.5087 51.9213 33.9863 51.075Z" fill="#CF7315"/>
<path d="M33.9863 51.075C34.07 50.9445 34.0888 50.8609 34.2585 50.8318C34.7034 50.7555 49.9749 53.2551 50.9103 53.5269L50.9037 53.643C50.6048 53.7911 50.3017 53.8 49.9692 53.836C49.6707 53.8875 49.3683 53.9547 49.0675 53.9491C48.8774 53.804 48.13 53.6031 47.7365 53.4121C44.307 52.9589 40.8647 52.264 37.4354 51.7748C36.719 51.6727 34.6146 51.1212 34.0534 51.2944L33.9863 51.075Z" fill="#FFAD5A"/>
<path d="M47.7363 53.4121C48.3004 53.47 49.5766 53.5297 49.9691 53.836C49.6705 53.8875 49.3681 53.9547 49.0673 53.9491C48.8772 53.804 48.1299 53.6031 47.7363 53.4121Z" fill="#D37F2E"/>
<path d="M14.7261 54.2266C14.4803 54.1667 14.3122 54.175 14.1719 54.0153C14.3736 53.8634 14.817 53.8334 15.0879 53.7939L15.079 54.001L15.1588 54.0703C14.9704 54.1863 14.9452 54.1989 14.7261 54.2266Z" fill="#D79F57"/>
<path d="M119.064 69.709C119.45 69.9281 119.675 70.1052 120.022 70.3731C124.035 70.4623 128.022 70.3737 132.027 70.5137C133.402 70.5618 135.203 70.5472 136.548 70.6844C136.817 70.325 136.926 70.1806 137.121 69.7815C137.912 69.8079 138.82 69.8289 139.595 69.9333C140.764 69.6293 142.612 70.382 143.62 69.7695C144.493 69.8758 145.334 70.1393 146.379 70.2755C146.519 70.4872 146.853 70.9526 146.913 71.1671C145.965 71.3215 144.473 71.6048 143.564 71.5784C141.404 71.5159 139.339 71.7259 137.205 71.825C133.733 71.9734 130.257 72.0039 126.784 71.9162C124.331 71.8361 121.879 71.756 119.429 71.6224C119.015 71.5999 118.552 71.5878 118.136 71.604C117.646 71.6112 117.221 71.6376 116.796 71.3764L116.787 71.2964C116.803 70.5524 117.415 70.4823 117.859 69.7968C118.188 69.7919 118.775 69.8121 119.064 69.709Z" fill="#FFAD5A"/>
<path d="M137.121 69.7812C137.912 69.8076 138.82 69.8287 139.595 69.933C139.74 70.1421 139.861 70.2688 139.851 70.5249C139.5 71.0476 137.133 70.7933 136.549 70.6841C136.818 70.3247 136.927 70.1804 137.121 69.7812Z" fill="#D79F57"/>
<path d="M116.787 71.2964C117.04 71.1986 117.214 71.0996 117.476 71.1386C117.679 71.2929 117.718 71.3186 117.859 71.5294L118.136 71.604C117.646 71.6112 117.221 71.6376 116.796 71.3764L116.787 71.2964Z" fill="#E5C69E"/>
<path d="M3.70733 69.9791C4.63571 69.856 5.16065 69.6401 6.23192 69.5723C6.18698 69.8524 6.14133 70.1586 6.41457 70.3493C7.57565 71.1592 12.6722 69.9069 13.5075 70.3042C13.5554 70.4976 13.5876 70.6423 13.6183 70.8391L13.6344 71.511C13.4503 71.5432 12.7523 71.6351 12.6148 71.6937C11.655 72.1025 11.3486 72.5697 10.252 72.3049L10.1876 72.1917C10.317 72.0125 10.3367 71.985 10.4212 71.7825C10.0166 71.3333 6.93796 71.5303 6.17881 71.3886C5.76475 71.3113 2.15622 71.0453 3.70733 69.9791Z" fill="#FFDCA8"/>
<path d="M146.38 70.2754C147.078 70.3352 147.776 70.3688 148.21 71.0036C147.778 71.0628 147.346 71.1172 146.913 71.1671C146.853 70.9525 146.52 70.4872 146.38 70.2754Z" fill="#E5C69E"/>
<path d="M120.409 75.5174C121.343 74.8579 122.629 74.5159 123.793 74.6421C125.338 74.8096 126.845 76.7432 124.426 76.8652C123.206 76.9264 120.671 77.0577 119.662 76.3909C119.857 75.9882 120.08 75.8152 120.409 75.5174Z" fill="#D5B388"/>
<path d="M119.662 76.3905C119.113 76.2369 117.634 76.2156 117.274 75.9991L117.259 75.8507C117.809 75.2573 119.818 74.921 120.409 75.5169C120.08 75.8148 119.857 75.9878 119.662 76.3905Z" fill="#E5C69E"/>
<path d="M143.816 72.2393C143.868 72.2471 145.795 73.0174 145.846 73.051L145.814 73.1532C145.516 73.2941 145.12 73.2552 144.781 73.2502C144.215 73.2972 143.343 73.4191 142.912 72.9895L142.935 72.8117C143.127 72.5326 143.504 72.3913 143.816 72.2393Z" fill="#E5C69E"/>
<path d="M117.388 81.1009C117.865 81.0838 118.838 81.1134 118.963 81.6949L118.832 81.8418C118.531 82.0019 118.197 81.9491 117.851 81.9327C117.236 81.9429 116.971 81.9491 116.358 81.8496L116.276 81.7205L116.284 81.6886C116.574 81.4259 116.995 81.3046 117.388 81.1009Z" fill="#D5B388"/>
<path d="M126.016 76.4316C126.561 76.3991 127.829 76.3473 128.17 76.796C128.111 77.0494 128.136 76.9654 127.865 77.1621C127.332 77.2554 126.023 77.487 125.733 76.8923C125.805 76.5966 125.792 76.6761 126.016 76.4316Z" fill="#E5C69E"/>
<path d="M48.9974 83.0351C49.4956 83.0219 50.4228 82.9535 50.779 83.3538C50.8259 83.6345 50.8442 83.5202 50.696 83.783C50.225 83.8335 49.3225 83.954 48.9817 83.608C48.8792 83.3772 48.9311 83.2738 48.9974 83.0351Z" fill="#E5C69E"/>
<path d="M45.1975 82.5729C45.5537 82.5216 46.2437 82.569 46.2071 83.0525C45.9325 83.2547 45.906 83.1964 45.5151 83.2399C45.1346 83.2088 44.7854 83.1995 44.4679 82.9919L44.4473 82.8683C44.6419 82.6716 44.9158 82.6429 45.1975 82.5729Z" fill="#D5B388"/>
<path d="M141.574 73.999C141.877 73.9791 142.282 74.2624 142.34 74.5793C142.151 74.7616 142.144 74.7091 141.838 74.7387C141.502 74.7318 141.012 74.7889 140.918 74.4101C141.048 74.1684 141.315 74.1022 141.574 73.999Z" fill="#E5C69E"/>
<path d="M133.137 76.8448C133.571 76.7729 134.716 76.722 135.154 76.8559C135.308 76.9028 135.308 77.0194 135.366 77.1804C134.777 77.2729 133.578 77.2713 133.137 76.8448Z" fill="#D5B388"/>
<path d="M134.391 78.0621C134.727 78.0473 135.057 78.0356 135.348 78.2269L135.358 78.3388L135.155 78.4321C134.822 78.4251 134.498 78.4344 134.176 78.352L134.156 78.2432L134.391 78.0621Z" fill="#D5B388"/>
<path d="M48.7861 84.133C49.0985 84.1276 50.2797 84.2279 50.5288 84.3849C50.1091 84.444 49.3129 84.5349 48.9306 84.3903C48.864 84.3647 48.8256 84.2224 48.7861 84.133Z" fill="#E5C69E"/>
<path d="M51.5809 73.7197C52.6089 74.8891 53.5021 75.2862 55.0177 75.5917L55.5155 76.4001C54.9284 76.4614 52.2811 75.7983 51.4805 75.6341C51.4861 75.2341 51.4645 74.022 51.5809 73.7197Z" fill="#EEDBBC"/>
<path d="M86.034 2.80191C87.2229 -0.122069 89.7734 0.532785 88.5565 3.4468C88.4126 3.88845 87.8076 4.54227 87.9243 4.92471C88.4896 4.9011 88.8745 4.18776 89.2765 3.9317C89.9957 3.31216 92.3199 2.24249 92.3215 3.95511C91.7787 4.94605 91.3783 5.154 90.439 5.743C90.764 5.8411 91.0229 5.89825 91.3028 6.09193C91.6364 5.86155 91.7305 5.79173 92.2017 5.9032C95.4932 6.68272 99.3865 8.82143 101.851 11.0486C101.982 10.7133 102.032 10.6487 102.244 10.3571C101.858 9.95657 101.387 9.52232 100.983 9.13083C101.279 8.86815 101.58 8.59902 101.939 8.43383C105.716 6.05554 110.354 9.12104 110.865 13.2545C110.934 14.1993 110.955 14.9951 110.684 15.9142C110.45 16.7336 109.231 18.9988 108.32 19.031L108.189 18.9536C107.943 18.9344 107.819 18.9992 107.586 19.0802L107.496 19.2099C108.672 22.3794 109.478 25.7014 109.49 29.1058C109.497 31.557 109.213 31.9278 109.965 34.3672C110.729 36.8506 109.286 42.339 106.986 43.731C106.684 43.9649 105.723 44.7255 105.436 44.8663C104.086 45.5281 102.645 45.9607 101.432 46.9154C98.5351 46.6941 95.812 47.1765 94.2491 49.9635C93.6021 50.1252 92.4397 50.4209 91.7772 50.4481L91.6481 50.5877C91.764 50.7772 92.1543 50.9931 92.3565 51.1141C92.4708 51.1108 92.7328 51.0958 92.8362 51.1102C93.1721 51.053 93.6091 50.9918 93.9334 50.917C93.3315 52.9874 93.7794 55.4691 94.5181 57.4626C94.7327 58.0423 95.2265 58.8935 95.3727 59.3062C95.5958 59.552 95.5725 59.615 95.8423 59.6565L96.249 59.4567C95.5943 58.55 95.2537 57.2201 94.9855 56.1834C93.8401 51.7617 94.812 47.8472 100.108 47.6383C101.093 47.5994 101.135 47.6162 101.973 48.1597C102.26 48.1764 102.192 48.1541 102.481 47.9384C102.294 47.7626 102.19 47.6845 102.061 47.4589C102.546 46.9249 104.723 45.8691 105.445 45.9264C105.691 46.0195 105.725 46.1 105.871 46.3166C105.954 46.5244 106.044 46.9764 106.087 47.2006C106.212 46.7033 106.185 46.1385 106.135 45.6321L106.095 45.5829L106.116 45.4719C106.406 45.2475 107.063 44.7119 107.399 44.7509L107.511 44.9115C108.55 46.5488 107.833 48.5737 106.897 50.0793C106.589 50.5241 106.368 50.7863 106.015 51.1914C105.542 51.7352 104.411 52.1365 104.323 52.8063L104.403 53.0026C105.081 53.1022 105.424 52.2471 105.73 52.9323C107.023 54.9624 107.727 56.7939 107.523 59.25C107.452 59.8333 107.359 60.3112 107.13 60.8614C107.025 61.1431 106.913 61.4659 106.779 61.7313C104.558 62.1215 103.281 62.8519 101.673 64.4199C99.9526 64.1288 98.2272 63.8323 96.6059 63.1875C95.571 62.7017 94.8945 61.5392 94.1394 61.2017C94.4116 61.1529 94.3346 61.207 94.494 61.0284C94.4979 60.8178 94.4932 60.6594 94.48 60.449C94.718 60.4522 94.7382 60.5264 94.9598 60.6886C94.8346 60.4352 94.7911 60.3797 94.5733 60.257C94.3649 60.3512 94.2514 60.7843 94.0936 61.0859L94.0026 61.0789C93.1854 59.3563 92.5812 57.6316 91.851 55.8793C91.5237 55.0936 91.414 53.46 91.0921 52.8404C90.708 52.8047 89.4771 53.2556 89.023 53.3079C88.1902 53.4039 85.2899 53.929 84.6009 53.8563C82.9626 53.6342 81.3164 53.3346 79.7108 52.939C79.301 52.8381 77.8282 52.342 77.5273 52.4084C76.7396 52.2835 73.8688 50.8461 73.4075 50.88C73.3631 51.5372 74.3913 52.8038 74.389 53.9691C73.9194 53.474 72.6929 51.4963 72.2207 50.7838C72.078 50.8631 71.7343 51.0312 71.6508 51.1456C73.2318 54.2865 74.2778 55.706 77.3228 57.465C80.1656 59.1078 83.0497 61.3422 84.2098 64.5373C84.5418 65.604 84.9088 67.2032 84.1795 68.1566L84.0745 68.1738C83.8708 67.998 83.7736 67.8766 83.5014 67.8762C83.5147 68.1459 83.5434 68.4414 83.489 68.7032C83.37 70.1338 82.4229 70.493 81.2503 71.0681L81.6718 70.0524C81.615 69.8269 81.5964 69.8182 81.4393 69.6373C81.1889 69.5652 81.2861 69.554 81.0723 69.6551L80.9595 70.1431C80.8592 70.524 80.4331 71.3509 79.9425 71.103C79.5933 70.9269 79.4332 70.2509 79.3119 69.891C78.1486 67.0682 76.2187 64.8551 72.9786 64.6107C72.5943 64.5816 72.2107 64.5579 71.8258 64.5365C70.8177 64.6087 70.3717 64.7244 69.409 65.0373L69.3796 65.015C68.1155 64.0769 67.1233 63.8428 65.6027 63.6313C63.5187 61.583 62.774 60.2087 61.8039 57.5123C61.53 57.5792 61.3121 57.7613 61.0792 57.9252C61.7897 60.1913 62.6433 61.9309 64.3641 63.63C62.9914 63.7293 61.5809 64.2826 60.5475 65.1972C60.7283 65.3962 60.7915 65.4996 61.0425 65.597C62.2273 64.7416 63.7753 64.5131 65.1945 64.493C66.5871 64.7139 67.1667 64.8164 68.4307 65.5078L67.6909 66.067L67.3692 66.2935C66.1421 67.5044 65.3742 68.7048 64.7438 70.3121C65.0926 70.4098 65.1638 70.4503 65.4789 70.6283L65.5677 70.5013C65.8648 69.7291 66.3186 68.7103 67.0932 68.3588C67.1598 68.3267 67.211 68.2692 67.2682 68.2171L67.2744 67.9443C67.4547 67.3508 68.3186 66.6505 68.8329 66.3293C69.6395 65.7694 70.3193 65.6283 71.245 65.4407C71.7138 65.5688 71.8155 65.6022 72.2321 65.8446C72.6446 65.4134 72.7812 65.3474 73.3772 65.5038C75.1339 65.8892 76.3368 66.5291 77.3407 68.0874C79.0234 70.1528 79.8538 74.8969 79.5296 77.4693C78.2069 87.9632 68.4444 85.8643 63.1118 79.8629C62.7007 80.0455 62.7463 80.0043 62.8139 80.4692C62.5867 80.7475 61.3198 80.1279 61.03 79.9732C56.8045 78.2645 54.5695 73.6993 54.0261 69.4272C53.0241 61.5498 56.4606 51.9966 61.1506 45.7172C61.5162 45.1307 62.4406 44.0589 62.9172 43.5634C63.4837 44.0607 64.1602 44.6306 64.8426 44.9536L65.3998 44.3556C56.4731 37.979 56.959 29.6863 60.5059 20.4287C60.7817 20.5303 61.3379 20.7479 61.6049 20.766C61.8054 20.7811 62.0031 20.7125 62.1512 20.5766C62.3383 20.4081 62.3633 20.3285 62.3642 20.1208C62.0594 19.8841 60.8301 19.5937 60.3696 19.3479C59.1065 18.6736 58.195 17.5362 57.7375 16.2016C57.0025 14.0574 57.4596 12.1975 58.3983 10.2644C59.1221 9.04983 59.769 8.25324 60.9461 7.44266C63.7767 5.4934 67.8623 5.92598 69.8358 8.90889C70.1783 8.64465 70.339 8.56987 70.4071 8.17107C72.9391 6.22942 78.2365 4.92866 81.4688 4.74189C81.6998 4.72852 81.8903 4.87665 82.0691 5.01089C82.4984 4.98331 82.1189 4.88941 82.5559 4.75414C82.7736 4.88278 82.8537 4.96195 83.0753 4.82596C82.8965 4.40907 81.192 3.73112 81.9922 2.40099C82.9875 1.16436 84.1429 1.88707 84.7541 3.04761C84.9205 3.34773 85.223 4.05575 85.5698 4.06158C85.8101 3.72819 85.8116 3.23083 86.034 2.80191Z" fill="#FF9B34"/>
<path d="M101.94 8.43379C105.717 6.0555 110.355 9.121 110.866 13.2544C110.935 14.1993 110.955 14.9951 110.684 15.9142C110.45 16.7335 109.231 18.9988 108.321 19.031L108.189 18.9536C107.943 18.9343 107.819 18.9992 107.587 19.0802L107.496 19.2098C107.225 18.731 106.65 17.403 106.368 16.8138C105.489 15.3485 104.881 14.4264 103.812 13.0948C103.212 12.505 102.496 11.6941 101.851 11.0485C101.983 10.7132 102.032 10.6486 102.245 10.357C101.858 9.95653 101.388 9.52228 100.983 9.13079C101.28 8.86811 101.581 8.59898 101.94 8.43379Z" fill="#EF8D33"/>
<path d="M104.488 12.4959C105.563 11.4846 107.287 11.2775 108.029 12.7417C108.011 13.0297 108.41 13.8274 108.407 14.6124C108.159 15.3419 107.922 16.108 107.208 16.5021L107.15 16.5183C106.808 16.6623 106.593 16.626 106.367 16.8136C105.488 15.3483 104.88 14.4263 103.812 13.0946C104.104 12.875 104.229 12.7564 104.488 12.4959Z" fill="#632F01"/>
<path d="M105.423 12.7636L105.795 12.6032C106.956 12.1114 107.236 13.0893 108.03 12.7421C108.012 13.0301 108.411 13.8279 108.408 14.6128C108.16 15.3424 107.923 16.1084 107.209 16.5026L107.151 16.5187C106.912 16.0336 106.066 14.7671 106.085 14.3646C106.132 13.3895 106.364 13.6092 105.423 12.7636Z" fill="#925718"/>
<path d="M101.939 8.43379C105.716 6.0555 110.354 9.121 110.865 13.2544C110.84 13.4692 110.846 13.4901 110.735 13.6687C110.303 13.5896 109.805 11.7315 109.489 11.2354C108.415 9.54825 106.365 8.2469 104.31 8.54418C103.972 8.593 103.114 8.93761 102.746 9.07319C102.46 8.94492 102.764 8.88887 102.538 8.57263C102.282 8.56377 102.156 8.58009 101.939 8.43379Z" fill="#F9B560"/>
<path d="M107.151 16.5181L107.209 16.502C107.252 16.9676 108.158 18.0148 108.189 18.9533C107.944 18.934 107.819 18.9988 107.587 19.0798L107.496 19.2095C107.225 18.7307 106.65 17.4027 106.368 16.8135C106.594 16.6259 106.809 16.6622 107.151 16.5181Z" fill="#632F01"/>
<path d="M102.244 10.3574C103.284 11.0506 103.699 11.8222 104.488 12.4965C104.229 12.757 104.104 12.8755 103.812 13.0951C103.211 12.5053 102.495 11.6945 101.851 11.0489C101.982 10.7136 102.032 10.649 102.244 10.3574Z" fill="#632F01"/>
<path d="M91.3032 6.09231C91.6368 5.86193 91.7309 5.79212 92.2021 5.90359C95.4936 6.68311 99.3869 8.82182 101.851 11.0489C102.496 11.6946 103.212 12.5054 103.812 13.0952C104.88 14.4268 105.489 15.3489 106.368 16.8142C106.649 17.4035 107.225 18.7315 107.496 19.2103C108.672 22.3797 109.478 25.7018 109.49 29.1062C109.498 31.5574 109.213 31.9282 109.965 34.3676C110.729 36.8509 109.286 42.3394 106.986 43.7314L106.708 43.5264C106.583 43.2186 107.149 42.6354 107.335 42.3936C109.645 39.3916 109.524 35.8637 108.506 32.4058C108.423 31.405 108.516 30.1018 108.477 29.1189C108.365 26.2406 108.245 22.779 106.237 20.5388L106.257 20.4971C106.584 20.6698 106.957 20.8924 107.312 20.9663C107.561 20.84 107.485 20.9147 107.62 20.6947L107.541 20.55C107.325 20.5013 107.315 20.5677 107.076 20.7087C106.818 20.6521 106.481 19.57 106.374 19.2885C104.391 14.0611 100.461 10.2981 95.4026 8.02624C94.8311 7.76947 91.5054 6.5894 91.2783 6.30089L91.3032 6.09231Z" fill="#F9B560"/>
<path d="M58.399 10.2647C59.1228 9.05011 59.7697 8.25352 60.9469 7.44294C63.7774 5.49369 67.863 5.92626 69.8365 8.90917C69.8694 9.27517 70.1223 9.55813 70.3526 9.84468C70.2898 10.1169 70.3248 10.1947 70.1413 10.3354C69.809 10.1928 69.4825 9.50457 69.192 9.18514C67.4856 7.34429 64.813 6.76072 62.4942 7.7228C61.408 8.16249 60.0876 9.24842 59.2989 10.137C58.996 10.4781 58.6874 11.0398 58.3545 11.3498C58.3812 10.9887 58.396 10.6268 58.399 10.2647Z" fill="#F9B560"/>
<path d="M70.4072 8.17124C72.9392 6.22958 78.2366 4.92882 81.4689 4.74205C81.6999 4.72869 81.8904 4.87681 82.0692 5.01105C81.9961 5.43932 81.3741 5.51896 80.9783 5.59164C78.3703 6.0702 75.7678 6.65777 73.3226 7.70923C72.7282 7.96764 71.3049 8.51088 70.8295 8.87765C70.7 8.53715 70.6302 8.46206 70.4072 8.17124Z" fill="#F9B560"/>
<path d="M62.918 43.5635C63.4846 44.0608 64.161 44.6307 64.8435 44.9537L65.4006 44.3557C66.4416 45.0358 67.5433 45.7791 68.6503 46.3314C69.2174 46.5158 71.9034 47.6414 71.3211 48.3935C70.1881 48.7567 64.0233 44.8231 62.9599 43.8105C62.3767 44.3362 61.7471 45.3736 61.1514 45.7173C61.517 45.1308 62.4414 44.0591 62.918 43.5635Z" fill="#632F01"/>
<path d="M65.3999 44.3555C66.4409 45.0356 67.5426 45.7789 68.6496 46.3312C68.5321 46.5923 68.5307 46.9139 68.5055 47.2068C67.2132 46.5784 65.9864 45.8236 64.8428 44.9534L65.3999 44.3555Z" fill="#632F01"/>
<path d="M84.2101 64.5374L84.179 64.676L84.1121 64.7118C84.067 64.5247 84.0118 64.3402 83.9473 64.1588C83.8026 63.7618 83.5305 63.397 83.326 63.0399C81.8253 60.4202 79.2787 58.8681 76.8037 57.295C76.1567 56.8835 75.4087 56.3615 74.7509 55.9662C74.6482 55.9047 74.2696 55.9909 73.9119 55.7977C72.7916 55.1922 72.1143 53.6801 71.4914 52.6318C71.2436 52.2149 70.7186 51.3537 70.5791 50.9589C70.6428 50.9489 71.0699 50.902 71.0565 50.921C71.2137 50.6991 71.0837 50.7682 71.3518 50.6855L71.6511 51.1457C73.232 54.2866 74.2781 55.7061 77.3231 57.4651C80.1659 59.1079 83.0499 61.3423 84.2101 64.5374Z" fill="#F9B560"/>
<path d="M106.79 60.7191L106.532 60.664C107.266 58.0192 106.367 56.117 105.385 53.7605C105.225 53.3758 105.309 53.0572 105.731 52.9326C107.024 54.9627 107.727 56.7942 107.524 59.2503C107.453 59.8336 107.36 60.3115 107.131 60.8617L106.79 60.7191Z" fill="#F9B560"/>
<path d="M106.79 60.7189C107.093 60.4481 106.886 59.8634 107.052 59.4136C107.262 59.2163 107.159 59.2737 107.524 59.25C107.453 59.8333 107.36 60.3112 107.131 60.8614L106.79 60.7189Z" fill="#F6983D"/>
<path d="M68.8329 66.3291C69.6395 65.7691 70.3192 65.628 71.245 65.4404C71.7138 65.5685 71.8155 65.6019 72.2321 65.8443C72.438 66.0368 72.7657 66.3256 72.9351 66.5321C72.6016 66.6211 72.4226 66.473 72.0636 66.4052C70.379 66.0877 68.8499 66.7833 68.5635 68.6007L68.4313 68.6414L68.3018 68.4119L67.9685 68.1608L67.2744 67.944C67.4547 67.3505 68.3186 66.6502 68.8329 66.3291Z" fill="#F9B560"/>
<path d="M68.8329 66.3291L68.5686 66.9696C68.4652 67.4462 68.3566 67.9278 68.3018 68.412L67.9685 68.1609L67.2744 67.944C67.4547 67.3505 68.3186 66.6502 68.8329 66.3291Z" fill="#F6983D"/>
<path d="M73.3281 66.437C73.1407 66.179 72.8315 65.9222 72.7832 65.65C72.961 65.4838 73.082 65.53 73.3777 65.5039C75.1344 65.8893 76.3373 66.5292 77.3411 68.0875L77.1918 68.112C77.0534 67.9174 76.9127 67.7191 76.6833 67.6535C76.688 67.8543 76.6918 67.7974 76.8295 67.9937C76.8279 67.9941 74.454 66.5042 74.1118 66.587C74.0341 66.6058 73.4253 66.4662 73.3281 66.437Z" fill="#F9B560"/>
<path d="M86.0342 2.80191C87.2231 -0.122069 89.7735 0.532785 88.5566 3.4468L88.4252 3.32112C88.4105 2.73112 88.1103 2.24016 87.8195 1.7459C87.4393 2.10014 86.5412 2.91882 86.0342 2.80191Z" fill="#F9B560"/>
<path d="M67.2748 67.9443L67.9688 68.1611L68.3022 68.4122L68.4317 68.6417C68.2981 68.8673 68.3635 68.8313 68.1614 68.9259L68.2326 69.0342C67.995 69.2848 67.621 69.2563 67.3215 69.3862C66.7485 69.6348 66.2503 70.9089 65.6375 70.9831L65.5479 70.8849L65.568 70.5013C65.8652 69.7291 66.319 68.7104 67.0935 68.3588C67.1602 68.3267 67.2113 68.2692 67.2686 68.2172L67.2748 67.9443Z" fill="#F9B560"/>
<path d="M67.275 67.9443L67.9691 68.1611L68.3024 68.4122L68.4319 68.6417C68.2984 68.8673 68.3638 68.8313 68.1617 68.9259C67.8762 68.8006 67.3843 68.5152 67.0938 68.3588C67.1604 68.3267 67.2116 68.2692 67.2688 68.2172L67.275 67.9443Z" fill="#632F01"/>
<path d="M92.8363 51.1103C92.383 51.4602 88.9555 51.7991 88.377 51.3347C88.3824 50.6233 91.2081 50.4477 91.7773 50.4482L91.6482 50.5879C91.7641 50.7773 92.1544 50.9933 92.3566 51.1142C92.4709 51.111 92.7329 51.096 92.8363 51.1103Z" fill="#632F01"/>
<path d="M106.898 50.079C106.785 50.131 106.685 50.1758 106.569 50.2217C106.516 49.5895 107.37 48.22 107.449 47.6337C107.496 47.2748 106.921 46.4465 107.028 45.9437C107.098 45.6133 107.242 45.115 107.511 44.9111C108.551 46.5485 107.834 48.5733 106.898 50.079Z" fill="#F9B560"/>
<path d="M62.4785 65.5812C62.6081 65.5836 63.8456 65.1863 64.0912 65.123C64.012 65.267 63.8854 65.5162 63.7998 65.6445C63.599 65.5221 63.1465 65.7911 62.8822 65.8706C62.5617 65.8026 62.6721 65.8765 62.4785 65.5812Z" fill="#F6983D"/>
<path d="M102.481 47.9381C102.294 47.7623 102.19 47.6842 102.062 47.4586C102.546 46.9246 104.723 45.8688 105.445 45.9261C105.691 46.0192 105.725 46.0997 105.871 46.3163L105.843 46.3874C105.393 46.3376 102.84 47.5665 102.481 47.9381Z" fill="#D37F2E"/>
<path d="M89.2764 3.93143C89.9956 3.3119 92.3198 2.24223 92.3214 3.95485C91.4007 3.99213 91.1472 4.08739 90.3175 4.42259C89.7942 4.01604 89.8362 4.14452 89.3137 3.94589L89.2764 3.93143Z" fill="#F9B560"/>
<path d="M81.9922 2.4009C82.9875 1.16427 84.143 1.88698 84.7541 3.04752L84.6974 3.12176C84.2254 3.31241 83.1041 2.66586 82.608 2.52001C82.3514 2.44467 82.2698 2.48538 81.9922 2.4009Z" fill="#F9B560"/>
<path d="M65.1954 64.4932C66.5879 64.7141 67.1676 64.8166 68.4316 65.508L67.6918 66.0671C67.2273 65.4127 65.4166 64.9253 64.6064 65.0022C65.0419 64.8484 65.007 64.845 65.1954 64.4932Z" fill="#F6983D"/>
<path d="M61.0797 57.9255C60.8607 57.3327 60.4037 55.6153 60.9178 55.1572L61.0697 55.1891C61.4698 55.5971 61.6682 56.8975 61.8043 57.5126C61.5305 57.5795 61.3126 57.7616 61.0797 57.9255Z" fill="#632F01"/>
<path d="M81.7362 69.0149C81.9617 69.3829 81.7673 69.4677 82.1553 69.7249C82.4446 69.7101 83.0744 68.9248 83.4896 68.7031C83.3707 70.1337 82.4236 70.493 81.251 71.068L81.6724 70.0524C81.7284 69.691 81.7284 69.3803 81.7362 69.0149Z" fill="#D37F2E"/>
<path d="M64.606 65.0021C65.4162 64.9252 67.2269 65.4126 67.6913 66.0671L67.3697 66.2936C65.1927 64.8585 64.4452 66.0235 63.7998 65.645C63.8853 65.5168 64.0119 65.2675 64.0912 65.1236C64.2732 65.0891 64.4268 65.049 64.606 65.0021Z" fill="#F9B560"/>
<path d="M61.0303 79.9736C61.3142 79.9876 62.2647 80.1648 62.4761 80.3848C62.5583 80.4703 62.5341 80.4781 62.6969 80.5294C62.6235 80.1601 61.0731 79.1185 61.6321 78.5479C62.0763 78.5867 62.8776 79.4869 63.1121 79.8632C62.701 80.0459 62.7466 80.0047 62.8142 80.4695C62.587 80.7479 61.3201 80.1283 61.0303 79.9736Z" fill="#632F01"/>
<path d="M95.373 59.3066C95.5962 59.5525 95.5729 59.6154 95.8427 59.6569L96.2494 59.4571C96.4842 59.6983 97.2175 60.8276 97.4468 61.1685C96.3116 61.0887 95.6203 60.4143 95.373 59.3066Z" fill="#925718"/>
<path d="M64.744 70.3125C65.0927 70.4102 65.164 70.4507 65.4791 70.6287C65.3117 71.1786 65.0874 71.8187 65.0318 72.3827C64.781 72.3809 64.7414 72.3841 64.5195 72.2715C64.3555 72.0768 64.3729 71.9434 64.3604 71.6932C64.4814 71.2311 64.6093 70.7708 64.744 70.3125Z" fill="#632F01"/>
<path d="M81.0731 69.6548C80.9984 69.1136 80.759 68.2091 80.9922 67.7541L81.1229 67.7539C81.5147 68.1401 81.5886 68.4883 81.7364 69.0147C81.7286 69.3801 81.7286 69.6908 81.6726 70.0522C81.6158 69.8267 81.5972 69.8179 81.4401 69.637C81.1897 69.565 81.2869 69.5538 81.0731 69.6548Z" fill="#632F01"/>
<path d="M64.3606 71.6924C64.3732 71.9425 64.3558 72.0759 64.5198 72.2707C64.7417 72.3832 64.7813 72.3801 65.0321 72.3818C65.1054 72.7738 65.0567 73.9075 64.5064 73.9532C63.9629 73.5863 64.2739 72.2651 64.3606 71.6924Z" fill="#632F01"/>
<path d="M83.5021 67.8756C83.3077 67.4354 82.9049 66.5925 83.2175 66.1855C84.1187 66.2693 84.0247 67.8888 84.1802 68.156L84.0752 68.1732C83.8715 67.9974 83.7743 67.876 83.5021 67.8756Z" fill="#632F01"/>
<path d="M69.8359 8.90872C70.1785 8.64448 70.3392 8.5697 70.4073 8.1709C70.6303 8.46172 70.7001 8.53681 70.8296 8.87731C71.0551 9.33006 70.8093 9.70725 70.3521 9.84422C70.1218 9.55768 69.8688 9.27471 69.8359 8.90872Z" fill="#D37F2E"/>
<path d="M70.9453 50.1863C71.12 49.9746 71.2969 49.7647 71.4761 49.5566C71.6638 49.813 72.2009 50.4977 72.2208 50.7837C72.0782 50.863 71.7345 51.0312 71.651 51.1455L71.3517 50.6854C71.2971 50.5351 71.0647 50.3144 70.9453 50.1863Z" fill="#632F01"/>
<path d="M60.5476 65.1973C60.7284 65.3963 60.7917 65.4997 61.0427 65.5972C60.8074 65.7343 60.8476 65.6656 60.7465 65.8759C60.42 66.0155 59.6885 66.5371 59.2949 66.7729C59.6173 66.0861 59.9211 65.6237 60.5476 65.1973Z" fill="#632F01"/>
<path d="M106.136 45.6318C106.332 46.0216 106.37 46.1102 106.471 46.5329C106.272 47.2448 106.307 47.6781 105.787 48.1726L105.7 48.1251C105.637 47.4562 105.979 47.1772 105.843 46.3874L105.871 46.3163C105.954 46.5241 106.045 46.9761 106.087 47.2003C106.213 46.703 106.185 46.1381 106.136 45.6318Z" fill="#925718"/>
<path d="M79.3125 69.8906L79.4455 69.9268L79.4773 69.9903C79.828 70.6812 80.4446 70.669 80.9602 70.1427C80.8599 70.5237 80.4338 71.3505 79.9431 71.1026C79.594 70.9265 79.4338 70.2506 79.3125 69.8906Z" fill="#D37F2E"/>
<path d="M72.2324 65.8447C72.6449 65.4135 72.7815 65.3475 73.3776 65.5039C73.0819 65.53 72.9609 65.4837 72.7831 65.6499C72.8314 65.9222 73.1406 66.179 73.3279 66.437C73.4522 66.7391 73.5735 67.0423 73.6916 67.3468C73.5247 67.1614 73.1048 66.6725 72.9354 66.5325C72.766 66.326 72.4383 66.0372 72.2324 65.8447Z" fill="#632F01"/>
<path d="M73.7363 73.9513C77.775 73.6825 78.8699 81.2341 74.0691 82.4088C69.1043 82.495 69.1708 74.7318 73.7363 73.9513Z" fill="#925718"/>
<path d="M78.9712 29.5697C83.2867 29.3085 83.3583 36.191 79.2402 37.0383C74.6339 36.9445 75.1121 30.5019 78.9712 29.5697Z" fill="#492700"/>
<path d="M79.6244 30.8779C81.1539 30.983 80.9712 32.467 79.8522 33.1781L79.769 33.167C78.3235 32.9814 78.3258 31.3123 79.6244 30.8779Z" fill="#FDF4EA"/>
<path d="M88.9958 37.6504C90.033 37.5325 92.3565 37.622 93.1504 38.2151C95.7358 40.1459 92.6558 41.7301 91.0081 42.1243C90.7997 43.0373 90.6015 43.9527 90.4148 44.8706C90.9708 45.2068 92.0026 45.9076 92.0773 46.6084C91.9855 46.895 92.0501 46.7896 91.8114 47.0022C91.2912 47.0296 91.0221 46.4339 90.6046 46.1385C90.4008 45.994 90.1614 45.887 89.9351 45.7824C88.799 45.3482 87.0705 47.3198 86.3784 46.6388C86.3372 45.7547 88.7578 45.027 89.439 44.8007C89.7617 43.8265 89.8962 43.0373 90.0851 42.0308C86.9593 41.5165 85.0729 38.2282 88.9958 37.6504Z" fill="#492700"/>
<path d="M91.4268 39.1652C90.657 39.2717 88.6532 39.3823 88.0055 38.9123C87.8585 38.663 87.8733 38.771 87.9355 38.5093C88.4409 37.9361 89.3787 38.0634 90.0528 38.0205C90.8662 37.9688 90.7775 38.1838 91.3607 38.3691C92.3358 38.36 92.5792 38.5525 93.3808 39.1019C92.5729 39.2217 92.244 39.316 91.4268 39.1652Z" fill="#632F01"/>
<path d="M91.3609 38.3694C92.336 38.3604 92.5794 38.5528 93.3811 39.1022C92.5732 39.222 92.2443 39.3163 91.427 39.1656C91.2171 39.0384 91.1595 39.0188 91.0693 38.7951C91.1323 38.5094 91.0896 38.6142 91.3609 38.3694Z" fill="#F6983D"/>
<path d="M99.1926 30.9719C102.462 30.869 103.257 37.3757 99.1421 38.2704C98.5597 38.2376 97.9244 38.1678 97.464 37.7783C95.321 35.965 96.1857 31.3409 99.1926 30.9719Z" fill="#492700"/>
<path d="M98.9325 32.26C99.0841 32.2585 99.2 32.2628 99.3462 32.3098C99.5927 32.3907 99.7948 32.5703 99.9037 32.8058C100.213 33.458 99.8493 34.104 99.2513 34.4088C99.1183 34.4083 98.9698 34.4069 98.8407 34.3749C98.567 34.3071 98.3353 34.1248 98.2055 33.8744C97.8423 33.1707 98.3392 32.5786 98.9325 32.26Z" fill="#FDF4EA"/>
<path d="M70.6796 34.1566C74.9235 33.8457 77.1715 38.7893 72.4976 39.6527C70.6334 39.7343 68.4132 39.1616 68.0197 37.0352C67.9061 36.4509 68.0416 35.8458 68.3937 35.3658C68.9692 34.567 69.7633 34.3112 70.6796 34.1566Z" fill="#FFC271"/>
<path d="M61.8565 12.2058C63.1144 10.1658 65.4533 10.6619 66.836 12.3144C67.7451 12.0691 67.9761 12.9218 67.3213 13.5724C67.1885 13.8444 67.2548 13.8231 67.0464 13.8968C66.9197 13.8336 66.7099 13.6945 66.6109 13.754C65.8562 14.2073 65.2259 15.056 64.8702 15.7812C64.9582 15.8905 65.1378 16.009 65.2564 16.0979C65.1472 16.6527 64.316 16.7809 63.8539 16.8496C61.2189 17.2415 60.4531 13.8568 61.8565 12.2058Z" fill="#925718"/>
<path d="M61.8564 12.2058C63.1143 10.1658 65.4532 10.6619 66.8359 12.3144C67.745 12.0691 67.976 12.9218 67.3213 13.5724C67.1884 13.8444 67.2547 13.8231 67.0463 13.8968C66.9196 13.8336 66.7098 13.6945 66.6108 13.754C65.8561 14.2073 65.2258 15.056 64.8701 15.7812C64.8468 15.833 64.8111 15.8424 64.7511 15.886C64.3116 15.719 63.914 14.9608 63.8759 14.5106C63.79 13.4944 64.493 12.6732 65.0909 11.9352C62.8758 11.2745 62.9098 12.3743 61.8564 12.2058Z" fill="#632F01"/>
<path d="M66.8359 12.3146C67.7451 12.0693 67.976 12.922 67.3213 13.5726C67.1428 12.9891 67.1242 12.8739 66.8359 12.3146Z" fill="#D37F2E"/>
<path d="M104.582 36.3176C106.45 36.1584 107.677 36.8207 107.924 38.8116C107.408 40.2878 106.545 40.9773 105.007 41.2635C100.913 41.7416 100.503 37.3713 104.582 36.3176Z" fill="#FFC271"/>
<path d="M71.4211 68.1007C73.3862 68.0773 74.0217 71.7726 72.2382 72.4657C71.5956 72.4355 71.0673 72.0269 70.8086 71.4575C70.245 70.2173 70.0564 68.7982 71.4211 68.1007Z" fill="#925718"/>
<path d="M68.3727 71.138C70.1933 70.9978 70.9436 73.7537 69.4375 74.9409C67.5345 75.0453 66.9644 72.2139 68.3727 71.138Z" fill="#925718"/>
<path d="M75.2817 68.5689C77.1137 68.5202 77.4239 71.6055 75.9901 72.4896C74.2413 72.5624 73.8004 69.5394 75.2817 68.5689Z" fill="#925718"/>
<path d="M81.6183 24.2939C81.9682 24.3419 82.1696 24.5223 82.2707 24.8472C82.2209 25.1652 82.0032 25.44 81.766 25.6455C80.4504 26.7851 79.2008 27.0516 77.5469 26.9838C77.1286 26.8387 76.8937 26.6524 77.0337 26.198C77.4256 25.8268 77.788 25.9974 78.3144 25.9698C79.9589 25.8839 80.574 25.3923 81.6183 24.2939Z" fill="#632F01"/>
<path d="M98.2461 25.6182C98.8697 25.658 99.1644 26.4705 99.7748 26.9403C100.413 27.4326 102.178 27.6703 102.432 28.2292C102.397 28.4985 102.338 28.4883 102.136 28.7185C100.786 28.881 97.1902 27.2382 98.2461 25.6182Z" fill="#632F01"/>
<path d="M76.9977 8.09061C77.2558 8.06697 77.353 8.06495 77.5342 8.23318L77.5303 8.43064C77.1151 9.21891 75.8764 9.76222 75.07 10.059L74.7699 10.1403L74.6836 10.0353C74.8274 9.21665 76.2115 8.31543 76.9977 8.09061Z" fill="#F9B560"/>
<path d="M78.8623 8.71191C78.8919 8.72645 78.9782 8.80917 79.007 8.83505C78.9976 9.44017 77.3165 10.4494 76.7917 10.7455C76.7108 10.7155 76.7403 10.7356 76.6758 10.6721C76.6019 10.6002 76.6268 10.5106 76.6237 10.4117C77.0762 9.45556 77.9176 9.05894 78.8623 8.71191Z" fill="#F9B560"/>
<path d="M95.7168 9.55701C96.681 9.53307 97.8746 10.6795 97.9274 11.5857C97.5596 11.4993 96.6491 10.9133 96.2759 10.6891L95.7168 9.55701Z" fill="#F9B560"/>
<path d="M94.2109 9.69736C94.2459 9.69682 94.3898 9.69814 94.4186 9.71089C95.0134 9.97295 96.6517 11.1546 96.5475 11.7909C96.144 11.5356 96.3228 11.5786 95.8446 11.6248C95.735 11.5741 94.3921 9.93851 94.2109 9.69736Z" fill="#F9B560"/>
<path d="M107.639 33.3691C108.104 33.5487 108.751 34.3183 108.724 34.8455L108.601 34.9288L108.49 34.8295C108.377 34.7024 108.345 34.6827 108.211 34.5879C108.056 34.6808 108.028 34.6908 107.857 34.7542C107.567 34.6158 107.528 34.4516 107.315 34.1489L107.639 33.3691Z" fill="#F6983D"/>
<path d="M88.6646 35.0173C89.0705 34.9886 90.9755 34.9427 91.1528 35.2964C90.9055 35.4647 90.7345 35.4388 90.4398 35.4414C90.0883 35.4316 88.1366 35.451 87.9834 35.2266C88.1871 35.0592 88.3963 35.0586 88.6646 35.0173Z" fill="#925718"/>
<path d="M79.8718 9.7832L80.0654 9.81609L80.1004 9.94257C79.8656 10.2883 79.2668 10.6173 78.9006 10.8094L78.7746 10.7909L78.7334 10.6787C78.9947 10.2183 79.3943 9.97281 79.8718 9.7832Z" fill="#F9B560"/>
<path d="M92.9414 9.95117C93.4017 10.0575 94.3589 11.1396 94.4888 11.594C94.121 11.5179 93.0425 10.2731 92.9414 9.95117Z" fill="#F9B560"/>
<path d="M63.8748 67.0469C64.1217 67.0615 64.1981 67.0411 64.3792 67.1871C64.3824 67.4273 64.369 67.3661 64.2108 67.6082C63.9255 67.5851 63.9212 67.6269 63.6965 67.4782C63.6913 67.224 63.6951 67.3016 63.8748 67.0469Z" fill="#F6983D"/>
<path d="M74.3892 53.9686C74.3915 52.8032 73.3632 51.5366 73.4076 50.8795C73.869 50.8456 76.7398 52.283 77.5275 52.4078C77.8284 52.3415 79.3011 52.8376 79.7109 52.9385C81.3166 53.334 82.9627 53.6336 84.6011 53.8557C85.29 53.9285 88.1904 53.4034 89.0232 53.3074C89.4773 53.255 90.7082 52.8042 91.0923 52.8398C91.4142 53.4594 91.5238 55.0931 91.8512 55.8787C92.5814 57.6311 93.1855 59.3557 94.0028 61.0783L94.0937 61.0853C94.2516 60.7838 94.3651 60.3507 94.5735 60.2565C94.7912 60.3792 94.8348 60.4347 94.96 60.6881C94.7383 60.5258 94.7181 60.4516 94.4802 60.4485C94.4934 60.6589 94.4981 60.8172 94.4942 61.0279C94.3348 61.2065 94.4118 61.1523 94.1396 61.2012C94.0852 61.6382 94.8371 62.8324 95.1124 63.1896C95.18 64.7716 94.631 65.1749 93.9709 66.6338C94.1482 66.8215 94.2998 66.8297 94.5541 66.8933C95.3526 65.5287 95.5144 65.072 96.8977 64.262C98.3611 64.7449 99.5158 64.9702 101.05 65.1568C100.473 66.0865 100.017 66.8556 99.5811 67.8631C99.7148 68.306 99.9022 68.2345 100.335 68.2471C100.401 67.9989 100.517 67.7967 100.635 67.5701C101.773 65.3966 103.2 63.6929 105.597 62.9326C105.848 62.9995 106.102 63.1004 106.343 63.0419C107.571 61.7691 111.111 62.9885 111.47 64.7666C111.594 65.3754 111.637 65.6574 111.676 66.286C111.938 66.0769 111.938 66.0029 112.225 65.9842C112.409 66.1485 112.43 66.222 112.536 66.4474C113.215 68.8342 112.485 72.0132 111.659 74.2854C110.613 76.8643 109.039 79.535 106.345 80.6708C102.621 82.2411 99.2156 79.811 95.7764 78.8945C94.0836 78.4428 90.6693 77.9173 88.9019 77.8559C89.4197 77.4773 89.653 77.2868 90.111 76.8389L89.9889 76.7825C89.583 76.8966 89.5986 76.9129 89.2875 76.6698C86.8965 78.5524 83.1058 79.2358 80.1409 79.172C80.5802 76.6205 80.5383 74.6224 79.9838 72.1113C82.3275 71.5899 82.8819 71.4207 84.4471 69.659C85.5093 68.3222 85.6197 66.5198 85.2255 64.9177C84.3818 61.4872 81.5794 59.1947 78.7724 57.3191C77.3284 56.3542 75.5003 55.4182 74.4343 54.028L74.3892 53.9686Z" fill="#FF9B34"/>
<path d="M74.3892 53.9686C74.3915 52.8032 73.3632 51.5366 73.4076 50.8795C73.869 50.8456 76.7398 52.283 77.5275 52.4078C78.5943 52.7908 79.6845 53.1042 80.7917 53.3459C83.6867 53.9514 88.5146 54.423 90.9407 56.2573C90.8357 56.7999 90.6242 57.1358 91.2805 57.415C91.45 57.3795 91.6195 57.3429 91.7882 57.3053C92.5075 58.1935 93.411 61.4491 93.7609 62.6759C94.5408 65.4094 92.8348 68.835 90.6833 70.5667C88.4726 72.3456 85.3779 72.8679 82.5281 72.8271C83.2722 72.1051 84.4378 71.1429 84.4549 70.0556C84.4565 69.9234 84.4533 69.791 84.4471 69.659C85.5093 68.3222 85.6197 66.5198 85.2255 64.9177C84.3818 61.4872 81.5794 59.1947 78.7724 57.3191C77.3284 56.3542 75.5003 55.4182 74.4343 54.028L74.3892 53.9686Z" fill="#F6983D"/>
<path d="M105.598 62.933C105.849 63 106.103 63.1009 106.344 63.0423C107.571 61.7696 111.112 62.9889 111.471 64.7671C111.595 65.3759 111.638 65.6578 111.676 66.2865C111.939 66.0773 111.939 66.0034 112.226 65.9847C112.41 66.149 112.431 66.2225 112.536 66.4478C113.216 68.8347 112.486 72.0137 111.66 74.2858C111.526 74.3341 111.27 74.4323 111.205 74.5483C109.744 77.1785 107.815 80.4194 104.379 80.3968C102.313 80.3836 100.7 78.4767 100.07 76.6858C99.3206 74.5525 99.4854 72.8236 99.6324 70.6394C99.7833 70.1395 100.237 68.6857 100.336 68.2475C100.401 67.9993 100.517 67.7972 100.635 67.5705C101.774 65.3971 103.201 63.6934 105.598 62.933Z" fill="#EF8D33"/>
<path d="M111.676 66.2862C111.939 66.077 111.939 66.0031 112.225 65.9844C112.409 66.1487 112.43 66.2222 112.536 66.4475C112.52 66.4545 112.505 66.4615 112.49 66.4685C112.197 66.5945 111.865 66.6036 111.565 66.4938L111.546 66.3675L111.676 66.2862Z" fill="#F9B560"/>
<path d="M106.794 70.8452C111.157 70.4253 110.174 77.454 106.031 78.8525C101.634 79.4838 102.707 72.1685 106.794 70.8452Z" fill="#925718"/>
<path d="M106.104 65.6807C108.005 65.9147 107.13 68.9276 105.582 69.5956C105.487 69.591 105.394 69.5768 105.302 69.553C103.702 69.1379 104.652 66.3522 106.104 65.6807Z" fill="#925718"/>
<path d="M109.54 65.221C111.631 65.1876 110.507 68.3971 109.148 69.2557C107.108 69.4734 108.258 66.088 109.54 65.221Z" fill="#925718"/>
<path d="M111.526 67.918C113.399 68.0464 112.183 70.7474 111.123 71.4484C109.284 71.4762 110.696 68.6053 111.526 67.918Z" fill="#925718"/>
<path d="M99.6322 70.6392C99.5443 70.9253 99.5303 71.1602 99.2162 71.2282C98.7473 70.796 99.1345 68.2259 99.5816 67.8633C99.7154 68.3062 99.9028 68.2347 100.336 68.2473C100.237 68.6854 99.783 70.1393 99.6322 70.6392Z" fill="#632F01"/>
<path d="M94.5548 66.8933C94.4125 67.4754 93.8503 69.0303 93.2135 69.1109L93.1007 68.9939C93.009 68.381 93.6466 67.1504 93.9716 66.6338C94.1489 66.8215 94.3005 66.8297 94.5548 66.8933Z" fill="#632F01"/>
<path d="M89.2881 76.6703C89.7399 76.2335 90.8075 75.0301 91.3067 74.8887L91.4008 74.9592C91.3767 75.553 90.6224 76.5716 90.1115 76.8394L89.9895 76.783C89.5836 76.8971 89.5991 76.9135 89.2881 76.6703Z" fill="#632F01"/>
<path d="M52.8078 66.2979L52.8864 66.3185C52.9606 66.4327 53.067 68.8199 53.1002 69.149C53.2992 71.1176 53.7814 72.8494 54.5542 74.6614C54.1214 74.4812 53.7076 74.2856 53.2836 74.0873C50.5787 72.2991 50.1043 68.289 52.8078 66.2979Z" fill="#FF9B34"/>
<path d="M138.543 49.9259C138.848 45.5944 141.285 40.6109 144.44 37.6255C145.488 36.6336 148.227 34.8328 149.437 36.3331C150.234 37.3207 150.077 39.3468 149.978 40.5634C149.424 45.2714 147.403 49.4818 144.433 53.1367C143.561 54.2096 141.996 55.9504 141.335 57.0179C143.672 55.3646 146.644 52.6105 149.902 53.3115C154.717 54.3472 149.5 60.3227 147.367 61.4615C146.083 62.2408 144.448 63.0246 143.521 63.7439C144.777 63.4516 147.056 63.3038 147.909 64.0311C150.597 66.3196 145.689 68.8576 143.854 69.4245C143.657 69.4851 143.595 69.5917 143.564 69.7161L143.62 69.7699C142.613 70.3824 140.764 69.6298 139.596 69.9337C138.82 69.8294 137.912 69.8083 137.121 69.782C136.927 70.1811 136.818 70.3254 136.549 70.6848C135.204 70.5476 133.403 70.5622 132.027 70.5141C128.022 70.3741 124.035 70.4628 120.022 70.3736C119.676 70.1057 119.451 69.9285 119.064 69.7094C118.775 69.8126 118.189 69.7923 117.859 69.7973C117.415 70.4827 116.803 70.5528 116.788 71.2969L116.797 71.3769C116.012 71.7416 114.355 71.5508 113.432 71.4932C113.559 70.8765 113.614 70.5368 113.664 69.91C114.001 67.7153 113.443 65.9245 112.323 64.0599L111.871 63.5191C113.02 62.3047 113.946 62.1674 115.524 61.6723C115.345 61.3027 114.922 60.7309 114.667 60.3765C113.88 59.2924 113.166 57.8924 112.997 56.5574C112.845 55.3589 113.184 53.7413 114.638 53.6805C115.634 53.6388 116.17 54.0255 116.884 54.6206C116.056 52.8437 114.52 49.146 116.678 47.5241C118.047 46.4954 120.016 49.1575 120.933 49.3003C120.861 48.1666 120.823 47.2709 120.904 46.0889C121.123 42.9087 122.613 37.3892 126.712 41.2042C129.394 43.7014 130.73 48.1063 130.831 51.7793C130.837 52.0418 130.838 52.3045 130.834 52.567C131.298 51.2582 131.569 50.7131 132.317 49.5458C132.638 49.229 132.94 48.8628 133.236 48.5202C134.978 47.0472 136.978 46.6084 137.839 49.2217C138.093 49.4609 138.313 49.6637 138.543 49.9259Z" fill="#4FAF5A"/>
<path d="M138.543 49.9259C138.847 45.5944 141.285 40.6109 144.44 37.6255C145.488 36.6336 148.226 34.8328 149.437 36.3331C150.233 37.3207 150.076 39.3468 149.978 40.5634C149.424 45.2714 147.403 49.4818 144.433 53.1367C143.561 54.2096 141.996 55.9504 141.335 57.0179C143.672 55.3646 146.643 52.6105 149.901 53.3115C154.717 54.3472 149.499 60.3227 147.367 61.4615C146.083 62.2408 144.447 63.0246 143.521 63.7439C144.776 63.4516 147.055 63.3038 147.909 64.0311C150.597 66.3196 145.689 68.8576 143.853 69.4245C143.657 69.4851 143.594 69.5917 143.564 69.716L143.62 69.7699C142.612 70.3824 140.764 69.6298 139.595 69.9337C138.82 69.8294 137.912 69.8083 137.121 69.782C137.293 69.5652 138.943 68.5087 139.329 68.2401C139.794 67.7816 139.977 67.5904 140.387 67.0778C140.997 65.9111 141.091 65.0881 139.805 64.389C138.832 64.3443 138.256 64.4622 137.298 64.6593C138.524 63.5276 139.905 62.1013 140.451 60.4879C140.895 59.178 140.661 57.7734 139.196 57.3151C138.941 57.2605 138.695 57.2678 138.454 57.3649C137.423 57.7471 136.693 58.4796 135.839 59.0659C137.849 55.8706 138.23 52.8782 137.839 49.2217C138.093 49.4609 138.312 49.6637 138.543 49.9259Z" fill="#C9E9CC"/>
<path d="M142.927 46.7953C144.235 44.2946 145.034 42.4306 146.654 40.0811C145.791 42.5517 144.672 44.7781 143.69 47.231C144.02 46.8666 145.746 45.7663 146.174 46.09C146.248 47.0938 144.016 47.2203 143.435 47.7071C143.357 47.7724 143.046 48.3193 142.989 48.4483C141.73 51.3425 140.344 54.3071 139.173 57.2366L139.196 57.315C138.942 57.2604 138.695 57.2677 138.454 57.3648C138.54 56.8616 138.989 55.9051 139.195 55.3822C139.986 53.3817 140.901 51.4338 141.769 49.4663C142.064 48.7949 142.48 48.0102 142.645 47.3061C142.7 47.0702 142.528 46.3439 142.497 46.0606C142.439 45.5392 142.347 43.9523 142.55 43.5693L142.658 43.5733C142.87 44.0851 142.907 46.1437 142.927 46.7953Z" fill="#2E6735"/>
<path d="M140.387 67.0769C140.844 67.1613 144.016 65.3196 144.83 65.7773C144.686 66.2226 144.072 66.3955 143.661 66.5354C142.32 66.9925 141.058 67.5988 139.8 68.2437C139.71 68.2897 139.432 68.255 139.329 68.2392C139.794 67.7807 139.977 67.5896 140.387 67.0769Z" fill="#2E6735"/>
<path d="M116.884 54.6204C116.056 52.8434 114.52 49.1458 116.678 47.5239C118.047 46.4951 120.016 49.1573 120.933 49.3C121.654 54.1061 122.343 55.6317 124.378 59.909C122.844 58.418 121.365 56.7651 119.029 56.7091C117.59 56.6746 116.768 57.8043 116.837 59.1654C116.903 60.8604 117.725 62.2124 118.646 63.5658C117.987 63.6912 116.987 63.5374 116.327 63.3965C115.424 63.7506 114.806 63.7944 113.853 63.8469C113.533 63.8646 112.472 63.8478 112.323 64.0597L111.871 63.5189C113.02 62.3045 113.946 62.1672 115.524 61.6721C115.345 61.3025 114.922 60.7307 114.667 60.3762C113.88 59.2922 113.166 57.8922 112.997 56.5572C112.845 55.3587 113.184 53.7411 114.638 53.6803C115.634 53.6386 116.17 54.0253 116.884 54.6204Z" fill="#FFDAB4"/>
<path d="M116.326 63.3965C116.986 63.5374 117.986 63.6913 118.646 63.5659C119.957 65.1111 120.239 65.3163 121.737 66.6549C118.279 65.1899 116.331 67.6316 119.064 69.7092C118.775 69.8124 118.188 69.7921 117.859 69.7971C117.415 70.4825 116.803 70.5526 116.787 71.2967L116.796 71.3767C116.011 71.7414 114.355 71.5506 113.432 71.493C113.559 70.8763 113.614 70.5366 113.664 69.9098C114 67.7151 113.442 65.9243 112.322 64.0597C112.472 63.8478 113.532 63.8646 113.853 63.847C114.806 63.7944 115.423 63.7507 116.326 63.3965Z" fill="#FFDAB4"/>
<path d="M113.664 69.9097C115.022 69.8717 116.519 69.7802 117.859 69.7969C117.415 70.4824 116.803 70.5525 116.788 71.2965L116.797 71.3765C116.012 71.7413 114.356 71.5505 113.433 71.4928C113.559 70.8762 113.615 70.5365 113.664 69.9097Z" fill="#FFAD5A"/>
<path d="M124.993 45.9082L125.135 45.9804C125.762 47.2027 126.975 52.3793 127.313 53.89C127.939 56.7813 128.462 59.6937 128.883 62.6216C129.118 64.1559 129.449 65.5861 129.404 67.132C129.679 65.831 130.118 64.8008 130.502 63.5352C131.083 61.6235 131.575 59.5724 132.243 57.6965C132.463 57.0737 133.803 53.6932 134.078 53.4425C134.205 53.7136 133.502 55.6097 133.366 56.0165C132.642 59.1639 131.409 62.3523 130.68 65.5392C130.254 67.3977 129.614 68.3009 129.544 70.3588L128.637 70.3492C128.569 68.762 128.569 67.142 128.45 65.5585C127.95 58.8665 126.158 52.4935 124.993 45.9082Z" fill="#2E6735"/>
<path d="M121.814 61.5303C123.081 61.6829 127.698 68.3695 127.898 69.8018L127.763 69.8824C127.535 69.8567 127.422 69.8377 127.196 69.8977C126.981 69.7379 126.869 69.4577 126.749 69.2224C125.667 67.0829 124.494 65.0299 122.88 63.2383C122.515 62.8328 122.096 62.424 121.79 61.9763C121.676 61.8091 121.757 61.7074 121.814 61.5303Z" fill="#2E6735"/>
<path d="M22.9629 29.2845C22.9259 29.2374 22.8901 29.1895 22.8555 29.1406C21.1537 26.7841 20.9961 24.1165 21.3293 21.2002C21.5662 19.127 23.6527 14.5275 26.2983 14.9379C28.7039 15.311 28.7914 20.0088 28.3427 21.9564C27.6806 24.8298 26.3759 27.8257 23.7767 29.5661C23.5053 32.3671 23.0532 35.153 23.061 37.9814C23.0628 38.6576 23.0503 39.3369 23.0479 40.0137C23.3931 39.3109 23.5895 38.9396 24.0166 38.279C24.0008 36.1024 24.8502 34.1921 26.104 32.4451C27.1969 30.9698 28.8364 29.6056 30.6913 29.3135C32.0187 29.1045 33.4459 29.5929 33.6216 31.0652C33.7723 32.3292 33.1909 33.6182 32.4365 34.6058C31.029 36.4484 28.9869 37.7876 26.788 38.4906C26.4347 38.6031 25.9347 38.8053 25.5955 38.8909C25.4097 38.9378 25.0543 38.8548 24.7028 38.9041C24.2695 39.1728 23.4154 40.8466 23.1619 41.3629C23.3161 43.5852 23.2793 45.2097 23.61 47.5432C24.1368 46.6006 24.2945 46.1175 24.4658 45.0567C24.6122 44.1501 25.1616 43.411 25.5972 42.6389C26.3696 41.2697 29.1937 39.5384 30.6462 40.6294C30.9874 40.8861 31.2106 41.2698 31.2649 41.6934C31.6324 44.6952 27.4268 46.5823 24.9646 46.9153C24.5915 47.1621 23.9393 48.5394 23.781 48.9815L23.7543 49.0579C23.853 49.5549 24.0016 51.0531 24.177 51.2758L23.0496 51.486C22.9996 50.3857 22.6704 47.5735 22.2921 46.5272C22.0947 45.981 21.2068 44.9496 20.7923 44.4657C18.0015 44.5722 16.4821 43.7797 14.2185 42.2805C12.2041 40.9461 9.84624 36.675 13.3892 35.9706C14.723 35.7053 17.1268 36.9904 18.0836 37.8884C19.6717 39.2657 21.0316 41.4397 21.2029 43.6359C21.6355 44.189 22.048 44.8015 22.4701 45.3718C22.2883 43.9065 22.0718 40.0898 22.1501 38.576C21.6988 37.7908 21.2382 36.8389 20.7918 36.0224C18.2874 35.9208 15.435 33.2486 14.2586 31.174C13.2886 29.4638 12.3714 26.5804 14.3571 25.2228C14.7983 24.9212 15.6291 24.9845 16.1109 25.1392C19.0898 26.1992 20.887 29.3953 21.4628 32.359C21.6975 33.5675 21.5056 34.4192 21.5406 35.5688C21.5452 35.721 22.1956 36.8965 22.3246 37.1348C22.1339 35.4182 22.6666 31.055 22.9629 29.2845Z" fill="#C9E9CC"/>
<path d="M9.3203 56.4366C8.83983 55.187 7.83692 54.2519 6.93135 53.27C4.93376 51.1192 3.19759 48.5632 2.50407 45.6775C1.98624 43.8941 2.03587 39.9891 4.84162 40.4763C8.66472 41.1401 11.6437 45.3426 12.5888 48.8786C12.7874 49.6216 12.9384 50.3263 13.0965 51.0435C13.5442 49.3973 13.5084 48.101 14.7813 46.7208C15.6809 45.7453 16.995 45.252 18.0325 46.3142C19.4428 47.7581 19.5041 50.2466 19.5142 52.135C18.5517 52.369 17.5445 52.5198 16.5654 52.6823L15.7676 52.8447C14.9446 52.9886 12.8076 53.2208 12.2898 53.8628C12.1743 54.006 12.1477 54.5114 11.9652 54.8345C11.8676 55.0328 11.6633 55.4728 11.5467 55.6357C11.1684 56.3878 9.73809 58.8847 9.24806 59.5928C9.14519 59.7936 9.0574 59.9738 8.93446 60.1644C7.16734 63.5105 8.32422 62.8669 11.29 63.7955C11.5774 64.6657 12.7276 67.5871 13.2181 68.1805C13.3431 68.3317 13.3771 68.4343 13.3802 68.6341L13.4423 68.7007C13.496 69.2285 13.6305 70.3244 13.6181 70.8387C13.5874 70.6418 13.5552 70.4972 13.5073 70.3037C12.672 69.9065 7.57542 71.1588 6.41434 70.3488C6.1411 70.1582 6.18674 69.8519 6.23169 69.5718C6.71301 69.2909 6.9742 69.1649 7.47939 68.9453C5.69594 68.3565 3.41397 67.4582 2.59943 65.5944C2.17035 64.5268 2.59776 63.3913 3.71571 63.0291C5.37433 62.4917 6.8382 62.9937 8.31909 63.6911C6.52102 61.8087 5.00452 61.2707 2.94096 59.7817C1.80133 58.9593 0.0999101 57.1251 0.0079773 55.6738C-0.216835 52.125 4.36916 52.9998 6.29086 54.2185C7.52207 54.9712 8.27267 55.5925 9.3203 56.4366Z" fill="#4FAF5A"/>
<path d="M5.7207 44.1387C7.66488 46.2473 9.55952 49.8946 10.8469 52.4716C11.1575 53.0933 11.6338 54.3628 11.9647 54.8344C11.8671 55.0327 11.6628 55.4727 11.5461 55.6357C11.2749 55.3307 10.857 54.3721 10.7045 53.973C9.38503 50.5188 7.29459 47.4768 5.7207 44.1387Z" fill="#2E6735"/>
<path d="M8.93445 60.1643C8.32203 59.6537 5.00629 57.1818 4.88281 56.8237L5.00723 56.7744C6.20617 57.0122 8.37382 58.6621 9.24805 59.5927C9.14517 59.7936 9.05738 59.9737 8.93445 60.1643Z" fill="#2E6735"/>
<path d="M16.3728 49.9297C16.4203 50.564 16.1859 52.2039 16.3555 52.6163L16.5653 52.6826L15.7675 52.845C15.7431 52.2399 16.2027 50.5943 16.3728 49.9297Z" fill="#2E6735"/>
<path d="M38.0726 43.0692C38.2676 40.3456 38.7564 36.9416 41.1592 35.1448C41.9207 34.5752 43.0071 34.9504 43.4202 35.7836C44.606 38.175 44.0713 41.5221 43.4437 44.0119C44.1642 43.2292 44.9506 42.4505 46.0173 42.2478C47.9588 41.8791 47.9376 44.4043 47.6122 45.6046C47.2487 46.9456 46.7334 47.8824 45.9811 48.9938L46.1035 48.9331C47.1266 48.4312 49.06 47.957 49.6987 49.2669C50.2206 50.3371 49.4172 51.4219 49.0697 52.3339L39.4885 50.7516C38.4247 50.5804 34.8098 49.8043 33.6921 50.1909C33.2686 50.3373 32.7882 51.9722 32.483 52.5234C32.0618 52.1854 32.0444 51.4239 31.8912 50.9333C31.0235 48.155 32.2809 45.9958 35.2744 48.0542C34.5737 46.4655 33.7355 44.0827 34.2049 42.3766C35.1074 39.0964 37.1693 41.5929 38.0726 43.0692Z" fill="#FFDAB4"/>
<path d="M134.525 31.562C132.116 29.0185 131.494 23.1464 133.845 20.3553C134.618 19.4359 135.665 19.4922 136.484 20.3455C137.61 21.5202 137.818 23.3557 137.827 24.9164C137.799 27.4734 137.086 29.8609 135.243 31.6931C135.151 34.2254 134.743 36.8399 134.505 39.3662C134.422 40.2454 134.342 41.0805 134.157 41.9486C134.514 41.4486 134.701 41.0989 134.991 40.5575C134.625 38.5659 135.916 35.9398 137.183 34.4525C137.979 33.5184 139.286 32.6224 140.54 32.5109C141.633 32.4139 142.565 33.3338 142.56 34.4187C142.496 37.6031 138.568 41.0828 135.51 41.1301C134.806 42.08 134.186 43.169 133.966 44.3389C133.711 45.695 133.324 47.1417 133.236 48.5202C132.94 48.8628 132.638 49.229 132.317 49.5457C132.281 48.6691 132.627 46.736 132.778 45.8205C131.455 44.1947 129.957 43.9851 128.906 42.2162C128.127 41.0453 128.334 39.1002 130.187 39.9248C131.844 40.6625 132.432 43.3654 132.974 44.9443C133.456 41.9384 133.841 41.0267 132.536 38.2074C130.075 38.1091 126.971 35.2212 126.171 32.9644C125.282 30.4556 126.297 28.3369 129.129 29.676C131.27 30.6891 132.637 33.2348 133.063 35.4804C133.295 37.0564 133.148 37.6318 133.723 39.2657C133.996 37.5584 134.135 35.6688 134.317 33.9431C134.401 33.1469 134.405 32.3625 134.525 31.562Z" fill="#FFDAB4"/>
</svg>
