<svg width="86" height="88" viewBox="0 0 86 88" fill="none" xmlns="http://www.w3.org/2000/svg">
<path d="M41.3735 2.13038C41.5232 1.27544 41.8188 0.39941 42.7281 0.0825898C43.1135 -0.0531901 43.5384 -0.0204654 43.8988 0.172748C44.4604 0.480227 44.6695 0.998275 44.8521 1.56466C45.2396 1.49276 45.4487 0.692003 46.7812 0.797107C47.6863 1.22512 47.699 1.82435 47.5652 2.70502C51.9072 2.72876 54.701 3.73919 58.4307 5.90196C59.533 4.78547 60.8401 4.15526 62.4256 4.1355C63.8243 4.11742 65.1724 4.66102 66.1668 5.64469C67.2094 6.67235 67.7969 8.0748 67.7981 9.53879C67.8011 11.023 67.2244 12.3213 66.1825 13.362C67.7107 15.5928 68.8256 18.0802 69.4735 20.7054C73.0754 23.82 75.1214 27.7225 75.4673 32.4911C75.6981 35.7404 74.9502 38.9842 73.3213 41.8049C75.4896 46.9978 76.4158 53.1625 75.304 58.7107C77.9236 59.5044 77.9694 62.9118 76.138 64.6547C77.2818 65.0537 79.2205 65.6539 79.8243 66.7646C80.5602 68.1164 78.0062 69.558 77.0715 69.9039C68.8943 72.9287 59.727 73.6416 51.0659 73.4458C49.3574 73.4072 47.1434 73.1914 45.5199 72.6985C43.7945 72.1747 42.566 71.6245 40.7166 71.3593C35.9474 70.6759 31.1576 70.4867 26.3484 70.3264C25.5174 70.2974 21.7555 69.8418 21.3298 70.2372L21.2969 70.3414C19.6244 70.0449 19.3743 69.9503 17.5831 69.9684C17.7794 69.9377 17.8874 69.9256 18.0745 69.8629L18.0524 69.7924C17.8834 69.749 17.7163 69.699 17.5514 69.6424C16.894 69.4139 15.6593 68.7896 15.4135 68.1194C14.911 66.749 17.3378 66.0029 18.1999 65.6636C17.102 63.9357 14.6501 57.7603 17.7495 57.0991C18.037 55.264 19.2902 54.1129 20.978 55.475C22.0798 54.4348 23.1518 55.293 23.9694 56.1349C24.5489 55.5738 25.5421 55.1543 25.721 54.9344L25.6921 54.6861C25.6774 54.5872 25.6346 54.2413 25.5647 54.2112C25.0863 54.0039 24.3935 53.7176 23.9399 53.5006C22.5616 52.8293 21.3088 51.9259 20.2363 50.8301C18.4506 49.0376 16.7905 46.3672 16.7625 43.7924C16.7341 41.168 19.3377 38.6886 21.9556 38.8013C24.6499 38.9173 27.1092 40.5352 28.9125 42.4349L29.6696 41.2789C29.2796 41.0383 28.9102 40.8049 28.5186 40.5384C25.6292 38.5724 23.4922 35.1596 23.2758 31.6425C23.2488 31.204 23.3796 30.6841 23.3458 30.2606C23.2862 29.5107 23.1212 28.7671 23.1138 28.0097C23.0243 25.2565 23.4076 21.5464 24.472 18.9897C24.0701 18.0761 24.2042 17.3998 25.0662 16.8288C25.1311 16.57 25.2134 16.3063 25.2891 16.0498C23.8981 15.142 23.093 14.0117 22.9429 12.3183C22.8067 10.8943 23.2521 9.47569 24.1778 8.38523C25.048 7.35884 26.2945 6.72574 27.6366 6.62865C29.0608 6.53669 30.2956 7.02189 31.3531 7.96409C33.3274 6.10602 36.246 4.63836 38.8302 3.85918C37.6256 1.76547 39.7468 1.03359 41.3735 2.13038Z" fill="#FF9B34"/>
<path d="M46.7812 0.796875C47.6863 1.22489 47.699 1.82411 47.5652 2.70478C51.9072 2.72853 54.701 3.73895 58.4307 5.90173C59.533 4.78524 60.8401 4.15503 62.4256 4.13527C63.8243 4.11719 65.1724 4.66079 66.1668 5.64445C67.2094 6.67211 67.7969 8.07457 67.7981 9.53856C67.8011 11.0228 67.2244 12.3211 66.1825 13.3618C67.7107 15.5926 68.8256 18.0799 69.4735 20.7051C73.0754 23.8197 75.1214 27.7222 75.4673 32.4909C75.6981 35.7402 74.9502 38.9839 73.3213 41.8047C75.4896 46.9976 76.4158 53.1623 75.304 58.7104C77.9236 59.5041 77.9694 62.9116 76.138 64.6545C77.2818 65.0535 79.2205 65.6537 79.8243 66.7644C80.5602 68.1162 78.0062 69.5578 77.0715 69.9037C68.8943 72.9284 59.727 73.6414 51.0659 73.4455C49.3574 73.407 47.1434 73.1912 45.5199 72.6982C43.7945 72.1745 42.566 71.6243 40.7166 71.3591C35.9474 70.6757 31.1576 70.4865 26.3484 70.3261C25.5174 70.2972 21.7555 69.8416 21.3298 70.237L21.2969 70.3412C19.6244 70.0447 19.3743 69.9501 17.5831 69.9682C17.7794 69.9374 17.8874 69.9254 18.0745 69.8627L18.0524 69.7922C17.8834 69.7488 17.7163 69.6988 17.5514 69.6421C16.894 69.4137 15.6593 68.7894 15.4135 68.1192C14.911 66.7487 17.3378 66.0026 18.1999 65.6633C17.102 63.9355 14.6501 57.76 17.7495 57.0989C18.037 55.2638 19.2902 54.1127 20.978 55.4747C22.0798 54.4345 23.1518 55.2927 23.9694 56.1346C24.5489 55.5736 25.5421 55.1541 25.721 54.9341L25.6921 54.6858C25.6774 54.587 25.6346 54.2411 25.5647 54.2109C25.0863 54.0036 24.3935 53.7174 23.9399 53.5004C22.5616 52.829 21.3088 51.9257 20.2363 50.8299C18.4506 49.0373 16.7905 46.3669 16.7625 43.7922C16.7341 41.1678 19.3377 38.6884 21.9556 38.8011C24.6499 38.917 27.1092 40.535 28.9125 42.4347C28.9947 42.8518 29.2675 42.8001 29.4199 43.0252C29.6375 43.2395 29.725 43.3321 29.9136 43.5792C30.1968 43.9694 30.5058 44.3702 30.7336 44.7928C31.1946 45.3507 31.656 46.4539 31.9739 47.1494C32.4843 48.6759 32.8465 50.1828 32.096 51.7141L32.0703 51.7659C33.1261 51.8196 33.6441 52.1974 34.18 53.0816C34.5187 53.9982 34.5704 54.411 34.2358 55.3403C34.781 55.9508 35.6734 56.8916 36.1536 57.5154C37.608 57.6413 37.9562 60.2261 37.1463 61.4405C37.4892 61.6352 37.7252 61.7967 38.0144 62.0612C39.336 63.2708 40.8356 64.0018 42.6577 63.9367L42.7093 63.9204C43.2118 63.7686 43.2865 63.4003 43.6547 62.9574C43.856 61.4272 44.2573 58.1729 46.4811 58.2349C46.7757 58.2428 46.9975 58.3639 47.2482 58.5043C47.5357 57.9921 47.8623 57.563 48.3866 57.2773C48.8904 57.0055 49.4816 56.9458 50.03 57.1104C50.7779 57.337 51.0948 57.8173 51.4323 58.4621C51.4823 58.441 51.533 58.4199 51.5836 58.3995C52.282 58.1174 52.6888 58.1644 53.3469 58.4435C53.9688 57.6672 54.7522 57.1122 55.6423 56.6873C55.7611 56.6258 55.9352 56.5559 56.0624 56.5005C56.0672 56.759 56.0371 56.9024 56.2492 57.0718L55.5959 57.4316C54.9565 57.933 54.4184 58.3066 53.8489 58.8924C54.049 59.1401 54.1617 59.2703 54.3184 59.5487C54.6028 60.3153 54.6709 60.8047 54.6829 61.6297C56.2335 62.1173 56.2829 63.6776 56.2396 65.0745C56.4981 65.6254 56.6819 66.8518 57.0374 67.3062C58.2795 67.7666 61.2619 67.0766 62.5353 66.6011C63.6032 66.2021 64.5861 65.7321 65.5708 65.2204C65.9981 64.998 67.9006 63.6077 67.947 63.5968L67.9735 63.7137L68.038 63.7131C68.2718 63.3859 68.4562 62.8158 68.8323 62.7254L68.7443 62.9737C69.0016 63.0924 69.9694 61.159 70.1984 61.0843L70.1165 61.4513C70.2659 61.3941 71.0451 59.6 71.2259 59.2884L71.2711 59.2118C71.2012 59.6217 71.0391 60.0791 70.9355 60.5052C71.2874 59.9224 71.3916 59.6229 71.5953 58.9672C71.4097 58.6056 71.5881 58.2777 71.7617 57.9312C73.1164 54.0434 72.4734 50.5404 71.3422 46.739C70.8252 46.7291 70.3147 46.617 69.8405 46.4091C68.8654 45.9857 68.5002 45.4008 68.1356 44.4568C68.4948 42.9756 68.8051 42.8506 69.7446 41.7251C72.11 38.8914 73.763 35.247 73.7443 31.5101C73.7383 30.3594 73.5515 29.3444 73.7486 28.1913C73.5847 27.7076 73.4099 27.2064 73.1718 26.755C72.671 25.6373 71.6538 24.0771 70.8517 23.1533C70.1882 22.3741 69.2167 21.4008 68.3658 20.8283L67.9416 20.5274C68.097 20.3147 68.2049 20.0168 68.3929 19.9008C68.1001 19.7518 67.9126 19.64 67.6348 19.4629C67.5776 18.4315 65.9806 15.716 65.98 15.1252L66.2301 14.9348C66.0023 14.5546 65.7853 14.2212 65.5376 13.8533C64.5517 14.4384 63.4989 14.6176 62.5739 13.819L62.6637 13.6486C63.1584 13.621 63.7701 13.359 64.213 13.1401C65.4545 12.5261 65.9745 11.2053 66.3753 9.96772C66.3217 9.04648 66.2409 8.10085 65.7353 7.29304L65.8546 7.29105C65.977 7.13743 65.93 6.80199 65.9227 6.57991L65.7371 6.39441C65.3177 5.93427 65.1049 5.7812 64.562 5.47553L64.5873 5.78765L64.4963 5.80946C63.1397 5.15871 61.5422 5.52711 60.2965 6.23151C59.6336 6.60654 58.8291 7.56641 58.1144 7.76776C58.0197 7.71858 58.024 7.73732 57.9637 7.66235C57.7986 7.62239 57.7558 7.62294 57.6214 7.51361C57.5654 7.30232 57.6353 7.20481 57.7028 6.96941C57.766 6.84635 57.8118 6.73009 57.8643 6.60281L57.8245 6.51422C55.7339 4.90583 50.3813 3.25592 47.702 3.50169C47.3904 3.49946 47.1205 3.4721 46.836 3.59606C46.739 3.5813 46.6721 3.58009 46.5938 3.51633C46.4708 3.41689 46.9776 2.31637 46.9011 1.92355C46.8589 1.70581 46.7498 1.62861 46.5709 1.51085C46.5865 1.29052 46.6763 0.991957 46.7812 0.796875Z" fill="#4D2903"/>
<path d="M72.0805 65.5276C72.3119 65.5685 72.5445 65.5987 72.7789 65.6186C74.0891 65.7325 75.1262 65.5095 76.138 64.6543C77.2818 65.0533 79.2205 65.6535 79.8243 66.7642C80.5602 68.116 78.0062 69.5576 77.0715 69.9035C68.8943 72.9283 59.727 73.6412 51.0659 73.4453C49.3574 73.4068 47.1434 73.191 45.5199 72.698C43.7945 72.1743 42.566 71.6241 40.7166 71.3589C35.9474 70.6755 31.1576 70.4863 26.3484 70.326C25.5174 70.297 21.7555 69.8414 21.3298 70.2368L21.2969 70.341C19.6244 70.0445 19.3743 69.9499 17.5831 69.968C17.7794 69.9372 17.8874 69.9252 18.0745 69.8625L18.0524 69.792C17.8834 69.7486 17.7163 69.6986 17.5514 69.6419C16.894 69.4135 15.6593 68.7892 15.4135 68.119C14.911 66.7485 17.3378 66.0025 18.1999 65.6632C19.2385 67.247 20.5932 68.6849 22.5257 69.1001C23.4189 69.2918 24.4297 69.2026 25.2415 68.7645C25.7596 68.5457 27.0135 68.445 27.7228 68.3462C30.4181 67.9695 33.286 67.3759 36.0051 67.3669C36.3669 67.3657 37.8757 67.9611 38.344 68.0702C40.4249 68.5541 42.5457 68.9205 44.6804 68.9651C45.7983 71.424 47.8051 72.8981 50.5663 72.7872C51.6101 72.7456 52.3013 72.1755 53.2607 72.0574C59.7698 71.2565 67.4872 70.869 72.0805 65.5276Z" fill="#FFDCA8"/>
<path d="M25.6925 54.6863C25.6778 54.5875 25.6351 54.2415 25.5652 54.2114C25.0867 54.0041 24.3939 53.7178 23.9403 53.5009C22.562 52.8295 21.3092 51.9261 20.2367 50.8303C18.451 49.0378 16.7909 46.3674 16.7629 43.7926C16.7345 41.1683 19.3381 38.6889 21.956 38.8016C24.6503 38.9175 27.1096 40.5354 28.9129 42.4351C28.9951 42.8522 29.2679 42.8005 29.4203 43.0257C29.6379 43.2399 29.7254 43.3326 29.914 43.5796C30.1972 43.9698 30.5062 44.3707 30.734 44.7932C30.5313 44.6663 30.4974 44.6171 30.3797 44.4092C30.2112 44.3592 30.1638 44.34 30.0211 44.2388L29.9668 44.3054C30.027 44.8816 30.2928 45.2164 30.2761 45.3695L30.2877 45.4693C30.6511 45.9553 31.0856 46.9568 31.3173 47.5381C31.1433 47.8222 30.7942 48.4257 30.5474 48.6136C30.4242 48.5576 30.4317 48.5524 30.3421 48.4477L30.2469 48.467C30.6046 49.6104 30.8494 50.4506 30.7228 51.6621L30.3955 52.5487C29.5654 53.9414 27.7767 53.8637 26.3699 53.6588C26.03 53.6612 25.8132 53.6063 25.7458 54.0529C25.7146 54.2602 25.7045 54.4766 25.6925 54.6863Z" fill="#4FAF5A"/>
<path d="M25.6925 54.6863C25.6778 54.5875 25.6351 54.2415 25.5652 54.2114C25.0867 54.0041 24.3939 53.7178 23.9403 53.5009C22.562 52.8295 21.3092 51.9261 20.2367 50.8303C18.451 49.0378 16.7909 46.3674 16.7629 43.7926C16.7345 41.1683 19.3381 38.6889 21.956 38.8016C24.6503 38.9175 27.1096 40.5354 28.9129 42.4351C28.9951 42.8522 29.2679 42.8005 29.4203 43.0257C29.6379 43.2399 29.7254 43.3326 29.914 43.5796C30.1972 43.9698 30.5062 44.3707 30.734 44.7932C30.5313 44.6663 30.4974 44.6171 30.3797 44.4092C30.2112 44.3592 30.1638 44.34 30.0211 44.2388L29.9668 44.3054C30.027 44.8816 30.2928 45.2164 30.2761 45.3695C30.1836 45.2716 29.4312 44.2183 29.2777 44.0071C28.4807 42.9104 26.5113 40.9874 25.281 40.5353C24.4075 40.0134 23.3426 39.6264 22.3253 39.5393C20.9297 39.2628 19.9423 39.8697 18.9898 40.7799L18.7044 41.0395C15.997 43.5258 18.4296 47.8227 20.4373 49.9995C22.0397 51.7429 24.0929 53.0091 26.3699 53.6588C26.03 53.6612 25.8132 53.6063 25.7458 54.0529C25.7146 54.2602 25.7045 54.4766 25.6925 54.6863Z" fill="#493607"/>
<path d="M18.9905 40.7796C19.943 39.8694 20.9304 39.2625 22.326 39.539C23.3433 39.6261 24.4082 40.0131 25.2817 40.535C24.7454 40.7332 23.1514 39.8881 22.4633 39.9287C22.1704 39.946 21.8366 40.2779 21.505 40.3401L21.4138 40.4517L21.4611 40.5552C23.0842 40.6628 24.6151 41.7239 25.8646 42.7067C26.1843 42.9583 26.7336 43.3642 26.9161 43.7108C26.3935 43.3504 25.9562 42.9275 25.4172 42.553C23.8737 41.4803 21.773 40.4538 19.8545 40.7769C19.5749 40.8311 18.9101 41.0506 18.7051 41.0393L18.9905 40.7796Z" fill="#9ED8A5"/>
<path d="M18.9902 40.7796C19.9427 39.8694 20.9301 39.2625 22.3257 39.539C21.7525 39.5526 21.8401 39.5218 21.3766 39.9685C21.2311 40.1088 21.0237 40.3388 20.9454 40.522C20.0607 40.408 19.7382 40.7047 18.9902 40.7796Z" fill="#4FAF5A"/>
<path d="M30.2881 45.4688C30.6516 45.9547 31.0861 46.9563 31.3177 47.5375C31.1438 47.8216 30.7946 48.4252 30.5479 48.613C30.4246 48.5571 30.4321 48.5519 30.3426 48.4472L30.2473 48.4665C29.9605 47.8567 29.6552 47.2559 29.332 46.6647C29.6235 46.3825 30.2685 45.8409 30.2881 45.4688Z" fill="#388340"/>
<path d="M20.2198 41.3634C24.4012 41.0321 28.6105 45.408 29.814 49.1415C30.4021 50.9654 30.0928 52.5661 28.0973 53.1471C26.5182 53.3465 24.7006 52.5679 23.3614 51.7422C21.0504 50.3175 18.9698 47.8261 18.2783 45.1749C18.0708 44.2785 18.0142 43.2473 18.5307 42.4388C18.9519 41.7794 19.4863 41.5259 20.2198 41.3634Z" fill="#394B0E"/>
<path d="M20.5298 41.9191C20.9846 41.89 21.4411 41.9321 21.8829 42.0438C25.3426 42.8823 30.2503 47.9332 29.3264 51.6903C29.0532 51.7753 28.7282 51.8416 28.445 51.9072C24.06 52.1164 18.8225 46.6582 19.3855 42.2178C19.8347 42.0356 20.0539 41.986 20.5298 41.9191Z" fill="#DFE4D4"/>
<path d="M23.0372 43.8584C23.949 44.264 25.356 45.7229 26.2769 46.3244C26.5471 46.5008 27.2037 47.4703 27.1231 47.8567L27.0271 47.9187L26.8702 47.8822C25.4259 47.0401 23.8394 45.5818 22.4873 44.5883C22.6998 44.2416 22.7567 44.147 23.0372 43.8584Z" fill="#FEFCF8"/>
<path d="M21.3969 42.8017C22.5676 42.7452 23.0728 43.541 22.2283 44.4854C21.3645 44.5434 20.5175 43.5903 21.3969 42.8017Z" fill="#FEFCF8"/>
<path d="M22.3527 45.7285C22.7669 45.9127 23.1403 46.4511 22.6653 46.74C22.3823 46.7277 22.4735 46.7347 22.2047 46.5566L22.4182 46.337L22.4084 46.3014L22.0496 46.36L21.9854 46.2977C22.0454 46.0516 22.1868 45.9256 22.3527 45.7285Z" fill="#FEFCF8"/>
<path d="M18.6799 43.0908C18.7373 43.1518 19.0097 44.8296 19.1319 45.1367C20.5175 48.6189 23.7439 51.8748 27.5821 52.3623C28.019 52.4178 28.3497 52.3135 28.7698 52.3195L28.7677 52.3936L28.5051 52.5883C27.8175 52.8824 27.2128 52.9234 26.4727 52.7643C22.6361 51.9398 17.8007 47.324 18.6799 43.0908Z" fill="#6CBC75"/>
<path d="M73.7495 28.1914C75.7098 33.3166 74.4997 39.3771 71.181 43.6072C71.0744 43.7434 70.7712 44.1488 70.7351 44.2863C71.231 44.6584 72.4664 43.082 72.7286 42.7202L72.7774 42.6521C76.4167 51.4105 76.4553 64.7733 66.1586 68.734C62.127 70.2847 57.9772 70.6969 53.7305 71.2122C54.0728 70.8536 54.3042 70.5692 54.538 70.125C54.9478 69.6067 55.2389 68.9612 55.4528 68.3399C55.9271 67.7475 56.1428 65.8557 56.2405 65.0747C56.499 65.6255 56.6828 66.8519 57.0383 67.3063C58.2804 67.7668 61.2628 67.0767 62.5362 66.6012C63.6041 66.2023 64.587 65.7322 65.5717 65.2205C65.9989 64.9981 67.9015 63.6078 67.9479 63.5969L67.9744 63.7139L68.0389 63.7133C68.2727 63.386 68.4571 62.8159 68.8331 62.7255L68.7452 62.9738C69.0025 63.0925 69.9703 61.1592 70.1993 61.0844L70.1174 61.4515C70.2668 61.3942 71.046 59.6001 71.2268 59.2885L71.272 59.212C71.2021 59.6218 71.04 60.0792 70.9363 60.5053C71.2883 59.9225 71.3925 59.623 71.5962 58.9673C71.4106 58.6057 71.589 58.2778 71.7626 57.9313C73.1173 54.0435 72.4743 50.5406 71.3431 46.7391C70.8261 46.7292 70.3156 46.6171 69.8414 46.4092C68.8663 45.9858 68.5011 45.4009 68.1365 44.457C68.4957 42.9757 68.806 42.8508 69.7455 41.7252C72.1109 38.8916 73.7639 35.2471 73.7452 31.5103C73.7392 30.3595 73.5524 29.3445 73.7495 28.1914Z" fill="#E7822B"/>
<path d="M71.5963 58.9676C71.4107 58.606 71.5891 58.2782 71.7626 57.9316L71.9332 57.9708C72.0465 58.2745 71.7729 58.7175 71.5963 58.9676Z" fill="#F39944"/>
<path d="M24.7129 57.2004C25.1714 56.746 25.6046 56.4658 26.1953 56.2217C26.7766 57.3191 27.343 58.143 28.3955 58.8565C29.813 59.7726 31.2056 60.1643 32.7474 59.3381C33.2108 59.86 33.6468 60.4126 34.3764 60.5609C35.4137 60.7724 36.3387 60.0371 36.5116 59.0271C36.613 58.4353 36.4922 58.0062 36.1533 57.5156C37.6077 57.6416 37.9559 60.2264 37.1461 61.4407C37.489 61.6354 37.725 61.7969 38.0142 62.0615C39.3357 63.271 40.8353 64.0021 42.6574 63.937L42.7091 63.9207C43.2115 63.7688 43.2862 63.4006 43.6544 62.9576L43.6412 63.6802C43.6532 64.988 43.8262 66.9551 44.342 68.1671C41.9276 68.0188 39.575 67.6916 37.2626 66.9551C36.3636 66.6688 35.495 66.2627 34.6083 65.989C34.8163 66.1813 35.0537 66.4115 35.2668 66.5929C31.8676 66.8611 29.2127 67.418 25.9595 67.8145C26.2657 67.2751 26.5422 66.7074 26.5519 66.0674C26.798 65.2695 26.7041 64.3902 26.7368 63.5609C26.6927 63.1481 26.2346 60.6314 26.1058 60.3047C25.9832 59.5146 25.1312 57.9284 24.7129 57.2004Z" fill="#E7822B"/>
<path d="M24.7129 57.2004C25.1714 56.746 25.6046 56.4658 26.1953 56.2217C26.7766 57.3191 27.343 58.143 28.3955 58.8565C28.8832 60.0088 29.3702 59.8575 29.8691 60.8959C30.0657 61.3051 29.7538 62.4321 29.8474 62.675C30.1977 62.5563 30.487 62.0211 30.9741 61.9904L31.089 62.082C31.1101 62.3893 31.0109 62.2646 30.8796 62.6015C30.9824 62.6828 31.0602 62.7335 31.1366 62.8413L31.0872 62.9287C31.011 62.8889 30.9388 62.8552 30.8555 62.8329C30.0269 63.4289 28.685 64.5903 27.5643 64.5107C27.2761 64.4896 26.9845 64.1437 26.7872 63.9352C26.7744 63.8219 26.7634 63.6676 26.7368 63.5609C26.6927 63.1481 26.2346 60.6314 26.1058 60.3047C25.9832 59.5146 25.1312 57.9284 24.7129 57.2004Z" fill="#F39944"/>
<path d="M36.8389 62.5605C37.1181 62.6329 38.5235 63.2428 38.7325 63.4416C38.2076 63.4736 37.1704 62.936 36.8389 62.5605Z" fill="#F8A34C"/>
<path d="M47.7064 59.5643C47.9276 58.4674 48.652 57.5309 49.8934 57.9329C50.1887 58.098 50.261 58.1456 50.487 58.4126C50.6021 58.6235 50.6497 58.7055 50.725 58.9375C50.8245 59.2437 50.7443 59.8216 50.9179 60.0199L51.0451 60.0518L51.1041 60.0175C51.4645 60.3122 51.8134 59.313 52.7692 59.592C52.8897 59.6685 53.0536 59.765 53.1585 59.8542C53.1006 60.0259 53.3622 60.9076 53.4206 61.1776C53.5134 61.6067 53.3272 62.7397 53.74 62.9265C53.8835 62.8705 53.8401 62.9048 53.9449 62.8024L54.4536 62.2642L54.9875 62.8428C55.0785 65.9983 54.0956 69.2226 51.3886 71.0577C49.7765 72.1503 47.6142 71.3849 46.3722 70.082L46.2951 70.085C44.7788 68.4198 44.2762 65.3366 44.4468 63.1375C44.5486 61.8309 44.768 60.0669 45.7834 59.1424C46.4373 58.5464 46.9495 59.4413 47.2502 59.9108C47.3328 60.0386 47.3527 60.0187 47.4865 60.0326C47.6594 59.8753 47.6341 59.8126 47.7064 59.5643Z" fill="#D47528"/>
<path d="M47.7061 59.5643C47.9272 58.4674 48.6516 57.5309 49.893 57.9329L50.0322 58.2589L49.9925 58.3457C49.4302 58.4012 48.9668 58.1559 48.5636 58.6452C48.3581 58.8935 48.0315 59.4908 47.8067 59.6499C47.7163 59.5908 47.7446 59.6246 47.7061 59.5643Z" fill="#F39944"/>
<path d="M50.4864 58.4121C50.6015 58.623 50.6491 58.705 50.7244 58.937C50.8239 59.2432 50.7437 59.8211 50.9173 60.0194L51.0444 60.0513C50.986 60.1942 50.9769 60.2557 50.8498 60.3418C50.3303 60.2846 50.3285 59.465 50.2923 59.0515C50.2604 58.6923 50.255 58.667 50.4864 58.4121Z" fill="#B75C12"/>
<path d="M48.6786 63.965C52.0817 63.7546 52.8272 69.1563 49.7109 70.1019C46.6092 70.3628 45.3828 65.0793 48.6786 63.965Z" fill="#82420C"/>
<path d="M49.1461 60.1572C50.3701 60.1633 50.4948 62.1532 49.3661 62.8463C47.9354 62.7511 47.9174 60.7267 49.1461 60.1572Z" fill="#82420C"/>
<path d="M51.9724 61.3516C53.2633 61.5981 53.1228 63.3036 52.0881 63.9412C50.7129 63.7676 50.9401 61.9199 51.9724 61.3516Z" fill="#82420C"/>
<path d="M46.2368 60.3858C47.7 60.3357 47.6307 62.1745 46.8165 62.9869C45.4967 63.0658 45.4841 61.203 46.2368 60.3858Z" fill="#82420C"/>
<path d="M19.9271 55.7031L20.3031 55.9297C20.5817 56.2009 20.6185 56.7252 20.681 57.1158C20.7954 57.1971 20.7446 57.1724 20.8967 57.1857C21.0515 57.044 21.0044 57.0826 21.0773 56.8554C21.4048 56.9995 21.4289 56.028 22.5908 56.3076L22.6958 55.996C24.1313 57.1103 25.2633 59.9724 26.2167 61.5218C26.0719 61.0102 26.0021 60.8384 26.1069 60.3045C26.2357 60.6311 26.6938 63.1478 26.7379 63.5606C26.7052 64.3899 26.7991 65.2692 26.553 66.0671C26.1589 66.7041 25.5273 67.5262 24.9648 68.024C24.6105 68.2138 24.2235 68.3349 23.8241 68.3813C22.8155 68.5031 21.8968 68.2349 21.1012 67.6123C18.7214 66.2931 16.3571 61.0102 17.2572 58.203C17.3144 58.0246 17.4354 57.9493 17.5986 57.8914C17.9876 57.9396 18.17 58.3271 18.4795 58.2162C18.6014 58.0077 18.5461 57.7823 18.5242 57.5274L18.5771 57.5587C18.7813 57.4075 18.8604 56.6873 19.0439 56.4215C19.3915 55.9177 20.006 56.3516 19.9271 55.7031Z" fill="#D47528"/>
<path d="M22.6962 55.9961C24.1316 57.1104 25.2637 59.9725 26.2171 61.5219C26.0723 61.0103 26.0024 60.8385 26.1073 60.3045C26.2361 60.6312 26.6942 63.1479 26.7383 63.5607C26.7056 64.39 26.7994 65.2693 26.5534 66.0672C26.1593 66.7042 25.5277 67.5262 24.9651 68.024C24.6108 68.2139 24.2238 68.335 23.8245 68.3814C22.8159 68.5032 21.8972 68.235 21.1016 67.6124C21.7665 67.6347 22.3687 68.0717 23.2514 67.9083C23.9514 67.8089 24.7565 67.4352 25.1445 66.8169C26.3345 64.9215 25.7342 62.7212 24.9671 60.7981C24.643 59.9851 24.4207 59.327 23.9754 58.5707C23.6997 58.1024 22.6291 56.7669 22.5912 56.3077L22.6962 55.9961Z" fill="#B75C12"/>
<path d="M20.3023 55.9297C20.581 56.2009 20.6177 56.7252 20.6803 57.1157C20.2825 56.8801 20.108 56.3582 20.3023 55.9297Z" fill="#B75C12"/>
<path d="M21.2322 61.0264C24.0679 61.2578 25.3317 66.419 22.5105 66.7468C19.5167 66.187 18.5455 61.3162 21.2322 61.0264Z" fill="#82420C"/>
<path d="M19.65 57.6846C20.7522 57.6978 21.2756 59.3473 20.4122 60.0765C20.0986 60.0524 19.9339 59.9958 19.7082 59.7547C19.3902 59.4148 19.2228 58.961 19.244 58.4964C19.2658 58.0926 19.3677 57.9431 19.65 57.6846Z" fill="#82420C"/>
<path d="M22.0065 57.728C23.1165 57.6955 23.6229 59.3986 22.7511 60.1037C22.4558 60.0856 22.2922 60.0091 22.0788 59.7927C21.7595 59.4625 21.589 59.0159 21.6067 58.5573C21.6205 58.1577 21.7282 57.9877 22.0065 57.728Z" fill="#82420C"/>
<path d="M17.9297 58.9521C18.9096 59.1173 19.4578 60.5763 18.5892 61.311C17.7853 60.9759 17.0668 59.518 17.9297 58.9521Z" fill="#82420C"/>
<path d="M54.4534 62.2646C55.9648 62.4587 55.3978 65.7788 55.2031 66.8123C55.0368 67.694 54.7252 68.5504 54.4329 69.3966C54.7608 69.0121 55.003 68.6812 55.2947 68.2684L55.4526 68.3407C55.2387 68.962 54.9476 69.6075 54.5378 70.1258L54.3564 70.0282C53.8375 70.1378 52.9143 71.0328 52.4032 71.3426C50.6658 72.3936 48.465 72.0887 46.9542 70.7761C46.7132 70.5663 46.4631 70.3572 46.2949 70.0854L46.3721 70.0824C47.6141 71.3854 49.7764 72.1507 51.3884 71.0581C54.0955 69.223 55.0784 65.9988 54.9874 62.8432L54.4534 62.2646Z" fill="#B75C12"/>
<path d="M57.9639 7.66239C58.1718 7.46417 58.4677 7.05677 58.6545 6.8145C60.0026 5.06732 62.5921 4.39059 64.5621 5.47557L64.5874 5.78769L64.4964 5.8095C63.1399 5.15875 61.5423 5.52716 60.2967 6.23155C59.6338 6.60659 58.8293 7.56645 58.1145 7.7678C58.0199 7.71862 58.0241 7.73736 57.9639 7.66239Z" fill="#F2CFA3"/>
<path d="M31.3165 47.5381C31.9174 48.905 32.1036 50.5735 31.2284 51.8641C31.0576 51.7321 30.9331 51.7176 30.722 51.6622C30.8486 50.4506 30.6038 49.6105 30.2461 48.467L30.3414 48.4477C30.4309 48.5524 30.4234 48.5577 30.5466 48.6136C30.7934 48.4257 31.1426 47.8222 31.3165 47.5381Z" fill="#388340"/>
<path d="M66.2306 14.9355C66.8615 16.0422 68.1765 18.6712 68.3934 19.9015C68.1005 19.7526 67.9131 19.6407 67.6353 19.4636C67.5781 18.4322 65.9811 15.7168 65.9805 15.1259L66.2306 14.9355Z" fill="#FABA68"/>
<path d="M66.3757 9.96777C66.454 10.1835 66.3799 10.2984 66.3227 10.5577C66.6294 10.3588 66.4649 10.6328 66.8801 10.28L66.7174 10.9746C65.9647 12.9235 64.7661 13.7583 62.6641 13.6487C63.1588 13.6211 63.7705 13.359 64.2134 13.1401C65.4549 12.5261 65.9749 11.2053 66.3757 9.96777Z" fill="#B75C12"/>
<path d="M66.88 10.2803L66.7173 10.9748C66.4642 10.8738 66.4588 11.0407 66.29 10.9009L66.3226 10.558C66.6293 10.3591 66.4648 10.6331 66.88 10.2803Z" fill="#B75C12"/>
<path d="M65.9228 6.58008C66.7695 7.64131 67.0473 8.82482 66.893 10.1721L66.8798 10.2801C66.4645 10.6329 66.6291 10.359 66.3223 10.5578C66.3796 10.2985 66.4537 10.1836 66.3754 9.96789C66.3217 9.04666 66.241 8.10102 65.7354 7.29321L65.8547 7.29122C65.977 7.1376 65.93 6.80216 65.9228 6.58008Z" fill="#D47528"/>
<path d="M53.2816 59.4277C54.2995 60.7379 53.6559 62.2144 53.9451 62.802C53.8403 62.9045 53.8837 62.8701 53.7402 62.9262C53.3274 62.7394 53.5136 61.6064 53.4208 61.1773C53.3624 60.9073 53.1008 60.0256 53.1587 59.8538C53.2165 59.7056 53.2425 59.5814 53.2816 59.4277Z" fill="#B75C12"/>
<path d="M25.9583 55.6826L26.1962 56.2214C25.6055 56.4655 25.1723 56.7457 24.7138 57.2001L24.3691 56.6848C24.928 56.2576 25.3228 55.9803 25.9583 55.6826Z" fill="#FABA68"/>
<path d="M51.1035 60.017C51.5091 59.3125 51.9177 58.7864 52.824 59.0895C52.8439 59.2872 52.8909 59.4102 52.812 59.5632L52.7686 59.5916C51.8128 59.3125 51.4639 60.3117 51.1035 60.017Z" fill="#F39944"/>
<path d="M18.5242 57.5271C18.4472 56.5092 18.7031 55.5769 19.9272 55.7029C20.0061 56.3513 19.3915 55.9174 19.0439 56.4212C18.8604 56.687 18.7814 57.4072 18.5772 57.5585L18.5242 57.5271Z" fill="#F39944"/>
<path d="M21.0771 56.8554C21.2221 55.7767 21.7693 55.5916 22.6957 55.996L22.5907 56.3076C21.4288 56.028 21.4047 56.9995 21.0771 56.8554Z" fill="#F39944"/>
<path d="M56.0631 56.5C56.0679 56.7585 56.0378 56.902 56.2499 57.0713L55.5967 57.4311C55.6961 57.1762 55.6937 56.949 55.6431 56.6868C55.7618 56.6254 55.936 56.5554 56.0631 56.5Z" fill="#82420C"/>
<path d="M30.7228 51.6621C30.9339 51.7176 31.0584 51.732 31.2292 51.864C30.9778 52.128 30.7243 52.3781 30.3955 52.5486L30.7228 51.6621Z" fill="#388340"/>
<path d="M52.824 59.0898C52.9861 59.1971 53.1452 59.2899 53.2808 59.4279C53.2416 59.5816 53.2157 59.7058 53.1579 59.854C53.053 59.7648 52.8891 59.6684 52.7686 59.5919L52.8119 59.5635C52.8909 59.4105 52.8439 59.2875 52.824 59.0898Z" fill="#E7822B"/>
<path d="M28.8504 54.3271C29.2584 55.1323 29.75 54.6622 30.5498 54.708C31.6838 55.1661 31.2638 56.0188 30.3255 56.3907C30.1182 56.4341 30.031 56.4274 29.8977 56.5751C29.9522 56.7095 30.0425 56.7685 30.189 56.8089C31.0461 57.0434 31.2519 55.8272 32.1238 56.4817C32.8245 57.7569 31.2807 57.7623 30.9395 58.2306C31.2835 58.7392 32.3494 57.9184 32.5285 58.048C32.6088 58.723 32.0744 59.0358 31.4802 59.093C30.3929 59.1973 29.0261 58.5819 28.2681 57.8304C27.1461 56.974 26.7202 55.6572 26.3984 54.3579C26.6226 54.4169 26.8696 54.4471 27.1002 54.482L27.314 54.5194C27.8909 54.4941 28.291 54.473 28.8504 54.3271Z" fill="#D47528"/>
<path d="M32.1248 56.4814C32.8255 57.7567 31.2817 57.7621 30.9405 58.2304C31.2845 58.739 32.3504 57.9182 32.5295 58.0478C32.6098 58.7227 32.0754 59.0355 31.4812 59.0928C30.3939 59.197 29.0271 58.5817 28.2691 57.8302C28.3069 57.6994 27.8766 57.0142 27.7598 56.7828L27.9316 56.7707C28.7811 57.7241 30.2423 58.8095 31.5575 57.3716C31.746 57.1655 31.8452 56.8201 32.0768 56.5393L32.1248 56.4814Z" fill="#B75C12"/>
<path d="M26.3984 54.3584C26.6226 54.4175 26.8696 54.4476 27.1002 54.4825C26.981 55.2612 27.1623 55.5378 27.5048 56.2387C27.5574 56.3592 27.6928 56.6943 27.7588 56.7835C27.8756 57.0149 28.3059 57.7002 28.2681 57.8309C27.1461 56.9746 26.7202 55.6577 26.3984 54.3584Z" fill="#FABA68"/>
<path d="M30.5515 54.707C31.6855 55.1651 31.2655 56.0178 30.3271 56.3897C30.5287 55.426 30.7428 55.9274 30.5515 54.707Z" fill="#B75C12"/>
<path d="M27.1001 54.4824L27.314 54.5198C27.4453 54.5409 27.5642 54.562 27.6952 54.5891C27.536 55.4117 27.4787 55.2496 27.5048 56.2386C27.1622 55.5377 26.9809 55.2611 27.1001 54.4824Z" fill="#F39944"/>
<path d="M74.9885 59.8598C75.0578 59.5849 75.0024 59.6253 75.1808 59.4771C75.9304 59.3957 76.5029 60.7818 76.5976 61.4092C76.6126 61.5852 76.6126 61.819 76.6 61.9944C76.5361 62.8206 76.1462 63.5866 75.5176 64.126C74.6547 64.8601 73.7013 64.9052 72.6328 64.8239C73.6742 63.3823 74.4901 61.5641 74.9885 59.8598Z" fill="#E7822B"/>
<path d="M74.9893 59.8598C75.0586 59.5849 75.0031 59.6253 75.1815 59.4771C75.9312 59.3957 76.5037 60.7818 76.5983 61.4092C76.3319 61.5514 76.171 61.7166 75.9468 61.9166C75.7691 61.1482 75.5515 60.4504 74.9893 59.8598Z" fill="#FABA68"/>
<path d="M31.3486 54.3145C31.539 54.1084 31.6356 54.0192 31.7667 53.7637C32.5731 54.6297 33.3751 55.4999 34.1726 56.3744C34.6337 56.8782 35.3465 57.6183 35.7211 58.1613C35.7806 58.3156 35.8089 58.4054 35.8162 58.5735C35.8321 58.9472 35.6905 59.3106 35.4259 59.5751C34.5545 60.4593 33.7242 59.3727 33.1511 58.7814C33.596 57.7105 32.9168 57.8738 33.0096 56.8644C33.0479 56.4479 32.7182 56.1255 32.4412 55.8386C32.2396 55.7609 32.0423 55.735 31.9771 55.5421C31.7537 54.8798 31.8627 54.8213 31.3486 54.3145Z" fill="#4FAF5A"/>
<path d="M32.4404 55.8389C33.3083 56.1782 33.1104 56.5856 33.4706 57.2473C33.709 57.6854 34.6063 58.6184 34.9937 58.948C35.2205 58.7021 35.4886 58.3936 35.7203 58.1615C35.7798 58.3158 35.8081 58.4056 35.8154 58.5738C35.8313 58.9474 35.6897 59.3108 35.4251 59.5754C34.5537 60.4595 33.7234 59.3729 33.1503 58.7817C33.5952 57.7107 32.916 57.8741 33.0088 56.8646C33.0471 56.4482 32.7174 56.1257 32.4404 55.8389Z" fill="#388340"/>
<path d="M32.2152 53.2334C31.9633 53.0194 31.7065 52.8887 31.714 52.5439L31.8387 52.4349C32.1865 52.3583 32.5495 52.4312 32.8644 52.5903L33.0351 52.7139C33.7665 53.2141 33.7312 54.0289 33.7069 54.8244C33.2984 54.3809 32.8504 53.912 32.4573 53.46L32.2152 53.2334Z" fill="#AE5912"/>
<path d="M32.2152 53.2334C31.9633 53.0194 31.7065 52.8887 31.714 52.5439L31.8387 52.4349C32.1865 52.3583 32.5495 52.4312 32.8644 52.5903C32.545 52.8483 32.4668 52.9134 32.2152 53.2334Z" fill="#D47528"/>
<path d="M32.864 52.5908L33.0347 52.7144C32.8688 53.0284 32.8024 53.0724 32.5029 53.2664L32.4894 53.2393L32.4569 53.4605L32.2148 53.2339C32.4664 52.9139 32.5446 52.8488 32.864 52.5908Z" fill="#B75C12"/>
<path d="M30.9218 52.9639C31.1393 53.0904 31.2102 53.1796 31.2419 53.4159C31.1696 53.6804 30.9721 53.8727 30.7918 54.0818C30.4894 54.0691 30.1814 54.0878 29.8787 54.0993C29.7334 54.1294 29.7912 54.1264 29.6397 54.0884L29.6309 53.9986C30.0789 53.6075 30.4213 53.4906 30.8619 53.0277L30.9218 52.9639Z" fill="#388340"/>
<path d="M41.3736 2.13038C41.5234 1.27544 41.819 0.39941 42.7282 0.0825899C43.1137 -0.0531901 43.5385 -0.0204654 43.8989 0.172748C44.4606 0.480227 44.6697 0.998276 44.8523 1.56466C44.7281 1.79066 44.5769 1.91233 44.3913 2.09199C44.4111 2.34378 44.416 2.65066 44.5009 2.88075C44.6889 2.74889 44.7052 2.74732 44.9294 2.68181C44.8173 2.9914 44.6486 3.32739 44.4117 3.55995C44.2804 3.39947 44.2876 3.40658 44.2267 3.20637C44.3346 2.41827 44.1984 1.57135 43.6506 0.971879L43.3427 0.783788C43.3415 1.2834 43.2914 1.22952 42.8606 1.46468C42.7277 1.75432 42.335 2.71406 42.1975 2.92656C42.1073 2.89311 42.1432 2.91969 42.0864 2.85158C42.0844 3.09211 42.1077 3.112 41.9784 3.2403C41.6347 3.27598 41.191 2.77517 40.7363 2.5294L40.6604 2.48884C39.936 2.65488 39.5093 2.67036 39.4638 3.51072C39.6722 3.72514 40.0577 4.05914 40.1304 4.31973C40.0355 4.50541 40.1031 4.42791 39.8966 4.53645C40.0075 4.67585 40.1161 4.751 40.1078 4.8837C39.6331 5.11531 39.1077 5.30732 38.6273 5.50818C33.5975 7.61057 29.2695 11.4265 27.0061 16.4357C26.8665 16.745 26.6786 17.0719 26.5272 17.386C26.5507 17.5626 26.797 17.8481 26.7944 17.88C26.793 17.8989 25.9328 19.7073 25.8367 19.9832C24.8121 22.9245 24.1249 27.296 24.8051 30.3568C24.6354 30.8534 24.5604 31.0056 24.6793 31.5297L24.6958 31.6049C24.8002 31.8153 24.5899 32.685 24.9827 33.1603C25.1601 33.8577 25.5141 35.2783 25.9468 35.8221L26.0571 35.6785C26.2861 35.7369 27.2705 37.0206 27.6342 37.3296C29.1509 38.6182 31.3543 39.9266 33.3324 40.1401C34.4979 41.5235 36.1068 42.4601 37.8852 42.7905C38.0389 42.811 38.5679 42.8728 38.6882 42.9081L38.9728 43.1168C39.8503 43.1935 40.8577 43.2942 41.7345 43.2871C41.5293 43.506 40.8792 43.6027 40.539 43.6894C37.3512 43.9833 33.6582 43.1121 30.7521 41.8375L30.2912 42.7937C30.1686 43.0572 30.0428 43.3191 29.9137 43.5794C29.7251 43.3323 29.6376 43.2397 29.42 43.0255C29.2676 42.8003 28.9948 42.852 28.9126 42.4349L29.6697 41.2789C29.2797 41.0384 28.9104 40.8049 28.5188 40.5384C25.6293 38.5724 23.4924 35.1596 23.2759 31.6425C23.2489 31.204 23.3797 30.6841 23.346 30.2606C23.2864 29.5107 23.1214 28.7671 23.1139 28.0097C23.0245 25.2565 23.4077 21.5464 24.4721 18.9898C24.0702 18.0761 24.2044 17.3998 25.0663 16.8288C25.1312 16.57 25.2135 16.3063 25.2892 16.0498C23.8982 15.142 23.0931 14.0117 22.943 12.3183C22.8068 10.8943 23.2522 9.47569 24.178 8.38524C25.0481 7.35884 26.2947 6.72574 27.6367 6.62865C29.061 6.53669 30.2957 7.02189 31.3533 7.96409C33.3275 6.10602 36.2461 4.63836 38.8303 3.85918C37.6257 1.76547 39.7469 1.03359 41.3736 2.13038Z" fill="#4D2903"/>
<path d="M31.2432 9.04308C32.1313 8.40408 32.8162 7.73603 33.8617 7.04568C34.9451 6.33026 38.7528 4.29567 39.8973 4.53625C40.0083 4.67565 40.1168 4.7508 40.1085 4.8835C39.6338 5.11511 39.1084 5.30711 38.628 5.50798C33.5982 7.61037 29.2702 11.4263 27.0069 16.4355C26.8672 16.7448 26.6794 17.0717 26.5279 17.3858C26.5515 17.5624 26.7977 17.8479 26.7952 17.8798C26.7937 17.8987 25.9335 19.7071 25.8374 19.983C24.8128 22.9243 24.1257 27.2958 24.8059 30.3566C24.6362 30.8532 24.5611 31.0054 24.68 31.5295L24.6965 31.6047C24.8009 31.8151 24.5906 32.6848 24.9834 33.1601C25.1609 33.8575 25.5149 35.2781 25.9476 35.8219C26.4326 36.7379 27.2247 37.9161 27.8888 38.7146C27.9351 38.9941 28.0302 39.0069 28.1456 39.2293C26.9456 38.2564 25.963 37.0426 25.2613 35.6663C24.6036 34.3789 24.1515 33.0095 23.9959 31.5504C23.9565 31.1031 24.1347 30.5301 24.0801 30.0986C23.5881 26.2057 24.0369 22.6972 25.2475 18.9492C24.2655 17.6958 25.5484 17.4767 25.7644 16.9666C26.6099 14.9705 27.639 13.102 29.0228 11.4232C29.7171 10.5473 30.3227 9.92912 31.1163 9.13463L31.2432 9.04308Z" fill="#F2CFA3"/>
<path d="M28.7052 7.5459C29.4135 7.66215 29.9201 7.90442 30.517 8.30821C30.7084 8.45381 30.777 8.49654 30.9286 8.67794C31.0486 8.87495 31.0592 8.91888 31.2437 9.04339L31.1167 9.13494C30.3232 9.92943 29.7176 10.5476 29.0233 11.4236L28.7375 11.024C28.2583 11.1962 27.8399 12.3081 27.5154 12.1233C27.4993 12.6033 26.5279 13.4202 26.5233 13.8062C26.2257 14.2778 25.9114 14.8321 25.6921 15.3459C25.4706 15.1899 25.1289 14.9683 24.9546 14.7775C23.8885 13.9183 23.5618 12.0911 23.858 10.8058C24.3171 10.4091 25.2203 8.65733 25.8585 8.65184L25.8865 8.82583C26.1796 8.73423 26.5794 8.28977 26.9809 8.13687C27.4893 7.94335 28.4395 8.03381 28.7052 7.5459Z" fill="#E7822B"/>
<path d="M25.6552 11.0318C26.1965 11.1563 27.0005 10.8306 27.5098 11.2612C27.6193 11.4481 27.4924 11.7955 27.5154 12.1223C27.4992 12.6022 26.5278 13.4191 26.5233 13.8051C25.5341 13.0312 25.2019 12.3734 25.5868 11.112L25.6552 11.0318Z" fill="#82420C"/>
<path d="M24.6562 13.5167C24.7946 12.8252 25.0744 11.585 25.587 11.1133C25.202 12.3747 25.5342 13.0325 26.5234 13.8065C26.2258 14.2781 25.9115 14.8324 25.6922 15.3461C25.4707 15.1902 25.129 14.9686 24.9547 14.7778C24.9904 14.5113 24.7473 13.813 24.6562 13.5167Z" fill="#B75C12"/>
<path d="M25.6543 11.0332C26.3967 9.77155 27.8866 10.1323 28.7366 11.0244C28.2574 11.1965 27.839 12.3085 27.5145 12.1236C27.4915 11.7969 27.6184 11.4495 27.509 11.2626C26.9997 10.832 26.1956 11.1576 25.6543 11.0332Z" fill="#4D2903"/>
<path d="M30.5155 8.30859C30.7069 8.4542 30.7755 8.49693 30.9271 8.67833C31.0471 8.87534 31.0577 8.91927 31.2422 9.04378L31.1152 9.13533C30.9021 9.19342 30.4145 9.33806 30.2159 9.36139C30.1065 9.21638 30.0342 9.09423 29.9397 8.93868L29.835 8.70135L29.8906 8.60842C30.1931 8.54791 30.3092 8.54821 30.5155 8.30859Z" fill="#D47528"/>
<path d="M30.928 8.67773C31.048 8.87474 31.0585 8.91868 31.243 9.04319L31.1161 9.13473C30.9029 9.19283 30.4153 9.33747 30.2168 9.36079L30.4686 8.88867C30.6047 8.78537 30.7666 8.73782 30.928 8.67773Z" fill="#B75C12"/>
<path d="M29.9414 8.93827C30.2196 8.76422 30.1802 8.79882 30.4694 8.88885L30.2177 9.36098C30.1082 9.21598 30.0359 9.09382 29.9414 8.93827Z" fill="#B75C12"/>
<path d="M25.9463 35.8223L26.0565 35.6787C26.2856 35.737 27.27 37.0208 27.6337 37.3298C29.1503 38.6184 31.3537 39.9268 33.3319 40.1403C34.4974 41.5237 36.1063 42.4603 37.8846 42.7907C37.4456 42.9255 37.0912 42.6578 36.6424 42.7912C35.3277 42.767 30.7119 41.2465 29.6742 40.3042C29.1861 40.0417 28.5732 39.5847 28.1443 39.2297C28.0289 39.0073 27.9338 38.9945 27.8876 38.715C27.2235 37.9165 26.4313 36.7383 25.9463 35.8223Z" fill="#E7822B"/>
<path d="M27.8887 38.7148C28.1587 38.9674 29.6805 40.155 29.7364 40.2571L29.6753 40.304C29.1872 40.0415 28.5743 39.5845 28.1454 39.2295C28.03 39.0071 27.935 38.9943 27.8887 38.7148Z" fill="#FABA68"/>
<path d="M23.8574 10.8056C24.4872 8.4557 26.2806 7.20451 28.7046 7.54568C28.4389 8.03359 27.4887 7.94314 26.9803 8.13665C26.5787 8.28955 26.179 8.73401 25.8859 8.82561L25.8579 8.65162C25.2197 8.65711 24.3165 10.4089 23.8574 10.8056Z" fill="#FABA68"/>
<path d="M42.0873 2.8513C42.082 2.75934 42.0796 2.66725 42.0802 2.57516C42.0861 1.74783 42.3181 0.726857 43.3435 0.783507C43.3423 1.28311 43.2923 1.22924 42.8614 1.4644C42.7286 1.75404 42.3359 2.71378 42.1984 2.92628C42.1082 2.89283 42.1441 2.9194 42.0873 2.8513Z" fill="#FABA68"/>
<path d="M29.4199 43.0261C29.6616 42.6661 30.037 41.8562 30.4333 41.7085C30.5073 41.681 30.6604 41.7896 30.752 41.8381L30.2912 42.7944C30.1685 43.0578 30.0427 43.3197 29.9137 43.5801C29.725 43.333 29.6375 43.2404 29.4199 43.0261Z" fill="#FABA68"/>
<path d="M39.4635 3.51126C39.2745 3.1948 39.1481 3.02557 39.225 2.65072C39.5458 2.11917 40.1836 2.34065 40.66 2.48938C39.9357 2.65542 39.5089 2.67091 39.4635 3.51126Z" fill="#FABA68"/>
<path d="M36.6445 42.7904C37.0933 42.657 37.4477 42.9247 37.8867 42.7899C38.0405 42.8104 38.5694 42.8722 38.6898 42.9074L38.9743 43.1161C38.3176 43.0314 37.2445 42.9328 36.6445 42.7904Z" fill="#F39944"/>
<path d="M37.6914 30.8311C38.5243 30.717 38.8338 30.6841 39.6894 30.759C40.6331 30.599 42.601 31.4624 43.3974 32.0282C44.7708 33.006 45.7001 34.4886 45.9815 36.1507C46.2111 37.5394 45.958 39.1463 45.1125 40.2908C43.9838 41.8173 42.2884 42.5647 40.4493 42.8241C39.9398 42.8959 39.1885 42.9796 38.6893 42.9085C38.569 42.8733 38.04 42.8115 37.8863 42.7909C36.1079 42.4606 34.4991 41.524 33.3336 40.1406C32.9408 39.5979 32.4778 38.8557 32.4144 38.1741C32.0122 36.687 32.3289 35.413 32.7945 33.9803L33.0114 33.9566L33.0491 33.9266C33.164 33.5374 33.4873 33.064 33.7791 32.7845C33.9822 32.65 34.1301 32.5202 34.3154 32.3646C34.3438 32.3102 34.3944 32.1612 34.4188 32.0961C35.2456 31.4879 36.6721 30.9334 37.6914 30.8311Z" fill="#D47528"/>
<path d="M34.3143 32.3645L34.4053 32.3369L34.5725 32.2848C34.8444 32.1996 35.0822 32.0033 35.3166 31.9688C35.1154 32.1195 34.9092 32.2637 34.6986 32.401L34.7062 32.4728C35.1151 32.4811 35.1615 32.1524 35.3599 32.2339C33.9101 33.2797 33.4644 33.8653 32.7786 35.5243L32.7412 35.5099C32.8346 34.9016 33.0153 34.5297 33.0481 33.9265C33.1629 33.5373 33.4863 33.0638 33.778 32.7843C33.9811 32.6499 34.1291 32.5201 34.3143 32.3645Z" fill="#F8A34C"/>
<path d="M32.7945 33.9798L33.0114 33.9561C32.5965 34.9585 32.3931 35.7968 32.3989 36.9055C32.4007 37.2496 32.4567 37.8682 32.4144 38.1736C32.0122 36.6865 32.3289 35.4125 32.7945 33.9798Z" fill="#95490E"/>
<path d="M37.1311 36.7274C36.2871 36.5398 35.4372 36.2726 34.9148 35.5279C34.4702 34.9157 34.6299 34.1179 35.3265 33.8491C36.2859 33.479 38.6755 33.1753 39.6613 33.5938C41.5976 34.4159 39.513 36.183 38.4861 36.5486C38.3167 36.6104 38.1432 36.6609 37.967 36.6998C38.0188 38.0733 38.3083 39.0682 39.064 40.2234C39.6723 40.303 41.0929 40.6847 41.303 41.3314L41.2709 41.4471C40.8448 41.6822 39.4199 41.0232 38.8245 40.9092C38.4779 41.0653 38.4168 41.0939 38.1243 41.3381C37.8803 41.6153 37.6976 41.8552 37.3191 41.6774C37.0475 41.2591 37.3926 40.995 37.675 40.7115C37.8885 40.5654 38.0205 40.4688 38.2597 40.3593C37.5915 39.2595 37.204 38.0122 37.1311 36.7274Z" fill="#4D2903"/>
<path d="M38.1236 41.3375C37.8796 41.6147 37.697 41.8546 37.3185 41.6768C37.0468 41.2585 37.392 40.9944 37.6744 40.7109C37.7491 40.97 37.9574 41.087 38.1236 41.3375Z" fill="#4D2903"/>
<path d="M35.8327 34.0288C36.1059 34 36.6173 33.8991 36.7955 34.1335C36.69 34.3288 36.6257 34.3253 36.422 34.4547C36.1455 34.5248 35.6565 34.6553 35.5137 34.325C35.5735 34.1632 35.6826 34.1229 35.8327 34.0288Z" fill="#D47528"/>
<path d="M36.2083 32.0102C36.5059 31.9922 36.7062 31.984 36.8185 32.2849C36.7995 32.3944 36.7929 32.4443 36.7324 32.5414C36.4969 32.9133 36.1167 33.1699 35.6837 33.2493C35.3564 33.3269 35.2373 33.3906 34.9607 33.1817C34.8837 32.5799 35.7759 32.2124 36.2083 32.0102Z" fill="#F39944"/>
<path d="M63.0791 19.0837C64.5345 18.1009 66.2224 18.6877 67.6356 19.4627C67.9134 19.6399 68.1009 19.7517 68.3938 19.9007C68.2057 20.0167 68.0979 20.3146 67.9424 20.5273L68.3666 20.8282C69.2176 21.4007 70.189 22.374 70.8525 23.1532C70.7549 23.3724 70.6422 23.5325 70.7139 23.751C70.4662 24.1506 70.5765 24.732 70.2776 24.9408C70.1987 24.8554 70.18 24.8294 70.1155 24.7326C69.778 24.932 69.9335 25.6895 69.5333 25.9027L69.4309 25.743C69.1308 25.9728 68.9186 26.3683 68.6523 26.6228C68.5058 26.7631 67.7007 27.2972 67.5266 27.2991L67.3777 27.1589C66.9872 27.3639 66.9986 27.8618 66.1067 27.8018L65.9495 27.699C65.2516 27.884 65.5047 27.9495 64.7442 27.9053C64.5423 27.8429 64.2964 27.7359 64.1042 27.7883C64.15 27.9293 64.2265 28.1961 64.2796 28.3226L64.4103 28.818C65.078 31.5946 65.0039 33.547 63.5612 36.053C63.1394 36.6707 62.838 36.8989 62.3409 37.4298C62.1137 37.9036 60.539 38.8279 60.0273 39.0161C60.3751 38.4619 60.8301 37.7912 61.1163 37.2168C62.4252 34.592 62.8603 31.4668 61.6653 28.7142C60.9343 27.0294 60.1286 25.8294 60.1388 23.8977C60.1473 22.2695 60.5179 20.9005 61.6671 19.6805C62.0588 19.2646 62.5162 19.0841 63.0791 19.0837Z" fill="#E7822B"/>
<path d="M63.5909 20.0505L63.4342 19.9438C63.4396 19.8185 63.421 19.7826 63.5379 19.6936C64.7829 18.7492 66.9006 19.8856 67.9425 20.5276L68.3668 20.8285C69.2177 21.401 70.1892 22.3743 70.8527 23.1535C70.755 23.3727 70.6424 23.5328 70.7141 23.7513C70.4664 24.1509 70.5767 24.7323 70.2778 24.9411C70.1988 24.8557 70.1801 24.8297 70.1157 24.7329C69.7782 24.9323 69.9337 25.6898 69.5335 25.903L69.4311 25.7433C69.1309 25.9731 68.9188 26.3686 68.6524 26.6232C68.506 26.7634 67.7009 27.2975 67.5267 27.2994L67.3779 27.1592C66.9874 27.3642 66.9988 27.8621 66.1069 27.8021L65.9496 27.6993C65.2518 27.8843 65.5049 27.9499 64.7444 27.9056C64.5425 27.8432 64.2966 27.7362 64.1044 27.7886C63.9386 26.853 62.9461 25.9643 62.4863 25.1563C62.2892 24.8872 62.2609 24.8314 62.1289 24.5313C62.1862 24.4307 62.4109 23.7245 62.5074 23.4929C62.8454 23.3816 63.0636 23.4086 63.4113 23.2437C63.6686 23.3232 63.8091 23.4481 64.1025 23.4666L64.1941 23.3708C64.1688 22.6899 63.0009 22.567 62.5182 22.3379C62.2862 22.2278 62.2259 21.9783 62.1494 21.7536C62.3929 21.7152 62.5718 21.3808 62.7117 21.1842C63.3812 21.0053 64.2128 21.1537 64.5135 20.9513C64.7311 21.0412 64.8522 21.1201 65.0625 21.0885L65.1065 20.975C64.8715 20.4791 64.1152 20.1292 63.5909 20.0505Z" fill="#D47528"/>
<path d="M63.5913 20.0505L63.4346 19.9438C63.44 19.8185 63.4213 19.7826 63.5382 19.6936C64.7833 18.7492 66.9009 19.8856 67.9429 20.5276L68.3671 20.8285C68.2846 21.0385 68.3316 21.0216 68.1803 21.0938C67.7772 20.9799 67.0661 20.4263 66.5767 20.2258C65.3931 19.7407 64.7712 19.6097 63.5913 20.0505Z" fill="#F39944"/>
<path d="M62.4863 25.1565C62.4754 24.98 62.4658 24.8989 62.4326 24.7251L62.4784 24.6738C63.0768 25.2624 64.5641 27.0548 64.7443 27.9058C64.5424 27.8435 64.2966 27.7364 64.1043 27.7889C63.9386 26.8532 62.9461 25.9645 62.4863 25.1565Z" fill="#B75C12"/>
<path d="M63.0797 19.0837C64.5351 18.1009 66.2231 18.6877 67.6362 19.4627C67.9141 19.6399 68.1015 19.7517 68.3944 19.9007C68.2063 20.0167 68.0985 20.3146 67.943 20.5273C66.901 19.8853 64.7834 18.7489 63.5383 19.6933C63.4214 19.7823 63.4401 19.8182 63.4347 19.9435L63.5913 20.0502C64.1156 20.1289 64.872 20.4788 65.107 20.9747L65.063 21.0882C64.8527 21.1198 64.7315 21.0409 64.514 20.9509C64.2133 21.1534 63.3816 21.0049 62.7121 21.1839C62.5723 21.3805 62.3933 21.7149 62.1498 21.7533C62.2264 21.978 62.2866 22.2274 62.5187 22.3376C63.0014 22.5667 64.1693 22.6896 64.1946 23.3705L64.103 23.4663C63.8095 23.4478 63.6691 23.3229 63.4118 23.2434C63.064 23.4082 62.8459 23.3812 62.5078 23.4926C62.4114 23.7242 62.1866 24.4304 62.1294 24.5309C62.2613 24.8311 62.2897 24.8869 62.4867 25.156C62.9465 25.964 63.9391 26.8526 64.1048 27.7883C64.1506 27.9293 64.2271 28.1961 64.2802 28.3226L64.4109 28.818C65.0787 31.5946 65.0045 33.547 63.5618 36.053C63.14 36.6707 62.8387 36.8989 62.3415 37.4298C62.286 37.3613 62.1866 37.2331 62.2408 37.1482C63.2177 35.6169 64.012 33.7527 64.0301 31.8939C63.9807 30.5184 63.6854 28.3307 63.0122 27.1088C62.4964 26.1727 61.276 25.2978 61.2115 23.9922C61.185 23.4439 61.3055 23.1202 61.6551 22.6985C61.0958 21.5946 61.3996 20.4964 62.5566 19.9708C62.7031 19.5373 62.7874 19.4066 63.0797 19.0837Z" fill="#4D2903"/>
<path d="M62.1485 21.7531C62.1021 20.2758 63.6171 20.5957 64.5126 20.9508C64.2119 21.1533 63.3803 21.0048 62.7108 21.1838C62.5709 21.3803 62.392 21.7148 62.1485 21.7531Z" fill="#F39944"/>
<path d="M62.1286 24.5315C61.6103 23.3441 62.2244 22.7662 63.411 23.2439C63.0633 23.4088 62.8452 23.3818 62.5071 23.4932C62.4107 23.7248 62.1859 24.4309 62.1286 24.5315Z" fill="#F39944"/>
<path d="M30.7524 41.8379C33.6585 43.1125 37.3515 43.9837 40.5393 43.6898C40.8795 43.6031 41.5296 43.5064 41.7348 43.2875C42.0157 43.2281 42.3882 43.2359 42.6847 43.2304C43.2833 43.2293 47.4102 42.837 47.4301 42.8438L47.4608 42.9194C47.3439 43.0328 44.6742 44.3235 44.4446 44.4056C42.8121 44.9892 41.1419 45.657 39.4672 46.1199C39.0982 46.2206 39.2258 46.3827 38.9313 46.4783C38.7 46.2244 39.0603 46.2851 38.7179 46.1864C38.1291 46.3867 38.1962 46.513 37.659 46.2758C37.3507 46.2919 37.194 46.5895 37.0414 46.5352C37.1483 46.2209 37.2793 46.4442 37.172 46.2164C36.934 46.0883 36.7326 46.073 36.4661 46.027C36.2892 46.3693 36.0974 46.7633 35.8999 47.0888C35.725 46.8552 35.3755 46.2355 35.2368 46.1486C35.1812 46.2016 35.1387 46.2442 35.0868 46.3008C35.0266 46.1123 35.0222 45.9808 34.8885 45.8772C34.8415 46.1185 34.9493 46.2464 34.9277 46.4263C34.8926 46.8561 34.7803 47.3036 34.775 47.7353C34.7679 48.3181 34.7587 48.8857 34.7397 49.469C34.7055 50.5173 34.1625 52.1107 34.1804 53.0822C33.6445 52.1981 33.1265 51.8202 32.0707 51.7666L32.0965 51.7148C32.8469 50.1834 32.4847 48.6765 31.9744 47.1501C31.6564 46.4545 31.195 45.3514 30.7341 44.7934C30.5063 44.3709 30.1972 43.97 29.9141 43.5798C30.0431 43.3195 30.1689 43.0576 30.2916 42.7941L30.7524 41.8379Z" fill="#E7822B"/>
<path d="M30.2916 42.7939C31.4746 42.8374 32.0246 43.4909 32.5576 44.4355C32.5916 45.5227 32.4717 46.1234 31.9744 47.1499C31.6564 46.4543 31.195 45.3512 30.7341 44.7932C30.5063 44.3707 30.1972 43.9698 29.9141 43.5796C30.0431 43.3193 30.1689 43.0574 30.2916 42.7939Z" fill="#F39944"/>
<path d="M41.7356 43.2875C42.0164 43.2281 42.389 43.236 42.6855 43.2305C43.0967 43.285 43.3974 43.2796 43.8144 43.2786C43.0207 43.746 41.3907 43.8791 40.54 43.6899C40.8803 43.6032 41.5304 43.5064 41.7356 43.2875Z" fill="#B75C12"/>
<path d="M32.7933 33.9798C29.8208 35.4149 28.0805 30.4837 30.2724 28.8129C31.2972 28.0318 32.6034 28.501 33.2676 29.5138C33.8833 30.4527 33.9842 31.4586 33.8067 32.5536L33.7779 32.7839C33.4861 33.0635 33.1628 33.5369 33.0479 33.9261L33.0102 33.9561L32.7933 33.9798Z" fill="#4D2903"/>
<path d="M30.7499 29.4217C32.0163 29.345 32.2817 30.906 31.167 31.5843C29.8873 31.6107 29.8182 30.1701 30.7499 29.4217Z" fill="#FEFCF8"/>
<path d="M64.5628 5.47559C65.1057 5.78126 65.3185 5.93433 65.7379 6.39447L65.9235 6.57997C65.9308 6.80205 65.9778 7.13749 65.8554 7.29111L65.7361 7.2931C66.2417 8.10091 66.3225 9.04654 66.3761 9.96777C65.9754 11.2053 65.4553 12.5261 64.2138 13.1401C63.7709 13.359 63.1592 13.6211 62.6645 13.6487L62.5747 13.819C62.5717 12.234 61.6641 12.6839 61.4092 12.0002C61.4562 11.7919 61.5436 11.7423 61.7057 11.5856L61.8455 11.3258C61.9823 11.4294 62.0926 11.4132 62.2667 11.4214L62.656 11.1222C63.2996 10.3355 63.1424 9.68579 62.4114 9.03039C63.2141 8.52024 63.5967 8.48926 64.5326 8.42315L64.4344 8.26139C64.8117 8.06366 65.0642 7.61353 65.1714 7.21776C65.213 6.49873 64.9153 6.72268 64.6279 6.14948C64.6315 6.01141 64.6393 5.92041 64.5881 5.78771L64.5628 5.47559Z" fill="#E7822B"/>
<path d="M64.5324 8.42285C65.1441 9.49547 65.0278 10.671 63.9436 11.3775L63.2946 11.5059C63.241 11.442 63.1861 11.3795 63.1301 11.3185C62.9619 11.1398 62.8993 11.1265 62.6558 11.1219C63.2994 10.3352 63.1421 9.68549 62.4111 9.03009C63.2138 8.51994 63.5965 8.48896 64.5324 8.42285Z" fill="#82420C"/>
<path d="M62.6556 11.123C62.8991 11.1276 62.9617 11.1409 63.1299 11.3196C63.1859 11.3806 63.2408 11.4431 63.2944 11.507L63.9434 11.3786C63.5017 11.7127 62.1476 12.4428 61.6522 12.0511C61.6058 11.8724 61.6558 11.7655 61.7053 11.5864L61.8451 11.3266C61.9819 11.4302 62.0921 11.414 62.2663 11.4222L62.6556 11.123Z" fill="#B75C12"/>
<path d="M62.6559 11.123C62.8994 11.1276 62.962 11.1409 63.1302 11.3196C63.1862 11.3806 63.2411 11.4431 63.2947 11.507C62.903 11.5204 62.6565 11.4773 62.2666 11.4222L62.6559 11.123Z" fill="#95490E"/>
<path d="M64.5625 5.47559C65.1055 5.78126 65.3182 5.93433 65.7376 6.39447C65.7901 6.65638 65.8467 6.827 65.7955 7.08801L65.725 7.10736C65.5593 6.88425 65.4821 6.64698 65.305 6.58828L65.2501 6.68983C65.3134 6.83278 65.3086 6.82272 65.4303 6.92228C65.2736 7.00213 65.2573 7.06457 65.1712 7.21776C65.2127 6.49873 64.915 6.72268 64.6276 6.14948C64.6312 6.01141 64.639 5.92041 64.5878 5.78771L64.5625 5.47559Z" fill="#F39944"/>
<path d="M47.7023 3.50102C50.3817 3.25525 55.7343 4.90516 57.8248 6.51355L57.8646 6.60214C57.8122 6.72942 57.7664 6.84567 57.7031 6.96874C56.9486 6.64107 56.2146 6.25669 55.436 5.92203C52.6825 4.73846 50.0116 4.18323 47.0117 4.09663C47.2232 3.93391 47.4962 3.68151 47.7023 3.50102Z" fill="#F2CFA3"/>
<path d="M61.845 11.3268C61.5425 10.5926 60.9941 10.9601 60.4674 10.7023C60.1432 9.46602 62.711 6.68606 64.434 8.26244L64.5322 8.4242C63.5963 8.49031 63.2136 8.52129 62.4109 9.03144C63.1419 9.68684 63.2992 10.3366 62.6556 11.1233L62.2663 11.4224C62.0921 11.4143 61.9818 11.4305 61.845 11.3268Z" fill="#4D2903"/>
<path d="M58.0319 56.3597C58.4266 56.4073 58.6472 56.4085 59.0474 56.4037C57.4703 57.1727 55.3586 58.1044 54.3191 59.549C54.1624 59.2705 54.0497 59.1404 53.8496 58.8927C54.4191 58.3069 54.9573 57.9332 55.5967 57.4318L56.2499 57.072C56.8164 56.8201 57.3618 56.5736 57.9427 56.3555L58.0319 56.3597Z" fill="#F2CFA3"/>
<path d="M64.4106 28.818L64.7584 28.6494C64.8078 28.7029 65.0271 28.9395 65.0277 29.0002C65.0368 30.0296 65.2718 31.1233 65.2417 32.1417C65.2152 33.0402 64.5981 35.7528 63.72 36.0858L63.5615 36.053C65.0042 33.547 65.0784 31.5946 64.4106 28.818Z" fill="#FABA68"/>
<path d="M44.8526 1.56513C45.2401 1.49323 45.4492 0.692475 46.7817 0.797579C46.6768 0.992661 46.587 1.29122 46.5713 1.51155L46.5195 1.83856C46.2676 1.9556 45.0467 2.72893 45.0262 2.73164L44.9647 2.68373L44.9298 2.68229C44.7056 2.7478 44.6893 2.74936 44.5013 2.88123C44.4163 2.65113 44.4115 2.34425 44.3916 2.09246C44.5772 1.91281 44.7285 1.79113 44.8526 1.56513Z" fill="#82420C"/>
<path d="M44.9648 2.68296C45.2216 2.03293 45.8525 1.50572 46.5715 1.51078L46.5196 1.83778C46.2677 1.95482 45.0468 2.72816 45.0263 2.73087L44.9648 2.68296Z" fill="#FABA68"/>
<path d="M70.7141 23.7521C70.6424 23.5336 70.7551 23.3735 70.8527 23.1543C71.6548 24.0781 72.672 25.6382 73.1728 26.7559L73.0583 26.7333C72.8203 26.3596 72.5804 25.5613 72.1707 25.4488L72.1218 25.5102C72.2279 25.9015 72.7088 26.5302 72.7582 26.8316C72.5365 26.7576 71.8121 24.9717 71.5734 24.6593C71.2908 24.289 71.0907 24.0529 70.7141 23.7521Z" fill="#FABA68"/>
<path d="M43.652 0.97168C44.1998 1.57115 44.336 2.41807 44.2281 3.20617C44.289 3.40638 44.2818 3.39927 44.4131 3.55976C44.2733 3.63563 44.1823 3.67926 44.0371 3.74369L43.9431 3.69644C43.7002 3.24468 43.6309 1.52577 43.652 0.97168Z" fill="#D47528"/>
<path d="M46.5711 1.51074C46.7501 1.6285 46.8592 1.7057 46.9014 1.92345C46.9779 2.31626 46.4711 3.41678 46.594 3.51622C46.6723 3.57998 46.7392 3.58119 46.8363 3.59596C46.6959 3.6884 46.3391 3.7427 46.1698 3.64188C46.054 3.31289 46.4217 2.29378 46.5193 1.83775L46.5711 1.51074Z" fill="#E7822B"/>
<path d="M57.4821 56.0693C57.6779 56.1139 57.8865 56.1157 57.9431 56.3556C57.3622 56.5738 56.8168 56.8203 56.2503 57.0722C56.0382 56.9028 56.0683 56.7594 56.0635 56.5008C56.5709 56.2863 56.9524 56.2013 57.4821 56.0693Z" fill="#4D2903"/>
<path d="M57.4814 56.0691C58.2769 55.8468 58.3938 55.9335 59.1972 56.0541C58.8277 56.1439 58.386 56.2385 58.0317 56.3596L57.9425 56.3554C57.8858 56.1155 57.6773 56.1137 57.4814 56.0691Z" fill="#D47528"/>
<path d="M64.2793 28.3226L64.404 28.2373C64.5613 28.3149 64.6559 28.498 64.7578 28.6495L64.4101 28.818L64.2793 28.3226Z" fill="#FABA68"/>
<path d="M34.418 32.0957C34.3937 32.1609 34.3431 32.3098 34.3146 32.3642C34.1294 32.5198 33.9814 32.6496 33.7783 32.7841L33.8071 32.5537L34.418 32.0957Z" fill="#95490E"/>
<path d="M51.2822 31.1028C51.1044 31.5847 50.779 31.9984 50.3529 32.285C48.1394 33.751 45.95 30.8271 46.6009 28.665C47.8062 24.6578 52.3241 27.0769 51.4123 30.7641L51.2822 31.1028Z" fill="#4D2903"/>
<path d="M51.1162 30.502C51.2855 30.7297 51.2277 30.8175 51.1547 31.0859C51.0143 31.3322 51.0674 31.3313 50.8582 31.4335L50.7528 31.3848C50.5979 30.98 50.8209 30.7471 51.1162 30.502Z" fill="#82420C"/>
<path d="M51.1152 30.5023L51.1821 30.4111L51.2695 30.4289C51.3551 30.5817 51.3623 30.5873 51.4117 30.7647L51.2816 31.1034L51.2201 31.0544L51.1538 31.0863C51.2267 30.8179 51.2846 30.7301 51.1152 30.5023Z" fill="#4D2903"/>
<path d="M48.1997 27.6738C48.6812 27.7625 48.9795 27.9388 49.1555 28.4226C49.2658 28.7354 49.2465 29.0796 49.1019 29.3782C48.9391 29.7126 48.7373 29.8496 48.4034 29.9715C47.0788 29.9646 46.9251 28.1 48.1997 27.6738Z" fill="#FEFCF8"/>
<path d="M55.8516 31.0704C59.1263 30.7295 60.067 34.7181 55.7889 35.1973C51.7953 35.3165 51.9881 31.5218 55.8516 31.0704Z" fill="#FFC271"/>
<path d="M47.0747 22.3975C47.6086 22.4742 48.6626 23.5993 49.5183 23.6439C50.0716 23.6727 51.0653 23.5351 51.1557 24.1773C51.0804 24.3798 51.0707 24.3831 50.8924 24.517C49.6136 24.8076 48.0859 24.3169 47.1144 23.469C46.7137 23.1188 46.7185 22.7538 47.0747 22.3975Z" fill="#4D2903"/>
<path d="M32.439 25.3545C32.7616 25.3733 32.9355 25.4668 33.0399 25.777C32.909 26.9902 30.9186 27.8351 29.8067 27.8584C29.5205 27.8015 29.4482 27.7553 29.2941 27.5043C29.221 26.7216 30.4785 27.0201 31.0981 26.6186C31.7882 26.1715 31.9362 25.9895 32.439 25.3545Z" fill="#4D2903"/>
<path d="M35.1908 8.20996L35.2419 8.26275C35.1625 8.64297 33.6349 10.231 33.2483 10.5104C33.2282 10.4874 33.1757 10.382 33.1588 10.3503C33.1261 9.41336 34.4323 8.54016 35.1908 8.20996Z" fill="#F2CFA3"/>
<path d="M36.1707 8.27051L36.2138 8.32161C36.1017 8.80025 34.9958 9.95887 34.5807 10.2715C34.5268 10.1998 34.5403 10.1917 34.5186 10.0924C34.693 9.38344 35.6032 8.66718 36.1707 8.27051Z" fill="#F2CFA3"/>
<path d="M25.6702 31.9455C26.439 31.8529 26.4778 32.4942 26.0093 33.0095C25.7902 33.0882 25.7788 33.0833 25.5957 33.0111C25.4021 32.6163 25.6516 32.3826 25.6702 31.9455Z" fill="#FABA68"/>
<path d="M37.0687 8.42773L37.2056 8.4695C37.2167 8.84683 36.2954 9.69399 36.008 9.97579L35.9403 9.99634L35.8672 9.9415C35.9018 9.37542 36.6106 8.72304 37.0687 8.42773Z" fill="#F2CFA3"/>
<path d="M57.3476 58.0156C57.4965 58.0687 57.3958 58.1217 57.7146 58.182L57.7261 58.2983C57.5103 58.5297 56.9903 58.6044 56.6853 58.6599C56.5973 58.5622 56.6058 58.5653 56.4859 58.514L56.3075 58.6093L56.2056 58.5773C56.1502 58.109 57.027 58.0464 57.3476 58.0156Z" fill="#FABA68"/>
<path d="M71.3714 48.0645C71.6932 48.2792 71.7866 48.823 71.6347 49.1716C71.1978 48.9937 71.2328 48.4327 71.3714 48.0645Z" fill="#F39944"/>
<path d="M50.525 32.2256C50.7901 32.2564 50.7751 32.2105 50.9354 32.3549C50.9052 32.5709 50.8323 32.6057 50.6889 32.7959C50.5846 32.8753 50.628 32.8479 50.484 32.8707L50.4189 32.7832C50.3936 32.5252 50.4304 32.4782 50.525 32.2256Z" fill="#F39944"/>
<path d="M64.9082 16.0127C65.3162 16.159 65.5844 16.4646 65.6133 16.9028C65.2975 16.7884 64.9166 16.3596 64.9082 16.0127Z" fill="#F39944"/>
<path d="M17.5834 69.9689C19.3746 69.9508 19.6248 70.0455 21.2973 70.342C23.394 71.0429 24.5944 71.7516 26.2869 73.1576C26.6661 73.4728 28.0409 73.3782 28.3078 74.1713C28.9756 75.6285 27.8127 76.2017 26.7582 76.7284C26.5697 77.2394 26.1693 77.8096 25.826 78.2338C25.9634 78.3453 26.0617 78.4629 26.2164 78.4888C26.6185 78.0482 26.9836 77.3847 27.5279 77.1617C30.7805 75.831 32.2994 78.5508 33.3081 80.9874C33.7245 81.0374 34.1833 81.2803 34.2669 81.7251C34.0798 82.8153 29.979 83.2643 29.0019 83.195C28.7269 83.1757 28.4188 83.1841 28.1405 83.1751C27.5842 83.9845 27.1148 84.1038 26.2312 84.4786C25.2236 84.9065 20.0371 85.7738 19.7504 84.3497C19.8292 83.9712 20.2202 83.7585 20.1425 83.4409C19.6815 83.11 17.7882 83.4216 17.1803 83.477C16.2364 83.5584 15.2883 83.5795 14.3416 83.5397C12.0084 83.4559 9.96746 83.0702 7.75831 82.3928C7.12434 82.1988 6.3937 82.2801 5.71947 81.9613C4.4329 81.3532 4.9763 80.8012 5.93377 80.3269C4.98257 79.4681 4.97925 78.3869 6.09443 77.692C7.07058 77.0834 7.10933 76.7995 7.69347 75.8509C9.87658 72.3079 13.435 70.2751 17.5834 69.9689Z" fill="#A63156"/>
<path d="M25.826 78.2329C25.9634 78.3444 26.0617 78.4619 26.2164 78.4878C26.6185 78.0472 26.9836 77.3837 27.5279 77.1607C30.7805 75.83 32.2994 78.5499 33.3081 80.9864C33.7245 81.0364 34.1833 81.2793 34.2669 81.7241C34.0798 82.8143 29.979 83.2633 29.0019 83.194C28.7269 83.1747 28.4188 83.1831 28.1405 83.1741C27.5842 83.9835 27.1148 84.1028 26.2312 84.4777C25.2236 84.9055 20.0371 85.7728 19.7504 84.3487C19.8292 83.9702 20.2202 83.7575 20.1425 83.4399C19.6815 83.109 17.7882 83.4206 17.1803 83.476C16.2364 83.5574 15.2883 83.5785 14.3416 83.5387C12.0084 83.4549 9.96746 83.0692 7.75831 82.3918C7.12434 82.1978 6.3937 82.2791 5.71947 81.9603C4.4329 81.3522 4.9763 80.8002 5.93377 80.3259C6.87328 80.834 7.68099 80.5772 8.26362 80.8882C11.7091 82.7263 15.3602 83.1873 19.3032 82.0206C19.7691 81.8832 20.228 81.7229 20.6781 81.5403L20.911 80.6369C21.7028 78.8084 23.0401 77.7001 25.1023 77.9695C25.3428 78.0563 25.587 78.1425 25.826 78.2329Z" fill="#1C4B1F"/>
<path d="M5.93377 80.3262C6.87328 80.8342 7.68099 80.5775 8.26362 80.8885C11.7091 82.7266 15.3602 83.1876 19.3032 82.0209C19.7691 81.8835 20.228 81.7231 20.6781 81.5405C20.539 82.3132 20.4708 83.3991 20.5415 84.1892C20.5801 84.4827 20.967 84.6672 21.2266 84.6033C23.7381 83.9843 25.8311 84.7148 27.4125 82.0986C29.3596 82.9574 30.6894 82.2228 32.5723 81.9003C32.9878 81.8298 33.0882 81.969 33.3857 81.593C33.4458 81.3706 33.3724 81.2145 33.3081 80.9867C33.7245 81.0367 34.1833 81.2796 34.2669 81.7243C34.0798 82.8146 29.979 83.2635 29.0019 83.1942C28.7269 83.175 28.4188 83.1834 28.1405 83.1744C27.5842 83.9837 27.1148 84.1031 26.2312 84.4779C25.2236 84.9058 20.0371 85.773 19.7504 84.3489C19.8292 83.9705 20.2202 83.7577 20.1425 83.4401C19.6815 83.1093 17.7882 83.4208 17.1803 83.4763C16.2364 83.5577 15.2883 83.5787 14.3416 83.539C12.0084 83.4552 9.96746 83.0695 7.75831 82.3921C7.12434 82.198 6.3937 82.2794 5.71947 81.9606C4.4329 81.3525 4.9763 80.8005 5.93377 80.3262Z" fill="#FFDCA8"/>
<path d="M21.0918 83.9491C21.1862 83.2066 21.2096 82.4123 21.3332 81.7174C21.648 79.948 23.0904 78.1936 25.0522 78.6631C25.2728 78.7155 25.4771 78.7854 25.5989 78.9825L25.5223 79.0922C25.6196 79.4454 25.4537 79.4128 25.508 79.5948C25.6052 79.5532 25.7034 79.5135 25.8024 79.4761C27.0713 79.0036 27.2718 80.9779 26.7213 81.8771C25.4717 83.9177 23.0451 83.3964 21.0918 83.9491Z" fill="#4FAF5A"/>
<path d="M24.1083 79.9976C24.5529 79.6703 24.9917 79.2624 25.522 79.0918C25.6194 79.445 25.4535 79.4124 25.5078 79.5944L24.7087 80.1145C25.0094 80.5894 25.3406 81.3903 25.0745 81.9412C24.8919 81.7761 24.6524 80.6473 24.5395 80.3001C23.6867 81.086 22.7488 82.3914 22.0088 82.9633C22.4311 82.1503 23.2364 81.048 23.837 80.3628C23.8416 80.3592 24.087 80.0259 24.1083 79.9976Z" fill="#388340"/>
<path d="M23.8371 80.3637C23.4022 80.3305 22.9438 80.4583 22.541 80.3697L22.5467 80.298C23.0256 80.0003 23.5558 79.9165 24.1084 79.9985C24.0871 80.0268 23.8417 80.3601 23.8371 80.3637Z" fill="#388340"/>
<path d="M23.8673 79.0966C24.131 79.0888 24.2575 79.0388 24.4553 79.1539C24.5106 79.2997 24.48 79.3835 24.4542 79.5378C24.1782 79.7143 23.7584 79.5787 23.4258 79.5155L23.8673 79.0966Z" fill="#388340"/>
<path d="M23.8682 79.0966C24.1318 79.0888 24.2583 79.0388 24.4562 79.1539C24.5115 79.2997 24.4808 79.3835 24.4551 79.5378C24.1954 79.3799 24.0205 79.4094 23.8682 79.0966Z" fill="#388340"/>
<path d="M26.8887 78.6137L26.9422 78.5468C27.6005 77.7344 28.0274 77.5867 29.0484 77.4873C29.8236 77.5837 30.3726 77.7157 30.9571 78.2774C31.6955 79.0199 32.0301 79.5972 32.4159 80.5814C32.5523 80.8327 32.6143 80.9683 32.7219 81.2304C32.0269 81.316 31.4582 81.407 30.7768 81.5987C29.4257 81.847 28.9936 81.9151 27.6788 81.4805C27.8571 80.4976 27.6704 79.8992 26.9937 79.1808C27.5469 79 27.6475 79.0151 28.2247 79.1048L28.278 79.0633C28.3172 78.8951 28.284 78.915 28.1904 78.7137L28.1295 78.6782C27.8163 78.5733 27.2384 78.6083 26.8887 78.6137Z" fill="#4FAF5A"/>
<path d="M28.1904 78.7129C28.3158 78.7364 28.7079 78.8111 28.817 78.7997C29.3477 78.9889 30.932 79.7742 31.2087 80.2256L31.2017 80.3359C30.9782 80.3563 28.962 79.0667 28.5982 79.3083L28.6231 79.4144L28.61 79.4638C28.4857 79.4295 28.4826 79.3614 28.369 79.3403L28.2247 79.104L28.278 79.0624C28.3172 78.8943 28.284 78.9142 28.1904 78.7129Z" fill="#388340"/>
<path d="M28.1289 78.6769C28.5767 78.7004 29.0082 78.2665 29.4595 78.3599L29.4694 78.4569C29.2528 78.5744 29.0393 78.6937 28.8164 78.7992C28.7073 78.8107 28.3152 78.7359 28.1898 78.7124L28.1289 78.6769Z" fill="#388340"/>
<path d="M27.5551 74.2939L27.8166 74.7917C27.4851 76.1845 26.6101 75.7542 26.3822 75.9778C26.0149 76.3376 25.8079 77.4658 25.1028 77.9696C23.0407 77.7002 21.7033 78.8085 20.9116 80.637C17.4803 82.046 14.1352 82.2997 10.5603 81.1619C9.80109 80.9648 9.06256 80.3471 8.32692 80.1422C7.41007 79.8861 6.56819 80.3983 5.99707 79.3183C6.99136 79.3244 7.9965 79.2478 8.97434 79.2671C9.52003 79.278 10.3924 79.4708 10.9595 79.56C12.9378 79.8716 14.6803 79.6522 16.6376 79.5757L16.7343 79.563C17.4455 79.375 19.0436 79.0146 19.6822 78.6289C19.735 78.597 19.697 78.4529 19.6873 78.3673L19.7551 78.3077L19.9077 78.5391C20.255 78.4427 20.1393 78.2456 20.4331 78.1944L20.4619 78.3463L20.5302 78.3529C20.8572 78.1673 21.5227 77.8677 21.6565 77.5767C21.8348 77.5351 21.9161 77.5339 22.047 77.4055L22.1671 77.4573C22.9635 77.2048 23.5654 76.8504 24.2843 76.4581C25.0667 76.0308 24.2697 75.7186 24.7893 75.43C25.0815 75.4119 25.1384 75.5403 25.4166 75.6047C25.8673 75.0045 27.3659 75.2932 27.6668 74.711L27.6153 74.576C27.3982 74.4289 27.3899 74.4952 27.1641 74.4265L27.0937 74.4048C27.3048 74.3795 27.3544 74.3657 27.5551 74.2939Z" fill="#842D37"/>
<path d="M17.5836 69.9689C19.3748 69.9508 19.625 70.0455 21.2975 70.342C23.3942 71.0429 24.5946 71.7516 26.2871 73.1576C26.6663 73.4728 28.0411 73.3782 28.308 74.1713C28.9758 75.6285 27.8129 76.2017 26.7584 76.7284C26.5699 77.2394 26.1695 77.8096 25.8262 78.2338C25.5872 78.1434 25.343 78.0573 25.1025 77.9705C25.8075 77.4667 26.0145 76.3385 26.3818 75.9787C26.6098 75.7551 27.4847 76.1854 27.8162 74.7926L27.5547 74.2948C27.354 74.3666 27.3044 74.3804 27.0933 74.4057C26.7082 74.2942 26.0863 74.3027 26.0084 73.8091C25.3211 73.4348 24.7299 72.7237 23.6905 72.1686C22.6501 71.5172 21.2033 71.035 19.9931 70.8344C15.2703 70.0533 10.4627 72.4838 8.0755 76.5904C7.91827 76.861 7.7511 77.1026 7.61918 77.3901C7.53499 77.5203 7.51414 77.5721 7.40277 77.6806C6.85232 77.9729 6.25674 78.2459 6.00586 78.8468C5.99688 79.0113 5.98483 79.1541 5.9967 79.3192C6.56782 80.3992 7.4097 79.8869 8.32656 80.1431C9.06219 80.348 9.80072 80.9657 10.5599 81.1628C14.1348 82.3006 17.4799 82.0469 20.9112 80.6379L20.6783 81.5413C20.2282 81.7239 19.7693 81.8842 19.3034 82.0216C15.3604 83.1883 11.7093 82.7273 8.26382 80.8892C7.68119 80.5782 6.87348 80.8349 5.93397 80.3269C4.98277 79.4681 4.97945 78.3869 6.09463 77.692C7.07078 77.0834 7.10953 76.7995 7.69367 75.8509C9.87678 72.3079 13.4352 70.2751 17.5836 69.9689Z" fill="#4D2903"/>
<path d="M26.0088 73.8086C26.4156 73.9104 27.2839 74.0466 27.5551 74.2943C27.3544 74.3661 27.3048 74.3799 27.0937 74.4052C26.7086 74.2937 26.0867 74.3022 26.0088 73.8086Z" fill="#D15B7F"/>
<path d="M7.61914 77.3896C7.75106 77.1021 7.91823 76.8605 8.07546 76.5899C10.4627 72.4833 15.2702 70.0528 19.993 70.8338C21.2033 71.0345 22.65 71.5166 23.6904 72.1681L23.7093 72.2133C23.7982 72.4194 23.8392 72.4761 23.9702 72.6581C23.5561 72.558 23.0548 72.3122 22.6413 72.1615C22.1764 71.9921 21.7283 71.8234 21.2529 71.6908C18.5085 70.926 15.2521 71.4148 12.8504 72.9305C11.1378 73.9315 9.73693 75.2074 8.5613 76.8062C8.38648 77.0437 8.20484 77.2908 8.03273 77.5318C8.01327 77.5589 7.65421 77.4047 7.61914 77.3896Z" fill="#D15B7F"/>
<path d="M7.40277 77.6807L7.56464 77.8777C7.44405 78.2936 6.41246 78.8161 6.00586 78.8468C6.25674 78.246 6.85232 77.973 7.40277 77.6807Z" fill="#D15B7F"/>
<path d="M21.656 77.5768C21.5407 77.2984 21.3326 76.6674 21.5969 76.4492C21.9039 76.5824 21.973 77.1079 22.0466 77.4056C21.9157 77.534 21.8343 77.5352 21.656 77.5768Z" fill="#5A1F1A"/>
<path d="M14.6066 72.5127C14.7708 72.6133 14.726 72.5446 14.7675 72.7104C14.5514 73.0937 12.5309 74.3002 12.0382 74.4816L11.8931 74.4358L11.8848 74.3382C12.4161 73.5704 13.7067 72.7712 14.6066 72.5127Z" fill="#D15B7F"/>
<path d="M17.0349 75.2178C17.2228 75.4474 17.9224 77.0679 17.476 77.18L17.2716 77.0511C16.7363 76.6172 16.622 76.5894 16.3545 75.9416C16.5274 75.7312 16.8385 75.4239 17.0349 75.2178Z" fill="#5A1F1A"/>
<path d="M15.1642 72.9458C15.4612 72.9976 15.6836 72.9452 15.9811 72.8994C15.2556 73.3797 14.8592 73.6154 14.091 73.9601C13.8588 74.065 13.7584 74.1355 13.5048 74.1204L13.457 74.0571C13.6353 73.6154 14.7118 73.0597 15.1642 72.9458Z" fill="#D15B7F"/>
<path d="M12.7795 77.0674C13.4957 77.3814 13.8888 78.5807 13.6869 79.3081C13.2833 79.2165 12.7218 77.4193 12.7795 77.0674Z" fill="#5A1F1A"/>
<path d="M20.6227 71.7812C21.1373 71.953 21.4127 72.5563 21.5097 73.0589C21.5467 73.2517 21.4553 73.3132 21.348 73.4548C21.1234 73.3343 20.4941 72.1983 20.4756 71.9476L20.6227 71.7812Z" fill="#5A1F1A"/>
<path d="M10.1348 75.2735C10.178 75.2717 10.2214 75.2705 10.2647 75.2705C10.7379 75.2711 10.9033 75.5676 10.8593 76.0094C10.6935 75.9467 10.2809 75.4393 10.1348 75.2735Z" fill="#5A1F1A"/>
<path d="M9.48941 12.4455C11.3023 12.2374 13.0453 13.1409 13.7221 14.8221C14.4957 16.7437 13.4223 18.0457 12.5262 19.6037C12.2707 20.048 12.4825 20.5494 12.6905 20.9798C12.9917 21.6032 12.7102 22.2022 12.0467 22.4C11.0934 22.6661 10.4836 21.5615 10.3301 20.7951C10.1057 19.6749 10.5162 18.8418 11.1233 17.9461C11.5326 17.3123 11.9774 16.6523 11.77 15.8539C11.2542 13.9521 8.84868 14.0447 7.92593 15.5362C7.26682 16.6016 8.29709 17.0937 7.77087 17.857C7.61021 18.0851 7.3656 18.2401 7.09079 18.2879C4.95433 18.6555 4.84748 13.1441 9.48941 12.4455Z" fill="#4FAF5A"/>
<path d="M7.93436 13.3327C8.09129 13.3304 8.10466 13.3113 8.23935 13.3727C7.19203 14.0037 7.17757 14.0297 6.53341 15.1601C6.46284 15.2229 6.50695 15.1992 6.39366 15.2156C6.38823 15.1743 6.37865 15.1284 6.39426 15.0913C6.78724 14.16 7.13496 13.7953 7.93436 13.3327Z" fill="#B3CB6D"/>
<path d="M13.2595 23.0072C13.9523 22.8616 14.6324 23.304 14.7799 23.9965C14.9274 24.689 14.4867 25.3702 13.7947 25.5195C13.1001 25.6694 12.4158 25.2267 12.2677 24.5317C12.1196 23.8366 12.5641 23.1535 13.2595 23.0072Z" fill="#4FAF5A"/>
<path d="M23.3786 87.1934C23.7762 87.1518 24.2556 87.0024 24.447 87.4158L24.3926 87.5225C23.9965 87.7726 23.1294 87.7756 22.6351 87.8105C22.3448 87.8346 22.0917 87.8726 21.8045 87.828C21.6575 87.7346 21.6465 87.7424 21.5713 87.5797L21.6206 87.4742C22.0334 87.2265 22.8724 87.2277 23.3786 87.1934Z" fill="#4FAF5A"/>
<path d="M32.1742 85.9727C32.391 85.9607 32.4614 86.0541 32.5325 86.2361L32.4755 86.3572C32.0924 86.6453 30.7626 86.8002 30.2147 86.893C29.9888 86.855 29.9078 86.8237 29.835 86.5971L29.905 86.4832C30.2998 86.2222 31.6299 86.0607 32.1742 85.9727Z" fill="#4FAF5A"/>
<path d="M39.9434 84.1494L40.1549 84.1566C40.3403 84.276 40.2759 84.1982 40.3652 84.3887L40.3027 84.5327C39.9119 84.8449 38.7875 85.0618 38.2457 85.1944C38.1132 85.2209 38.0923 85.2047 37.9569 85.1788C37.7983 85.0269 37.8147 85.089 37.7949 84.9136C38.0384 84.549 39.4712 84.2687 39.9434 84.1494Z" fill="#4FAF5A"/>
<path d="M27.714 86.6954C28.0077 86.6369 28.3476 86.5821 28.5175 86.8816C28.3069 87.2854 26.968 87.3692 26.5376 87.4186C26.2613 87.4535 25.8089 87.5331 25.8155 87.1106C26.091 86.8021 27.2569 86.746 27.714 86.6954Z" fill="#4FAF5A"/>
<path d="M35.9559 85.1814C36.078 85.1507 36.1695 85.1561 36.2943 85.1543C36.4861 85.2815 36.4433 85.2152 36.5213 85.4056C36.3327 85.8112 34.9406 85.9914 34.5035 86.0764C34.1842 86.1282 34.1353 86.1619 33.916 85.9191L33.9248 85.7865C34.222 85.4526 35.4655 85.2796 35.9559 85.1814Z" fill="#4FAF5A"/>
<path d="M6.03411 86.1129C6.45728 86.0967 8.01154 86.3974 8.341 86.6999C8.40422 86.9139 8.39096 86.8361 8.29104 87.0892C7.8099 87.1146 6.35303 86.8482 6.00844 86.5071C5.93468 86.2901 5.94956 86.3727 6.03411 86.1129Z" fill="#4FAF5A"/>
<path d="M43.6115 82.999C43.8074 83.0069 43.7966 83.0057 43.9538 83.125C44.1407 83.6674 42.3995 84.0175 42.0044 84.1344C41.9249 84.129 41.8378 84.1025 41.7586 84.0832C41.5964 83.9127 41.6262 84.0067 41.6238 83.8072C41.844 83.4679 43.1764 83.1328 43.6115 82.999Z" fill="#4FAF5A"/>
<path d="M9.8032 86.9014C10.2913 86.911 11.9145 87.0225 12.2218 87.322C12.2668 87.5396 12.2694 87.451 12.177 87.671C11.6769 87.7011 10.1409 87.6378 9.77734 87.2859C9.71322 87.0683 9.72612 87.1491 9.8032 86.9014Z" fill="#4FAF5A"/>
<path d="M19.7487 87.4259C20.0516 87.3626 20.2116 87.4174 20.3095 87.7085L20.233 87.8351C19.8191 88.0581 18.7426 87.99 18.2182 87.9894C17.9986 87.996 17.9842 87.9978 17.7756 87.9381C17.6147 87.7832 17.6596 87.873 17.6143 87.673L17.6927 87.5783C18.1401 87.3789 19.1839 87.453 19.7487 87.4259Z" fill="#4FAF5A"/>
<path d="M13.727 87.3321C14.247 87.3387 15.8195 87.2875 16.1683 87.555C16.2489 87.7551 16.228 87.6828 16.1488 87.9401C15.5874 87.9444 14.1504 88.042 13.7245 87.7135C13.6399 87.4966 13.6527 87.5876 13.727 87.3321Z" fill="#4FAF5A"/>
<path d="M45.3204 74.3291C45.8821 74.5177 47.0367 75.1331 47.2947 75.6815C47.282 75.9159 47.2856 75.843 47.1084 76.0648C46.9234 75.9587 45.1806 74.7389 45.1191 74.6322C45.1601 74.4382 45.1529 74.4948 45.3204 74.3291Z" fill="#4FAF5A"/>
<path d="M27.0508 70.9317C27.538 70.8961 29.0804 71.1047 29.5083 71.3819C29.6238 71.5663 29.5986 71.4831 29.5451 71.7507C29.1554 71.7603 27.4322 71.4904 27.0591 71.3427C26.9514 71.1553 26.9869 71.2131 27.0508 70.9317Z" fill="#4FAF5A"/>
<path d="M2.64085 84.8311C3.05999 84.8757 4.3333 85.3765 4.65119 85.6898C4.72326 85.9195 4.71525 85.8255 4.62504 86.0834C4.06898 86.0587 2.9808 85.6832 2.59945 85.2523C2.52665 85.0143 2.5378 85.1071 2.64085 84.8311Z" fill="#4FAF5A"/>
<path d="M46.8048 81.6017C46.973 81.58 46.9609 81.5764 47.1146 81.6469C47.2484 81.8349 47.2279 81.7373 47.2134 81.9392C46.932 82.3689 46.0311 82.6835 45.5345 82.8914C45.3296 82.9246 45.276 82.892 45.1319 82.757L45.1289 82.6106C45.3495 82.2791 46.3613 81.8609 46.8048 81.6017Z" fill="#4FAF5A"/>
<path d="M38.0625 72.7539C38.5179 72.7678 40.0542 72.7708 40.3149 73.1468C40.3073 73.3716 40.3296 73.2867 40.1519 73.4885C39.5412 73.3921 38.2468 73.4295 37.9023 73.0775C37.9044 72.875 37.894 72.9468 38.0625 72.7539Z" fill="#4FAF5A"/>
<path d="M34.3592 72.2646C34.8854 72.3171 36.4691 72.3538 36.6294 72.8619L36.5134 73.0825C36.0214 73.0499 34.5993 72.9535 34.2671 72.622C34.2186 72.4189 34.2203 72.4991 34.3592 72.2646Z" fill="#4FAF5A"/>
<path d="M41.6894 73.2831C42.1975 73.2379 43.4803 73.517 43.8913 73.8376C43.9931 74.0455 43.969 73.9623 43.9142 74.2323C43.4815 74.2058 42.0501 73.8858 41.7062 73.6568C41.6051 73.4591 41.625 73.5447 41.6894 73.2831Z" fill="#4FAF5A"/>
<path d="M30.7769 71.5969C31.2142 71.577 32.6102 71.8042 32.9791 72.0965C33.0634 72.296 33.0443 72.2189 32.9672 72.4756C32.4596 72.4557 31.2024 72.249 30.7951 71.9657C30.691 71.7693 30.7095 71.8573 30.7769 71.5969Z" fill="#4FAF5A"/>
<path d="M6.79939 71.6728C7.05063 71.6619 7.04816 71.6957 7.20075 71.8289C7.28915 72.2405 5.88899 72.5485 5.52162 72.6642C5.31021 72.7389 5.24519 72.6563 5.09785 72.5388C5.00841 72.0422 6.40918 71.777 6.79939 71.6728Z" fill="#4FAF5A"/>
<path d="M3.81977 72.8672C4.01026 72.9281 4.07071 72.9901 4.11355 73.1745C4.00466 73.4777 3.04954 74.1087 2.71007 74.3998C2.49897 74.3636 2.47071 74.3341 2.35645 74.1943C2.35789 73.6675 3.41184 73.0938 3.81977 72.8672Z" fill="#4FAF5A"/>
<path d="M1.82615 75.2451C2.44379 75.4476 2.13138 75.6459 2.31904 76.1798C2.33182 76.216 2.63832 76.6789 2.69129 76.7614C2.69973 76.9657 2.66978 76.9259 2.49525 77.1387C1.79083 77.0615 1.36031 75.8888 1.82615 75.2451Z" fill="#4FAF5A"/>
<path d="M83.5018 32.9434C83.6494 33.0339 83.7199 33.1968 83.8145 33.3528C83.9025 33.3626 83.9387 33.365 84.0297 33.3647L84.105 33.3637L84.1996 33.4905C84.2093 33.7799 83.9122 34.0662 83.7217 34.293L83.5355 34.2942C83.3583 34.247 83.1908 34.2956 82.9401 34.2266L82.9678 34.2191L82.7684 34.1392L82.7539 34.1004C83.0191 33.8515 83.0805 33.8687 83.2734 33.5389C83.2463 33.1523 83.2384 33.2001 83.5018 32.9434Z" fill="#4FAF5A"/>
<path d="M0.437553 82.8066C0.779369 82.9145 1.45661 83.7751 1.64741 84.1C1.66012 84.3284 1.67224 84.2422 1.49482 84.4682C0.995173 84.3266 0.31082 83.6811 0.232839 83.1465C0.211024 82.9965 0.344566 82.9001 0.437553 82.8066Z" fill="#4FAF5A"/>
<path d="M0.92867 80.2656C1.14435 80.2735 1.17804 80.2849 1.30056 80.4506C1.3046 80.7267 0.675804 81.427 0.430651 81.9019C0.32061 81.8922 0.24974 81.8747 0.142652 81.8524C-0.348497 81.3836 0.556542 80.5573 0.92867 80.2656Z" fill="#4FAF5A"/>
<path d="M47.9727 76.752C48.6675 76.8104 49.2774 77.9314 48.9894 78.5039L48.7429 78.4768C48.3915 78.2851 47.8546 77.2088 47.9727 76.752Z" fill="#4FAF5A"/>
<path d="M48.6694 79.3975C48.8779 79.4276 48.8929 79.4228 49.0478 79.5542C49.2744 80.0592 48.6694 80.7619 48.3241 81.0976C48.1089 81.0831 48.0733 81.0711 47.9359 80.9126C47.9028 80.6287 48.4765 79.8109 48.6694 79.3975Z" fill="#4FAF5A"/>
<path d="M9.57342 71.0229C9.89029 70.974 9.94067 70.9475 10.1578 71.1693L10.1541 71.288C9.93494 71.5429 9.12494 71.655 8.76721 71.7292C8.4627 71.8027 8.37954 71.7786 8.14824 71.655L8.25497 71.7358C8.22243 71.6966 8.14993 71.6261 8.14746 71.5893C8.30764 71.156 9.16863 71.0825 9.57342 71.0229Z" fill="#4FAF5A"/>
<path d="M3.21555 78.7041C3.43732 78.7216 3.56863 78.7324 3.62444 78.9669C3.47408 79.3911 2.83528 79.719 2.45309 79.9082C2.36547 79.9197 2.23771 79.8847 2.144 79.8672C2.05005 79.728 2.07891 79.8088 2.1029 79.6039C2.34401 79.2646 2.86837 78.9397 3.21555 78.7041Z" fill="#4FAF5A"/>
<path d="M85.4068 29.3838C85.4972 29.4076 85.5743 29.4393 85.6611 29.4718C86.0106 29.8259 85.9775 30.5929 85.7521 31.0121C85.6406 30.9945 85.6105 30.9769 85.5008 30.9387C85.2622 30.6838 85.2405 29.6652 85.4068 29.3838Z" fill="#4FAF5A"/>
<path d="M80.2141 31.7891C80.7932 31.8946 80.5076 33.1123 80.2912 33.3615C79.6386 33.0897 79.8651 32.239 80.2141 31.7891Z" fill="#4FAF5A"/>
<path d="M84.0423 27.6397C84.5581 27.6348 85.3862 28.1788 85.2391 28.7923C84.804 28.8524 84.4473 28.3474 84.1363 28.0839C83.982 27.9532 84.0296 27.8177 84.0423 27.6397Z" fill="#4FAF5A"/>
<path d="M82.7627 27.3834C82.8598 27.3729 82.964 27.3767 83.0628 27.3765C83.2382 27.4961 83.1695 27.4204 83.2671 27.62L83.2105 27.7401C82.9749 27.8985 82.5355 27.9906 82.2288 28.0896C82.0094 28.177 82.0944 28.1789 81.8919 28.1204C81.7931 27.9406 81.8082 28.0349 81.854 27.8265C82.1354 27.4732 82.3198 27.4806 82.7627 27.3834Z" fill="#4FAF5A"/>
<path d="M85.2491 31.6162C85.9252 31.951 85.2159 32.7042 84.8869 33.0686C84.7254 33.037 84.7362 33.031 84.6097 32.9209C84.5464 32.4901 84.9857 31.9819 85.2491 31.6162Z" fill="#4FAF5A"/>
<path d="M82.0302 36.5723C82.2754 36.6794 82.3273 36.6853 82.276 36.9511C82.0356 37.2847 81.6366 37.477 81.2787 37.6675C81.1292 37.6777 81.1401 37.678 81.0045 37.6125C80.943 37.2084 81.7089 36.7948 82.0302 36.5723Z" fill="#4FAF5A"/>
<path d="M79.9703 37.6838C80.0758 37.6682 80.0836 37.6811 80.1939 37.6976C80.3283 37.869 80.315 37.8014 80.3217 37.9878C80.118 38.2811 79.6316 38.3345 79.2827 38.41L79.0887 38.4072C78.9458 38.3118 78.9567 38.3177 78.8916 38.1568L78.9452 38.0448C79.2002 37.8634 79.6509 37.7733 79.9703 37.6838Z" fill="#4FAF5A"/>
<path d="M80.862 33.668C81.1272 33.726 81.9721 33.9452 82.1215 34.1338C82.1366 34.3466 82.1372 34.2739 81.9871 34.4922C81.9522 34.4898 81.9178 34.4866 81.8829 34.4826C81.4857 34.4371 81.0434 34.3708 80.7927 34.0541C80.7445 33.82 80.7421 33.9142 80.862 33.668Z" fill="#4FAF5A"/>
<path d="M83.2525 34.8672C83.9968 35.1307 83.3272 35.918 82.9813 36.254C82.8644 36.2058 82.8252 36.1646 82.7252 36.0864C82.6505 35.7351 83.041 35.2479 83.2525 34.8672Z" fill="#4FAF5A"/>
<path d="M82.4299 31.4854C82.8801 31.5627 83.4267 31.9599 83.1934 32.4752L82.9446 32.5022C82.6752 32.3931 82.4673 32.1964 82.3534 31.9267C82.2684 31.7256 82.3311 31.7029 82.4299 31.4854Z" fill="#4FAF5A"/>
<path d="M81.1379 31.184C81.4097 31.1546 81.7279 31.0947 81.9508 31.2402C82.0665 31.4399 82.034 31.3659 81.9858 31.6517C81.6549 31.6664 81.3193 31.7343 81.0849 31.5352C81.0535 31.3246 81.0565 31.4003 81.1379 31.184Z" fill="#4FAF5A"/>
<path d="M3.29808 77.54C3.65424 77.7383 3.88029 78.0161 3.56077 78.347C3.28639 78.2681 3.1655 78.2 3.05859 77.936C3.10747 77.6829 3.09475 77.76 3.29808 77.54Z" fill="#4FAF5A"/>
</svg>
