<svg width="137" height="132" viewBox="0 0 137 132" fill="none" xmlns="http://www.w3.org/2000/svg">
<path d="M63.4808 3.75346C64.645 -0.835799 68.9759 -1.32948 71.2264 2.89714C71.3565 3.14407 71.4798 3.39434 71.5963 3.64797C72.5867 2.98803 73.7058 2.55827 74.917 2.7886C75.6701 2.92805 76.3335 3.36938 76.7531 4.01013C77.4269 5.01808 77.4688 6.28847 77.2148 7.43967C77.1666 7.65463 77.1127 7.86837 77.0532 8.08058C81.3142 9.02002 87.146 10.6715 90.4524 13.5447C102.051 2.46845 117.1 20.8861 104.327 30.5615C106.764 36.8723 108.045 40.8317 109.289 47.4838C110.902 56.1083 111.719 62.7075 108.026 71.0564C107.865 71.4198 107.698 71.7806 107.526 72.1389C108.134 73.7247 108.813 75.2078 109.498 76.7545C113.294 85.3243 116.913 95.7182 112.714 104.802C111.97 106.411 110.767 108.131 109.816 109.654C109.958 112.786 109.799 117.028 109.359 120.105C109.403 120.2 109.477 120.439 109.544 120.506C110.037 120.999 113.083 121.591 114.279 122.952C114.587 123.303 114.768 123.727 114.726 124.199C114.678 124.737 114.397 125.122 114.002 125.467C111.852 127.344 107.8 127.938 105.073 128.526C90.6644 131.632 75.8631 132.31 61.1641 131.886C57.9319 131.792 54.6733 131.77 51.4508 131.503C46.4587 131.089 24.2145 128.533 21.7247 125.228C21.5204 124.956 21.4169 124.633 21.4679 124.292C21.7754 122.239 26.138 121.75 27.4907 120.619C27.5914 120.535 27.5993 120.044 27.6153 119.891C27.1668 117.86 27.066 113.907 27.2519 111.785C25.4523 111.202 23.162 108.286 22.3336 106.634C17.225 96.4439 23.6859 83.6375 29.4179 75.2701C26.2117 72.1954 24.1245 65.3707 24.0318 61.002C23.9607 58.3357 24.3823 55.6792 25.2754 53.1659C26.8887 48.6965 27.4763 46.4445 27.8907 41.6244C28.1082 39.0952 29.5426 35.7032 29.7994 33.0152C29.9282 32.2407 31.023 30.7635 31.5839 30.186C28.9324 27.9443 27.4697 26.3446 27.042 22.7062C25.9411 13.3442 36.6808 6.43127 44.2341 13.0383C44.4935 13.2668 44.7479 13.5007 44.997 13.7405C48.4005 11.0994 53.9523 8.69439 58.2222 8.3715C57.0039 4.04027 59.5678 0.99269 63.4808 3.75346Z" fill="#020000"/>
<path d="M27.6153 119.892C27.8041 120.77 28.0195 121.921 28.2553 122.765C37.7968 128.084 61.5641 129.556 72.3364 129.181C80.1821 128.908 91.6734 128.046 99.2772 125.82C101.549 125.155 107.668 123.634 108.86 121.581C109.028 121.293 109.259 120.471 109.359 120.105C109.403 120.2 109.478 120.44 109.544 120.506C110.037 120.999 113.083 121.591 114.279 122.953C114.587 123.303 114.768 123.728 114.726 124.199C114.678 124.738 114.397 125.122 114.002 125.467C111.852 127.344 107.8 127.938 105.073 128.526C90.6645 131.632 75.8632 132.31 61.1642 131.886C57.9319 131.793 54.6734 131.77 51.4509 131.503C46.4588 131.089 24.2146 128.533 21.7248 125.228C21.5205 124.956 21.417 124.633 21.468 124.293C21.7755 122.24 26.1381 121.751 27.4908 120.62C27.5914 120.535 27.5994 120.044 27.6153 119.892Z" fill="#FFDCA8"/>
<path d="M65.1228 4.8251C65.2407 1.47624 68.7944 0.00735915 69.5949 3.58347C69.8642 5.53284 69.6372 7.43059 69.402 9.37767C70.2218 8.04623 71.1203 6.4537 72.0402 5.41455C73.0046 4.32531 75.5797 4.0111 75.9939 5.55369C76.2451 6.48932 73.9418 9.16089 73.4574 9.77531C78.6949 9.87563 82.3115 10.612 86.9893 13.2804C87.8431 13.7674 88.7985 14.1965 89.5344 14.8476C89.8185 15.6447 88.9258 16.2897 89.704 16.6833C90.1915 16.4904 91.2369 14.937 91.75 14.4468C94.4362 11.8804 97.8088 10.9058 101.343 12.2444C107.604 14.6156 110.177 25.9993 102.915 28.7749C102.627 28.8832 102.336 28.9834 102.042 29.075C101.484 28.9289 100.901 28.7029 100.375 28.906L100.218 29.1607C100.464 29.8616 101.086 30.2049 101.718 30.5116C101.963 30.6321 102.212 30.7414 102.466 30.8394C107.97 43.6722 111.981 60.1191 105.209 72.9323C105.249 73.0277 105.289 73.1232 105.328 73.2188C105.36 73.2352 105.392 73.2507 105.423 73.2683C107.25 74.2899 111.014 85.0553 111.627 87.3952C113.069 92.8986 113.636 100.149 110.517 105.228C110.458 105.324 110.392 105.4 110.319 105.485C107.462 111.295 98.6904 113.514 92.8074 112.235C87.5301 111.087 83.1555 108.775 79.2558 104.999C79.0658 104.815 78.5767 103.854 78.359 103.526L78.1107 103.486C77.6791 104.015 77.3966 104.173 76.7167 104.255C73.7558 104.61 71.4238 105.703 68.7469 106.894C67.3083 107.534 66.3524 105.548 66.0726 104.403C68.8564 98 73.2925 100.386 75.2 94.3337C76.0161 91.7445 74.9261 88.0432 72.1765 87.163C70.5008 86.6267 68.4314 88.55 67.097 89.4069C65.5815 86.4035 65.6677 84.4956 68.2844 81.9237C72.7938 77.4918 80.2411 78.8734 84.2167 83.2682C85.1026 84.2476 86.4616 86.801 87.5089 87.2027C90.0566 88.4112 95.0324 90.8873 97.8233 90.8294L98.0621 90.7798C98.197 90.3975 98.2317 90.1042 98.0701 89.7362C97.6392 89.3097 96.8059 89.2384 96.1766 89.1078C95.282 88.93 94.9438 88.8668 94.0843 88.4961C92.9936 88.1241 89.3388 86.9108 88.6033 86.33C86.4667 84.6432 85.6916 82.1484 83.0663 80.3723C80.3032 78.503 76.4605 77.2984 73.1473 77.932C68.6203 78.7977 67.4866 80.3246 65.0545 83.7513C62.9489 80.7803 61.9168 79.2546 58.0931 78.3521C53.6224 77.2971 48.4617 79.1118 45.4628 82.5494C44.5712 83.5716 43.1137 85.938 42.0549 86.5518C39.188 88.214 35.7116 89.1593 32.8514 90.9272C32.5361 91.1222 32.532 91.3199 32.4784 91.6235L32.6915 91.9222C33.7381 92.0969 41.3546 88.5272 42.6487 87.8517C44.6363 86.339 45.4675 84.5191 47.2368 82.7552C49.4052 80.5891 52.5443 79.3718 55.6464 79.4003C59.2333 79.4333 63.8562 82.5052 63.8502 86.4104C63.8482 87.6678 63.1821 88.4763 62.2908 89.3007C60.6342 87.8225 59.9965 87.3268 57.7868 87.3192L57.7286 87.3504C57.1894 87.6348 56.3835 87.8552 55.9754 88.2583C54.2653 89.9472 54.5611 94.3777 55.6729 96.2345C58.3316 100.675 62.2808 98.7636 64.1788 104.441C63.5332 105.746 63.2321 106.138 62.1039 107.128C60.8076 106.48 59.0537 105.581 57.676 105.254C54.7895 104.567 54.6001 105.272 51.9593 103.686C51.1215 106.091 48.7142 108.149 46.6222 109.498C39.6418 114.002 29.4436 114.185 24.5356 106.641C22.5812 103.861 21.8791 100.461 22.0882 97.1094C22.2053 95.2136 22.5249 93.3358 23.0412 91.5079C23.8033 88.844 28.8642 76.5481 31.722 76.8196C32.2502 77.0587 32.0557 77.0566 32.5171 76.9461L32.6166 76.6568C32.4702 75.7057 30.2033 73.6624 29.4995 72.4975L29.4272 72.3751C27.8759 70.6182 26.8209 67.0549 26.3414 64.8317C25.8014 62.4316 25.6726 59.9573 25.9605 57.5143C26.235 55.2487 26.9369 53.1757 27.7322 51.0481C28.858 48.3939 28.7505 45.2712 29.4377 42.5704C30.202 39.5664 30.9198 35.9895 31.6767 33.0556C32.1723 31.1347 34.4556 27.5024 35.5344 25.8307C35.3511 25.3685 35.3235 25.22 34.886 24.9516C35.1361 24.5804 35.2724 24.3242 35.4786 23.9313C36.3153 23.1263 36.3038 23.0867 37.3989 23.2548C38.4666 21.8955 39.3663 20.7979 40.521 19.5068C40.7361 19.2746 40.9542 19.045 41.1751 18.8183C46.4295 13.4352 54.1784 9.78201 61.7594 9.68016C60.8172 8.36303 59.4326 7.53152 59.2676 5.76378C59.4096 5.09958 60.4115 4.38423 61.0883 4.42944C63.6174 4.59857 64.1549 7.91196 65.3411 9.06757L65.5977 9.06316C66.2482 8.06419 65.4377 5.90703 65.1228 4.8251Z" fill="#FF9B34"/>
<path d="M67.0967 89.4067C65.5812 86.4033 65.6673 84.4953 68.2841 81.9234C72.7934 77.4916 80.2407 78.8731 84.2163 83.268C85.1022 84.2473 86.4612 86.8007 87.5086 87.2025C87.1939 88.2756 87.7532 87.6333 87.4081 88.5021L87.135 87.6581C86.97 87.1611 86.664 87.1789 86.3843 86.7962C85.329 85.3516 84.5849 84.057 83.3527 82.7617C81.9514 81.2882 75.7215 78.3841 74.0232 79.7399C74.013 80.6782 76.3377 82.2043 75.8533 82.7137C74.8341 83.8241 73.2115 85.2527 72.9382 86.8021C72.9327 86.8333 74.5574 88.73 74.7601 88.9437C76.8317 91.1275 75.6702 96.0411 73.6709 97.8942C71.7447 99.6798 67.0076 100.801 66.6319 104.289C66.5685 104.67 66.8994 105.815 67.2172 106.078C68.8029 107.392 71.7483 104.896 73.4789 104.574C74.7387 104.34 75.4323 104.182 76.6373 103.945C77.3847 103.737 78.0419 102.776 78.5319 103.226C79.2293 103.866 79.2523 104.598 80.0366 105.298C84.714 109.471 90.8888 112.572 97.2641 112.211C101.652 111.963 105.953 110.442 108.78 107.02C109.204 106.506 109.773 105.808 110.318 105.485C107.461 111.294 98.69 113.514 92.8071 112.234C87.5297 111.087 83.1551 108.774 79.2555 104.999C79.0655 104.815 78.5764 103.854 78.3587 103.526L78.1104 103.485C77.6788 104.014 77.3962 104.173 76.7164 104.255C73.7554 104.609 71.4235 105.703 68.7466 106.894C67.3079 107.534 66.3521 105.548 66.0723 104.403C68.856 97.9997 73.2921 100.386 75.1996 94.3335C76.0158 91.7443 74.9258 88.043 72.1761 87.1628C70.5005 86.6264 68.431 88.5498 67.0967 89.4067Z" fill="#FF9B34"/>
<path d="M65.1221 4.8251C65.2399 1.47624 68.7937 0.00735915 69.5941 3.58347C69.5431 4.32074 69.6743 4.32729 69.2667 4.7126C67.9896 5.06121 66.6143 4.7674 65.1221 4.8251Z" fill="#FBB257"/>
<path d="M35.4784 23.9306C36.3151 23.1256 36.3035 23.086 37.3987 23.2541C36.8118 24.0732 36.1475 25.0491 35.5341 25.83C35.3508 25.3678 35.3233 25.2192 34.8857 24.9509C35.1359 24.5797 35.2721 24.3235 35.4784 23.9306Z" fill="#2E1500"/>
<path d="M54.5245 49.8413C54.0947 49.7819 53.9307 49.8436 53.7012 49.5782C55.0959 47.9361 58.91 46.7525 60.9804 46.6179C68.6023 46.1225 76.3975 50.5117 76.8807 58.7528C76.9867 60.5588 76.7961 61.9686 76.6126 63.7403C76.5761 64.4779 76.4683 64.3529 76.8116 64.8682L77.5435 65.1322C77.9419 65.4708 78.0791 65.5505 78.2386 66.0669C77.8918 66.908 77.0476 66.4956 76.3954 66.2362C75.3093 65.9267 74.8528 66.5564 74.2407 67.3323C73.7447 72.5826 67.2794 74.4275 62.8937 73.9885C59.4993 73.6487 54.8744 71.3907 53.0211 68.5835C51.6778 67.6821 50.161 66.7648 49.4494 65.3071C49.4298 64.6361 48.039 62.5453 48.1314 60.8905C48.3312 57.3174 49.34 54.0474 51.7477 51.3172C52.0596 50.9634 52.5081 50.5991 52.9654 50.5927C53.4769 49.8402 53.6509 49.9566 54.5245 49.8413Z" fill="#C66618"/>
<path d="M49.4494 65.3072C49.4298 64.6361 48.039 62.5453 48.1314 60.8905C48.3312 57.3174 49.34 54.0474 51.7477 51.3173C52.0596 50.9635 52.5081 50.5992 52.9654 50.5928C54.004 51.0543 55.176 52.1495 55.8711 51.1646C55.5269 52.5493 55.4902 52.7916 55.8256 54.2345C56.6557 54.9406 57.6367 55.7318 58.3509 56.5333C58.9855 56.6867 59.7283 56.8869 60.3616 57.0009C60.5455 59.1465 60.2955 62.3634 61.3609 63.8731C59.4811 68.1699 55.7111 68.6877 51.9785 66.1983C51.658 65.3279 51.5158 64.6107 50.653 64.1987C50.0025 64.2546 49.6268 64.6798 49.4494 65.3072Z" fill="#C66618"/>
<path d="M62.4855 64.1587C64.1587 68.3963 70.708 68.8127 73.6195 65.7505C74.3403 64.9922 74.7878 63.0023 75.3405 62.4506C75.9211 62.3138 75.6859 62.2909 76.2256 62.531C76.6698 63.1305 76.5433 62.9289 76.6124 63.7408C76.5759 64.4784 76.4681 64.3534 76.8114 64.8687L77.5434 65.1327C77.9417 65.4713 78.0789 65.551 78.2385 66.0674C77.8917 66.9085 77.0474 66.4961 76.3952 66.2367C75.3092 65.9272 74.8526 66.5568 74.2405 67.3328C73.7445 72.5831 67.2792 74.428 62.8935 73.9889C59.4991 73.6492 54.8742 71.3912 53.0209 68.584C51.6776 67.6826 50.1608 66.7653 49.4492 65.3076C49.6266 64.6803 50.0023 64.2551 50.6528 64.1992C51.5156 64.6111 51.6578 65.3283 51.9783 66.1988C55.7109 68.6881 59.4809 68.1704 61.3607 63.8736L61.813 64.393C62.1538 64.3537 62.1932 64.3388 62.4855 64.1587Z" fill="#C66618"/>
<path d="M62.4855 64.1587C64.1587 68.3963 70.708 68.8127 73.6195 65.7505C74.3403 64.9922 74.7878 63.0023 75.3405 62.4506C75.9211 62.3138 75.6859 62.2909 76.2256 62.531C76.6698 63.1305 76.5433 62.9289 76.6124 63.7408C76.5759 64.4784 76.4681 64.3534 76.8114 64.8687L77.5434 65.1327C77.9417 65.4713 78.0789 65.551 78.2385 66.0674C77.8917 66.9085 77.0474 66.4961 76.3952 66.2367C75.3092 65.9272 74.8526 66.5568 74.2405 67.3328C69.5054 70.2216 66.3244 70.5895 62.0748 66.3873C59.2285 69.7087 57.0689 69.9636 53.0209 68.584C51.6776 67.6826 50.1608 66.7653 49.4492 65.3076C49.6266 64.6803 50.0023 64.2551 50.6528 64.1992C51.5156 64.6111 51.6578 65.3283 51.9783 66.1988C55.7109 68.6881 59.4809 68.1704 61.3607 63.8736L61.813 64.393C62.1538 64.3537 62.1932 64.3388 62.4855 64.1587Z" fill="#280F01"/>
<path d="M77.5437 65.1328C77.9421 65.4714 78.0792 65.5511 78.2388 66.0675C77.892 66.9086 77.0477 66.4962 76.3955 66.2368C76.5933 65.8134 77.1561 65.4393 77.5437 65.1328Z" fill="#2E1500"/>
<path d="M57.2573 50.8418C58.0566 51.4348 57.4393 51.9018 58.1403 52.4264C58.9678 52.2795 58.9549 51.8035 59.1763 51.0316C60.8187 50.9558 64.8376 50.9286 66.2631 51.4751C68.7271 53.7324 64.4713 56.6814 62.2856 56.9962C62.0614 59.0503 62.0893 62.1276 62.4849 64.1588C62.1926 64.3389 62.1532 64.3538 61.8124 64.3931L61.3601 63.8737C60.2947 62.364 60.5447 59.1471 60.3608 57.0015C59.7275 56.8875 58.9847 56.6873 58.3501 56.5339C57.6359 55.7323 56.6549 54.9412 55.8248 54.2351C55.4894 52.7922 55.5261 52.5499 55.8703 51.1651L57.2573 50.8418Z" fill="#311800"/>
<path d="M34.5538 52.4868C38.4353 52.2289 41.1458 53.4092 41.5476 57.5519C41.5013 57.6649 41.4518 57.7763 41.399 57.8864C40.2498 60.2728 38.542 60.8932 36.2536 61.681C29.1318 63.2645 26.071 54.2804 34.5538 52.4868Z" fill="#FFC271"/>
<path d="M91.453 52.1847C93.229 51.9626 95.0034 52.2806 96.5143 53.2566C98.578 54.5896 99.5963 57.148 98.1323 59.3131C97.2784 60.5757 95.6328 60.9217 94.2288 61.1372C92.4801 61.3632 90.9124 61.3593 89.3044 60.46C87.3276 59.3545 85.8139 56.9914 87.1691 54.8152C88.1759 53.1987 89.7102 52.639 91.453 52.1847Z" fill="#FFC271"/>
<path d="M94.498 22.0713C95.499 20.2142 96.4779 18.7355 98.3756 17.6854C100.226 16.6613 101.889 16.969 102.888 18.88C103.286 20.5173 103.557 22.1788 102.629 23.7766C101.854 25.1117 99.6745 26.2856 98.1537 25.4302C98.0221 25.3562 97.9481 25.1788 97.863 25.0403L97.8585 24.9066C96.9781 23.4196 95.9956 22.7623 94.498 22.0713Z" fill="#2E1500"/>
<path d="M102.888 18.8799C103.286 20.5172 103.557 22.1787 102.629 23.7765C101.854 25.1116 99.6744 26.2855 98.1536 25.4301C98.0221 25.3561 97.9481 25.1787 97.863 25.0402L97.8584 24.9065C102.405 22.857 98.6398 20.5802 98.548 19.2382C99.3441 18.6279 101.443 19.0665 102.888 18.8799Z" fill="#944401"/>
<path d="M77.7602 46.6133C78.1304 46.7858 78.6674 47.7232 78.888 48.1575C80.0181 50.3678 83.4988 51.2478 85.1256 49.1353C85.7764 48.2901 86.4956 46.6873 87.6978 46.9261C88.3429 47.6695 88.0548 48.8243 87.7156 49.6248C86.9512 50.422 86.2936 51.1723 85.3377 51.7405C83.9843 52.5486 82.3622 52.7763 80.8387 52.3723C79.009 51.9015 76.3105 49.6835 76.7944 47.3865C76.8833 46.9646 77.3956 46.796 77.7602 46.6133Z" fill="#2E1500"/>
<path d="M50.1827 46.6465C50.4735 46.7188 50.8005 46.8322 51.09 46.924C51.3309 47.1776 51.5956 47.429 51.5518 47.8115C51.2621 50.3437 47.9453 52.6485 45.5286 52.5524C43.4339 52.4692 42.2452 51.4305 40.9575 50.0646C39.8579 48.6211 40.1366 48.1076 41.4691 47.0309C42.1612 48.0262 42.9033 49.1462 43.6823 50.0599C46.8465 51.1443 48.9817 49.5916 50.1827 46.6465Z" fill="#2E1500"/>
<path d="M51.6178 17.5732C51.7829 17.1773 51.962 17.2147 52.0291 16.6384C51.2509 15.9088 49.0124 19.193 48.001 18.0147L48.059 17.7153C49.659 15.8935 52.4246 13.8072 54.8835 15.1528C55.2712 15.3649 55.5479 15.4004 55.6888 15.821L55.2527 16.1509C54.1688 16.8834 52.6747 18.2193 51.4703 18.4629L51.1871 18.3883L51.1602 18.0496C51.3037 17.8874 51.4495 17.7063 51.6178 17.5732Z" fill="#FBB257"/>
<path d="M51.6178 17.5724C52.4931 17.1517 54.1665 15.4505 55.1248 15.6996L55.2527 16.15C54.1688 16.8826 52.6747 18.2184 51.4703 18.462L51.1871 18.3874L51.1602 18.0487C51.3037 17.8866 51.4496 17.7054 51.6178 17.5724Z" fill="#FBC369"/>
<path d="M56.5333 16.2039C56.9194 16.1846 56.9796 16.2392 57.3467 16.3989L57.421 16.7125C57.0759 17.4871 55.7616 18.0412 55.0094 18.392C54.8036 18.4722 54.6859 18.4503 54.4678 18.4428L54.416 18.1886C54.7762 17.6413 55.9582 16.7524 56.5333 16.2039Z" fill="#FBC369"/>
<path d="M52.6922 105.984C53.8807 106.075 55.5959 106.131 56.8061 106.355C58.4316 106.655 61.7596 109.472 63.4276 108.169C63.8843 107.812 64.7242 106.682 65.0902 106.186C65.4224 106.378 66.5867 109.371 68.7629 108.625C71.4567 107.701 75.2202 105.265 78.1874 105.672C79.3709 107.518 79.3636 107.252 81.0719 108.553C84.1955 110.931 87.4545 112.865 91.3606 113.624C98.4699 115.016 101.961 114.083 108.096 110.917C108.163 114.029 108.354 118.048 107.335 121.05C105.417 121.89 103.487 122.739 101.48 123.344C83.6884 128.701 49.416 129.296 31.8029 122.441C31.1667 122.193 30.2815 121.928 29.7736 121.461L29.6357 121.101C29.5533 119.853 29.2802 118.228 29.1685 116.869C29.0481 115.475 28.9493 114.079 28.8721 112.681C34.1529 114.814 38.838 114.818 44.1502 112.657C46.9091 111.534 51.2597 108.68 52.6922 105.984Z" fill="#FF9B34"/>
<path d="M29.1689 116.869C29.2554 116.162 29.1371 116.214 29.5328 115.762C31.0089 115.646 30.793 119.721 30.3839 120.774C30.0755 120.995 30.0058 121.006 29.6362 121.101C29.5538 119.853 29.2807 118.228 29.1689 116.869Z" fill="#FBB257"/>
<path d="M100.063 118.375C100.887 118.445 101.966 118.683 101.916 119.665C101.358 119.707 100.819 119.703 100.342 119.408C99.9936 118.851 100.086 119.061 100.063 118.375Z" fill="#F0953B"/>
<path d="M70.6552 88.5618C71.9174 88.4647 73.04 88.9047 73.5783 90.1049C74.056 91.1734 74.1935 92.3631 73.9718 93.5124C72.9206 98.9529 67.3533 97.2811 65.1401 102.882C63.8283 100.339 62.8118 99.6887 60.3465 98.4483C59.5523 98.0753 58.2268 97.4817 57.7144 96.8349C56.4603 95.2521 56.027 92.7038 56.4858 90.8059C56.5429 89.4635 58.3121 88.1723 59.5318 88.9599C62.0867 90.61 62.3259 91.1858 65.1425 88.873L65.2693 89.0455C67.2814 91.7696 68.3929 90.3733 70.6552 88.5618Z" fill="#EB8D32"/>
<path d="M32.3228 29.071C30.9985 27.4399 29.196 25.2634 28.7693 23.1586C27.82 18.4761 31.1828 13.0847 35.9185 12.1166C39.2252 11.4407 41.5252 13.069 44.0858 14.7653C42.376 16.0711 40.7249 17.4517 39.1369 18.9031L39.2214 19.379C39.5985 19.6209 40.0433 19.5298 40.5195 19.5061C39.3648 20.7972 38.4651 21.8948 37.3975 23.2541C36.3023 23.086 36.3139 23.1256 35.4772 23.9306C35.2709 24.3235 35.1347 24.5797 34.8846 24.9509L34.6568 25.201C33.8316 26.4618 33.053 27.7528 32.3228 29.071Z" fill="#E18029"/>
<path d="M33.4281 18.2443C35.7227 16.812 36.7821 17.2873 38.7981 18.8036L39.1381 18.9034L39.2226 19.3793C39.5996 19.6212 40.0445 19.5302 40.5207 19.5064C39.366 20.7975 38.4663 21.8952 37.3986 23.2545C36.3035 23.0864 36.315 23.126 35.4784 23.931C35.2721 24.3239 35.1358 24.5801 34.8857 24.9513L34.658 25.2014C34.5436 24.8392 33.7675 24.2428 33.4372 23.861C32.4047 22.6676 31.8092 19.7302 33.2598 18.5906L33.4281 18.2443Z" fill="#7C3A00"/>
<path d="M33.428 18.2443C35.7226 16.812 36.782 17.2873 38.7981 18.8036L39.138 18.9034L39.2225 19.3793C39.5996 19.6212 40.0444 19.5302 40.5206 19.5064C39.3659 20.7975 38.4662 21.8952 37.3986 23.2545C36.3034 23.0864 36.315 23.126 35.4783 23.931C36.2341 22.5044 36.9729 21.2912 37.9905 20.0243C38.099 19.8895 38.0545 19.9867 38.0387 19.7386C37.3467 19.4865 36.2436 18.709 35.9112 18.6323C35.1539 18.4577 34.3916 19.0846 33.2598 18.5906L33.428 18.2443Z" fill="#502701"/>
<path d="M121.085 30.2525C125.406 30.0084 127.135 32.5409 127.601 36.533L127.687 36.4881C136.204 32.0614 141.673 43.1007 129.883 48.7419C128.6 49.3358 121.942 51.8552 120.904 51.4645C120.166 50.9109 119.788 50.1784 119.439 49.3371C117.118 43.7343 113.141 33.4253 121.085 30.2525Z" fill="#A63156"/>
<path d="M121.975 32.4845C126.944 31.5425 124.341 37.1023 126.179 38.9851L126.42 39.0644C127.858 38.2335 129.277 37.1192 131.029 37.6451C131.815 37.724 132.865 37.894 133.54 38.3351C134.415 38.4945 134.736 38.7979 134.734 39.7174C134.72 46.1397 126.194 48.0749 121.466 49.357C120.567 45.7676 116.918 38.9644 118.774 35.2895C119.396 33.5622 120.05 32.6176 121.975 32.4845Z" fill="#F1476A"/>
<path d="M121.974 32.4844C121.913 33.0365 119.895 35.5212 119.344 35.6422C119.015 35.5396 118.981 35.5457 118.773 35.2893C119.396 33.562 120.049 32.6174 121.974 32.4844Z" fill="#FCF6F0"/>
<path d="M12.5206 40.7839C19.5085 39.7781 19.7506 47.8692 17.5674 52.6388C14.3424 59.6846 15.9508 60.9772 7.81841 57.3634C4.80858 55.893 1.39213 53.9741 0.628675 50.4228C-0.449024 45.4106 4.69425 42.628 8.61977 45.5334C9.29676 43.2889 10.1942 41.6289 12.5206 40.7839Z" fill="#A63156"/>
<path d="M10.6977 45.4591C11.1026 43.8001 12.3351 42.4799 14.1414 42.6139C15.0393 42.9638 16.0221 44.1499 16.3847 45.0181C17.6539 48.0573 15.8012 51.3888 14.9094 54.2909C14.6893 55.007 14.0304 56.853 13.5136 57.2661C12.3283 57.4162 8.54647 55.2475 7.25994 54.6973C5.92499 54.1266 3.20913 52.2485 3.18614 50.6611C2.82793 49.7323 2.49454 47.9447 3.03558 47.0396C3.28007 46.6307 3.80254 46.6295 4.2291 46.5458C5.82147 46.3177 6.48202 46.2405 8.04014 46.4759C8.70571 47.1265 8.82719 47.7271 9.8356 48.1135C10.5136 47.8122 10.3136 46.2334 10.6977 45.4591Z" fill="#F1476A"/>
<path d="M4.2291 46.5459C4.63937 46.6263 4.86377 46.5885 5.09531 46.8455C4.76192 47.5453 3.56764 50.3557 3.18614 50.6613C2.82793 49.7325 2.49454 47.9448 3.03558 47.0397C3.28007 46.6308 3.80254 46.6296 4.2291 46.5459Z" fill="#FCF6F0"/>
<path d="M10.6982 45.4591C11.1032 43.8001 12.3357 42.4799 14.1419 42.6139C13.4989 43.5195 11.75 45.1426 10.6982 45.4591Z" fill="#F0B6AD"/>
<path d="M11.9088 71.0693C12.8892 70.9872 14.0739 71.2809 14.8775 71.8146C20.0464 75.248 14.9785 85.1792 12.7764 88.7947C10.7555 88.0497 8.60668 87.5214 6.48073 86.7213C1.73344 84.7757 -2.52459 80.1441 1.78444 75.2783C4.29905 74.4238 5.096 74.6818 7.5351 75.437L7.5826 75.3303C8.63896 73.0034 9.51157 71.9623 11.9088 71.0693Z" fill="#A63156"/>
<path d="M4.32148 76.7619C6.32261 76.5548 7.97892 78.5238 8.83326 78.3565C9.42317 76.961 8.99934 75.0844 10.501 73.9506C10.8038 73.7217 11.0997 73.3142 11.489 73.2022C14.6539 72.2912 15.5707 76.1156 14.9986 78.33C14.3263 80.9316 13.3814 83.1154 12.507 85.6154C12.4394 85.785 11.983 86.5513 11.7781 86.5295C9.85338 86.326 7.06916 84.76 5.36703 83.8557C3.80906 83.0281 1.7816 80.9526 1.57715 79.2954C2.01467 77.8032 2.76701 77.003 4.32148 76.7619Z" fill="#F1476A"/>
<path d="M1.57715 79.2952C2.01467 77.803 2.76701 77.0029 4.32148 76.7617C4.17671 78.2873 3.16633 79.3488 1.57715 79.2952Z" fill="#FCF6F0"/>
<path d="M121.816 63.2962C124.713 63.1143 125.597 64.7292 126.693 67.0113C126.717 67.0614 126.949 67.249 126.998 67.2412C128.301 67.0386 129.464 66.9994 130.773 67.1025C135.969 70.6112 131.887 75.3917 127.754 77.3832C126.299 78.0509 123.096 79.3294 121.512 78.9908C120.392 78.3603 119.393 74.7709 118.921 73.4909C117.564 69.817 117.209 64.7481 121.816 63.2962Z" fill="#F1476A"/>
<path d="M121.844 65.3623C122.237 65.3693 122.281 65.3893 122.621 65.5913L122.617 65.8868C122.221 66.3645 121.472 66.7393 120.919 67.0617C120.499 67.1441 120.65 67.1705 120.273 67.034L120.312 66.7376C120.816 66.0702 121.179 65.8456 121.844 65.3623Z" fill="#F0B6AD"/>
</svg>
