<svg width="109" height="88" viewBox="0 0 109 88" fill="none" xmlns="http://www.w3.org/2000/svg">
<path d="M42.8734 2.4492C42.9226 1.94017 42.9561 1.6659 43.1569 1.20327C43.7959 -0.273131 45.583 -0.410536 46.4918 0.899948C46.8015 1.34657 46.8839 1.64001 47.0383 2.16405C47.7637 1.36683 48.7364 0.710844 49.862 1.05596C50.3352 1.19692 50.7285 1.52855 50.9471 1.97121C51.2796 2.64971 51.1603 3.35988 50.9225 4.04199C54.9774 4.68099 58.6754 5.98699 61.9331 8.56446C63.6562 7.07868 66.0765 6.57254 68.2366 7.32747C69.8546 7.8928 71.1795 9.08168 71.9158 10.6292C72.6465 12.1439 72.7459 13.8866 72.1925 15.4746C71.684 16.8933 70.725 17.9383 69.3734 18.5841C72.1249 24.763 73.464 33.8248 70.2461 40.0698C71.1085 41.4645 72.3226 44.1318 72.9243 45.6059C75.9223 52.9522 77.4983 60.9709 76.1212 68.8666C78.8232 69.4999 79.7556 72.5995 78.9533 75.0215C78.646 75.9496 78.1574 76.6335 77.4648 77.3128C78.9505 77.9597 82.6991 79.1111 81.7849 81.3177C81.1861 82.7627 77.7955 83.9981 76.4138 84.4417C73.0441 85.5244 69.5296 86.177 66.0396 86.6905C55.1916 88.194 44.2036 88.4035 33.3061 87.3153C26.8262 86.7137 19.7326 85.8578 13.5636 83.638C12.5342 83.2671 10.779 82.3629 10.3956 81.2911C9.97348 80.0136 11.4124 79.1497 12.3342 78.6163C11.2895 76.7601 10.423 74.792 10.1573 72.6597C9.94018 70.9177 9.98933 68.1367 12.2425 67.8726C12.5832 65.2803 14.744 64.2352 16.7446 66.0982C17.6703 65.4177 18.3913 65.424 19.4305 65.8642C19.5187 65.2899 19.5715 64.6907 19.6615 64.0988C18.5531 63.5433 17.7063 62.5874 17.1497 61.4974C14.9665 57.2215 17.1208 51.5064 21.2351 49.3333L21.3461 48.3308C21.6098 46.0049 21.6082 44.1213 24.5818 44.4983C22.5558 42.9611 21.0654 40.8251 20.3219 38.3934C19.604 36.0976 19.5948 33.6119 20.2961 31.3002C20.4079 30.6921 21.0404 29.7121 21.1047 29.1601C21.5198 25.5971 22.1482 21.6974 23.8448 18.4737C23.589 17.4271 24.1996 16.8828 24.7043 16.0586C24.5534 15.9376 24.4247 15.8178 24.2877 15.6816C23.183 14.5905 22.5629 13.1016 22.5667 11.5491C22.5576 9.77845 23.2617 8.0787 24.5202 6.83297C25.7029 5.65119 27.3094 4.9918 28.9815 5.00196C30.692 5.0227 32.2351 5.73315 33.4239 6.95151C35.4554 5.73866 37.8361 4.94607 40.1296 4.41914C39.2119 2.26131 41.0312 1.40937 42.8734 2.4492Z" fill="#482602"/>
<path d="M77.4653 77.3125C78.9509 77.9595 82.6995 79.1108 81.7854 81.3175C81.1866 82.7625 77.7959 83.9979 76.4142 84.4415C73.0446 85.5241 69.5301 86.1767 66.04 86.6902C55.192 88.1937 44.2041 88.4033 33.3066 87.315C26.8267 86.7135 19.733 85.8575 13.564 83.6377C12.5346 83.2668 10.7794 82.3626 10.396 81.2908C9.97391 80.0133 11.4128 79.1494 12.3346 78.6161C14.5518 82.3171 18.9226 84.8033 23.0108 82.3757C24.9339 82.3757 26.8538 82.2149 28.7502 81.8957C30.5643 81.5878 32.2111 81.1777 34.0543 80.9892C37.9485 82.8914 43.2043 83.8155 47.5125 83.9064C48.8215 86.1722 51.433 87.361 53.9938 87.2854C55.9976 87.2264 57.4276 86.4192 58.7696 84.9998C63.9476 84.2074 68.8267 82.5176 72.239 78.3832C74.2309 78.9171 75.8427 78.5246 77.4653 77.3125Z" fill="#FFDCA8"/>
<path d="M43.7613 3.25111C43.7235 2.346 44.0469 0.298182 45.3944 1.18617L45.7096 1.55731C46.4066 2.92769 46.028 3.56544 46.1536 4.80834C46.9517 4.64305 46.8041 4.11214 47.228 3.52903C47.4006 3.20124 47.6222 2.90173 47.8853 2.64085C48.4266 2.10671 49.316 1.5615 49.9511 2.2733C50.1746 2.62677 50.1411 2.81955 50.1255 3.22726C50.0293 3.553 49.9765 3.69194 49.8176 3.98917C49.6625 4.2793 49.1658 4.82487 49.2007 5.10768L49.2649 5.18061C49.5188 5.18487 49.6066 5.15601 49.8499 5.1016C50.2386 4.91052 50.4699 5.00316 50.9087 5.07274C54.4671 5.43388 58.4492 7.11504 61.278 9.28441L60.9541 9.7818C60.87 10.0161 60.7956 10.1567 60.8462 10.4035C61.0013 10.6053 61.0836 10.6006 61.3291 10.5695C61.6347 10.3191 62.0421 9.79339 62.3466 9.49445C63.192 8.66529 64.4578 8.11859 65.6236 7.99675C67.0332 7.86191 68.4388 8.28672 69.537 9.17927C70.5767 10.0589 71.1715 11.0539 71.4414 12.3945C71.9282 14.8114 70.471 17.7666 67.7911 17.9167C67.4735 17.9345 66.4736 17.8781 66.2509 17.9868C66.7929 18.7707 67.4888 18.9161 68.3967 18.8775C68.6973 19.6756 69.037 20.4715 69.3211 21.2723C70.4108 24.745 71.3823 28.9253 71.0329 32.5819C70.9613 35.0357 70.4295 37.4211 69.3313 39.6217C68.9506 40.3852 68.4257 41.2165 68.1007 41.9672C68.8092 41.6185 68.9773 41.4312 69.5324 40.8603C69.8295 41.3887 70.0846 41.8486 70.346 42.3951C73.3014 48.2561 75.3161 55.0151 75.545 61.5999C75.774 67.3208 74.728 74.3481 70.6698 78.6371C67.8916 81.5731 63.4323 83.2271 59.5343 83.8564C59.7553 83.4463 60.1343 82.7948 60.2706 82.3723C60.3053 82.3092 60.3848 81.9735 60.4087 81.8821C61.2632 79.8713 61.3143 77.0211 60.3746 75.0592C60.069 74.4214 59.7979 73.4893 59.4395 72.9287C59.2491 72.6259 59.0003 72.3647 58.7066 72.1608C58.085 71.7342 57.4987 71.7018 56.7834 71.8302C56.4897 71.0247 56.1579 70.3278 55.4188 69.8382C54.7904 69.4287 54.0228 69.2912 53.2916 69.4576C52.3474 69.6667 51.7799 70.2034 51.2764 70.9873C51.1008 70.91 50.8624 70.8294 50.6782 70.7601C50.7949 69.9938 50.8724 69.2037 50.9569 68.4324C53.5382 69.1231 56.8107 68.9249 59.3747 68.2398C60.0996 68.0462 60.8729 67.7025 61.5887 67.4606C61.9557 67.2396 62.5136 66.984 62.913 66.7545C64.5356 65.8213 65.381 65.0074 66.3508 63.4641C66.2134 63.5453 66.2196 63.5726 66.0827 63.5709L66.048 63.3443C65.8515 63.5056 65.568 63.647 65.3146 63.86C63.271 65.5754 61.3683 66.6892 58.7378 67.3521C55.6034 68.1416 51.5294 68.1024 48.6251 66.5001C48.0586 66.1485 47.3509 65.5543 47.2292 64.8557C46.9491 63.2488 48.7241 64.5552 49.1612 63.8748L49.1175 63.7555C48.8685 63.5771 48.1422 63.5317 47.7883 63.4084C46.7974 63.0625 46.397 62.2474 46.7833 61.25C47.0559 60.6497 47.2757 60.4815 47.8634 60.2475C48.4108 60.0487 48.9292 60.1544 49.4865 60.0447C49.6232 59.9351 49.6626 59.9204 49.711 59.7505L49.6722 59.6829C49.0081 59.3103 47.1008 59.7715 47.6361 58.623C47.8905 58.0772 48.3759 57.6722 48.9441 57.4649C50.0688 56.8094 52.202 57.2735 53.5496 57.1275C55.7608 56.8872 57.8424 56.1562 59.2889 54.3795C58.9446 53.9836 57.1891 55.1111 56.7755 55.3309C57.2152 54.6834 57.8191 53.9524 57.9708 53.1813C57.4152 53.2619 56.0346 55.1634 55.6346 55.6757C54.6006 56.0335 53.4627 56.1846 52.3735 56.1755L52.8957 52.0504C53.0286 50.9385 53.3024 49.949 52.8025 48.9076C53.2252 48.8105 54.4984 48.4798 54.6785 48.0312C54.4484 47.9262 52.7877 48.3476 52.3758 48.4253C52.1639 48.2882 51.9361 48.1517 51.7203 48.018C50.9887 47.7263 49.3381 47.5625 48.5069 47.4585L44.0246 46.9146L31.0234 45.2662C29.6824 45.0954 27.9356 44.9683 26.6363 44.6834C26.2416 44.5968 24.5777 43.2698 24.2585 42.896C22.9845 41.7436 21.8958 39.9091 21.3556 38.2881C20.6443 36.1533 20.6126 33.6181 21.2786 31.4652C21.5074 30.7255 21.9239 30.0626 22.1035 29.3145C22.5034 25.6388 23.2004 21.903 24.8627 18.5676C24.415 17.5048 25.2806 17.1985 25.7047 16.3829C28.8445 10.3444 34.2996 6.48508 40.9769 5.31074C41.2552 5.49329 41.3438 5.51232 41.6572 5.57946C41.8915 5.54123 41.8764 5.58008 42.0332 5.45058C42.0041 5.10029 41.2991 4.53065 41.0484 4.11873C40.4194 3.06509 41.2417 2.64312 42.2312 3.18772C43.0648 3.73488 43.3201 4.5315 43.8384 4.73388L43.9272 4.70797C44.0373 4.39626 43.7965 3.68381 43.7613 3.25111Z" fill="#FF9B34"/>
<path d="M47.864 60.2475C48.4115 60.0487 48.9299 60.1543 49.4872 60.0447C49.6238 59.9351 49.6632 59.9203 49.7116 59.7505L49.6728 59.6829C49.0088 59.3103 47.1015 59.7715 47.6367 58.623C47.8911 58.0771 48.3766 57.6722 48.9448 57.4648C48.6496 57.8164 47.8028 58.2237 47.7833 58.6991C47.9765 58.6389 48.3615 58.1232 48.8964 57.93C50.1581 57.4745 52.2407 57.6767 53.5843 57.8028C53.8724 57.8823 54.1684 58.0646 54.0621 58.3958C53.9292 58.51 53.8888 58.5497 53.7366 58.6321L53.7593 58.7218C54.0428 58.8882 54.486 59.1143 54.6808 59.3551L54.7161 59.496C54.5609 59.7005 54.1059 59.5823 53.8565 59.5545L53.8996 59.6249C53.9803 59.7556 54.3519 60.2611 54.4683 60.3395C55.345 60.9257 54.3257 61.7743 54.4541 62.1645L54.5149 62.198C54.2621 62.3712 54.1763 62.3576 54.0593 62.5927C54.1184 62.8847 55.0189 63.6555 55.3069 63.9247C55.0069 64.2627 54.6871 64.5222 54.3718 64.8903L54.528 65.6577C54.1797 65.9809 53.9502 66.0769 53.5235 66.2609L54.0047 66.554C54.4348 66.6 55.166 66.5648 55.6148 66.5432C58.6674 66.4074 61.6218 65.4185 64.1403 63.6878C65.2181 62.9347 65.5385 62.2372 66.7725 61.8663L66.8401 61.9305C66.8367 62.0287 66.86 62.0645 66.8912 62.1571C67.1128 62.0571 67.2304 61.868 67.431 61.8328C67.9872 62.3207 65.1925 66.1706 64.7908 66.6312C65.0147 66.8766 65.101 66.9754 65.2828 67.2532C64.0477 67.1703 62.8075 67.2396 61.5894 67.4605C61.9564 67.2396 62.5143 66.984 62.9137 66.7545C64.5363 65.8213 65.3817 65.0073 66.3515 63.4641C66.214 63.5453 66.2203 63.5725 66.0833 63.5708L66.0487 63.3442C65.8521 63.5055 65.5686 63.647 65.3152 63.86C63.2716 65.5753 61.3689 66.6892 58.7385 67.352C55.604 68.1415 51.53 68.1023 48.6258 66.5C48.0593 66.1484 47.3516 65.5543 47.2299 64.8557C46.9497 63.2488 48.7248 64.5552 49.1619 63.8747L49.1181 63.7554C48.8691 63.5771 48.1429 63.5316 47.7889 63.4084C46.7981 63.0625 46.3977 62.2474 46.784 61.25C47.0565 60.6496 47.2763 60.4815 47.864 60.2475Z" fill="#E8812C"/>
<path d="M46.7842 61.2506C47.0567 60.6502 47.2765 60.4821 47.8642 60.248C47.8221 60.5548 47.1942 61.1858 46.898 61.2846L46.7842 61.2506Z" fill="#EF913F"/>
<path d="M66.7846 62.457L66.9044 62.4911C66.9073 62.7552 66.513 63.2431 66.3516 63.4641C66.2142 63.5453 66.2204 63.5726 66.0835 63.5709L66.0488 63.3442C66.2835 63.0449 66.5391 62.7484 66.7846 62.457Z" fill="#331600"/>
<path d="M40.9769 5.31055C41.2552 5.4931 41.3438 5.51213 41.6572 5.57927L41.7437 5.64385C41.6811 5.7704 41.6128 5.8289 41.4679 5.86429C35.4425 7.33359 29.9829 10.7417 27.0299 16.3353C26.9312 16.5222 26.6843 16.9395 26.6603 17.1466C26.7555 17.2587 26.7874 17.2601 26.9201 17.3216C26.9231 17.5049 26.4071 18.2873 26.2838 18.4657C25.5958 19.4611 25.1376 20.5667 24.72 21.704C24.0194 23.6556 23.4821 25.662 23.1137 27.7025C22.9929 28.3889 22.9779 29.1884 22.8474 29.8256C22.674 30.5233 22.3636 31.2603 22.1266 31.9295C21.7948 32.8668 21.6157 34.0338 21.5713 35.0069C21.4483 37.7048 22.6793 40.4915 24.2461 42.6235C24.3305 42.7383 24.2949 42.7728 24.2585 42.8958C22.9845 41.7434 21.8958 39.9089 21.3556 38.2879C20.6443 36.1531 20.6126 33.6179 21.2786 31.465C21.5074 30.7254 21.9239 30.0625 22.1035 29.3143C22.5034 25.6386 23.2004 21.9028 24.8627 18.5674C24.415 17.5047 25.2806 17.1983 25.7047 16.3827C28.8445 10.3442 34.2996 6.48489 40.9769 5.31055Z" fill="#FCC571"/>
<path d="M51.7207 48.0178C52.062 47.7518 53.6897 47.7016 54.2266 47.6771C55.6032 47.614 56.6281 47.2186 57.9229 46.8276C58.5058 46.6516 59.6693 45.9754 60.1869 45.9865L60.2079 46.0655C59.6983 46.7747 59.2523 46.931 58.4615 47.0869C57.3002 48.541 55.7327 49.217 54.5158 50.5953C54.2442 52.0693 54.0033 52.9357 54.4885 54.377C55.1822 54.172 55.2896 54.1385 55.9219 53.8096C56.3503 53.5864 57.7229 52.5042 57.9661 52.4606C58.1178 52.5629 58.0638 52.4951 58.1229 52.6775C58.0661 52.8799 58.0575 52.9023 57.9541 53.0838L57.9712 53.181C57.4155 53.2616 56.035 55.1631 55.635 55.6755C54.601 56.0333 53.463 56.1844 52.3739 56.1753L52.896 52.0502C53.029 50.9382 53.3028 49.9488 52.8028 48.9073C53.2255 48.8103 54.4987 48.4796 54.6788 48.031C54.4487 47.926 52.7881 48.3474 52.3762 48.4251C52.1642 48.2879 51.9364 48.1514 51.7207 48.0178Z" fill="#E8812C"/>
<path d="M75.5454 61.6006C75.53 61.742 75.5346 61.8323 75.4573 61.9522C75.2499 61.4404 75.1488 59.85 75.0204 59.2116C74.5841 57.0003 74.1523 54.7505 73.5421 52.5819C72.5729 49.1377 71.136 45.8905 69.7731 42.5956C69.7322 42.4964 69.6793 42.3118 69.7293 42.2188C69.9827 42.3715 70.0367 42.4088 70.3463 42.3957C73.3018 48.2568 75.3164 55.0157 75.5454 61.6006Z" fill="#FCC571"/>
<path d="M49.8506 5.10185C50.2392 4.91078 50.4706 5.00342 50.9094 5.073C54.4678 5.43413 58.4499 7.1153 61.2786 9.28466L60.9548 9.78206C60.6582 9.71095 59.0407 8.68849 58.6192 8.45924C57.8221 8.02808 57.0045 7.63536 56.1699 7.28252C55.0052 6.79165 53.8002 6.40326 52.5685 6.12187C52.1327 6.01906 50.5894 5.69905 50.2507 5.56506C50.0642 5.39915 50.1338 5.28594 49.8506 5.10185Z" fill="#FCC571"/>
<path d="M49.8506 5.10185C50.2392 4.91078 50.4706 5.00342 50.9094 5.073C50.6605 5.29668 50.5319 5.3812 50.2507 5.56506C50.0642 5.39915 50.1338 5.28594 49.8506 5.10185Z" fill="#EF913F"/>
<path d="M65.173 14.4997C64.7889 14.3804 64.0412 14.2806 63.7685 14.0945C63.3157 12.9194 66.82 9.64233 68.5341 11.9482C68.3091 12.0725 68.0585 12.047 67.8057 12.0464C67.158 12.045 66.7512 12.2059 66.1956 12.5093C67.0041 13.5315 66.9507 14.7371 65.5752 15.1286L65.4491 15.0366C65.3656 14.8509 65.2695 14.6789 65.173 14.4997Z" fill="#482602"/>
<path d="M59.2895 54.3799L59.3389 54.3912L59.377 54.4975L59.5417 54.4321C59.7224 54.627 59.6462 55.0274 59.569 55.2643C58.8259 56.816 55.2557 57.789 53.5842 57.8032C52.2406 57.6771 50.158 57.4749 48.8964 57.9305C48.3614 58.1236 47.9764 58.6393 47.7832 58.6995C47.8027 58.2241 48.6495 57.8169 48.9447 57.4653C50.0694 56.8098 52.2025 57.2738 53.5501 57.1279C55.7613 56.8876 57.843 56.1566 59.2895 54.3799Z" fill="#FCC571"/>
<path d="M68.5341 11.9482C69.1721 12.829 69.0965 13.778 68.5892 14.6894C67.8716 15.3214 66.3206 16.1203 65.5752 15.1287C66.9507 14.7371 67.0041 13.5315 66.1956 12.5094C66.7512 12.206 67.158 12.0451 67.8057 12.0465C68.0585 12.047 68.3091 12.0725 68.5341 11.9482Z" fill="#954A0C"/>
<path d="M69.537 9.17969C70.5767 10.0593 71.1716 11.0543 71.4414 12.3949C71.9283 14.8119 70.4711 17.7671 67.7912 17.9171C67.4736 17.935 66.4736 17.8785 66.2509 17.9873C66.1419 17.8964 66.1583 17.6426 66.1776 17.515C66.2492 17.0371 65.8146 16.6708 65.5078 16.3522L65.6851 16.2491C66.0481 16.7172 66.2168 16.8538 66.4663 17.4046C67.302 17.3975 68.211 17.3371 68.9564 16.9051C70.329 16.1158 70.9341 14.334 70.8648 12.8257C70.8335 12.1504 70.3177 10.0116 69.5717 9.82874C69.5047 9.53429 69.5138 9.47238 69.537 9.17969Z" fill="#E8812C"/>
<path d="M61.3291 10.5699C61.6348 10.3196 62.0421 9.79383 62.3466 9.49489C63.192 8.66572 64.4578 8.11902 65.6237 7.99719C67.0332 7.86234 68.4388 8.28715 69.537 9.17971C69.5137 9.4724 69.5046 9.53431 69.5716 9.82876C69.4273 9.80695 68.6331 9.32432 68.3871 9.22128C66.6486 8.49407 64.6777 8.80386 63.1369 9.84801C62.8426 10.0447 61.8018 10.8162 61.5115 10.7874C61.3984 10.6918 61.395 10.6997 61.3291 10.5699Z" fill="#FCC571"/>
<path d="M68.2158 20.2793C68.6158 20.8521 68.6743 21.0944 69.3214 21.2725C70.4111 24.7451 71.3826 28.9254 71.0332 32.5821C70.8809 32.1397 70.7224 29.8679 70.6088 29.2275C70.0719 26.2178 69.4021 23.1054 68.2158 20.2793Z" fill="#FBC66E"/>
<path d="M68.5894 14.6885C68.0576 15.9217 66.6503 15.7891 65.6856 16.2484L65.5083 16.3515L64.7959 15.8855C65.0351 15.5972 65.2442 15.352 65.4493 15.0357L65.5754 15.1278C66.3208 16.1194 67.8718 15.3205 68.5894 14.6885Z" fill="#C97936"/>
<path d="M43.7617 3.25111C43.7239 2.346 44.0473 0.298182 45.3948 1.18617C45.3563 1.4844 45.408 1.44832 45.2436 1.63605C44.8537 1.77814 44.742 1.71225 44.5668 2.04409C44.3886 2.3815 44.2272 3.12598 43.9365 3.27735L43.7617 3.25111Z" fill="#FCC571"/>
<path d="M47.2285 3.52929C47.4011 3.20149 47.6227 2.90199 47.8857 2.6411C48.4271 2.10696 49.3165 1.56175 49.9516 2.27355C49.8012 2.41112 49.0368 2.69523 48.7899 2.79162C48.4351 2.9301 47.5078 3.66288 47.2285 3.52929Z" fill="#FCC571"/>
<path d="M45.7097 1.55762C46.4067 2.928 46.0281 3.56575 46.1537 4.80864C45.9544 4.84466 45.9963 4.86902 45.848 4.79683C45.7818 4.54174 45.6361 1.80935 45.7097 1.55762Z" fill="#EF913F"/>
<path d="M49.2651 5.18089C49.1306 5.17561 49.0696 5.2307 48.8855 5.21293L48.8281 5.08842C48.8503 4.62641 49.284 3.99269 49.5416 3.61685C49.7773 3.27298 49.777 3.28883 50.1256 3.22754C50.0294 3.55329 49.9767 3.69222 49.8178 3.98945C49.6627 4.27959 49.1659 4.82515 49.2009 5.10796L49.2651 5.18089Z" fill="#E8812C"/>
<path d="M41.049 4.11944C40.4199 3.0658 41.2423 2.64383 42.2318 3.18843C41.743 3.53905 41.4955 3.03671 41.049 4.11944Z" fill="#FCC571"/>
<path d="M54.5152 62.1982C54.7305 62.3158 54.9447 62.4107 55.0334 62.6424C54.9322 63.1644 54.2948 62.7549 54.0596 62.593C54.1766 62.3578 54.2624 62.3715 54.5152 62.1982Z" fill="#E8812C"/>
<path d="M59.3389 54.3907C59.6343 54.26 59.9496 54.1311 60.22 53.959C60.0536 54.4548 59.9456 54.8826 59.569 55.2637C59.6462 55.0268 59.7224 54.6264 59.5417 54.4316L59.3769 54.4969L59.3389 54.3907Z" fill="#FCC571"/>
<path d="M30.7474 29.0017C32.644 28.8794 33.6754 30.4751 33.7957 32.2118C33.8319 32.7326 33.7831 33.1288 33.714 33.6417C34.0386 33.4222 35.39 32.5635 35.7704 32.7435C35.6783 32.9279 34.4621 33.493 34.1355 33.7107C32.9151 34.5244 32.0004 35.7213 31.5359 37.1125C30.8762 39.0406 31.1134 40.8209 32.0028 42.6165C32.3574 43.1735 32.8131 43.5928 33.1529 44.1775C32.2126 43.6122 31.328 42.4733 30.9677 41.4414C30.3252 39.6013 30.5744 37.814 31.401 36.0887C30.7829 36.1132 30.2425 36.1025 29.6914 35.7899C27.4182 34.5004 27.695 30.428 29.9642 29.2739C30.2148 29.1465 30.4773 29.0737 30.7474 29.0017Z" fill="#482602"/>
<path d="M30.3214 30.1854C31.803 30.1359 31.9503 32.2196 30.4404 32.9548C29.0928 33.0318 28.8032 30.9598 30.3214 30.1854Z" fill="#FCF6EF"/>
<path d="M47.5684 32.5941C47.7275 31.0723 49.074 29.4284 50.7317 29.6584C52.7104 29.9329 53.6013 32.0491 53.3814 33.8649C52.9138 37.7309 48.3779 38.2157 47.5399 34.1598C47.4668 33.6224 47.4614 33.1254 47.5684 32.5941Z" fill="#482602"/>
<path d="M47.5684 32.5947C47.7188 32.9215 47.8145 33.8869 47.5399 34.1604C47.4668 33.623 47.4614 33.126 47.5684 32.5947Z" fill="#1A1100"/>
<path d="M49.5772 30.8672C51.1722 30.8789 51.2142 33.0995 49.7873 33.662C48.142 33.6082 48.1336 31.4162 49.5772 30.8672Z" fill="#FCF6EF"/>
<path d="M36.2252 34.8593C37.5909 34.78 39.4449 34.811 40.6821 35.4495C41.3077 35.7725 41.2986 36.7264 40.9014 37.254C40.1939 38.1938 39.257 38.5308 38.138 38.7284C38.0337 39.9403 38.2082 41.16 38.6481 42.2941C39.3677 42.4677 41.3907 43.1523 41.3561 44.0921C41.2464 44.297 41.3243 44.2281 41.1277 44.3206C40.9125 44.3185 40.9057 44.3141 40.7087 44.218C39.2327 43.2877 38.0768 42.6029 36.6599 44.0446C36.5807 44.1252 36.3834 44.1002 36.2783 44.085C36.1993 44.0315 36.1264 44.0078 36.0972 43.923C35.8221 43.1234 37.17 42.5599 37.6402 42.3723C37.1727 41.2467 37.0839 39.8496 37.1134 38.6416C36.0037 38.3346 34.7433 37.5914 34.5821 36.342C34.449 35.3112 35.3838 34.9357 36.2252 34.8593Z" fill="#482602"/>
<path d="M36.3382 35.3158C36.6387 35.3015 36.8354 35.2723 37.0728 35.4495C37.2145 35.8274 36.7705 35.9122 36.4884 36.0017C36.1469 36.0157 35.8747 36.0476 35.6416 35.7722C35.5916 35.3676 36.0347 35.3533 36.3382 35.3158Z" fill="#E8812C"/>
<path d="M56.9124 35.1353C57.8754 35.0906 58.6838 35.1454 59.5213 35.689C60.5814 36.3772 61.0075 37.6658 60.2229 38.7485C59.6065 39.6001 58.7543 39.8263 57.768 39.9952C56.7817 40.0378 55.9676 39.9521 55.1171 39.3927C54.0933 38.7199 53.6854 37.4914 54.4523 36.4424C55.0489 35.6266 55.9386 35.2975 56.9124 35.1353Z" fill="#FFC271"/>
<path d="M24.4612 33.5405C25.1457 33.4912 25.828 33.6631 26.4072 34.0311C28.251 35.1881 28.0286 37.5596 25.6165 37.9481C24.3269 38.0484 22.8523 37.4206 22.5079 36.0736C22.3817 35.5859 22.4542 35.068 22.7096 34.6336C23.1131 33.9579 23.7414 33.7197 24.4612 33.5405Z" fill="#FFC271"/>
<path d="M48.5291 24.8799C48.9721 24.8932 48.9775 24.9971 49.2683 25.3095C49.4921 25.55 49.7162 25.7882 49.9525 26.013C50.7156 26.7395 51.607 27.0191 52.6361 27.1263C53.2423 27.1894 54.4258 27.3949 53.5116 28.1796C53.415 28.1955 53.3185 28.2075 53.2207 28.2156C51.9049 28.3206 50.2239 27.6998 49.24 26.8264C48.685 26.3337 47.8219 25.6007 48.5291 24.8799Z" fill="#482602"/>
<path d="M33.0793 24.6084C34.8207 25.0661 31.7411 28.0258 28.8655 27.3658C28.708 27.3053 28.5903 27.2524 28.48 27.1141C28.3959 27.0089 28.3774 26.8681 28.412 26.7475C28.5724 26.1881 29.8487 26.4909 30.6071 26.3151C31.9266 26.0093 32.4852 24.8592 33.0793 24.6084Z" fill="#482602"/>
<path d="M36.7966 8.32472C36.929 8.31586 36.9303 8.32472 37.0637 8.34499L37.1063 8.43281C36.9815 8.8938 35.1317 10.172 34.6569 10.4722C34.4899 10.5334 34.4965 10.5274 34.3311 10.4979L34.2617 10.3981C34.3419 9.36666 35.914 8.55606 36.7966 8.32472Z" fill="#FCC571"/>
<path d="M36.859 33.2595C37.0789 33.2452 37.1838 33.2198 37.3856 33.3007C37.9375 33.9268 36.5074 34.5851 35.9153 34.6024C35.6492 34.671 35.3398 34.6874 35.138 34.4701C34.9913 33.7556 36.3403 33.3682 36.859 33.2595Z" fill="#EF913F"/>
<path d="M37.965 8.70898L38.0462 8.76817L38.0357 8.88132C37.5894 9.49453 36.7023 10.2475 36.0089 10.5733L35.9336 10.5534C35.8926 10.3897 35.9221 10.3653 35.9978 10.1757C36.3204 9.36872 37.2257 9.02326 37.965 8.70898Z" fill="#FCC571"/>
<path d="M61.7219 68.9881C61.8719 68.9677 61.948 68.9415 62.0849 69.004L62.0861 69.0972C61.8185 69.4584 60.6441 70.0327 60.197 70.2599C60.0135 70.3172 59.9993 70.3292 59.8135 70.3059L59.7646 70.2195C59.9834 69.5873 61.0986 69.1045 61.7219 68.9881Z" fill="#FCC571"/>
<path d="M62.502 69.6127C62.5929 69.6031 62.577 69.6099 62.6713 69.6303L62.6764 69.7274C62.2037 70.3045 61.4197 70.7294 60.7083 70.9435L60.5743 70.9066L60.5322 70.8038C60.7566 70.183 61.8997 69.7451 62.502 69.6127Z" fill="#FCC571"/>
<path d="M39.0776 9.04199C39.1845 9.06369 39.1393 9.0387 39.2052 9.1348C39.079 9.49429 38.0627 10.2033 37.7085 10.4559L37.6066 10.4463C37.4761 9.8836 38.6696 9.22086 39.0776 9.04199Z" fill="#FCC571"/>
<path d="M63.1883 70.0566L63.2542 70.0788L63.2877 70.1623C63.0854 70.5502 62.5934 70.8325 62.1866 70.9586L62.0781 70.87L62.1094 70.7576C62.4224 70.398 62.7588 70.2543 63.1883 70.0566Z" fill="#FCC571"/>
<path d="M21.9493 51.9871C21.925 51.6226 22.0773 50.5776 22.1272 50.1528C22.2569 49.1002 22.3745 48.042 22.5035 46.9899C22.6371 45.9008 22.9043 45.2317 24.155 45.4303C25.7347 45.5247 28.0653 45.8684 29.6662 46.0723L38.3613 47.1675L46.4004 48.1639C47.4899 48.3033 49.1737 48.4704 50.2251 48.6786C51.1795 48.711 51.7657 48.7694 52.2022 49.7234C52.1238 50.9119 51.9318 52.2126 51.7759 53.4028C51.659 54.2946 51.5684 55.2284 51.443 56.1099C51.0941 56.1002 50.6128 56.0713 50.2767 56.1042C49.6559 56.236 49.0106 56.3513 48.437 56.6256C48.1727 56.8102 47.9439 56.9488 47.6663 57.1136C46.7505 57.6412 46.4158 58.7994 46.7057 59.7815C45.4642 60.872 45.3656 62.4738 46.4503 63.7183C46.2239 64.259 46.2135 64.6941 46.3496 65.2587C46.4618 65.4904 46.5627 65.7011 46.693 65.9244C46.683 66.0721 46.6628 66.2731 46.6651 66.4168C46.6695 66.5418 46.6968 66.6031 46.7008 66.7082C46.7634 66.477 46.7139 66.5123 46.8669 66.4191C47.1495 66.5088 47.155 66.673 47.3855 66.7298L47.4051 66.7662C47.9855 67.2217 48.3027 67.4364 48.9848 67.7675C49.4266 67.9544 49.678 68.0629 50.146 68.1873C50.0434 68.9723 49.9609 69.8407 49.8418 70.6132C49.4312 70.7109 49.1779 70.7637 48.7939 70.929C48.7069 70.9835 48.6065 71.0523 48.5155 71.0949C46.9669 72.2814 46.4281 74.4432 46.0649 76.2733C39.7011 75.2555 33.2525 74.4148 26.9083 73.3646L22.6609 72.7012C21.5687 72.5234 19.7204 72.5359 19.8035 71.1057C19.855 70.2185 19.9511 69.3682 20.0576 68.4872C20.2474 66.8655 20.4574 65.2467 20.6873 63.6302C20.7003 63.5541 20.7384 63.2928 20.8135 63.2701C21.4581 63.0747 21.8329 63.044 22.4215 62.6834C22.5045 62.5908 23.1203 62.0784 23.2659 61.9489C23.6647 61.185 23.8145 60.7476 23.6301 59.8752C24.4043 59.1822 24.7875 58.5159 24.6427 57.439C24.5603 56.8267 24.3755 56.6205 24.0726 56.1093C24.2151 55.873 24.3122 55.6169 24.4185 55.3618C24.4927 54.7047 24.4074 54.2997 24.1385 53.6959C24.0918 53.559 23.5971 52.9974 23.4619 52.8317C23.0915 52.4692 22.4715 52.0565 21.9493 51.9871Z" fill="#FBE6CC"/>
<path d="M21.9489 51.9871C21.9246 51.6226 22.0769 50.5776 22.1268 50.1528C22.2565 49.1002 22.3741 48.042 22.5031 46.9899C22.6367 45.9008 22.9039 45.2317 24.1546 45.4303C25.7343 45.5247 28.065 45.8684 29.6659 46.0723L38.361 47.1675L46.4 48.1639C47.4896 48.3033 49.1734 48.4704 50.2247 48.6786C51.1791 48.711 51.7653 48.7694 52.2019 49.7234C52.1235 50.9119 51.9314 52.2126 51.7755 53.4028C51.6586 54.2946 51.568 55.2284 51.4426 56.1099C51.0937 56.1002 50.6124 56.0713 50.2763 56.1042C49.6555 56.236 49.0102 56.3513 48.4366 56.6256C48.1723 56.8102 47.9435 56.9488 47.6659 57.1136C47.7425 56.2002 48.3519 51.8437 48.2428 51.333C47.7118 51.1355 46.0623 50.9738 45.4447 50.8982L41.4483 50.3891L31.9112 49.1972C31.0631 49.0906 25.346 48.312 24.9091 48.4573C24.636 48.9315 24.2415 52.8375 24.1382 53.6959C24.0915 53.559 23.5967 52.9974 23.4615 52.8317C23.0911 52.4692 22.4711 52.0565 21.9489 51.9871Z" fill="#C97936"/>
<path d="M23.4619 52.8318C23.841 51.7911 23.6646 48.166 24.5313 47.6559C25.4589 47.513 28.2371 47.9582 29.3159 48.0907L36.9689 49.0372L44.4135 49.9656C45.4026 50.0905 47.9696 50.3018 48.8143 50.6743C49.0257 50.9157 49.0373 51.3788 49.0046 51.6859C48.8288 53.3348 48.5979 54.9746 48.4371 56.6258C48.1728 56.8104 47.9439 56.949 47.6663 57.1137C47.7429 56.2003 48.3523 51.8438 48.2432 51.3332C47.7122 51.1357 46.0627 50.974 45.4451 50.8984L41.4487 50.3893L31.9116 49.1974C31.0635 49.0907 25.3464 48.3121 24.9095 48.4574C24.6364 48.9316 24.2419 52.8377 24.1386 53.696C24.0919 53.5591 23.5971 52.9976 23.4619 52.8318Z" fill="#734211"/>
<path d="M50.2256 48.6787C51.18 48.7111 51.7662 48.7695 52.2028 49.7235C52.1244 50.912 51.9323 52.2127 51.7764 53.4029C51.6595 54.2947 51.5689 55.2285 51.4435 56.11C51.0946 56.1004 50.6133 56.0714 50.2772 56.1043C50.2916 55.6568 50.4015 54.9087 50.4579 54.4339L50.8234 51.3771C50.8774 50.9246 51.0108 50.1035 50.9614 49.6752C50.8187 49.3641 50.7065 49.2427 50.4901 48.9824L50.2256 48.6787Z" fill="#954A0C"/>
<path d="M50.7861 54.3682C50.8059 54.388 50.8406 54.4625 50.8558 54.4914C50.8569 54.9089 50.8696 55.5985 50.6096 55.9251L50.5783 55.9023C50.4831 55.6462 50.6549 54.6567 50.7861 54.3682Z" fill="#734211"/>
<path d="M21.9489 51.9871C21.9246 51.6226 22.0769 50.5776 22.1268 50.1528C22.2565 49.1002 22.3741 48.042 22.5031 46.9899C22.6367 45.9008 22.9039 45.2317 24.1546 45.4303C24.2366 45.6188 24.2251 45.525 24.2027 45.7201C23.9168 46.0416 23.2628 45.9462 23.0085 46.3483C22.5545 47.0663 22.479 51.5546 21.9489 51.9871Z" fill="#F59C4A"/>
<path d="M50.4896 48.9824C50.706 49.2427 50.8182 49.3641 50.9609 49.6752C50.7175 49.7846 50.3655 49.2752 50.4896 48.9824Z" fill="#F59C4A"/>
<path d="M22.4215 62.6836C22.5045 62.5911 23.1203 62.0787 23.2659 61.9492C23.239 62.1969 23.1869 62.5803 23.1917 62.8188C23.0779 63.6714 22.3159 69.457 22.4274 69.7842C22.6751 70.0142 26.1632 70.4806 26.8008 70.5766L39.3234 72.443L43.86 73.1473C44.1858 73.1945 45.4359 73.4024 45.6544 73.3177C45.8471 72.852 46.6256 67.0425 46.5996 66.4444L46.6651 66.4171C46.6695 66.5421 46.6968 66.6034 46.7008 66.7085C46.7634 66.4773 46.7139 66.5125 46.8669 66.4194C47.1495 66.5091 47.155 66.6733 47.3855 66.7301L47.4051 66.7664C47.9855 67.222 48.3027 67.4367 48.9848 67.7678C49.4266 67.9547 49.678 68.0632 50.146 68.1876C50.0434 68.9725 49.9609 69.841 49.8418 70.6135C49.4312 70.7112 49.1779 70.764 48.7939 70.9293C48.7069 70.9838 48.6065 71.0526 48.5155 71.0952C46.9669 72.2817 46.4281 74.4435 46.0649 76.2736C39.7011 75.2557 33.2525 74.4151 26.9083 73.3649L22.6609 72.7015C21.5687 72.5237 19.7204 72.5362 19.8035 71.1059C19.855 70.2187 19.9511 69.3684 20.0576 68.4875C20.2474 66.8658 20.4574 65.247 20.6873 63.6305C20.7003 63.5544 20.7384 63.2931 20.8135 63.2704C21.4581 63.075 21.8329 63.0443 22.4215 62.6836Z" fill="#C97936"/>
<path d="M22.4215 62.6836C22.5046 62.5911 23.1203 62.0787 23.2659 61.9492C23.239 62.1969 23.1869 62.5803 23.1918 62.8188C23.078 63.6714 22.3159 69.457 22.4274 69.7842C22.6752 70.0142 26.1632 70.4806 26.8009 70.5766L39.3234 72.443L43.86 73.1473C44.1859 73.1945 45.4359 73.4024 45.6544 73.3177C45.8472 72.852 46.6257 67.0425 46.5996 66.4444L46.6652 66.4171C46.6695 66.5421 46.6969 66.6034 46.7008 66.7085C46.7634 66.4773 46.7139 66.5125 46.8669 66.4194C47.1495 66.5091 47.1551 66.6733 47.3855 66.7301L47.4052 66.7664C47.2654 66.9408 47.2823 67.1544 47.294 67.3821C47.0402 68.9157 46.8301 70.4005 46.6848 71.9489C46.6307 72.5248 46.5317 73.5694 46.1346 73.9908C45.5235 74.2669 43.5418 73.8426 42.7786 73.7307L36.8026 72.8258L26.7946 71.3258C25.3786 71.1071 23.9536 70.9196 22.5457 70.6782C21.9502 70.5766 21.6324 70.3693 21.6533 69.7325C21.685 68.7692 21.8255 67.7383 21.9501 66.7891C22.0912 65.719 22.2113 64.6461 22.3102 63.5714C22.3542 63.4726 22.4061 62.8359 22.4215 62.6836Z" fill="#734211"/>
<path d="M48.985 67.7676C49.4267 67.9545 49.6781 68.0629 50.1461 68.1873C50.0436 68.9723 49.9611 69.8408 49.842 70.6133C49.4314 70.711 49.178 70.7638 48.794 70.9291C48.8379 70.4326 48.8273 70.4025 48.6729 69.9453C48.7403 69.5681 48.7826 69.137 48.829 68.7531C48.8705 68.3782 48.8968 68.1322 48.985 67.7676Z" fill="#954A0C"/>
<path d="M49.0789 68.873C49.1837 68.9071 49.1798 68.9003 49.2486 68.9849C49.2742 69.2792 49.1832 69.6546 49.1266 69.9528L49.0513 69.8534C48.9856 69.5314 49.0065 69.1911 49.0789 68.873Z" fill="#734211"/>
<path d="M47.2947 67.3823C47.2829 67.1545 47.2661 66.941 47.4058 66.7666C47.9862 67.2221 48.3034 67.4368 48.9855 67.768C48.8974 68.1326 48.871 68.3786 48.8296 68.7535C48.3732 68.3712 47.7476 67.7952 47.2947 67.3823Z" fill="#A45D20"/>
<path d="M20.6875 63.6304C20.7005 63.5543 20.7386 63.2931 20.8137 63.2703C21.4583 63.0749 21.833 63.0443 22.4216 62.6836C22.4062 62.8358 22.3543 63.4725 22.3104 63.5714L22.2295 63.5009C21.5556 63.8446 21.3743 63.9729 20.6875 63.6304Z" fill="#A45D20"/>
<path d="M48.5156 71.0949C48.5466 70.7485 48.6235 70.2975 48.6728 69.9453C48.8272 70.4026 48.8379 70.4327 48.794 70.9291C48.707 70.9836 48.6066 71.0523 48.5156 71.0949Z" fill="#A45D20"/>
<path d="M24.0726 56.1088C24.215 55.8725 24.3122 55.6164 24.4185 55.3613C24.715 55.6947 25.0595 57.7844 24.9744 58.2218C24.7692 59.2766 24.0605 62.0796 23.284 62.7425C23.2537 62.768 23.2229 62.793 23.1917 62.818C23.1869 62.5795 23.239 62.1961 23.2659 61.9484C23.6647 61.1845 23.8145 60.7471 23.6301 59.8747C24.4043 59.1817 24.7875 58.5154 24.6426 57.4385C24.5603 56.8262 24.3755 56.62 24.0726 56.1088Z" fill="#EBC49B"/>
<path d="M46.3494 65.2588C46.4617 65.4905 46.5625 65.7013 46.6929 65.9245C46.6828 66.0722 46.6626 66.2732 46.665 66.4169L46.5995 66.4442C46.2301 66.1466 46.2848 65.6768 46.3494 65.2588Z" fill="#EBC49B"/>
<path d="M25.8547 68.9144C25.3155 68.7037 24.7111 68.7633 24.7844 67.959C24.8966 66.727 25.0527 65.4996 25.1868 64.2693L25.8861 57.7861L26.4146 53.6022C26.5117 52.8007 26.588 51.9961 26.7189 51.1995C26.8569 50.3594 27.8898 50.6291 28.5018 50.7013L36.7605 51.7577C38.1603 51.9369 39.5533 52.0951 40.96 52.2979C42.0933 52.4612 41.4787 53.4597 41.3935 54.185C41.3564 54.502 41.3073 54.8354 41.2467 55.1483C42.0101 55.8049 42.2826 56.4559 42.1474 57.4669C42.2577 57.6583 42.5669 57.7555 42.8026 57.8696C43.2985 57.8213 44.7884 57.5567 44.9735 57.8032C45.1991 58.1036 44.8238 60.8317 44.776 61.2543C44.5879 62.9549 44.3845 64.6538 44.166 66.3504C43.9791 67.8153 43.8194 69.3046 43.6163 70.7678C43.5554 71.2068 43.2342 71.3397 42.8366 71.3971C42.5943 71.4124 42.5431 71.3965 42.3049 71.3392L41.2968 71.2017C40.8246 71.1336 39.0975 70.8126 38.7335 70.8217C38.5581 70.9632 38.5217 71.0222 38.3112 71.0285C38.2692 70.9995 38.1998 70.9563 38.1653 70.9234L38.0789 70.8053C37.7058 70.6474 35.5575 70.3503 35.0291 70.2867C33.4095 70.0913 31.5328 69.7079 29.932 69.5613C29.6688 69.5574 29.5457 69.5068 29.296 69.433C28.4935 69.2881 27.4757 69.183 26.6529 69.0746L26.4387 69.0393C26.23 69.0036 26.0605 68.9649 25.8547 68.9144Z" fill="#F59C4A"/>
<path d="M25.8547 68.9144C25.3155 68.7037 24.7111 68.7633 24.7844 67.959C24.8966 66.727 25.0527 65.4996 25.1868 64.2693L25.8861 57.7861L26.4146 53.6022C26.5117 52.8007 26.588 51.9961 26.7189 51.1995C26.8569 50.3594 27.8898 50.6291 28.5018 50.7013L36.7605 51.7577C38.1603 51.9369 39.5533 52.0951 40.96 52.2979C42.0933 52.4612 41.4787 53.4597 41.3935 54.185C41.3564 54.502 41.3073 54.8354 41.2467 55.1483C40.1549 54.6133 39.5096 54.59 38.5314 55.3483C36.7368 54.1316 33.6944 53.5784 31.7151 54.5866C31.2313 54.0402 30.8048 53.6318 30.018 53.5977C29.4538 53.5784 28.9062 53.7897 28.5015 54.1833C28.0832 54.5775 27.8452 55.1262 27.8429 55.701C27.8444 56.3264 28.1137 56.8029 28.5218 57.2522C28.0549 57.9707 27.9252 58.4825 27.6822 59.2908C27.5938 59.585 27.279 59.9809 27.1569 60.2887C26.4366 62.1069 26.886 63.8257 28.1259 65.2525C26.984 66.4635 26.3959 67.2996 25.8547 68.9144Z" fill="#9ED8A5"/>
<path d="M28.5216 57.2524C28.1135 56.8031 27.8442 56.3266 27.8427 55.7012C27.845 55.1264 28.083 54.5777 28.5013 54.1835C28.906 53.7899 29.4536 53.5786 30.0178 53.5979C30.8046 53.632 31.2311 54.0404 31.7149 54.5868C33.6942 53.5786 36.7366 54.1318 38.5312 55.3485C39.5094 54.5902 40.1547 54.6135 41.2465 55.1485C42.0099 55.8051 42.2823 56.4561 42.1472 57.4671C42.2575 57.6585 42.5667 57.7557 42.8024 57.8698C43.2983 57.8215 44.7882 57.5569 44.9733 57.8034C45.1989 58.1038 44.8236 60.8319 44.7758 61.2545C44.5877 62.9551 44.3843 64.654 44.1658 66.3506C43.9789 67.8155 43.8192 69.3048 43.6161 70.768C43.5552 71.207 43.234 71.3399 42.8364 71.3973C42.5941 71.4126 42.5429 71.3967 42.3047 71.3394C42.1716 70.4096 42.0216 69.3724 41.6335 68.5056C41.4948 68.0382 41.1283 67.3594 40.8312 66.9692C40.7033 66.767 40.6086 66.629 40.4643 66.437C39.8169 66.8232 38.7123 67.4151 37.8845 67.4122C37.768 67.4117 37.7179 67.3077 37.6565 67.2214C37.8132 67.1316 38.2562 66.9908 38.4514 66.9237C38.7339 66.8374 39.1273 66.6698 39.3841 66.5296C40.349 66.011 41.0614 65.1221 41.3575 64.0673C41.8152 62.4718 41.3253 60.791 40.8477 59.2308C40.8135 59.1189 40.4544 58.5645 40.3635 58.4003C40.4744 58.2896 40.4943 58.3271 40.7026 58.3112C41.6831 58.155 41.7785 57.0275 41.4648 56.2652C41.1423 56.0091 41.1334 55.9398 40.738 55.7114C39.8429 55.194 39.6478 55.612 38.7889 55.8529C38.7654 55.8512 38.7417 55.8494 38.7181 55.8477C38.3803 56.13 38.2468 55.7501 37.8718 55.5388C36.4434 54.7339 34.9603 54.5232 33.3451 54.6555C33.0599 54.693 32.8401 54.7407 32.5662 54.8038C32.2591 54.8748 31.5209 55.2496 31.2808 55.1883L31.2091 55.102L31.1718 55.2775C30.9845 55.3786 30.8416 55.5694 30.6449 55.6421L30.5814 55.7807C30.2922 55.8563 30.0376 56.1346 29.8593 56.3669L29.8363 56.4742C29.7503 56.4902 29.6764 56.5049 29.5912 56.5254C29.568 56.698 29.5633 56.6089 29.6536 56.7952L29.5747 56.8344C29.4415 56.886 29.4692 56.8548 29.3798 56.9474C28.4825 58.0419 28.6568 58.2669 28.1703 59.4125C27.4964 60.9984 27.1639 61.2318 27.5091 63.0665C27.6301 63.4538 27.6785 63.6458 27.8796 63.9934C28.1912 64.9039 29.5443 65.8548 30.3562 66.2876C30.067 66.567 30.0787 66.3512 29.9082 66.5307C29.4443 66.3438 28.5766 65.6986 28.4192 65.681L28.2934 65.815C28.3467 65.9928 28.3512 65.9099 28.2991 66.0723C27.7942 66.5971 26.7661 68.3653 26.6527 69.0748L26.4385 69.0395C26.2298 69.0038 26.0603 68.9651 25.8545 68.9146C26.3957 67.2998 26.9838 66.4637 28.1257 65.2527C26.8858 63.8259 26.4364 62.1071 27.1567 60.2889C27.2788 59.9811 27.5936 59.5852 27.682 59.291C27.925 58.4827 28.0547 57.9709 28.5216 57.2524Z" fill="#734211"/>
<path d="M42.1479 57.4668C42.2582 57.6582 42.5674 57.7553 42.8031 57.8695C43.299 57.8212 44.7889 57.5565 44.974 57.8031C45.1996 58.1035 44.8243 60.8316 44.7765 61.2542C44.5884 62.9548 44.385 64.6537 44.1665 66.3503C43.9796 67.8152 43.8199 69.3045 43.6168 70.7677C43.5559 71.2067 43.2347 71.3396 42.8371 71.397C42.6853 69.1784 42.09 67.8595 40.8623 66.0731C41.1561 65.7658 41.4015 65.416 41.59 65.0348C42.5571 63.0582 41.8607 60.7118 41.2034 58.7527C41.7781 58.3767 41.9347 58.0973 42.1479 57.4668Z" fill="#9ED8A5"/>
<path d="M28.3923 55.3595C28.4288 55.4055 28.4011 55.3776 28.4942 55.418C28.6635 55.1993 28.8411 54.796 29.036 54.6302C29.5456 54.1979 30.2032 54.3592 30.7959 54.4013C31.1218 54.5779 31.2073 54.7409 31.2098 55.1022L31.1725 55.2777C30.9852 55.3788 30.8423 55.5696 30.6455 55.6423L30.5821 55.7809C30.2929 55.8565 30.0383 56.1348 29.86 56.3671L29.837 56.4745C29.7509 56.4904 29.6771 56.5051 29.5919 56.5256C29.5687 56.6982 29.564 56.6091 29.6542 56.7954L29.5753 56.8346C29.4422 56.8863 29.4698 56.855 29.3805 56.9476L29.3004 56.8681C28.5083 56.6965 28.2134 56.128 28.3923 55.3595Z" fill="#F59C4A"/>
<path d="M29.1091 55.3513C29.6107 54.5169 30.2548 55.0332 30.6449 55.6415L30.5814 55.7801C30.2923 55.8556 30.0376 56.134 29.8593 56.3663C29.6346 56.3844 29.5743 56.3487 29.3871 56.2345C29.283 55.9329 28.9984 55.8244 29.1091 55.3513Z" fill="#734211"/>
<path d="M29.1091 55.3516L29.1819 55.3788C29.4213 55.4669 29.3942 55.3641 29.6568 55.543C29.7841 55.8162 29.51 55.9866 29.3871 56.2348C29.283 55.9332 28.9984 55.8247 29.1091 55.3516Z" fill="#A45D20"/>
<path d="M28.2934 65.8145C28.3467 65.9922 28.3511 65.9093 28.299 66.0718C27.7941 66.5966 26.7661 68.3648 26.6527 69.0742L26.4385 69.039C26.7833 67.7616 27.4115 66.7846 28.2934 65.8145Z" fill="#EBC49B"/>
<path d="M28.3916 55.3592C28.697 54.1982 29.7687 53.7404 30.7952 54.401C30.2025 54.359 29.5449 54.1977 29.0353 54.6299C28.8404 54.7958 28.6628 55.199 28.4935 55.4177C28.4004 55.3774 28.4281 55.4052 28.3916 55.3592Z" fill="#FCC571"/>
<path d="M38.7188 55.8476C39.5809 54.9133 40.9537 55.1729 41.4654 56.2651C41.1429 56.0089 41.134 55.9397 40.7387 55.7113C39.8436 55.1939 39.6484 55.6119 38.7895 55.8527C38.766 55.851 38.7423 55.8493 38.7188 55.8476Z" fill="#FCC571"/>
<path d="M40.4641 66.4365C40.6084 66.6285 40.7031 66.7665 40.831 66.9687C41.1282 67.359 41.4946 68.0377 41.6333 68.5052C42.0214 69.3719 42.1714 70.4091 42.3046 71.3389L41.2965 71.2015C41.2988 71.1418 41.3007 71.0816 41.3021 71.0214C41.3349 69.5344 41.0485 68.3013 40.0093 67.2204C39.0103 67.5356 38.4354 67.6867 37.4049 67.8577C37.1433 67.7435 36.5797 67.6322 36.4961 67.4459L36.5746 67.3345C36.8246 67.2323 37.3341 67.201 37.5926 67.28L37.6563 67.2209C37.7177 67.3073 37.7679 67.4112 37.8843 67.4118C38.7122 67.4146 39.8167 66.8228 40.4641 66.4365Z" fill="#EF913F"/>
<path d="M41.6335 68.5052C41.303 68.4842 40.7833 67.2425 40.8312 66.9688C41.1284 67.359 41.4949 68.0377 41.6335 68.5052Z" fill="#F59C4A"/>
<path d="M39.7311 57.25C39.8351 57.375 39.9627 57.5402 40.075 57.6521C40.2368 57.6766 40.4801 57.7146 40.6405 57.705C40.5185 57.9532 40.5191 57.8646 40.5506 58.1054L40.7034 58.3105C40.4951 58.3264 40.4751 58.2889 40.3642 58.3996C40.4552 58.5638 40.8142 59.1182 40.8484 59.23C41.3261 60.7903 41.816 62.4711 41.3583 64.0666C41.0622 65.1213 40.3498 66.0103 39.3848 66.5288C39.128 66.6691 38.7347 66.8367 38.4521 66.923C38.5403 66.522 39.2199 66.2034 39.5668 65.9466C42.0382 64.1154 41.0406 60.5205 39.9884 58.173C39.8874 57.9475 39.4507 57.6243 39.4854 57.3943L39.7311 57.25Z" fill="#EF913F"/>
<path d="M28.2939 65.8147L28.4197 65.6807C28.5771 65.6983 29.4448 66.3435 29.9087 66.5304C30.0792 66.3509 30.0675 66.5667 30.3567 66.2873L31.1515 66.69C31.3805 66.7797 31.6903 66.8894 31.9026 67.0001C32.1228 66.9859 32.1336 66.982 32.3373 67.0541L32.4084 67.1535C32.2883 67.3796 32.1635 67.3375 31.9167 67.3477C31.1715 67.4176 28.6338 66.7127 28.2996 66.072C28.3517 65.9096 28.3472 65.9925 28.2939 65.8147Z" fill="#EF913F"/>
<path d="M30.3562 66.2871L31.151 66.6898L30.9497 66.9738C30.5745 66.829 30.2689 66.7137 29.9082 66.5302C30.0787 66.3507 30.067 66.5666 30.3562 66.2871Z" fill="#734211"/>
<path d="M31.1515 66.6904C31.3804 66.7802 31.6903 66.8898 31.9026 67.0006L31.7231 67.1658C31.4562 67.1113 31.2129 67.0449 30.9502 66.9744L31.1515 66.6904Z" fill="#954A0C"/>
<path d="M39.2158 56.7964C39.2703 56.7362 39.3272 56.6783 39.3862 56.6226C39.9714 56.0739 40.3761 55.9876 40.9102 56.6129C41.0473 56.8793 41.0577 57.1406 40.8679 57.3917C40.7892 57.5166 40.7455 57.5984 40.6398 57.7052C40.4794 57.7149 40.2361 57.6768 40.0743 57.6524C39.962 57.5405 39.8344 57.3752 39.7304 57.2502L39.2158 56.7964Z" fill="#734211"/>
<path d="M40.9101 56.6127C41.0472 56.8791 41.0576 57.1404 40.8678 57.3915C40.7891 57.5164 40.7454 57.5982 40.6397 57.705C40.4793 57.7147 40.236 57.6766 40.0742 57.6522C40.5056 57.4 40.2751 57.2052 40.4577 56.7013C40.6257 56.5633 40.5295 56.5991 40.7624 56.6099L40.9101 56.6127Z" fill="#C97936"/>
<path d="M40.9104 56.6132C41.0475 56.8796 41.0579 57.1409 40.8681 57.3919L40.7678 57.2959C40.8054 56.9977 40.8243 56.9159 40.7627 56.6104L40.9104 56.6132Z" fill="#E8812C"/>
<path d="M29.3798 56.947C29.4692 56.8544 29.4416 56.8857 29.5747 56.834C29.5026 57.1941 29.0837 57.6667 28.9093 58.0251C28.6787 58.4988 28.5278 59.0515 28.3326 59.5257C27.8357 60.7327 27.3933 61.5109 27.6517 62.8798L27.5091 63.0661C27.164 61.2314 27.4964 60.998 28.1703 59.4121C28.6569 58.2665 28.4825 58.0416 29.3798 56.947Z" fill="#EBC49B"/>
<path d="M31.21 55.1017L31.2817 55.1881C31.5218 55.2494 32.2599 54.8745 32.5671 54.8035C32.8409 54.7405 33.0608 54.6928 33.3459 54.6553C33.5592 54.6632 33.7099 54.6672 33.9236 54.6979L33.9322 54.7524L33.8849 54.7547C32.8468 54.8143 31.8354 55.2835 30.9358 55.7589C30.691 55.8884 30.5926 55.8117 30.4346 56.0366L30.4398 55.9594C30.57 55.8776 30.5205 55.9327 30.5822 55.7805L30.6457 55.6419C30.8424 55.5692 30.9853 55.3783 31.1726 55.2772L31.21 55.1017Z" fill="#FCC571"/>
<path d="M38.165 70.9234C38.1859 70.5661 38.2644 70.302 38.488 70.0186L38.5761 70.0231C38.7083 70.3173 38.6204 70.511 38.7332 70.8217C38.5579 70.9631 38.5215 71.0222 38.3109 71.0285C38.269 70.9995 38.1996 70.9563 38.165 70.9234Z" fill="#734211"/>
<path d="M29.2959 69.4333C29.5395 69.1254 29.3696 68.9863 29.5521 68.6977L29.6351 68.6875C29.9035 68.9709 29.9026 69.1794 29.9319 69.5617C29.6688 69.5577 29.5457 69.5071 29.2959 69.4333Z" fill="#734211"/>
<path d="M27.6524 62.8799L27.9722 63.8983L27.8802 63.9932C27.6792 63.6455 27.6308 63.4536 27.5098 63.0662L27.6524 62.8799Z" fill="#FCC571"/>
<path d="M31.7766 62.3373C31.7597 61.8943 31.7314 61.6148 31.9287 61.2002C32.9729 59.006 36.5898 59.7813 36.5842 62.2419C36.5839 62.3697 36.5614 62.4225 36.5064 62.535L36.3876 62.6037C36.6775 63.2467 35.9352 63.6113 35.4679 63.8425C35.275 64.2924 34.9448 64.7269 34.4668 64.8945C34.1483 65.0069 33.7967 64.9768 33.5025 64.8104C33.0272 64.5434 32.799 64.0476 32.6599 63.5477C32.083 63.2308 31.7829 63.0411 31.7766 62.3373Z" fill="#C97936"/>
<path d="M33.8194 61.6058C33.4951 61.4115 33.0126 61.1497 33.0198 60.7203C33.3706 60.1898 34.8824 60.4056 35.24 60.9327C35.282 61.3928 34.6462 61.5763 34.2788 61.6575C34.2442 62.1744 34.2425 62.418 34.2756 62.9366C35.5575 64.1124 35.7994 62.7231 36.3874 62.6038C36.6773 63.2468 35.935 63.6114 35.4677 63.8426C35.2748 64.2924 34.9446 64.727 34.4666 64.8945C34.1481 65.007 33.7964 64.9769 33.5023 64.8105C33.0269 64.5435 32.7988 64.0476 32.6597 63.5478C32.0828 63.2308 31.7827 63.0411 31.7764 62.3374L31.9415 62.251C32.1438 62.3624 32.1217 62.5544 32.2526 62.7537C32.5007 63.132 33.5946 63.3035 33.7853 62.7929C33.8854 62.5243 33.8154 61.9216 33.8194 61.6058Z" fill="#734211"/>
<path d="M33.9962 63.2988C34.0829 63.3204 34.8147 63.8345 34.9473 63.9242C34.6737 64.2542 34.5301 64.3888 34.1484 64.5643C33.7668 64.5632 33.2259 64.2144 33.2061 63.8282C33.3345 63.534 33.6827 63.4414 33.9962 63.2988Z" fill="#DE5B4B"/>
<path d="M38.627 61.6006C39.6842 61.6625 40.5413 62.5895 39.2827 63.1393C38.8079 63.1887 38.3117 63.0155 38.0976 62.5594C38.0222 62.4015 38.0148 62.2191 38.077 62.0556C38.18 61.7897 38.3828 61.7193 38.627 61.6006Z" fill="#FFC271"/>
<path d="M29.416 60.5675C29.8143 60.5498 30.2869 60.6407 30.4082 61.0883C30.4458 61.2269 30.4259 61.3746 30.353 61.4984C30.2049 61.754 29.9651 61.8352 29.7009 61.9159C28.445 61.9454 28.1387 61.0951 29.416 60.5675Z" fill="#FFC271"/>
<path d="M31.3961 59.0508C32.082 59.1286 32.6121 59.7142 32.3289 60.3941L32.2171 60.4219C31.7602 60.1947 31.7946 59.8528 31.4495 59.5393C30.9789 59.7932 30.8216 60.2623 30.5765 60.3282C30.4121 60.2981 30.4755 60.3373 30.3742 60.2152C30.2323 59.5455 30.8119 59.1593 31.3961 59.0508Z" fill="#734211"/>
<path d="M37.1789 59.7853C38.1548 59.7109 38.8834 60.6771 38.2694 61.1343L38.1245 61.1127C37.946 60.9741 37.9239 60.81 37.8513 60.5873C37.2783 59.9847 36.9994 60.8475 36.4615 60.8702C36.2564 60.376 36.8057 59.9728 37.1789 59.7853Z" fill="#734211"/>
<path d="M37.5449 58.0918C37.8455 58.1531 38.4682 58.4207 38.2713 58.8063C37.9657 58.7246 37.5263 58.6087 37.4336 58.2912L37.5449 58.0918Z" fill="#A45D20"/>
<path d="M33.5116 55.3242C33.6792 55.3782 33.6165 55.3299 33.7151 55.4611C33.663 55.6179 33.4797 55.711 33.3356 55.811C33.3111 55.8082 33.2414 55.7752 33.2148 55.7644C33.227 55.5895 33.3856 55.4611 33.5116 55.3242Z" fill="#FCC571"/>
<path d="M33.0864 55.2178C33.1642 55.2632 33.1285 55.2382 33.1773 55.341C33.088 55.5563 32.9497 55.6614 32.7816 55.8261L32.6611 55.7693C32.6793 55.5864 32.9325 55.3825 33.0864 55.2178Z" fill="#FCC571"/>
<path d="M32.5546 55.2334C32.6384 55.2408 32.5939 55.2283 32.6835 55.2845C32.6112 55.4242 32.4024 55.5197 32.2578 55.606L32.1562 55.4981C32.2412 55.3345 32.3549 55.3266 32.5546 55.2334Z" fill="#FCC571"/>
<path d="M43.082 53.2501C44.2552 53.1209 43.8225 53.8752 44.2509 54.2108C44.6471 53.8638 45.1945 53.6389 45.6518 54.0314C45.8178 54.1728 45.9122 54.3807 45.9095 54.5988C45.9069 55.114 45.5263 55.5019 45.1845 55.8302C44.8633 56.0495 43.8396 56.5249 43.4726 56.5624C43.0285 56.3431 42.665 54.7698 42.6781 54.2574C42.6906 53.7678 42.7415 53.586 43.082 53.2501Z" fill="#A63156"/>
<path d="M51.628 72.4862C52.2373 70.5488 54.2031 69.352 55.553 71.3905C56.0262 72.2301 55.7762 72.7765 55.8899 73.5592L56.0825 73.441C56.6449 72.785 57.3443 72.4107 58.1618 72.952C58.3942 73.1604 58.5442 73.3041 58.6908 73.5955C59.089 74.3947 59.0197 75.0933 58.9572 75.9715L59.1067 76.1566L59.3208 75.9987C59.3805 75.83 59.4379 75.6648 59.5066 75.4989C60.3566 77.1881 60.1753 78.9694 59.7981 80.7733C59.6833 81.3226 59.468 81.8628 59.3362 82.3825C59.2385 82.5574 59.0339 82.9096 58.9777 83.0851C57.988 84.6249 56.8466 85.7655 55.0002 86.1779C53.4605 86.5215 51.5781 86.1801 50.2697 85.3043C49.7723 84.9714 49.1152 84.4631 48.7946 83.9456C48.0783 83.038 47.6681 82.1405 47.3224 81.0602C46.7213 78.4582 46.7939 75.6261 48.0055 73.1832C48.3971 72.3936 48.9006 71.829 49.7531 71.5632C50.1008 71.6319 50.2096 71.6569 50.5357 71.7893C51.1392 72.2272 50.7775 72.647 51.2042 72.9815C51.4977 72.9088 51.5141 72.7458 51.628 72.4862Z" fill="#E8812C"/>
<path d="M59.3202 75.9989C59.3798 75.8302 59.4372 75.6649 59.5059 75.499C60.3559 77.1883 60.1746 78.9695 59.7974 80.7735C59.6826 81.3227 59.4673 81.8629 59.3355 82.3826C59.2378 82.5576 59.0333 82.9097 58.977 83.0852C57.9873 84.6251 56.8459 85.7656 54.9995 86.178C53.4598 86.5216 51.5774 86.1803 50.269 85.3044C49.7716 84.9716 49.1145 84.4632 48.7939 83.9457L48.8304 83.8799C49.0413 83.7611 49.7022 84.5654 49.935 84.7273C55.0154 88.2586 59.3315 83.2289 59.5349 78.1669C59.5503 77.7875 59.5207 76.2238 59.3202 75.9989Z" fill="#C97936"/>
<path d="M49.7531 71.5625C50.1008 71.6312 50.2096 71.6562 50.5357 71.7886C50.2565 72.2083 49.3228 72.1913 48.9578 72.6337C47.4726 74.4354 47.2888 77.4907 47.4863 79.7417C47.5213 80.1404 47.7148 80.7584 47.5341 81.0634C47.4201 81.0714 47.4325 81.0782 47.3224 81.0595C46.7213 78.4574 46.7939 75.6254 48.0055 73.1824C48.3971 72.3929 48.9006 71.8283 49.7531 71.5625Z" fill="#F59C4A"/>
<path d="M51.6279 72.4862C52.2372 70.5488 54.203 69.352 55.5529 71.3905L55.379 71.574C54.6995 71.2338 54.2995 70.7902 53.4394 71.0157C52.6207 71.2304 52.2883 72.2891 51.6279 72.4862Z" fill="#F59C4A"/>
<path d="M56.082 73.441C56.6445 72.785 57.3439 72.4107 58.1614 72.952C58.1773 73.1252 58.1898 73.2479 58.1864 73.4206L58.1109 73.483C57.891 73.4194 57.7472 73.3354 57.545 73.2314C57.17 73.3331 56.4172 73.6052 56.082 73.441Z" fill="#F59C4A"/>
<path d="M58.957 75.9711C58.4144 75.4411 58.7905 74.5306 58.3934 73.8456C58.369 73.803 58.3002 73.6411 58.2764 73.5878L58.332 73.54L58.5979 73.6934L58.6905 73.5951C59.0888 74.3943 59.0195 75.093 58.957 75.9711Z" fill="#C97936"/>
<path d="M55.5528 71.3906C56.026 72.2301 55.776 72.7765 55.8897 73.5593C55.292 73.3815 55.5789 72.6862 55.4908 72.1858C55.4539 71.9762 55.4244 71.7831 55.3789 71.5741L55.5528 71.3906Z" fill="#C97936"/>
<path d="M52.2288 77.5619C56.4449 77.4017 57.1738 83.189 53.6434 84.3086C49.3421 84.9135 48.5571 78.3747 52.2288 77.5619Z" fill="#954A0C"/>
<path d="M53.237 73.135C54.5517 73.0049 54.8414 74.0512 54.6068 75.1196C54.4818 75.6904 54.1221 76.0704 53.6296 76.3471C51.9263 76.5067 51.6902 73.9007 53.237 73.135Z" fill="#954A0C"/>
<path d="M49.7364 73.4072C51.2202 73.5021 51.2728 75.9337 49.9501 76.4835C48.4591 76.3693 48.4468 74.04 49.7364 73.4072Z" fill="#954A0C"/>
<path d="M56.7154 74.8932C58.2351 74.7892 58.3022 77.0226 56.9903 77.8399C55.4098 77.9655 55.4234 75.669 56.7154 74.8932Z" fill="#954A0C"/>
<path d="M13.2034 68.7636C13.1334 67.3016 13.6676 65.5714 15.5236 66.3303C15.8122 66.5308 15.8632 66.595 16.0934 66.8625C16.2319 67.1971 16.4544 68.0667 16.4601 68.4291C16.7393 68.3705 16.7261 68.2036 16.7961 67.9684C16.9709 67.2527 17.4323 66.4206 18.294 66.5155C18.7026 66.6166 18.8987 66.6722 19.2222 66.9716L19.2954 67.0613L19.0016 69.4526C18.8895 70.496 18.7546 71.1373 19.0803 72.1455C19.4807 72.9015 20.0068 73.2275 20.8398 73.4133C21.6217 73.5581 22.4002 73.6774 23.1768 73.8182C23.3574 74.1596 23.8076 75.1485 24.0997 75.2746C24.2829 75.182 24.2138 75.249 24.3097 75.0622C24.3561 75.2144 24.3898 75.3382 24.4252 75.4933C24.4522 76.0601 24.5739 76.6429 24.6742 77.2041C24.6473 77.6653 24.647 78.6678 24.4134 79.0251C24.3629 79.0427 24.3124 79.0597 24.2618 79.0768C23.907 79.6857 23.3589 80.5456 22.9114 81.037C21.3764 82.7228 18.9632 82.654 17.0454 81.7163L16.9892 81.6884C13.806 80.3127 11.3106 75.3802 11.1534 72.0512C11.11 71.0924 11.0569 69.8667 11.6929 69.0703C11.9546 68.7432 12.3298 68.8528 12.578 69.1391C12.6497 69.3509 12.7362 69.5656 12.9191 69.6855C13.2856 69.5781 13.2306 69.0539 13.2034 68.7636Z" fill="#E8812C"/>
<path d="M20.8399 73.4131C21.6217 73.5579 22.4003 73.6772 23.1768 73.8181C23.3575 74.1594 23.8076 75.1483 24.0997 75.2744C24.2829 75.1818 24.2139 75.2489 24.3098 75.062C24.3561 75.2142 24.3898 75.338 24.4253 75.4931C24.4523 76.06 24.5739 76.6427 24.6742 77.2039C24.6474 77.6651 24.647 78.6677 24.4134 79.0249C24.3629 79.0425 24.3124 79.0596 24.2619 79.0766C23.907 79.6855 23.3589 80.5455 22.9114 81.0368C21.3764 82.7226 18.9632 82.6539 17.0454 81.7161L16.9893 81.6883C17.8934 81.5423 18.7818 82.0791 20.0289 81.7661C23.2018 80.9686 23.4711 77.8798 22.8062 75.1159C22.1666 74.4503 21.1425 74.0686 20.8399 73.4131Z" fill="#C97936"/>
<path d="M19.0808 72.1462C17.0091 72.5586 17.0182 67.9146 19.0021 69.4533C18.89 70.4967 18.7551 71.138 19.0808 72.1462Z" fill="#954A0C"/>
<path d="M13.2032 68.7636C13.1332 67.3016 13.6673 65.5714 15.5233 66.3303C15.4659 66.4734 15.4416 66.5694 15.3321 66.679C14.7418 66.8642 14.3471 66.5654 13.8921 67.322C13.7071 67.6299 13.5105 68.5438 13.3 68.7534L13.2032 68.7636Z" fill="#FCC571"/>
<path d="M11.1534 72.0514C11.11 71.0926 11.0569 69.8669 11.6929 69.0706C11.9546 68.7434 12.3298 68.853 12.578 69.1393C11.7104 69.9549 11.3488 70.3202 11.3225 71.6271C11.32 71.7555 11.3204 71.9617 11.2531 72.0696L11.1534 72.0514Z" fill="#FCC571"/>
<path d="M16.7969 67.9682C16.9717 67.2525 17.433 66.4204 18.2947 66.5152C18.7033 66.6163 18.8995 66.672 19.223 66.9713C19.0536 67.1412 18.9001 67.0764 18.6634 67.0355C18.3836 67.0554 18.1579 67.0651 17.8835 67.1281C17.559 67.3712 17.0611 67.9733 16.7969 67.9682Z" fill="#FCC571"/>
<path d="M18.2939 66.5156C18.7025 66.6167 18.8987 66.6724 19.2222 66.9717C19.0528 67.1416 18.8993 67.0768 18.6627 67.0359C18.5634 66.8791 18.421 66.719 18.2939 66.5156Z" fill="#F59C4A"/>
<path d="M16.0931 66.8623C16.2316 67.1969 16.4541 68.0665 16.4598 68.4288C15.962 68.1477 15.7758 67.2928 16.0931 66.8623Z" fill="#C97936"/>
<path d="M16.294 73.3605C18.36 73.2332 19.5835 74.6544 20.2456 76.4669C20.7999 77.984 20.6977 79.7686 18.9868 80.3662C15.4458 80.8757 12.9056 74.434 16.294 73.3605Z" fill="#954A0C"/>
<path d="M14.9102 68.8066C16.3546 68.9907 16.9623 71.4808 15.6455 71.9977C14.2116 71.9863 13.4835 69.4638 14.9102 68.8066Z" fill="#954A0C"/>
<path d="M12.2873 70.571C13.5748 70.5262 14.2578 72.5863 13.3136 73.4871C12.0291 73.5019 11.2569 71.2736 12.2873 70.571Z" fill="#954A0C"/>
<path d="M23.8769 73.8955C25.3962 74.1965 27.101 74.4232 28.6421 74.6561L36.4306 75.8381L42.7286 76.7906C43.5792 76.9156 45.1881 77.1888 45.9952 77.2297C45.9198 79.4954 46.0929 80.7331 46.9423 82.8534C43.169 82.8069 38.7401 81.8697 35.2443 80.4735C33.9757 79.9674 32.9521 79.3727 31.7924 78.6616C31.6574 78.5792 31.611 78.5826 31.4894 78.6139C31.4306 78.9763 32.4927 79.818 32.7954 80.0748C30.1993 80.6502 26.3324 81.3812 23.7334 81.3585C24.0388 80.8467 24.4151 80.3667 24.2577 79.7397C24.1942 79.4858 24.3273 79.2591 24.4129 79.0257C24.6466 78.6684 24.6469 77.6659 24.6738 77.2047C24.5735 76.6435 24.4518 76.0607 24.4248 75.4939C24.3894 75.3388 24.3557 75.215 24.3093 75.0628C24.1749 74.6759 24.0425 74.2681 23.8769 73.8955Z" fill="#E8812C"/>
<path d="M24.4258 75.4933C24.5558 75.366 24.5345 75.3609 24.7577 75.3638C25.3114 75.3717 28.3027 75.7733 28.579 76.0448C28.6946 76.3061 28.7196 76.6991 28.754 76.9928C27.9625 78.3367 26.3648 78.0175 25.0551 77.7005C24.9256 77.5443 24.7743 77.3773 24.6747 77.2041C24.5745 76.6429 24.4528 76.0601 24.4258 75.4933Z" fill="#F59C4A"/>
<path d="M33.0479 76.9932C33.8233 77.1391 35.093 77.1727 35.9736 77.2976L45.0767 78.6034L45.1389 79.3754L44.8124 79.7701L44.3763 80.0927C41.319 80.4227 35.594 78.7892 33.0479 76.9932Z" fill="#F59C4A"/>
<path d="M21.1203 50.4521C21.0974 50.8021 21.0666 51.0367 21.0093 51.3836C21.0407 51.9388 20.489 52.1908 20.6701 52.4827C21.0849 52.6972 21.4159 52.7618 21.8678 52.8773C22.3653 53.0801 22.5602 53.2113 22.9545 53.5792C23.316 54.0063 23.8384 54.9469 23.2667 55.4428C23.0408 55.6387 22.2894 55.3667 21.9933 55.29C21.7167 55.2883 21.5074 55.2587 21.2632 55.378L21.2051 55.4712C21.3837 55.7677 22.4719 55.9727 23.0562 56.4175C23.7694 57.0962 23.9918 58.0897 23.2715 58.8848C22.7237 59.4892 21.552 59.3637 20.7923 59.2722C20.7828 59.3489 20.7451 59.4693 20.8026 59.5204C21.097 59.7829 22.0305 59.9459 22.4224 59.9606C23.355 60.5894 22.1063 62.1628 21.2377 62.219C20.8404 62.2451 19.9088 62.1912 19.6637 62.4865C19.7144 62.7535 19.8558 62.858 19.8062 63.0074C19.1599 62.9835 18.0665 61.1466 17.8516 60.5854C16.4248 56.6986 17.9182 52.9078 21.1203 50.4521Z" fill="#E8812C"/>
<path d="M21.1203 50.4521C21.0974 50.8021 21.0666 51.0367 21.0093 51.3836C21.0407 51.9388 20.489 52.1908 20.6701 52.4827C21.0849 52.6972 21.4159 52.7618 21.8678 52.8773C21.8028 53.1344 21.8505 53.123 21.6871 53.2602C20.6931 53.3037 20.4787 53.2455 19.6027 53.8194C19.4432 53.9239 19.0773 54.1449 18.8926 54.2068C17.8599 55.8932 17.6662 58.2413 18.049 60.1651C18.0602 60.2219 18.0795 60.2651 18.1013 60.3179L17.8516 60.5854C16.4248 56.6986 17.9182 52.9078 21.1203 50.4521Z" fill="#FCC571"/>
<path d="M18.8926 54.207C19.4716 52.8212 19.8757 52.3051 21.0092 51.3838C21.0406 51.939 20.4889 52.191 20.67 52.4829C21.0848 52.6974 21.4158 52.762 21.8677 52.8775C21.8027 53.1345 21.8505 53.1232 21.687 53.2604C20.693 53.3039 20.4786 53.2457 19.6026 53.8196C19.4432 53.9241 19.0772 54.1451 18.8926 54.207Z" fill="#EF913F"/>
<path d="M22.4224 59.9609C23.3549 60.5897 22.1062 62.1631 21.2377 62.2193C20.8404 62.2454 19.9088 62.1915 19.6637 62.4868C19.7144 62.7538 19.8558 62.8583 19.8061 63.0077C19.1599 62.9838 18.0665 61.1469 17.8516 60.5857L18.1013 60.3182C18.1567 60.3216 18.212 60.325 18.2674 60.3284C18.6467 60.7039 19.0566 61.1685 19.4959 61.4519C20.0039 61.7723 20.6211 61.8711 21.2038 61.7251C22.0336 61.5212 22.6262 60.8493 22.4224 59.9609Z" fill="#C97936"/>
<path d="M23.0558 56.417C23.7691 57.0958 23.9915 58.0892 23.2712 58.8844C22.7234 59.4887 21.5517 59.3632 20.792 59.2718C21.3909 59.2689 22.4139 58.998 22.8802 58.5902C23.6304 57.9341 23.0111 57.0747 23.0558 56.417Z" fill="#C97936"/>
<path d="M22.9543 53.5791C23.3158 54.0062 23.8383 54.9468 23.2665 55.4427C23.0406 55.6387 22.2892 55.3666 21.9932 55.2899C22.206 55.1979 22.6723 55.0735 22.8204 54.9491C23.1465 54.6759 22.8876 54.021 22.9543 53.5791Z" fill="#C97936"/>
<path d="M19.955 53.8074C20.2166 53.7773 20.415 53.7637 20.5012 54.0392C20.3877 54.393 20.2286 54.4788 19.9313 54.6844C19.7538 54.7639 19.7004 54.76 19.5464 54.6736C19.4036 54.3084 19.7071 54.021 19.955 53.8074Z" fill="#EF913F"/>
<path d="M24.0882 13.6448C23.821 13.0945 23.662 12.498 23.6199 11.8877C23.5186 10.4304 24.0392 8.87481 25.0105 7.78039C25.9445 6.71152 27.2768 6.07326 28.6952 6.0151C30.2397 5.94268 31.425 6.49688 32.5358 7.50911C31.3631 8.38326 30.6496 8.75831 29.5951 9.82746C29.5557 9.79525 29.5159 9.76356 29.4758 9.73226C28.3982 8.88736 27.0586 8.75485 26.1633 9.95815C26.4186 10.0335 26.5891 9.9836 26.858 10.0026C27.46 10.0451 27.7513 10.1023 28.2838 10.3409L28.2546 10.4112C28.1168 10.7499 28.1115 11.2114 28.0643 11.2802C27.5976 11.9602 27.0255 12.5573 26.5363 13.2438C26.0584 13.9159 25.7005 14.4973 25.2842 15.2119C24.7572 14.7257 24.3781 14.3125 24.0882 13.6448Z" fill="#F8A14C"/>
<path d="M26.1629 9.95801C26.4182 10.0334 26.5886 9.98345 26.8576 10.0024C27.4596 10.045 27.7509 10.1022 28.2834 10.3407L28.2542 10.4111C28.1163 10.7497 28.1111 11.2113 28.0639 11.28C27.5972 11.96 27.0251 12.5571 26.5358 13.2436C25.509 12.3983 25.7106 11.3367 25.9614 10.1916C26.0686 10.1398 26.0994 10.0613 26.1629 9.95801Z" fill="#954A0C"/>
<path d="M24.0879 13.6444L24.2213 13.6824C24.2726 13.8279 24.2636 13.8215 24.3826 13.9177C24.4485 13.8429 24.4277 13.8855 24.4473 13.7909C24.3865 13.701 24.4075 13.7319 24.3887 13.6141C24.7292 12.6852 25.0265 10.696 25.9616 10.1914C25.7108 11.3364 25.5092 12.3981 26.536 13.2434C26.0581 13.9155 25.7002 14.4969 25.2839 15.2115C24.757 14.7253 24.3779 14.3121 24.0879 13.6444Z" fill="#E8812C"/>
<path d="M75.8267 70.4397C75.8789 70.1971 75.8534 70.1284 76.0062 69.9637C76.8521 69.7189 77.8867 71.3945 78.0628 72.1022C78.102 72.2652 78.1305 72.4311 78.1475 72.598C78.2117 72.8877 78.2162 73.4018 78.1918 73.6994C78.1066 74.8314 77.5669 75.8817 76.6959 76.6104C75.5216 77.5913 74.3478 77.6538 72.9121 77.5243C74.3711 75.1853 75.2114 73.1433 75.8267 70.4397Z" fill="#E8812C"/>
<path d="M75.8262 70.4397C75.8784 70.1971 75.8529 70.1284 76.0057 69.9637C76.8517 69.7189 77.8862 71.3945 78.0624 72.1022C78.1016 72.2652 78.13 72.4311 78.147 72.598L78.1033 72.6753C77.6578 72.5316 77.4505 71.37 76.6585 70.9753C76.3375 70.7344 76.1841 70.6101 75.8262 70.4397Z" fill="#FCC571"/>
<path d="M76.659 70.9756C77.451 71.3703 77.6583 72.5319 78.1037 72.6756C77.8492 72.821 77.6918 73.4151 77.5777 73.7202C77.4475 73.4896 77.2339 73.3334 77.214 73.2748C77.1686 73.0573 77.0533 72.7091 77.0305 72.5018C76.9834 72.0713 76.5158 71.3436 76.659 70.9756Z" fill="#F59C4A"/>
<path d="M60.4092 81.8828C60.3854 81.9743 60.3058 82.3099 60.2712 82.373L60.1922 82.3105C59.8809 82.6933 59.5536 83.2284 58.9775 83.0853C59.0338 82.9098 59.2383 82.5576 59.336 82.3827C59.7349 82.3435 59.7292 81.9646 60.4092 81.8828Z" fill="#E8812C"/>
<path d="M86.7574 15.2664C87.4772 15.21 88.201 15.2484 88.9112 15.3803C90.7093 15.7324 92.1445 16.7091 93.1671 18.2176C94.0676 17.9788 95.1522 17.9601 96.0618 18.1554C97.7423 18.5254 99.2058 19.551 100.127 21.0045C100.955 22.3126 101.294 23.8527 100.953 25.3726C102.156 26.2507 102.799 26.8758 103.42 28.2795C104.271 30.2374 104.312 32.4521 103.536 34.4405C102.832 36.2358 101.661 37.5211 99.8956 38.2855C99.9194 41.9085 96.8708 44.476 93.4551 44.9392C92.7245 45.0383 92.1445 44.986 91.4224 44.9169C90.1179 44.656 89.5969 44.3815 88.526 43.6375C85.7148 45.4531 82.0543 44.66 80.7039 41.468C80.0414 41.4209 79.1284 41.0544 78.5745 40.6936C75.9219 38.9652 75.0208 35.3575 76.7354 32.6747C76.2838 32.0535 75.856 31.2595 75.6401 30.5251C74.7026 27.3367 76.4105 23.3578 79.7176 22.3697C79.6835 19.4368 81.9208 16.7555 84.5956 15.7671C85.3552 15.4864 85.9648 15.3666 86.7574 15.2664Z" fill="#FF9B34"/>
<path d="M86.9544 16.1766C88.9616 16.0561 90.787 16.6288 92.104 18.2201C92.2062 18.3437 92.684 19.2316 92.8437 19.2065C93.8061 19.0549 94.7009 18.8092 95.6838 18.9905C97.1576 19.2584 98.4586 20.114 99.2886 21.3606C100.274 22.8288 100.285 24.1221 99.9607 25.7683C100.23 25.9708 100.524 26.1533 100.796 26.3579C103.794 28.6134 103.865 33.3932 101.445 36.0929C100.694 36.9311 100.041 37.2726 99.0279 37.6744C99.029 38.1532 99.0267 38.6404 98.9461 39.111C98.4489 42.0136 95.6009 43.982 92.7585 44.0502C92.1364 44.0651 91.6529 44.0102 91.0478 43.9062C89.7263 43.5416 89.5212 43.2315 88.4821 42.493C87.831 42.9599 87.5083 43.317 86.668 43.5183C84.2478 44.098 82.0639 43.0966 81.39 40.6595C80.6753 40.578 80.0316 40.4538 79.3885 40.1091C77.1671 38.9183 76.1103 36.0414 77.2017 33.7367C77.3807 33.3582 77.6159 33.0211 77.8119 32.6498C77.4364 32.1332 77.0654 31.6364 76.8074 31.052C75.7848 28.6703 76.3575 25.9164 78.2863 24.1759C79.1948 23.3567 79.5731 23.4198 80.6077 22.9734C80.6185 22.522 80.6145 22.0744 80.6941 21.6292C81.2639 18.4572 83.8631 16.4577 86.9544 16.1766Z" fill="#FCF6EF"/>
<path d="M83.8215 28.6504C84.9016 28.6606 87.2963 28.964 88.482 29.0788L92.4186 29.4592C93.0117 29.5147 94.5724 29.5804 95.0326 29.7957C95.1093 30.5512 93.6708 36.5623 93.4344 37.5788C93.1293 38.4907 92.5538 39.0911 91.5209 39.0328C89.4217 38.9144 87.2593 38.7107 85.1817 38.385C84.3573 38.2558 83.8079 37.353 83.7772 36.5499C83.7403 35.5607 83.7653 34.4978 83.7602 33.5018C83.834 32.3103 83.5057 29.7161 83.8215 28.6504Z" fill="#A63156"/>
<path d="M89.0378 31.0576C89.5826 31.1312 89.519 31.5873 89.4389 32.0094C89.3048 32.7188 89.1599 36.2357 88.8321 36.6843C88.5906 36.668 88.4923 36.6657 88.3725 36.4571C88.3003 35.3986 88.7241 32.5513 88.8605 31.365C88.8696 31.2878 88.9832 31.1271 89.0378 31.0576Z" fill="#FCF6EF"/>
<path d="M91.3197 31.2803C91.4646 31.3267 91.7203 31.4221 91.7186 31.6102C91.6992 31.969 91.6612 32.5676 91.5805 32.904C91.3748 33.7669 91.3016 36.278 90.8402 36.9211C90.7385 36.9002 90.6692 36.8729 90.5721 36.8396C90.4857 36.7342 90.4374 36.6854 90.4562 36.4987C90.6141 34.8767 90.855 33.2201 91.1004 31.6086C91.1169 31.4992 91.2504 31.3533 91.3197 31.2803Z" fill="#FCF6EF"/>
<path d="M86.902 30.7822C87.1139 30.8949 87.2639 30.9851 87.2377 31.2586C87.0821 32.8963 87.073 34.5616 86.8423 36.1888C86.8275 36.2948 86.7145 36.4087 86.6401 36.4794C86.4759 36.4037 86.473 36.4016 86.3321 36.2878C86.2691 36.0596 86.2855 35.7212 86.3026 35.4766C86.4009 34.0243 86.4759 32.5647 86.6048 31.1161C86.6145 31.011 86.8167 30.859 86.902 30.7822Z" fill="#FCF6EF"/>
<path d="M87.9628 23.5452C88.0884 23.5392 88.2139 23.537 88.3395 23.5386C88.5315 23.5413 88.8037 23.5486 88.9963 23.5764C91.3518 23.9156 92.8545 23.2149 92.7301 26.3004C93.6499 26.3789 95.1554 26.3322 95.8753 26.9546C96.2394 27.2696 96.1207 27.608 96.1605 27.9798C96.2957 29.242 94.818 28.8348 94.0158 28.7559L91.5858 28.5248C90.5836 28.4304 83.5711 27.8655 83.2513 27.5901C83.1115 27.4701 83.0695 27.2512 83.0666 27.0772C83.0598 26.6734 83.2172 26.1807 83.5115 25.9002C84.2148 25.2292 85.8675 25.669 86.7584 25.7165C86.8265 24.7133 86.9248 23.9431 87.9628 23.5452Z" fill="#A63156"/>
<path d="M88.3462 24.7765C88.9223 24.7136 90.7108 24.8264 91.2806 25.1442C91.5579 25.2986 91.6107 25.8769 91.4295 26.1265L91.2448 26.139C90.1477 26.0296 89.0495 25.9311 87.9502 25.8437C88.0314 25.3909 88.0428 25.1311 88.3462 24.7765Z" fill="#FCF6EF"/>
<path d="M7.05812 38.0949C7.41031 38.0833 7.73142 38.1172 8.06674 38.2303C8.74271 38.465 9.29869 38.957 9.61366 39.5993C10.2255 40.8338 10.066 42.4794 9.63218 43.7946C9.33187 44.7052 8.35336 46.7708 7.53945 47.2842C6.84325 47.5087 5.47666 47.0585 4.8667 46.8487C2.54348 46.0493 -0.82803 44.2034 0.184959 41.2541C0.825034 39.96 2.37809 39.4263 3.62311 40.308C4.17608 40.6995 4.13631 41.4946 4.18199 42.1236C4.85114 42.4699 5.19361 42.5541 5.71238 43.1097C5.59125 43.6543 5.44132 44.2234 5.31116 44.7704C5.48637 44.9377 5.78981 45.1471 5.99139 45.3088C6.21433 45.4876 6.77604 46.1192 6.99193 46.1617C7.87295 45.7843 6.74025 44.754 6.43323 44.4161C6.56231 43.9713 6.82683 43.1843 6.82041 42.7453C6.81246 42.1977 5.60892 41.8261 5.15924 41.4334C5.02948 40.8657 4.89153 40.4125 5.0422 39.8297C5.31354 38.7801 6.07081 38.309 7.05812 38.0949Z" fill="#4FAF5A"/>
<path d="M78.3113 43.6421C79.4277 43.3752 80.5481 44.0689 80.8071 45.1874C81.0656 46.3059 80.3634 47.4209 79.2425 47.671C78.134 47.9184 77.033 47.2254 76.7773 46.1187C76.5211 45.0121 77.2063 43.9063 78.3113 43.6421Z" fill="#FF9B34"/>
<path d="M78.7224 44.4287C79.4025 44.4016 79.9774 44.9274 80.011 45.6071C80.0445 46.2867 79.5235 46.8664 78.844 46.906C78.156 46.9462 77.5668 46.4174 77.5327 45.7288C77.4992 45.0403 78.0333 44.4562 78.7224 44.4287Z" fill="#FCF6EF"/>
<path d="M105.292 22.1719C107.327 22.2293 105.022 24.6303 104.334 25.0604C102.525 25.3011 104.66 22.5626 105.292 22.1719Z" fill="#4FAF5A"/>
<path d="M107.375 25.8806C108.431 25.757 108.766 26.7571 107.784 27.0998C107.253 27.2848 106.603 27.3557 106.043 27.4436C105.538 27.4864 104.811 27.4608 105.051 26.7445C105.199 26.3043 106.962 25.96 107.375 25.8806Z" fill="#4FAF5A"/>
</svg>
