<svg width="107" height="132" viewBox="0 0 107 132" fill="none" xmlns="http://www.w3.org/2000/svg">
<path d="M53.4983 132C50.8087 130.127 51.6717 128.766 53.8503 126.952C54.5587 126.362 55.12 125.799 55.9225 125.298C56.897 125.794 58.2516 126.38 57.4327 127.692C56.4679 129.239 55.0484 130.822 53.6706 132H53.4983Z" fill="#FFC300"/>
<path d="M38.0894 4.11036C38.4859 2.68344 39.1732 1.17844 40.5209 0.416072C41.2683 -0.0156681 42.1617 -0.11658 42.9865 0.137571C44.3633 0.564058 45.2554 1.7927 45.8757 3.01986C46.0727 3.40156 46.2491 3.79355 46.4041 4.19418C50.5021 1.39344 53.7083 4.19857 52.1042 8.70972C57.1782 9.31193 63.2071 11.459 67.2409 14.678C73.5696 7.74731 85.9385 13.3697 85.8825 22.5098C85.8573 26.6162 85.4993 28.1724 82.9558 31.4619C83.966 33.7105 84.9263 36.2532 86.2926 38.2776C87.1219 39.5063 88.7561 40.7123 89.7597 41.8118C93.6733 46.0993 96.7831 50.8485 98.9023 56.2659C99.5541 57.9324 100.368 59.5972 100.936 61.3174C104.136 71.1531 104.465 81.6978 101.884 91.7138C101.578 92.9002 100.952 95.4534 100.542 96.5529C100.522 96.6074 100.501 96.6615 100.479 96.7152C103.376 99.4651 104.49 102.896 102.566 106.622C102.578 106.641 102.59 106.661 102.603 106.68C103.385 107.744 106.361 107.482 106.205 109.691C106.171 110.165 105.765 110.559 105.405 110.826C101.125 113.997 87.1655 114.904 81.5555 116.196C81.3283 116.248 81.3035 116.331 81.2667 116.564C81.2278 116.809 81.2475 117.091 81.2477 117.341C81.4289 124.89 77.8084 124.28 72.3578 126.71C71.8786 126.36 71.3463 125.951 70.8535 125.632C70.0879 129.181 66.5446 131.305 64.0955 127.621C63.1933 126.264 63.2407 124.217 63.2693 122.619C61.8666 121.537 60.6114 119.992 60.4027 118.185C59.0182 118.228 56.4067 118.168 55.0804 117.943C53.1812 117.956 50.0287 117.694 48.1552 117.448L48.069 117.449C41.7642 117.513 33.6112 115.976 27.3189 115.2C24.2282 114.819 20.874 114.626 17.8419 114.064C15.7814 113.592 11.3606 112.739 9.92817 111.342C7.96195 109.424 15.3514 107.408 16.0839 106.569C11.9707 102.606 9.72761 95.9901 9.59942 90.365C9.55305 88.3346 9.75256 84.966 10.3218 83.0242C5.7978 80.0591 1.70591 74.7359 0.487299 69.3846C-0.468504 65.0302 0.206487 60.7249 0.615754 56.3694C0.76588 54.7718 0.738692 52.8959 0.777702 51.2982C0.874239 47.3479 1.67334 43.803 2.66209 40.008C3.29399 37.5825 3.12692 35.6854 4.89021 33.5505C2.021 30.9565 0.298821 29.0839 0.0750107 24.9979C-0.110447 21.6091 0.758262 18.4477 3.06978 15.9024C5.03154 13.7035 7.79554 12.3866 10.7391 12.2481C13.9251 12.1181 16.1348 13.4975 18.4252 15.5012C22.1589 12.487 27.728 9.4128 32.5892 9.12647C31.1435 4.65326 33.565 1.86594 38.0894 4.11036Z" fill="#060200"/>
<path d="M16.084 106.569C17.1228 107.463 17.8321 108.015 19.0372 108.696C18.7962 110.088 18.7907 110.369 19.2162 111.717C22.4141 114.302 28.2493 114.53 32.2017 114.123C32.8499 114.056 33.3644 113.968 33.8874 113.561C35.6836 112.165 39.0966 113.284 42.4398 110.003C47.3211 111.681 52.8561 112.103 57.9896 112.153C59.2298 112.165 61.2918 112.2 62.4731 112.018C61.036 114.452 60.5692 115.35 60.4028 118.186C59.0183 118.229 56.4068 118.169 55.0805 117.944C53.1813 117.957 50.0287 117.695 48.1553 117.449L48.0691 117.45C41.7643 117.514 33.6113 115.977 27.319 115.201C24.2283 114.82 20.8741 114.626 17.842 114.065C15.7815 113.593 11.3607 112.74 9.92826 111.343C7.96204 109.424 15.3515 107.409 16.084 106.569Z" fill="#FFDCA8"/>
<path d="M48.1555 117.447C48.0443 116.747 47.7828 115.757 48.1847 115.174C49.7244 113.904 55.2535 114.95 55.0808 117.943C53.1815 117.956 50.029 117.694 48.1555 117.447Z" fill="#FFC300"/>
<path d="M82.3281 111.941C85.027 112.187 88.6988 111.879 91.4089 111.62C92.0712 111.557 93.0189 111.089 93.7537 111.042L93.9881 111.407C94.9599 111.556 99.8505 109.436 100.753 108.688C101.084 108.413 102.217 107.049 102.565 106.621C102.578 106.64 102.589 106.66 102.603 106.678C103.384 107.743 106.361 107.481 106.204 109.689C106.17 110.164 105.764 110.558 105.405 110.824C101.125 113.996 87.165 114.903 81.555 116.194C81.3278 116.246 81.303 116.33 81.2662 116.562C81.2273 116.808 81.247 117.09 81.2472 117.339C81.197 117.048 80.9472 115.98 80.9658 115.766C81.0699 114.574 81.8795 113.123 82.3281 111.941Z" fill="#FFDCA8"/>
<path d="M16.3955 19.484C21.227 14.5887 27.9585 10.9222 34.9219 10.584C35.4087 10.5603 35.4029 10.6857 35.826 10.4347C35.808 9.63201 34.4177 9.28474 34.0104 8.34761C33.6128 7.43262 33.0792 5.53052 34.3736 4.97767C37.5152 3.63599 39.097 9.13106 40.2532 9.64055C40.5713 9.10466 39.7525 5.89914 39.7441 4.64514C39.7278 2.24441 41.8214 0.618102 43.7239 2.45727C45.1805 3.86528 44.4374 8.11136 44.235 10.2034C45.0688 9.20212 45.919 7.5524 46.6467 6.36814C47.7664 4.83502 49.3807 3.74101 50.8733 5.52801C51.4953 8.07061 49.4132 8.83541 49.1977 10.3277L49.4079 10.5283C52.2574 10.3439 53.1031 10.4043 55.8784 11.1786C59.793 12.2707 63.0974 13.4715 66.1916 16.2134C66.244 16.2596 66.2961 16.3064 66.3478 16.3535C65.9229 16.8956 65.2452 17.7094 65.3663 18.4381L65.5746 18.5777C66.5891 18.3691 67.1283 17.2528 67.8312 16.4725C69.7835 14.3052 72.7173 12.9689 75.6563 13.2642C76.7345 13.3786 77.9853 14.1019 78.9693 14.3974C80.1573 14.6207 80.9584 15.7453 81.7941 16.414C83.1794 17.5224 83.7225 17.95 83.8359 19.6553C83.979 21.8073 85.0239 23.8279 83.8965 25.7721C83.2702 28.253 82.2215 29.8775 79.9858 31.2601C78.7041 32.0529 77.6484 32.1051 76.1991 32.2028L78.1182 33.3274C78.4295 33.3454 79.0412 33.3857 79.335 33.3494C80.1021 33.2545 80.9927 32.6487 81.7174 33.0173L82.0262 33.5694C83.7949 36.7251 86.4107 45.2207 86.3998 48.6552C86.5295 49.4848 87.4511 53.1163 87.984 53.557C88.0407 53.4923 88.1077 53.4319 88.138 53.3602C87.7753 48.1633 88.314 46.069 86.2389 40.8873C87.5208 41.7612 89.0479 43.548 90.0319 44.7208C94.5475 50.1026 97.6677 56.5412 99.4267 63.326C99.9286 65.2625 100.613 67.1669 100.948 69.2033C101.376 71.8047 101.725 75.0436 101.616 77.6843C101.781 84.7796 101.011 89.9428 98.4196 96.5869C98.1604 97.2516 97.0428 99.9395 97.3259 100.35C98.2752 100.504 98.6437 98.8177 99.0308 98.0909C101.896 100.617 102.603 102.809 100.664 106.343C100.273 105.653 99.6516 104.69 99.0426 104.173C98.8546 104.759 98.893 105.132 99.0652 105.73C99.2781 106.099 99.7702 106.509 100.097 106.811C98.8359 107.714 96.7378 108.709 95.3127 109.434C95.4857 108.129 95.3851 107.576 95.0769 106.35C94.648 105.976 94.0836 105.418 93.4941 105.441L93.3721 105.629C93.411 106.318 93.886 107.106 94.1968 107.791C94.0415 108.357 93.9471 108.912 93.8409 109.488C90.2352 110.158 86.7112 110.138 83.0617 110.146C84.0838 106.955 84.7346 102.264 85.3906 98.8994C85.7713 96.9461 86.2228 95.0447 86.5546 93.0863C86.5275 92.3177 86.6134 91.7389 86.186 91.171C85.0747 92.5241 84.8213 94.0444 84.3841 95.7313C83.8927 98.3999 83.5537 101.377 82.9495 103.978C82.3247 106.817 81.3923 109.835 80.4779 112.587C79.8644 114.433 78.7296 114.098 79.4876 116.592C80.2176 118.994 79.9239 121.797 77.5186 123.106C77.094 123.373 76.8825 123.497 76.3452 123.42C75.4739 122.778 75.9992 120.472 75.1551 120.297C73.6772 121.901 77.0454 124.959 70.6266 124.327C70.5901 123.692 70.5935 122.641 70.3357 122.104C70.0204 121.841 70.1754 121.89 69.7547 121.925C69.1686 122.675 69.3455 127.661 67.2989 127.837C64.1929 128.102 64.8644 121.515 64.8681 119.543C64.9347 119.164 65.0051 119.011 64.8249 118.68L64.6367 118.74C64.2132 119.469 63.9408 120.336 63.5943 121.142C61.1924 118.232 62.6795 115.599 63.7295 112.505C64.0936 110.132 64.6238 96.2276 63.9935 94.4024C63.9086 94.1568 63.891 94.1477 63.6597 94.0353C63.0701 94.3757 62.9862 95.3033 62.8727 95.9299L62.6469 104.049C62.595 105.632 62.4355 108.631 62.5738 110.171C57.053 110.234 49.8832 110.562 44.7144 108.902C43.7426 108.589 42.8035 108.182 41.9105 107.687C40.7987 107.079 37.4248 104.608 36.4041 105.241C36.478 106.159 40.5174 108.277 41.4547 108.853C39.0251 110.781 38.0364 111.042 35.0028 111.736C35.3509 110.653 36.5036 108.375 34.6092 108.398C34.1507 108.818 34.4863 110.846 34.185 111.939C33.068 112.166 32.4481 112.256 31.3127 112.343C31.4568 111.513 31.7405 110.487 30.8285 109.969C29.7319 110.171 30.017 111.544 30.0957 112.361C24.3234 113.501 27.2433 111.609 25.7792 110.064C25.4122 110.007 25.3685 110.016 25.0211 110.149C24.595 110.637 24.8725 111.774 24.9583 112.397C23.1135 112.078 19.7302 111.743 20.4147 109.09C20.5666 108.502 21.0272 107.72 21.3215 107.171L20.8094 107.236C19.0623 107.979 15.6202 103.399 14.8439 102.053C12.746 99.8583 11.3148 93.2176 11.3511 90.2121C11.3679 88.8224 11.3818 87.3 11.4319 85.9031L11.5741 83.7892C12.3767 84.1877 15.7313 86.1046 16.3311 85.4828C15.969 84.7195 16.0189 84.8139 15.3481 84.251C14.2315 83.6624 13.1522 83.0057 12.1163 82.2845C6.80461 78.561 2.98578 73.2789 1.78963 66.8155C1.06067 62.8767 1.88381 60.2053 2.19076 56.3937C2.377 54.0811 2.40905 51.7744 2.64915 49.4079C2.92116 46.7263 3.28354 44.3157 3.86894 41.681C4.10116 40.6357 4.35399 38.4536 4.68104 37.6031C6.07841 33.97 8.08797 29.9387 10.2976 26.7893C10.739 26.3353 11.8851 24.6639 12.4113 24.0167C13.2057 23.0393 14.2078 21.9429 14.9432 20.97C15.3864 20.5547 15.9599 19.9311 16.3955 19.484Z" fill="#FF9B34"/>
<path d="M30.0077 104.041C28.657 102.638 22.8802 96.5023 23.2659 94.8955C24.6135 94.5185 27.2767 97.3001 28.2875 97.2917C29.868 97.432 30.2087 98.5664 31.4201 99.4778C33.3478 99.7074 33.7123 100.741 35.2641 101.476C42.2943 104.804 50.3102 106.057 57.9769 104.669C61.5016 104.031 60.4966 100.641 60.873 98.1669C61.0427 98.9004 60.8705 102.575 60.4513 103.378C59.8114 104.604 59.301 104.299 58.1173 104.623C57.9191 104.651 57.5922 104.981 57.4262 105.001C51.7018 105.676 45.8087 105.514 40.3147 103.606C39.428 103.298 38.4667 103.145 37.6495 102.695C37.4803 102.602 37.407 102.667 37.1967 102.706L37.0818 102.897C37.3693 103.159 38.2292 103.874 38.3311 104.174C38.007 104.664 37.5784 104.302 37.1597 104.905C38.5317 105.035 41.2746 107.187 42.6378 107.804C48.7432 110.568 55.7429 109.678 62.1557 109.939C62.1418 107.572 62.226 105.14 62.4159 102.782C62.5407 101.232 62.1513 97.1616 62.8727 95.9301L62.647 104.049C62.5951 105.632 62.4355 108.631 62.5738 110.171C57.053 110.234 49.8832 110.562 44.7145 108.902C43.7426 108.589 42.8035 108.182 41.9105 107.687C40.7987 107.079 37.4249 104.609 36.4042 105.241C36.478 106.159 40.5175 108.277 41.4548 108.853C39.0252 110.781 38.0364 111.042 35.0029 111.737C35.3509 110.653 36.5036 108.375 34.6092 108.399C34.1507 108.819 34.4863 110.846 34.185 111.939C33.0681 112.166 32.4481 112.257 31.3128 112.343C31.4569 111.513 31.7406 110.487 30.8285 109.969C29.7319 110.171 30.0171 111.544 30.0957 112.361C24.3234 113.501 27.2433 111.609 25.7793 110.064C25.4123 110.007 25.3685 110.016 25.0211 110.15C24.5951 110.637 24.8726 111.774 24.9584 112.397C23.1135 112.078 19.7302 111.744 20.4148 109.091C20.5666 108.502 21.0272 107.72 21.3216 107.171C21.5877 106.754 21.6451 106.801 21.6695 106.368C21.9175 106.288 23.0799 105.349 23.5694 105.06C23.9315 105.115 24.2953 105.158 24.6602 105.189C26.9399 105.371 28.2584 105.524 30.0077 104.041Z" fill="#DF751B"/>
<path d="M28.2875 97.291C29.8679 97.4313 30.2086 98.5657 31.42 99.4771C32.4155 101.089 32.7627 101.567 34.1559 102.835C31.705 102.099 30.1499 100.828 28.7782 98.6436C28.4901 98.1852 28.2083 97.8642 28.2875 97.291Z" fill="#521300"/>
<path d="M86.7091 91.7284C87.2452 93.4095 86.1404 96.4996 85.8083 98.2689L84.787 103.836C84.6941 104.349 84.6767 104.884 84.5803 105.409C84.4628 106.049 83.6996 107.792 83.8514 108.358C84.4154 108.097 84.4878 108.208 84.9337 107.775L85.0049 107.705C85.8501 107.799 85.4761 107.965 86.1526 108.257C86.2993 108.321 87.2509 108.38 87.5289 108.413C87.2866 108.785 86.1905 108.848 86.0355 109.187C86.9446 109.208 86.9515 109.148 87.5259 109.728C89.0597 109.77 91.806 109.993 93.0234 109.012L93.0781 108.967C93.2697 109.039 93.3394 109.046 93.5375 109.082C94.8762 107.527 91.51 105.065 91.8223 103.567C91.9176 103.109 93.5488 102.122 94.0146 102.037C94.4378 101.96 93.9594 101.012 94.4881 101.162C95.6028 101.283 96.6476 101.515 97.6936 100.97L97.777 100.61L97.6942 100.492C97.5442 100.621 97.4175 100.625 97.2237 100.665L96.9437 100.463C96.8029 99.4526 98.8946 94.6118 99.2709 93.2314C99.7088 91.6253 100.211 89.9182 100.607 88.2374C101.457 84.6258 101.056 81.2674 101.616 77.6846C101.781 84.7799 101.01 89.943 98.4194 96.5872C98.1602 97.2519 97.0426 99.9397 97.3257 100.351C98.275 100.505 98.6435 98.8179 99.0306 98.0912C101.896 100.618 102.603 102.81 100.664 106.344C100.272 105.653 99.6514 104.69 99.0424 104.173C98.8544 104.76 98.8928 105.132 99.065 105.73C99.2779 106.099 99.7701 106.51 100.097 106.811C98.8357 107.715 96.7376 108.709 95.3125 109.434C95.4855 108.129 95.3849 107.577 95.0767 106.35C94.6478 105.976 94.0834 105.418 93.4939 105.442L93.3719 105.63C93.4108 106.318 93.8858 107.106 94.1966 107.791C94.0414 108.357 93.9469 108.912 93.8407 109.488C90.235 110.159 86.711 110.138 83.0615 110.146C84.0836 106.955 84.7345 102.264 85.3904 98.8996C85.7712 96.9464 86.2226 95.045 86.5544 93.0866C86.6417 92.7831 86.5576 92.3131 86.7091 91.7284Z" fill="#DF751B"/>
<path d="M99.0651 105.73C98.5949 105.2 97.7646 104.28 98.0648 103.532C98.4715 103.558 98.7391 103.888 99.0425 104.173C98.8546 104.76 98.8929 105.132 99.0651 105.73Z" fill="#060200"/>
<path d="M11.5739 83.7891C12.3765 84.1876 15.7311 86.1045 16.3309 85.4827C15.9688 84.7194 16.0187 84.8138 15.3479 84.2509C15.7254 84.29 15.8786 84.3047 16.2555 84.4152C16.4267 84.2937 16.5353 84.1471 16.7478 84.1834C18.4906 84.481 19.9208 85.6501 21.5491 86.2728C23.2036 86.9055 31.4092 88.9078 31.9985 89.712C32.1644 89.9382 32.1335 90.0371 32.1142 90.3011C30.9575 92.1424 27.5616 90.8019 25.9479 90.452C22.8142 89.7724 19.6785 88.8526 16.5018 88.3963C13.9504 88.2089 12.5225 85.9881 11.4316 85.903L11.5739 83.7891Z" fill="#DF751B"/>
<path d="M86.3995 48.6562C86.5291 49.4858 87.4508 53.1173 87.9836 53.558C88.0404 53.4934 88.1073 53.433 88.1377 53.3613C88.5115 53.9045 88.3883 59.2262 88.39 60.2301C87.9924 60.5136 87.6286 60.8528 87.2637 61.1787C87.0326 65.0076 85.6963 67.6844 83.7001 70.9098C83.504 71.2266 83.1156 72.2691 82.9304 72.4313C82.1592 73.1068 79.8002 76.1673 79.0174 76.2886C78.1688 74.9287 80.7992 72.546 81.2923 71.5086C81.9313 70.1638 82.6033 68.7959 83.2675 67.4663C83.6482 66.5923 83.8661 65.5015 84.183 64.6182C85.6873 60.4268 85.9238 56.1687 86.13 51.7662C86.1778 50.747 86.3417 49.7052 86.3995 48.6562Z" fill="#DF751B"/>
<path d="M65.1461 119.552C65.4188 119.963 64.9789 123.572 65.1447 124.328C65.3691 124.279 65.5768 124.038 65.7764 123.863C66.171 123.793 66.0752 123.828 66.502 124.035C66.927 123.907 67.1738 123.994 67.6008 124.026C67.9462 124.051 68.2076 123.791 68.6371 123.734L69.0029 124.145C68.9384 123.853 68.9131 123.758 69.0288 123.475C69.3242 122.751 68.9307 121.675 69.9918 121.533C71.1638 122.068 70.6643 123.479 70.9884 124.103C71.0894 123.927 71.1165 123.691 71.1565 123.487C72.1724 123.359 71.8119 124.095 72.4073 124.183C75.4123 124.629 73.9228 120.879 74.9658 120L75.7347 120.248C76.0281 120.604 75.9338 120.769 75.9677 121.338C76.4659 120.78 77.2669 121.369 77.9686 121.361C78.2144 121.359 78.0579 120.896 78.4665 120.676C78.5952 120.891 78.5894 120.918 78.8088 121.05C80.6165 120.223 78.871 115.718 78.5469 114.394C78.857 114.023 79.4757 113.996 79.5019 113.944C80.9908 110.95 81.5017 107.55 82.5305 104.387C82.5307 104.387 82.9211 104.005 82.9498 103.978C82.325 106.817 81.3926 109.835 80.4781 112.587C79.8646 114.433 78.7298 114.098 79.4878 116.592C80.2178 118.994 79.9241 121.797 77.5188 123.106C77.0942 123.373 76.8827 123.497 76.3454 123.42C75.4741 122.777 75.9995 120.472 75.1553 120.297C73.6774 121.901 77.0456 124.959 70.6268 124.327C70.5903 123.692 70.5937 122.641 70.3359 122.104C70.0207 121.84 70.1757 121.89 69.755 121.925C69.1688 122.675 69.3457 127.661 67.2991 127.837C64.1931 128.102 64.8646 121.515 64.8683 119.543L65.1461 119.552Z" fill="#DF751B"/>
<path d="M83.7392 89.9131C87.4619 88.6328 85.7395 90.2115 88.097 90.0828C87.5114 90.2411 86.6484 90.7816 86.1855 91.1717C85.0742 92.5248 84.8208 94.0451 84.3836 95.732C84.2528 95.5961 83.9387 95.2614 83.9088 95.0992C83.637 93.6229 83.7481 91.4275 83.7392 89.9131Z" fill="#DF751B"/>
<path d="M75.6659 114.837C76.8418 114.677 77.4921 114.687 78.2616 113.545C79.6627 111.466 80.1257 108.656 81.096 106.369C81.1914 106.144 81.2434 105.526 81.3507 105.227C81.5016 106.789 79.0778 112.916 77.9012 114.318C76.7164 115.729 75.3056 114.542 74.0142 114.21C73.6348 114.113 72.0724 116.199 71.6838 114.123C71.31 113.91 70.7536 113.912 70.3738 114.079C68.7312 114.804 66.0158 111.818 64.4487 113.002L63.9298 112.931C63.1421 114.248 62.4533 117.586 62.723 119.18L62.8784 119.302L62.9427 119.255C63.1773 119.087 63.1939 119.059 63.4673 119.013C63.7261 119.206 63.7969 119.338 64.0525 119.311C64.0614 118.551 64.3953 118.156 65.2147 118.401C65.3178 118.741 65.2033 119.182 65.1454 119.551L64.8676 119.542C64.9342 119.163 65.0046 119.01 64.8244 118.68L64.6361 118.739C64.2127 119.468 63.9403 120.335 63.5938 121.142C61.1919 118.231 62.679 115.598 63.729 112.504C64.4563 112.55 65.8706 112.576 66.4969 112.765C68.7666 113.45 69.1222 114.851 71.4102 113.423C71.654 113.891 71.8808 114.47 72.332 114.706C73.5817 114.89 73.1566 113.236 75.6659 114.837Z" fill="#DF751B"/>
<path d="M46.647 6.36869C47.7667 4.83557 49.3809 3.74157 50.8735 5.52857C50.8449 5.74631 50.8522 6.11687 50.6406 6.22042C49.6901 6.68548 47.3476 7.49964 46.647 6.36869Z" fill="#FDB940"/>
<path d="M78.9692 14.3984C80.1572 14.6217 80.9583 15.7463 81.7941 16.415C83.1793 17.5234 83.7224 17.951 83.8358 19.6563C83.979 21.8083 85.0238 23.8289 83.8965 25.7731C84.3794 21.376 83.3451 18.656 80.2446 15.4706C79.863 15.0787 79.3822 14.7897 78.9692 14.3984Z" fill="#2E1601"/>
<path d="M14.8428 102.052C15.6536 102.392 17.2423 105.083 18.082 105.688C18.7882 106.196 19.4508 105.91 19.8068 106.712C20.0176 106.505 20.1136 106.416 20.3544 106.245C20.4801 105.388 19.0336 103.948 18.478 103.328C18.023 102.82 16.8739 102.507 16.5446 101.838L16.5554 101.654C17.6175 102.225 19.7938 104.414 20.7617 105.345C21.0779 105.688 21.3706 106.008 21.6683 106.368C21.6439 106.8 21.5865 106.754 21.3204 107.171L20.8083 107.236C19.0611 107.979 15.619 103.399 14.8428 102.052Z" fill="#DF751B"/>
<path d="M20.7619 105.345C21.0782 105.688 21.3708 106.008 21.6686 106.368C21.6442 106.801 21.5868 106.754 21.3207 107.171L20.8085 107.236C20.5401 106.506 20.6033 106.091 20.7619 105.345Z" fill="#C46317"/>
<path d="M78.1182 33.3273C78.4294 33.3453 79.0411 33.3856 79.3349 33.3493C80.1021 33.2544 80.9926 32.6486 81.7174 33.0172L82.0262 33.5693C80.3475 34.0581 81.4955 34.4545 80.6238 35.1855C79.7489 35.4799 78.4132 34.1337 78.1182 33.3273Z" fill="#DF751B"/>
<path d="M86.1851 91.1709C86.6479 90.7808 87.511 90.2403 88.0965 90.082C88.0654 90.7214 87.9004 91.8556 87.1876 92.0096L86.7083 91.728C86.5569 92.3128 86.641 92.7827 86.5536 93.0863C86.5266 92.3176 86.6125 91.7388 86.1851 91.1709Z" fill="#C46317"/>
<path d="M26.587 66.1965C28.2873 64.4001 32.1674 63.9694 34.4867 63.8913C42.5004 63.6213 52.1961 69.1468 49.9937 78.393C49.8558 78.9721 49.6364 79.7417 49.5592 80.3085C48.853 80.7916 48.4677 81.1274 48.0241 81.8765C48.4688 82.3199 48.9161 82.7607 49.366 83.199C48.9611 83.278 48.0565 83.3016 47.8984 83.391C47.0633 83.8629 46.2354 84.841 45.5042 85.4492C43.3975 87.2014 39.8116 87.7653 37.2072 87.1075C34.6677 87.0808 32.7574 87.198 31.2895 84.8665C30.2616 84.3097 29.9225 84.509 29.4172 84.2608C28.9223 84.2061 28.4335 84.1064 27.9567 83.963C27.1209 83.7036 24.6447 82.606 24.2412 81.8448C24.1975 81.73 24.0952 81.5528 24.0344 81.4379C20.7374 80.3672 20.6209 74.4327 21.6368 71.8083C21.765 71.4772 22.1113 70.4014 22.0441 70.1208L21.5969 69.9398C21.8128 69.6883 23.4982 68.5325 23.8767 68.2649C24.9815 67.1825 25.2845 66.2856 25.5778 64.8496C25.5836 65.3738 25.5065 66.4298 25.7823 66.7683C26.1569 66.7132 26.3122 66.4797 26.587 66.1965Z" fill="#C46317"/>
<path d="M25.5778 64.8506C25.5836 65.3748 25.5065 66.4308 25.7823 66.7693C26.1569 66.7142 26.3122 66.4807 26.587 66.1975C26.6214 66.4775 26.6671 66.976 26.7391 67.2298L27.1689 66.9256C27.4032 67.291 27.5119 67.5131 27.8745 67.7541L28.5048 68.5998C28.1617 69.0268 27.9505 69.2598 27.7182 69.7543C26.9821 71.9338 31.1515 73.8785 32.673 74.6679C32.6807 76.0383 32.6887 77.1691 33.2069 78.4706C33.4609 79.3341 33.5388 79.5801 34.0328 80.372C28.7084 85.7256 26.3267 80.2042 24.5222 80.9079C24.2708 81.256 24.2822 81.4292 24.2412 81.8458C24.1975 81.731 24.0952 81.5539 24.0344 81.4389C20.7374 80.3682 20.6209 74.4337 21.6368 71.8093C21.765 71.4782 22.1113 70.4024 22.0441 70.1218L21.5969 69.9408C21.8128 69.6893 23.4982 68.5335 23.8767 68.2659C24.9815 67.1835 25.2845 66.2866 25.5778 64.8506Z" fill="#C46317"/>
<path d="M25.578 64.8506C25.5838 65.3748 25.5067 66.4308 25.7825 66.7693C26.1571 66.7142 26.3125 66.4807 26.5872 66.1975C26.6216 66.4775 26.6674 66.976 26.7393 67.2298C26.673 67.6479 26.5992 67.9845 26.6387 68.4078C26.12 67.9582 24.524 67.9657 23.877 68.2659C24.9817 67.1835 25.2847 66.2866 25.578 64.8506Z" fill="#BA6213"/>
<path d="M26.7391 67.229L27.1689 66.9248C27.4032 67.2902 27.512 67.5123 27.8745 67.7533L28.5048 68.599C28.1617 69.026 27.9505 69.259 27.7182 69.7536C27.044 69.2072 26.9704 69.2361 26.6385 68.407C26.599 67.9837 26.6728 67.6472 26.7391 67.229Z" fill="#DF751B"/>
<path d="M33.2069 78.4704C33.2434 77.5426 33.166 75.7089 33.5048 74.9474C33.8878 74.5895 33.6938 74.6764 34.2438 74.6396C34.2638 76.9876 34.3645 79.2758 36.186 80.9707C39.1451 83.7241 43.7935 83.717 46.6522 80.799C47.3178 80.1196 47.8006 78.6387 48.3646 78.4561C49.3324 78.6843 49.3581 79.4236 49.5592 80.3094C48.853 80.7925 48.4677 81.1283 48.0241 81.8774C48.4688 82.3208 48.9161 82.7616 49.366 83.1999C48.9611 83.2789 48.0565 83.3024 47.8984 83.3919C47.0633 83.8638 46.2354 84.8419 45.5042 85.45C43.3975 87.2023 39.8116 87.7662 37.2072 87.1084C34.6677 87.0817 32.7574 87.1989 31.2895 84.8674C30.2616 84.3106 29.9225 84.5099 29.4172 84.2616C28.9223 84.207 28.4334 84.1073 27.9567 83.9639C27.1209 83.7045 24.6447 82.6068 24.2412 81.8457C24.2822 81.4291 24.2708 81.2558 24.5222 80.9078C26.3267 80.204 28.7084 85.7255 34.0328 80.3719C33.5388 79.58 33.4609 79.334 33.2069 78.4704Z" fill="#060200"/>
<path d="M34.9912 81.4541C36.4334 83.3623 39.4715 84.5742 41.8114 84.6544C41.4452 85.4769 40.5012 86.0753 39.7593 86.6397L38.9158 87.0311C38.2424 87.1175 37.8816 87.1161 37.207 87.1081C34.6675 87.0814 32.7572 87.1986 31.2893 84.8671C30.2614 84.3103 29.9223 84.5096 29.417 84.2613C31.7649 84.1579 33.6778 83.5884 34.9912 81.4541Z" fill="#C46317"/>
<path d="M38.9154 87.0304C37.5976 86.8744 37.633 87.2252 36.1531 86.6245L36.085 86.4583C36.8479 86.0596 39.0745 86.1949 39.7589 86.639L38.9154 87.0304Z" fill="#9C4603"/>
<path d="M41.8109 84.6535C43.4823 84.3035 45.0525 83.7663 46.6292 83.1217C47.7288 82.6721 48.155 83.1181 49.3653 83.1986C48.9604 83.2777 48.0558 83.3012 47.8977 83.3907C47.0626 83.8626 46.2347 84.8407 45.5035 85.4488C43.3968 87.2011 39.811 87.7649 37.2065 87.1072C37.8811 87.1152 38.2419 87.1166 38.9153 87.0302L39.7588 86.6388C40.5008 86.0744 41.4447 85.476 41.8109 84.6535Z" fill="#DF751B"/>
<path d="M28.8293 68.5479C29.2386 68.5643 29.867 68.5268 30.1583 68.7621C30.4371 68.8138 30.6439 68.8695 30.9297 68.8457C31.4134 68.4371 35.6615 68.6666 36.5241 68.7799C43.0922 69.6439 37.4069 73.9341 34.2439 74.6398C33.6938 74.6766 33.8878 74.5897 33.5048 74.9476C33.1661 75.7091 33.2434 77.5428 33.2069 78.4706C32.6888 77.1691 32.6807 76.0384 32.673 74.668C31.1515 73.8786 26.9821 71.9339 27.7182 69.7544C27.9505 69.2599 28.1617 69.0269 28.5048 68.5999L28.8293 68.5479Z" fill="#2E1601"/>
<path d="M30.1587 68.7617C30.4376 68.8135 30.6443 68.8692 30.9301 68.8454C31.2066 69.1307 31.2032 69.3612 31.114 69.7267C30.8128 70.0209 30.9561 69.9302 30.4619 70.0158C29.9671 69.8428 30.1227 69.969 29.8524 69.5609C29.8522 69.0454 29.8209 69.2242 30.1587 68.7617Z" fill="#BA6213"/>
<path d="M27.1685 66.924C28.6378 66.0691 29.3331 66.2461 30.9734 66.5355C30.4848 68.2654 29.3268 67.3943 27.874 67.7525C27.5115 67.5115 27.4028 67.2894 27.1685 66.924Z" fill="#FDB940"/>
<path d="M30.9738 66.5371C31.7891 66.7779 31.3909 67.7118 31.2289 68.4064C30.6053 68.4177 29.378 68.401 28.8294 68.5479L28.5048 68.5999L27.8745 67.7541C29.3273 67.396 30.4852 68.267 30.9738 66.5371Z" fill="#F49A3F"/>
<path d="M55.3347 57.5763C58.6484 57.4987 61.2167 59.6154 61.9729 62.8147C62.3846 64.4841 62.1116 66.2488 61.2148 67.7159C60.1674 69.4094 58.8891 70.0513 57.0513 70.4725C48.6255 71.1625 47.4938 58.3031 55.3347 57.5763Z" fill="#2E1601"/>
<path d="M54.673 59.0859C57.2258 59.1873 58.8783 63.1258 54.8452 64.4207C53.8744 64.331 52.8253 63.8465 52.3917 62.9229C52.1348 62.3623 52.1098 61.7229 52.3222 61.1441C52.7465 60.0212 53.6605 59.5538 54.673 59.0859Z" fill="#FCF7F0"/>
<path d="M21.5967 69.9407C16.9091 71.932 12.8354 65.1777 15.1525 61.1385C15.8564 59.5167 17.7745 57.3898 19.8 57.6578C23.9869 58.2117 25.7182 60.8735 25.5776 64.8504C25.2843 66.2864 24.9813 67.1834 23.8765 68.2658C23.498 68.5333 21.8126 69.6891 21.5967 69.9407Z" fill="#2E1601"/>
<path d="M20.24 59.0859C20.3234 59.1031 20.4429 59.1278 20.518 59.1619C23.1909 60.3719 23.2161 63.0182 20.5073 64.1831C20.2841 64.1608 20.0632 64.1201 19.8467 64.0615C18.572 63.7079 17.6233 62.399 18.0945 61.0747C18.4678 60.0256 19.2856 59.5392 20.24 59.0859Z" fill="#FCF7F0"/>
<path d="M21.7411 64.9414C22.3467 64.9991 22.9267 65.2327 23.3611 65.6647C23.4969 66.0912 23.509 65.9141 23.3092 66.3263C22.637 66.4006 22.11 66.5571 21.6026 66.1775C21.4347 65.75 21.6049 65.388 21.7411 64.9414Z" fill="#FCF7F0"/>
<path d="M68.9951 63.9949C70.4055 63.9095 71.5216 63.9208 72.779 64.6047C74.6312 65.6546 75.7052 67.5031 74.5097 69.4951C73.1326 71.7895 71.3161 72.4872 68.8915 73.1593C68.6997 73.2138 68.5062 73.2615 68.3112 73.3025C60.4811 74.9331 60.2916 65.3939 68.9951 63.9949Z" fill="#FFC271"/>
<path d="M7.5463 64.6416C13.7283 64.3264 18.2292 71.7457 11.9009 73.5215C7.23672 74.1624 4.52263 72.147 4.26953 67.3101C4.965 66.0292 6.08168 64.9275 7.5463 64.6416Z" fill="#FFC271"/>
<path d="M73.955 26.7835C73.8878 26.5796 73.8069 26.3341 73.7122 26.0473C73.1171 25.5461 71.9121 25.8761 71.1488 25.3074C70.0642 23.3777 75.8855 16.766 79.3131 20.8197C79.8751 21.4743 80.3072 23.1295 80.1748 23.9598C79.6415 27.3049 77.102 28.6587 74.0806 28.145C74.0404 27.6955 74.0051 27.2303 73.955 26.7835Z" fill="#2E1601"/>
<path d="M79.3131 20.8203C79.8751 21.4749 80.3073 23.1301 80.1749 23.9605C79.6415 27.3055 77.1021 28.6593 74.0807 28.1456C74.0405 27.6962 74.0051 27.2309 73.9551 26.7841C74.3584 27.0396 74.5009 27.0331 74.9714 27.0896C76.6639 26.4865 75.9237 22.7859 75.4831 21.4522C76.7563 21.3578 78.1263 21.3076 79.3131 20.8203Z" fill="#9C4603"/>
<path d="M50.1656 88.8467L50.3316 88.8953C50.5949 90.2358 47.1856 90.6972 46.2017 91.0954C42.5373 92.5787 40.2687 92.0892 36.8009 90.6286L34.7734 89.6558C36.9407 89.1701 38.6432 89.3055 40.8502 89.3032C43.9812 89.3002 47.0643 89.3692 50.1656 88.8467Z" fill="#DF751B"/>
<path d="M76.9841 76.3789C77.3267 76.4178 77.3911 76.4741 77.7047 76.6366C78.8343 78.5377 71.6843 82.2049 70.4061 83.5399L70.3659 83.5825L70.092 83.7553C69.7685 83.5604 69.8777 83.6657 69.7207 83.1967C69.8706 82.434 70.6033 82.153 71.2828 81.6775C73.5588 80.084 75.1084 78.2169 76.9841 76.3789Z" fill="#DF751B"/>
<path d="M26.9203 16.7949C27.171 16.8854 27.0701 16.8075 27.2128 17.0593C26.7531 18.1492 23.4847 20.4786 22.4584 21.2345L22.1565 21.0679C21.8321 19.6289 25.6808 17.2171 26.9203 16.7949Z" fill="#FDB940"/>
<path d="M68.125 89.6875C68.4923 90.0869 67.8214 92.3843 67.8044 93.0854C67.7879 93.7703 67.8186 94.516 67.8072 95.2039L67.6951 95.2051L67.3372 94.7519C66.8602 94.0807 66.4819 93.5582 66.0811 92.8361C66.6314 91.7286 67.382 90.6726 68.125 89.6875Z" fill="#FDB940"/>
<path d="M29.0222 17.4248C29.4612 17.5915 29.4099 17.49 29.5572 17.8037C29.2068 18.9506 26.6646 20.8618 25.588 21.4512C25.3469 21.4083 25.3229 21.3675 25.1426 21.2103C25.2361 20.2911 28.1887 18.1091 29.0222 17.4248Z" fill="#FDB940"/>
<path d="M70.2279 90.1592C71.0392 90.662 70.4364 93.1593 70.1641 93.9785C70.0339 94.3703 69.6422 94.4007 69.2779 94.5247C69.1743 94.4017 69.0061 94.2507 69.0073 94.1168C69.0152 93.1679 69.7365 90.8372 70.2279 90.1592Z" fill="#FDB940"/>
<path d="M67.771 83.9277C67.9441 83.9292 68.0997 83.964 68.2713 83.9922L68.3575 84.2422C68.0647 84.9143 66.464 85.8883 65.7986 86.334L65.4377 86.3225C65.3204 86.2466 65.2021 86.2071 65.1519 86.0832C64.5955 84.7084 66.8088 84.2565 67.771 83.9277Z" fill="#DF751B"/>
<path d="M30.7641 18.7227C31.227 18.8373 31.0759 18.7431 31.3859 19.048C31.3675 19.8332 29.7182 20.9848 29.0842 21.4236C28.871 21.4203 28.8161 21.392 28.6114 21.3409L28.5674 21.0941C28.9026 20.2663 30.0805 19.3295 30.7641 18.7227Z" fill="#FDB940"/>
<path d="M48.1524 96.2905C48.8815 96.2092 49.6339 96.1978 50.1245 96.7741C50.1412 97.3653 50.0926 97.2547 49.7822 97.8453C49.5784 97.9604 49.4985 97.9312 49.2662 97.9117C48.6212 97.554 48.0346 97.0871 48.1524 96.2905Z" fill="#FDB940"/>
<path d="M6.047 32.1208C4.00605 30.2175 2.38841 28.4552 1.88707 25.5697C1.42185 22.8304 2.05743 20.0183 3.65536 17.7454C5.7411 14.8113 9.80041 13.1996 13.286 14.3174C14.9257 14.8433 16.0733 15.6615 17.4528 16.6583L15.4834 18.5312C15.4627 19.0682 15.4001 18.8839 15.663 19.2737C15.9334 19.3635 16.1161 19.4274 16.3949 19.4832C15.9594 19.9303 15.3858 20.5539 14.9427 20.9692C14.2073 21.9421 13.2051 23.0386 12.4107 24.0159C11.8846 24.6631 10.7385 26.3345 10.297 26.7886C10.0138 26.4166 10.123 26.4563 9.73028 26.2906C9.20989 26.5513 9.09194 27.0631 8.85303 27.1982C7.90276 28.7286 6.93725 30.5343 6.047 32.1208Z" fill="#E7882F"/>
<path d="M8.85361 27.1989L8.74354 26.9515C8.28475 26.5651 7.59441 26.8418 7.09189 26.7609C4.77485 26.3879 5.45351 21.2975 7.08992 20.3097C9.07466 19.1117 10.6996 20.2151 12.5198 20.9852C12.7277 21.0732 13.1566 20.6374 13.3139 20.51C13.7387 20.9608 14.125 21.3274 14.7495 20.9553L14.9432 20.97C14.2078 21.9428 13.2057 23.0393 12.4113 24.0166C11.8852 24.6639 10.739 26.3352 10.2976 26.7893C10.0144 26.4173 10.1236 26.457 9.73085 26.2914C9.21047 26.5521 9.09252 27.0638 8.85361 27.1989Z" fill="#6D3401"/>
<path d="M13.314 20.5103L15.484 18.5322C15.4633 19.0692 15.4008 18.8849 15.6636 19.2747C15.934 19.3646 16.1167 19.4284 16.3956 19.4842C15.96 19.9313 15.3864 20.5549 14.9433 20.9702L14.7496 20.9555C14.125 21.3276 13.7387 20.961 13.314 20.5103Z" fill="#2E1601"/>
<path d="M52.2975 120.105C53.3595 120.133 55.8449 120.403 54.9572 121.957C54.2717 123.156 49.6374 124.173 48.3281 124.514C46.4985 125.016 46.0418 123.787 45.498 122.344C47.2521 120.52 49.8713 120.288 52.2975 120.105Z" fill="#FFC300"/>
</svg>
