<svg width="212" height="256" viewBox="0 0 212 256" fill="none" xmlns="http://www.w3.org/2000/svg">
<path d="M62.2444 12.0092C62.1798 8.72988 62.389 6.27029 63.9585 3.32699C65.1247 0.909036 68.3535 -1.08602 70.8624 0.664249C73.6769 2.62743 74.3984 8.00756 75.1057 11.1174C80.3024 2.46755 91.8466 3.04105 86.4266 13.4923C97.3866 13.5365 104.141 14.8392 114.301 19.0495C118.851 5.43753 135.671 0.788349 144.358 12.9241C147.081 16.7108 148.167 21.4323 147.377 26.0283C146.445 31.648 143.361 35.5944 138.848 38.8334C145.056 46.251 148.413 53.7625 152.754 62.1931C154.986 66.1709 157.417 70.0062 159.239 74.202C161.022 78.307 162.32 82.6686 162.757 87.14C163.315 92.8549 162.63 99.0045 160.573 104.371C173.017 109.067 184.782 118.868 192.439 129.663C194.389 132.412 196.969 137.259 199.035 139.373C200.788 141.171 205.166 141.044 208.351 143.114C210.174 144.277 211.433 146.144 211.83 148.27C212.186 150.225 211.554 151.922 210.482 153.511C212.954 157.766 212.238 162.349 207.517 164.475C207.746 172.146 200.498 172.99 194.957 170.394C194.005 169.95 193.174 169.462 192.272 168.925C191.87 170.498 191.439 171.983 190.204 173.068C187.241 175.673 183.253 175.342 181.203 171.859C179.78 169.441 179.848 166.985 178.697 164.553C177.971 163.023 176.524 161.458 175.429 160.183C177.853 173.561 177.305 185.942 172.628 198.779C171.521 201.821 169.261 206.144 168.393 208.965C167.918 210.51 167.967 216.228 167.846 218.102C167.502 222.791 167.028 227.471 166.428 232.136L166.57 232.585C168.464 233.19 170.696 233.347 172.667 233.715C177.08 234.54 190.382 237.09 192.377 241.306C192.686 241.958 192.678 242.657 192.411 243.323C191.592 245.362 188.633 246.574 186.717 247.316C157.442 258.648 54.1805 259.425 25.2897 246.467C23.9396 245.86 22.193 244.697 21.6236 243.275C21.3772 242.661 21.393 242.023 21.6641 241.418C22.7762 238.939 27.136 237.448 29.5268 236.641C33.0377 235.457 43.0686 232.911 46.266 233.011C47.8141 229.171 48.9112 227.799 52.4174 225.421C49.1446 215.484 53.1876 205.565 58.9267 197.494C53.2323 189.83 50.6154 181.617 48.9177 172.37C44.7714 176.446 40.4923 180.135 35.0825 182.497C28.8065 185.234 21.3313 185.686 14.9168 183.103C9.24126 180.815 4.71619 176.352 2.34898 170.708C-3.09311 157.785 3.63749 141.659 16.5205 136.239C2.10663 123.256 2.97974 104.814 4.80369 87.1805C5.9559 76.0411 7.75351 67.4945 11.8986 57.0755C8.29676 55.9266 5.18511 53.6008 3.06318 50.4716C0.308547 46.4922 -0.561469 41.6323 0.345302 36.9024C1.2241 32.3048 3.9044 28.2493 7.78945 25.6386C15.792 20.3375 25.3729 23.7052 30.3829 31.3753C36.4452 25.8165 44.4266 21.3512 52.1481 18.5949C49.2226 15.7609 46.3577 9.4361 52.6912 8.23445C55.6834 7.6668 59.8985 10.1814 62.2444 12.0092Z" fill="#5B3004"/>
<path d="M46.266 233.011C45.4045 237.096 46.4236 241.485 50.7103 243.17C57.0254 245.653 64.9497 245.835 71.6725 245.361C76.3747 245.027 82.0089 244.033 85.9138 241.35C89.8903 238.643 89.9215 233.339 90.5851 229.004C98.6244 228.695 106.693 228.861 114.733 228.826C117.36 228.814 122.012 229.242 124.346 229.031C125.963 233.993 128.083 240.623 133.236 242.872C140.435 246.014 151.133 246.13 158.614 244.048C164.471 242.418 165.672 237.4 166.428 232.135L166.57 232.584C168.464 233.189 170.696 233.347 172.667 233.715C177.08 234.539 190.382 237.09 192.377 241.306C192.686 241.958 192.678 242.657 192.411 243.323C191.592 245.362 188.633 246.574 186.717 247.316C157.442 258.647 54.1806 259.425 25.2898 246.467C23.9396 245.86 22.1931 244.697 21.6236 243.275C21.3772 242.661 21.393 242.023 21.6641 241.418C22.7762 238.939 27.136 237.448 29.5268 236.641C33.0377 235.457 43.0687 232.911 46.266 233.011Z" fill="#FED39B"/>
<path d="M95.2307 218C104.24 219.727 112.389 220.24 121.541 218.803C121.868 221.121 123.542 226.586 124.347 229.031C122.013 229.242 117.361 228.815 114.734 228.826C106.694 228.862 98.6252 228.696 90.5859 229.005C91.6552 224.535 92.7129 221.876 95.2307 218Z" fill="#F4F4F3"/>
<path d="M54.3288 20.3215C55.0978 20.6194 56.7485 21.268 57.4836 20.8523C57.4178 20.0779 56.246 19.4779 55.6625 18.9821C54.2109 18.0901 50.2634 13.3767 51.2427 11.6056C53.0574 8.32353 59.7039 12.5451 61.473 14.1981C62.5072 15.1644 64.1379 16.7054 64.8436 16.4292C65.0329 15.8462 64.4372 13.5016 64.3779 12.507C63.9934 9.66962 65.0608 2.62298 68.6823 2.31411C72.1435 2.0189 72.3418 13.6591 74.868 14.7352C76.0006 13.8543 77.8688 10.1096 79.9598 8.86385C80.9855 8.08508 83.0799 6.90457 84.4291 7.319C88.197 8.47593 82.1287 15.4207 82.8037 16.793C83.6711 16.9716 84.351 16.2602 84.9931 15.7509C93.8229 15.6766 101.248 16.6367 109.621 19.6581C110.709 20.0507 113.154 20.7596 113.569 21.6388L113.552 21.7885C113.517 22.13 113.429 22.8693 113.708 23.0718C114.385 23.5627 116.064 24.269 116.698 23.507C116.595 22.9381 116.197 22.6995 115.748 22.2943C117.451 15.9417 120.323 11.4555 126.66 9.00763C130.57 7.88096 134.088 8.03434 137.712 10.0304C148.623 16.3753 147.201 30.655 137.221 37.2986C136.896 36.9865 136.481 36.5655 136.148 36.2841C135.425 36.7936 135.344 36.9302 135.131 37.869C139.806 43.3953 142.954 48.1554 146.344 54.6253C147.735 57.2778 149.212 60.5409 150.628 63.0846C153.647 68.5023 155.895 71.9558 158.109 77.7801C162.677 90.7148 160.732 101.936 153.758 113.526C153.341 114.22 151.393 117.134 151.315 117.67L151.411 117.903C149.968 119.007 149.01 120.247 148.216 121.896C150.183 120.599 150.921 119.541 152.469 117.77C154.369 116.618 158.723 109.021 159.737 106.586C161.1 107.06 162.472 107.734 163.788 108.343C174.556 113.601 183.82 121.489 190.728 131.279C192.808 134.226 194.939 138.374 197.331 140.815C200.619 144.171 210.257 142.946 209.714 150.081C209.569 150.644 209.488 151.244 209.101 151.651C208.624 151.766 208.649 151.789 208.063 151.43C207.933 151.348 207.805 151.264 207.678 151.179C206.49 150.652 204.887 150.046 203.579 150.109L203.289 150.259C203.769 152.271 211.225 153.32 209.389 159.829C208.67 161.291 208.156 161.735 206.698 162.498C206.269 161.969 205.828 161.408 205.391 160.889C204.532 160.157 200.698 157.651 199.866 158.658C200.412 160.689 204.418 160.754 205.423 165.559C205.212 166.366 205.113 166.87 204.739 167.625C204.068 168.532 203.094 169.168 201.993 169.419C198.73 170.182 195.043 168.005 192.369 166.415C191.953 165.099 191.767 164.63 190.977 163.537L190.425 163.37C190.167 163.547 189.978 163.63 189.985 164.071C190.029 166.836 190.627 168.002 189.344 170.652C187.882 172.877 185.064 173.298 183.334 171.141C181.717 169.128 181.746 165.256 180.447 163.152C178.136 159.412 174.426 155.979 171.306 152.853L169.115 150.743C168.736 151.496 168.526 152.147 167.768 152.531C168.066 152.83 168.85 153.663 169.133 153.894C170.12 154.871 171.363 156.051 172.28 157.067C172.804 159.411 173.456 162.129 173.816 164.477C175.291 174.376 174.575 184.478 171.716 194.068C170.382 198.523 168.723 202.661 166.625 206.797C166.15 207.732 164.883 210.188 165.607 211.111C165.737 211.27 165.885 211.456 165.875 211.68C165.571 218.824 165.034 225.977 164.063 233.064C163.725 235.528 162.785 239.181 160.547 240.584C159.241 241.404 156.897 242.585 155.337 242.476L155.049 242.3C155.067 241.868 155.091 241.881 155.28 241.482C154.529 241.103 153.647 241.219 153.294 240.482C152.904 241.526 152.702 241.936 152.165 242.91C149.796 243.28 146.011 243.473 143.701 242.77C143.761 241.754 143.8 240.734 143.82 239.716C143.764 238.525 143.556 237.346 143.202 236.209C143.011 235.611 142.722 234.714 142.146 234.415L141.865 234.575C141.295 235.788 141.595 237.881 141.694 239.272C141.752 242.499 141.809 243.133 138.495 242.279C135.717 241.564 133.116 240.788 131.18 238.452C127.269 233.356 125.333 224.238 123.601 218.162C124.406 217.744 125.512 217.223 125.995 216.46L125.984 216.167C125.273 215.756 118.728 216.976 117.157 217.111C110.86 217.594 104.53 217.337 98.2925 216.348C96.2854 216.013 91.6886 214.86 89.9089 214.767L89.6044 214.902L89.6191 215.151C90.4517 215.888 91.9765 216.699 92.982 217.285C91.2086 220.208 89.1539 224.385 88.5478 227.685C87.0372 235.907 88.3138 239.635 78.5034 242.053C75.26 242.852 69.4128 243.553 65.9483 243.255C65.6404 242.769 65.1922 242.108 64.923 241.621C63.6102 238.756 65.3262 235.48 64.8444 234.765L64.382 234.742C62.6817 235.594 62.3382 239.4 62.488 241.089C62.7121 241.902 62.9001 242.393 63.2054 243.171C60.4843 243.232 58.6415 242.949 55.9878 242.404C55.163 241.316 54.8117 240.736 54.4633 239.421C53.634 236.772 54.5755 235.994 54.9893 233.639L54.7766 233.392C53.2086 233.403 52.3596 237.018 52.2643 238.259C52.2762 239.742 52.4567 240.282 52.9777 241.612C48.2914 239.955 47.4168 236.954 48.9952 232.444C50.1287 229.939 51.7355 228.199 54.1842 226.922C55.0025 226.496 56.5351 226.024 56.4093 224.908C55.9317 224.563 55.1881 224.591 54.5703 224.542C53.8708 223.614 53.8091 220.606 53.7797 219.42C53.6478 218.677 53.6902 216.93 53.7438 216.163C54.1946 209.699 56.8953 204.514 60.4983 199.33C62.5099 201.095 65.152 203.339 67.5891 204.366C67.1645 203.71 66.6463 203.099 66.1042 202.552C58.0068 194.398 53.2049 183.847 51.2178 172.615C50.9797 171.268 50.8255 168.472 50.2988 167.327L50.0662 167.47C49.6713 167.719 49.3457 168.012 48.9926 168.316C48.9362 168.266 48.8797 168.213 48.8234 168.163L48.7559 168.189C48.7138 169.724 47.8646 170.17 46.8355 171.222C40.694 177.498 32.7618 182.693 23.6734 182.551C22.9016 182.54 21.7696 182.486 21.0588 182.177C20.055 182.047 18.9631 182.12 18.0049 181.834C17.1357 181.575 16.2633 180.985 15.4224 180.619C13.1565 178.883 12.9403 176.875 13.7155 174.323C14.2256 173.765 15.2221 173.635 15.9868 173.449C18.7329 172.716 22.226 173.496 25.0803 173.88C25.8033 173.835 26.6675 173.675 27.2553 174.054C27.279 174.028 29.4673 173.041 29.885 172.803C32.7164 171.185 33.9239 168.454 33.2859 165.227C34.0814 164.588 34.4423 164.186 35.1337 163.441C35.7811 163.547 36.5281 163.541 37.1914 163.558C37.1703 164.437 36.9064 166.063 37.8335 166.416C38.8228 165.762 38.7348 164.024 38.6855 162.975C43.522 160.066 45.467 154.757 43.7348 149.393C45.925 149.665 53.7638 150.437 55.4875 149.715L55.5487 149.501C54.5347 149.157 52.379 148.925 51.2139 148.739C48.7515 148.346 46.4058 147.856 43.9762 147.323C41.3217 146.739 41.2845 145.732 38.706 145.093C38.1546 142.861 37.2768 141.638 35.8229 139.873C35.3406 139.825 34.4439 138.849 34.0246 138.457C31.0969 136.567 29.4219 135.939 26.0357 135.283C25.1643 135.275 24.7563 135.264 23.9008 135.127C22.1426 135.043 21.0291 135.173 19.2973 135.462C10.2633 127.888 6.76079 118.81 6.35384 107.134C6.32505 106.311 6.29349 105.706 6.43288 104.873C6.34343 103.078 5.87484 100.971 5.83743 98.9841C5.76554 95.1781 6.42134 91.4157 7.24971 87.7257C7.00313 86.6035 7.57452 83.0021 7.73213 81.7806C8.91443 72.6136 11.0892 64.8282 14.7207 56.352C17.044 50.0654 21.8316 43.7875 26.1154 38.7229C26.5922 38.3023 27.5246 37.2145 27.9918 36.6955C36.194 28.989 43.4022 23.7863 54.3288 20.3215Z" fill="#FF9B34"/>
<path d="M13.0501 76.4056C19.5176 68.3047 27.539 63.3107 38.0004 62.1756C47.4669 61.1673 56.9444 63.981 64.3274 69.9914C71.7123 76.0483 76.4192 84.7665 77.4322 94.2637C77.4812 94.7718 77.5231 95.2808 77.5579 95.79C77.5679 98.3472 77.609 100.747 77.1063 103.276C76.9839 104.016 76.7245 105.374 76.6884 106.064C76.5235 106.617 76.3359 107.324 76.1489 107.854C75.28 110.71 73.7851 114.342 72.185 116.792C66.536 125.3 58.7145 131.182 48.5785 133.241C44.9908 133.954 41.3186 134.144 37.6766 133.804C37.1216 135.5 36.4393 138.436 35.8229 139.874C35.3406 139.825 34.4439 138.849 34.0246 138.457C31.0969 136.567 29.4219 135.94 26.0357 135.284C25.1643 135.276 24.7563 135.265 23.9008 135.128C22.1426 135.043 21.0291 135.174 19.2973 135.463C10.2633 127.889 6.76079 118.811 6.35384 107.135C6.32505 106.312 6.29349 105.706 6.43288 104.873C6.34343 103.079 5.87484 100.971 5.83743 98.9848C5.76554 95.1788 6.42134 91.4164 7.24971 87.7264C9.02487 82.835 10.0442 80.6822 13.0501 76.4056Z" fill="#322113"/>
<path d="M9.13373 106.986C9.16236 106.927 9.19082 106.869 9.21945 106.81C6.53866 92.2808 11.554 77.9873 24.3476 69.85C39.6969 60.0872 59.7277 65.1756 69.3224 80.3293C77.7253 93.6007 75.8311 110.092 64.9006 121.22C64.372 121.758 62.9407 123.024 63.2638 123.729C56.4892 130.112 45.4262 132.809 36.3595 131.471C36.0617 131.329 33.4173 130.789 32.9118 130.664C31.2136 130.243 30.0545 129.866 28.4389 129.169C26.2103 128.08 24.5908 127.206 22.5123 125.846C16.7485 122.075 10.44 113.862 9.13373 106.986Z" fill="#554D4B"/>
<path d="M16.6766 82.8859C23.0292 72.4487 35.2199 67.0845 47.2069 69.4522C59.1938 71.8197 68.4297 81.4159 70.3371 93.4846C71.3288 99.7595 70.2421 106.186 67.2429 111.786C62.0194 121.539 51.722 127.492 40.6636 127.151C29.6053 126.809 19.6944 120.234 15.0821 110.177C11.0473 101.38 11.6447 91.1534 16.6766 82.8859Z" fill="#FBA74D"/>
<path d="M16.6758 82.8859C23.0284 72.4487 35.2191 67.0845 47.2061 69.4522C59.193 71.8197 68.4289 81.4159 70.3363 93.4846C69.4282 93.7008 69.2357 93.8711 69.0841 94.7904C67.8491 84.495 60.9204 75.7732 51.1712 72.2416C41.4219 68.71 30.5147 70.971 22.9726 78.0871L22.6888 77.9776L22.5221 78.1024C21.8776 78.5778 21.996 78.4682 21.4076 78.7801C19.7108 79.6796 18.1884 81.6117 16.6758 82.8859Z" fill="#4A3B32"/>
<path d="M15.082 110.178C16.4966 110.737 16.7363 112.283 18.3531 112.326C23.4466 120.705 32.6217 125.732 42.4252 125.516C52.2288 125.299 61.173 119.872 65.8917 111.276L67.2428 111.787C62.0193 121.54 51.7219 127.492 40.6636 127.151C29.6052 126.81 19.6943 120.234 15.082 110.178Z" fill="#4A3B32"/>
<path d="M16.6766 82.8848C18.1892 81.6106 19.7116 79.6785 21.4084 78.7791C21.9968 78.4671 21.8784 78.5767 22.5229 78.1013L22.6896 77.9766L22.9734 78.086C13.548 86.9791 11.6221 101.251 18.3532 112.324C16.7364 112.281 16.4967 110.735 15.0821 110.176C11.0473 101.379 11.6447 91.1523 16.6766 82.8848Z" fill="#322113"/>
<path d="M69.0838 94.7901C69.2354 93.8708 69.4279 93.7005 70.336 93.4844C71.3277 99.7592 70.241 106.186 67.2418 111.786L65.8906 111.275C68.6501 106.248 69.7666 100.484 69.0838 94.7901Z" fill="#322113"/>
<path d="M44.4045 88.6419C55.2885 88.3443 59.338 108.717 48.062 111.411C37.6705 112.215 33.7088 94.6837 41.9106 89.5612C42.6625 89.0916 43.5495 88.8616 44.4045 88.6419Z" fill="#5B3004"/>
<path d="M43.5388 92.5388C45.076 92.3877 46.2493 92.8086 47.0258 94.2365C47.5406 95.1937 47.645 96.3189 47.3152 97.3545C46.9426 98.5155 46.3747 98.9613 45.3559 99.5029C41.2596 99.9797 39.6811 94.6334 43.5388 92.5388Z" fill="#F4F4F3"/>
<path d="M41.138 75.0217C43.7347 74.7574 45.7269 75.0534 48.1189 76.0286C42.6629 77.5216 37.5519 81.098 33.9943 85.455C28.7849 91.7915 26.5334 100.053 27.8074 108.157C28.14 110.403 29.0959 112.883 29.2552 115.012C28.8137 114.8 28.1114 114.474 27.7448 114.153C12.9268 101.161 22.8495 77.5 41.138 75.0217Z" fill="#FED39B"/>
<path d="M6.43204 104.873C8.9318 116.635 15.2023 124.604 25.7488 130.236C24.9349 131.954 24.5571 133.415 23.9 135.128C22.1417 135.043 21.0282 135.173 19.2965 135.463C10.2624 127.888 6.75994 118.81 6.353 107.134C6.32421 106.312 6.29265 105.706 6.43204 104.873Z" fill="#EF8221"/>
<path d="M9.13455 106.986C6.6112 98.4556 8.03032 89.3296 12.246 81.5795C16.5247 73.7845 23.7145 67.9997 32.2446 65.4887C40.8314 62.9737 50.0679 64.0052 57.8881 68.3527C65.6711 72.6941 71.4354 79.9211 73.9374 88.4746C77.6092 101.261 73.5298 115.18 63.2647 123.729C62.9415 123.024 64.3728 121.758 64.9014 121.22C75.832 110.092 77.7262 93.6006 69.3232 80.3292C59.7285 65.1755 39.6977 60.0872 24.3485 69.8499C11.5548 77.9872 6.53948 92.2807 9.22027 106.81C9.19164 106.869 9.16318 106.927 9.13455 106.986Z" fill="#797271"/>
<path d="M28.4403 129.17C30.0559 129.867 31.2149 130.243 32.9131 130.665C33.4186 130.79 36.063 131.329 36.3608 131.472L36.0261 131.563C35.5479 132.45 34.3844 137.164 34.024 138.459C31.0963 136.569 29.4214 135.941 26.0352 135.285C26.6082 133.808 27.7466 130.169 28.4403 129.17Z" fill="#4A3B32"/>
<path d="M77.5566 95.7906C82.7555 94.682 90.3244 96.3095 94.6787 99.3047C99.6183 102.702 103.48 107.588 104.698 113.512C105.786 118.843 104.693 124.388 101.664 128.907C94.2086 140.125 77.5857 142.552 66.6942 135.051C65.5826 134.289 64.5407 133.431 63.5802 132.486C59.8061 135.911 55.8778 138.03 50.9225 139.322C50.3718 139.465 44.6512 140.262 44.6257 140.356C44.3266 141.872 44.9105 143.359 45.9428 144.431C47.2055 145.74 48.6649 146.236 50.2589 146.9C53.2147 148.131 56.215 148.69 59.2995 149.422C59.7095 149.52 59.8024 149.718 59.9284 150.07C59.4893 151.753 55.7768 153.521 54.2435 154.02C53.9227 157.106 53.4768 160.534 53.6981 163.626C54.9592 180.615 66.2456 195.958 80.7778 204.289C94.7616 212.306 111.038 214.802 126.935 213.209C127.819 213.121 132.02 212.675 132.404 213.597C133.454 216.112 133.567 219.147 134.573 221.744C135.553 224.251 136.574 225.519 138.127 227.509C136.428 229.417 134.595 229.395 134.713 232.772C134.832 236.15 138.075 239.446 141.453 239.46L141.693 239.273C141.751 242.5 141.808 243.134 138.493 242.281C135.715 241.565 133.114 240.789 131.179 238.453C127.267 233.358 125.332 224.239 123.599 218.163C124.405 217.745 125.511 217.224 125.994 216.462L125.982 216.169C125.271 215.757 118.726 216.977 117.155 217.112C110.859 217.595 104.529 217.338 98.2911 216.349C96.284 216.014 91.6872 214.861 89.9075 214.768L89.603 214.903L89.6177 215.152C90.4503 215.889 91.9751 216.701 92.9806 217.286C91.2072 220.209 89.1525 224.386 88.5465 227.686C87.0358 235.908 88.3124 239.636 78.502 242.054C75.2586 242.853 69.4114 243.554 65.9469 243.256C65.6391 242.77 65.1908 242.11 64.9216 241.622C63.6089 238.758 65.3248 235.482 64.843 234.766L64.3806 234.743C62.6803 235.596 62.3368 239.402 62.4866 241.09C62.7107 241.903 62.8987 242.394 63.204 243.172C60.4829 243.234 58.6401 242.951 55.9864 242.406C55.1617 241.318 54.8103 240.737 54.4619 239.423C53.6326 236.773 54.5742 235.996 54.9879 233.641L54.7752 233.393C53.2072 233.405 52.3582 237.019 52.2629 238.26C52.2748 239.743 52.4553 240.283 52.9763 241.614C48.29 239.956 47.4155 236.955 48.9938 232.445C50.1273 229.94 51.7341 228.2 54.1828 226.923C55.0011 226.497 56.5338 226.025 56.4079 224.91C55.9303 224.565 55.1867 224.592 54.569 224.544C53.8694 223.615 53.8078 220.607 53.7783 219.422C53.6464 218.678 53.6889 216.932 53.7424 216.164C54.1932 209.7 56.8939 204.515 60.4969 199.331C62.5085 201.096 65.1506 203.341 67.5878 204.367C67.1631 203.711 66.6449 203.1 66.1028 202.553C58.0054 194.4 53.2035 183.849 51.2164 172.616C50.9783 171.269 50.8241 168.473 50.2975 167.328L50.0649 167.471C49.67 167.72 49.3443 168.013 48.9912 168.317C48.9348 168.267 48.8783 168.215 48.8221 168.164L48.7546 168.19C48.7124 169.726 47.8632 170.171 46.8341 171.224C40.6927 177.499 32.7604 182.694 23.672 182.552C22.9003 182.541 21.7682 182.487 21.0574 182.178C20.0536 182.048 18.9617 182.121 18.0035 181.835C17.1343 181.576 16.2619 180.986 15.421 180.62C13.1551 178.885 12.939 176.876 13.7141 174.324C14.2242 173.766 15.2208 173.636 15.9854 173.45C18.7316 172.717 22.2246 173.498 25.079 173.881C25.8019 173.836 26.6661 173.677 27.2539 174.056C27.2777 174.029 29.4659 173.042 29.8836 172.805C32.715 171.186 33.9225 168.455 33.2845 165.229C34.08 164.589 34.4409 164.188 35.1323 163.443C35.7797 163.548 36.5267 163.542 37.19 163.56C37.1689 164.438 36.9051 166.065 37.8322 166.417C38.8214 165.764 38.7334 164.025 38.6841 162.976C43.5207 160.068 45.4656 154.759 43.7334 149.395C45.9236 149.666 53.7624 150.439 55.4861 149.717L55.5473 149.502C54.5333 149.159 52.3776 148.926 51.2125 148.741C48.7502 148.347 46.4044 147.858 43.9748 147.324C41.3203 146.74 41.2831 145.733 38.7046 145.094C38.1532 142.863 37.2754 141.639 35.8215 139.875C36.4379 138.437 37.1202 135.501 37.6752 133.805C41.3172 134.145 44.9894 133.954 48.5771 133.242C58.7131 131.183 66.5346 125.301 72.1836 116.793C73.7837 114.342 75.2786 110.71 76.1475 107.855C76.3346 107.324 76.5221 106.617 76.687 106.065C76.7231 105.375 76.9826 104.016 77.1049 103.277C77.6076 100.748 77.5665 98.3478 77.5566 95.7906Z" fill="#EF8221"/>
<path d="M53.7795 219.421C53.9061 215.342 57.5104 206.997 62.6194 207.691C64.4663 207.943 67.0558 208.065 68.8118 208.613C69.1509 213.208 68.8037 213.464 72.3914 216.525C76.3267 219.882 80.8965 222.317 81.2699 228.032C81.7798 235.833 75.3069 241.391 67.8302 241.485C67.055 241.496 65.6504 241.508 64.9228 241.622C63.6101 238.757 65.326 235.482 64.8443 234.766L64.3819 234.743C62.6815 235.595 62.338 239.401 62.4878 241.09C62.7119 241.903 62.9 242.394 63.2053 243.172C60.4841 243.233 58.6413 242.95 55.9877 242.405C55.1629 241.317 54.8116 240.737 54.4632 239.423C53.6338 236.773 54.5754 235.995 54.9892 233.64L54.7764 233.393C53.2085 233.404 52.3595 237.019 52.2641 238.26C52.276 239.743 52.4566 240.283 52.9775 241.613C48.2913 239.956 47.4167 236.955 48.995 232.445C50.1285 229.94 51.7354 228.2 54.1841 226.923C55.0023 226.497 56.535 226.025 56.4091 224.909C55.9316 224.564 55.1879 224.592 54.5702 224.543C53.8706 223.615 53.809 220.607 53.7795 219.421Z" fill="#FE9829"/>
<path d="M54.4609 239.422C56.3506 240.307 60.1906 241.808 62.3148 241.458C62.4848 241.159 62.45 241.291 62.4856 241.089C62.7097 241.902 62.8977 242.393 63.203 243.171C60.4819 243.233 58.6391 242.95 55.9855 242.405C55.1607 241.317 54.8093 240.736 54.4609 239.422Z" fill="#EF8221"/>
<path d="M48.995 232.445C49.3774 235.015 48.9679 236.562 51.4161 238.247C51.6989 238.442 51.6833 238.445 52.0377 238.484L52.2641 238.26C52.276 239.743 52.4566 240.283 52.9775 241.614C48.2913 239.956 47.4167 236.956 48.995 232.445Z" fill="#EF8221"/>
<path d="M77.1049 103.277C77.7724 103.413 84.9501 102.834 84.8831 102.781C91.8787 108.291 84.8712 114.249 79.6103 117.18C80.1095 119.479 80.6928 122.184 81.5408 124.364C87.9391 128.955 89.9067 124.744 91.4481 125.763C92.1887 127.265 89.9381 128.169 88.8163 128.481C86.0483 129.249 83.4993 128.566 81.2027 126.966C79.6344 129.641 78.1875 131.015 74.9177 131.164C74.8408 130.486 74.8052 130.144 74.8148 129.467L75.1557 129.143C77.7495 128.58 78.4027 127.345 79.4277 125.091C78.4881 123.089 77.4975 120.01 77.1631 117.804C75.1684 117.657 74.0158 117.527 72.1836 116.793C73.7837 114.343 75.2786 110.711 76.1475 107.855C76.3346 107.325 76.5221 106.618 76.687 106.065C76.7231 105.375 76.9826 104.017 77.1049 103.277Z" fill="#5B3004"/>
<path d="M76.6879 106.065C78.2141 105.127 82.6518 103.821 83.9706 105.435C84.2547 107.498 77.6471 107.858 76.1484 107.855C76.3355 107.324 76.523 106.617 76.6879 106.065Z" fill="#B4580E"/>
<path d="M15.9854 173.449C18.7316 172.716 22.2246 173.497 25.079 173.88C25.8019 173.835 26.6661 173.676 27.2539 174.054C26.6225 176.19 26.0267 179.079 24.5048 180.65C23.6374 181.288 23.3973 181.421 22.4453 181.889L21.0574 182.177C20.0536 182.047 18.9617 182.12 18.0035 181.834C17.1343 181.575 16.2619 180.985 15.421 180.619C13.1551 178.884 12.939 176.875 13.7141 174.323C14.2242 173.765 15.2208 173.635 15.9854 173.449Z" fill="#4A3B32"/>
<path d="M13.7141 174.323C14.2242 173.765 15.2208 173.635 15.9854 173.449C15.8224 174.222 15.6663 175.001 15.4778 175.767C15.213 179.267 18.369 180.297 21.324 179.952C22.0737 179.713 22.3157 179.57 23.0075 179.179L23.7155 178.117C24.2973 176.574 24.6418 175.474 25.079 173.88C25.8019 173.835 26.6661 173.675 27.2539 174.054C26.6225 176.19 26.0267 179.079 24.5048 180.65C23.6374 181.287 23.3973 181.421 22.4453 181.889L21.0574 182.177C20.0536 182.047 18.9617 182.12 18.0035 181.834C17.1343 181.575 16.2619 180.985 15.421 180.619C13.1551 178.883 12.939 176.875 13.7141 174.323Z" fill="#322113"/>
<path d="M48.7529 168.189C48.4811 167.548 48.4559 162.588 49.0213 162.109C49.7571 162.916 49.687 166.016 50.2958 167.327L50.0632 167.47C49.6683 167.719 49.3427 168.012 48.9896 168.316C48.9331 168.266 48.8767 168.214 48.8204 168.163L48.7529 168.189Z" fill="#733C05"/>
<path d="M74.9175 131.163C74.7337 131.151 74.5503 131.135 74.3674 131.115C73.3985 131.003 72.629 130.848 72.0117 130.074C72.021 128.749 74.3109 129.112 75.1554 129.142L74.8145 129.466C74.8049 130.142 74.8405 130.485 74.9175 131.163Z" fill="#733C05"/>
<path d="M166.554 151.398H166.639L167.766 152.532C168.064 152.831 168.848 153.664 169.131 153.895C170.118 154.873 171.361 156.052 172.278 157.068C172.802 159.412 173.454 162.13 173.813 164.479C175.289 174.378 174.573 184.48 171.714 194.07C170.38 198.525 168.721 202.662 166.623 206.799C166.148 207.734 164.881 210.19 165.604 211.112C165.735 211.271 165.883 211.457 165.873 211.681C165.569 218.825 165.032 225.978 164.061 233.065C163.723 235.529 162.782 239.182 160.544 240.586C159.238 241.405 156.895 242.586 155.335 242.477L155.047 242.302C155.065 241.869 155.089 241.882 155.278 241.484C155.411 241.002 155.532 240.252 155.631 239.742C159.879 238.691 162.667 235.848 162.587 231.206C162.565 229.874 161.888 228.423 161.854 227.04C161.777 224.095 161.738 221.162 161.174 218.26C160.832 216.483 159.995 214.409 160.24 212.66C160.61 210.047 162.478 207.797 163.817 205.54C164.733 204.02 165.541 202.441 166.239 200.811C171.403 188.64 171.744 176.05 168.005 163.426C166.888 159.656 165.554 156.759 164.098 153.145C164.583 153.449 165.087 153.76 165.679 153.75C165.964 152.952 166.237 152.187 166.554 151.398Z" fill="#EF8221"/>
<path d="M158.107 77.7812C162.676 90.716 160.731 101.937 153.756 113.527C153.34 114.221 151.391 117.136 151.313 117.671L151.409 117.904C149.966 119.008 149.008 120.248 148.215 121.897C150.181 120.6 150.92 119.542 152.468 117.771C154.368 116.619 158.722 109.022 159.735 106.587C161.098 107.061 162.471 107.736 163.787 108.345C161.028 116.571 151.767 124.26 144.204 128.013C143.21 128.506 139.139 130.467 138.095 130.11C138.057 129.382 139.227 128.465 139.757 127.952C151.694 116.402 160.57 99.7838 158.649 82.779C158.46 81.1164 157.966 79.4938 158.107 77.7812Z" fill="#EF8221"/>
<path d="M122.676 27.0319C123.686 23.7064 125.008 20.2416 128.225 18.585C134.591 15.3071 139.839 21.5701 137.269 27.7088C136.236 30.1752 134.891 31.5327 132.724 32.9505C132.625 33.3951 132.928 33.702 133.202 34.0793C132.998 34.4731 132.915 34.6844 132.607 35.0157C131.996 34.6414 129.694 32.574 128.873 31.9117C127.876 31.1072 125.412 29.4342 124.671 28.6916C124.034 28.4199 123.705 28.4897 123.008 28.1028C122.591 27.4902 122.721 27.8268 122.676 27.0319Z" fill="#5B3004"/>
<path d="M124.902 26.5131C126.191 23.1111 129.095 18.4382 133.461 20.0728C134.673 20.5344 135.645 21.4674 136.158 22.6588C137.856 26.5726 135.081 30.3116 131.651 32.0583C130.532 30.8928 129.299 29.5514 128.059 28.5221C127.565 28.1116 126.704 27.7562 126.2 27.4205C125.581 27.1008 125.333 27.0333 124.902 26.5131Z" fill="#B4580E"/>
<path d="M122.676 27.032C123.713 27.0478 123.73 26.9136 124.623 26.2578L124.901 26.5132C125.332 27.0333 125.579 27.1008 126.199 27.4206C125.751 27.9952 125.268 28.2726 124.671 28.6917C124.034 28.4201 123.705 28.4899 123.008 28.1029C122.591 27.4904 122.721 27.8269 122.676 27.032Z" fill="#5B3004"/>
<path d="M161.82 144.178C162.084 144.143 162.886 144.035 163.102 144.169C169.616 148.194 175.673 153.441 180.857 159.07C181.468 159.772 181.761 160.708 182.202 161.484C183.811 164.319 183.802 168.06 185.81 170.606C186.38 171.329 188.401 170.581 189.341 170.653C187.878 172.878 185.061 173.299 183.331 171.142C181.714 169.129 181.743 165.258 180.444 163.153C178.132 159.414 174.422 155.98 171.303 152.854L169.112 150.744L167.871 149.516C167.737 149.394 167.604 149.274 167.471 149.152C166.456 148.489 166.402 146.649 165.267 146.215L164.807 146.586C163.936 146.101 162.625 144.881 161.82 144.178Z" fill="#EF8221"/>
<path d="M7.24841 87.7272C7.00183 86.605 7.57322 83.0036 7.73083 81.7821C8.91313 72.6151 11.0879 64.8297 14.7194 56.3535C15.9266 57.7569 14.1875 61.4783 13.8938 63.3818C13.5327 65.7207 11.7925 74.7424 13.0488 76.4064C10.0429 80.683 9.02357 82.8358 7.24841 87.7272Z" fill="#EF8221"/>
<path d="M160.75 145.226C159.636 143.808 156.718 141.501 156.617 140.368L156.946 140.332C158.341 140.918 160.472 143.076 161.824 144.179C162.629 144.881 163.94 146.101 164.81 146.586L165.27 146.215C166.405 146.649 166.459 148.489 167.474 149.153C167.607 149.275 167.741 149.395 167.874 149.517L169.115 150.745C168.736 151.498 168.526 152.149 167.768 152.532L166.641 151.399H166.557L165.742 150.455C164.07 148.751 162.409 146.957 160.75 145.226Z" fill="#5B3004"/>
<path d="M167.874 149.516L169.115 150.744C168.736 151.497 168.526 152.147 167.768 152.531L166.641 151.397C166.839 150.568 167.216 150.031 167.874 149.516Z" fill="#5B3004"/>
<path d="M190.977 163.539C192.042 163.803 193.192 164.482 194.15 165.008C198.597 167.439 199.865 168.074 204.738 167.626C204.068 168.534 203.094 169.17 201.993 169.42C198.73 170.183 195.043 168.007 192.369 166.416C191.952 165.101 191.767 164.632 190.977 163.539Z" fill="#EF8221"/>
<path d="M143.818 239.717C144.865 240.598 149.117 240.629 150.526 240.478C151.397 240.384 152.567 240.104 153.273 240.05L153.292 240.483C152.902 241.527 152.7 241.937 152.164 242.911C149.794 243.28 146.009 243.474 143.699 242.771C143.759 241.755 143.798 240.735 143.818 239.717Z" fill="#EF8221"/>
<path d="M160.75 145.227C162.409 146.957 164.07 148.751 165.742 150.456L166.557 151.399C166.239 152.188 165.966 152.952 165.682 153.751C165.089 153.761 164.585 153.45 164.101 153.146C162.49 150.148 161.703 148.561 160.75 145.227Z" fill="#EF8221"/>
<path d="M165.74 150.455L166.555 151.398C166.238 152.187 165.964 152.952 165.68 153.75C165.085 153.459 165.299 153.666 164.961 153.17C164.976 152.221 165.395 151.361 165.74 150.455Z" fill="#B4580E"/>
<path d="M153.273 240.05C154.004 238.668 153.069 234.754 154.1 234.279C155.495 235.255 155.601 238.18 155.632 239.741C155.533 240.252 155.412 241.002 155.279 241.483C154.527 241.104 153.646 241.22 153.293 240.483L153.273 240.05Z" fill="#5B3004"/>
<path d="M126.656 9.0083C130.566 7.88162 134.084 8.035 137.708 10.031C136.807 10.5483 129.011 9.37556 127.338 9.38743C127.147 9.38874 126.811 9.1311 126.656 9.0083Z" fill="#FBA74D"/>
<path d="M133.205 34.0801C134.288 34.2777 135.334 35.4984 136.147 36.2859C135.425 36.7954 135.344 36.932 135.13 37.8708C134.267 37.2691 133.079 35.9798 132.609 35.0165C132.917 34.6851 133 34.4739 133.205 34.0801Z" fill="#EF8221"/>
<path d="M205.391 160.891C207.25 160.58 207.656 160.502 209.389 159.83C208.67 161.292 208.156 161.736 206.698 162.499C206.269 161.971 205.828 161.409 205.391 160.891Z" fill="#EF8221"/>
<path d="M209.712 150.082C209.567 150.645 209.486 151.245 209.099 151.652C208.622 151.767 208.647 151.79 208.061 151.43C207.931 151.349 207.803 151.264 207.676 151.18C208.328 150.807 209.045 150.44 209.712 150.082Z" fill="#EF8221"/>
<path d="M125.207 90.9497C127.681 90.778 130.187 91.1073 132.285 92.5356C134.018 93.6975 135.19 95.5275 135.522 97.5875C136.161 101.541 133.709 105.361 130.4 107.296C128.712 108.284 127.312 108.615 125.415 108.914C124.737 108.993 123.917 108.978 123.237 108.92C113.286 108.081 112.885 97.0209 120.464 92.6362C122.165 91.6517 123.247 91.2978 125.207 90.9497Z" fill="#FED39B"/>
<path d="M102.082 81.1847C103.464 81.1606 104.822 81.5407 105.992 82.2782C111.632 85.7857 112.704 97.3551 104.419 98.9894C95.6406 99.3639 92.3235 83.089 102.082 81.1847Z" fill="#5B3004"/>
<path d="M101.043 84.4023C102.922 84.7332 103.19 85.6447 103.68 87.31C103.144 88.951 102.966 89.5024 101.237 90.0883C97.951 89.3392 97.7331 85.427 101.043 84.4023Z" fill="#F4F4F3"/>
<path d="M97.6378 64.425C99.518 64.2027 105.355 65.1098 104.72 67.589C103.464 68.5861 101.992 67.2128 100.533 66.9405C99.7929 66.8026 99.4009 66.8091 98.6576 66.8016C95.6242 67.0656 94.3246 68.9006 93.1373 68.9613C92.4997 68.7258 92.7778 68.907 92.3149 68.3359C91.9291 66.1605 95.9657 64.7309 97.6378 64.425Z" fill="#5B3004"/>
<path d="M14.0711 140.062C19.6008 135.774 30.5341 136.612 34.9571 142.332C35.7405 143.36 36.3019 144.541 36.6055 145.797C36.9674 148.176 36.4772 149.716 35.0991 151.632C34.048 150.587 33.4563 150.047 32.1806 149.248C30.6184 148.524 28.4254 147.654 26.6764 147.844L26.4666 148.051C27.0878 149.362 31.2986 149.915 33.7437 153.274C36.0699 156.917 35.1174 160.316 32.2109 163.19C31.1174 162.128 30.6255 161.7 29.1623 161.076C28.5911 161.73 28.4155 161.868 27.7126 162.387C29.0386 163.224 29.8712 163.699 30.9029 164.914C31.3799 166.505 31.4736 167.544 30.5946 169.08C26.8599 175.6 17.7199 167.603 13.0667 173.102C12.8922 173.309 12.9779 173.436 13.0026 173.697C13.3082 174.02 13.3474 174.081 13.7124 174.324C12.9372 176.876 13.1534 178.884 15.4193 180.62C15.2861 180.626 15.1219 180.646 15.0096 180.597C11.3226 179.005 8.01334 175.893 6.04723 172.689C2.88028 167.533 1.92585 161.317 3.39978 155.447C4.84818 149.674 8.87929 143.163 14.0711 140.062Z" fill="#FE9829"/>
<path d="M15.4193 180.619C15.2861 180.625 15.1219 180.645 15.0096 180.596C11.3226 179.004 8.01334 175.892 6.04723 172.688C2.88028 167.532 1.92585 161.316 3.39978 155.446C4.84818 149.673 8.87929 143.162 14.0711 140.061C13.609 141.612 11.9221 142.915 10.9954 144.324C6.95205 150.441 4.76978 157.983 8.11955 164.925C10.7532 170.38 14.3692 167.989 19.0016 168.588C24.9169 169.355 27.9202 171.836 30.9029 164.913C31.3799 166.504 31.4736 167.543 30.5946 169.079C26.8599 175.599 17.7199 167.602 13.0667 173.101C12.8922 173.308 12.9779 173.435 13.0026 173.696C13.3082 174.019 13.3474 174.08 13.7124 174.323C12.9372 176.875 13.1534 178.883 15.4193 180.619Z" fill="#EF8221"/>
<path d="M33.7469 153.273C36.0731 156.917 35.1206 160.316 32.2141 163.19C31.1206 162.128 30.6287 161.7 29.1655 161.076L28.7266 160.796C29.9497 160.476 30.104 160.908 31.5223 159.919C33.3983 158.612 33.4686 155.528 33.7469 153.273Z" fill="#EF8221"/>
<path d="M36.6085 145.797C36.9704 148.176 36.4801 149.717 35.102 151.633C34.051 150.587 33.4593 150.047 32.1836 149.248C34.0428 148.437 34.4042 148.107 35.4629 146.49C35.7965 146.851 35.7998 146.825 36.194 147.119L36.3534 146.979C36.3936 146.483 36.4722 146.267 36.6085 145.797Z" fill="#EF8221"/>
<path d="M27.7152 162.387C26.8291 161.926 24.2578 161.074 23.9375 160.454L24.0738 160.289C25.6346 159.929 27.1902 160.697 28.7259 160.796L29.1649 161.076C28.5937 161.73 28.418 161.868 27.7152 162.387Z" fill="#733C05"/>
<path d="M9.37218 27.4008C14.5778 24.3341 20.6241 24.7916 25.1551 28.8818C26.6773 30.1903 27.5143 31.1933 28.6387 32.8881C27.9136 33.644 26.2015 35.4281 25.7214 36.3244C26.3455 36.0523 26.9824 35.6574 27.6073 35.8136C27.9144 36.1011 27.8975 36.276 27.9915 36.6969C27.5244 37.2159 26.5919 38.3037 26.1152 38.7243C25.3471 38.5309 24.4236 38.7925 23.3664 38.7535L23.1956 38.9185C22.8101 38.894 21.4317 37.4841 21.0215 37.0601C17.9067 33.8424 12.2316 33.5516 9.98993 38.4381C9.21946 40.1501 9.16139 42.0983 9.82858 43.8533C10.9889 46.984 13.0393 48.2535 15.8574 49.5319C14.9997 51.3381 13.879 53.2506 12.9552 55.0833C9.40667 53.8223 6.40009 51.5156 4.46277 48.2623C2.36101 44.6994 1.75872 40.4481 2.7883 36.4417C3.70775 32.9189 6.20263 29.2349 9.37218 27.4008Z" fill="#FE9829"/>
<path d="M9.37109 27.4008C14.5767 24.3341 20.623 24.7916 25.154 28.8818C24.9876 29.1098 25.0432 29.0309 24.7662 29.1771C23.6268 29.0608 20.8184 27.4856 19.6444 27.399C17.6508 27.2598 15.7016 27.1663 13.7055 27.2523C12.7506 27.2935 10.1092 27.7068 9.37109 27.4008Z" fill="#FBA74D"/>
<path d="M25.7222 36.3236C26.3463 36.0515 26.9832 35.6566 27.6081 35.8127C27.9152 36.1003 27.8983 36.2752 27.9923 36.6961C27.5252 37.2151 26.5927 38.3029 26.116 38.7235C25.3479 38.5301 24.4244 38.7917 23.3672 38.7526C24.1219 37.8023 24.8426 37.1554 25.7222 36.3236Z" fill="#733C05"/>
<path d="M14.843 36.7749C15.2483 36.7539 15.6546 36.7624 16.0586 36.8003C18.575 37.0558 20.2825 38.8366 21.7759 40.6573C19.9708 42.6664 18.5924 44.8038 17.2182 47.1053L16.5477 48.2843C16.0266 48.0914 15.5534 47.9048 15.0499 47.6648C10.6479 45.5671 9.10796 38.3035 14.843 36.7749Z" fill="#B4580E"/>
<path d="M38.2618 150.538C38.6722 149.243 38.7937 148.684 38.9172 147.293C42.836 149.542 42.7116 152.963 41.3969 156.801C40.3512 159.279 38.9006 160.782 36.2773 161.533C37.3747 158.695 37.6436 156.291 36.3595 153.423C37.2552 152.377 37.6156 151.728 38.2618 150.538Z" fill="#EF8221"/>
<path d="M38.2617 150.538C38.6721 149.243 38.7936 148.684 38.917 147.293C42.8359 149.542 42.7115 152.963 41.3968 156.801L40.37 156.748C38.6831 155.943 39.4014 152.503 38.2617 150.538Z" fill="#FE9829"/>
</svg>
