<svg width="229" height="232" viewBox="0 0 229 232" fill="none" xmlns="http://www.w3.org/2000/svg">
<path d="M124.484 4.32529C126.644 1.17499 127.917 -0.840021 131.845 0.342228C135.033 3.26918 134.743 5.69758 137.34 6.86508C144.84 5.86686 147.261 6.56693 145.14 15.2451C153.221 20.9636 156.609 20.5704 164.778 28.8385C169.119 26.2567 173.853 25.2405 178.835 26.6373C183.442 27.9375 187.313 31.0714 189.545 35.3057C194.702 45.0313 190.333 54.0846 180.825 58.5297C182.095 65.2786 182.049 77.2496 182.714 80.1755C183.579 77.1376 184.37 74.4641 186.966 72.4731C189.321 72.0472 191.843 73.6253 192.426 73.4162C198.144 71.3689 201.255 68.1602 204.552 75.3848C214.065 78.5083 207.736 80.6511 211.51 87.2701C214.254 92.082 207.182 98.9555 204.471 102.805C196.944 113.494 188.616 123.552 176.939 129.968C177.22 132.197 178.234 141.137 178.781 142.714C186.763 141.538 190.417 148.831 190.748 155.7C191.609 161.952 187.388 165.183 187.43 171.448C187.384 171.65 187.337 171.852 187.29 172.053C186.221 183.03 176.246 202.918 161.183 201.263C157.309 200.837 142.258 195.36 138.798 193.727C135.229 194.442 132.344 194.639 128.708 194.934C130.748 202.393 130.719 213.058 122.239 216.351L120.908 216.138L120.476 216.591C115.997 221.162 107.69 221.069 102.891 217.121C101.109 214.778 100.81 213.473 100.211 210.634C81.6757 203.382 76.8399 195.567 67.6991 178.922C57.0429 159.519 52.4878 149.127 54.3658 125.654C51.1776 122.657 48.2073 119.436 45.479 116.016C36.9455 105.292 33.0113 95.9635 29.0192 83.2646C27.0352 77.7918 23.8082 73.9841 24.5832 67.7883C25.2723 62.2762 26.429 64.01 29.3409 60.4955C29.8957 57.4009 29.8417 56.3213 32.6001 54.7645C40.4897 54.7372 40.3504 46.1797 47.5875 56.1488C51.508 55.2958 50.9363 56.2159 54.2457 57.7378C56.5612 51.9467 60.0306 48.2728 63.0293 43.1102C64.4912 40.5939 65.9958 37.478 67.5642 34.7411C65.8391 31.9889 64.5579 29.1826 64.2969 25.9078C63.8982 21.2967 65.483 16.7343 68.6548 13.3634C71.4891 10.3081 75.4593 8.55901 79.6273 8.52843C84.681 8.53335 87.9789 10.6472 91.373 14.0001C103.231 9.01114 104.895 11.3292 113.995 8.61962C115.659 -2.03045 119.917 3.96106 124.484 4.32529Z" fill="#FF9B34"/>
<path d="M54.3658 125.654C51.1776 122.657 48.2073 119.436 45.479 116.016C36.9455 105.292 33.0113 95.9635 29.0192 83.2646C27.0352 77.7918 23.8082 73.984 24.5832 67.7883C25.2723 62.2762 26.429 64.01 29.3409 60.4955C29.8957 57.4009 29.8417 56.3213 32.6001 54.7644C40.4897 54.7371 40.3504 46.1796 47.5875 56.1488L48.9883 57.0612L49.163 57.9202C54.9343 58.8818 52.532 68.6413 52.6521 73.1524L51.8308 73.551L51.6336 74.8512L50.8986 74.6459L49.0833 71.7872L48.4891 71.8828C45.9765 79.7763 38.2523 79.8762 32.1675 84.0744C33.6966 91.7658 38.0164 99.6222 42.0816 106.292C45.1775 111.286 50.4289 118.965 55.3958 122.236L56.458 122.798C56.5661 124.463 56.6568 126.129 56.7294 127.796C56.6835 140.964 58.0428 155.796 64.6414 167.517C65.9931 165.536 64.7884 163.218 64.1319 161.051C67.621 162.349 76.4161 176.353 79.1325 175.291C79.4088 175.184 79.6682 175.037 79.9358 174.91C95.1368 184.834 107.655 186.584 125.999 183.714C128.96 183.251 132.2 181.793 134.723 180.177C138.133 181.581 140.301 184.064 143.264 184.766L144.015 184.333C144.068 182.395 143.927 178.759 144.383 177.144C144.641 175.935 144.915 174.73 145.206 173.529C147.155 165.38 153.631 150.291 165.516 153.227C169.153 154.125 169.11 153.32 172.287 151.707C174.193 151.509 175.013 151.377 176.865 150.894L178.08 151.803L178.686 151.5C178.448 150.301 178.237 149.096 178.054 147.888L179.765 144.612L178.781 142.714C186.763 141.538 190.417 148.831 190.748 155.7C191.609 161.952 187.388 165.183 187.43 171.448C187.384 171.65 187.337 171.852 187.29 172.053C186.221 183.03 176.246 202.917 161.183 201.263C157.309 200.837 142.258 195.36 138.798 193.727C135.229 194.442 132.344 194.639 128.708 194.934C130.748 202.393 130.719 213.058 122.239 216.351L120.908 216.138L120.476 216.591C115.997 221.162 107.69 221.069 102.891 217.121C101.109 214.778 100.81 213.473 100.211 210.634C81.6757 203.382 76.8399 195.567 67.6991 178.922C57.0429 159.519 52.4878 149.126 54.3658 125.654Z" fill="#3F2306"/>
<path d="M64.1323 161.051C67.6214 162.348 76.4165 176.352 79.1329 175.291C79.4092 175.183 79.6686 175.037 79.9362 174.91C95.1372 184.834 107.656 186.584 125.999 183.714C128.961 183.25 132.201 181.793 134.723 180.177C138.134 181.58 140.301 184.063 143.265 184.766L144.016 184.333C144.068 182.395 143.928 178.758 144.384 177.144C144.718 185.871 144.785 188.001 149.779 195.196C143.316 193.437 142.52 192.591 136.775 189.312C136.894 190.292 136.923 190.232 136.585 191.212C127.357 194.95 107.84 190.703 98.3877 187.978C101.568 189.781 103.256 190.835 106.705 191.96C106.34 193.137 105.771 194.043 106.242 194.868C107.859 197.697 112.981 199.177 115.775 200.913C107.798 208.181 106.733 204.856 99.5913 207.237C98.6782 206.953 97.7765 206.63 96.8897 206.27C87.7658 202.529 79.0821 193.869 73.8143 185.527C72.9329 184.132 73.0476 180.701 71.7293 178.788C68.8638 174.628 66.5849 172.266 64.6418 167.516C65.9935 165.536 64.7887 163.218 64.1323 161.051Z" fill="#EA8429"/>
<path d="M37.706 59.0969C38.4722 51.8658 41.8166 52.6352 45.8037 57.5117C46.8659 58.5765 46.974 59.0085 47.5878 60.3436C47.9412 59.133 48.3278 58.8747 49.1634 57.9196C54.9347 58.8812 52.5324 68.6407 52.6525 73.1518L51.8311 73.5504L51.634 74.8506L50.8989 74.6453L49.0836 71.7866L48.4895 71.8822C45.9768 79.7756 38.2526 79.8756 32.1679 84.0738C30.6868 78.097 23.0167 69.6301 29.528 63.4289L31.8375 63.7871C31.4175 61.1884 31.1963 59.9302 32.6736 57.7541C34.5451 56.893 33.584 57.0295 35.669 57.403L37.3625 56.4801L37.706 59.0969Z" fill="#E37C21"/>
<path d="M35.6689 57.4043L37.3624 56.4814L37.7059 59.0982C37.9965 59.8409 37.9009 59.3948 37.8081 60.4629C36.5323 59.6771 36.3079 58.7771 35.6689 57.4043Z" fill="#3C2005"/>
<path d="M31.8373 63.7889C32.6647 65.6182 32.7919 64.9187 32.3244 66.2304C30.6949 65.5107 30.5015 64.9182 29.5278 63.4307L31.8373 63.7889Z" fill="#3C2005"/>
<path d="M45.8038 57.5117C46.866 58.5766 46.9741 59.0085 47.588 60.3437C46.7988 61.8022 47.3581 61.4631 46.1561 61.8585C45.4003 60.3104 45.6722 59.2428 45.8038 57.5117Z" fill="#3C2005"/>
<path d="M42.0809 64.8984C42.7602 65.0634 43.4254 65.3293 44.0867 65.557C44.6105 67.2722 43.9 69.0748 43.5221 70.819C41.313 71.8745 39.3257 73.1704 37.286 74.5104C35.8192 73.7284 35.4019 72.9273 34.917 71.3678C35.0797 70.4351 35.2059 69.6607 35.746 68.8607C37.3734 66.4498 39.3033 65.4789 42.0809 64.8984Z" fill="#8F4709"/>
<path d="M106.705 191.96C114.062 194.371 118.463 194.923 126.214 194.879C127.498 201.083 128.786 210.049 122.095 213.73C118.494 213.096 120.01 210.486 118.092 211.726C117.51 214.538 117.944 215.483 116.443 217.383C114.798 217.749 114.789 217.869 113.163 217.252C111.92 215.707 111.774 215.401 110.89 213.604L110.093 213.642C109.131 216.034 109.566 216.138 107.826 217.175C99.7229 215.215 107.068 209.503 99.5913 207.237C106.733 204.856 107.798 208.182 115.775 200.913C112.981 199.177 107.859 197.697 106.242 194.868C105.771 194.044 106.34 193.137 106.705 191.96Z" fill="#E37C21"/>
<path d="M178.781 142.715C186.763 141.538 190.417 148.831 190.748 155.7C190.042 156.424 189.955 156.653 189.11 157.149C187.853 159.267 187.845 159.729 187.267 162.188L185.272 159.797C177.07 157.186 182.226 153.37 172.288 151.707C174.194 151.51 175.013 151.378 176.865 150.895L178.08 151.804L178.686 151.5C178.448 150.301 178.237 149.097 178.054 147.889L179.765 144.613L178.781 142.715Z" fill="#EA8429"/>
<path d="M178.781 142.715C186.763 141.538 190.417 148.831 190.748 155.7C190.042 156.424 189.955 156.653 189.11 157.149C186.73 153.583 188.362 152.198 185.551 148.256C183.605 145.737 182.851 145.495 179.765 144.613L178.781 142.715Z" fill="#3F2306"/>
<path d="M179.765 144.612C182.851 145.495 183.604 145.737 185.551 148.256C183.06 149.275 182.102 147.746 178.054 147.888L179.765 144.612Z" fill="#FECC62"/>
<path d="M190.748 155.7C191.61 161.952 187.388 165.183 187.43 171.449C187.384 171.65 187.337 171.853 187.29 172.054C186.649 166.939 187.669 165.308 187.267 162.188C187.845 159.729 187.853 159.267 189.11 157.149C189.955 156.653 190.042 156.424 190.748 155.7Z" fill="#3F2306"/>
<path d="M167.747 158.564C169.75 155.065 171.494 154.048 175.475 154.795C180.595 158.317 176.952 160.489 178.874 164.126C181.527 162.871 179.296 161.981 182.727 161.049C186.741 162.914 184.437 174.738 183.33 178.335C181.502 183.564 179.563 187.594 175.75 191.688C167.128 200.947 154.642 201.962 148.348 189.427C147.388 185.253 146.058 180.579 147.211 176.393C147.811 166.474 152.593 158.495 162.028 154.844C166.211 155.491 164.776 156.055 167.01 158.922L167.747 158.564Z" fill="#EA8429"/>
<path d="M148.348 189.426C152.759 190.125 154.478 195.108 159.575 196.168C167.917 197.904 172.366 193.028 176.594 186.759C178.415 184.058 180.655 179.812 183.33 178.334C181.502 183.563 179.563 187.593 175.75 191.687C167.128 200.946 154.642 201.961 148.348 189.426Z" fill="#E37C21"/>
<path d="M147.211 176.391C147.811 166.473 152.593 158.494 162.028 154.843L162.984 156.355C162.254 158.49 159.792 159.176 157.92 162.013C156.127 164.729 151.406 178.855 150.052 179.776L149.395 179.354C149.819 175.337 154.75 167.154 154.422 162.131C151.449 162.998 148.807 171.91 148.742 175.014C148.105 175.651 147.947 175.879 147.211 176.391Z" fill="#F19837"/>
<path d="M167.747 158.564C169.75 155.065 171.494 154.048 175.475 154.795C173.911 155.723 169.335 158.578 167.747 158.564Z" fill="#F9A248"/>
<path d="M165.453 171.855C166.707 171.768 168.077 171.611 169.322 171.822C171.273 172.151 173.154 173.579 174.125 175.277C175.431 177.562 175.339 180.37 174.632 182.829C173.476 186.846 171.223 189.218 167.691 191.293C166.545 191.474 165.332 191.695 164.175 191.526C162.429 191.272 160.746 190.429 159.687 188.994C158.206 186.987 158.111 184.265 158.55 181.896C159.419 177.21 161.58 174.388 165.453 171.855Z" fill="#8F4709"/>
<path d="M172.915 160.128C173.49 160.325 173.993 160.593 174.479 160.962C175.335 161.614 175.886 162.641 175.959 163.695C176.13 166.192 174.561 167.849 172.994 169.582C172.074 169.37 170.968 168.989 170.306 168.272C169.695 167.61 169.365 166.816 169.373 165.925C169.397 163.447 171.302 161.761 172.915 160.128Z" fill="#8F4709"/>
<path d="M164.662 160.565C165.361 160.907 165.988 161.441 166.618 161.899C167.107 163.139 167.438 163.632 167.129 165.019C166.685 167.011 165.173 167.957 163.564 169.004L162 168.13C161.567 167.412 161.03 166.875 161.066 165.999C161.162 163.644 163.036 162.031 164.662 160.565Z" fill="#8F4709"/>
<path d="M179.698 165.436C180.207 165.656 180.864 165.89 181.314 166.237C182.41 167.083 182.461 167.913 182.636 169.201C182.041 171.172 181.12 172.308 179.798 173.865C179.233 173.699 178.819 173.609 178.292 173.298C177.6 172.891 177.082 171.978 176.964 171.23C176.607 168.977 178.4 167.058 179.698 165.436Z" fill="#8F4709"/>
<path d="M91.3734 13.9997C103.232 9.01078 104.895 11.3289 113.995 8.61926C115.659 -2.03081 119.917 3.9607 124.485 4.32493C125.312 5.0807 125.785 5.36794 126.246 6.37817L126.338 14.6119C125.801 13.3226 123.964 8.58541 123.258 7.79852L122.825 8.08302C120.614 7.72971 118.373 7.59208 116.135 7.6729C117.046 8.93378 118.759 11.0176 119.092 12.4128C116.437 11.804 114.216 11.8793 111.502 11.8209C96.0344 12.5706 85.8031 17.9653 75.1042 29.2313C67.8153 36.9059 67.332 43.3326 60.8098 50.5397C60.7584 50.6112 60.7077 50.6827 60.6569 50.7543L58.6849 54.5184C59.6608 56.5694 59.4669 57.068 59.3539 59.4369C58.071 65.305 57.6789 67.1999 57.7729 73.2946C57.8204 76.3652 59.0147 82.4746 58.1573 84.3351C60.8906 91.2424 63.187 93.7237 68.0086 99.4389C58.6461 98.8787 53.7519 80.8572 52.6525 73.1521C52.5324 68.641 54.9347 58.8815 49.1634 57.9199L48.9887 57.0609L47.5879 56.1484C51.5084 55.2955 50.9366 56.2156 54.2461 57.7375C56.5616 51.9464 60.031 48.2724 63.0297 43.1098C64.4916 40.5935 65.9962 37.4776 67.5646 34.7407C65.8395 31.9885 64.5583 29.1822 64.2973 25.9074C63.8986 21.2964 65.4834 16.7339 68.6552 13.363C71.4895 10.3077 75.4597 8.55865 79.6276 8.52807C84.6814 8.53299 87.9793 10.6468 91.3734 13.9997Z" fill="#3F2306"/>
<path d="M58.6843 54.5186C59.6602 56.5696 59.4663 57.0682 59.3533 59.437C58.0705 65.3052 57.6783 67.2 57.7723 73.2948C57.8198 76.3653 59.0141 82.4748 58.1567 84.3353C58.006 83.9579 57.8547 83.5811 57.704 83.2038C54.3023 73.8758 54.654 63.5927 58.6843 54.5186Z" fill="#FED675"/>
<path d="M116.135 7.67411C117.406 5.52313 116.791 5.87101 118.72 4.87988C120.953 5.03551 121.912 6.09161 123.258 7.79973L122.825 8.08423C120.613 7.73092 118.373 7.59329 116.135 7.67411Z" fill="#FECC62"/>
<path d="M70.0141 15.9754C75.2748 9.6846 82.8346 9.62399 88.7599 15.0378L88.9843 15.6931C86.8294 17.1112 83.6794 19.0094 81.7227 20.5444C78.7835 17.8768 75.9236 16.0453 72.5257 19.3534C74.7085 19.7575 76.3894 19.7553 77.8431 21.2941C78.1703 24.0524 75.4485 25.7528 73.4797 27.5713C72.2504 28.949 70.617 31.1551 69.4248 32.6585C67.8204 29.5284 67.4168 28.2702 66.3628 24.9015C67.0804 21.642 67.4883 18.1706 70.0141 15.9754Z" fill="#EA8429"/>
<path d="M72.526 19.3535C74.7088 19.7576 76.3897 19.7554 77.8434 21.2943C78.1706 24.0525 75.4487 25.753 73.48 27.5714C70.6386 24.3818 71.2896 23.1444 72.526 19.3535Z" fill="#8F4709"/>
<path d="M70.0142 15.9754C75.2748 9.6846 82.8346 9.62399 88.7599 15.0378C86.1752 15.9918 82.5485 14.1122 79.9217 13.0179C75.9072 13.5497 70.4805 15.965 70.0142 15.9754Z" fill="#FECC62"/>
<path d="M182.714 80.1762C183.579 77.1384 184.37 74.4649 186.966 72.4739C189.321 72.0479 191.843 73.6261 192.426 73.4169C198.144 71.3697 201.255 68.161 204.552 75.3855L202.693 75.3375C201.874 76.7633 200.561 78.449 200.651 79.8235C202.618 79.1917 205.816 77.8691 207.619 78.7679C210.198 83.2577 205.32 84.8681 204.781 87.9147C207.799 88.1211 207.221 87.1294 209.245 88.4138C211.12 94.2234 203.555 97.7058 201.348 101.622L199.306 102.677L198.68 102.37C198.512 102.192 198.345 102.015 198.177 101.838C193.998 98.6084 190.331 94.7673 187.297 90.4446L185.78 88.3417C184.453 86.4714 184.762 87.2703 185.263 84.4329L183.406 82.9568L180.791 85.3519L180.917 84.3291C181.93 83.0016 182.218 82.6205 183.015 81.1745L182.714 80.1762Z" fill="#E37C21"/>
<path d="M182.714 80.1762C183.579 77.1384 184.37 74.4649 186.966 72.4739C189.321 72.0479 191.843 73.6261 192.426 73.4169C198.144 71.3697 201.255 68.161 204.552 75.3855L202.693 75.3375C196.269 70.0297 195.189 77.5507 191.468 79.4762C190.404 77.2995 191.294 75.8803 190.055 74.5512C186.273 74.6232 184.674 79.9529 183.406 82.9568L180.791 85.3519L180.917 84.3291C181.93 83.0016 182.218 82.6205 183.015 81.1745L182.714 80.1762Z" fill="#3F2306"/>
<path d="M202.694 75.3369L204.552 75.3849C214.065 78.5085 207.736 80.6513 211.51 87.2702C214.255 92.0822 207.182 98.9557 204.471 102.805C196.944 113.494 188.616 123.552 176.939 129.968C177.22 132.197 178.234 141.138 178.781 142.714L179.766 144.612L178.054 147.888C178.238 149.097 178.448 150.301 178.686 151.5L178.08 151.804L176.865 150.894C171.531 141.365 158.624 148.764 151.767 152.627L151.813 152.285C155.094 148.583 156.959 147.511 161.418 145.956C164.164 142.822 166.379 142.396 170.303 140.927C169.181 135.321 167.111 134.744 166.172 131.229L167.31 129.671C170.747 127.147 174.716 125.09 178.224 122.637C186.62 116.766 192.513 110.362 198.68 102.369L199.307 102.676L201.348 101.621C203.555 97.7052 211.121 94.2229 209.245 88.4132C207.221 87.1288 207.799 88.1205 204.781 87.9141C205.32 84.8675 210.198 83.2572 207.619 78.7673C205.816 77.8685 202.618 79.1911 200.652 79.8229C200.561 78.4484 201.874 76.7627 202.694 75.3369Z" fill="#3C2005"/>
<path d="M201.348 101.62C193.23 117.204 182.627 123.147 168.661 131.203C168.492 131.376 168.325 131.55 168.156 131.724L167.311 129.67C170.747 127.146 174.716 125.089 178.225 122.636C186.62 116.765 192.514 110.361 198.68 102.368L199.307 102.675L201.348 101.62Z" fill="#E37C21"/>
<path d="M167.31 129.671L168.156 131.725C168.324 131.55 168.492 131.377 168.66 131.203C170.832 132.119 172.201 131.31 174.445 130.806C175 134.088 176.31 140.232 175.931 143.294C175.187 144.238 175.266 144.58 173.735 144.581C168.575 144.588 166.503 144.5 161.418 145.955C164.164 142.822 166.378 142.396 170.302 140.927C169.18 135.321 167.11 134.744 166.171 131.228L167.31 129.671Z" fill="#E37C21"/>
<path d="M124.484 4.32529C126.644 1.17499 127.917 -0.840021 131.845 0.342228C135.034 3.26918 134.744 5.69758 137.34 6.86508C144.841 5.86686 147.261 6.56693 145.14 15.2451C153.221 20.9636 156.609 20.5704 164.779 28.8385C169.119 26.2567 173.853 25.2405 178.835 26.6373C183.442 27.9375 187.313 31.0714 189.545 35.3057C194.702 45.0313 190.333 54.0846 180.825 58.5297C182.095 65.2786 182.049 77.2496 182.714 80.1755L183.015 81.1737C182.218 82.6197 181.93 83.0008 180.917 84.3283L180.791 85.3512C178.829 87.6742 173.959 91.4257 171.361 93.5728C169.637 94.689 169.356 94.7474 168.331 96.4441L166.78 96.8045L166.053 96.3038C167.114 93.2867 175.696 87.0341 178.802 83.8784L179.3 83.3683C179.648 80.206 179.655 78.1386 179.639 74.9495C179.948 70.2069 179.439 65.4184 178.791 60.7107C178.206 56.4666 173.74 58.3664 173.711 54.7115C187.812 59.2068 193.743 42.2174 184.276 32.891L183.849 33.2317C177.827 30.7897 175.599 29.7903 168.921 31.7011C166.857 32.2914 165.548 32.9953 163.36 33.1454L162.106 33.0924L162.061 32.0702L162.395 30.8781C160.191 25.6915 147.631 19.635 142.637 17.389C141.297 17.3563 141.384 17.3852 140.176 16.8113C140.364 15.1075 142.681 12.9205 144.064 11.0781C141.229 11.1632 136.619 12.2871 134.909 11.5504C133.887 12.5765 133.934 12.7135 132.586 13.1302C131.884 11.0005 133.931 9.21758 133.292 6.35397C132.608 7.26154 133.06 6.98685 131.926 7.16541C131.231 5.76692 131.506 5.91327 130.346 5.03355C129.791 5.84283 129.247 6.65921 128.713 7.48215C127.193 7.59628 127.952 7.75574 126.489 6.52052L126.246 6.37853C125.785 5.3683 125.312 5.08106 124.484 4.32529Z" fill="#3F2306"/>
<path d="M163.36 33.1459C169.205 27.7131 178.91 26.1125 184.276 32.8915L183.849 33.2322C177.827 30.7902 175.599 29.7908 168.921 31.7016C166.857 32.2919 165.548 32.9958 163.36 33.1459Z" fill="#FED675"/>
<path d="M126.489 6.52076C127.132 4.40309 127.109 4.25564 128.783 2.95325C130.92 2.59448 129.929 2.44378 131.862 3.41907C132.768 4.69088 132.99 4.80118 133.292 6.35422C132.608 7.26179 133.061 6.98709 131.926 7.16566C131.231 5.76717 131.506 5.91352 130.347 5.03379C129.792 5.84307 129.247 6.65946 128.713 7.48239C127.193 7.59652 127.952 7.75598 126.489 6.52076Z" fill="#FEBE52"/>
<path d="M134.909 11.5514C138.152 8.62932 140.85 7.15711 144.063 11.079C141.228 11.1642 136.619 12.288 134.909 11.5514Z" fill="#FED675"/>
<path d="M60.6567 50.7547C60.7075 50.6832 60.7583 50.6116 60.8096 50.5401C67.3318 43.333 67.8152 36.9063 75.1041 29.2318C85.8029 17.9657 96.0343 12.571 111.502 11.8213L109.511 14.1443L109.018 14.3857L110.252 14.9465C108.784 15.1797 106.763 15.3293 105.619 16.1238L105.67 16.6082C101.982 17.3093 99.827 17.7451 96.5045 19.7809C94.7384 18.3868 96.4379 20.5628 93.4703 19.2326C82.0615 23.4778 72.3555 36.0014 67.4198 46.6684C67.1593 47.2304 66.9081 47.7961 66.6667 48.3667C64.4107 49.9127 63.242 50.083 60.6567 50.7547Z" fill="#FECC62"/>
<path d="M93.4702 19.2337C98.7871 17.0335 103.301 15.2293 109.017 14.3867L110.252 14.9475C108.784 15.1807 106.763 15.3303 105.619 16.1249L105.67 16.6092C101.982 17.3104 99.8269 17.7462 96.5044 19.7819C94.7383 18.3878 96.4378 20.5639 93.4702 19.2337Z" fill="#F19837"/>
<path d="M66.6665 48.3663C83.0602 47.8459 73.6125 70.4075 59.3536 59.4369C59.4666 57.068 59.6605 56.5694 58.6846 54.5184L60.6566 50.7543C63.2419 50.0826 64.4106 49.9122 66.6665 48.3663Z" fill="#FFC271"/>
<path d="M57.6514 121.515C58.9222 119.749 60.3334 117.675 61.6675 115.995C59.7277 128.832 57.9387 149.303 64.1321 161.052C64.7886 163.219 65.9933 165.537 64.6416 167.517C58.043 155.796 56.6837 140.964 56.7296 127.796C56.657 126.13 56.5663 124.463 56.4582 122.798L55.396 122.236C55.7592 120.702 55.9159 120.287 56.5057 118.81L57.8819 118.303L57.6514 121.515Z" fill="#FECC62"/>
<path d="M55.396 122.236C55.7592 120.702 55.9159 120.286 56.5057 118.81L57.8819 118.303L57.6514 121.514L56.7296 127.796C56.657 126.129 56.5663 124.462 56.4582 122.797L55.396 122.236Z" fill="#5A2B0B"/>
<path d="M50.8989 74.6458L51.634 74.8512L51.8311 73.551L52.6525 73.1523C53.7518 80.8574 58.646 98.879 68.0085 99.4392C70.1477 100.174 73.4167 104.054 75.043 105.807C72.6887 104.636 69.3552 102.243 67.3002 101.666C66.3429 102.548 65.9513 103.091 64.6778 103.349C58.0016 98.2275 51.6542 82.9975 50.8989 74.6458Z" fill="#E37C21"/>
<path d="M42.082 106.292L43.4227 104.71C46.819 105.103 50.0509 114.154 55.8238 115.894L56.3508 115.35C56.9624 114.727 57.4124 114.31 58.0579 113.738L58.7832 114.255C58.734 115.555 58.6903 117.207 57.8821 118.303L56.5059 118.81C55.9161 120.286 55.7594 120.702 55.3962 122.236C50.4293 118.965 45.1779 111.286 42.082 106.292Z" fill="#EA8429"/>
<path d="M161.039 99.0573C165.499 95.0185 171.244 89.1078 174.921 84.3876C177.214 81.4437 176.691 77.2384 179.639 74.9492C179.655 78.1383 179.647 80.2057 179.3 83.368L178.802 83.8781C175.696 87.0338 167.114 93.2864 166.053 96.3034L166.779 96.8042L168.331 96.4438C167.205 98.6483 165.956 99.4559 163.773 100.693L161.039 99.0573Z" fill="#E37C21"/>
<path d="M142.637 17.3896C147.631 19.6356 160.191 25.6921 162.396 30.8787L162.061 32.0708C157.433 27.7983 153.816 25.2334 148.258 22.2726C146.534 21.3541 143.537 20.1697 142.203 19.1573L142.637 17.3896Z" fill="#FECC62"/>
<path d="M183.406 82.9561L185.263 84.4321L184.902 84.6915C183.446 85.7569 183.815 85.4822 182.794 86.6202C180.46 89.2228 176.173 92.2224 173.262 94.1479C171.864 94.1189 172.47 94.3275 171.361 93.5728C173.959 91.4257 178.829 87.6742 180.791 85.3512L183.406 82.9561Z" fill="#FCB03C"/>
<path d="M161.039 99.0576L163.773 100.694C161.102 103.329 156.73 105.969 153.504 108.087C156.212 104.065 157.393 102.252 161.039 99.0576Z" fill="#EA8429"/>
<path d="M96.5044 19.7811C99.8269 17.7454 101.982 17.3096 105.67 16.6084L103.748 18.7048L103.777 19.3317C104.961 19.0472 105.914 18.7556 107.138 18.725C106.226 20.3059 103.827 21.5455 102.026 21.7743L101.714 21.261L102.568 19.448C100.914 18.9369 99.9739 19.9105 98.554 20.8197C97.0216 20.5123 97.6851 20.8378 96.5044 19.7811Z" fill="#FEBE52"/>
<path d="M111.502 11.8213C114.215 11.8797 116.437 11.8044 119.092 12.4133L119.145 13.1772C115.895 13.6403 112.779 13.8756 109.51 14.1443L111.502 11.8213Z" fill="#FECC62"/>
<path d="M92.5611 47.0161C92.0871 46.9784 97.2713 46.1457 98.026 46.084C107.998 47.3853 118.954 52.3447 120.391 63.6026L120.363 65.7366C122.307 74.9712 120.65 89.1107 110.246 92.4685C106.335 96.053 104.807 97.327 99.3766 97.0976C98.8507 97.0742 98.3253 97.0468 97.7999 97.0146C92.5218 98.009 87.5227 96.2408 83.0954 93.3477C77.4857 89.6814 73.5614 83.9378 72.1835 77.38C70.4758 68.8328 74.2637 59.9613 80.5314 54.1429C81.9589 52.8176 85.3885 49.9649 87.2496 49.646L86.4201 51.4065C87.4359 51.785 90.0834 50.2161 91.4197 49.6072L92.3874 48.5833L89.9545 47.5081L92.5611 47.0161Z" fill="#3F2306"/>
<path d="M97.7999 97.0148C92.5218 98.0092 87.5227 96.241 83.0954 93.3479C77.4857 89.6816 73.5614 83.938 72.1835 77.3802C70.4758 68.833 74.2637 59.9615 80.5314 54.1431C81.9589 52.8178 85.3885 49.9651 87.2496 49.6462L86.4201 51.4067C87.4359 51.7852 90.0834 50.2163 91.4197 49.6074C90.8119 56.1909 95.4489 55.2953 96.7028 59.0458C96.243 71.5153 87.521 67.1036 82.4744 59.7196C81.0294 60.3066 81.6198 59.8256 80.8306 61.4097C81.3167 64.376 84.8822 66.3298 85.6878 69.1334C89.0059 80.6817 86.0083 89.527 97.7999 97.0148Z" fill="#D06E1B"/>
<path d="M92.5607 47.0161C92.0867 46.9784 97.2709 46.1457 98.0256 46.084C107.998 47.3853 118.953 52.3447 120.39 63.6026C113.838 65.2097 111.522 77.0731 98.9251 64.4998L97.8394 65.3964L97.2474 65.3096C97.1972 62.7518 97.0661 61.563 96.7024 59.0456C95.4485 55.2951 90.8115 56.1907 91.4193 49.6072L92.387 48.5833L89.9541 47.5081L92.5607 47.0161Z" fill="#D06E1B"/>
<path d="M92.3876 48.583L95.4218 49.3765C98.5188 49.9799 105.49 50.971 107.286 53.6522C105.509 59.4897 96.8832 54.7979 98.9256 64.4994L97.8399 65.3961L97.248 65.3092C97.1977 62.7514 97.0667 61.5626 96.703 59.0452C95.4491 55.2948 90.8121 56.1904 91.4199 49.6069L92.3876 48.583Z" fill="#3F2306"/>
<path d="M92.5607 47.0161C92.0867 46.9784 97.2709 46.1457 98.0256 46.084L97.6815 47.0145L98.6187 48.2896L98.1709 49.0552C97.2457 49.1726 96.3518 49.2954 95.4212 49.3768L92.387 48.5833L89.9541 47.5081L92.5607 47.0161Z" fill="#EA8429"/>
<path d="M97.2475 65.3096L97.8395 65.3964C102.236 71.1837 108.523 72.1988 115.203 70.1445C114.91 73.1741 114.758 77.6678 113.428 80.2403C109.318 79.2164 108.344 79.0559 104.108 78.9292L103.81 78.6119C98.8236 77.4035 93.9965 85.3685 91.8836 88.8251C88.9914 81.1528 88.4622 76.278 88.4546 68.2021C92.4428 67.8466 94.1281 67.9225 97.2475 65.3096Z" fill="#66310F"/>
<path d="M93.8223 90.8786C100.122 85.4206 103.16 82.1949 111.267 86.6623C109.135 90.1157 106.733 93.7454 102.402 94.6197C100.383 95.0467 98.2785 94.6077 96.5992 93.4091C95.5409 92.6451 94.695 91.8347 93.8223 90.8786Z" fill="#FA6B66"/>
<path d="M104.108 78.9287C108.344 79.0554 109.318 79.2159 113.428 80.2398C113.333 82.3422 112.215 84.7406 111.267 86.6622C103.16 82.1948 100.122 85.4205 93.8223 90.8785C93.9965 83.6637 98.0552 81.3942 104.108 78.9287Z" fill="#DE5144"/>
<path d="M116.935 69.8717L120.363 65.7363C122.306 74.971 120.65 89.1105 110.246 92.4683C115.466 84.9232 116.526 78.9944 116.935 69.8717Z" fill="#E37C21"/>
<path d="M145.922 65.4633C147.722 65.3852 149.714 65.7227 151.413 66.3184C154.251 67.3128 157.545 69.6036 158.71 72.4858C159.221 73.7478 159.248 75.1195 158.687 76.3706C157.75 78.4609 155.758 79.3718 153.757 80.1838C150.712 80.2668 148.137 80.2319 145.358 78.7394C142.952 77.4469 140.242 75.1015 139.549 72.3411C139.222 71.0404 139.425 69.7827 140.194 68.6797C141.587 66.6789 143.647 65.9662 145.922 65.4633Z" fill="#FFC271"/>
<path d="M171.625 46.8661C170.91 44.6064 170.913 45.1978 168.542 43.4548C169.218 37.2323 177.51 34.616 181.781 39.4346C181.975 41.5473 182.255 43.054 181.831 45.1378C179.821 48.6643 175.001 50.9742 171.593 48.5922C171.494 47.5935 171.413 47.8015 171.625 46.8661Z" fill="#5A2B0B"/>
<path d="M175.937 46.1125C175.736 44.2919 175.223 41.9547 175.925 40.3727C177.44 39.3325 179.839 39.5094 181.781 39.4346C181.974 41.5473 182.255 43.054 181.83 45.1378C179.821 48.6643 175.001 50.9742 171.593 48.5922C171.493 47.5935 171.413 47.8015 171.625 46.8661L172.981 47.6399C174.839 47.6431 174.166 47.754 175.937 46.1125Z" fill="#8F4709"/>
<path d="M175.937 46.1134C177.283 45.6268 180.288 45.3391 181.83 45.1387C179.821 48.6652 175.001 50.9751 171.593 48.5931C171.493 47.5944 171.413 47.8024 171.625 46.867L172.981 47.6408C174.839 47.644 174.166 47.7549 175.937 46.1134Z" fill="#A45007"/>
<path d="M130.532 49.5071C132.773 49.4372 134.824 49.423 136.953 50.2695C139.419 51.2508 141.431 53.0806 142.447 55.5543C143.098 57.1423 143.256 58.4911 142.539 60.0808L141.49 60.3888C139.877 59.1393 139.586 57.4536 138.885 55.5844C137.957 54.7871 136.932 53.9893 135.845 53.4225C131.726 51.2759 129.548 54.9657 125.874 56.0923C124.905 56.3893 124.935 56.3642 124.065 55.8896C124.071 55.6401 124.043 55.3867 124.085 55.1404C124.566 52.2998 128.292 50.6746 130.532 49.5071Z" fill="#3F2306"/>
<path d="M89.9544 47.5078L89.4301 47.403C83.655 38.1885 82.7839 43.4833 76.9345 46.5708L76.3447 46.0662C77.1879 41.0663 83.703 36.1091 88.2068 40.2139C90.7222 42.5063 91.4316 43.9785 92.5609 47.0158L89.9544 47.5078Z" fill="#3F2306"/>
<path d="M107.462 98.2852L107.92 98.5762C107.542 99.6651 107.001 99.8305 106.011 100.394C102.752 102.249 99.4936 101.795 96.0799 100.817L95.3486 99.5433C95.5097 99.368 95.6217 99.1277 95.8325 99.0174C96.5872 98.621 101.284 99.451 102.5 99.4401C104.136 99.4254 105.905 98.7581 107.462 98.2852Z" fill="#0E0601"/>
<path d="M65.1007 128.379L66.1071 128.888C66.5479 130.835 65.8231 133.098 65.4381 135.033L64.797 135.104C64.7244 134.999 64.6359 134.904 64.5802 134.789C63.7873 133.167 64.6976 130.05 65.1007 128.379Z" fill="#FECC62"/>
<path d="M69.3387 129.015L69.97 129.588C70.2714 131.301 69.4544 133.247 68.9864 134.895L68.2983 134.099C68.0433 132.182 68.6795 130.778 69.3387 129.015Z" fill="#FEBE52"/>
<path d="M67.6825 124.643L68.1779 124.499L68.6814 124.787L67.8573 127.694C67.8 127.625 67.729 127.565 67.6847 127.487C66.9442 126.174 67.1943 126.017 67.6825 124.643Z" fill="#FCB03C"/>
<path d="M102.891 217.122C107.69 221.07 115.997 221.163 120.476 216.592L120.908 216.139L122.239 216.352C124.615 217.706 130.545 217.116 133.52 217.291C140.43 217.7 179.019 218.487 181.955 224.095C177.558 234.634 66.5797 234.552 62.8296 224.346C67.1734 217.318 95.7295 219.503 102.891 217.122Z" fill="#FFDCA8"/>
<path d="M220.23 43.8584C220.358 43.8682 220.487 43.8704 220.614 43.8879C222.386 44.132 225.454 45.1974 226.36 46.8733C226.947 47.9583 227.052 48.9172 226.775 50.0935C225.784 54.2999 221.843 57.6047 218.286 59.7071C217.674 59.6148 217.151 59.4657 216.578 59.2287C214.412 58.3326 212.676 57.5725 211.776 55.3128C212.057 52.1615 217.958 47.2271 220.23 43.8584Z" fill="#F1476A"/>
<path d="M38.3416 165.606C40.0799 166.056 42.1546 166.995 43.3538 168.36C44.1419 169.258 44.4876 170.359 44.398 171.548C44.0944 175.557 39.7653 179.18 36.8366 181.499C35.9065 181.384 34.9929 181.131 34.1136 180.805C32.4868 180.204 31.6338 179.447 30.9069 177.894C30.7709 173.876 35.9901 168.912 38.3416 165.606Z" fill="#FFC300"/>
<path d="M16.0855 23.8099C17.4262 23.6717 18.0679 23.6177 19.3447 24.1752C20.87 25.7501 21.1256 28.1272 21.6236 30.2033L22.0982 30.5026C24.1095 31.7908 25.2307 32.4662 25.7713 34.8761C25.1794 36.8266 23.801 37.9767 22.4035 39.3823C22.2457 39.3681 22.0878 39.3572 21.9305 39.3402C18.6921 38.9924 16.4525 36.8163 14.5586 34.2956C13.2026 32.4897 12.0618 29.4295 12.5719 27.1437C12.9476 25.4585 14.7246 24.6612 16.0855 23.8099Z" fill="#F1476A"/>
<path d="M209.863 135.654C212.37 137.167 215.271 141.628 217.014 144.085C217.903 145.338 218.083 145.726 217.814 147.24C216.55 148.88 214.959 149.757 213.227 150.825C210.309 150.384 208.299 148.29 206.625 145.954C205.526 144.42 204.682 141.565 205.237 139.701C205.909 137.443 207.947 136.675 209.863 135.654Z" fill="#F1476A"/>
<path d="M4.0202 91.4434C4.76018 91.4396 5.35598 91.5996 6.07248 91.7678C7.91069 93.9537 10.5036 95.4276 12.2037 97.6517C13.3428 99.1425 13.5941 100.234 13.4237 102.038C12.4199 103.697 11.1393 104.486 9.54847 105.551C6.87089 105.106 2.75757 102.152 1.22518 99.9523C0.0657897 98.2884 -0.213811 96.7196 0.148261 94.7635C1.10941 93.0663 2.37368 92.4193 4.0202 91.4434Z" fill="#F1476A"/>
<path d="M22.9121 119.737C24.5985 120.038 27.2449 121.031 28.4201 122.346C29.206 123.225 29.396 124.181 29.2753 125.325C28.916 128.718 25.3171 131.554 22.87 133.646C20.1608 132.545 17.3188 131.713 15.8345 129.003C15.8443 125.678 20.4628 123.189 22.4228 120.432L22.9121 119.737Z" fill="#F1476A"/>
<path d="M206.45 13.209C208.11 13.4913 210.089 14.311 211.281 15.5484C212.078 16.3762 212.365 17.3886 212.303 18.5152C212.104 22.134 208.289 25.4973 205.864 27.9071C205.274 27.8847 204.749 27.87 204.185 27.6717C202.532 27.0891 201.237 26.3164 200.4 24.7705C199.799 20.8961 204.321 16.2746 206.45 13.209Z" fill="#4FAF5A"/>
<path d="M44.5411 11.8105C45.9457 12.3151 47.8642 12.8077 48.7838 14.0664C50.3031 16.1464 50.5199 18.8009 49.9492 21.2238C49.2092 24.367 48.0526 25.0485 45.3979 26.6272C44.191 25.9631 43.0688 25.1692 42.0082 24.2883C40.7079 23.2082 40.0455 22.0871 39.9254 20.3801C39.6911 17.0654 42.4992 14.139 44.5411 11.8105Z" fill="#4FAF5A"/>
<path d="M221.608 106.67C223.867 107.153 225.358 108.377 226.862 110.158C228.418 112.001 228.604 113.898 228.343 116.203C227.379 118.043 225.962 118.802 224.265 119.856L223.012 119.887C220.343 118.817 217.627 113.333 216.161 110.923C217.834 109.294 219.707 108.014 221.608 106.67Z" fill="#4FAF5A"/>
<path d="M6.85433 54.7646C10.1687 55.018 11.8927 57.0467 14.1558 59.2316C11.8458 62.0493 9.91854 65.1947 8.00715 68.2925C7.44903 68.2658 6.9346 68.1877 6.39395 68.0419C4.10957 67.4265 2.92779 66.7433 1.77768 64.6874C1.74164 60.7354 4.62347 57.7959 6.85433 54.7646Z" fill="#FFC300"/>
<path d="M12.298 147.497C15.3742 147.852 17.4412 150.013 19.6846 151.945C18.1435 154.733 16.3468 157.413 14.655 160.114C12.0511 160.517 9.18241 158.079 7.06787 156.714C8.95687 153.717 10.6236 150.617 12.298 147.497Z" fill="#4FAF5A"/>
<path d="M207.843 168.817C209.554 169.608 211.371 171.691 212.544 173.136C213.837 174.728 213.877 175.979 213.638 177.939C212.69 179.839 211.222 180.675 209.525 181.835C206.327 181.081 204.277 177.146 202.657 174.558C204.241 172.4 205.869 170.623 207.843 168.817Z" fill="#4FAF5A"/>
</svg>
