<svg width="220" height="232" viewBox="0 0 220 232" fill="none" xmlns="http://www.w3.org/2000/svg">
<path d="M103.02 6.26169C105.817 -6.08125 112.729 3.2915 115.04 5.26051C115.782 5.893 122.49 1.58847 125.686 5.90121C125.81 7.51581 125.893 9.87033 125.147 11.333C125.462 11.7073 125.778 12.0816 126.094 12.4559C131.446 13.4794 136.642 15.1213 141.635 17.3086C143.701 18.2136 145.713 19.36 147.687 20.4965C152.179 16.7967 156.173 14.3227 162.381 14.9107C167.061 15.399 171.348 17.7484 174.277 21.4301C180.868 29.6495 178.654 39.2241 170.705 45.7213C180.654 63.4681 186.039 85.3996 181.235 105.499C192.505 131.757 200.601 164.218 192.718 192.436C199.887 197.625 200.042 204.294 194.819 211.154C195.998 213.147 196.001 212.511 195.966 214.525C190.769 224.288 148.812 232.177 138.036 231.424C136.075 231.613 133.978 231.86 132.025 231.962C104.232 232.089 67.9354 232.124 40.6589 228.05L36.1829 227.061C32.8376 227.338 24.3294 226.177 22.9738 222.736C23.9198 221.118 23.9862 221.485 25.967 220.446C21.9925 216.316 17.9506 208.97 17.2384 204.953C15.6245 195.849 14.2843 188.986 22.6051 184.361C24.7754 183.155 21.7396 178.251 31.4768 176.799C34.0344 172.23 35.1123 170.606 39.6408 168.026C28.8133 152.794 37.2841 136.16 47.865 123.452C27.399 100.395 38.8225 78.6822 45.7404 53.1719C46.4548 50.538 46.9377 50.2659 48.7679 48.3314C41.405 41.8455 39.7721 33.2154 45.5488 25.1719C48.1843 21.4306 52.2258 18.9202 56.7476 18.2167C62.356 17.3829 66.317 19.2655 70.6145 22.51C76.7744 17.8964 83.7499 15.533 90.8926 13.0974C94.2742 12.465 91.1221 9.27668 92.7669 6.70898C95.2991 2.75538 100.088 4.51162 103.02 6.26169Z" fill="#FF9B34"/>
<path d="M70.6145 22.51C76.7744 17.8964 83.7499 15.533 90.8926 13.0974C94.2742 12.465 91.1221 9.27672 92.7669 6.70902C95.2991 2.75542 100.088 4.51167 103.02 6.26173C101.969 7.22127 101.957 6.9911 101.518 8.20172L101.263 8.28158C99.2051 10.2517 97.1371 11.0751 94.3126 10.4054C95.2581 11.4649 97.3988 13.5544 97.6469 14.7722L99.6261 15.4375L99.7212 15.9292C82.2348 21.7328 66.9858 28.5764 57.3452 45.6108C56.5591 47.0002 56.5347 47.4218 57.0212 48.7935L58.7553 49.7078C58.0373 52.5935 53.1874 54.0343 50.9917 58.664C47.2466 66.5605 44.8931 77.1086 43.1236 85.6873L42.3396 88.4822C41.6309 94.5911 41.8479 105.252 44.9652 110.655C47.0976 111.394 48.8702 115.18 51.3577 117.221C54.6271 119.903 58.3971 121.702 61.5627 124.085C68.0086 121.006 63.032 116.586 74.6913 116.269C76.9457 113.584 77.5438 112.931 80.2998 110.796C88.2353 111.254 84.0489 114.939 91.7129 115.435L93.892 114.014C95.337 113.751 96.9824 113.179 98.1111 113.677C99.488 111.562 101.189 110.492 103.393 109.442C107.868 108.29 112.056 107.477 116.178 110.386C116.752 108.666 116.769 106.074 116.885 104.192L117.84 103.541C118.673 104.69 118.468 105.482 118.646 107.132C117.478 113.346 115.995 117.187 110.473 120.898C111.861 123.721 112.755 126.013 116.059 127.031C116.792 127.939 117.495 128.71 118.072 129.717C128.937 133.085 139.085 129.055 149.629 125.06C148.702 126.431 146.559 129.429 145.906 130.778L145.562 131.393C139.825 139.386 135.61 142.634 126.763 146.536L127.565 147.622L128.629 148.495C128.594 149.241 128.543 149.986 128.477 150.73C129.944 151.753 130.822 151.886 130.937 153.262C131.125 155.488 131.17 157.886 131.259 160.11C131.287 160.806 133.765 162.945 133.591 163.477C132.763 166.008 131.49 166.087 131.146 169.029L129.637 170.49C138.795 171.188 149.46 167.217 157.171 162.486L159.491 162.924L158.794 163.608L160.085 165.003C161.594 164.844 163.705 164.304 164.722 164.958L163.729 165.846C162.972 168.439 162.461 167.998 160.103 169.38C154.172 172.857 144.299 177.804 140.936 184.181C141.681 185.389 142.168 186.847 143.694 187.044C146.532 187.411 150.634 189.459 152.187 191.897C153.599 194.115 153.158 198.671 151.862 200.894C152.061 202.881 152.396 204.892 152.089 206.84C153.091 209.251 154.555 212.15 155.692 214.556C161.085 213.785 167.318 210.543 171.621 207.278C185.846 196.483 188.411 182.487 190.812 166.156L191.338 165.806L192.267 167.417L192.844 165.104C192.635 160.454 192.417 153.997 191.276 149.59C189.077 133.943 185.399 123.53 179.835 108.881C178.1 103.679 180.152 98.1128 180.559 92.5828C180.768 89.6924 180.655 86.788 180.223 83.9231C180.211 82.5316 180.092 82.2367 179.786 80.9055C177.482 78.648 175.253 67.7822 173.849 63.9048C172.453 60.0456 171.007 55.8177 169.523 51.9253C167.164 49.5962 166.189 48.7758 164.588 45.9067L163.931 44.7635C164.396 43.1695 169.395 44.3107 172.024 40.9883C177.95 33.4994 175.639 26.1771 169.256 20.3689C166.499 20.3164 163.984 19.4743 161.091 19.2926C156.497 19.0044 150.907 25.0847 147.58 25.3682C147.307 25.3713 146.587 25.1953 146.283 25.1325L146.424 24.1331L146.129 22.9809C141.732 18.6352 130.016 15.844 123.917 14.664C122.944 14.5926 122.451 14.4509 121.498 14.2272C121.223 12.6384 122.844 10.7813 123.907 8.75233C124.53 9.69172 125.005 10.2136 125.147 11.333C125.462 11.7073 125.778 12.0817 126.094 12.4559C131.446 13.4794 136.642 15.1213 141.635 17.3087C143.701 18.2137 145.713 19.3601 147.687 20.4966C152.179 16.7968 156.173 14.3228 162.381 14.9108C167.061 15.3991 171.348 17.7485 174.277 21.4301C180.868 29.6496 178.654 39.2241 170.705 45.7214C180.654 63.4681 186.039 85.3997 181.235 105.499C192.505 131.757 200.601 164.218 192.718 192.436C199.887 197.625 200.042 204.294 194.819 211.155C195.998 213.147 196.001 212.511 195.966 214.525C190.769 224.288 148.812 232.177 138.036 231.424C136.075 231.613 133.978 231.86 132.025 231.962C104.232 232.089 67.9354 232.124 40.6589 228.05L36.1829 227.061C32.8376 227.338 24.3294 226.177 22.9738 222.736C23.9198 221.118 23.9862 221.485 25.967 220.446C21.9925 216.316 17.9506 208.97 17.2384 204.953C15.6245 195.849 14.2843 188.986 22.6051 184.361C24.7754 183.155 21.7396 178.251 31.4768 176.799C34.0344 172.23 35.1123 170.606 39.6408 168.026C28.8133 152.794 37.2841 136.16 47.865 123.452C27.399 100.395 38.8225 78.6823 45.7404 53.1719C46.4548 50.538 46.9377 50.2659 48.7679 48.3314C41.405 41.8456 39.7721 33.2154 45.5488 25.172C48.1843 21.4306 52.2258 18.9203 56.7476 18.2168C62.356 17.3829 66.317 19.2656 70.6145 22.51Z" fill="#402307"/>
<path d="M63.0486 134.3C64.6015 131.166 62.6945 132.122 66.6462 130.198C66.8243 131.209 66.9047 131.921 67.2287 132.903C68.9172 134.661 68.9899 134.639 71.2661 135.063C76.7702 137.8 76.3948 143.166 84.214 140.865C85.1719 140.575 86.1216 140.257 87.0613 139.912C88.8308 139.084 91.2685 137.7 93.0493 136.756C95.0088 136.958 97.2985 137.32 99.2772 137.587C101.292 136.104 103.963 134.09 106.32 133.452C110.303 133.631 110.103 133.268 112.363 130.211L112.763 131.795C111.499 133.81 111.116 135.017 108.566 135.05L109.263 136.264L109.019 136.795L109.084 137.584C109.66 144.989 105.729 142.966 110.645 146.95C107.261 150.21 108.647 151.664 106.654 153.645C105.234 155.589 104.915 156.04 104.001 158.252C103.709 162.472 102.566 172.408 99.7575 175.536L98.9579 175.576C98.0784 175.627 97.9454 175.621 97.1183 175.991C96.8956 178.025 98.7834 178.63 97.9641 180.091C93.6937 187.711 84.2883 204.362 75.1264 205.993L74.4825 205.901L75.1804 206.949C74.291 211.032 70.1186 217.177 65.5112 217.296C65.2262 216.626 64.9499 215.953 64.682 215.277C63.3035 211.763 64.4167 212.313 65.8731 208.959C63.3773 208.294 63.3165 209.53 61.3799 208.518C57.6348 204.016 55.1499 199.67 53.6655 193.995C55.2335 191.454 52.9942 185.383 52.1022 182.632C51.0659 180.037 51.3452 178.45 51.4438 175.67L53.0638 175.274C57.8861 169.343 60.5699 167.761 61.992 159.427C63.533 153.782 59.6369 153.124 60.6099 148.123C61.3004 144.571 57.5886 143.173 54.7584 141.418C56.5809 140.148 55.8301 140.51 58.2745 140.393C57.7392 138.459 57.5918 138.179 57.6572 136.217C58.9386 133.84 59.4007 133.805 62.3129 132.924L63.0486 134.3Z" fill="#A63156"/>
<path d="M63.0485 134.3C64.6014 131.166 62.6944 132.122 66.6461 130.198C66.8242 131.209 66.9046 131.921 67.2286 132.903C68.9171 134.661 68.9898 134.639 71.266 135.063L71.2738 136.102L70.3838 139.228C66.5298 139.594 65.063 141.732 61.8585 141.106C61.8699 141.112 59.5849 140.967 58.2744 140.393C57.7391 138.459 57.5917 138.179 57.6571 136.217C58.9385 133.84 59.4006 133.805 62.3128 132.924L63.0485 134.3Z" fill="#FED779"/>
<path d="M63.0493 134.3C64.6023 131.166 62.6952 132.122 66.6469 130.198C66.825 131.209 66.9055 131.921 67.2294 132.903C68.9179 134.661 68.9906 134.639 71.2668 135.063L71.2746 136.102C68.0794 136.275 65.2591 136.865 63.0493 134.3Z" fill="#FFC300"/>
<path d="M112.364 130.211L112.763 131.794C111.499 133.81 111.116 135.017 108.567 135.05L108.042 134.91C104.935 135.034 103.141 136.541 100.739 138.382L98.7502 139.038C96.1137 141.585 94.9995 142.354 91.337 140.955L90.6028 141.73L89.3853 140.833C84.5629 142.722 80.2712 144.879 75.6222 141.472C74.0324 138.721 73.7354 138.059 71.2744 136.102L71.2666 135.063C76.7707 137.8 76.3953 143.165 84.2145 140.865C85.1725 140.575 86.1221 140.256 87.0619 139.912C88.8313 139.084 91.269 137.7 93.0499 136.755C95.0094 136.958 97.299 137.32 99.2777 137.587C101.292 136.103 103.963 134.089 106.321 133.451C110.303 133.631 110.104 133.268 112.364 130.211Z" fill="#281C05"/>
<path d="M89.3857 140.833L89.6988 140.641C93.9724 138.102 93.9335 138.103 98.7507 139.038C96.1141 141.585 94.9999 142.354 91.3374 140.955L90.6033 141.73L89.3857 140.833Z" fill="#D14B76"/>
<path d="M71.2747 136.102C73.7357 138.058 74.0327 138.721 75.6225 141.472L73.5103 145.126C71.0265 146.789 69.1682 146.411 66.1859 146.213L65.2363 144.484C63.0826 143.497 62.9331 143.236 61.8594 141.106C65.0639 141.732 66.5307 139.594 70.3847 139.227L71.2747 136.102Z" fill="#FDCA73"/>
<path d="M71.2743 136.102C73.7353 138.058 74.0323 138.721 75.6221 141.472L73.51 145.126C71.0261 146.789 69.1679 146.411 66.1855 146.213C68.4093 145.412 70.4981 144.802 71.5235 142.667C71.5043 140.549 71.5593 141.261 70.3844 139.227L71.2743 136.102Z" fill="#F59E3E"/>
<path d="M89.386 140.833L90.6035 141.731C87.886 145.348 77.0258 150.448 73.5107 145.127L75.6229 141.472C80.2718 144.879 84.5636 142.722 89.386 140.833Z" fill="#ED6193"/>
<path d="M106.654 153.646C107.077 151.107 106.676 148.722 107.094 146.111C107.606 142.915 108.435 140.021 109.02 136.795L109.085 137.584C109.661 144.989 105.73 142.967 110.645 146.95C107.262 150.21 108.648 151.664 106.654 153.646Z" fill="#8D2A43"/>
<path d="M100.739 138.382C103.141 136.54 104.935 135.034 108.042 134.91C106.709 137.263 105.728 138.856 103.17 139.708C101.396 139.317 102.208 139.685 100.739 138.382Z" fill="#F1476A"/>
<path d="M51.4438 175.67L53.0638 175.273C52.9485 177.585 53.0482 180.65 52.1022 182.632C51.0659 180.037 51.3452 178.45 51.4438 175.67Z" fill="#8D2A43"/>
<path d="M68.9077 175.31C66.781 174.236 65.3101 173.463 64.7847 171.032C65.1819 168.904 66.335 168.452 67.3739 167.415C68.9601 165.832 66.1299 163.784 68.5442 159.697C70.4736 158.386 69.5972 158.655 71.8433 158.588L72.8843 159.682C73.7773 161.955 73.0452 162.399 72.8095 164.009C72.5016 166.114 76.0312 167.822 75.2887 171.51C73.7898 173.838 71.4996 174.372 68.9077 175.31Z" fill="#BB4460"/>
<path d="M71.8435 158.588C73.3237 162.677 72.3772 164.433 68.6488 166.331C67.2874 163.113 68.8513 160.113 71.8435 158.588Z" fill="#D14B76"/>
<path d="M71.95 166.054C72.0943 166.139 72.2438 166.218 72.383 166.312C73.8009 167.27 74.4157 168.078 74.7812 169.711C73.8134 172.488 71.4141 173.3 68.9583 174.521C68.0554 173.923 66.8228 173.13 66.3046 172.161C65.759 171.139 66.0082 170.737 66.2714 169.677C67.7714 167.858 69.8695 167.058 71.95 166.054Z" fill="#D14B76"/>
<path d="M72.3258 157.119L71.9878 157.386L70.9598 157.054C69.5777 154.702 70.1254 152.663 72.2853 151.106C74.1934 150.536 74.4437 150.627 76.3284 151.318C77.1835 153.669 77.2578 152.83 76.6129 154.895C75.0314 156.272 74.3518 156.373 72.3258 157.119Z" fill="#ED6193"/>
<path d="M76.3273 151.317C77.1824 153.668 77.2566 152.829 76.6118 154.894C75.0303 156.272 74.3506 156.372 72.3247 157.118C73.346 154.28 74.3153 153.383 76.3273 151.317Z" fill="#F1476A"/>
<path d="M65.5209 193.972C66.2021 193.566 67.0495 193.557 67.739 193.95C68.428 194.342 68.8532 195.075 68.8511 195.869C68.849 196.662 68.4207 197.393 67.7296 197.783C66.6788 198.374 65.3475 198.011 64.7432 196.968C64.1383 195.925 64.4851 194.589 65.5209 193.972Z" fill="#D14B76"/>
<path d="M59.4745 189.165C60.5591 189.314 61.1094 189.398 61.9568 190.113C61.6229 191.572 60.6967 191.947 59.557 192.874C58.3509 192.992 58.1796 193.076 57.1406 192.488C57.3151 191.056 58.5155 190.152 59.4745 189.165Z" fill="#4F1D17"/>
<path d="M97.8655 148.026C98.6729 148.18 99.406 148.292 100.139 148.681C101.229 149.259 101.283 149.322 101.615 150.444L100.695 151.495C99.1989 151.21 97.9102 150.94 96.5348 150.272L96.4668 149.421L97.8655 148.026Z" fill="#4F1D17"/>
<path d="M89.3612 176.264C89.5024 176.298 89.6457 176.324 89.7844 176.366C91.3736 176.852 92.3632 177.401 93.207 178.805L92.6696 180.016C91.749 179.731 90.8119 179.462 89.9505 179.023C88.8456 178.458 88.816 178.44 88.4697 177.305L89.3612 176.264Z" fill="#4F1D17"/>
<path d="M57.2764 180.767L58.7743 181.219C60.0406 182.413 60.3309 183.335 60.7805 184.995C59.8849 184.877 59.1673 184.521 58.347 184.162C57.3361 182.751 57.3776 182.434 57.2764 180.767Z" fill="#BB4460"/>
<path d="M79.2764 159.891C81.863 160.332 84.038 160.578 85.6564 162.846C84.3277 162.567 82.9658 162.311 81.6933 161.825C80.2042 161.256 79.9415 161.345 79.2764 159.891Z" fill="#4F1D17"/>
<path d="M86.0868 154.337C86.6689 154.249 87.2524 154.489 87.605 154.96C87.9575 155.431 88.0219 156.059 87.7722 156.592C87.5229 157.125 87.0001 157.478 86.4124 157.509C85.5624 157.555 84.8257 156.926 84.739 156.078C84.6517 155.231 85.2452 154.466 86.0868 154.337Z" fill="#D14B76"/>
<path d="M66.897 181.169C69.7936 181.321 71.7624 181.659 73.941 183.675C71.1524 183.471 68.9852 183.15 66.897 181.169Z" fill="#4F1D17"/>
<path d="M80.9536 188.846C83.4759 189.081 85.1301 189.648 86.9042 191.506C84.4816 191.248 82.8716 190.25 80.9536 188.846Z" fill="#3F0D11"/>
<path d="M128.22 188.356C132.292 188.178 130.504 184.542 139.119 185.904C140.376 187.453 140.22 188.735 140.369 190.776L140.898 191.311C141.705 190.91 141.775 190.939 142.469 190.382C146.243 191.344 148.068 192.332 149.506 196.283L150.583 196.617C151.044 198.519 150.946 199.218 150.744 201.18L151.229 201.377L151.863 200.893C152.061 202.88 152.396 204.892 152.089 206.84C152.094 209.341 152.129 211.842 152.194 214.343C151.323 215.479 150.625 216.252 150.061 217.581C147.185 222.808 143.585 226.831 137.642 228.512C133.255 229.779 128.54 229.18 124.608 226.858C123.393 226.139 121.908 224.911 121.049 223.776C114.25 216.906 113.482 204.184 117.529 195.754L118.597 195.54C120.099 193.41 124.737 188.809 124.724 188.83C125.783 189.508 125.886 189.95 126.634 191.048L127.211 190.915L128.22 188.356Z" fill="#CE6E1F"/>
<path d="M121.049 223.776C123.111 224.062 125.596 225.402 127.79 226.014C136.566 228.458 144.48 224.746 148.377 216.363L148.686 215.688L149.307 215.66L150.06 217.581C147.185 222.808 143.585 226.831 137.642 228.512C133.254 229.779 128.539 229.18 124.608 226.858C123.393 226.139 121.908 224.911 121.049 223.776Z" fill="#AD550C"/>
<path d="M129.321 202.876C130.834 202.728 132.379 202.553 133.873 202.925C136.115 203.482 138.124 205.217 139.283 207.177C140.888 209.891 141.136 213.235 140.223 216.224C139.198 219.582 137.195 221.301 134.24 222.906C133.037 223.066 131.912 223.072 130.707 222.879C128.276 222.487 126.112 221.118 124.714 219.091C122.951 216.485 122.668 213.176 123.423 210.179C124.323 206.603 126.349 204.744 129.321 202.876Z" fill="#8C460B"/>
<path d="M133.049 190.246C134.271 190.49 135.362 190.741 136.291 191.63C137.171 192.474 137.566 193.551 137.515 194.762C137.413 197.204 136.12 198.501 134.423 200.099C133.071 199.861 132.117 199.695 131.048 198.758C130.223 198.035 129.67 197.049 129.675 195.918C129.688 193.408 131.317 191.819 133.049 190.246Z" fill="#8C460B"/>
<path d="M123.824 191.704C125.087 191.943 125.581 192.357 126.544 193.148C127.011 194.089 127.361 194.776 127.238 195.851C126.976 198.13 125.773 199.493 124.076 200.905C123.216 200.549 122.138 199.906 121.516 199.205C120.802 198.399 120.575 197.451 120.649 196.398C120.793 194.366 122.419 192.982 123.824 191.704Z" fill="#8C460B"/>
<path d="M142.505 195.398C143.427 195.446 144.094 195.734 144.943 196.067C145.656 196.912 146.178 197.335 146.323 198.498C146.58 200.572 145.422 202.157 144.243 203.726C143.114 203.637 142.173 203.505 141.211 202.809C140.41 202.229 140.087 201.279 140.026 200.34C139.892 198.283 141.243 196.849 142.505 195.398Z" fill="#8C460B"/>
<path d="M92.9506 119.177C96.2258 119.021 98.3156 120.399 99.3997 123.384C101.081 124.567 101.329 124.223 103.829 124.024L103.096 125.928L103.605 126.414L106.258 125.926L109.807 125.357C111.69 126.83 112.271 126.78 112.959 128.791L112.364 130.212C110.104 133.269 110.304 133.632 106.321 133.452C103.964 134.09 101.293 136.104 99.2782 137.588C97.2995 137.321 95.0098 136.959 93.0503 136.756C91.2694 137.701 88.8318 139.085 87.0623 139.912C86.1226 140.257 85.1729 140.576 84.215 140.866C76.3958 143.166 76.7712 137.801 71.2671 135.064C68.9909 134.64 68.9182 134.662 67.2297 132.903C66.9057 131.922 66.8252 131.209 66.6472 130.199C62.6955 132.122 64.6025 131.166 63.0496 134.3L62.3139 132.924C62.0392 130.689 62.0839 129.867 63.3216 128.165L61.2106 127.656L61.0693 127.061C61.8211 125.769 63.0262 125.641 64.6861 124.957L67.2796 124.842C67.5869 125.237 67.8112 125.399 67.9042 125.818C70.3673 124.776 72.2977 125.968 74.4695 125.136C75.307 124.815 76.4814 122.83 77.8418 122.077C80.456 123.771 79.7581 123.435 82.6678 122.567C82.7171 120.787 82.7036 120.884 83.5738 119.321C85.1869 120.243 90.1319 119.005 92.9506 119.177Z" fill="#FFBC13"/>
<path d="M71.1474 130.727L72.5446 131.039C72.9745 128.983 71.2642 129.546 72.6064 127.589C75.8592 127.082 74.2408 128.02 77.2953 128.737L78.4137 127.069C82.8976 127.261 82.0466 128.409 87.9022 128.118C90.6939 129.651 93.9193 130.855 92.4909 134.488C91.0491 135.69 90.7267 135.665 88.8471 136.163C87.9894 137.661 87.6732 138.299 87.0621 139.911C86.1223 140.256 85.1727 140.574 84.2148 140.864C76.3955 143.165 76.7709 137.8 71.2668 135.062C68.9906 134.638 68.9179 134.661 67.2295 132.902L69.6293 132.537L71.1474 130.727Z" fill="#FFD639"/>
<path d="M67.2295 132.903L69.6293 132.537C71.5456 133.222 72.7159 133.815 74.7497 133.738C75.2709 134.187 75.1822 134.033 75.2606 134.248C78.5606 138.636 82.098 138.753 86.1888 135.437L86.7039 136.444C88.114 136.753 87.4172 136.792 88.8471 136.164C87.9894 137.662 87.6732 138.3 87.0621 139.912C86.1223 140.257 85.1727 140.575 84.2148 140.865C76.3955 143.166 76.7709 137.8 71.2668 135.063C68.9906 134.639 68.9179 134.661 67.2295 132.903Z" fill="#FFC300"/>
<path d="M75.2603 134.248C78.2358 131.711 82.8988 130.09 85.9362 133.405C86.0421 134.096 86.1786 134.747 86.1885 135.437C82.0977 138.753 78.5603 138.636 75.2603 134.248Z" fill="#FFE889"/>
<path d="M92.9494 119.177C96.2245 119.021 98.3143 120.399 99.3984 123.384C95.8642 123.766 95.5631 126.37 91.5974 127.283C85.4687 128.693 85.5169 123.974 82.6665 122.567C82.7158 120.787 82.7023 120.884 83.5725 119.321C85.1857 120.243 90.1306 119.005 92.9494 119.177Z" fill="#FFC300"/>
<path d="M106.257 125.925L109.807 125.355C111.689 126.829 112.27 126.779 112.959 128.789L112.364 130.211C110.104 133.268 110.303 133.63 106.321 133.451C107.767 132.336 108.799 131.472 109.115 129.68C108.746 127.825 107.705 127.22 106.257 125.925Z" fill="#FBB343"/>
<path d="M64.6861 124.956L67.2796 124.841C67.5869 125.236 67.8112 125.398 67.9042 125.817C66.575 126.586 64.7469 127.772 63.3216 128.164L61.2106 127.655L61.0693 127.06C61.8211 125.769 63.0262 125.64 64.6861 124.956Z" fill="#FFE889"/>
<path d="M66.6465 130.198C69.0042 129.833 68.89 129.508 71.147 130.728L69.6288 132.537L67.229 132.902C66.9051 131.921 66.8246 131.208 66.6465 130.198Z" fill="#FFE889"/>
<path d="M99.2286 128.458C99.74 128.445 99.944 128.419 100.495 128.519C101.718 128.738 102.386 129.059 103.018 130.077C102.399 132.082 100.351 133.563 98.8599 134.977C97.4591 134.224 95.7665 133.792 94.2598 133.267C95.7795 131.475 97.4581 129.993 99.2286 128.458Z" fill="#FFD841"/>
<path d="M79.0586 219.752C91.6436 223.591 104.523 224.537 117.639 224.227C122.495 229.216 125.059 230.767 132.024 231.962C104.232 232.089 67.9352 232.124 40.6587 228.05C50.1513 227.311 49.3803 224.595 58.2125 222.921C63.5946 221.9 67.7342 222.427 73.0296 222.203C73.7186 222.174 78.109 220.181 79.0586 219.752Z" fill="#1C7F50"/>
<path d="M104.003 158.252C104.552 162.088 108.082 169.38 111.467 171.932C112.08 172.401 112.708 172.851 113.347 173.283C110.498 183.824 106.133 194.102 97.9164 201.636C96.6926 201.617 96.1942 201.093 95.1812 200.385L94.541 200.813C94.783 202.067 94.9896 202.189 95.7181 203.222C94.865 206.882 85.8516 211.041 82.4732 212.664C80.0132 209.194 78.9514 208.197 75.1274 205.992C84.2893 204.362 93.6947 187.71 97.9652 180.091C98.7845 178.63 96.8967 178.025 97.1194 175.99C97.9465 175.621 98.0794 175.626 98.959 175.576L99.7586 175.536C102.567 172.407 103.71 162.472 104.003 158.252Z" fill="#842D37"/>
<path d="M121.001 147.201C122.904 146.909 124.845 146.736 126.762 146.537L127.564 147.622L128.629 148.496C128.594 149.242 128.543 149.987 128.477 150.73C129.943 151.754 130.821 151.886 130.937 153.263C131.124 155.489 131.17 157.886 131.259 160.111C131.286 160.806 133.764 162.946 133.59 163.478C132.763 166.008 131.49 166.088 131.146 169.029L129.636 170.491C129.042 170.887 128.931 170.822 128.65 171.352L125.862 173.876C121.651 173.869 114.666 171.441 111.524 168.348C110.44 167.408 110.185 167.383 109.864 165.988C111.654 164.23 112.363 165.687 114.737 164.093C112.591 162.281 109.649 164.052 107.103 160.839C106.673 159.202 106.693 159.293 107.154 157.649C108.521 155.598 108.751 155.413 110.913 154.221C112.099 153.779 113.987 153.639 115.568 153.212C113.421 151.579 112.292 152.745 110.652 151.079C113.39 147.311 116.766 147.37 121.001 147.201Z" fill="#CE6E1F"/>
<path d="M111.525 168.348C115.63 168.652 122.974 170.703 128.65 171.351L125.862 173.876C121.651 173.868 114.667 171.441 111.525 168.348Z" fill="#C26317"/>
<path d="M110.653 151.078C113.391 147.31 116.766 147.369 121.002 147.2L121.032 148.108C119.143 149.224 114.369 149.509 110.653 151.078Z" fill="#F59E3E"/>
<path d="M110.913 154.221L111.18 154.898C109.84 156.641 109.788 156.806 107.928 157.876L107.154 157.648C108.522 155.598 108.751 155.413 110.913 154.221Z" fill="#FBB343"/>
<path d="M192.844 165.104C194.132 195.278 182.826 223.424 148.544 224.358C150.529 221.358 153.208 218.128 152.194 214.344C152.129 211.843 152.094 209.342 152.089 206.841C153.091 209.251 154.555 212.15 155.691 214.556C161.084 213.785 167.317 210.544 171.621 207.278C185.846 196.484 188.411 182.488 190.811 166.156L191.337 165.806L192.267 167.418L192.844 165.104Z" fill="#DF7A24"/>
<path d="M45.0314 115.01C41.5454 109.091 39.5413 102.416 39.1903 95.5555C38.5023 84.0505 44.8424 63.566 49.1762 52.7127C56.4513 34.4919 77.4698 15.8729 97.6466 14.7715L99.6258 15.4367L99.7208 15.9284C82.2345 21.732 66.9854 28.5756 57.3448 45.61C56.5588 46.9994 56.5343 47.421 57.0208 48.7927L58.755 49.707C58.0369 52.5928 53.187 54.0335 50.9913 58.6632C47.2463 66.5597 44.8927 77.1078 43.1233 85.6865L42.3393 88.4814C41.6306 94.5903 41.8476 105.251 44.9649 110.654C45.5054 112.743 45.8008 113.14 45.0314 115.01Z" fill="#FED779"/>
<path d="M49.678 124.534C52.0529 129.089 53.5389 125.488 55.9262 129.066C54.6079 131.7 51.5352 140.446 51.2061 140.91C49.4377 141.358 48.1407 141.35 47.0867 142.512C49.5275 144.338 51.9755 142.584 56.6058 145.564L55.8327 145.818C53.4542 146.576 49.8707 146.678 47.6339 148.361C45.352 150.078 43.9003 153.831 42.2295 156.046L40.5598 155.373L39.9782 154.827C38.7867 157.405 40.4045 157.76 38.5966 159.947L38.4777 159.125C34.6725 147.11 42.1942 134.838 49.1697 125.622L49.678 124.534Z" fill="#F59E3E"/>
<path d="M49.1697 125.623L50.569 128.155C46.6454 135.119 41.5208 141.205 39.3791 149.313C38.6818 151.951 39.3054 156.821 38.4777 159.125C34.6725 147.111 42.1942 134.838 49.1697 125.623Z" fill="#FED779"/>
<path d="M56.6063 145.564C57.6707 146.452 58.1847 146.695 58.5476 148.027C57.6354 149.696 56.4859 149.708 54.3473 150.417L54.9236 150.834C56.9693 152.33 61.9152 156.478 58.6889 159.566C57.6525 160.558 53.9345 160.728 52.2933 160.983L52.6547 161.843C55.1064 162.713 54.9059 162.18 55.7964 163.891L55.5747 165.714C51.9361 166.114 50.2699 166.743 46.5867 165.987C44.1288 165.483 42.8256 164.075 40.5068 164.543C39.6205 162.956 39.2088 161.644 38.5972 159.948C40.405 157.76 38.7872 157.406 39.9788 154.828L40.5603 155.374L42.2301 156.047C43.9009 153.832 45.3526 150.079 47.6345 148.361C49.8712 146.678 53.4548 146.576 55.8332 145.819L56.6063 145.564Z" fill="#CE6E1F"/>
<path d="M40.5601 155.373L42.2298 156.046C42.1961 157.874 42.2698 158.156 41.627 159.818C40.7698 158.731 40.7418 156.828 40.5601 155.373Z" fill="#F6A14A"/>
<path d="M194.819 211.153C195.998 213.145 196.001 212.51 195.966 214.524C190.769 224.286 148.812 232.176 138.036 231.423C141.12 230.299 143.317 229.292 145.784 227.144C160.054 226.748 169.93 223.292 181.012 214.364C186.842 215.191 190.147 214.783 194.819 211.153Z" fill="#1C7F50"/>
<path d="M118.072 129.717C128.937 133.085 139.085 129.055 149.629 125.061C148.703 126.432 146.559 129.429 145.906 130.778L145.562 131.394L144.99 131.093C140.926 131.912 128.854 148.379 120.416 144.285C120.01 142.537 118.961 136.36 119.232 134.283C119.407 132.938 119.713 135.217 120.795 133.112C119.597 132.394 119.05 132.006 117.929 131.159L118.072 129.717Z" fill="#DF7A24"/>
<path d="M103.393 109.442C107.868 108.29 112.057 107.477 116.179 110.386L114.689 113.556C110.843 118.545 108.507 119.494 102.287 117.812C100.841 116.561 100.763 116.371 99.7224 114.727L98.1113 113.678C99.4883 111.562 101.189 110.492 103.393 109.442Z" fill="#FA725F"/>
<path d="M103.393 109.442C107.868 108.29 112.057 107.477 116.179 110.386L114.689 113.556C109.792 108.665 104.715 113.244 99.7224 114.727L98.1113 113.678C99.4883 111.562 101.189 110.492 103.393 109.442Z" fill="#E85343"/>
<path d="M115.156 128.572C116.528 130.054 116.389 130.497 116.597 132.643C116.967 136.777 117.298 140.915 117.589 145.056C114.393 145.477 113.663 145.782 110.645 146.95C105.729 142.967 109.66 144.989 109.085 137.584L109.019 136.795L109.263 136.264L108.567 135.05C111.116 135.018 111.499 133.81 112.763 131.795L115.156 128.572Z" fill="#842D37"/>
<path d="M81.0052 113.007C83.3188 115.072 81.4268 115.622 83.5737 119.32C82.7035 120.883 82.717 120.787 82.6677 122.566C79.758 123.434 80.4559 123.77 77.8417 122.076C76.4813 122.83 75.3069 124.814 74.4694 125.135C72.2976 125.967 70.3672 124.775 67.9041 125.818C67.8111 125.399 67.5868 125.236 67.2795 124.841L64.686 124.956L67.1372 122.145C69.0261 118.312 70.9373 118.723 74.7488 118.921C76.2955 118.173 78.9642 114.749 81.0052 113.007Z" fill="#FFD639"/>
<path d="M67.1367 122.144C69.0256 118.311 70.9368 118.722 74.7483 118.92C74.5042 121.026 74.4549 121.29 73.3142 123.068C71.7234 123.903 72.4456 123.77 70.2893 123.102L69.3973 121.844C68.2785 121.702 68.239 121.811 67.1367 122.144Z" fill="#FFE889"/>
<path d="M129.636 170.49C138.794 171.188 149.459 167.217 157.17 162.486L159.49 162.924L158.793 163.608C147.166 172.34 140.244 174.202 125.861 173.875L128.649 171.351C128.931 170.822 129.042 170.886 129.636 170.49Z" fill="#DF7A24"/>
<path d="M44.9653 110.655C47.0977 111.395 48.8703 115.181 51.3578 117.222C54.6272 119.904 58.3972 121.703 61.5628 124.086C58.3328 124.59 57.0431 126.011 55.9268 129.067C53.5395 125.488 52.0535 129.089 49.6787 124.535C50.5395 124.679 51.4014 124.814 52.2648 124.941C52.1387 123.652 46.8537 118.023 45.0318 115.011C45.8013 113.142 45.5058 112.744 44.9653 110.655Z" fill="#EB882E"/>
<path d="M75.1814 206.949C77.8044 208.758 79.1346 210.277 80.6735 213.098C76.7878 217.472 70.9903 223.293 65.5122 217.296C70.1196 217.177 74.292 211.032 75.1814 206.949Z" fill="#842D37"/>
<path d="M140.936 184.181L140.06 182.964C142.191 175.333 156.717 168.139 163.729 165.846C162.972 168.44 162.461 167.998 160.103 169.38C154.172 172.857 144.299 177.804 140.936 184.181Z" fill="#EB882E"/>
<path d="M49.2224 175.268C49.0947 174.284 49.0625 173.237 49.0049 172.242C50.3901 170.456 54.7904 170.603 56.2488 168.808C60.0312 164.155 57.0713 163.783 61.9928 159.427C60.5707 167.761 57.8869 169.343 53.0646 175.274L51.4446 175.67L49.2224 175.268Z" fill="#72262B"/>
<path d="M169.522 51.925L170.741 51.3398C174.247 58.9555 179.364 72.5268 179.786 80.9052C177.481 78.6477 175.253 67.7819 173.849 63.9045C172.452 60.0453 171.007 55.8174 169.522 51.925Z" fill="#FED779"/>
<path d="M147.581 25.3683C151.47 17.1301 161.963 14.8518 169.256 20.3689C166.499 20.3164 163.984 19.4743 161.091 19.2926C156.497 19.0044 150.907 25.0848 147.581 25.3683Z" fill="#FED779"/>
<path d="M61.2102 127.655L63.3213 128.164C62.0835 129.866 62.0388 130.688 62.3135 132.923C59.4013 133.805 58.9392 133.839 57.6578 136.217C57.5923 138.178 57.7398 138.459 58.2751 140.393C55.8307 140.509 56.5814 140.147 54.759 141.418L54.4106 141.017C54.7107 138.239 57.3603 130.056 59.2714 128.376L61.3877 129.103L61.2102 127.655Z" fill="#FFC300"/>
<path d="M90.8955 117.755C97.2854 114.148 97.6706 115.453 101.868 121.085C102.544 122.252 102.918 122.999 103.828 124.024C101.328 124.223 101.081 124.567 99.3991 123.384C98.3149 120.399 96.2252 119.021 92.95 119.177L90.8955 117.755Z" fill="#FBB343"/>
<path d="M49.2222 175.267L51.4444 175.669C51.3457 178.449 51.0664 180.036 52.1027 182.631C52.9947 185.383 55.2341 191.454 53.6661 193.995C50.3146 186.69 49.5799 183.254 49.2222 175.267Z" fill="#D04774"/>
<path d="M101.869 121.084C104.06 120.651 105.709 120.068 107.771 120.757C109.423 122.173 109.481 123.146 109.807 125.356L106.257 125.925L103.604 126.413L103.096 125.928L103.828 124.023C102.918 122.998 102.545 122.251 101.869 121.084Z" fill="#F59E3E"/>
<path d="M25.9673 220.446C29.7202 223.61 31.555 225.411 36.1832 227.061C32.838 227.339 24.3298 226.177 22.9741 222.736C23.9201 221.119 23.9866 221.485 25.9673 220.446Z" fill="#1C7F50"/>
<path d="M81.0054 113.007C83.2566 113.162 83.3387 113.196 85.1149 114.976C87.0297 116.896 88.6164 116.896 90.8962 117.754L92.9507 119.176C90.132 119.005 85.187 120.242 83.5739 119.32C81.427 115.622 83.319 115.072 81.0054 113.007Z" fill="#FFBC13"/>
<path d="M40.5073 164.542C42.8261 164.075 44.1293 165.482 46.5872 165.986C50.2705 166.742 51.9366 166.113 55.5752 165.713C50.9885 171.028 44.6677 169.497 40.5073 164.542Z" fill="#C26317"/>
<path d="M94.3125 10.4062C94.8296 8.42145 95.2325 7.63091 97.0892 6.82958C99.1795 6.78259 99.3986 7.1031 101.263 8.28241C99.205 10.2525 97.137 11.076 94.3125 10.4062Z" fill="#FED779"/>
<path d="M164.588 45.9062C169.308 46.4171 168.987 46.872 170.74 51.3397L169.522 51.9248C167.164 49.5957 166.189 48.7753 164.588 45.9062Z" fill="#DF7A24"/>
<path d="M142.468 190.382C147.319 188.309 150.46 191.899 150.582 196.617L149.505 196.283C148.067 192.332 146.242 191.344 142.468 190.382Z" fill="#F59E3E"/>
<path d="M128.22 188.357C131.183 183.816 134.61 182.346 139.119 185.905C130.504 184.543 132.292 188.179 128.22 188.357Z" fill="#F59E3E"/>
<path d="M117.529 195.754C118.806 192.261 120.606 188.587 124.724 188.831C124.736 188.809 120.099 193.411 118.597 195.54L117.529 195.754Z" fill="#F59E3E"/>
<path d="M115.156 128.572L116.059 127.031C116.792 127.939 117.495 128.71 118.072 129.717L117.929 131.159L117.438 132.074L116.773 131.756L116.598 132.642C116.39 130.496 116.529 130.053 115.156 128.572Z" fill="#371907"/>
<path d="M25.1415 185.633C26.7464 179.928 30.8788 177.514 35.778 181.643L35.9898 181.966C36.9093 183.395 37.0952 183.846 37.6835 185.432L38.4285 185.377L39.2328 184.259C40.7265 183.21 40.8366 183.002 42.5583 183.064C44.496 183.892 44.7389 184.428 46.1621 186.096C46.5266 186.61 47.1174 187.381 47.4004 187.907C48.1164 189.798 48.8521 191.682 49.606 193.557C50.6418 194.487 50.729 194.365 51.2835 195.586C53.9123 201.544 55.9922 204.833 55.5161 211.524C55.4631 226.5 39.9514 228.277 30.3107 220.618C23.3747 214.25 14.8129 199.214 20.3576 189.056C20.9251 188.016 21.3705 187.984 22.4349 187.806C23.6078 188.91 23.8617 189.264 24.8165 190.579C25.7256 189.558 25.2262 187.413 25.1415 185.633Z" fill="#CE6E1F"/>
<path d="M53.2698 213.779L54.2994 215.834C54.5257 212.988 54.0668 213.493 55.5164 211.524C55.4634 226.501 39.9516 228.277 30.311 220.619C38.4314 219.344 47.0061 229.471 53.2698 213.779Z" fill="#AD550C"/>
<path d="M51.2835 195.587C53.9122 201.544 55.9921 204.834 55.516 211.524C54.0664 213.493 54.5254 212.987 54.299 215.834L53.2694 213.779C53.4107 206.561 50.4688 201.842 51.2835 195.587Z" fill="#C26317"/>
<path d="M25.1411 185.633C26.746 179.928 30.8783 177.514 35.7776 181.643C27.2325 180.168 30.3763 182.515 25.1411 185.633Z" fill="#FDCA73"/>
<path d="M47.3996 187.908C48.1156 189.799 48.8513 191.683 49.6052 193.559L48.4666 194.802L47.5969 194.58C46.6836 192.808 46.3607 189.679 47.3996 187.908Z" fill="#F6A14A"/>
<path d="M39.2329 184.259C40.7267 183.211 40.8367 183.002 42.5584 183.065C44.4961 183.893 44.7391 184.429 46.1622 186.097L45.277 186.378C43.8616 186.166 42.156 184.733 39.2329 184.259Z" fill="#F59E3E"/>
<path d="M35.221 198.238C36.3171 198.247 37.3155 198.322 38.383 198.596C41.5522 199.41 43.9972 201.748 45.5433 204.568C47.1186 207.442 47.697 210.923 46.723 214.089C45.8185 217.027 44.0257 218.209 41.4255 219.532C40.5886 219.506 39.7713 219.382 38.9494 219.223C35.6769 218.592 33.0715 216.631 31.3098 213.803C29.6162 211.084 28.9314 207.691 29.7917 204.573C30.6733 201.376 32.5243 199.866 35.221 198.238Z" fill="#8C460B"/>
<path d="M30.5956 186.592C31.9289 186.753 32.9761 186.964 34.0301 187.854C35.1459 188.796 35.7487 189.994 35.8037 191.456C35.8785 193.447 35.0493 194.559 33.7674 195.982C32.6506 195.8 31.6615 195.607 30.7306 194.92C29.567 194.063 28.7836 192.981 28.6003 191.526C28.3246 189.345 29.242 188.19 30.5956 186.592Z" fill="#8C460B"/>
<path d="M22.8749 191.165C23.7228 191.415 24.2648 191.663 24.972 192.187C26.174 193.078 26.8967 194.389 27.0556 195.872C27.2612 197.8 26.6387 198.94 25.4107 200.357C24.8147 200.212 24.2623 199.997 23.7264 199.697C22.579 199.053 21.648 197.908 21.3739 196.604C20.9336 194.512 21.8012 192.885 22.8749 191.165Z" fill="#8C460B"/>
<path d="M39.9993 188.004C41.0984 188.038 41.8399 188.152 42.7568 188.806C43.8217 189.565 44.4992 190.715 44.6197 192.018C44.8045 194.01 44.0496 195.24 42.8726 196.764C42.4001 196.63 42.4297 196.661 42.0195 196.473C40.626 195.833 39.3513 194.732 38.9027 193.215C38.3077 191.202 38.9816 189.718 39.9993 188.004Z" fill="#8C460B"/>
<path d="M116.011 174.189C124.59 177.445 134.165 176.926 142.976 175.099C141.607 176.524 139.173 180.476 137.558 181.266C135.724 182.162 132.239 181.065 130.191 182.163C128.662 182.984 127.859 185.11 126.406 186.045C124.871 187.032 121.996 186.887 120.193 187.487C118.252 188.133 117.081 189.684 116.189 191.445C113.364 197.026 111.526 206.094 112.766 212.29C113.351 215.211 114.597 218.228 115.543 221.061C114.689 221.754 113.846 221.556 112.773 221.598C102.712 221.612 90.1549 221.235 80.7173 217.505L80.8009 216.752C83.2661 214.539 86.7593 213.277 89.6767 211.719C103.338 204.423 111.726 188.423 116.011 174.189Z" fill="#DF7A24"/>
<path d="M49.7262 24.6014C52.0979 22.2125 55.2832 20.8055 58.6466 20.6617C62.4321 20.4665 65.4653 21.7001 68.2535 24.1616C67.5245 25.7737 63.0967 29.1952 61.4597 30.9294C57.5516 28.6272 55.8663 27.2623 51.7204 30.0067L51.4302 30.0005C49.2313 30.3074 47.9058 30.121 45.7324 29.9387C47.1987 27.3728 47.5263 26.6138 49.7262 24.6014Z" fill="#EB882E"/>
<path d="M49.7266 24.6014C52.0983 22.2125 55.2836 20.8055 58.647 20.6617C62.4326 20.4665 65.4658 21.7001 68.2539 24.1616C64.6106 24.5115 61.4092 22.8106 58.6263 22.8465C56.6881 22.8714 52.5209 24.3049 49.7266 24.6014Z" fill="#FED779"/>
<path d="M45.7332 29.9395C47.9066 30.1217 49.2321 30.3081 51.431 30.0012L51.7212 30.0075C54.6599 32.617 55.7965 29.5719 56.6339 33.8698C55.9854 35.8106 54.3505 39.3899 53.0239 40.9231C52.0026 42.4838 51.5005 43.6894 49.8282 44.3561C44.1252 43.4843 44.8433 34.2021 45.7332 29.9395Z" fill="#CE6E1F"/>
<path d="M51.4308 30.001L51.721 30.0072C54.6597 32.6167 55.7963 29.5716 56.6337 33.8695C55.9853 35.8103 54.3503 39.3897 53.0237 40.9229C49.3327 36.6062 49.9604 35.1753 51.4308 30.001Z" fill="#8C460B"/>
<path d="M34.9627 177.854L34.4414 176.839C35.349 173.612 38.9969 170.722 42.0291 169.546C44.3697 171.214 45.1324 170.858 46.7689 173.351C47.1957 175.636 46.4402 178.009 47.3862 182.898L41.9579 180.255C39.879 181.115 40.2451 181.332 38.3453 181.049C37.107 179.298 36.8749 178.802 34.9627 177.854Z" fill="#F59E3E"/>
<path d="M42.0295 169.546C44.3701 171.214 45.1328 170.858 46.7694 173.351C47.1961 175.636 46.4407 178.009 47.3867 182.898L41.9584 180.255C43.0596 179.61 43.0197 179.476 43.866 178.497C44.2185 176.408 44.2112 177.212 43.4708 175.109L41.5337 172.885L42.0295 169.546Z" fill="#DF7A24"/>
<path d="M34.9627 177.854L34.4414 176.839C35.349 173.612 38.9969 170.722 42.0291 169.546L41.5332 172.885L38.3432 176.224C36.8458 177.309 36.7207 177.502 34.9627 177.854Z" fill="#FBB343"/>
<path d="M41.5333 172.886L43.4704 175.109C41.3001 176.619 40.9419 177.559 38.3433 176.225L41.5333 172.886Z" fill="#EB882E"/>
<path d="M190.12 200.073C190.911 198.018 190.821 197.287 192.37 196.001C195.817 196.359 195.639 202.308 195.396 204.941C193.54 208.976 189.709 213.479 184.71 211.818L184.303 210.874C184.732 209.109 188.783 202.764 190.12 200.073Z" fill="#CE6E1F"/>
<path d="M190.119 200.073C190.909 198.018 190.82 197.287 192.369 196.001C195.815 196.359 195.638 202.308 195.394 204.941C193.293 204.496 192.874 205.529 191.313 204.65C190.847 203.101 190.5 201.646 190.119 200.073Z" fill="#F59E3E"/>
<path d="M57.6899 207.886C57.7792 207.955 57.8726 208.02 57.9583 208.094C60.9666 210.713 63.0964 215.06 63.3778 219.078L62.1234 219.709C60.2776 220.191 58.3877 220.89 56.6369 220.018C56.2356 218.363 56.612 217.094 57.0476 215.472C57.748 212.866 57.7283 210.562 57.6899 207.886Z" fill="#CE6E1F"/>
<path d="M87.974 67.0734C103.44 57.9952 122.415 67.3314 124.223 85.2002C124.409 87.033 123.925 92.2603 122.569 93.3381C124.28 97.5166 121.646 99.3619 118.955 102.614L118.646 107.131C118.468 105.482 118.672 104.689 117.84 103.54L116.884 104.191C116.769 106.073 116.752 108.665 116.178 110.386C112.056 107.476 107.868 108.289 103.393 109.441C101.189 110.491 99.4878 111.561 98.1109 113.677C96.9822 113.179 95.3368 113.75 93.8919 114.013L91.7127 115.434C84.0488 114.938 88.2351 111.254 80.2996 110.796C81.2165 110.569 81.5441 110.394 82.4117 110.006C82.8811 108.548 81.8852 106.911 81.6848 104.463L81.6479 103.966L80.3437 102.344C72.8718 96.0598 72.5561 79.4983 80.9507 75.2477C82.9122 75.555 83.4896 75.3499 85.3473 74.6682L84.4439 73.3806C85.0493 71.133 85.947 71.0115 86.5321 68.322L86.6354 67.8241L87.974 67.0734Z" fill="#402307"/>
<path d="M87.9739 67.0734C103.44 57.9952 122.415 67.3314 124.223 85.2002C124.409 87.033 123.925 92.2603 122.569 93.3381C120.97 95.1138 120.093 97.7249 118.695 99.0519C116.604 101.037 112.611 102.932 109.729 102.86C107.218 102.798 105.034 101.731 103.314 99.9626C98.6649 95.1828 99.0849 89.157 99.0019 83.0922C102.788 81.4433 109.653 78.92 109.097 73.9273C106.31 70.9471 96.2823 71.9777 92.7231 72.8194L92.9079 74.094L91.8565 74.3391C89.9075 73.7197 90.5445 73.9647 89.0939 71.9481L86.4246 74.3894L85.3473 74.6682L84.4438 73.3806C85.0492 71.133 85.9469 71.0115 86.5321 68.322L86.6354 67.8241L87.9739 67.0734Z" fill="#CE6E1F"/>
<path d="M85.3473 74.6678L84.4438 73.3802C85.0492 71.1326 85.9469 71.0111 86.5321 68.3216L86.6354 67.8237L87.9739 67.073C90.8804 67.1727 94.4448 66.5351 96.5694 68.8647L96.3477 70.0106C93.5725 71.4597 92.2241 72.0573 89.0939 71.9477L86.4246 74.389L85.3473 74.6678Z" fill="#DF7A24"/>
<path d="M88.6291 68.0353C89.1374 67.5721 89.8576 67.4226 90.5081 67.6459C91.1582 67.8691 91.6353 68.4293 91.7516 69.1069C91.8679 69.7845 91.6052 70.4719 91.0668 70.8992C90.2724 71.5295 89.1213 71.4173 88.4645 70.6448C87.8072 69.8727 87.8799 68.7185 88.6291 68.0353Z" fill="#FDCA73"/>
<path d="M86.4246 74.3906C87.9288 79.8708 91.5767 81.3131 96.4832 83.15C96.5237 88.7647 96.8072 92.8082 97.9307 98.3995C89.5601 109.277 83.8868 98.9939 80.3437 102.345C72.8718 96.061 72.5561 79.4996 80.9507 75.2489C82.9122 75.5562 83.4896 75.3511 85.3473 74.6694L86.4246 74.3906Z" fill="#CE6E1F"/>
<path d="M90.4829 106.333C95.4782 104.694 96.135 104.073 99.6827 100.275C104.694 103.725 107.047 104.408 113.037 104.517C114.285 104.302 115.865 103.813 116.885 104.192C116.769 106.074 116.752 108.666 116.178 110.386C112.056 107.477 107.868 108.29 103.393 109.442C101.189 110.492 99.488 111.562 98.1111 113.678C96.9823 113.18 95.337 113.751 93.892 114.014C92.0494 112.852 91.0909 108.471 90.4829 106.333Z" fill="#71310E"/>
<path d="M113.037 104.517C114.285 104.301 115.865 103.813 116.885 104.191C116.769 106.073 116.752 108.666 116.178 110.386C112.056 107.476 107.868 108.289 103.393 109.441L102.681 108.024C103.416 106.168 104.109 106.124 105.922 104.803C107.999 104.866 111.223 105.195 113.037 104.517Z" fill="#9E470F"/>
<path d="M81.6482 103.967C84.1975 105.093 85.4742 105.657 88.1762 106.424C89.0578 110.278 89.5375 112.038 91.713 115.435C84.049 114.939 88.2353 111.254 80.2998 110.796C81.2167 110.57 81.5443 110.395 82.4119 110.007C82.8813 108.549 81.8855 106.912 81.685 104.463L81.6482 103.967Z" fill="#EB882E"/>
<path d="M43.1234 85.6878C45.9307 81.745 47.3637 80.0887 52.131 78.7757C55.9747 77.7165 61.9638 81.1925 61.7805 85.0943C61.3532 94.2099 46.2422 98.8381 42.3394 88.4826L43.1234 85.6878Z" fill="#FFC271"/>
<path d="M103.02 6.26169C105.817 -6.08125 112.729 3.2915 115.04 5.26051C115.782 5.893 122.49 1.58847 125.686 5.90121C125.81 7.51581 125.893 9.87033 125.147 11.333C125.005 10.2136 124.53 9.69168 123.907 8.75229L123.07 6.71386C120.81 8.26497 118.381 10.0523 115.682 10.5075L114.826 10.1955L113.165 12.2676L112.541 12.2323C112.553 10.9631 112.581 9.6937 112.501 8.42701L112.452 7.70859L111.148 7.88954C110.572 7.03042 110.59 6.96842 110.264 5.97389C108.546 6.57066 106.697 8.53719 105.266 9.83326C105.794 10.9216 105.786 11.2602 106.049 12.4345L105.513 12.6549C103.652 10.9099 103.047 10.1667 101.518 8.20168C101.957 6.99106 101.969 7.22122 103.02 6.26169Z" fill="#4D270B"/>
<path d="M105.266 9.83247C105.054 6.66961 105.057 5.15225 107.56 3.12566C111.042 2.39302 111.706 4.80662 112.451 7.7078L111.148 7.88875C110.572 7.02963 110.59 6.96763 110.264 5.97311C108.546 6.56987 106.697 8.5364 105.266 9.83247Z" fill="#FED779"/>
<path d="M114.826 10.1953C117.388 6.95969 118.939 5.21393 123.07 6.71369C120.81 8.2648 118.381 10.0521 115.682 10.5073L114.826 10.1953Z" fill="#FDCA73"/>
<path d="M180.223 83.9229C180.656 86.7878 180.768 89.6922 180.56 92.5826C180.153 98.1126 178.101 103.679 179.835 108.881L178.788 110.322C176.247 112.987 170.547 113.44 165.45 118.716C168.234 113.049 171.253 110.282 173.984 104.639C176.318 99.8166 177.251 94.4917 179.243 89.7218C180.416 86.9166 180.143 87.1154 180.223 83.9229Z" fill="#DF7A24"/>
<path d="M145.906 130.777C147.181 130.164 150.712 127.632 151.339 127.439C152.079 132.847 134.441 147.625 127.565 147.621L126.763 146.536C135.61 142.633 139.825 139.385 145.563 131.393L145.906 130.777Z" fill="#FED779"/>
<path d="M178.787 110.322L179.834 108.881C185.399 123.53 189.077 133.943 191.276 149.59C190.955 150.192 191.196 149.944 190.494 150.269C189.639 148.524 188.347 141.632 187.574 138.932C184.768 129.358 181.839 119.82 178.787 110.322Z" fill="#FED779"/>
<path d="M123.916 14.6641C130.016 15.844 141.731 18.6353 146.129 22.981L146.423 24.1331C146.058 24.1814 145.147 24.3241 144.859 24.132C140.923 21.5059 126.031 17.3243 123.442 15.7319L123.916 14.6641Z" fill="#FED779"/>
<path d="M157.171 162.487C162.009 158.515 164.741 155.662 168.69 151.012C167.874 153.071 166.542 157.218 164.984 158.463C162.957 158.893 161.182 161.298 159.49 162.924L157.171 162.487Z" fill="#DF7A24"/>
<path d="M159.491 162.924C161.183 161.298 162.957 158.893 164.985 158.463C163.23 161.123 162.251 162.694 160.085 165.004L158.794 163.609L159.491 162.924Z" fill="#371907"/>
<path d="M151.435 75.7513C153.695 75.7279 155.964 76.013 157.998 77.0555C160.252 78.2108 162.176 80.3452 162.815 82.8249C163.223 84.4074 163.003 86.0029 162.123 87.3902C160.676 89.6711 158.247 90.5454 155.738 91.0921C153.542 91.0589 151.327 90.9286 149.282 90.0594C146.919 89.0548 144.59 87.0704 143.769 84.5715C143.258 83.0201 143.428 81.4044 144.278 80.0062C145.855 77.4102 148.681 76.4943 151.435 75.7513Z" fill="#FFC271"/>
<path d="M159.479 36.1903C157.934 34.0232 156.825 35.3503 155.609 33.0601C155.755 28.1297 163.29 23.0712 168.198 27.2066C171.754 34.7682 164.861 40.1747 159.509 37.6051L159.479 36.1903Z" fill="#4D270B"/>
<path d="M168.198 27.2061C171.754 34.7677 164.861 40.1741 159.509 37.6046L159.479 36.1898L160.428 36.9883L161.741 36.4525C164.658 33.2158 163.448 32.871 161.724 29.2309C163.619 27.8426 165.847 28.0466 168.198 27.2061Z" fill="#8C460B"/>
<path d="M132.912 61.7487C134.356 61.7237 135.707 61.879 137.101 62.2829C140.394 63.2372 142.655 65.9069 144.136 68.8845C144.736 70.0901 144.436 70.9894 144.003 72.1742L143.018 72.5719C141.202 71.6285 139.645 68.398 138.234 66.7693C136.878 66.1265 135.271 65.4827 133.739 65.5814C132.075 65.6883 131.351 66.721 130.273 67.8181C129.526 68.5787 128.824 69.4095 127.863 69.9048C126.835 70.4359 126.662 70.4847 125.58 70.1368C125.314 69.2236 125.092 68.8015 125.463 67.8669C126.685 64.7881 129.996 62.8655 132.912 61.7487Z" fill="#402307"/>
<path d="M69.8312 64.7946C71.3389 64.7068 72.6743 64.7614 74.1245 65.2343C76.1639 65.8994 79.0933 68.1387 80.0206 70.1351C80.3819 70.9128 80.2412 70.8573 79.9946 71.5888C76.1743 72.6698 75.4645 68.267 70.3467 68.4518C70.1541 68.4586 69.9615 68.47 69.7694 68.4793C68.1842 69.4939 67.111 70.3547 66.0352 71.9097C64.8063 73.6848 64.2331 75.1142 62.0566 75.6183L61.3416 75.0467C61.2835 74.2274 61.2881 73.6449 61.5872 72.8635C63.1495 68.7784 65.9719 66.5147 69.8312 64.7946Z" fill="#402307"/>
<path d="M80.4137 28.9786C79.2792 29.2611 79.2652 29.2247 78.0913 29.3125L77.5425 28.5259C78.1728 25.8665 82.6447 22.6117 85.5715 23.6667L85.7132 25.1287C84.4505 26.5597 83.4604 27.6178 82.0871 28.9417L80.4137 28.9786Z" fill="#FDCA73"/>
<path d="M80.4131 28.9797C81.9302 26.7192 83.2293 26.0489 85.7126 25.1299C84.4499 26.5608 83.4598 27.6189 82.0865 28.9429L80.4131 28.9797Z" fill="#F59E3E"/>
<path d="M154.502 177.19C153.566 175.325 153.647 176.08 153.798 174.121L154.707 173.479C156.673 173.628 157.617 173.725 159.534 174.154L159.807 174.813C158.938 175.383 158.415 175.726 157.77 176.568L154.502 177.19Z" fill="#FBB343"/>
<path d="M157.77 176.568L158.233 177.978C157.295 179.529 157.099 179.596 155.624 180.727C153.676 180.121 156.17 178.712 151.376 180.162C152.221 178.761 153.154 178.096 154.502 177.191L157.77 176.568Z" fill="#FDCA73"/>
<path d="M149.625 133.125C150.331 133.538 150.397 133.678 150.79 134.358C150.326 136.247 148.657 137.573 147.335 138.933C146.758 138.828 147.103 138.951 146.45 138.28C146.956 136.244 148.356 134.748 149.625 133.125Z" fill="#FED779"/>
<path d="M85.7135 25.1296L87.9747 24.7402L88.2727 25.4832C86.955 27.2687 85.5375 27.9759 83.671 29.1908C82.6097 29.2256 82.9628 29.357 82.0874 28.9426C83.4607 27.6187 84.4508 26.5605 85.7135 25.1296Z" fill="#FDCA73"/>
<path d="M91.0083 24.6504L91.8094 25.1426C91.4444 26.5626 89.6983 27.7246 88.6277 28.6737L87.9341 28.3902C88.2217 26.9022 89.9304 25.7225 91.0083 24.6504Z" fill="#FED779"/>
<path d="M151.277 129.077C152.448 129.142 152.986 129.004 153.925 129.74L153.616 131.47L152.049 131.727L151.373 131.164L151.277 129.077Z" fill="#FDCA73"/>
<path d="M153.168 134.176L153.818 134.554C153.528 136.076 152.435 137.005 151.453 138.175L150.999 138.021L150.815 137.347L153.168 134.176Z" fill="#FDCA73"/>
<path d="M200.238 97.4926C196.126 90.4653 191.947 79.4084 198.06 72.1578C200.833 68.8702 204.843 71.4283 207.008 74.0783C207.899 76.3788 208.077 77.9884 209.98 79.5636C213.014 79.3284 213.334 75.8716 218.695 80.5003C219.206 81.1617 219.474 81.7188 219.693 82.5158C222.373 92.2368 206.199 96.0352 200.238 97.4926Z" fill="#FF8C00"/>
<path d="M199.572 73.3047C200.36 73.6178 200.48 73.787 201.005 74.4158C200.62 75.9002 199.771 76.4526 198.704 77.5284C198.113 77.6545 198.457 77.6561 197.696 77.301C197.809 75.6509 198.656 74.6354 199.572 73.3047Z" fill="#FFC300"/>
<path d="M7.33946 91.6209C8.45206 91.6131 9.5116 91.6526 10.5143 92.1832C13.9231 93.9874 21.6375 100.599 22.4687 104.543C22.72 105.735 21.9329 106.444 21.3187 107.385C19.3426 106.462 17.4394 105.426 15.5402 104.356C11.7598 102.225 6.78219 99.9219 5.52686 95.4215C5.60583 93.6499 6.22244 92.9532 7.33946 91.6209Z" fill="#FFC300"/>
<path d="M1.99796 116.746C6.02974 116.504 15.3828 115.574 18.673 118.153C19.4096 118.731 19.3467 118.968 19.4 119.831C18.3406 121.296 17.9865 121.349 16.3652 121.992C12.5473 123.033 5.63686 125.253 1.87122 123.421C0.575436 122.79 0.400359 122.236 0 120.917C0.284421 119.108 0.855912 118.161 1.99796 116.746Z" fill="#FFC300"/>
</svg>
