<svg width="235" height="232" viewBox="0 0 235 232" fill="none" xmlns="http://www.w3.org/2000/svg">
<path d="M61.1339 25.2833C66.0223 21.4297 68.989 19.4997 74.803 17.062C76.8631 16.198 81.5215 14.5238 83.098 13.4383C83.2822 0.780842 88.2159 7.33055 92.9322 5.90569L94.4545 3.20541C96.1657 0.122606 98.0585 -0.871321 101.314 0.815566C103.123 1.75372 104.55 6.02618 106.357 5.20852C109.722 3.68106 112.644 2.29199 114.647 6.54709C115.336 8.01141 114.366 11.8072 115.304 11.9866C125.582 13.9534 131.087 16.1643 140.137 21.8769C159.11 8.74962 178.896 34.3928 160.379 48.04C161.691 51.6037 163.065 56.3308 164.91 59.5072C169.99 68.2563 171.671 74.1231 171.301 84.2591C173.115 82.2776 175.314 79.9993 177.026 77.9846C178.102 57.3058 185.267 69.0629 189.273 67.4834C193.467 65.8286 197.59 56.959 202.818 68.1516L203.358 68.2553C205.802 68.7393 207.601 68.9267 209.124 70.8487C209.794 72.8492 209.53 77.4016 210.281 78.0856C217.68 84.8205 207.863 90.7652 205.12 95.5443C198.431 107.197 192.043 115.984 182.038 125.158C184.673 136.774 187.377 148.374 190.152 159.958C197.689 191.841 195.984 187.013 164.506 194.681C162.862 201.555 161.381 206.386 157.391 212.35C160.781 215.423 161.649 215.897 162.383 220.523C166.897 220.754 190.707 221.705 192.324 225.712C186.975 233.408 44.447 234.757 38.5804 225.712C39.6259 222.364 48.535 223.44 52.8252 221.101L53.2793 218.87C54.2406 216.656 55.0668 214.691 56.2192 212.557L53.2156 206.552C38.2941 206.273 34.6091 193.089 38.4467 183.568C38.9498 182.32 34.8475 167.96 34.5955 166.001C30.4737 148.128 37.9579 127.392 48.7997 113.326C38.2568 99.3043 36.9376 87.4351 39.3676 70.0621C40.1706 64.4332 41.3898 58.8722 43.0152 53.4237C33.4536 49.7905 28.9956 41.3266 32.8448 31.5042C34.6218 26.9034 38.2583 23.2671 42.8594 21.4902C49.5227 18.9535 55.8429 20.9672 61.1339 25.2833Z" fill="#3F2306"/>
<path d="M96.6411 218.465C103.296 219.253 111.878 218.418 119.144 219.01C120.272 221.078 121.4 223.11 122.426 225.233C131.448 230.749 158.848 232.658 162.384 220.522C166.897 220.754 190.707 221.704 192.324 225.711C186.975 233.407 44.4472 234.757 38.5806 225.712C39.6261 222.364 48.5352 223.439 52.8254 221.1L53.2795 218.869C53.5889 227.335 61.5229 228.861 68.7677 229.49C75.4931 230.074 87.6641 230.241 92.9724 225.202C94.7289 223.535 93.9101 220.799 96.6411 218.465Z" fill="#FFDCA8"/>
<path d="M116.098 214.18L119.144 219.011C111.878 218.419 103.297 219.254 96.6411 218.466C97.7114 217.3 99.4021 215.571 100.278 214.337C106.034 214.5 110.352 214.477 116.098 214.18Z" fill="#FBF9F7"/>
<path d="M95.4008 8.06311C95.8407 5.80007 95.7644 5.33337 97.2088 3.67332C99.1753 2.82566 98.2049 2.90564 100.21 3.29658C102.574 5.13448 102.674 6.33571 102.644 9.28382C102.372 11.0607 102.046 11.1659 102.659 12.5076C104.115 11.4885 104.18 11.1975 105.132 9.63056C107.254 6.92712 108.664 5.71431 111.951 7.08971C114.662 10.1936 109.105 11.7889 109.956 14.1545L111.271 14.4292C120.464 14.6186 130.799 18.1487 138.12 23.7302C139.452 24.571 141.112 25.555 142.359 26.4736C142.555 26.1337 142.805 24.9436 142.917 24.489L142.821 23.2572C146.674 19.0873 156.451 20.6516 160.175 24.5284C165.749 29.4802 167.166 44.2865 159.024 44.7632C156.68 43.2147 157.731 43.5056 155.072 43.5156C159.608 51.4176 159.662 55.891 163.793 62.9464C165.781 66.3407 165.636 65.2273 167.049 69.253C168.267 73.9375 168.981 79.015 168.253 83.8468C167.104 93.9055 162.698 97.3592 161.682 103.365C164.9 103.188 169.21 92.0086 170.404 89.3789C172.695 94.5516 166.869 98.7341 166.109 103.259L166.55 104.278C167.917 104.456 168.458 104.468 169.797 104.48C164.013 105.467 158.123 107.033 152.773 107.925C141.904 110.582 131.013 113.149 120.101 115.624C119.505 113.733 118.376 108.909 116.425 108.448C108.535 106.583 96.4874 110.107 100.13 120.235C89.4095 122.99 78.6624 125.638 67.8895 128.179C63.2878 129.306 53.5568 131.466 49.776 133.294C48.1564 134.068 46.8051 135.309 45.8958 136.857C44.2493 139.63 44.3588 143.121 45.1823 146.139C46.3299 150.628 51.3962 165.766 48.9772 168.851C52.0992 171.813 53.5499 169.99 57.0187 172.597C58.6046 174.318 62.1765 177.505 59.5486 179.476C58.0069 179.525 57.3091 179.479 55.7958 179.911L55.8 180.747C58.2052 181.646 60.3227 182.079 61.6955 184.096C62.0586 188.961 59.0219 188.539 55.3895 190C56.2236 191.2 57.4591 191.384 58.9093 191.879C58.4236 193.268 58.1831 193.884 57.5491 195.204C45.8079 198.23 39.4488 184.245 40.136 174.536C40.2186 173.365 40.0045 173.589 39.3599 172.527L38.398 169.769C32.1904 150.316 39.0021 133.744 49.0583 117.358L50.4964 115.056C52.0534 114.601 51.5056 114.71 53.4447 115.767C53.5047 115.419 53.5641 115.071 53.6241 114.723C50.5601 111.56 48.3058 108.788 46.3773 105.08C43.5953 99.7848 42.2503 94.549 41.5262 88.6696C41.0858 83.7068 41.1579 78.7114 41.7404 73.7628C42.2435 67.5461 43.439 61.4053 45.3044 55.4538L45.7601 53.7453C47.4549 52.2831 47.9585 51.8822 49.2472 50.0759C48.26 50.3274 47.2576 50.5131 46.2463 50.6304C34.945 51.9701 30.3229 36.2961 38.4901 27.6444L39.191 26.933C45.709 21.0699 55.5406 21.7134 60.7321 28.8882L62.3254 29.1629C63.6025 22.9568 81.0503 16.7648 86.6938 15.6804L88.2208 15.321L88.4034 14.6244C86.3375 12.4755 85.1709 12.0862 86.0597 9.24593C88.8322 6.65562 91.0933 8.11995 93.477 10.3956C94.6168 12.1588 95.9591 13.7962 97.2541 15.4536C96.679 13.3321 95.7102 10.1473 95.4008 8.06311Z" fill="#FF9B34"/>
<path d="M38.3058 152.064C38.8615 153.895 38.9731 159.364 39.1199 159.606C41.4646 163.465 42.0545 167.395 43.3763 171.301C45.138 171.247 44.1104 170.759 45.6674 170.074C47.3739 170.077 47.5812 169.796 48.9772 168.851C52.0992 171.812 53.5499 169.989 57.0186 172.596C58.6046 174.318 62.1764 177.505 59.5486 179.476C58.0068 179.525 57.3091 179.479 55.7957 179.911L55.7999 180.747C58.2052 181.646 60.3226 182.079 61.6955 184.096C62.0586 188.961 59.0219 188.539 55.3895 190C56.2235 191.2 57.459 191.384 58.9093 191.878C58.4236 193.267 58.1831 193.884 57.549 195.204C45.8079 198.23 39.4488 184.245 40.136 174.535C40.2186 173.365 40.0044 173.589 39.3598 172.527L38.3979 169.769C38.7179 169.797 39.3782 169.663 39.7319 169.609C40.2886 168.381 38.8926 163.542 38.5074 161.838C37.9675 160.142 38.2511 154.193 38.3058 152.064Z" fill="#E37C21"/>
<path d="M38.3058 152.064C38.8615 153.895 38.9731 159.364 39.1199 159.606C41.4646 163.465 42.0545 167.395 43.3763 171.301C45.138 171.247 44.1104 170.759 45.6674 170.074C47.3739 170.077 47.5812 169.796 48.9772 168.851C52.0992 171.812 53.5499 169.989 57.0186 172.596C55.0922 173.875 53.7525 175.012 51.5109 175.477C45.428 173.824 48.3905 175.682 44.7981 177.582C44.073 176.436 44.6503 174.655 44.8423 172.936C43.9083 172.818 43.6868 172.786 42.7896 172.513L41.7588 170.103C40.8016 170.937 40.0823 171.468 39.3598 172.527L38.3979 169.769C38.7179 169.797 39.3782 169.663 39.7319 169.609C40.2886 168.381 38.8926 163.542 38.5074 161.838C37.9675 160.142 38.2511 154.193 38.3058 152.064Z" fill="#F9A248"/>
<path d="M38.5069 161.839L39.4146 161.717C40.3381 163.418 42.0577 168.345 41.7583 170.104C40.8011 170.938 40.0818 171.469 39.3594 172.527L38.3975 169.77C38.7174 169.798 39.3778 169.664 39.7314 169.61C40.2881 168.382 38.8921 163.543 38.5069 161.839Z" fill="#EA8429"/>
<path d="M164.835 71.1098C160.953 77.9284 152.265 77.678 148.327 71.0141C145.96 67.0063 149.445 63.0669 153.353 62.0893C156.518 61.2974 158.266 62.2492 161.059 63.7567C162.278 66.1449 163.553 68.7847 164.835 71.1098Z" fill="#FFC271"/>
<path d="M46.377 105.08C46.5648 103.149 46.4606 102.176 46.1533 100.255L46.5085 99.4229C49.2826 101.617 51.2875 105.701 54.5883 108.68C59.5515 113.16 65.7022 115.881 70.0423 120.476C66.19 119.226 59.7509 117.01 55.8244 117.26C55.093 116.862 54.1684 116.229 53.4444 115.767C53.5044 115.419 53.5638 115.071 53.6238 114.723C50.5597 111.56 48.3055 108.788 46.377 105.08Z" fill="#E37C21"/>
<path d="M49.0583 117.358L50.8511 119.468C45.3723 127.459 37.9718 142.136 38.3059 152.065C38.2512 154.193 37.9676 160.142 38.5075 161.838C38.8927 163.543 40.2887 168.382 39.732 169.609C39.3784 169.663 38.718 169.798 38.398 169.769C32.1904 150.316 39.0021 133.744 49.0583 117.358Z" fill="#FED675"/>
<path d="M152.773 107.925C155.654 103.939 159.699 100.79 162.567 96.1021C164.99 92.1417 166.011 87.191 168.253 83.8467C167.104 93.9054 162.698 97.3591 161.683 103.365C164.901 103.187 169.21 92.0086 170.404 89.3788C172.695 94.5515 166.87 98.734 166.11 103.259L166.55 104.278C167.917 104.456 168.458 104.468 169.798 104.48C164.013 105.467 158.123 107.033 152.773 107.925Z" fill="#EA8429"/>
<path d="M147.123 32.0654C150.864 28.7116 153.772 26.2349 158.266 30.0012C160.114 33.5928 160.306 38.9871 154.892 38.8235L152.273 38.8298C151.917 36.2815 149.016 33.9164 147.123 32.0654Z" fill="#3F2306"/>
<path d="M158.266 30.002C160.114 33.5936 160.306 38.9878 154.892 38.8242C154.473 35.7393 153.064 34.0818 152.971 32.1224C154.349 30.8002 156.298 30.9085 158.266 30.002Z" fill="#8F4709"/>
<path d="M161.059 63.7572C161.491 58.8896 152.67 43.9723 151.517 39.1626L152.273 38.8301C154.907 41.403 154.305 42.9126 155.072 43.5161C159.609 51.4181 159.662 55.8915 163.793 62.9469C165.781 66.3412 165.636 65.2278 167.049 69.2535L166.739 70.5147C165.626 71.084 166.064 70.9751 164.835 71.1103C163.552 68.7852 162.278 66.1454 161.059 63.7572Z" fill="#FCB03C"/>
<path d="M62.3252 29.1631C63.6023 22.957 81.0501 16.7651 86.6936 15.6807L87.9407 16.3778C87.3903 17.1434 82.3424 18.7798 80.6791 19.5559C74.7178 22.3761 68.9748 25.6373 63.4997 29.3136L62.3252 29.1631Z" fill="#FED675"/>
<path d="M111.27 14.4297C120.463 14.6191 130.799 18.1491 138.12 23.7307L136.338 24.7504C131.511 22.2438 126.495 20.1196 121.336 18.398C118.624 17.503 112.821 16.5117 111.27 14.4297Z" fill="#FED675"/>
<path d="M38.4901 27.6445L39.1147 28.9647L38.921 29.3109C34.7903 36.8603 34.9314 44.2687 42.9865 49.0989C44.8055 48.9248 47.4281 48.406 48.9341 49.1736L49.2472 50.076C48.26 50.3275 47.2576 50.5133 46.2463 50.6306C34.945 51.9702 30.3229 36.2963 38.4901 27.6445Z" fill="#E37C21"/>
<path d="M45.1823 146.141C46.33 150.629 51.3962 165.767 48.9773 168.853C47.5813 169.797 47.374 170.078 45.6675 170.075C46.0264 169.765 47.7734 168.154 47.7386 167.804C46.8393 158.773 43.5248 155.644 45.1823 146.141Z" fill="#F59437"/>
<path d="M45.3042 55.4541C46.2414 56.1192 46.8996 56.2597 46.8107 57.0473C46.0851 63.5002 44.1323 71.54 43.2762 77.9009L43.0089 77.8903C41.8155 76.6107 42.0449 75.7599 41.7402 73.7631C42.2433 67.5464 43.4388 61.4056 45.3042 55.4541Z" fill="#FECC62"/>
<path d="M39.1909 26.9328C45.709 21.0697 55.5405 21.7132 60.732 28.888C52.9248 29.2111 54.5134 20.6562 40.6001 27.5237L39.1909 26.9328Z" fill="#FED675"/>
<path d="M142.917 24.4883L142.821 23.2565C146.674 19.0867 156.451 20.651 160.174 24.5278C158.827 24.7124 154.352 22.874 152.571 22.2868C148.696 22.7551 146.198 24.2663 142.917 24.4883Z" fill="#FECC62"/>
<path d="M41.5262 88.6705C41.0858 83.7077 41.1579 78.7123 41.7404 73.7637C42.045 75.7605 41.8156 76.6113 43.009 77.8909L43.2764 77.9014C43.2774 80.487 43.2879 87.0136 41.5262 88.6705Z" fill="#FEBE52"/>
<path d="M95.4004 8.06311C95.8403 5.80007 95.764 5.33337 97.2084 3.67332C99.1748 2.82566 98.2045 2.90564 100.209 3.29658C102.574 5.13448 102.674 6.33571 102.644 9.28382C101.601 8.18256 99.8336 5.37441 98.9144 4.00322C97.7025 5.9453 97.2032 7.53958 95.4004 8.06311Z" fill="#FED675"/>
<path d="M49.0576 117.359L50.4957 115.056C52.0528 114.601 51.505 114.71 53.444 115.767C54.1681 116.229 55.0926 116.862 55.824 117.261C53.0836 119.015 52.7416 118.482 50.8504 119.468L49.0576 117.359Z" fill="#F59437"/>
<path d="M86.0596 9.24666C88.8321 6.65635 91.0932 8.12068 93.4769 10.3963C91.1895 10.3627 87.5182 10.5526 86.0596 9.24666Z" fill="#FED675"/>
<path d="M105.133 9.63013C107.254 6.9267 108.665 5.71389 111.952 7.08928C110.928 8.26369 106.563 9.4886 105.133 9.63013Z" fill="#FED675"/>
<path d="M138.121 23.7305C139.452 24.5713 141.112 25.5552 142.359 26.4739L141.425 26.9117C139.506 26.9201 138.068 25.7673 136.339 24.7502L138.121 23.7305Z" fill="#FECC62"/>
<path d="M94.1367 91.5049C93.6142 91.0897 93.6626 91.1455 93.0891 90.5867C89.9682 87.5318 88.2812 83.3025 88.4422 78.9385C89.5493 49.1917 140.974 43.5791 137.231 83.6945C136.618 86.4353 135.636 87.3819 134.044 89.6344L133.829 89.9348C132.545 95.4501 129.095 100.217 124.257 103.162C113.114 109.986 103.699 105.456 97.9928 94.7503C96.6936 93.6848 95.4081 92.603 94.1367 91.5049Z" fill="#D06E1B"/>
<path d="M114.669 86.4474C114.581 82.2238 114.814 76.2156 113.189 72.4945L112.444 72.2151C109.23 71.0034 104.028 69.2149 102.583 66.0143C102.684 65.234 102.929 63.6523 103.797 63.4045C107.455 62.3616 125.721 58.941 125.036 65.2424C123.133 67.9495 119.866 70.271 116.872 71.6511L116.249 71.9331C117.293 80.4712 115.127 96.1294 130.943 88.9677C132.404 88.3063 133.873 84.1954 135.521 82.9494L137.231 83.6945C136.618 86.4353 135.636 87.3819 134.044 89.6344L133.829 89.9348C132.545 95.4501 129.095 100.217 124.257 103.162C113.114 109.986 103.699 105.456 97.9927 94.7503C96.6935 93.6848 95.408 92.603 94.1367 91.5049C94.3467 91.2165 95.5017 89.4613 96.0668 89.797C103.954 94.4877 109.371 95.0881 114.669 86.4474Z" fill="#3F2306"/>
<path d="M133.829 89.9346C132.545 95.4498 129.095 100.217 124.257 103.161C113.114 109.986 103.699 105.455 97.9927 94.75C101.903 95.8266 103.899 96.1286 108.076 95.4488L108.721 95.252C113.478 98.0712 115.86 97.5813 120.724 95.3877L121.851 93.0616C126.193 94.5091 130.398 92.4328 133.829 89.9346Z" fill="#D06E1B"/>
<path d="M108.075 95.4478L108.721 95.251C113.478 98.0702 115.86 97.5803 120.723 95.3867L120.859 96.016C117.236 99.2193 110.489 100.596 108.075 95.4478Z" fill="#5A2B0B"/>
<path d="M116.077 89.2139C118.502 91.3375 118.925 91.6669 121.85 93.0612L120.724 95.3874C115.86 97.581 113.478 98.0708 108.721 95.2516C112.065 93.6142 113.661 91.8968 116.077 89.2139Z" fill="#F66D2F"/>
<path d="M94.9088 65.7383C97.0221 63.2259 102.737 57.6375 106.185 57.909L106.182 59.0307C104.369 60.1262 95.6776 66.2897 94.6494 66.1214L94.9088 65.7383Z" fill="#FCB03C"/>
<path d="M123.9 58.6572C126.27 58.814 127.341 59.8158 128.977 61.4033C128.71 61.3675 128.442 61.3359 128.176 61.2954C126.136 60.985 125.102 60.3178 123.9 58.6572Z" fill="#F19837"/>
<path d="M106.181 59.0308C108.368 58.7136 108.263 58.3274 109.574 59.2529L109.757 60.0032L107.019 60.6188L106.252 60.0769L106.181 59.0308Z" fill="#F59437"/>
<path d="M61.1654 72.3841C63.3933 72.2378 65.9449 71.9089 68.1007 72.5693C70.0182 73.1565 71.9804 74.5219 72.8676 76.3666C73.4911 77.6773 73.5458 79.1879 73.0175 80.5401C71.811 83.6982 68.739 85.1357 65.8586 86.3964C63.3875 86.8973 60.7907 87.474 58.3039 86.75C56.6306 86.2627 54.9678 85.1046 54.1359 83.5461C53.3202 82.0171 53.325 80.2281 53.8991 78.6196C55.143 75.1375 58.0271 73.7647 61.1654 72.3841Z" fill="#FFC271"/>
<path d="M41.944 33.8266C46.1773 29.0053 54.1155 32.3028 54.9675 37.2935C54.1413 39.9659 51.8039 39.8549 50.2374 43.3996C48.251 44.8787 44.8834 44.3194 43.4352 42.1831C41.2031 38.8904 41.241 37.5518 41.944 33.8266Z" fill="#3F2306"/>
<path d="M41.944 33.8271C43.8962 33.8592 46.3699 33.6208 47.8895 34.6516C49.5692 38.108 46.4451 37.7649 50.2374 43.4001C48.251 44.8792 44.8834 44.3199 43.4352 42.1836C41.2031 38.8909 41.241 37.5523 41.944 33.8271Z" fill="#8F4709"/>
<path d="M77.7899 57.1612C79.0054 57.0486 80.2683 56.9018 81.4886 56.9918C84.119 57.1859 87.3883 59.2164 89.0601 61.2558C89.7852 62.1403 89.893 62.3718 89.8125 63.4515C87.2415 64.7348 83.4923 60.5192 79.8431 60.3219C79.6684 60.3124 79.4932 60.3071 79.318 60.2998C74.7669 62.2655 74.3333 66.3275 71.8607 67.4267C71.0019 67.8081 70.662 67.4493 69.8169 67.161C69.8748 66.2817 69.7932 66.4296 70.0458 65.7356C71.6454 61.341 73.7676 59.1995 77.7899 57.1612Z" fill="#3F2306"/>
<path d="M137.76 51.2703C139 51.1461 140.405 51.1113 141.633 51.3529C144.124 51.8427 146.108 53.5606 147.378 55.6927C148.211 57.0902 148.408 58.0978 148.043 59.6347L147.069 59.8699C145.318 58.6008 144.14 56.5487 142.329 55.1539C142.197 55.0518 142.062 54.9529 141.929 54.8524C137.19 54.0368 135.429 57.9447 131.204 59.3648L130.955 58.5292C132.901 54.8161 134.041 53.2676 137.76 51.2703Z" fill="#3F2306"/>
<path d="M75.7762 24.2471L76.3403 24.7938C76.3476 26.2018 75.2037 27.3073 74.3939 28.3833L73.7866 27.8208C73.965 26.1776 74.7722 25.5325 75.7762 24.2471Z" fill="#FEBE52"/>
<path d="M121.395 21.7764C122.919 21.98 123.632 22.1368 124.619 23.3222L124.074 23.5506C122.62 23.277 122.405 22.8134 121.395 21.7764Z" fill="#FECC62"/>
<path d="M129.077 24.0611C129.891 23.7128 129.423 23.8022 130.503 23.9569L130.797 24.925L129.743 25.0692L129.077 24.0611Z" fill="#FED675"/>
<path d="M53.5427 167.99C51.62 161.809 45.7381 142.692 48.266 137.451C52.363 133.705 74.486 129.135 80.9167 127.589L123.434 117.478L155.147 110.051C159.395 109.082 167.133 107.139 171.245 106.647C173.068 107.969 174.154 108.672 175.726 110.324C181.994 131.639 185.802 155.36 191.295 176.975C192.074 180.041 191.841 184.102 188.237 185.632C178.042 188.704 167.58 191.238 157.26 193.905L78.1815 213.922C62.4981 217.741 64.7624 212.838 60.9379 199.767L59.9008 195.374L57.5492 195.204C58.1833 193.884 58.4237 193.267 58.9094 191.878L59.8145 190.766C61.6236 190.032 60.9869 190.231 63.1743 190.615C63.2853 188.849 63.6042 187.56 63.9683 185.825L64.3135 184.705C62.2787 179.594 63.5952 177.108 60.2265 172.248C58.1969 170.903 55.6522 169.096 53.5427 167.99Z" fill="#FDEBCE"/>
<path d="M53.5427 167.99C51.62 161.809 45.7381 142.692 48.266 137.451C52.363 133.705 74.486 129.135 80.9167 127.589L123.434 117.478L155.147 110.051C159.395 109.082 167.133 107.139 171.245 106.647C173.068 107.969 174.154 108.672 175.726 110.324C181.994 131.639 185.802 155.36 191.295 176.975C192.074 180.041 191.841 184.102 188.237 185.632C178.042 188.704 167.58 191.238 157.26 193.905L78.1815 213.922C62.4981 217.741 64.7624 212.838 60.9379 199.767C62.6497 198.505 63.7978 197.413 65.348 195.984C67.094 202.986 66.2552 206.888 73.3079 210.127C74.3419 209.963 75.3732 209.782 76.4014 209.584C79.497 208.979 82.7132 208.134 85.7778 207.358C117.285 199.376 148.9 191.673 180.213 182.967C185.45 181.343 187.464 179.759 186.018 173.99C181.261 155.01 177.648 135.564 172.177 116.814C171.451 114.322 168.168 113.418 165.999 112.552C131.049 121.263 93.8934 128.262 59.1999 138.421C57.4066 138.946 55.3276 140.236 53.9289 141.456C51.5679 146.144 58.3532 166.41 60.2265 172.248C58.1969 170.903 55.6522 169.096 53.5427 167.99Z" fill="#F9A248"/>
<path d="M63.1744 190.615C63.2854 188.849 63.6043 187.56 63.9684 185.825C63.9227 190.202 63.8485 191.749 65.3481 195.984C63.798 197.413 62.6498 198.505 60.9381 199.768L59.9009 195.374L57.5493 195.204C58.1834 193.884 58.4239 193.268 58.9095 191.879L59.8146 190.766C61.6237 190.032 60.987 190.232 63.1744 190.615Z" fill="#F19837"/>
<path d="M58.9095 191.879L59.8146 190.766C61.6237 190.032 60.987 190.232 63.1744 190.615C62.5651 192.729 61.8663 194.146 59.9009 195.374L57.5493 195.204C58.1834 193.884 58.4239 193.268 58.9095 191.879Z" fill="#66310F"/>
<path d="M127.756 166.438C129.784 166.442 131.465 166.909 133.029 168.254C134.298 169.345 134.876 170.967 134.94 172.606C135.174 178.592 130.663 184.68 126.789 188.827C123.819 187.853 121.014 186.735 118.17 185.44C115.781 184.078 113.319 182.295 112.041 179.809C111.078 177.935 109.741 174.606 110.541 172.499C110.922 171.495 111.585 170.949 112.557 170.537C115.386 169.338 119.208 170.725 121.956 171.624C123.451 171.146 126.158 167.593 127.756 166.438Z" fill="#A63156"/>
<path d="M128.049 168.397C129.288 168.463 130.604 168.645 131.606 169.467C132.536 170.229 133.009 171.124 133.15 172.298C133.759 177.395 128.849 183.201 125.842 186.812L118.238 183.272C116.038 181.726 113.613 179.631 113.154 176.845C112.97 175.73 113.094 174.409 113.8 173.489C114.552 172.521 115.704 171.947 116.929 171.929C119.889 171.855 121.803 174.206 123.721 176.113C124.654 172.774 125.475 170.809 128.049 168.397Z" fill="#F1476A"/>
<path d="M79.1526 146.655C80.3654 147.154 81.2747 147.366 81.8141 148.707C83.6616 153.299 86.0842 166.232 84.0499 170.603C83.3195 171.028 83.1443 171.342 82.2661 171.19C79.4735 170.706 77.4592 166.627 76.0232 164.464C76.3037 166.723 76.812 169.265 76.6415 171.532C76.5289 173.029 76.0453 173.901 74.9582 174.886L73.6374 174.728C69.622 172.004 67.6103 166.584 65.5218 162.362C64.651 160.756 63.7675 159.147 62.9666 157.505C62.2194 155.972 62.0947 155.082 62.6588 153.489C63.8401 152.865 63.8869 152.802 65.194 153.026C68.2181 156.154 70.134 161.232 72.1062 165.132C71.7321 162.524 70.8986 159.183 71.3295 156.566C71.5489 155.231 71.8036 154.702 72.8518 153.874C73.0534 153.914 73.257 153.942 73.4559 153.992C76.1395 154.669 78.5601 159.716 79.9761 162.025C79.4251 159.683 78.861 157.337 78.389 154.978C77.7455 151.761 77.234 149.482 79.1526 146.655Z" fill="#388340"/>
<path d="M146.549 131.97C147.625 132.12 148.241 132.316 149.167 132.887C151.731 136.968 152.596 143.546 153.187 148.351C153.487 150.796 153.685 153.071 152.133 155.081L150.971 154.901C148.88 153.077 148.286 146.766 147.73 144.11C147.349 146.761 147.218 149.713 145.102 151.603L144.105 151.49C142.472 150.041 141.896 148.052 140.65 146.3L140.474 147.174C140.696 149.263 141.587 153.316 140.981 155.232C140.65 156.281 140.118 156.32 139.196 156.744C138.449 156.376 138.266 156.391 137.782 155.647C135.519 152.174 134.55 140.443 135.556 136.29C135.88 134.953 136.181 134.354 137.312 133.593C137.479 133.638 137.655 133.659 137.815 133.727C140.425 134.834 142.432 139.849 143.73 142.313C144.46 138.8 144.835 135.166 146.549 131.97Z" fill="#388340"/>
<path d="M121.73 152.755C120.01 146.676 117.894 131.359 130.493 137.406C135.511 139.814 136.684 152.087 132.862 156.814C132.028 157.862 130.796 158.516 129.461 158.619C126.704 158.82 124.852 157.321 123.052 155.476L121.73 152.755Z" fill="#388340"/>
<path d="M125.537 140.277C125.768 140.319 126.002 140.352 126.232 140.402C127.468 140.669 128.28 141.551 128.917 142.596C130.994 145.999 130.729 150.062 129.732 153.75C129.464 153.7 129.195 153.659 128.928 153.602C127.485 153.297 126.617 152.39 125.929 151.14C124.113 147.844 124.608 143.754 125.537 140.277Z" fill="#FDEBCE"/>
<path d="M90.9261 143.399C91.8238 143.365 92.2952 143.614 93.1172 143.942C93.7886 145.129 93.7244 145.104 93.4192 146.445C91.9853 148.127 90.6004 148.432 88.6524 149.328C88.5271 149.825 88.455 149.986 88.4866 150.56C88.5661 151.996 88.9944 152.773 90.0905 153.577C91.3191 153.413 92.5452 153.226 93.7676 153.016C94.8952 153.889 94.821 154.058 95.163 155.466C94.5358 157.275 92.5925 157.583 91.4018 158.909C90.673 159.721 90.8529 160.012 90.9524 161.032C93.8828 164.616 94.4348 160.245 99.0485 163.212C98.9248 164.261 98.6891 164.822 98.1371 165.72C95.7329 167.181 93.003 168.355 90.1815 168.585C88.7913 167.935 88.5876 166.995 88.0846 165.571C86.8249 162.007 82.4953 149.549 83.9392 146.395C85.9845 144.773 88.4734 144.181 90.9261 143.399Z" fill="#388340"/>
<path d="M154.936 131.474C156.75 131.36 158.724 131.102 160.533 131.211C161.864 131.292 162.313 131.79 163.211 132.705L163.119 134.001C161.469 135.581 159.652 134.952 158.097 136.218C157.578 136.641 157.809 137.956 157.809 138.609C159.21 140.523 161.302 139.848 163.105 141.482C163.397 143.168 159.001 145.781 158.41 148.125L158.856 148.688C160.312 149.398 161.846 149.093 163.41 148.974C163.823 148.963 164.33 149.268 164.712 149.428C165.284 150.86 165.277 150.947 164.893 152.442C163.824 153.785 162.338 154.294 160.649 154.485C159.158 154.654 157.544 154.294 156.445 153.221C153.398 150.245 152.75 138.388 153.066 134.185C153.175 132.731 153.91 132.318 154.936 131.474Z" fill="#388340"/>
<path d="M122.155 155.806C118.937 164.215 112.534 163.202 108.596 155.314C105.73 149.574 105.779 135.355 116.112 138.475C117.236 138.815 119.356 141.673 118.261 143.332C116.555 143.824 115.168 143.373 113.382 143.048C109.712 145.279 111.222 154.84 115.512 156.511C117.572 155.808 117.915 154.871 119.52 153.104C119.814 153.112 121.34 152.821 121.731 152.754L123.053 155.476L122.155 155.806Z" fill="#388340"/>
<path d="M121.731 152.754L123.053 155.476L122.155 155.806C121.409 154.876 120.387 153.953 119.521 153.103C119.814 153.111 121.34 152.821 121.731 152.754Z" fill="#FDF6ED"/>
<path d="M95.8854 141.456C96.6658 141.571 97.293 141.767 98.0371 142.015C100.862 145.445 102.091 155.066 103.429 159.677C103.601 159.637 103.775 159.602 103.946 159.557C105.198 159.229 106.519 158.688 107.83 158.778C109.1 158.865 109.319 159.101 110.144 159.961C110.009 161.347 109.759 161.9 109.01 163.016C106.576 163.802 104.142 164.816 101.557 164.737C100.038 163.725 99.5631 162.277 99.0106 160.58C97.5551 156.11 93.7333 145.626 95.8854 141.456Z" fill="#388340"/>
<path d="M167.806 127.514C168.233 127.644 169.119 127.84 169.516 128.114C171.165 129.248 171.195 132.938 171.292 134.781C171.5 138.767 171.722 145.205 169.013 148.168C168.604 147.829 168.032 147.408 167.721 146.958C165.803 144.189 165.267 134.048 165.806 130.464C166.052 128.837 166.613 128.468 167.806 127.514Z" fill="#388340"/>
<path d="M168.222 149.471C169.4 148.872 170.84 149.326 171.462 150.491C172.084 151.657 171.659 153.106 170.506 153.751C169.74 154.18 168.801 154.161 168.052 153.702C167.303 153.243 166.861 152.415 166.896 151.537C166.932 150.659 167.438 149.869 168.222 149.471Z" fill="#388340"/>
<path d="M189.254 71.6399C191.599 68.7197 194.605 64.9476 198.644 66.0873C201.542 69.0765 197.957 73.1848 196.626 76.6243C199.634 74.064 203.246 68.7255 207.188 71.7073C208.277 74.8159 205.839 77.4314 204.367 80.2238L204.849 81.1888C206.375 80.8752 206.839 80.5153 208.169 79.7629L209.539 80.1707C210.93 82.7889 209.542 85.7491 207.953 88.0289C205.42 92.5524 202.205 93.4969 200.756 97.6383C200.74 97.6609 200.723 97.683 200.707 97.7057C195.435 107.367 189.35 114.664 181.315 122.13L178.898 112.481C177.72 107.725 174.752 104.92 169.797 104.48C168.458 104.468 167.916 104.456 166.55 104.278L166.109 103.259C166.869 98.7338 172.694 94.5513 170.404 89.3786L170.506 89.0287C172.295 86.2263 175.184 83.3676 177.509 80.8957L180.004 77.8887C178.548 74.9669 179.813 67.1244 184.446 67.7695C186.673 69.4979 186.287 70.6792 187.878 73.4231L188.705 73.1779L189.254 71.6399Z" fill="#FF9B34"/>
<path d="M189.254 71.6399C191.598 68.7197 194.605 64.9476 198.644 66.0873C201.541 69.0765 197.957 73.1848 196.626 76.6243C199.633 74.064 203.245 68.7255 207.188 71.7073C208.276 74.8159 205.838 77.4314 204.367 80.2238L204.849 81.1888C206.375 80.8752 206.839 80.5153 208.168 79.7629L209.539 80.1707C210.93 82.7889 209.542 85.7491 207.953 88.0289C205.42 92.5524 202.205 93.4969 200.756 97.6383C200.74 97.6609 200.723 97.683 200.707 97.7057C199.678 97.079 198.629 96.959 197.442 96.7033L196.023 95.9372L195.562 95.0412C190.267 94.7923 186.701 88.5041 184.292 84.6489C179.77 83.7296 182.953 81.906 180.004 77.8887C178.548 74.9669 179.813 67.1244 184.446 67.7695C186.673 69.4979 186.286 70.6792 187.878 73.4231L188.705 73.1779L189.254 71.6399Z" fill="#E37C21"/>
<path d="M196.023 95.9376L196.934 94.9168C201.975 94.7842 200.17 94.1281 203.774 90.5607C204.333 90.0087 207.014 88.5591 207.953 88.0293C205.42 92.5527 202.205 93.4972 200.756 97.6387C200.74 97.6613 200.724 97.6834 200.707 97.706C199.678 97.0793 198.63 96.9594 197.443 96.7037L196.023 95.9376Z" fill="#D06E1B"/>
<path d="M189.254 71.6399C191.598 68.7197 194.605 64.9476 198.644 66.0873L198.037 67.127C194.138 67.5501 191.914 71.6241 189.254 71.6399Z" fill="#F9A248"/>
<path d="M189.313 76.5559C190.303 76.5112 191.383 76.4254 192.355 76.6674C194.27 77.1441 196.21 78.7026 197.097 80.4579C198.086 82.4158 198.051 84.1616 197.309 86.1663C196.036 86.8782 195.267 87.3565 193.746 87.2228C190.7 85.0377 191.589 80.2327 189.612 77.0152C189.517 76.8595 189.413 76.709 189.313 76.5559Z" fill="#66310F"/>
<path d="M197.442 96.7041C198.629 96.9598 199.678 97.0798 200.707 97.7064C195.434 107.367 189.349 114.665 181.314 122.131L178.897 112.482C182.928 111.984 180.537 113.87 183.95 113.562C188.152 110.793 195.915 101.051 197.442 96.7041Z" fill="#E37C21"/>
<path d="M177.509 80.8955L178.416 81.6369C177.262 84.9065 174.617 86.6986 171.951 88.7711L170.506 89.0285C172.295 86.2261 175.184 83.3674 177.509 80.8955Z" fill="#FEBE52"/>
<path d="M137.861 201.548C145.813 199.541 154.004 197.579 161.846 195.236L160.167 200.687C159.341 202.903 158.632 205.068 157.473 207.126C156.239 209.189 154.993 211.244 153.733 213.291C156.306 214.838 161.425 218.065 159.159 222.1C158.723 222.877 157.278 223.663 156.368 223.816C154.939 223.712 155.507 224.02 154.52 223.134C153.931 224.819 152.292 226.244 150.586 226.748C146.212 225.572 147.465 222.431 144.48 220.492L143.571 220.742L142.905 222.142L142.525 222.48C142.457 218.838 142.319 218.169 141.327 214.649C140.228 209.963 139.258 206.175 137.861 201.548Z" fill="#E37C21"/>
<path d="M142.326 214.242C145.292 212.748 148.029 212.799 150.109 212.061C150.701 211.851 156.09 207.977 157.474 207.126C156.24 209.189 154.993 211.244 153.733 213.291C156.306 214.837 161.425 218.064 159.159 222.1C158.723 222.877 157.278 223.663 156.369 223.815C154.939 223.712 155.507 224.02 154.52 223.134C153.931 224.819 152.293 226.244 150.587 226.748C146.212 225.572 147.465 222.431 144.48 220.492L143.571 220.742L142.905 222.142L142.525 222.479C142.457 218.837 142.319 218.169 141.328 214.649L142.326 214.242Z" fill="#E37C21"/>
<path d="M154.52 223.134C153.676 221.263 152.888 220.41 153.204 218.677C155.426 219.271 156.166 221.755 156.368 223.815C154.939 223.712 155.507 224.019 154.52 223.134Z" fill="#5A2B0B"/>
<path d="M142.326 214.242C138.87 205.647 154.679 201.737 160.167 200.687C159.341 202.903 158.632 205.067 157.474 207.126C156.09 207.977 150.701 211.851 150.109 212.061C148.029 212.799 145.292 212.747 142.326 214.242Z" fill="#F59437"/>
<path d="M57.158 197.778L57.7931 197.994C58.7682 200.181 59.1744 202.471 59.708 204.794C60.6972 209.105 61.5392 214.806 65.7519 217.217C70.9845 220.212 92.3493 213.17 99.0957 211.476C97.2156 214.173 94.733 216.363 92.8318 219.066C91.7015 220.673 91.2579 222.567 90.1861 224.174C89.0195 225.923 83.587 226.387 81.4806 226.782C78.827 227.093 75.9165 227.436 73.3197 226.742C70.5467 224.285 74.8905 223.064 74.5205 220.564C73.1435 220.519 73.1461 220.572 72.0469 221.419C71.3565 223.143 70.8056 224.627 69.5395 226.023C68.3656 226.598 67.5442 226.799 66.2244 226.692C64.6053 226.561 63.0567 226.192 61.9359 224.962C61.7449 222.901 62.771 221.558 63.3972 219.619L62.8283 219.214C61.014 220.123 60.2752 222.207 59.2881 223.9L58.2278 223.831C56.948 222.753 56.4024 222.071 55.8083 220.5C55.8446 217.289 57.6532 215.564 59.6306 213.259C57.5942 209.741 53.5935 202.262 53.6351 198.31L57.158 197.778Z" fill="#E37C21"/>
<path d="M123.221 205.302C126.396 204.626 133.234 201.799 135.76 203.029L136.27 204.966C137.091 208.404 138.519 214.872 139.614 218.085C140.254 219.373 141.213 222.286 141.767 223.144L142.525 222.48L142.905 222.143C144.572 223.801 144.338 223.103 144.74 225.112L144.002 226.703C140.729 227.533 129.296 227.192 128.266 223.499C127.413 219.568 125.893 214.547 124.817 210.582L123.221 205.302Z" fill="#EA8429"/>
<path d="M139.614 218.085C140.254 219.372 141.213 222.286 141.767 223.144L142.525 222.48L142.905 222.143C144.572 223.801 144.337 223.103 144.74 225.112L144.002 226.702C140.729 227.533 129.296 227.192 128.266 223.499L131.995 223.88C134.926 223.099 138.492 221.035 139.614 218.085Z" fill="#66310F"/>
<path d="M142.905 222.143C144.572 223.801 144.337 223.103 144.74 225.112L144.002 226.702L140.871 226.6L140.176 225.607L140.49 226.538L139.217 226.204C140.46 225.088 141.015 224.629 141.767 223.143L142.524 222.48L142.905 222.143Z" fill="#E37C21"/>
<path d="M123.221 205.302C126.396 204.626 133.234 201.799 135.76 203.029L136.27 204.966C133.432 206.226 130.312 207.311 128.135 209.414C126.803 210.003 126.279 210.285 124.817 210.582L123.221 205.302Z" fill="#D06E1B"/>
<path d="M124.817 210.581C126.28 210.284 126.803 210.002 128.135 209.413C129.403 213.237 131.088 221.596 131.996 223.879L128.266 223.497C127.413 219.567 125.893 214.546 124.817 210.581Z" fill="#D06E1B"/>
<path d="M108.933 110.803C111.306 110.561 113.756 110.548 116.141 110.434L117.58 116.452L110.164 118.065C108.575 118.462 106.094 119.388 104.497 119.23C103.046 119.086 102.478 118.522 101.52 117.509C101.449 116.907 101.456 116.457 101.7 115.889C103.034 112.791 106.047 111.996 108.933 110.803Z" fill="#F19837"/>
<path d="M39.6706 187.224C41.7412 188.002 44.7637 193.442 46.7048 195.207C47.9635 196.352 49.5348 197.233 50.985 198.113C51.2675 200.067 51.8669 201.962 52.3936 203.862C51.5175 203.872 50.6303 203.882 49.7579 203.788C47.0842 203.499 44.4043 201.576 42.7599 199.526C39.9763 196.056 39.197 191.546 39.6706 187.224Z" fill="#E37C21"/>
<path d="M120.239 206.137C120.869 206.773 121.258 207.163 121.564 208.029C121.847 208.834 121.615 208.911 121.287 209.632C116.04 212.544 108.138 211.966 102.258 211.849C101.682 211.809 102.048 211.875 101.221 211.442C102.839 209.598 116.987 206.932 120.239 206.137Z" fill="#E37C21"/>
<path d="M121.558 211.975L122.499 212.681C123.711 216.079 125.194 219.892 125.455 223.5L124.499 223.676C123.259 220.701 119.357 216.065 119.725 212.974L121.558 211.975Z" fill="#E37C21"/>
<path d="M17.0293 98.1898C29.8213 91.2902 26.3442 115.25 19.7815 121.038C16.6125 122.155 14.3536 120.875 11.4689 119.773C4.88142 117.254 -6.36971 104.392 4.59754 100.338C7.97591 99.089 11.5284 100.859 13.278 103.833C14.4456 101.059 14.6695 100.065 17.0293 98.1898Z" fill="#F1476A"/>
<path d="M17.029 98.1895L17.5156 99.4475C16.1742 102.14 15.9829 102.512 13.7736 104.62L12.9961 104.764C13.1094 103.971 12.9526 104.255 13.2777 103.833C14.4453 101.059 14.6692 100.065 17.029 98.1895Z" fill="#ED6193"/>
<path d="M4.3464 102.716C4.77836 104.214 3.46365 106.539 2.89672 107.97C2.73776 107.38 2.4534 106.587 2.46834 105.982C2.50717 104.41 3.37725 103.809 4.3464 102.716Z" fill="#FDEBCE"/>
<path d="M203.101 29.0172C204.012 29.0067 204.902 29.134 205.807 29.2345C206.708 29.917 207.277 30.1748 207.625 31.3024C208.938 35.5575 203.643 44.5238 201.851 48.4222C200.942 49.3004 200.924 49.3951 199.68 49.5235C199.081 48.9142 198.861 48.8637 198.686 47.9786C197.746 43.2174 200.494 33.0934 203.101 29.0172Z" fill="#FF8C00"/>
<path d="M224.161 43.2354C224.867 43.4274 225.786 43.7084 226.374 44.144C227.375 44.8849 227.397 45.6889 227.45 46.8254C225.634 51.3872 219.858 54.7458 215.819 57.1603C214.969 57.5344 214.529 57.4644 213.625 57.3071C213.158 56.4974 212.915 56.2716 213.157 55.3045C214.208 51.0947 220.442 45.3374 224.161 43.2354Z" fill="#FF8C00"/>
<path d="M228.977 65.6876C229.857 65.6124 230.959 65.5466 231.821 65.7213C233.161 65.9933 233.68 66.7421 234.378 67.8081C234.232 69.2961 234.132 69.4239 233.18 70.5873C231.329 71.627 229.536 71.2844 227.5 71.1397C226.076 71.0098 224.394 70.984 223.025 70.5967C221.752 70.2368 221.279 69.7733 220.708 68.632C220.807 68.4595 220.889 68.2753 221.006 68.1143C222.603 65.926 226.509 65.987 228.977 65.6876Z" fill="#FF8C00"/>
</svg>
