<svg width="16" height="19" viewBox="0 0 16 19" fill="#currentColor" xmlns="http://www.w3.org/2000/svg">
<path fill-rule="evenodd" clip-rule="evenodd" d="M10.4054 0H4.41044C4.21152 0 4.02076 0.0790175 3.88011 0.21967C3.73945 0.360322 3.66044 0.551088 3.66044 0.75C3.66044 0.948912 3.73945 1.13968 3.88011 1.28033C4.02076 1.42098 4.21152 1.5 4.41044 1.5H4.67044V6.587C4.67033 8.04155 4.2327 9.46244 3.41444 10.665L0.321436 15.213C0.141614 15.4772 0.0331167 15.7834 0.00646226 16.102C-0.0201922 16.4205 0.0359014 16.7404 0.169304 17.0309C0.302706 17.3213 0.508891 17.5724 0.767867 17.7597C1.02684 17.947 1.32983 18.0642 1.64744 18.1L1.73444 18.11L1.75144 18.112C5.84444 18.572 9.97644 18.572 14.0694 18.112L14.0874 18.11L14.1734 18.1C14.491 18.0642 14.794 17.947 15.053 17.7597C15.312 17.5724 15.5182 17.3213 15.6516 17.0309C15.785 16.7404 15.8411 16.4205 15.8144 16.102C15.7878 15.7834 15.6793 15.4772 15.4994 15.213L12.4064 10.665C11.5882 9.46244 11.1505 8.04155 11.1504 6.587V1.5H11.4104C11.6093 1.5 11.8001 1.42098 11.9408 1.28033C12.0814 1.13968 12.1604 0.948912 12.1604 0.75C12.1604 0.551088 12.0814 0.360322 11.9408 0.21967C11.8001 0.0790175 11.6093 0 11.4104 0H10.4054ZM5.73944 9.3H10.0814C9.79697 8.42375 9.65187 7.50827 9.65144 6.587V1.5H6.17044V6.587C6.16967 7.50832 6.02424 8.4238 5.73944 9.3ZM5.91044 13.75C5.64522 13.75 5.39087 13.8554 5.20333 14.0429C5.01579 14.2304 4.91044 14.4848 4.91044 14.75C4.91044 15.0152 5.01579 15.2696 5.20333 15.4571C5.39087 15.6446 5.64522 15.75 5.91044 15.75C6.17565 15.75 6.43001 15.6446 6.61754 15.4571C6.80508 15.2696 6.91044 15.0152 6.91044 14.75C6.91044 14.4848 6.80508 14.2304 6.61754 14.0429C6.43001 13.8554 6.17565 13.75 5.91044 13.75ZM7.91044 12.75C7.91044 12.4848 8.01579 12.2304 8.20333 12.0429C8.39087 11.8554 8.64522 11.75 8.91044 11.75C9.17565 11.75 9.43001 11.8554 9.61754 12.0429C9.80508 12.2304 9.91044 12.4848 9.91044 12.75C9.91044 13.0152 9.80508 13.2696 9.61754 13.4571C9.43001 13.6446 9.17565 13.75 8.91044 13.75C8.64522 13.75 8.39087 13.6446 8.20333 13.4571C8.01579 13.2696 7.91044 13.0152 7.91044 12.75Z" fill="currentColor"/>
</svg>
