<svg width="15" height="22" viewBox="0 0 15 22" fill="none" xmlns="http://www.w3.org/2000/svg">
<path d="M3.06395 4.42871C3.23061 5.92871 3.16395 9.92871 1.56395 13.9287C-0.436055 18.9287 0.563945 21.4287 3.06395 21.4287" stroke="currentColor" stroke-linecap="round"/>
<path d="M3.06404 21.4288H11.064M3.06404 4.42876H11.064C11.3974 3.42876 11.864 1.32822 11.064 0.928222C8.5 0.208008 3.86404 0.528762 3.06404 0.928762C2.26404 1.32876 2.7307 3.42876 3.06404 4.42876Z" stroke="currentColor" stroke-linecap="round"/>
<path d="M11.1262 4.42871C10.9596 5.92871 11.0262 9.92871 12.6262 13.9287C14.6262 18.9287 13.6262 21.4287 11.1262 21.4287" stroke="currentColor" stroke-linecap="round"/>
<circle cx="5.1001" cy="16.208" r="1" fill="currentColor"/>
<circle cx="7.1001" cy="13.708" r="1" fill="currentColor"/>
<path d="M7.7002 16.708C8.7002 16.708 9.7002 16.708 9.7002 14.708" stroke="currentColor" stroke-linecap="round"/>
</svg>
