<svg width="20" height="20" viewBox="0 0 20 20" fill="none" xmlns="http://www.w3.org/2000/svg">
<path fill-rule="evenodd" clip-rule="evenodd" d="M19.274 0.725679C18.761 0.213069 18.0571 0.0400245 17.4163 0.00654618C16.7615 -0.0278018 16.0428 0.0761116 15.349 0.245677C14.252 0.513504 13.109 0.974375 12.1934 1.46742C12.0399 1.29271 11.8848 1.11937 11.7282 0.947419C11.5144 0.712042 11.2538 0.523928 10.9631 0.395133C10.6724 0.266337 10.358 0.199702 10.0401 0.199497C9.72209 0.199292 9.4076 0.265523 9.11672 0.393944C8.82585 0.522365 8.56502 0.710144 8.35094 0.945244C7.60769 1.75911 6.90079 2.60545 6.23231 3.48177C5.92308 3.88612 5.66396 4.32643 5.4606 4.79308C4.56976 4.32221 3.42023 4.48221 2.72243 5.34526C1.65362 6.66151 0.822104 8.1538 0.265125 9.75527C-0.408765 11.7044 0.284255 13.6753 1.419 15.134L2.18723 16.1218L0.536855 17.7723C0.425806 17.8833 0.337717 18.0151 0.277618 18.1602C0.217519 18.3053 0.186586 18.4609 0.186586 18.6179C0.186586 18.775 0.217519 18.9305 0.277618 19.0756C0.337717 19.2207 0.425806 19.3525 0.536855 19.4636C0.647904 19.5746 0.779738 19.6627 0.92483 19.7228C1.06992 19.7829 1.22543 19.8138 1.38248 19.8138C1.53952 19.8138 1.69503 19.7829 1.84013 19.7228C1.98522 19.6627 2.11705 19.5746 2.2281 19.4636L3.87848 17.8127L4.86584 18.5809C6.32492 19.7157 8.29572 20.4088 10.2439 19.7349C11.8458 19.178 13.3385 18.3464 14.6551 17.2775C15.5181 16.5792 15.6776 15.4296 15.2064 14.5383C15.673 14.3346 16.1133 14.0755 16.518 13.7666C17.3943 13.0981 18.2406 12.3912 19.0545 11.6479C19.2896 11.4338 19.4773 11.173 19.6058 10.8821C19.7342 10.5912 19.8004 10.2767 19.8002 9.9587C19.8 9.64073 19.7334 9.32631 19.6046 9.03559C19.4758 8.74487 19.2877 8.48427 19.0523 8.27048C18.8778 8.11164 18.7046 7.95671 18.5328 7.8057C19.0262 6.89004 19.4866 5.747 19.7545 4.65004C19.924 3.95612 20.0275 3.23743 19.9936 2.58264C19.9597 1.94177 19.7862 1.23829 19.274 0.725679ZM5.118 16.5731L5.93363 17.2079C7.10924 18.1227 8.47006 18.5079 9.67611 18.0914C11.087 17.6003 12.4017 16.8674 13.5612 15.9253C13.7716 15.7557 13.7981 15.4209 13.5525 15.2049C13.3824 15.055 13.2107 14.907 13.0373 14.7609C12.7071 14.4827 12.3722 14.2102 12.0325 13.9435C10.9352 13.0818 9.4922 12.9427 8.2292 13.4614L5.118 16.5731ZM10.2504 11.4401C11.2929 11.5325 12.2857 11.9274 13.1069 12.5761C13.3518 12.7686 13.5993 12.9677 13.8494 13.1735C14.4344 13.0197 14.983 12.7512 15.4633 12.3835C16.2984 11.7464 17.105 11.0727 17.8806 10.3644C17.9374 10.3134 17.9827 10.2511 18.0138 10.1814C18.0449 10.1118 18.0609 10.0363 18.0609 9.96005C18.0609 9.88377 18.0449 9.80835 18.0138 9.73868C17.9827 9.66902 17.9374 9.60667 17.8806 9.5557C17.6537 9.34897 17.4243 9.14505 17.1924 8.94396C16.1098 8.00483 14.6285 7.82961 13.3295 8.36135L10.2504 11.4401ZM11.6365 6.67222L8.55919 9.74962C8.46686 8.70717 8.07217 7.71437 7.42358 6.89309C7.22709 6.64292 7.02767 6.39507 6.82534 6.14961C6.97912 5.56495 7.24749 5.01666 7.61487 4.53656C8.25208 3.7011 8.9259 2.89423 9.63437 2.11829C9.68534 2.06154 9.74768 2.01615 9.81734 1.98508C9.887 1.95401 9.96243 1.93795 10.0387 1.93795C10.115 1.93795 10.1904 1.95401 10.2601 1.98508C10.3297 2.01615 10.3921 2.06154 10.443 2.11829C10.654 2.35047 10.858 2.58003 11.0548 2.80699C11.1385 2.90291 11.2168 3.00335 11.2895 3.10786C12.0199 4.15482 12.1212 5.48917 11.6365 6.67222ZM6.53795 11.7714L3.42676 14.8835L2.792 14.067C1.87724 12.8914 1.49204 11.5305 1.90855 10.3244C2.39944 8.91345 3.13224 7.59874 4.07413 6.43917C4.24455 6.22874 4.57846 6.20265 4.79497 6.44787C5.22938 6.94279 5.64982 7.44981 6.0558 7.96831C6.91794 9.0657 7.05663 10.5083 6.53795 11.7714ZM17.0876 6.82048C15.9563 6.29222 14.7007 6.19787 13.5182 6.48222C13.8021 5.2996 13.7077 4.04438 13.1799 2.91395C13.9364 2.52308 14.8711 2.15307 15.7624 1.93525C16.3628 1.78829 16.9006 1.72133 17.3258 1.74394C17.7654 1.76699 17.9658 1.87742 18.0445 1.95612C18.1232 2.03481 18.2341 2.23525 18.2571 2.67481C18.2793 3.10003 18.2128 3.63743 18.0658 4.23786C17.848 5.12917 17.478 6.06395 17.0876 6.82048Z" fill="currentColor"/>
</svg>
