<svg width="22" height="23" viewBox="0 0 22 23" fill="none" xmlns="http://www.w3.org/2000/svg">
<path fill-rule="evenodd" clip-rule="evenodd" d="M15.0947 0.000983596C18.757 0.0438417 21.2267 2.77381 21.1387 6.38966C21.0689 9.2367 19.5123 11.5628 16.9941 12.8945C15.3386 13.7702 14.0645 14.472 13.5791 16.4649C12.7419 20.1657 10.1706 22.8252 6.22657 22.7695C4.63998 22.7538 3.11576 22.1499 1.94923 21.0742C-1.50011 17.8571 -0.0771501 11.884 3.91309 9.90333C5.14437 9.29217 6.31085 8.84142 7.14649 7.69727C7.90288 6.75358 8.01598 5.5539 8.48341 4.46192C9.67401 1.68404 12.0479 0.0918929 15.0283 7.03328e-06C15.0502 -8.264e-05 15.0728 0.00070977 15.0947 0.000983596ZM18.3057 2.01856C17.3668 1.24624 15.9526 0.814886 14.7471 0.934577C14.7197 0.937313 14.6924 0.940353 14.665 0.944343C12.8179 1.12464 11.4522 1.85373 10.2588 3.28516C9.02587 4.78761 9.05539 6.8426 7.88575 8.38477C6.90349 9.67902 5.43237 10.0835 4.11134 10.8535C-0.88158 13.7641 0.19791 22.0109 6.59376 21.8525C8.56913 21.6612 9.70675 21.1508 11.0518 19.6621C12.516 18.041 12.3404 16.0825 13.4766 14.3984C14.3227 13.145 15.8003 12.5107 17.0596 11.7871C19.1372 10.4406 20.4175 8.10278 20.1738 5.59571C20.0483 4.20332 19.3766 2.91697 18.3057 2.01856Z" fill="currentColor"/>
<circle cx="15.6423" cy="8.53987" r="0.948775" transform="rotate(-89.9783 15.6423 8.53987)" fill="currentColor"/>
<circle cx="15.6437" cy="4.74397" r="0.948775" transform="rotate(-89.9783 15.6437 4.74397)" fill="currentColor"/>
<circle cx="12.3344" cy="6.63069" r="0.948775" transform="rotate(-89.9783 12.3344 6.63069)" fill="currentColor"/>
<circle cx="7.86246" cy="18.0281" r="0.948775" transform="rotate(-89.9783 7.86246 18.0281)" fill="currentColor"/>
<circle cx="7.86393" cy="14.2322" r="0.948775" transform="rotate(-89.9783 7.86393 14.2322)" fill="currentColor"/>
<circle cx="4.5546" cy="16.119" r="0.948775" transform="rotate(-89.9783 4.5546 16.119)" fill="currentColor"/>
</svg>
