<svg width="18" height="23" viewBox="0 0 18 23" fill="none" xmlns="http://www.w3.org/2000/svg">
<path fill-rule="evenodd" clip-rule="evenodd" d="M7.26265 0.00147493C7.58058 -0.0111718 7.83761 0.0580598 8.12983 0.187998C10.7633 1.35942 12.446 4.03217 12.3164 6.92335C12.2643 8.08333 11.7453 9.46559 12.0068 10.5415C12.0319 10.6445 12.2132 10.8391 12.3203 10.855C13.0313 10.8744 13.4259 9.53994 13.7929 9.04054C14.6723 7.84434 15.7434 7.71367 16.3935 9.24464C18.5189 14.2516 18.1652 19.6959 12.7724 22.2691C10.8318 23.1282 7.94088 23.218 5.95503 22.605C3.78741 21.9357 1.88283 20.4548 0.853466 18.4194C0.174814 17.0774 -0.0273176 15.8215 0.00287993 14.355C0.0612496 11.5226 1.32703 9.47123 3.44429 7.68312C4.54352 6.75485 5.67249 5.85225 6.32905 4.52198C6.81507 3.59205 6.89019 2.54904 6.83393 1.52101C6.79017 0.720783 6.51088 0.410286 7.26265 0.00147493ZM6.94526 13.3101C4.73527 15.4139 4.73282 20.0221 7.48726 21.7759C8.15674 22.2021 9.20765 22.3033 9.95796 22.0103C11.5102 21.3265 12.153 19.61 11.539 18.0552C10.93 16.5136 8.81914 16.5554 7.88667 15.2778C7.69391 15.0122 7.53314 14.7248 7.40815 14.4214C7.33131 14.23 7.09077 13.3231 6.94526 13.3101ZM7.84663 1.07081C7.87812 3.62679 7.67139 4.92337 5.80171 6.89601C5.05062 7.64387 4.22671 8.28096 3.44233 8.99757C1.73217 10.5604 1.01308 12.4734 0.987255 14.7632C0.953863 17.7413 2.95073 20.7572 5.90718 21.5493C5.56178 21.2646 5.41411 21.1195 5.18452 20.7153C3.88064 18.4203 3.9991 15.1119 5.71772 13.0552C6.10743 12.5888 6.75927 11.8381 7.45112 12.105C8.07281 12.6674 7.38975 13.9649 9.27729 15.2339C9.6917 15.4817 10.1362 15.6336 10.5712 15.8394C12.8364 16.9116 13.3023 19.7795 11.6708 21.6343C16.5231 20.0959 17.566 15.0374 15.9238 10.7534C15.6969 10.1616 15.585 9.52979 15.1728 9.01612C15.0305 9.11151 14.7721 9.28158 14.6708 9.4048C13.8927 10.3525 13.7826 12.098 12.1279 11.7573C11.7885 11.6874 11.4652 11.534 11.2724 11.2222C10.5467 10.0476 11.195 8.58227 11.2861 7.3296C11.4453 5.14116 10.7388 3.17391 9.00972 1.77882C8.67514 1.5089 8.22197 1.2761 7.84663 1.07081Z" fill="currentColor"/>
</svg>
