<svg width="16" height="20" viewBox="0 0 16 20" fill="none" xmlns="http://www.w3.org/2000/svg">
<path d="M14.0807 9.11137C13.8251 8.77803 13.514 8.48913 13.2251 8.20023C12.4806 7.53355 11.6362 7.05576 10.925 6.35574C9.26944 4.73347 8.90276 2.05561 9.95835 0C8.90276 0.255563 7.98051 0.833357 7.1916 1.46671C4.31374 3.77789 3.18038 7.85578 4.53597 11.3559C4.58042 11.467 4.62486 11.5781 4.62486 11.7226C4.62486 11.967 4.45819 12.1892 4.23596 12.2781C3.9804 12.3892 3.71372 12.3226 3.50261 12.1448C3.43954 12.092 3.3868 12.0279 3.34705 11.9559C2.09146 10.367 1.89145 8.08912 2.73592 6.26685C0.88031 7.778 -0.13083 10.3336 0.013619 12.7448C0.0802875 13.3004 0.146956 13.856 0.33585 14.4115C0.49141 15.0782 0.791419 15.7449 1.12476 16.3338C2.3248 18.2561 4.40263 19.6339 6.63603 19.9117C9.01388 20.2117 11.5584 19.7783 13.3807 18.1339C15.4141 16.2894 16.1252 13.3337 15.0807 10.8003L14.9363 10.5114C14.7029 10.0003 14.0807 9.11137 14.0807 9.11137ZM10.5695 16.1116C10.2584 16.3782 9.74723 16.6671 9.34722 16.7783C8.10274 17.2227 6.85826 16.6005 6.1249 15.8671C7.44716 15.556 8.23607 14.5782 8.46941 13.5893C8.65831 12.7004 8.30274 11.967 8.1583 11.1114C8.02496 10.2892 8.04718 9.58916 8.34719 8.82247C8.55831 9.24471 8.78054 9.66694 9.04721 10.0003C9.90279 11.1114 11.2473 11.6003 11.5362 13.1115C11.5806 13.267 11.6028 13.4226 11.6028 13.5893C11.6362 14.5004 11.2362 15.5004 10.5695 16.1116Z" fill="#575757"/>
</svg>
