<svg width="21" height="17" viewBox="0 0 21 17" fill="none" xmlns="http://www.w3.org/2000/svg">
<path d="M6.35915 3.40482C4.44518 4.5059 3.11779 5.78869 2.21689 7.08825M6.35915 3.40482C7.91244 3.94919 10.3377 5.1914 11.019 7.08825M6.35915 3.40482C8.31393 2.28026 10.0491 1.55847 11.5368 1.11566M2.21689 7.08825C0.388202 9.72618 0.316775 12.4333 0.663657 13.8301C1.10731 15.6167 3.12677 16.2627 4.28798 16.4363C7.23104 16.8764 15.0576 15.081 18.7856 9.65983C22.5136 4.23866 19.3034 1.49345 17.2323 0.798489C16.4314 0.452934 14.4625 0.244824 11.5368 1.11566M2.21689 7.08825C3.94277 7.59794 6.35915 9.05323 6.87684 10.7024M11.5368 1.11566C12.9175 1.69331 14.9976 3.10633 15.679 4.96843" stroke="currentColor" stroke-linecap="round"/>
</svg>
