<svg width="32" height="32" viewBox="0 0 32 32" fill="none" xmlns="http://www.w3.org/2000/svg">
<path d="M16.001 0.000976562C24.8376 0.00109833 32.0009 7.16431 32.001 16.001C32.001 24.8377 24.8376 32.0009 16.001 32.001C7.1642 32.001 0 24.8377 0 16.001C3.55621e-05 7.16423 7.16423 0.000976562 16.001 0.000976562ZM21.4561 12.1445C21.0945 11.783 20.5081 11.783 20.1465 12.1445L14.4004 17.8887L11.8555 15.3438C11.494 14.9828 10.9084 14.9828 10.5469 15.3438C10.1853 15.7053 10.1853 16.2917 10.5469 16.6533L13.7461 19.8535C14.1077 20.2151 14.6941 20.2151 15.0557 19.8535L21.4561 13.4531C21.8174 13.0916 21.8174 12.5061 21.4561 12.1445Z" fill="#4FAF5A"/>
</svg>
