<svg width="32" height="32" viewBox="0 0 32 32" fill="none" xmlns="http://www.w3.org/2000/svg">
<path d="M16.001 0.000976562C24.8376 0.00109833 32.0009 7.16431 32.001 16.001C32.001 24.8377 24.8376 32.0009 16.001 32.001C7.1642 32.001 0 24.8377 0 16.001C3.55621e-05 7.16423 7.16423 0.000976562 16.001 0.000976562Z" fill="#EE4548"/>
<path d="M25.7309 21L17.7309 6.99998C17.5565 6.69218 17.3035 6.43617 16.9978 6.25805C16.6922 6.07993 16.3447 5.98608 15.9909 5.98608C15.6371 5.98608 15.2897 6.07993 14.984 6.25805C14.6783 6.43617 14.4253 6.69218 14.2509 6.99998L6.25091 21C6.07459 21.3053 5.98213 21.6519 5.98292 22.0045C5.9837 22.3571 6.07768 22.7032 6.25535 23.0078C6.43302 23.3124 6.68805 23.5646 6.9946 23.7388C7.30115 23.9131 7.64831 24.0032 8.00091 24H24.0009C24.3518 23.9996 24.6964 23.9069 25.0002 23.7313C25.3039 23.5556 25.5561 23.3031 25.7314 22.9991C25.9067 22.6951 25.9989 22.3504 25.9989 21.9995C25.9988 21.6486 25.9064 21.3039 25.7309 21Z" stroke="white" stroke-width="2" stroke-linecap="round" stroke-linejoin="round"/>
<path d="M16.001 12V16" stroke="white" stroke-width="2" stroke-linecap="round" stroke-linejoin="round"/>
<path d="M16.001 20H16.011" stroke="white" stroke-width="2" stroke-linecap="round" stroke-linejoin="round"/>
</svg>
