<svg width="20" height="20" viewBox="0 0 20 20" fill="none" xmlns="http://www.w3.org/2000/svg">
<path fill-rule="evenodd" clip-rule="evenodd" d="M4.43264 2.16468C5.36152 1.76172 6.09929 1.77802 6.68298 2.0432C7.28297 2.31579 7.87852 2.92615 8.35555 4.02243C8.5353 4.4402 8.65678 4.82538 8.71999 5.17797C8.80592 5.63722 9.21925 5.96018 9.68591 5.93352C10.2578 5.89796 10.7955 6.05648 11.2829 6.46536C11.0607 6.60857 10.8553 6.77499 10.6666 6.96461C10.1926 7.43868 9.86368 8.01645 9.66665 8.67126C9.57247 8.98559 9.50751 9.30794 9.47258 9.63421C9.43039 10.0184 9.42245 10.4056 9.44887 10.7912C9.19801 10.7912 8.94764 10.7927 8.69777 10.7957C8.51111 9.4194 8.1837 7.80905 6.83854 6.23425C6.76043 6.13899 6.6641 6.06027 6.55519 6.0027C6.44628 5.94514 6.32697 5.90988 6.20426 5.89901C6.08156 5.88813 5.95791 5.90185 5.84057 5.93936C5.72323 5.97687 5.61456 6.03742 5.52091 6.11746C5.42727 6.1975 5.35054 6.29543 5.29522 6.4055C5.2399 6.51556 5.20709 6.63557 5.19873 6.75847C5.19037 6.88138 5.20662 7.00471 5.24653 7.12126C5.28644 7.23781 5.3492 7.34522 5.43115 7.4372C6.37632 8.54385 6.65335 9.63273 6.82965 10.8268C5.54366 10.8558 4.25813 10.9022 2.9734 10.966C2.75118 9.89643 3.02377 9.12311 3.60154 8.57348C3.76501 8.41795 3.86605 8.20807 3.8857 7.98329C3.90534 7.75851 3.84222 7.53429 3.70821 7.35276C3.47069 7.02438 3.27138 6.67 3.11414 6.29648C2.63711 5.20019 2.59859 4.34983 2.80896 3.72466C3.01192 3.11726 3.50525 2.56912 4.43264 2.16468ZM18.5925 11.3749C18.6468 11.047 18.6734 10.7058 18.6725 10.3512C18.6725 8.99866 18.2902 7.81201 17.4414 6.96461C16.5925 6.11722 15.4058 5.73352 14.0533 5.73352C13.757 5.73352 13.4691 5.75228 13.1896 5.78981C12.4414 4.84464 11.48 4.24909 10.36 4.10836C10.2741 3.82796 10.1717 3.55291 10.0533 3.28466C9.46072 1.92024 8.59703 0.878768 7.4489 0.355811C6.28447 -0.171589 4.98819 -0.0945532 3.69635 0.466921C2.40304 1.02691 1.46083 1.92172 1.05343 3.13355C0.651949 4.32909 0.822317 5.6713 1.4149 7.03424C1.53638 7.31078 1.66774 7.573 1.80897 7.8209C1.06231 8.852 0.883057 10.1201 1.18972 11.4712C0.800333 11.6633 0.47881 11.9695 0.268095 12.3491C0.0573798 12.7287 -0.0324946 13.1636 0.0104759 13.5956C0.208992 15.5615 0.671208 17.2771 2.26526 18.4282C3.79265 19.5304 6.22225 20 9.99998 20C13.7777 20 16.2058 19.5319 17.7347 18.4282C19.3287 17.2786 19.791 15.563 19.9895 13.5971C20.035 13.1244 19.9226 12.6499 19.6699 12.2478C19.4171 11.8458 19.0382 11.5388 18.5925 11.3749ZM11.3066 10.7972C13.1331 10.814 14.9591 10.8663 16.7836 10.9542C16.8083 10.7695 16.8206 10.5685 16.8206 10.3512C16.8206 9.3394 16.5392 8.68163 16.1317 8.27423C15.7243 7.86683 15.0651 7.58535 14.0533 7.58535C13.6651 7.58732 13.3264 7.62584 13.037 7.7009L13.0162 7.70683C12.9082 7.73536 12.8019 7.76998 12.6977 7.81053C12.5002 7.88954 12.3274 7.98485 12.1792 8.09645C11.9225 8.28849 11.7178 8.54157 11.5837 8.83274C11.4 9.21347 11.2874 9.71125 11.2874 10.3512C11.2874 10.5083 11.2938 10.6579 11.3066 10.7972Z" fill="#575757"/>
</svg>
