<svg width="22" height="21" viewBox="0 0 22 21" fill="none" xmlns="http://www.w3.org/2000/svg">
<path d="M10.1122 0.0167857C10.7457 -0.0380603 12.1159 0.04842 12.7242 0.175788C15.486 0.755634 17.9027 2.41241 19.4393 4.77932C20.9809 7.09733 21.5293 9.93651 20.9618 12.6619C20.4105 15.3747 18.8044 17.7575 16.4965 19.2863C14.5146 20.5773 12.2856 21.1404 9.93254 20.9704C9.04748 20.9065 8.28155 20.8094 7.44242 20.5033C7.29082 20.448 7.11739 20.4196 6.9672 20.3538C6.49879 20.1485 7.01697 19.2341 7.44246 19.5348C7.48027 19.5615 7.65661 19.6172 7.7069 19.632C10.2929 20.3921 13.0914 20.1878 15.4458 18.825C20.014 16.2093 21.599 10.4078 18.9776 5.83248C18.2524 4.6533 17.638 3.86676 16.548 2.97166C14.6888 1.44496 12.2755 0.76952 9.88966 0.963019C9.49062 0.995383 8.74954 1.08644 8.37725 1.18468C6.34087 1.72197 4.56276 2.80011 3.21563 4.41426C0.463961 7.65882 0.162684 12.4028 2.61305 15.9052C3.15309 16.6771 3.70626 17.2896 4.42287 17.8984C4.71797 18.1491 4.36577 18.6503 4.04814 18.6666C3.87758 18.6754 3.73816 18.5147 3.61521 18.4142C1.53734 16.6344 0.178431 13.987 0.0174199 11.2495C-0.144082 8.4423 0.822545 5.68691 2.70244 3.59588C4.30056 1.77681 6.46952 0.554967 8.85345 0.130857C9.27401 0.060318 9.6874 0.0416825 10.1122 0.0167857Z" fill="currentColor"/>
<path d="M14.3969 5.33989C14.4821 5.3233 14.5875 5.32257 14.6746 5.32227C14.7973 5.3218 14.9091 5.36486 14.9944 5.45442C15.2758 5.74975 15.4643 7.6476 15.4944 8.13833C15.5189 8.56399 15.5259 8.99046 15.5155 9.4167C15.4159 13.4535 12.6678 16.7079 8.46361 16.5909C8.04889 16.3239 8.43887 16.0036 8.58808 15.6553C10.4943 15.6846 12.1456 14.9346 13.3006 13.3961C14.8144 11.3796 14.7278 8.94076 14.3637 6.58281L14.3187 6.25323C10.7778 6.57171 6.16796 8.56861 6.33048 12.7744C6.33651 12.9307 6.34322 13.1577 6.37108 13.3091C6.51085 14.0684 6.57236 14.2283 5.79628 14.5826C5.57276 14.3888 5.40175 13.3903 5.37847 13.1105C5.13356 10.1684 7.10732 7.75832 9.67547 6.576C11.1169 5.91238 12.7907 5.48283 14.3969 5.33989Z" fill="currentColor"/>
<path d="M10.8791 10.19C11.2491 10.1713 11.3616 10.3269 11.4494 10.6738C11.2973 10.9729 10.9979 11.242 10.764 11.4938C10.4913 11.7847 10.2231 12.0798 9.95942 12.379C8.53817 14.0234 7.30052 15.8119 6.51543 17.8525C6.32962 18.3354 6.20806 18.8467 6.009 19.325C5.9651 19.4306 5.82471 19.5517 5.73793 19.6294C5.66234 19.6736 5.60266 19.6772 5.51926 19.6561C5.09605 19.5491 5.24328 19.0756 5.28294 18.7666C5.3077 18.6516 5.33173 18.5272 5.36813 18.4155C6.20024 15.864 7.70043 13.6014 9.47704 11.6103C9.7905 11.2589 10.5152 10.3899 10.8791 10.19Z" fill="currentColor"/>
</svg>
