<svg width="14" height="20" viewBox="0 0 14 20" fill="none" xmlns="http://www.w3.org/2000/svg">
<path d="M13.6014 10.2257L11.231 3.20864C10.9404 2.28331 10.3808 1.47643 9.63055 0.901079C8.88034 0.32573 7.97713 0.010746 7.04749 0.000270046C6.11785 -0.0102059 5.20838 0.284351 4.44653 0.842661C3.68469 1.40097 3.10865 2.19505 2.79914 3.11362L0.451753 10.0732C0.0538102 11.1768 -0.0841714 12.3648 0.0495163 13.5362C0.183204 14.7077 0.584615 15.8281 1.21969 16.8023C1.85476 17.7765 2.70476 18.5758 3.69754 19.1324C4.69033 19.689 5.79661 19.9865 6.92251 19.9995C8.04842 20.0126 9.16071 19.7409 10.165 19.2075C11.1693 18.674 12.036 17.8946 12.6915 16.9353C13.347 15.9761 13.772 14.8653 13.9304 13.6972C14.0888 12.5292 13.9759 11.3383 13.6014 10.2257ZM6.99914 16.005C6.36983 16.005 5.75466 15.8095 5.23141 15.4432C4.70817 15.0768 4.30035 14.5562 4.05952 13.947C3.8187 13.3378 3.75569 12.6674 3.87846 12.0207C4.00123 11.374 4.30427 10.7799 4.74925 10.3137C5.19424 9.84743 5.76118 9.52991 6.3784 9.40127C6.99561 9.27263 7.63537 9.33865 8.21677 9.59099C8.79817 9.84332 9.2951 10.2706 9.64472 10.8189C9.99435 11.3672 10.181 12.0117 10.181 12.6711C10.181 13.5553 9.84573 14.4033 9.24902 15.0286C8.65232 15.6538 7.84301 16.005 6.99914 16.005Z" fill="#575757"/>
</svg>
