<svg width="22" height="21" viewBox="0 0 22 21" fill="none" xmlns="http://www.w3.org/2000/svg">
<path d="M17.765 5.63879C19.0388 6.14604 20.062 7.13391 20.6136 8.38909C21.1653 9.64427 21.2012 11.0661 20.7136 12.3475C20.226 13.6289 19.254 14.6671 18.0074 15.238C16.7608 15.8089 15.3398 15.8667 14.051 15.3988C14.8946 15.9446 15.8783 16.2342 16.883 16.2328C17.53 16.2328 18.149 16.1148 18.721 15.8998C18.6415 16.9617 18.1906 17.9617 17.4474 18.7244C16.7042 19.487 15.7161 19.9636 14.6566 20.0705C13.5971 20.1774 12.5338 19.9078 11.6532 19.309C10.7726 18.7102 10.131 17.8204 9.841 16.7958C9.669 16.7878 9.406 16.8238 9.034 16.9608C8.536 17.1428 7.974 17.4548 7.408 17.8348C6.53297 18.4299 5.71062 19.0991 4.95 19.8348L4.243 20.5428L0 16.2998L0.707 15.5928C1.175 15.1248 1.863 13.9328 2.432 12.5948C2.707 11.9488 2.934 11.3148 3.08 10.7808C3.153 10.5178 3.198 10.3058 3.224 10.1448C2.15692 9.34051 1.43891 8.15763 1.21786 6.83981C0.996807 5.52199 1.28954 4.16957 2.03577 3.06112C2.78201 1.95266 3.9249 1.17259 5.22906 0.881569C6.53322 0.590548 7.89933 0.81074 9.046 1.49679L9.052 1.49079L9.302 1.66079C9.92245 2.08096 10.4452 2.62978 10.8346 3.26995C11.2241 3.91012 11.4711 4.62664 11.559 5.37079L11.563 5.39879C11.5843 5.17879 11.595 4.95679 11.595 4.73279C11.5967 3.24938 11.1061 1.80735 10.2 0.632793C11.0187 0.183181 11.9448 -0.034128 12.878 0.00435154C13.8113 0.042831 14.7163 0.335636 15.4953 0.851121C16.2742 1.36661 16.8975 2.08517 17.2977 2.92916C17.6979 3.77314 17.8598 4.71045 17.766 5.63979M9.974 13.9238C10.0067 13.8325 10.0423 13.7421 10.081 13.6528L9.194 12.7648L7.779 14.1798L6.365 12.7648L7.779 11.3508L7.511 11.0828C6.71125 11.2944 5.87005 11.293 5.071 11.0788C5.051 11.1581 5.03067 11.2358 5.01 11.3118C4.80943 12.0159 4.56359 12.7064 4.274 13.3788C3.854 14.3678 3.312 15.4288 2.757 16.2288L4.271 17.7418C4.9121 17.176 5.58882 16.6519 6.297 16.1728C6.93 15.7498 7.64 15.3428 8.347 15.0828C8.767 14.9288 9.246 14.8058 9.734 14.7968C9.78445 14.4985 9.86486 14.206 9.974 13.9238Z" fill="currentColor"/>
</svg>
