<svg width="24" height="24" viewBox="0 0 24 24" fill="none" xmlns="http://www.w3.org/2000/svg">
<path d="M10.5191 10.5195C10.1248 10.9118 9.9022 11.4444 9.90015 12.0006C9.90015 12.5575 10.1214 13.0917 10.5152 13.4855C10.909 13.8793 11.4432 14.1006 12.0001 14.1006C12.5563 14.0985 13.089 13.8759 13.4812 13.4816" stroke="#767676" stroke-linecap="round" stroke-linejoin="round"/>
<path d="M12 5.7002C10.7539 5.7002 9.53589 6.06968 8.49986 6.76194C7.46383 7.45419 6.65634 8.43811 6.17951 9.58929C5.70268 10.7405 5.57792 12.0072 5.82101 13.2293C6.06409 14.4513 6.66411 15.5739 7.54518 16.455C8.42625 17.336 9.5488 17.9361 10.7709 18.1791C11.993 18.4222 13.2597 18.2975 14.4109 17.8206C15.562 17.3438 16.546 16.5363 17.2382 15.5003C17.9305 14.4643 18.3 13.2462 18.3 12.0002" stroke="#767676" stroke-linecap="round" stroke-linejoin="round"/>
<path d="M12 1.5C9.9233 1.5 7.89323 2.11581 6.16652 3.26957C4.4398 4.42332 3.09399 6.0632 2.29927 7.98182C1.50455 9.90045 1.29661 12.0116 1.70176 14.0484C2.1069 16.0852 3.10693 17.9562 4.57538 19.4246C6.04383 20.8931 7.91475 21.8931 9.95155 22.2982C11.9884 22.7034 14.0996 22.4954 16.0182 21.7007C17.9368 20.906 19.5767 19.5602 20.7304 17.8335C21.8842 16.1068 22.5 14.0767 22.5 12M15.8961 8.10505L13.05 10.95" stroke="#767676" stroke-linecap="round" stroke-linejoin="round"/>
<path d="M21.881 5.19627L18.2999 5.70027L18.8039 2.11922C18.8076 2.07762 18.7988 2.03587 18.7787 1.9993C18.7585 1.96272 18.7279 1.93298 18.6908 1.91388C18.6537 1.89478 18.6117 1.88718 18.5702 1.89206C18.5287 1.89694 18.4896 1.91407 18.458 1.94127L16.0839 4.30322C15.84 4.54883 15.6606 4.85091 15.5617 5.18257C15.4628 5.51424 15.4474 5.86521 15.5169 6.20427L15.8949 8.10532L17.7959 8.48222C18.135 8.55168 18.4859 8.53627 18.8176 8.43735C19.1493 8.33843 19.4513 8.15907 19.697 7.91522L22.0578 5.54222C22.0851 5.51046 22.1023 5.47127 22.1071 5.42968C22.112 5.38809 22.1043 5.346 22.085 5.30881C22.0658 5.27162 22.0359 5.24104 21.9991 5.22098C21.9624 5.20093 21.9204 5.19232 21.8787 5.19627" stroke="#767676" stroke-linecap="round" stroke-linejoin="round"/>
</svg>
