<svg width="24" height="24" viewBox="0 0 24 24" fill="none" xmlns="http://www.w3.org/2000/svg">
<path d="M6.44717 1.54455C7.4816 1.48427 8.54078 2.032 9.09216 2.92018C9.24373 3.16434 9.06651 3.48486 8.79782 3.49307C8.54895 3.50067 8.29479 3.06402 8.11647 2.89047C7.70184 2.48717 7.14136 2.26934 6.56321 2.28681C6.28101 2.29326 6.15832 2.50437 6.17767 2.77197C6.22032 3.36199 6.45628 3.89504 6.88578 4.30432C7.51121 4.90034 8.1687 4.94382 8.9853 4.92163C9.35455 4.33223 9.93097 3.73103 10.5883 3.45695C10.7004 3.41023 10.8293 3.39362 10.9431 3.4478C11.0329 3.49124 11.1011 3.56934 11.1322 3.66413C11.246 4.01142 10.8662 4.12422 10.6467 4.25806C10.1202 4.57919 9.78424 4.98454 9.505 5.52901C11.2075 5.24473 12.4682 5.04033 14.1355 5.75567C14.4004 5.88731 14.6516 6.04494 14.8854 6.22623C15.4403 6.665 16.0399 7.42961 16.2117 8.14023C16.2945 8.4823 15.9236 8.69396 15.671 8.49605C15.5372 8.39131 15.3899 8.01439 15.2943 7.84041C15.0988 7.48044 14.841 7.15798 14.533 6.88799C13.5169 6.00788 12.0749 5.93099 10.7963 6.07919C10.2852 6.13842 9.73886 6.27033 9.22459 6.3075C9.1495 6.5564 9.151 6.97218 9.09143 7.13246C8.89018 7.67378 8.28763 7.48772 8.38814 6.81829C8.45375 6.38115 8.50415 6.09416 8.62827 5.67019C7.87702 5.66265 7.31149 5.54156 6.68874 5.09449C6.05006 4.63703 5.61811 3.94559 5.4871 3.17095C5.3617 2.39792 5.55581 1.67549 6.44717 1.54455Z" fill="#767676"/>
<path d="M4.67213 7.83342C5.02228 7.81856 5.21036 8.20727 5.02286 8.39161C4.47924 8.92612 4.216 9.35419 4.05619 10.1295C3.87446 11.0209 3.93285 11.9683 4.15139 12.8482C4.23918 13.2016 4.34557 13.4592 3.957 13.6424C3.71825 13.6373 3.56687 13.5802 3.50145 13.3239C3.14141 11.9129 3.03912 10.257 3.69792 8.91916C3.87525 8.55906 4.27667 7.9625 4.67213 7.83342Z" fill="#767676"/>
<path d="M13.943 17.4404C14.2489 17.4712 14.3485 17.7089 14.4987 17.949C14.7131 18.2918 14.9118 18.7248 14.3801 18.8755C14.1201 18.8337 14.0423 18.6574 13.9118 18.4499C13.718 18.1416 13.3612 17.5715 13.943 17.4404Z" fill="#767676"/>
<path d="M1 10.0056C1.00218 10.0012 1.00437 9.99684 1.00655 9.99244C1.10814 9.67187 1.12314 9.28543 1.20221 8.95346C1.55051 7.49112 2.38073 6.17712 3.84305 5.63522C4.43247 5.43816 5.19225 5.19749 5.81054 5.33394C5.87309 5.34773 5.96736 5.4489 5.98476 5.51183C6.05723 5.77403 5.95681 5.93318 5.69728 5.99991C5.39613 6.07734 5.10137 6.05979 4.79949 6.13062C3.76311 6.31573 2.89849 6.90759 2.39275 7.84669C1.47532 9.55023 1.63102 11.9029 2.15583 13.7111C2.59843 15.236 3.50555 17.08 4.93948 17.8813C5.68007 18.2951 6.46098 18.3055 7.2622 18.0787C7.7636 17.9368 8.24679 17.6162 8.74061 17.6145C8.96703 17.7301 9.0858 17.8702 8.98024 18.1227C8.63821 18.9407 8.25317 19.7331 8.0001 20.588C7.82133 21.1919 8.16596 21.7072 8.80703 21.7126C9.10816 21.7152 9.41835 21.6343 9.71597 21.5952C10.6467 21.4313 11.6637 21.2212 12.5615 20.9254L12.5731 20.9214C12.3825 20.5621 12.2172 20.1921 12.0169 19.8372C11.8673 19.5722 11.6065 19.2249 11.5024 18.9572C11.4739 18.8838 11.4729 18.79 11.4962 18.7149C11.5285 18.6103 11.6249 18.5294 11.7201 18.4822C11.7825 18.4514 11.8513 18.456 11.9153 18.4788C12.3206 18.6236 13.0682 20.2479 13.2697 20.6867C14.4431 20.3146 15.6756 19.7335 16.7548 19.1436C16.9505 19.0367 17.3502 18.8158 17.5313 18.6883C17.2721 18.0879 16.9839 17.5005 16.6677 16.928C16.5026 16.6255 16.2716 16.309 16.1484 15.9899C16.1215 15.9201 16.1305 15.8435 16.1574 15.7746C16.1914 15.6874 16.2601 15.6052 16.3477 15.5684C16.4341 15.5321 16.5393 15.5192 16.6275 15.5562C16.9288 15.6823 17.7428 17.3869 17.9175 17.749C17.9799 17.8782 18.035 18.1005 18.1236 18.2045C18.1572 18.2441 18.2021 18.2572 18.2506 18.2358C18.4209 18.1611 18.606 17.9967 18.7629 17.8862C19.4634 17.3929 20.0801 16.9119 20.3612 16.0669C20.6738 15.1271 20.4586 14.0944 20.0239 13.2305C19.4401 12.0708 18.3853 11.0219 17.1351 10.6123C16.3914 10.3686 15.5742 10.3917 14.8704 10.7484C14.6164 10.8771 14.3407 11.0555 14.1461 11.2649C14.4167 11.4268 15.5598 12.3164 15.6212 12.5734C15.6444 12.6731 15.6259 12.7779 15.57 12.8636C15.441 13.0619 15.2169 13.0702 15.0393 12.9299C14.8361 12.7693 14.6543 12.5975 14.4585 12.4295C14.1808 12.1936 13.8915 11.9717 13.5916 11.7646C13.138 12.2138 12.335 13.0071 11.9666 13.5128C12.4253 13.8764 12.853 14.2755 13.2595 14.6951C13.4562 14.8982 13.69 15.1438 13.4486 15.413C13.1101 15.7904 12.6448 15.1236 12.4235 14.9027C12.1335 14.6146 11.8285 14.342 11.5097 14.086C11.1251 14.5332 10.3277 15.657 10.06 16.1787C10.4037 16.4824 10.7872 16.8595 10.1373 17.1274C9.85857 17.0297 9.06362 16.4361 9.25492 16.0961C10.218 14.3845 11.4755 12.8201 12.8758 11.4449C14.2714 10.0049 15.5609 9.22992 17.6092 9.99944C18.3218 10.2671 18.7741 10.6317 19.3617 11.1071C19.4277 10.9495 19.4877 10.8057 19.5484 10.6458C19.6313 10.4275 19.676 10.1586 19.7984 9.96872C19.9157 9.91477 20.053 9.85814 20.178 9.91327C20.6234 10.1098 20.3073 10.714 20.2002 11.0215C20.1369 11.2033 19.8952 11.5388 19.9114 11.692C19.9643 11.8077 20.1055 11.9589 20.1929 12.061C20.7399 11.8451 22.6049 11.2232 23 11.8241V12.0542C22.7128 12.4552 22.4431 12.3025 22.0099 12.3484C21.4994 12.4026 21.0582 12.5187 20.5826 12.7062C21.219 13.7716 21.4632 15.2878 21.0042 16.4612C20.8315 16.9031 20.5726 17.3062 20.2425 17.647C19.9226 17.979 19.4759 18.2912 19.0938 18.5563C17.8724 19.4081 16.57 20.1375 15.2056 20.7341C13.4969 21.4838 11.7017 22.0181 9.86123 22.3249C9.33815 22.4104 8.72819 22.5645 8.22088 22.3561C7.82761 22.1947 7.49913 21.8919 7.33162 21.4975C7.23318 21.261 7.1944 21.0041 7.2187 20.7491C7.26332 20.2662 7.75561 19.117 7.95475 18.6233C6.94958 19.004 5.92884 19.1288 4.91652 18.6884C3.01757 17.8624 1.78722 15.401 1.33114 13.48C1.26048 13.191 1.20115 12.8992 1.15328 12.6055C1.12071 12.3992 1.072 11.8583 1 11.6924V10.0056Z" fill="#767676"/>
</svg>
