<svg width="21" height="20" viewBox="0 0 21 20" fill="none" xmlns="http://www.w3.org/2000/svg">
<path d="M14.5426 6.92246L14.8956 4.00831C14.9777 3.32903 15.0188 2.99042 14.948 2.70824C14.8589 2.3389 14.6292 2.01894 14.3077 1.81655C14.0717 1.67084 13.7536 1.62672 13.1205 1.5395C12.4863 1.45023 12.1693 1.40611 11.9055 1.48306C11.5546 1.58465 11.255 1.83194 11.0744 2.1685C10.9379 2.42195 10.8528 3.12586 10.7707 3.80514L4.47858 2.92987C4.56067 2.25059 4.64686 1.54668 4.57503 1.2645C4.48577 0.895544 4.25604 0.575988 3.93474 0.373841C3.69874 0.228134 3.38064 0.184011 2.74754 0.095766C2.1134 0.00752074 1.79633 -0.0376281 1.53365 0.03933C1.1817 0.140915 0.883099 0.388207 0.701478 0.725796C0.565006 0.979245 0.523961 1.31786 0.441873 1.99817L0.088892 4.91231C0.00680339 5.58955 -0.034241 5.93021 0.0355343 6.21239C0.130962 6.58795 0.36081 6.90912 0.676852 7.10305C0.912856 7.24876 1.23095 7.29288 1.86406 7.3801C2.49819 7.46937 2.81423 7.5135 3.07794 7.43756C3.42887 7.33495 3.72849 7.08869 3.90909 6.7511C4.04556 6.49765 4.13175 5.79374 4.21384 5.11548L10.5049 5.99075C10.4228 6.66901 10.3377 7.37292 10.4085 7.6551C10.5029 8.03168 10.7337 8.35285 11.0487 8.54679C11.2858 8.69249 11.6028 8.73662 12.237 8.82384C12.8701 8.91311 13.1872 8.95723 13.4509 8.88027C13.8018 8.77869 14.1014 8.53139 14.282 8.19483C14.4185 7.94138 14.4606 7.60174 14.5426 6.92246ZM5.73453 18.2055L5.02447 15.3663C4.85926 14.7055 4.77615 14.3741 4.81206 14.0847C4.85927 13.6978 5.04807 13.3479 5.33743 13.1099C5.55291 12.9324 5.86177 12.8441 6.47949 12.6666C7.09721 12.4901 7.40606 12.4008 7.67593 12.4398C8.03712 12.4911 8.36342 12.6923 8.58506 13.0021C8.75129 13.234 8.92368 13.9195 9.08785 14.5803L15.2168 12.8215C15.0516 12.1597 14.8802 11.4743 14.9151 11.1849C14.9593 10.8048 15.1473 10.456 15.4405 10.2101C15.657 10.0326 15.9659 9.94434 16.5836 9.76683C17.2003 9.59034 17.5091 9.50107 17.78 9.54006C18.1402 9.59136 18.4675 9.79248 18.6891 10.1024C18.8554 10.3343 18.9375 10.6647 19.1037 11.3255L19.8138 14.1647C19.9779 14.8255 20.061 15.1559 20.0262 15.4463C19.9779 15.8321 19.7902 16.1831 19.5008 16.4201C19.2853 16.5976 18.9754 16.6869 18.3587 16.8634C17.741 17.0409 17.4322 17.1302 17.1613 17.0912C16.9795 17.064 16.8052 17.0002 16.6489 16.9035C16.4926 16.8068 16.3576 16.6794 16.2521 16.5289C16.0859 16.297 15.9145 15.6115 15.7493 14.9507L9.62143 16.7095C9.78561 17.3703 9.95799 18.0557 9.92208 18.3461C9.87488 18.7319 9.68608 19.0829 9.39774 19.3199C9.18123 19.4974 8.87237 19.5867 8.25465 19.7632C7.63796 19.9407 7.32911 20.03 7.05821 19.991C6.87645 19.9638 6.70212 19.9 6.54583 19.8033C6.38953 19.7066 6.25455 19.5792 6.14908 19.4287C5.98285 19.1968 5.89974 18.8664 5.73453 18.2055Z" fill="#575757"/>
</svg>
