<svg width="24" height="24" viewBox="0 0 24 24" fill="none" xmlns="http://www.w3.org/2000/svg">
<path d="M11.6101 1.01758C12.4458 0.855031 14.6697 1.82979 15.6111 2.13965C17.2243 2.6706 18.9392 3.16099 20.4851 3.85547C20.7177 3.96033 20.9462 4.32305 21.0876 4.53809C21.1112 13.7832 21.9529 18.3057 12.3884 22.96C11.8723 23.0934 11.4144 22.8662 10.9519 22.6436C7.62303 21.0416 4.80591 18.6213 3.53784 15.0586C2.70676 12.757 2.92848 10.1704 2.93042 7.75488C3.05764 6.71728 2.42996 4.28737 3.69019 3.80176C6.2884 2.8005 8.98961 1.92771 11.6101 1.01758ZM11.8005 2.00293C10.728 2.41929 4.56171 4.38359 4.12769 4.88965C3.91995 5.41416 4.00333 11.6222 4.11401 12.4268C4.26566 13.4958 4.54583 14.5418 4.948 15.54C6.11193 18.3935 8.79155 20.5419 11.4578 21.832C11.6935 21.9461 11.9672 22.0272 12.2292 21.9902C15.9428 20.3329 19.5734 16.9178 19.8972 12.5293C19.9709 11.5311 20.1156 5.51031 19.8318 4.83008C19.361 4.44127 12.1696 1.89436 11.8005 2.00293Z" fill="#767676"/>
<path d="M8.5 11.5L11 14L16.5 9" stroke="#767676" stroke-linecap="round"/>
</svg>
