<svg width="12" height="20" viewBox="0 0 12 20" fill="none" xmlns="http://www.w3.org/2000/svg">
<path d="M3.20799 8.55277e-08H8.22586C9.87704 8.55277e-08 11.1136 1.51537 10.7777 3.13081C10.6705 3.63117 10.2273 3.98856 9.71978 3.98856H1.72121C1.20656 3.98856 0.770535 3.63117 0.663315 3.13081C0.584232 2.7525 0.590517 2.36131 0.681712 1.98574C0.772908 1.61017 0.946718 1.25966 1.19049 0.959743C1.43425 0.659827 1.74184 0.418052 2.09085 0.252026C2.43986 0.0859995 2.8215 -9.90588e-05 3.20799 8.55277e-08ZM3.56539 1.5654C3.66776 1.5654 3.76594 1.52474 3.83832 1.45235C3.91071 1.37996 3.95138 1.28179 3.95138 1.17941C3.95138 1.07704 3.91071 0.978865 3.83832 0.906478C3.76594 0.834091 3.66776 0.793424 3.56539 0.793424C3.46302 0.793424 3.36484 0.834091 3.29245 0.906478C3.22006 0.978865 3.1794 1.07704 3.1794 1.17941C3.1794 1.28179 3.22006 1.37996 3.29245 1.45235C3.36484 1.52474 3.46302 1.5654 3.56539 1.5654ZM7.91135 1.5654C8.01372 1.5654 8.1119 1.52474 8.18428 1.45235C8.25667 1.37996 8.29734 1.28179 8.29734 1.17941C8.29734 1.07704 8.25667 0.978865 8.18428 0.906478C8.1119 0.834091 8.01372 0.793424 7.91135 0.793424C7.80898 0.793424 7.7108 0.834091 7.63841 0.906478C7.56603 0.978865 7.52536 1.07704 7.52536 1.17941C7.52536 1.28179 7.56603 1.37996 7.63841 1.45235C7.7108 1.52474 7.80898 1.5654 7.91135 1.5654ZM5.0879 2.43031C5.0879 2.32794 5.04724 2.22976 4.97485 2.15737C4.90246 2.08498 4.80429 2.04432 4.70191 2.04432C4.59954 2.04432 4.50137 2.08498 4.42898 2.15737C4.35659 2.22976 4.31592 2.32794 4.31592 2.43031C4.31592 2.53268 4.35659 2.63086 4.42898 2.70324C4.50137 2.77563 4.59954 2.8163 4.70191 2.8163C4.80429 2.8163 4.90246 2.77563 4.97485 2.70324C5.04724 2.63086 5.0879 2.53268 5.0879 2.43031ZM7.15366 2.43031C7.15366 2.32794 7.113 2.22976 7.04061 2.15737C6.96822 2.08498 6.87005 2.04432 6.76768 2.04432C6.6653 2.04432 6.56713 2.08498 6.49474 2.15737C6.42235 2.22976 6.38168 2.32794 6.38168 2.43031C6.38168 2.53268 6.42235 2.63086 6.49474 2.70324C6.56713 2.77563 6.6653 2.8163 6.76768 2.8163C6.87005 2.8163 6.96822 2.77563 7.04061 2.70324C7.113 2.63086 7.15366 2.53268 7.15366 2.43031ZM6.12436 1.17941C6.12436 1.07704 6.08369 0.978865 6.0113 0.906478C5.93892 0.834091 5.84074 0.793424 5.73837 0.793424C5.636 0.793424 5.53782 0.834091 5.46543 0.906478C5.39304 0.978865 5.35238 1.07704 5.35238 1.17941C5.35238 1.28179 5.39304 1.37996 5.46543 1.45235C5.53782 1.52474 5.636 1.5654 5.73837 1.5654C5.84074 1.5654 5.93892 1.52474 6.0113 1.45235C6.08369 1.37996 6.12436 1.28179 6.12436 1.17941ZM9.00499 20H2.43601C0.934937 20 -0.215884 18.649 0.0342943 17.1694L1.7784 6.69049H1.83201L1.7784 6.68335V4.76197H9.66975V6.68335L9.61685 6.69049H9.6626L11.4067 17.1623C11.6497 18.649 10.5061 20 9.00499 20ZM8.36882 11.3367H3.07218C2.80056 11.3367 2.56467 11.5368 2.52179 11.8013L1.74266 16.4761C1.57111 17.5125 2.37168 18.456 3.42243 18.456H8.01857C9.06932 18.456 9.86989 17.5125 9.69834 16.4761L8.91921 11.8013C8.89592 11.6719 8.82819 11.5547 8.72771 11.4698C8.62723 11.385 8.5003 11.3379 8.36882 11.3367Z" fill="#575757"/>
</svg>
