<svg width="17" height="20" viewBox="0 0 17 20" fill="none" xmlns="http://www.w3.org/2000/svg">
<path d="M2.31513 17.6119C0.77171 16.0191 0 14.0367 0 11.6648C0 10.6148 0.23935 9.55701 0.71805 8.49152C1.19598 7.42602 1.79319 6.40377 2.5097 5.42475C3.22775 4.44496 4.00216 3.52153 4.83294 2.65447C5.66449 1.78663 6.43658 1.03152 7.14923 0.389137C7.2882 0.264829 7.43992 0.168703 7.60438 0.100759C7.76806 0.0335863 7.93561 0 8.10701 0C8.27842 0 8.44596 0.0335863 8.60965 0.100759C8.77333 0.167931 8.92505 0.264443 9.0648 0.390295C9.77744 1.03113 10.5495 1.78586 11.3811 2.65447C12.2126 3.52153 12.987 4.44457 13.7043 5.42359C14.4216 6.40261 15.0192 7.42525 15.4971 8.49152C15.9751 9.55778 16.214 10.6156 16.214 11.6648C16.214 14.0367 15.4412 16.0191 13.8954 17.6119C12.3481 19.204 10.4171 20 8.10238 20C5.78763 20 3.85932 19.204 2.31513 17.6119ZM8.35717 17.327C8.52935 17.3077 8.66447 17.2486 8.76252 17.1498C8.85903 17.0494 8.90729 16.9294 8.90729 16.7896C8.90729 16.6259 8.8517 16.4989 8.74052 16.4086C8.62934 16.319 8.48766 16.2839 8.31548 16.3032C7.52408 16.3611 6.64003 16.114 5.66333 15.562C4.68585 15.0107 4.0813 14.0881 3.84967 12.794C3.81107 12.6118 3.74698 12.4755 3.65742 12.3852C3.56709 12.2949 3.4532 12.2497 3.31577 12.2497C3.16366 12.2497 3.03434 12.3064 2.92779 12.4199C2.82124 12.5334 2.7892 12.7033 2.83166 12.9295C3.13047 14.537 3.87284 15.6875 5.05878 16.3808C6.24472 17.0741 7.34418 17.3895 8.35717 17.327Z" fill="currentColor"/>
</svg>
