<svg width="20" height="20" viewBox="0 0 20 20" fill="none" xmlns="http://www.w3.org/2000/svg">
<path d="M16.4107 6.39828L16.5102 6.49781C17.041 7.02872 17.3392 7.74873 17.3392 8.49947C17.3392 9.25022 17.041 9.97022 16.5102 10.5011L10.5052 16.5017C10.2423 16.7649 9.9301 16.9736 9.58645 17.1161C9.2428 17.2585 8.87445 17.3318 8.50246 17.3318C8.13046 17.3318 7.76211 17.2585 7.41847 17.1161C7.07482 16.9736 6.76261 16.7649 6.49969 16.5017L6.40016 16.4044L5.97107 18.8307C5.92602 19.0857 5.81187 19.3235 5.64104 19.5182C5.47022 19.7128 5.24927 19.8569 5.00224 19.9347C4.75522 20.0124 4.4916 20.021 4.24007 19.9593C3.98854 19.8976 3.75875 19.7681 3.57571 19.5849L0.412859 16.4221C0.230242 16.2388 0.101338 16.009 0.0401546 15.7577C-0.021029 15.5063 -0.0121527 15.2429 0.0658189 14.9963C0.143791 14.7496 0.287876 14.529 0.482419 14.3584C0.676962 14.1879 0.914522 14.0739 1.16929 14.0289L3.59783 13.5998L3.4983 13.5003C2.9675 12.9694 2.66931 12.2494 2.66931 11.4987C2.66931 10.7479 2.9675 10.0279 3.4983 9.49699L9.50108 3.49199C9.764 3.22884 10.0762 3.02007 10.4199 2.87764C10.7635 2.73521 11.1319 2.6619 11.5038 2.6619C11.8758 2.6619 12.2442 2.73521 12.5878 2.87764C12.9315 3.02007 13.2437 3.22884 13.5066 3.49199L13.6062 3.58931L14.0352 1.16741C14.0806 0.912561 14.195 0.675036 14.366 0.480666C14.5369 0.286297 14.7579 0.142526 15.0049 0.0649914C15.2518 -0.0125431 15.5153 -0.0208725 15.7667 0.0409091C16.0181 0.102691 16.2477 0.232218 16.4306 0.415402L19.5846 3.57825C19.7678 3.76144 19.8973 3.9914 19.9588 4.24309C20.0204 4.49477 20.0117 4.75852 19.9336 5.00559C19.8556 5.25266 19.7113 5.47358 19.5163 5.64427C19.3214 5.81497 19.0834 5.92888 18.8282 5.97361L16.4107 6.39828ZM4.27463 10.7931H14.1657V10.8418L15.5105 9.49699C15.771 9.23601 15.9194 8.88367 15.9241 8.51495H6.48199L4.49581 10.5011C4.4082 10.5882 4.33235 10.6863 4.27021 10.7931H4.27463ZM4.27463 12.2086C4.33656 12.3133 4.41176 12.4114 4.50024 12.5028L7.50163 15.5042C7.76708 15.7696 8.12709 15.9187 8.50246 15.9187C8.87783 15.9187 9.23783 15.7696 9.50329 15.5042L12.8011 12.2086H4.27463ZM15.1124 7.09941L12.5091 4.49393C12.2436 4.22853 11.8836 4.07944 11.5083 4.07944C11.1329 4.07944 10.7729 4.22853 10.5074 4.49393L7.89754 7.09941H15.1124ZM1.41701 15.4246L4.57986 18.5874L5.11511 15.544C5.13073 15.4544 5.12452 15.3623 5.097 15.2755C5.06948 15.1888 5.02145 15.11 4.957 15.0457C4.89255 14.9815 4.81357 14.9338 4.72674 14.9065C4.63991 14.8793 4.5478 14.8734 4.45821 14.8893L1.41701 15.4246ZM15.4287 1.41734L14.8912 4.45633C14.8753 4.54592 14.8812 4.63803 14.9084 4.72486C14.9356 4.81169 14.9834 4.89067 15.0476 4.95512C15.1119 5.01957 15.1907 5.06759 15.2774 5.09512C15.3642 5.12264 15.4562 5.12885 15.5459 5.11323L18.5849 4.58019L15.4287 1.41734Z" fill="currentColor"/>
<path d="M4.27463 12.2086C4.33656 12.3133 4.41176 12.4114 4.50024 12.5028L7.50163 15.5042C7.76708 15.7696 8.12709 15.9187 8.50246 15.9187C8.87783 15.9187 9.23783 15.7696 9.50329 15.5042L12.8011 12.2086H4.27463Z" fill="currentColor"/>
<path d="M1.41701 15.4246L4.57986 18.5874L5.11511 15.544C5.13073 15.4544 5.12452 15.3623 5.097 15.2755C5.06948 15.1888 5.02145 15.11 4.957 15.0457C4.89255 14.9815 4.81357 14.9338 4.72674 14.9065C4.63991 14.8793 4.5478 14.8734 4.45821 14.8893L1.41701 15.4246Z" fill="currentColor"/>
<path d="M15.1124 7.09941L12.5091 4.49393C12.2436 4.22853 11.8836 4.07944 11.5083 4.07944C11.1329 4.07944 10.7729 4.22853 10.5074 4.49393L7.89754 7.09941H15.1124Z" fill="currentColor"/>
<path d="M15.4287 1.41734L14.8912 4.45633C14.8753 4.54592 14.8812 4.63803 14.9084 4.72486C14.9356 4.81169 14.9834 4.89067 15.0476 4.95512C15.1119 5.01957 15.1907 5.06759 15.2774 5.09512C15.3642 5.12264 15.4562 5.12885 15.5459 5.11323L18.5849 4.58019L15.4287 1.41734Z" fill="currentColor"/>
</svg>
